<?xml version="1.0" encoding="utf-8" standalone="no"?>
<!DOCTYPE svg PUBLIC "-//W3C//DTD SVG 1.1//EN"
  "http://www.w3.org/Graphics/SVG/1.1/DTD/svg11.dtd">
<svg xmlns:xlink="http://www.w3.org/1999/xlink" width="576pt" height="432pt" viewBox="0 0 576 432" xmlns="http://www.w3.org/2000/svg" version="1.1">
 <metadata>
  <rdf:RDF xmlns:dc="http://purl.org/dc/elements/1.1/" xmlns:cc="http://creativecommons.org/ns#" xmlns:rdf="http://www.w3.org/1999/02/22-rdf-syntax-ns#">
   <cc:Work>
    <dc:type rdf:resource="http://purl.org/dc/dcmitype/StillImage"/>
    <dc:date>2024-07-03T18:10:53.069359</dc:date>
    <dc:format>image/svg+xml</dc:format>
    <dc:creator>
     <cc:Agent>
      <dc:title>Matplotlib v3.7.1, https://matplotlib.org/</dc:title>
     </cc:Agent>
    </dc:creator>
   </cc:Work>
  </rdf:RDF>
 </metadata>
 <defs>
  <style type="text/css">*{stroke-linejoin: round; stroke-linecap: butt}</style>
 </defs>
 <g id="figure_1">
  <g id="patch_1">
   <path d="M 0 432 
L 576 432 
L 576 0 
L 0 0 
L 0 432 
z
" style="fill: none"/>
  </g>
  <g id="axes_1">
   <g id="patch_2">
    <path d="M 85.226062 372.596704 
L 565.2 372.596704 
L 565.2 10.8 
L 85.226062 10.8 
z
" style="fill: #ffffff"/>
   </g>
   <g id="matplotlib.axis_1">
    <g id="xtick_1">
     <g id="line2d_1">
      <defs>
       <path id="ma807fca80b" d="M 0 0 
L 0 3.5 
" style="stroke: #000000; stroke-width: 0.8"/>
      </defs>
      <g>
       <use xlink:href="#ma807fca80b" x="107.043059" y="372.596704" style="stroke: #000000; stroke-width: 0.8"/>
      </g>
     </g>
     <g id="text_1">
      <!-- $\mathdefault{0}$ -->
      <g transform="translate(102.474012 393.433701) scale(0.2 -0.2)">
       <defs>
        <path id="CMR17-30" d="M 2688 2038 
C 2688 2430 2682 3099 2413 3613 
C 2176 4063 1798 4224 1466 4224 
C 1158 4224 768 4082 525 3620 
C 269 3137 243 2539 243 2038 
C 243 1671 250 1112 448 623 
C 723 -39 1216 -128 1466 -128 
C 1760 -128 2208 -7 2470 604 
C 2662 1048 2688 1568 2688 2038 
z
M 1466 -26 
C 1056 -26 813 328 723 816 
C 653 1196 653 1749 653 2109 
C 653 2604 653 3015 736 3407 
C 858 3954 1216 4121 1466 4121 
C 1728 4121 2067 3947 2189 3420 
C 2272 3054 2278 2623 2278 2109 
C 2278 1691 2278 1176 2202 797 
C 2067 96 1690 -26 1466 -26 
z
" transform="scale(0.015625)"/>
       </defs>
       <use xlink:href="#CMR17-30" transform="scale(0.996264)"/>
      </g>
     </g>
    </g>
    <g id="xtick_2">
     <g id="line2d_2">
      <g>
       <use xlink:href="#ma807fca80b" x="216.128045" y="372.596704" style="stroke: #000000; stroke-width: 0.8"/>
      </g>
     </g>
     <g id="text_2">
      <!-- $\mathdefault{10}$ -->
      <g transform="translate(206.98995 393.433701) scale(0.2 -0.2)">
       <defs>
        <path id="CMR17-31" d="M 1702 4083 
C 1702 4217 1696 4224 1606 4224 
C 1357 3927 979 3833 621 3820 
C 602 3820 570 3820 563 3808 
C 557 3795 557 3782 557 3648 
C 755 3648 1088 3686 1344 3839 
L 1344 467 
C 1344 243 1331 166 781 166 
L 589 166 
L 589 0 
C 896 6 1216 12 1523 12 
C 1830 12 2150 6 2458 0 
L 2458 166 
L 2266 166 
C 1715 166 1702 236 1702 467 
L 1702 4083 
z
" transform="scale(0.015625)"/>
       </defs>
       <use xlink:href="#CMR17-31" transform="scale(0.996264)"/>
       <use xlink:href="#CMR17-30" transform="translate(45.690477 0) scale(0.996264)"/>
      </g>
     </g>
    </g>
    <g id="xtick_3">
     <g id="line2d_3">
      <g>
       <use xlink:href="#ma807fca80b" x="325.213031" y="372.596704" style="stroke: #000000; stroke-width: 0.8"/>
      </g>
     </g>
     <g id="text_3">
      <!-- $\mathdefault{20}$ -->
      <g transform="translate(316.074936 393.433701) scale(0.2 -0.2)">
       <defs>
        <path id="CMR17-32" d="M 2669 990 
L 2554 990 
C 2490 537 2438 460 2413 422 
C 2381 371 1920 371 1830 371 
L 602 371 
C 832 620 1280 1073 1824 1596 
C 2214 1966 2669 2400 2669 3033 
C 2669 3788 2067 4224 1395 4224 
C 691 4224 262 3603 262 3027 
C 262 2777 448 2745 525 2745 
C 589 2745 781 2783 781 3007 
C 781 3206 614 3264 525 3264 
C 486 3264 448 3257 422 3244 
C 544 3788 915 4057 1306 4057 
C 1862 4057 2227 3616 2227 3033 
C 2227 2477 1901 1998 1536 1583 
L 262 147 
L 262 0 
L 2515 0 
L 2669 990 
z
" transform="scale(0.015625)"/>
       </defs>
       <use xlink:href="#CMR17-32" transform="scale(0.996264)"/>
       <use xlink:href="#CMR17-30" transform="translate(45.690477 0) scale(0.996264)"/>
      </g>
     </g>
    </g>
    <g id="xtick_4">
     <g id="line2d_4">
      <g>
       <use xlink:href="#ma807fca80b" x="434.298017" y="372.596704" style="stroke: #000000; stroke-width: 0.8"/>
      </g>
     </g>
     <g id="text_4">
      <!-- $\mathdefault{30}$ -->
      <g transform="translate(425.159922 393.433701) scale(0.2 -0.2)">
       <defs>
        <path id="CMR17-33" d="M 1414 2176 
C 1984 2176 2234 1673 2234 1094 
C 2234 322 1824 25 1453 25 
C 1114 25 563 193 390 691 
C 422 678 454 678 486 678 
C 640 678 755 780 755 947 
C 755 1132 614 1216 486 1216 
C 378 1216 211 1164 211 927 
C 211 335 787 -128 1466 -128 
C 2176 -128 2720 432 2720 1087 
C 2720 1718 2208 2176 1600 2246 
C 2086 2347 2554 2776 2554 3353 
C 2554 3856 2048 4224 1472 4224 
C 890 4224 378 3862 378 3347 
C 378 3123 544 3084 627 3084 
C 762 3084 877 3167 877 3334 
C 877 3500 762 3584 627 3584 
C 602 3584 570 3584 544 3571 
C 730 3999 1235 4076 1459 4076 
C 1683 4076 2106 3966 2106 3347 
C 2106 3167 2080 2851 1862 2574 
C 1670 2329 1453 2316 1242 2297 
C 1210 2297 1062 2284 1037 2284 
C 992 2278 966 2272 966 2227 
C 966 2182 973 2176 1101 2176 
L 1414 2176 
z
" transform="scale(0.015625)"/>
       </defs>
       <use xlink:href="#CMR17-33" transform="scale(0.996264)"/>
       <use xlink:href="#CMR17-30" transform="translate(45.690477 0) scale(0.996264)"/>
      </g>
     </g>
    </g>
    <g id="xtick_5">
     <g id="line2d_5">
      <g>
       <use xlink:href="#ma807fca80b" x="543.383003" y="372.596704" style="stroke: #000000; stroke-width: 0.8"/>
      </g>
     </g>
     <g id="text_5">
      <!-- $\mathdefault{40}$ -->
      <g transform="translate(534.244907 393.433701) scale(0.2 -0.2)">
       <defs>
        <path id="CMR17-34" d="M 2150 4147 
C 2150 4281 2144 4288 2029 4288 
L 128 1254 
L 128 1088 
L 1779 1088 
L 1779 460 
C 1779 230 1766 166 1318 166 
L 1197 166 
L 1197 0 
C 1402 12 1747 12 1965 12 
C 2182 12 2528 12 2733 0 
L 2733 166 
L 2611 166 
C 2163 166 2150 230 2150 460 
L 2150 1088 
L 2803 1088 
L 2803 1254 
L 2150 1254 
L 2150 4147 
z
M 1798 3723 
L 1798 1254 
L 256 1254 
L 1798 3723 
z
" transform="scale(0.015625)"/>
       </defs>
       <use xlink:href="#CMR17-34" transform="scale(0.996264)"/>
       <use xlink:href="#CMR17-30" transform="translate(45.690477 0) scale(0.996264)"/>
      </g>
     </g>
    </g>
    <g id="text_6">
     <!-- Order/path length -->
     <g transform="translate(251.182616 416.235356) scale(0.2 -0.2)">
      <defs>
       <path id="CMR17-4f" d="M 4307 2166 
C 4307 3488 3366 4480 2304 4480 
C 1216 4480 294 3475 294 2166 
C 294 857 1229 -128 2298 -128 
C 3392 -128 4307 876 4307 2166 
z
M 2304 -13 
C 1574 -13 781 722 781 2250 
C 781 3771 1651 4364 2298 4364 
C 2976 4364 3821 3752 3821 2250 
C 3821 696 3008 -13 2304 -13 
z
" transform="scale(0.015625)"/>
       <path id="CMR17-72" d="M 960 1517 
C 960 2134 1222 2713 1702 2713 
C 1747 2713 1792 2707 1837 2687 
C 1837 2687 1696 2642 1696 2475 
C 1696 2321 1818 2257 1914 2257 
C 1990 2257 2131 2302 2131 2482 
C 2131 2687 1926 2816 1709 2816 
C 1222 2816 1011 2340 947 2115 
L 941 2115 
L 941 2816 
L 198 2745 
L 198 2578 
C 576 2578 634 2540 634 2231 
L 634 443 
C 634 198 608 166 198 166 
L 198 0 
C 352 12 646 12 813 12 
C 998 12 1325 12 1498 0 
L 1498 166 
C 1037 166 960 166 960 455 
L 960 1517 
z
" transform="scale(0.015625)"/>
       <path id="CMR17-64" d="M 1869 4345 
L 1869 4179 
C 2246 4179 2304 4141 2304 3843 
L 2304 2371 
C 2278 2403 2016 2816 1498 2816 
C 845 2816 211 2228 211 1376 
C 211 529 806 -64 1434 -64 
C 1978 -64 2259 361 2291 406 
L 2291 -64 
L 3066 -13 
L 3066 154 
C 2688 154 2630 193 2630 503 
L 2630 4416 
L 1869 4345 
z
M 2291 762 
C 2291 568 2176 393 2029 264 
C 1811 70 1594 38 1472 38 
C 1286 38 621 135 621 1369 
C 621 2636 1363 2713 1530 2713 
C 1824 2713 2061 2545 2208 2313 
C 2291 2177 2291 2157 2291 2041 
L 2291 762 
z
" transform="scale(0.015625)"/>
       <path id="CMR17-65" d="M 2438 1503 
C 2464 1529 2464 1542 2464 1606 
C 2464 2251 2118 2816 1389 2816 
C 710 2816 173 2175 173 1394 
C 173 554 781 -64 1459 -64 
C 2176 -64 2458 619 2458 755 
C 2458 800 2419 800 2406 800 
C 2362 800 2355 787 2330 709 
C 2189 270 1837 51 1504 51 
C 1229 51 954 206 781 490 
C 582 819 582 1200 582 1503 
L 2438 1503 
z
M 589 1600 
C 634 2511 1126 2713 1382 2713 
C 1818 2713 2112 2308 2118 1600 
L 589 1600 
z
" transform="scale(0.015625)"/>
       <path id="CMR17-2f" d="M 2605 4575 
C 2637 4658 2637 4671 2637 4684 
C 2637 4761 2579 4800 2528 4800 
C 2451 4800 2426 4748 2400 4671 
L 326 -1376 
C 294 -1460 294 -1472 294 -1485 
C 294 -1562 352 -1600 403 -1600 
C 480 -1600 506 -1549 531 -1472 
L 2605 4575 
z
" transform="scale(0.015625)"/>
       <path id="CMR17-70" d="M 1408 -1114 
C 998 -1114 973 -1088 973 -834 
L 973 380 
C 1158 109 1427 -64 1766 -64 
C 2406 -64 3053 503 3053 1382 
C 3053 2196 2496 2816 1837 2816 
C 1453 2816 1139 2603 960 2345 
L 960 2816 
L 198 2745 
L 198 2577 
C 576 2577 634 2539 634 2228 
L 634 -834 
C 634 -1081 608 -1114 198 -1114 
L 198 -1280 
C 352 -1268 634 -1268 800 -1268 
C 966 -1268 1254 -1268 1408 -1280 
L 1408 -1114 
z
M 973 2015 
C 973 2106 973 2241 1222 2481 
C 1254 2506 1472 2700 1792 2700 
C 2259 2700 2643 2112 2643 1376 
C 2643 639 2234 38 1728 38 
C 1498 38 1248 148 1056 451 
C 973 594 973 632 973 736 
L 973 2015 
z
" transform="scale(0.015625)"/>
       <path id="CMR17-61" d="M 2304 1656 
C 2304 2048 2304 2275 2035 2534 
C 1798 2751 1523 2816 1306 2816 
C 800 2816 435 2408 435 1977 
C 435 1740 627 1728 666 1728 
C 749 1728 896 1779 896 1958 
C 896 2118 774 2188 666 2188 
C 640 2188 608 2182 589 2176 
C 723 2594 1069 2713 1293 2713 
C 1613 2713 1965 2421 1965 1875 
L 1965 1632 
C 1587 1619 1133 1568 774 1373 
C 371 1147 256 822 256 576 
C 256 77 832 -64 1171 -64 
C 1523 -64 1850 135 1990 505 
C 2003 219 2182 -39 2464 -39 
C 2598 -39 2938 51 2938 563 
L 2938 926 
L 2822 926 
L 2822 557 
C 2822 161 2650 109 2566 109 
C 2304 109 2304 446 2304 732 
L 2304 1656 
z
M 1965 887 
C 1965 323 1568 38 1216 38 
C 896 38 646 278 646 576 
C 646 771 730 1114 1101 1322 
C 1408 1497 1760 1523 1965 1536 
L 1965 887 
z
" transform="scale(0.015625)"/>
       <path id="CMR17-74" d="M 966 2585 
L 1862 2585 
L 1862 2752 
L 966 2752 
L 966 3968 
L 851 3968 
C 838 3292 614 2700 70 2687 
L 70 2585 
L 627 2585 
L 627 778 
C 627 655 627 -64 1370 -64 
C 1747 -64 1965 308 1965 784 
L 1965 1151 
L 1850 1151 
L 1850 790 
C 1850 347 1677 51 1408 51 
C 1222 51 966 179 966 765 
L 966 2585 
z
" transform="scale(0.015625)"/>
       <path id="CMR17-68" d="M 2656 1954 
C 2656 2282 2592 2816 1837 2816 
C 1312 2816 1056 2392 979 2179 
L 973 2179 
L 973 4416 
L 211 4345 
L 211 4179 
C 589 4179 646 4141 646 3843 
L 646 443 
C 646 198 621 166 211 166 
L 211 0 
C 365 12 646 12 813 12 
C 979 12 1267 12 1421 0 
L 1421 166 
C 1011 166 986 192 986 443 
L 986 1678 
C 986 2269 1344 2713 1792 2713 
C 2266 2713 2317 2289 2317 1980 
L 2317 443 
C 2317 198 2291 166 1882 166 
L 1882 0 
C 2035 12 2317 12 2483 12 
C 2650 12 2938 12 3091 0 
L 3091 166 
C 2682 166 2656 192 2656 443 
L 2656 1954 
z
" transform="scale(0.015625)"/>
       <path id="CMR17-6c" d="M 979 4416 
L 218 4345 
L 218 4179 
C 595 4179 653 4141 653 3835 
L 653 439 
C 653 198 627 166 218 166 
L 218 0 
C 371 12 653 12 813 12 
C 979 12 1261 12 1414 0 
L 1414 166 
C 1005 166 979 191 979 439 
L 979 4416 
z
" transform="scale(0.015625)"/>
       <path id="CMR17-6e" d="M 2656 1954 
C 2656 2282 2592 2816 1837 2816 
C 1331 2816 1069 2424 973 2166 
L 966 2166 
L 966 2816 
L 211 2745 
L 211 2578 
C 589 2578 646 2540 646 2231 
L 646 443 
C 646 198 621 166 211 166 
L 211 0 
C 365 12 646 12 813 12 
C 979 12 1267 12 1421 0 
L 1421 166 
C 1011 166 986 192 986 443 
L 986 1678 
C 986 2269 1344 2713 1792 2713 
C 2266 2713 2317 2289 2317 1980 
L 2317 443 
C 2317 198 2291 166 1882 166 
L 1882 0 
C 2035 12 2317 12 2483 12 
C 2650 12 2938 12 3091 0 
L 3091 166 
C 2682 166 2656 192 2656 443 
L 2656 1954 
z
" transform="scale(0.015625)"/>
       <path id="CMR17-67" d="M 710 1165 
C 832 1068 1043 960 1299 960 
C 1805 960 2240 1359 2240 1895 
C 2240 2063 2189 2321 1997 2521 
C 2176 2713 2438 2777 2586 2777 
C 2611 2777 2650 2777 2682 2758 
C 2656 2751 2598 2726 2598 2623 
C 2598 2540 2656 2483 2739 2483 
C 2835 2483 2886 2547 2886 2630 
C 2886 2751 2790 2880 2586 2880 
C 2330 2880 2106 2758 1926 2591 
C 1734 2764 1504 2828 1299 2828 
C 794 2828 358 2431 358 1895 
C 358 1527 570 1294 634 1230 
C 442 1004 442 742 442 710 
C 442 544 506 300 723 166 
C 390 82 128 -184 128 -517 
C 128 -996 736 -1344 1466 -1344 
C 2170 -1344 2803 -1009 2803 -510 
C 2803 384 1856 384 1363 384 
C 1216 384 954 384 922 390 
C 723 422 589 601 589 825 
C 589 883 589 1024 710 1165 
z
M 1299 1068 
C 736 1068 736 1766 736 1895 
C 736 2024 736 2719 1299 2719 
C 1862 2719 1862 2024 1862 1895 
C 1862 1766 1862 1068 1299 1068 
z
M 1466 -1236 
C 826 -1236 384 -883 384 -517 
C 384 -311 493 -118 634 -11 
C 794 102 858 102 1293 102 
C 1818 102 2547 102 2547 -517 
C 2547 -883 2106 -1236 1466 -1236 
z
" transform="scale(0.015625)"/>
      </defs>
      <use xlink:href="#CMR17-4f" transform="scale(0.996264)"/>
      <use xlink:href="#CMR17-72" transform="translate(71.714788 0) scale(0.996264)"/>
      <use xlink:href="#CMR17-64" transform="translate(106.995556 0) scale(0.996264)"/>
      <use xlink:href="#CMR17-65" transform="translate(157.890926 0) scale(0.996264)"/>
      <use xlink:href="#CMR17-72" transform="translate(198.376586 0) scale(0.996264)"/>
      <use xlink:href="#CMR17-2f" transform="translate(233.657354 0) scale(0.996264)"/>
      <use xlink:href="#CMR17-70" transform="translate(279.347831 0) scale(0.996264)"/>
      <use xlink:href="#CMR17-61" transform="translate(330.243201 0) scale(0.996264)"/>
      <use xlink:href="#CMR17-74" transform="translate(375.933678 0) scale(0.996264)"/>
      <use xlink:href="#CMR17-68" transform="translate(411.214446 0) scale(0.996264)"/>
      <use xlink:href="#CMR17-6c" transform="translate(492.185782 0) scale(0.996264)"/>
      <use xlink:href="#CMR17-65" transform="translate(517.056841 0) scale(0.996264)"/>
      <use xlink:href="#CMR17-6e" transform="translate(557.542501 0) scale(0.996264)"/>
      <use xlink:href="#CMR17-67" transform="translate(608.437871 0) scale(0.996264)"/>
      <use xlink:href="#CMR17-74" transform="translate(654.128348 0) scale(0.996264)"/>
      <use xlink:href="#CMR17-68" transform="translate(689.409116 0) scale(0.996264)"/>
     </g>
    </g>
   </g>
   <g id="matplotlib.axis_2">
    <g id="ytick_1">
     <g id="line2d_6">
      <defs>
       <path id="m35d1d90a87" d="M 0 0 
L -3.5 0 
" style="stroke: #000000; stroke-width: 0.8"/>
      </defs>
      <g>
       <use xlink:href="#m35d1d90a87" x="85.226062" y="300.038744" style="stroke: #000000; stroke-width: 0.8"/>
      </g>
     </g>
     <g id="text_7">
      <!-- $\mathdefault{10^{-32}}$ -->
      <g transform="translate(35.444765 306.957242) scale(0.2 -0.2)">
       <defs>
        <path id="CMSY10-0" d="M 4218 1472 
C 4326 1472 4442 1472 4442 1600 
C 4442 1728 4326 1728 4218 1728 
L 755 1728 
C 646 1728 531 1728 531 1600 
C 531 1472 646 1472 755 1472 
L 4218 1472 
z
" transform="scale(0.015625)"/>
       </defs>
       <use xlink:href="#CMR17-31" transform="scale(0.996264)"/>
       <use xlink:href="#CMR17-30" transform="translate(45.690477 0) scale(0.996264)"/>
       <use xlink:href="#CMSY10-0" transform="translate(91.380954 36.153639) scale(0.697382)"/>
       <use xlink:href="#CMR17-33" transform="translate(145.621947 36.153639) scale(0.697382)"/>
       <use xlink:href="#CMR17-32" transform="translate(177.605129 36.153639) scale(0.697382)"/>
      </g>
     </g>
    </g>
    <g id="ytick_2">
     <g id="line2d_7">
      <g>
       <use xlink:href="#m35d1d90a87" x="85.226062" y="226.261208" style="stroke: #000000; stroke-width: 0.8"/>
      </g>
     </g>
     <g id="text_8">
      <!-- $\mathdefault{10^{-23}}$ -->
      <g transform="translate(35.444765 233.179707) scale(0.2 -0.2)">
       <use xlink:href="#CMR17-31" transform="scale(0.996264)"/>
       <use xlink:href="#CMR17-30" transform="translate(45.690477 0) scale(0.996264)"/>
       <use xlink:href="#CMSY10-0" transform="translate(91.380954 36.153639) scale(0.697382)"/>
       <use xlink:href="#CMR17-32" transform="translate(145.621947 36.153639) scale(0.697382)"/>
       <use xlink:href="#CMR17-33" transform="translate(177.605129 36.153639) scale(0.697382)"/>
      </g>
     </g>
    </g>
    <g id="ytick_3">
     <g id="line2d_8">
      <g>
       <use xlink:href="#m35d1d90a87" x="85.226062" y="152.483673" style="stroke: #000000; stroke-width: 0.8"/>
      </g>
     </g>
     <g id="text_9">
      <!-- $\mathdefault{10^{-14}}$ -->
      <g transform="translate(35.444765 159.402171) scale(0.2 -0.2)">
       <use xlink:href="#CMR17-31" transform="scale(0.996264)"/>
       <use xlink:href="#CMR17-30" transform="translate(45.690477 0) scale(0.996264)"/>
       <use xlink:href="#CMSY10-0" transform="translate(91.380954 36.153639) scale(0.697382)"/>
       <use xlink:href="#CMR17-31" transform="translate(145.621947 36.153639) scale(0.697382)"/>
       <use xlink:href="#CMR17-34" transform="translate(177.605129 36.153639) scale(0.697382)"/>
      </g>
     </g>
    </g>
    <g id="ytick_4">
     <g id="line2d_9">
      <g>
       <use xlink:href="#m35d1d90a87" x="85.226062" y="78.706138" style="stroke: #000000; stroke-width: 0.8"/>
      </g>
     </g>
     <g id="text_10">
      <!-- $\mathdefault{10^{-5}}$ -->
      <g transform="translate(42.273224 85.624636) scale(0.2 -0.2)">
       <defs>
        <path id="CMR17-35" d="M 730 3750 
C 794 3724 1056 3641 1325 3641 
C 1920 3641 2246 3961 2432 4140 
C 2432 4191 2432 4224 2394 4224 
C 2387 4224 2374 4224 2323 4198 
C 2099 4102 1837 4032 1517 4032 
C 1325 4032 1037 4055 723 4191 
C 653 4224 640 4224 634 4224 
C 602 4224 595 4217 595 4090 
L 595 2231 
C 595 2113 595 2080 659 2080 
C 691 2080 704 2093 736 2139 
C 941 2435 1222 2560 1542 2560 
C 1766 2560 2246 2415 2246 1293 
C 2246 1087 2246 716 2054 422 
C 1894 159 1645 25 1370 25 
C 947 25 518 319 403 812 
C 429 806 480 793 506 793 
C 589 793 749 838 749 1036 
C 749 1209 627 1280 506 1280 
C 358 1280 262 1190 262 1011 
C 262 454 704 -128 1382 -128 
C 2042 -128 2669 441 2669 1267 
C 2669 2054 2170 2662 1549 2662 
C 1222 2662 947 2540 730 2304 
L 730 3750 
z
" transform="scale(0.015625)"/>
       </defs>
       <use xlink:href="#CMR17-31" transform="scale(0.996264)"/>
       <use xlink:href="#CMR17-30" transform="translate(45.690477 0) scale(0.996264)"/>
       <use xlink:href="#CMSY10-0" transform="translate(91.380954 36.153639) scale(0.697382)"/>
       <use xlink:href="#CMR17-35" transform="translate(145.621947 36.153639) scale(0.697382)"/>
      </g>
     </g>
    </g>
    <g id="text_11">
     <!-- $|c_{population}|$ -->
     <g transform="translate(25.74396 233.629869) rotate(-90) scale(0.2 -0.2)">
      <defs>
       <path id="CMSY10-6a" d="M 1018 4569 
C 1018 4684 1018 4800 890 4800 
C 762 4800 762 4684 762 4569 
L 762 -1370 
C 762 -1485 762 -1600 890 -1600 
C 1018 -1600 1018 -1485 1018 -1370 
L 1018 4569 
z
" transform="scale(0.015625)"/>
       <path id="CMMI12-63" d="M 2502 2432 
C 2381 2432 2323 2432 2234 2355 
C 2195 2323 2125 2227 2125 2124 
C 2125 1996 2221 1919 2342 1919 
C 2496 1919 2669 2047 2669 2303 
C 2669 2591 2374 2816 1933 2816 
C 1094 2816 256 1932 256 1011 
C 256 446 602 -64 1254 -64 
C 2125 -64 2675 622 2675 706 
C 2675 745 2637 777 2611 777 
C 2592 777 2586 771 2528 712 
C 2118 161 1510 64 1267 64 
C 826 64 685 453 685 777 
C 685 1004 794 1634 1024 2073 
C 1190 2374 1536 2687 1939 2687 
C 2022 2687 2374 2676 2502 2432 
z
" transform="scale(0.015625)"/>
       <path id="CMMI12-70" d="M 275 -794 
C 230 -981 205 -1031 -58 -1031 
C -135 -1031 -199 -1031 -199 -1152 
C -199 -1165 -192 -1216 -122 -1216 
C -39 -1216 51 -1204 134 -1204 
L 410 -1204 
C 544 -1204 870 -1216 1005 -1216 
C 1043 -1216 1120 -1216 1120 -1101 
C 1120 -1031 1075 -1031 966 -1031 
C 672 -1031 653 -987 653 -937 
C 653 -863 941 217 979 364 
C 1050 185 1222 -64 1555 -64 
C 2278 -64 3059 874 3059 1813 
C 3059 2400 2726 2816 2246 2816 
C 1837 2816 1491 2419 1421 2330 
C 1370 2649 1120 2816 864 2816 
C 678 2816 531 2726 410 2483 
C 294 2253 205 1864 205 1838 
C 205 1813 230 1781 275 1781 
C 326 1781 333 1787 371 1934 
C 467 2311 589 2687 845 2687 
C 992 2687 1043 2585 1043 2394 
C 1043 2241 1024 2177 998 2062 
L 275 -794 
z
M 1382 1992 
C 1427 2170 1606 2356 1709 2445 
C 1779 2509 1990 2687 2234 2687 
C 2515 2687 2643 2407 2643 2075 
C 2643 1768 2464 1047 2304 715 
C 2144 370 1850 64 1555 64 
C 1120 64 1050 613 1050 638 
C 1050 657 1062 708 1069 740 
L 1382 1992 
z
" transform="scale(0.015625)"/>
       <path id="CMMI12-6f" d="M 2918 1755 
C 2918 2362 2522 2816 1939 2816 
C 1094 2816 262 1896 262 996 
C 262 389 659 -64 1242 -64 
C 2093 -64 2918 855 2918 1755 
z
M 1248 64 
C 928 64 691 319 691 766 
C 691 1060 845 1711 1024 2030 
C 1312 2522 1670 2687 1933 2687 
C 2246 2687 2490 2432 2490 1985 
C 2490 1730 2355 1047 2112 657 
C 1850 230 1498 64 1248 64 
z
" transform="scale(0.015625)"/>
       <path id="CMMI12-75" d="M 2182 370 
C 2266 12 2573 -64 2726 -64 
C 2931 -64 3085 70 3187 287 
C 3296 517 3379 893 3379 913 
C 3379 944 3354 970 3315 970 
C 3258 970 3251 938 3226 842 
C 3110 402 2995 64 2739 64 
C 2547 64 2547 274 2547 357 
C 2547 504 2566 568 2630 836 
C 2675 1008 2720 1181 2758 1359 
L 3021 2400 
C 3066 2560 3066 2572 3066 2591 
C 3066 2687 2989 2752 2893 2752 
C 2707 2752 2662 2591 2624 2432 
C 2560 2183 2214 810 2170 587 
C 2163 587 1914 64 1446 64 
C 1114 64 1050 351 1050 587 
C 1050 951 1229 1462 1395 1890 
C 1472 2094 1504 2177 1504 2305 
C 1504 2579 1306 2816 998 2816 
C 410 2816 173 1890 173 1838 
C 173 1813 198 1781 243 1781 
C 301 1781 307 1807 333 1896 
C 486 2445 736 2687 979 2687 
C 1043 2687 1146 2681 1146 2477 
C 1146 2311 1075 2126 979 1883 
C 698 1123 666 881 666 689 
C 666 38 1158 -64 1421 -64 
C 1830 -64 2054 217 2182 370 
z
" transform="scale(0.015625)"/>
       <path id="CMMI12-6c" d="M 1626 4255 
C 1632 4281 1645 4319 1645 4351 
C 1645 4416 1581 4416 1568 4416 
C 1562 4416 1331 4396 1216 4383 
C 1107 4377 1011 4364 896 4358 
C 742 4345 698 4339 698 4223 
C 698 4159 762 4159 826 4159 
C 1152 4159 1152 4102 1152 4039 
C 1152 4013 1152 4001 1120 3886 
L 326 731 
C 307 661 294 610 294 509 
C 294 191 531 -64 858 -64 
C 1069 -64 1210 76 1312 273 
C 1421 483 1510 884 1510 909 
C 1510 941 1485 967 1446 967 
C 1389 967 1382 935 1357 839 
C 1242 401 1126 64 870 64 
C 678 64 678 267 678 356 
C 678 382 678 515 723 693 
L 1626 4255 
z
" transform="scale(0.015625)"/>
       <path id="CMMI12-61" d="M 1926 759 
C 1894 651 1894 638 1805 517 
C 1664 338 1382 64 1082 64 
C 819 64 672 300 672 676 
C 672 1028 870 1743 992 2011 
C 1210 2458 1510 2687 1760 2687 
C 2182 2687 2266 2164 2266 2113 
C 2266 2107 2246 2024 2240 2011 
L 1926 759 
z
M 2336 2394 
C 2266 2560 2093 2816 1760 2816 
C 1037 2816 256 1883 256 938 
C 256 306 627 -64 1062 -64 
C 1414 -64 1715 210 1894 421 
C 1958 44 2259 -64 2451 -64 
C 2643 -64 2797 51 2912 280 
C 3014 496 3104 885 3104 910 
C 3104 942 3078 968 3040 968 
C 2982 968 2976 936 2950 840 
C 2854 465 2733 64 2470 64 
C 2285 64 2272 229 2272 356 
C 2272 503 2291 573 2349 821 
C 2394 980 2426 1120 2477 1305 
C 2714 2260 2771 2489 2771 2528 
C 2771 2617 2701 2688 2605 2688 
C 2400 2688 2349 2464 2336 2388 
L 2336 2394 
z
" transform="scale(0.015625)"/>
       <path id="CMMI12-74" d="M 1286 2566 
L 1875 2566 
C 1997 2566 2061 2566 2061 2681 
C 2061 2752 2022 2752 1894 2752 
L 1331 2752 
L 1568 3664 
C 1594 3752 1594 3764 1594 3808 
C 1594 3910 1510 3968 1427 3968 
C 1376 3968 1229 3948 1178 3746 
L 928 2752 
L 326 2752 
C 198 2752 141 2752 141 2630 
C 141 2566 186 2566 307 2566 
L 877 2566 
L 454 881 
C 403 657 384 593 384 510 
C 384 210 595 -64 954 -64 
C 1600 -64 1946 868 1946 913 
C 1946 951 1920 970 1882 970 
C 1869 970 1843 970 1830 944 
C 1824 938 1818 932 1773 830 
C 1638 510 1344 64 973 64 
C 781 64 768 223 768 364 
C 768 370 768 491 787 568 
L 1286 2566 
z
" transform="scale(0.015625)"/>
       <path id="CMMI12-69" d="M 1811 913 
C 1811 945 1786 970 1747 970 
C 1690 970 1683 951 1651 842 
C 1485 261 1222 64 1011 64 
C 934 64 845 83 845 274 
C 845 447 922 638 992 830 
L 1440 2017 
C 1459 2068 1504 2183 1504 2305 
C 1504 2573 1312 2816 998 2816 
C 410 2816 173 1890 173 1838 
C 173 1813 198 1781 243 1781 
C 301 1781 307 1807 333 1896 
C 486 2432 730 2687 979 2687 
C 1037 2687 1146 2681 1146 2477 
C 1146 2311 1062 2100 1011 1960 
L 563 772 
C 525 670 486 568 486 453 
C 486 166 685 -64 992 -64 
C 1581 -64 1811 868 1811 913 
z
M 1760 4012 
C 1760 4108 1683 4224 1542 4224 
C 1395 4224 1229 4083 1229 3916 
C 1229 3756 1363 3705 1440 3705 
C 1613 3705 1760 3871 1760 4012 
z
" transform="scale(0.015625)"/>
       <path id="CMMI12-6e" d="M 1318 1870 
C 1331 1909 1491 2228 1728 2432 
C 1894 2585 2112 2687 2362 2687 
C 2618 2687 2707 2496 2707 2241 
C 2707 1877 2445 1149 2317 804 
C 2259 651 2227 568 2227 453 
C 2227 166 2426 -64 2733 -64 
C 3328 -64 3552 874 3552 913 
C 3552 945 3526 970 3488 970 
C 3430 970 3424 951 3392 842 
C 3245 319 3002 64 2752 64 
C 2688 64 2586 70 2586 274 
C 2586 434 2656 625 2694 715 
C 2822 1066 3091 1781 3091 2145 
C 3091 2528 2867 2816 2381 2816 
C 1811 2816 1510 2413 1395 2253 
C 1376 2617 1114 2816 832 2816 
C 627 2816 486 2694 378 2477 
C 262 2247 173 1864 173 1838 
C 173 1813 198 1781 243 1781 
C 294 1781 301 1787 339 1934 
C 442 2324 557 2687 813 2687 
C 960 2687 1011 2585 1011 2394 
C 1011 2253 947 2004 902 1807 
L 723 1117 
C 698 996 627 708 595 593 
C 550 427 480 127 480 95 
C 480 6 550 -64 646 -64 
C 723 -64 813 -26 864 70 
C 877 102 934 325 966 453 
L 1107 1028 
L 1318 1870 
z
" transform="scale(0.015625)"/>
      </defs>
      <use xlink:href="#CMSY10-6a" transform="scale(0.996264)"/>
      <use xlink:href="#CMMI12-63" transform="translate(27.674085 0) scale(0.996264)"/>
      <use xlink:href="#CMMI12-70" transform="translate(69.657318 -14.943915) scale(0.697382)"/>
      <use xlink:href="#CMMI12-6f" transform="translate(103.928825 -14.943915) scale(0.697382)"/>
      <use xlink:href="#CMMI12-70" transform="translate(136.755386 -14.943915) scale(0.697382)"/>
      <use xlink:href="#CMMI12-75" transform="translate(171.026893 -14.943915) scale(0.697382)"/>
      <use xlink:href="#CMMI12-6c" transform="translate(209.890948 -14.943915) scale(0.697382)"/>
      <use xlink:href="#CMMI12-61" transform="translate(231.764732 -14.943915) scale(0.697382)"/>
      <use xlink:href="#CMMI12-74" transform="translate(267.610079 -14.943915) scale(0.697382)"/>
      <use xlink:href="#CMMI12-69" transform="translate(292.268389 -14.943915) scale(0.697382)"/>
      <use xlink:href="#CMMI12-6f" transform="translate(315.563296 -14.943915) scale(0.697382)"/>
      <use xlink:href="#CMMI12-6e" transform="translate(348.389858 -14.943915) scale(0.697382)"/>
      <use xlink:href="#CMSY10-6a" transform="translate(389.648833 0) scale(0.996264)"/>
     </g>
    </g>
   </g>
   <g id="line2d_10">
    <path d="M 107.043059 27.245305 
L 117.951558 33.078215 
L 128.860057 38.911125 
L 139.768555 44.744035 
L 150.677054 50.576946 
L 161.585552 56.409856 
L 172.494051 62.242766 
L 183.402549 68.075676 
L 194.311048 73.908586 
L 205.219547 79.741497 
L 216.128045 85.574407 
L 227.036544 91.407317 
L 237.945042 97.240227 
L 248.853541 103.073137 
L 259.76204 108.906048 
L 270.670538 114.738958 
L 281.579037 120.571868 
L 292.487535 126.404778 
L 303.396034 132.237689 
L 314.304533 138.070599 
L 325.213031 143.903509 
L 336.12153 149.736419 
L 347.030028 155.569329 
L 357.938527 161.40224 
L 368.847025 167.23515 
L 379.755524 173.06806 
L 390.664023 178.90097 
L 401.572521 184.73388 
L 412.48102 190.566791 
L 423.389518 196.399701 
L 434.298017 202.232611 
L 445.206516 208.065521 
L 456.115014 213.898432 
L 467.023513 219.731342 
L 477.932011 225.564252 
L 488.84051 231.397162 
L 499.749008 237.230072 
L 510.657507 243.062983 
L 521.566006 248.895893 
L 532.474504 254.728803 
L 543.383003 260.561713 
" clip-path="url(#p1ab25ad4e4)" style="fill: none; stroke-dasharray: 11.1,4.8; stroke-dashoffset: 0; stroke: #000000; stroke-width: 3"/>
   </g>
   <g id="line2d_11">
    <defs>
     <path id="m6049a4cd13" d="M 0 4 
C 1.060812 4 2.078319 3.578535 2.828427 2.828427 
C 3.578535 2.078319 4 1.060812 4 0 
C 4 -1.060812 3.578535 -2.078319 2.828427 -2.828427 
C 2.078319 -3.578535 1.060812 -4 0 -4 
C -1.060812 -4 -2.078319 -3.578535 -2.828427 -2.828427 
C -3.578535 -2.078319 -4 -1.060812 -4 0 
C -4 1.060812 -3.578535 2.078319 -2.828427 2.828427 
C -2.078319 3.578535 -1.060812 4 0 4 
z
" style="stroke: #a65628"/>
    </defs>
    <g clip-path="url(#p1ab25ad4e4)">
     <use xlink:href="#m6049a4cd13" x="107.043059" y="40.186313" style="fill-opacity: 0; stroke: #a65628"/>
     <use xlink:href="#m6049a4cd13" x="117.951558" y="45.951902" style="fill-opacity: 0; stroke: #a65628"/>
     <use xlink:href="#m6049a4cd13" x="128.860057" y="45.41167" style="fill-opacity: 0; stroke: #a65628"/>
     <use xlink:href="#m6049a4cd13" x="139.768555" y="48.600249" style="fill-opacity: 0; stroke: #a65628"/>
     <use xlink:href="#m6049a4cd13" x="150.677054" y="52.955421" style="fill-opacity: 0; stroke: #a65628"/>
     <use xlink:href="#m6049a4cd13" x="161.585552" y="57.841633" style="fill-opacity: 0; stroke: #a65628"/>
     <use xlink:href="#m6049a4cd13" x="172.494051" y="63.018301" style="fill-opacity: 0; stroke: #a65628"/>
     <use xlink:href="#m6049a4cd13" x="183.402549" y="68.373897" style="fill-opacity: 0; stroke: #a65628"/>
     <use xlink:href="#m6049a4cd13" x="194.311048" y="73.849518" style="fill-opacity: 0; stroke: #a65628"/>
     <use xlink:href="#m6049a4cd13" x="205.219547" y="79.410886" style="fill-opacity: 0; stroke: #a65628"/>
     <use xlink:href="#m6049a4cd13" x="216.128045" y="85.036482" style="fill-opacity: 0; stroke: #a65628"/>
     <use xlink:href="#m6049a4cd13" x="227.036544" y="90.711965" style="fill-opacity: 0; stroke: #a65628"/>
     <use xlink:href="#m6049a4cd13" x="237.945042" y="96.427311" style="fill-opacity: 0; stroke: #a65628"/>
     <use xlink:href="#m6049a4cd13" x="248.853541" y="102.175239" style="fill-opacity: 0; stroke: #a65628"/>
     <use xlink:href="#m6049a4cd13" x="259.76204" y="107.950301" style="fill-opacity: 0; stroke: #a65628"/>
     <use xlink:href="#m6049a4cd13" x="270.670538" y="113.748305" style="fill-opacity: 0; stroke: #a65628"/>
     <use xlink:href="#m6049a4cd13" x="281.579037" y="119.565965" style="fill-opacity: 0; stroke: #a65628"/>
     <use xlink:href="#m6049a4cd13" x="292.487535" y="125.400654" style="fill-opacity: 0; stroke: #a65628"/>
     <use xlink:href="#m6049a4cd13" x="303.396034" y="131.250236" style="fill-opacity: 0; stroke: #a65628"/>
     <use xlink:href="#m6049a4cd13" x="314.304533" y="137.112956" style="fill-opacity: 0; stroke: #a65628"/>
     <use xlink:href="#m6049a4cd13" x="325.213031" y="142.987352" style="fill-opacity: 0; stroke: #a65628"/>
     <use xlink:href="#m6049a4cd13" x="336.12153" y="148.872191" style="fill-opacity: 0; stroke: #a65628"/>
     <use xlink:href="#m6049a4cd13" x="347.030028" y="154.766428" style="fill-opacity: 0; stroke: #a65628"/>
     <use xlink:href="#m6049a4cd13" x="357.938527" y="160.669165" style="fill-opacity: 0; stroke: #a65628"/>
     <use xlink:href="#m6049a4cd13" x="368.847025" y="166.579629" style="fill-opacity: 0; stroke: #a65628"/>
     <use xlink:href="#m6049a4cd13" x="379.755524" y="172.497147" style="fill-opacity: 0; stroke: #a65628"/>
     <use xlink:href="#m6049a4cd13" x="390.664023" y="178.421131" style="fill-opacity: 0; stroke: #a65628"/>
     <use xlink:href="#m6049a4cd13" x="401.572521" y="184.351062" style="fill-opacity: 0; stroke: #a65628"/>
     <use xlink:href="#m6049a4cd13" x="412.48102" y="190.286482" style="fill-opacity: 0; stroke: #a65628"/>
     <use xlink:href="#m6049a4cd13" x="423.389518" y="196.226984" style="fill-opacity: 0; stroke: #a65628"/>
     <use xlink:href="#m6049a4cd13" x="434.298017" y="202.172205" style="fill-opacity: 0; stroke: #a65628"/>
     <use xlink:href="#m6049a4cd13" x="445.206516" y="208.121819" style="fill-opacity: 0; stroke: #a65628"/>
     <use xlink:href="#m6049a4cd13" x="456.115014" y="214.075533" style="fill-opacity: 0; stroke: #a65628"/>
     <use xlink:href="#m6049a4cd13" x="467.023513" y="220.033081" style="fill-opacity: 0; stroke: #a65628"/>
     <use xlink:href="#m6049a4cd13" x="477.932011" y="225.994225" style="fill-opacity: 0; stroke: #a65628"/>
     <use xlink:href="#m6049a4cd13" x="488.84051" y="231.958746" style="fill-opacity: 0; stroke: #a65628"/>
     <use xlink:href="#m6049a4cd13" x="499.749008" y="237.926445" style="fill-opacity: 0; stroke: #a65628"/>
     <use xlink:href="#m6049a4cd13" x="510.657507" y="243.89714" style="fill-opacity: 0; stroke: #a65628"/>
     <use xlink:href="#m6049a4cd13" x="521.566006" y="249.870665" style="fill-opacity: 0; stroke: #a65628"/>
     <use xlink:href="#m6049a4cd13" x="532.474504" y="255.846867" style="fill-opacity: 0; stroke: #a65628"/>
     <use xlink:href="#m6049a4cd13" x="543.383003" y="261.825604" style="fill-opacity: 0; stroke: #a65628"/>
    </g>
   </g>
   <g id="line2d_12">
    <defs>
     <path id="m97300db572" d="M 0 2 
C 0.530406 2 1.03916 1.789267 1.414214 1.414214 
C 1.789267 1.03916 2 0.530406 2 0 
C 2 -0.530406 1.789267 -1.03916 1.414214 -1.414214 
C 1.03916 -1.789267 0.530406 -2 0 -2 
C -0.530406 -2 -1.03916 -1.789267 -1.414214 -1.414214 
C -1.789267 -1.03916 -2 -0.530406 -2 0 
C -2 0.530406 -1.789267 1.03916 -1.414214 1.414214 
C -1.03916 1.789267 -0.530406 2 0 2 
z
" style="stroke: #98df8a"/>
    </defs>
    <g clip-path="url(#p1ab25ad4e4)">
     <use xlink:href="#m97300db572" x="107.043059" y="40.186313" style="fill: #98df8a; stroke: #98df8a"/>
     <use xlink:href="#m97300db572" x="117.951558" y="45.951902" style="fill: #98df8a; stroke: #98df8a"/>
     <use xlink:href="#m97300db572" x="128.860057" y="45.41167" style="fill: #98df8a; stroke: #98df8a"/>
     <use xlink:href="#m97300db572" x="139.768555" y="48.600249" style="fill: #98df8a; stroke: #98df8a"/>
     <use xlink:href="#m97300db572" x="150.677054" y="52.955421" style="fill: #98df8a; stroke: #98df8a"/>
     <use xlink:href="#m97300db572" x="161.585552" y="57.841632" style="fill: #98df8a; stroke: #98df8a"/>
     <use xlink:href="#m97300db572" x="172.494051" y="63.018301" style="fill: #98df8a; stroke: #98df8a"/>
     <use xlink:href="#m97300db572" x="183.402549" y="68.373897" style="fill: #98df8a; stroke: #98df8a"/>
     <use xlink:href="#m97300db572" x="194.311048" y="73.849517" style="fill: #98df8a; stroke: #98df8a"/>
     <use xlink:href="#m97300db572" x="205.219547" y="79.410885" style="fill: #98df8a; stroke: #98df8a"/>
     <use xlink:href="#m97300db572" x="216.128045" y="85.036482" style="fill: #98df8a; stroke: #98df8a"/>
     <use xlink:href="#m97300db572" x="227.036544" y="90.711965" style="fill: #98df8a; stroke: #98df8a"/>
     <use xlink:href="#m97300db572" x="237.945042" y="96.42731" style="fill: #98df8a; stroke: #98df8a"/>
     <use xlink:href="#m97300db572" x="248.853541" y="102.175239" style="fill: #98df8a; stroke: #98df8a"/>
     <use xlink:href="#m97300db572" x="259.76204" y="107.950299" style="fill: #98df8a; stroke: #98df8a"/>
     <use xlink:href="#m97300db572" x="270.670538" y="113.748303" style="fill: #98df8a; stroke: #98df8a"/>
     <use xlink:href="#m97300db572" x="281.579037" y="119.565963" style="fill: #98df8a; stroke: #98df8a"/>
     <use xlink:href="#m97300db572" x="292.487535" y="125.400652" style="fill: #98df8a; stroke: #98df8a"/>
     <use xlink:href="#m97300db572" x="303.396034" y="131.250234" style="fill: #98df8a; stroke: #98df8a"/>
     <use xlink:href="#m97300db572" x="314.304533" y="137.112954" style="fill: #98df8a; stroke: #98df8a"/>
     <use xlink:href="#m97300db572" x="325.213031" y="142.98735" style="fill: #98df8a; stroke: #98df8a"/>
     <use xlink:href="#m97300db572" x="336.12153" y="148.872189" style="fill: #98df8a; stroke: #98df8a"/>
     <use xlink:href="#m97300db572" x="347.030028" y="154.766425" style="fill: #98df8a; stroke: #98df8a"/>
     <use xlink:href="#m97300db572" x="357.938527" y="160.669162" style="fill: #98df8a; stroke: #98df8a"/>
     <use xlink:href="#m97300db572" x="368.847025" y="166.579626" style="fill: #98df8a; stroke: #98df8a"/>
     <use xlink:href="#m97300db572" x="379.755524" y="172.497144" style="fill: #98df8a; stroke: #98df8a"/>
     <use xlink:href="#m97300db572" x="390.664023" y="178.421127" style="fill: #98df8a; stroke: #98df8a"/>
     <use xlink:href="#m97300db572" x="401.572521" y="184.351058" style="fill: #98df8a; stroke: #98df8a"/>
     <use xlink:href="#m97300db572" x="412.48102" y="190.286477" style="fill: #98df8a; stroke: #98df8a"/>
     <use xlink:href="#m97300db572" x="423.389518" y="196.226979" style="fill: #98df8a; stroke: #98df8a"/>
     <use xlink:href="#m97300db572" x="434.298017" y="202.1722" style="fill: #98df8a; stroke: #98df8a"/>
     <use xlink:href="#m97300db572" x="445.206516" y="208.121813" style="fill: #98df8a; stroke: #98df8a"/>
     <use xlink:href="#m97300db572" x="456.115014" y="214.075527" style="fill: #98df8a; stroke: #98df8a"/>
     <use xlink:href="#m97300db572" x="467.023513" y="220.033075" style="fill: #98df8a; stroke: #98df8a"/>
     <use xlink:href="#m97300db572" x="477.932011" y="225.994218" style="fill: #98df8a; stroke: #98df8a"/>
     <use xlink:href="#m97300db572" x="488.84051" y="231.958738" style="fill: #98df8a; stroke: #98df8a"/>
     <use xlink:href="#m97300db572" x="499.749008" y="237.926437" style="fill: #98df8a; stroke: #98df8a"/>
     <use xlink:href="#m97300db572" x="510.657507" y="243.897132" style="fill: #98df8a; stroke: #98df8a"/>
     <use xlink:href="#m97300db572" x="521.566006" y="249.870656" style="fill: #98df8a; stroke: #98df8a"/>
     <use xlink:href="#m97300db572" x="532.474504" y="255.846858" style="fill: #98df8a; stroke: #98df8a"/>
     <use xlink:href="#m97300db572" x="543.383003" y="261.825595" style="fill: #98df8a; stroke: #98df8a"/>
    </g>
   </g>
   <g id="line2d_13">
    <path d="M 107.043059 31.55282 
L 117.951558 39.633377 
L 128.860057 47.713934 
L 139.768555 55.794491 
L 150.677054 63.875048 
L 161.585552 71.955606 
L 172.494051 80.036163 
L 183.402549 88.11672 
L 194.311048 96.197277 
L 205.219547 104.277834 
L 216.128045 112.358392 
L 227.036544 120.438949 
L 237.945042 128.519506 
L 248.853541 136.600063 
L 259.76204 144.680621 
L 270.670538 152.761178 
L 281.579037 160.841735 
L 292.487535 168.922292 
L 303.396034 177.002849 
L 314.304533 185.083407 
L 325.213031 193.163964 
L 336.12153 201.244521 
L 347.030028 209.325078 
L 357.938527 217.405636 
L 368.847025 225.486193 
L 379.755524 233.56675 
L 390.664023 241.647307 
L 401.572521 249.727864 
L 412.48102 257.808422 
L 423.389518 265.888979 
L 434.298017 273.969536 
L 445.206516 282.050093 
L 456.115014 290.130651 
L 467.023513 298.211208 
L 477.932011 306.291765 
L 488.84051 314.372322 
L 499.749008 322.452879 
L 510.657507 330.533437 
L 521.566006 338.613994 
L 532.474504 346.694551 
L 543.383003 354.775108 
" clip-path="url(#p1ab25ad4e4)" style="fill: none; stroke-dasharray: 11.1,4.8; stroke-dashoffset: 0; stroke: #000000; stroke-width: 3"/>
   </g>
   <g id="line2d_14">
    <defs>
     <path id="m2d2dc85620" d="M -4 4 
L 4 4 
L 4 -4 
L -4 -4 
z
" style="stroke: #ffa353; stroke-linejoin: miter"/>
    </defs>
    <g clip-path="url(#p1ab25ad4e4)">
     <use xlink:href="#m2d2dc85620" x="107.043059" y="40.186313" style="fill-opacity: 0; stroke: #ffa353; stroke-linejoin: miter"/>
     <use xlink:href="#m2d2dc85620" x="117.951558" y="51.472231" style="fill-opacity: 0; stroke: #ffa353; stroke-linejoin: miter"/>
     <use xlink:href="#m2d2dc85620" x="128.860057" y="48.211389" style="fill-opacity: 0; stroke: #ffa353; stroke-linejoin: miter"/>
     <use xlink:href="#m2d2dc85620" x="139.768555" y="60.6971" style="fill-opacity: 0; stroke: #ffa353; stroke-linejoin: miter"/>
     <use xlink:href="#m2d2dc85620" x="150.677054" y="67.042913" style="fill-opacity: 0; stroke: #ffa353; stroke-linejoin: miter"/>
     <use xlink:href="#m2d2dc85620" x="161.585552" y="71.624026" style="fill-opacity: 0; stroke: #ffa353; stroke-linejoin: miter"/>
     <use xlink:href="#m2d2dc85620" x="172.494051" y="81.173167" style="fill-opacity: 0; stroke: #ffa353; stroke-linejoin: miter"/>
     <use xlink:href="#m2d2dc85620" x="183.402549" y="89.207938" style="fill-opacity: 0; stroke: #ffa353; stroke-linejoin: miter"/>
     <use xlink:href="#m2d2dc85620" x="194.311048" y="95.124024" style="fill-opacity: 0; stroke: #ffa353; stroke-linejoin: miter"/>
     <use xlink:href="#m2d2dc85620" x="205.219547" y="103.636065" style="fill-opacity: 0; stroke: #ffa353; stroke-linejoin: miter"/>
     <use xlink:href="#m2d2dc85620" x="216.128045" y="112.386954" style="fill-opacity: 0; stroke: #ffa353; stroke-linejoin: miter"/>
     <use xlink:href="#m2d2dc85620" x="227.036544" y="119.309655" style="fill-opacity: 0; stroke: #ffa353; stroke-linejoin: miter"/>
     <use xlink:href="#m2d2dc85620" x="237.945042" y="127.307437" style="fill-opacity: 0; stroke: #ffa353; stroke-linejoin: miter"/>
     <use xlink:href="#m2d2dc85620" x="248.853541" y="135.99401" style="fill-opacity: 0; stroke: #ffa353; stroke-linejoin: miter"/>
     <use xlink:href="#m2d2dc85620" x="259.76204" y="143.58268" style="fill-opacity: 0; stroke: #ffa353; stroke-linejoin: miter"/>
     <use xlink:href="#m2d2dc85620" x="270.670538" y="151.388438" style="fill-opacity: 0; stroke: #ffa353; stroke-linejoin: miter"/>
     <use xlink:href="#m2d2dc85620" x="281.579037" y="159.8975" style="fill-opacity: 0; stroke: #ffa353; stroke-linejoin: miter"/>
     <use xlink:href="#m2d2dc85620" x="292.487535" y="167.921317" style="fill-opacity: 0; stroke: #ffa353; stroke-linejoin: miter"/>
     <use xlink:href="#m2d2dc85620" x="303.396034" y="175.748604" style="fill-opacity: 0; stroke: #ffa353; stroke-linejoin: miter"/>
     <use xlink:href="#m2d2dc85620" x="314.304533" y="184.072436" style="fill-opacity: 0; stroke: #ffa353; stroke-linejoin: miter"/>
     <use xlink:href="#m2d2dc85620" x="325.213031" y="192.290811" style="fill-opacity: 0; stroke: #ffa353; stroke-linejoin: miter"/>
     <use xlink:href="#m2d2dc85620" x="336.12153" y="200.226713" style="fill-opacity: 0; stroke: #ffa353; stroke-linejoin: miter"/>
     <use xlink:href="#m2d2dc85620" x="347.030028" y="208.427375" style="fill-opacity: 0; stroke: #ffa353; stroke-linejoin: miter"/>
     <use xlink:href="#m2d2dc85620" x="357.938527" y="216.707628" style="fill-opacity: 0; stroke: #ffa353; stroke-linejoin: miter"/>
     <use xlink:href="#m2d2dc85620" x="368.847025" y="224.768063" style="fill-opacity: 0; stroke: #ffa353; stroke-linejoin: miter"/>
     <use xlink:href="#m2d2dc85620" x="379.755524" y="232.914169" style="fill-opacity: 0; stroke: #ffa353; stroke-linejoin: miter"/>
     <use xlink:href="#m2d2dc85620" x="390.664023" y="241.188782" style="fill-opacity: 0; stroke: #ffa353; stroke-linejoin: miter"/>
     <use xlink:href="#m2d2dc85620" x="401.572521" y="249.342745" style="fill-opacity: 0; stroke: #ffa353; stroke-linejoin: miter"/>
     <use xlink:href="#m2d2dc85620" x="412.48102" y="257.483972" style="fill-opacity: 0; stroke: #ffa353; stroke-linejoin: miter"/>
     <use xlink:href="#m2d2dc85620" x="423.389518" y="265.733911" style="fill-opacity: 0; stroke: #ffa353; stroke-linejoin: miter"/>
     <use xlink:href="#m2d2dc85620" x="434.298017" y="273.944027" style="fill-opacity: 0; stroke: #ffa353; stroke-linejoin: miter"/>
     <use xlink:href="#m2d2dc85620" x="445.206516" y="282.107213" style="fill-opacity: 0; stroke: #ffa353; stroke-linejoin: miter"/>
     <use xlink:href="#m2d2dc85620" x="456.115014" y="290.336637" style="fill-opacity: 0; stroke: #ffa353; stroke-linejoin: miter"/>
     <use xlink:href="#m2d2dc85620" x="467.023513" y="298.572853" style="fill-opacity: 0; stroke: #ffa353; stroke-linejoin: miter"/>
     <use xlink:href="#m2d2dc85620" x="477.932011" y="306.765041" style="fill-opacity: 0; stroke: #ffa353; stroke-linejoin: miter"/>
     <use xlink:href="#m2d2dc85620" x="488.84051" y="314.985472" style="fill-opacity: 0; stroke: #ffa353; stroke-linejoin: miter"/>
     <use xlink:href="#m2d2dc85620" x="499.749008" y="323.230328" style="fill-opacity: 0; stroke: #ffa353; stroke-linejoin: miter"/>
     <use xlink:href="#m2d2dc85620" x="510.657507" y="331.44788" style="fill-opacity: 0; stroke: #ffa353; stroke-linejoin: miter"/>
     <use xlink:href="#m2d2dc85620" x="521.566006" y="339.669732" style="fill-opacity: 0; stroke: #ffa353; stroke-linejoin: miter"/>
     <use xlink:href="#m2d2dc85620" x="532.474504" y="347.915916" style="fill-opacity: 0; stroke: #ffa353; stroke-linejoin: miter"/>
     <use xlink:href="#m2d2dc85620" x="543.383003" y="356.151399" style="fill-opacity: 0; stroke: #ffa353; stroke-linejoin: miter"/>
    </g>
   </g>
   <g id="line2d_15">
    <defs>
     <path id="m18bd6ac8cc" d="M -2 2 
L 2 2 
L 2 -2 
L -2 -2 
z
" style="stroke: #095400; stroke-linejoin: miter"/>
    </defs>
    <g clip-path="url(#p1ab25ad4e4)">
     <use xlink:href="#m18bd6ac8cc" x="107.043059" y="40.186313" style="fill: #095400; stroke: #095400; stroke-linejoin: miter"/>
     <use xlink:href="#m18bd6ac8cc" x="117.951558" y="51.472231" style="fill: #095400; stroke: #095400; stroke-linejoin: miter"/>
     <use xlink:href="#m18bd6ac8cc" x="128.860057" y="48.211389" style="fill: #095400; stroke: #095400; stroke-linejoin: miter"/>
     <use xlink:href="#m18bd6ac8cc" x="139.768555" y="60.697101" style="fill: #095400; stroke: #095400; stroke-linejoin: miter"/>
     <use xlink:href="#m18bd6ac8cc" x="150.677054" y="67.042915" style="fill: #095400; stroke: #095400; stroke-linejoin: miter"/>
     <use xlink:href="#m18bd6ac8cc" x="161.585552" y="71.624026" style="fill: #095400; stroke: #095400; stroke-linejoin: miter"/>
     <use xlink:href="#m18bd6ac8cc" x="172.494051" y="81.173167" style="fill: #095400; stroke: #095400; stroke-linejoin: miter"/>
     <use xlink:href="#m18bd6ac8cc" x="183.402549" y="89.207936" style="fill: #095400; stroke: #095400; stroke-linejoin: miter"/>
     <use xlink:href="#m18bd6ac8cc" x="194.311048" y="95.12402" style="fill: #095400; stroke: #095400; stroke-linejoin: miter"/>
     <use xlink:href="#m18bd6ac8cc" x="205.219547" y="103.636056" style="fill: #095400; stroke: #095400; stroke-linejoin: miter"/>
     <use xlink:href="#m18bd6ac8cc" x="216.128045" y="112.386939" style="fill: #095400; stroke: #095400; stroke-linejoin: miter"/>
     <use xlink:href="#m18bd6ac8cc" x="227.036544" y="119.30964" style="fill: #095400; stroke: #095400; stroke-linejoin: miter"/>
     <use xlink:href="#m18bd6ac8cc" x="237.945042" y="127.307417" style="fill: #095400; stroke: #095400; stroke-linejoin: miter"/>
     <use xlink:href="#m18bd6ac8cc" x="248.853541" y="135.993979" style="fill: #095400; stroke: #095400; stroke-linejoin: miter"/>
     <use xlink:href="#m18bd6ac8cc" x="259.76204" y="143.582648" style="fill: #095400; stroke: #095400; stroke-linejoin: miter"/>
     <use xlink:href="#m18bd6ac8cc" x="270.670538" y="151.388402" style="fill: #095400; stroke: #095400; stroke-linejoin: miter"/>
     <use xlink:href="#m18bd6ac8cc" x="281.579037" y="159.897453" style="fill: #095400; stroke: #095400; stroke-linejoin: miter"/>
     <use xlink:href="#m18bd6ac8cc" x="292.487535" y="167.921265" style="fill: #095400; stroke: #095400; stroke-linejoin: miter"/>
     <use xlink:href="#m18bd6ac8cc" x="303.396034" y="175.748548" style="fill: #095400; stroke: #095400; stroke-linejoin: miter"/>
     <use xlink:href="#m18bd6ac8cc" x="314.304533" y="184.072368" style="fill: #095400; stroke: #095400; stroke-linejoin: miter"/>
     <use xlink:href="#m18bd6ac8cc" x="325.213031" y="192.290734" style="fill: #095400; stroke: #095400; stroke-linejoin: miter"/>
     <use xlink:href="#m18bd6ac8cc" x="336.12153" y="200.226631" style="fill: #095400; stroke: #095400; stroke-linejoin: miter"/>
     <use xlink:href="#m18bd6ac8cc" x="347.030028" y="208.427283" style="fill: #095400; stroke: #095400; stroke-linejoin: miter"/>
     <use xlink:href="#m18bd6ac8cc" x="357.938527" y="216.707523" style="fill: #095400; stroke: #095400; stroke-linejoin: miter"/>
     <use xlink:href="#m18bd6ac8cc" x="368.847025" y="224.767952" style="fill: #095400; stroke: #095400; stroke-linejoin: miter"/>
     <use xlink:href="#m18bd6ac8cc" x="379.755524" y="232.914047" style="fill: #095400; stroke: #095400; stroke-linejoin: miter"/>
     <use xlink:href="#m18bd6ac8cc" x="390.664023" y="241.188647" style="fill: #095400; stroke: #095400; stroke-linejoin: miter"/>
     <use xlink:href="#m18bd6ac8cc" x="401.572521" y="249.342601" style="fill: #095400; stroke: #095400; stroke-linejoin: miter"/>
     <use xlink:href="#m18bd6ac8cc" x="412.48102" y="257.483819" style="fill: #095400; stroke: #095400; stroke-linejoin: miter"/>
     <use xlink:href="#m18bd6ac8cc" x="423.389518" y="265.733743" style="fill: #095400; stroke: #095400; stroke-linejoin: miter"/>
     <use xlink:href="#m18bd6ac8cc" x="434.298017" y="273.943847" style="fill: #095400; stroke: #095400; stroke-linejoin: miter"/>
     <use xlink:href="#m18bd6ac8cc" x="445.206516" y="282.107024" style="fill: #095400; stroke: #095400; stroke-linejoin: miter"/>
     <use xlink:href="#m18bd6ac8cc" x="456.115014" y="290.336436" style="fill: #095400; stroke: #095400; stroke-linejoin: miter"/>
     <use xlink:href="#m18bd6ac8cc" x="467.023513" y="298.572637" style="fill: #095400; stroke: #095400; stroke-linejoin: miter"/>
     <use xlink:href="#m18bd6ac8cc" x="477.932011" y="306.764814" style="fill: #095400; stroke: #095400; stroke-linejoin: miter"/>
     <use xlink:href="#m18bd6ac8cc" x="488.84051" y="314.985231" style="fill: #095400; stroke: #095400; stroke-linejoin: miter"/>
     <use xlink:href="#m18bd6ac8cc" x="499.749008" y="323.230072" style="fill: #095400; stroke: #095400; stroke-linejoin: miter"/>
     <use xlink:href="#m18bd6ac8cc" x="510.657507" y="331.447611" style="fill: #095400; stroke: #095400; stroke-linejoin: miter"/>
     <use xlink:href="#m18bd6ac8cc" x="521.566006" y="339.669449" style="fill: #095400; stroke: #095400; stroke-linejoin: miter"/>
     <use xlink:href="#m18bd6ac8cc" x="532.474504" y="347.915617" style="fill: #095400; stroke: #095400; stroke-linejoin: miter"/>
     <use xlink:href="#m18bd6ac8cc" x="543.383003" y="356.151085" style="fill: #095400; stroke: #095400; stroke-linejoin: miter"/>
    </g>
   </g>
   <g id="patch_3">
    <path d="M 85.226062 372.596704 
L 85.226062 10.8 
" style="fill: none; stroke: #000000; stroke-width: 0.8; stroke-linejoin: miter; stroke-linecap: square"/>
   </g>
   <g id="patch_4">
    <path d="M 565.2 372.596704 
L 565.2 10.8 
" style="fill: none; stroke: #000000; stroke-width: 0.8; stroke-linejoin: miter; stroke-linecap: square"/>
   </g>
   <g id="patch_5">
    <path d="M 85.226062 372.596704 
L 565.2 372.596704 
" style="fill: none; stroke: #000000; stroke-width: 0.8; stroke-linejoin: miter; stroke-linecap: square"/>
   </g>
   <g id="patch_6">
    <path d="M 85.226062 10.8 
L 565.2 10.8 
" style="fill: none; stroke: #000000; stroke-width: 0.8; stroke-linejoin: miter; stroke-linecap: square"/>
   </g>
   <g id="legend_1">
    <g id="patch_7">
     <path d="M 97.826062 363.596704 
L 306.497225 363.596704 
Q 310.097225 363.596704 310.097225 359.996704 
L 310.097225 236.356383 
Q 310.097225 232.756383 306.497225 232.756383 
L 97.826062 232.756383 
Q 94.226062 232.756383 94.226062 236.356383 
L 94.226062 359.996704 
Q 94.226062 363.596704 97.826062 363.596704 
z
" style="fill: #ffffff; opacity: 0.8; stroke: #cccccc; stroke-linejoin: miter"/>
    </g>
    <g id="line2d_16">
     <g>
      <use xlink:href="#m6049a4cd13" x="119.426062" y="246.256383" style="fill-opacity: 0; stroke: #a65628"/>
     </g>
    </g>
    <g id="text_12">
     <!-- Ring recursive -->
     <g transform="translate(151.826062 252.556383) scale(0.18 -0.18)">
      <defs>
       <path id="CMR17-52" d="M 2509 2156 
C 3117 2278 3629 2689 3629 3203 
C 3629 3806 2950 4352 2054 4352 
L 333 4352 
L 333 4185 
C 774 4185 845 4185 845 3896 
L 845 428 
C 845 140 774 140 333 140 
L 333 -26 
C 518 -13 851 -13 1050 -13 
C 1248 -13 1581 -13 1766 -26 
L 1766 140 
C 1325 140 1254 140 1254 428 
L 1254 2112 
L 2003 2112 
C 2368 2112 2573 1964 2662 1881 
C 2918 1632 2918 1459 2918 1024 
C 2918 595 2918 377 3110 160 
C 3354 -103 3680 -128 3821 -128 
C 4294 -128 4365 403 4365 512 
C 4365 550 4365 595 4307 595 
C 4256 595 4250 556 4250 531 
C 4218 115 4032 -26 3834 -26 
C 3482 -26 3443 377 3405 768 
C 3386 902 3373 998 3360 1139 
C 3322 1459 3270 1926 2509 2156 
z
M 1984 2214 
L 1254 2214 
L 1254 3935 
C 1254 4153 1267 4185 1523 4185 
L 1990 4185 
C 2522 4185 3142 3999 3142 3203 
C 3142 2374 2464 2214 1984 2214 
z
" transform="scale(0.015625)"/>
       <path id="CMR17-69" d="M 992 3961 
C 992 4102 877 4224 730 4224 
C 589 4224 467 4108 467 3961 
C 467 3820 582 3699 730 3699 
C 870 3699 992 3814 992 3961 
z
M 243 2745 
L 243 2579 
C 602 2579 653 2540 653 2231 
L 653 443 
C 653 198 627 166 218 166 
L 218 0 
C 371 12 646 12 806 12 
C 960 12 1222 12 1370 0 
L 1370 166 
C 992 166 979 205 979 436 
L 979 2816 
L 243 2745 
z
" transform="scale(0.015625)"/>
       <path id="CMR17-63" d="M 2234 2240 
C 2112 2240 1933 2240 1933 2015 
C 1933 1836 2080 1785 2163 1785 
C 2208 1785 2394 1804 2394 2028 
C 2394 2476 1958 2816 1466 2816 
C 787 2816 211 2201 211 1379 
C 211 521 813 -64 1466 -64 
C 2259 -64 2458 676 2458 747 
C 2458 773 2451 792 2406 792 
C 2362 792 2355 786 2330 702 
C 2163 180 1798 51 1523 51 
C 1114 51 621 431 621 1385 
C 621 2358 1094 2700 1472 2700 
C 1722 2700 2093 2582 2234 2240 
z
" transform="scale(0.015625)"/>
       <path id="CMR17-75" d="M 1882 2745 
L 1882 2579 
C 2259 2579 2317 2540 2317 2229 
L 2317 1053 
C 2317 510 2029 38 1555 38 
C 1030 38 986 355 986 691 
L 986 2816 
L 211 2745 
L 211 2579 
C 467 2579 640 2579 646 2320 
L 646 1079 
C 646 646 646 368 813 187 
C 896 103 1056 -64 1517 -64 
C 2061 -64 2272 400 2323 536 
L 2330 536 
L 2330 -64 
L 3091 -13 
L 3091 154 
C 2714 154 2656 193 2656 503 
L 2656 2816 
L 1882 2745 
z
" transform="scale(0.015625)"/>
       <path id="CMR17-73" d="M 1978 2688 
C 1978 2803 1971 2809 1933 2809 
C 1907 2809 1901 2803 1824 2707 
C 1805 2681 1747 2617 1728 2592 
C 1523 2809 1235 2816 1126 2816 
C 416 2816 160 2444 160 2073 
C 160 1497 813 1363 998 1324 
C 1402 1241 1542 1216 1677 1100 
C 1760 1024 1901 883 1901 652 
C 1901 384 1747 38 1158 38 
C 602 38 403 460 288 1024 
C 269 1113 269 1120 218 1120 
C 166 1120 160 1113 160 985 
L 160 64 
C 160 -52 166 -58 205 -58 
C 237 -58 243 -52 275 0 
C 314 57 410 211 448 275 
C 576 102 800 -64 1158 -64 
C 1792 -64 2131 281 2131 780 
C 2131 1107 1958 1280 1875 1356 
C 1683 1555 1459 1600 1190 1651 
C 838 1728 390 1817 390 2208 
C 390 2374 480 2726 1126 2726 
C 1811 2726 1850 2086 1862 1881 
C 1869 1849 1901 1843 1920 1843 
C 1978 1843 1978 1862 1978 1971 
L 1978 2688 
z
" transform="scale(0.015625)"/>
       <path id="CMR17-76" d="M 2502 2173 
C 2560 2315 2662 2572 3034 2585 
L 3034 2752 
C 2912 2745 2752 2739 2630 2739 
C 2496 2739 2285 2739 2157 2752 
L 2157 2585 
C 2317 2572 2406 2495 2406 2328 
C 2406 2270 2406 2257 2368 2167 
L 1664 379 
L 902 2308 
C 864 2392 864 2405 864 2431 
C 864 2585 1075 2585 1171 2585 
L 1171 2752 
C 1018 2739 736 2739 576 2739 
C 403 2739 205 2739 64 2752 
L 64 2585 
C 307 2585 442 2585 518 2386 
L 1446 44 
C 1485 -52 1491 -64 1549 -64 
C 1606 -64 1613 -52 1651 44 
L 2502 2173 
z
" transform="scale(0.015625)"/>
      </defs>
      <use xlink:href="#CMR17-52" transform="scale(0.996264)"/>
      <use xlink:href="#CMR17-69" transform="translate(67.791102 0) scale(0.996264)"/>
      <use xlink:href="#CMR17-6e" transform="translate(92.66216 0) scale(0.996264)"/>
      <use xlink:href="#CMR17-67" transform="translate(143.55753 0) scale(0.996264)"/>
      <use xlink:href="#CMR17-72" transform="translate(219.323974 0) scale(0.996264)"/>
      <use xlink:href="#CMR17-65" transform="translate(254.604741 0) scale(0.996264)"/>
      <use xlink:href="#CMR17-63" transform="translate(295.090402 0) scale(0.996264)"/>
      <use xlink:href="#CMR17-75" transform="translate(335.576062 0) scale(0.996264)"/>
      <use xlink:href="#CMR17-72" transform="translate(386.471432 0) scale(0.996264)"/>
      <use xlink:href="#CMR17-73" transform="translate(421.7522 0) scale(0.996264)"/>
      <use xlink:href="#CMR17-69" transform="translate(457.553538 0) scale(0.996264)"/>
      <use xlink:href="#CMR17-76" transform="translate(482.424596 0) scale(0.996264)"/>
      <use xlink:href="#CMR17-65" transform="translate(528.115058 0) scale(0.996264)"/>
     </g>
    </g>
    <g id="line2d_17">
     <g>
      <use xlink:href="#m97300db572" x="119.426062" y="271.344447" style="fill: #98df8a; stroke: #98df8a"/>
     </g>
    </g>
    <g id="text_13">
     <!-- Ring Brute Force -->
     <g transform="translate(151.826062 277.644447) scale(0.18 -0.18)">
      <defs>
       <path id="CMR17-42" d="M 333 4352 
L 333 4185 
C 774 4185 845 4185 845 3897 
L 845 451 
C 845 166 774 166 333 166 
L 333 0 
L 2534 0 
C 3354 0 3885 578 3885 1155 
C 3885 1726 3360 2214 2675 2259 
C 3290 2380 3718 2790 3718 3276 
C 3718 3808 3194 4352 2368 4352 
L 333 4352 
z
M 1248 2304 
L 1248 3936 
C 1248 4153 1261 4185 1517 4185 
L 2336 4185 
C 2970 4185 3251 3673 3251 3276 
C 3251 2790 2861 2304 2170 2304 
L 1248 2304 
z
M 1517 166 
C 1261 166 1248 198 1248 413 
L 1248 2201 
L 2432 2201 
C 3091 2201 3411 1624 3411 1161 
C 3411 698 3046 166 2349 166 
L 1517 166 
z
" transform="scale(0.015625)"/>
       <path id="CMR17-46" d="M 3482 4339 
L 326 4339 
L 326 4172 
C 768 4172 838 4172 838 3883 
L 838 450 
C 838 166 768 166 326 166 
L 326 0 
C 512 12 870 12 1069 12 
C 1331 12 1638 12 1901 0 
L 1901 166 
L 1760 166 
C 1274 166 1261 229 1261 456 
L 1261 2073 
L 1837 2073 
C 2432 2073 2490 1865 2490 1334 
L 2605 1334 
L 2605 2991 
L 2490 2991 
C 2490 2451 2432 2240 1837 2240 
L 1261 2240 
L 1261 3922 
C 1261 4140 1274 4172 1530 4172 
L 2355 4172 
C 3322 4172 3430 3774 3520 2920 
L 3635 2920 
L 3482 4339 
z
" transform="scale(0.015625)"/>
       <path id="CMR17-6f" d="M 2758 1356 
C 2758 2176 2163 2816 1466 2816 
C 768 2816 173 2176 173 1356 
C 173 550 768 -64 1466 -64 
C 2163 -64 2758 550 2758 1356 
z
M 1466 51 
C 1165 51 909 230 762 480 
C 602 768 582 1126 582 1408 
C 582 1676 595 2009 762 2297 
C 890 2508 1139 2713 1466 2713 
C 1754 2713 1997 2553 2150 2329 
C 2349 2028 2349 1606 2349 1408 
C 2349 1158 2336 774 2163 467 
C 1984 172 1709 51 1466 51 
z
" transform="scale(0.015625)"/>
      </defs>
      <use xlink:href="#CMR17-52" transform="scale(0.996264)"/>
      <use xlink:href="#CMR17-69" transform="translate(67.791102 0) scale(0.996264)"/>
      <use xlink:href="#CMR17-6e" transform="translate(92.66216 0) scale(0.996264)"/>
      <use xlink:href="#CMR17-67" transform="translate(143.55753 0) scale(0.996264)"/>
      <use xlink:href="#CMR17-42" transform="translate(219.323974 0) scale(0.996264)"/>
      <use xlink:href="#CMR17-72" transform="translate(284.512728 0) scale(0.996264)"/>
      <use xlink:href="#CMR17-75" transform="translate(319.793496 0) scale(0.996264)"/>
      <use xlink:href="#CMR17-74" transform="translate(370.688866 0) scale(0.996264)"/>
      <use xlink:href="#CMR17-65" transform="translate(405.969634 0) scale(0.996264)"/>
      <use xlink:href="#CMR17-46" transform="translate(476.53126 0) scale(0.996264)"/>
      <use xlink:href="#CMR17-6f" transform="translate(528.707852 0) scale(0.996264)"/>
      <use xlink:href="#CMR17-72" transform="translate(574.398329 0) scale(0.996264)"/>
      <use xlink:href="#CMR17-63" transform="translate(609.679096 0) scale(0.996264)"/>
      <use xlink:href="#CMR17-65" transform="translate(650.164757 0) scale(0.996264)"/>
     </g>
    </g>
    <g id="line2d_18">
     <path d="M 101.426062 296.432511 
L 119.426062 296.432511 
L 137.426062 296.432511 
" style="fill: none; stroke-dasharray: 11.1,4.8; stroke-dashoffset: 0; stroke: #000000; stroke-width: 3"/>
    </g>
    <g id="text_14">
     <!-- Fit -->
     <g transform="translate(151.826062 302.732511) scale(0.18 -0.18)">
      <use xlink:href="#CMR17-46" transform="scale(0.996264)"/>
      <use xlink:href="#CMR17-69" transform="translate(59.983847 0) scale(0.996264)"/>
      <use xlink:href="#CMR17-74" transform="translate(84.854905 0) scale(0.996264)"/>
     </g>
    </g>
    <g id="line2d_19">
     <g>
      <use xlink:href="#m2d2dc85620" x="119.426062" y="321.520576" style="fill-opacity: 0; stroke: #ffa353; stroke-linejoin: miter"/>
     </g>
    </g>
    <g id="text_15">
     <!-- Random recursive -->
     <g transform="translate(151.826062 327.820576) scale(0.18 -0.18)">
      <defs>
       <path id="CMR17-6d" d="M 4326 1954 
C 4326 2276 4269 2816 3507 2816 
C 3072 2816 2771 2520 2656 2173 
L 2650 2173 
C 2573 2700 2195 2816 1837 2816 
C 1331 2816 1069 2424 973 2166 
L 966 2166 
L 966 2816 
L 211 2745 
L 211 2578 
C 589 2578 646 2540 646 2231 
L 646 443 
C 646 198 621 166 211 166 
L 211 0 
C 365 12 646 12 813 12 
C 979 12 1267 12 1421 0 
L 1421 166 
C 1011 166 986 192 986 443 
L 986 1678 
C 986 2269 1344 2713 1792 2713 
C 2266 2713 2317 2289 2317 1980 
L 2317 443 
C 2317 198 2291 166 1882 166 
L 1882 0 
C 2035 12 2317 12 2483 12 
C 2650 12 2938 12 3091 0 
L 3091 166 
C 2682 166 2656 192 2656 443 
L 2656 1678 
C 2656 2269 3014 2713 3462 2713 
C 3936 2713 3987 2289 3987 1980 
L 3987 443 
C 3987 198 3962 166 3552 166 
L 3552 0 
C 3706 12 3987 12 4154 12 
C 4320 12 4608 12 4762 0 
L 4762 166 
C 4352 166 4326 192 4326 443 
L 4326 1954 
z
" transform="scale(0.015625)"/>
      </defs>
      <use xlink:href="#CMR17-52" transform="scale(0.996264)"/>
      <use xlink:href="#CMR17-61" transform="translate(67.791102 0) scale(0.996264)"/>
      <use xlink:href="#CMR17-6e" transform="translate(113.481579 0) scale(0.996264)"/>
      <use xlink:href="#CMR17-64" transform="translate(164.376949 0) scale(0.996264)"/>
      <use xlink:href="#CMR17-6f" transform="translate(215.272319 0) scale(0.996264)"/>
      <use xlink:href="#CMR17-6d" transform="translate(260.962796 0) scale(0.996264)"/>
      <use xlink:href="#CMR17-72" transform="translate(367.958352 0) scale(0.996264)"/>
      <use xlink:href="#CMR17-65" transform="translate(403.23912 0) scale(0.996264)"/>
      <use xlink:href="#CMR17-63" transform="translate(443.72478 0) scale(0.996264)"/>
      <use xlink:href="#CMR17-75" transform="translate(484.210441 0) scale(0.996264)"/>
      <use xlink:href="#CMR17-72" transform="translate(535.10581 0) scale(0.996264)"/>
      <use xlink:href="#CMR17-73" transform="translate(570.386578 0) scale(0.996264)"/>
      <use xlink:href="#CMR17-69" transform="translate(606.187916 0) scale(0.996264)"/>
      <use xlink:href="#CMR17-76" transform="translate(631.058974 0) scale(0.996264)"/>
      <use xlink:href="#CMR17-65" transform="translate(676.749436 0) scale(0.996264)"/>
     </g>
    </g>
    <g id="line2d_20">
     <g>
      <use xlink:href="#m18bd6ac8cc" x="119.426062" y="346.60864" style="fill: #095400; stroke: #095400; stroke-linejoin: miter"/>
     </g>
    </g>
    <g id="text_16">
     <!-- Random Brute Force -->
     <g transform="translate(151.826062 352.90864) scale(0.18 -0.18)">
      <use xlink:href="#CMR17-52" transform="scale(0.996264)"/>
      <use xlink:href="#CMR17-61" transform="translate(67.791102 0) scale(0.996264)"/>
      <use xlink:href="#CMR17-6e" transform="translate(113.481579 0) scale(0.996264)"/>
      <use xlink:href="#CMR17-64" transform="translate(164.376949 0) scale(0.996264)"/>
      <use xlink:href="#CMR17-6f" transform="translate(215.272319 0) scale(0.996264)"/>
      <use xlink:href="#CMR17-6d" transform="translate(260.962796 0) scale(0.996264)"/>
      <use xlink:href="#CMR17-42" transform="translate(367.958352 0) scale(0.996264)"/>
      <use xlink:href="#CMR17-72" transform="translate(433.147106 0) scale(0.996264)"/>
      <use xlink:href="#CMR17-75" transform="translate(468.427874 0) scale(0.996264)"/>
      <use xlink:href="#CMR17-74" transform="translate(519.323244 0) scale(0.996264)"/>
      <use xlink:href="#CMR17-65" transform="translate(554.604012 0) scale(0.996264)"/>
      <use xlink:href="#CMR17-46" transform="translate(625.165639 0) scale(0.996264)"/>
      <use xlink:href="#CMR17-6f" transform="translate(677.34223 0) scale(0.996264)"/>
      <use xlink:href="#CMR17-72" transform="translate(723.032707 0) scale(0.996264)"/>
      <use xlink:href="#CMR17-63" transform="translate(758.313475 0) scale(0.996264)"/>
      <use xlink:href="#CMR17-65" transform="translate(798.799135 0) scale(0.996264)"/>
     </g>
    </g>
   </g>
  </g>
 </g>
 <defs>
  <clipPath id="p1ab25ad4e4">
   <rect x="85.226062" y="10.8" width="479.973938" height="361.796704"/>
  </clipPath>
 </defs>
</svg>
