<?xml version="1.0" encoding="utf-8" standalone="no"?>
<!DOCTYPE svg PUBLIC "-//W3C//DTD SVG 1.1//EN"
  "http://www.w3.org/Graphics/SVG/1.1/DTD/svg11.dtd">
<svg xmlns:xlink="http://www.w3.org/1999/xlink" width="432pt" height="288pt" viewBox="0 0 432 288" xmlns="http://www.w3.org/2000/svg" version="1.1">
 <metadata>
  <rdf:RDF xmlns:dc="http://purl.org/dc/elements/1.1/" xmlns:cc="http://creativecommons.org/ns#" xmlns:rdf="http://www.w3.org/1999/02/22-rdf-syntax-ns#">
   <cc:Work>
    <dc:type rdf:resource="http://purl.org/dc/dcmitype/StillImage"/>
    <dc:date>2024-05-08T19:38:56.904281</dc:date>
    <dc:format>image/svg+xml</dc:format>
    <dc:creator>
     <cc:Agent>
      <dc:title>Matplotlib v3.7.1, https://matplotlib.org/</dc:title>
     </cc:Agent>
    </dc:creator>
   </cc:Work>
  </rdf:RDF>
 </metadata>
 <defs>
  <style type="text/css">*{stroke-linejoin: round; stroke-linecap: butt}</style>
 </defs>
 <g id="figure_1">
  <g id="patch_1">
   <path d="M 0 288 
L 432 288 
L 432 0 
L 0 0 
L 0 288 
z
" style="fill: none"/>
  </g>
  <g id="axes_1">
   <g id="patch_2">
    <path d="M 48.650726 228.596704 
L 412.061905 228.596704 
L 412.061905 20.802655 
L 48.650726 20.802655 
z
" style="fill: #ffffff"/>
   </g>
   <g id="matplotlib.axis_1">
    <g id="xtick_1">
     <g id="line2d_1">
      <defs>
       <path id="m7f804208b7" d="M 0 0 
L 0 3.5 
" style="stroke: #000000; stroke-width: 0.8"/>
      </defs>
      <g>
       <use xlink:href="#m7f804208b7" x="121.332962" y="228.596704" style="stroke: #000000; stroke-width: 0.8"/>
      </g>
     </g>
     <g id="text_1">
      <!-- 0.001 -->
      <g transform="translate(100.569668 249.433701) scale(0.2 -0.2)">
       <defs>
        <path id="CMR17-30" d="M 2688 2038 
C 2688 2430 2682 3099 2413 3613 
C 2176 4063 1798 4224 1466 4224 
C 1158 4224 768 4082 525 3620 
C 269 3137 243 2539 243 2038 
C 243 1671 250 1112 448 623 
C 723 -39 1216 -128 1466 -128 
C 1760 -128 2208 -7 2470 604 
C 2662 1048 2688 1568 2688 2038 
z
M 1466 -26 
C 1056 -26 813 328 723 816 
C 653 1196 653 1749 653 2109 
C 653 2604 653 3015 736 3407 
C 858 3954 1216 4121 1466 4121 
C 1728 4121 2067 3947 2189 3420 
C 2272 3054 2278 2623 2278 2109 
C 2278 1691 2278 1176 2202 797 
C 2067 96 1690 -26 1466 -26 
z
" transform="scale(0.015625)"/>
        <path id="CMR17-2e" d="M 1062 262 
C 1062 422 934 524 800 524 
C 672 524 538 422 538 262 
C 538 102 666 0 800 0 
C 928 0 1062 102 1062 262 
z
" transform="scale(0.015625)"/>
        <path id="CMR17-31" d="M 1702 4083 
C 1702 4217 1696 4224 1606 4224 
C 1357 3927 979 3833 621 3820 
C 602 3820 570 3820 563 3808 
C 557 3795 557 3782 557 3648 
C 755 3648 1088 3686 1344 3839 
L 1344 467 
C 1344 243 1331 166 781 166 
L 589 166 
L 589 0 
C 896 6 1216 12 1523 12 
C 1830 12 2150 6 2458 0 
L 2458 166 
L 2266 166 
C 1715 166 1702 236 1702 467 
L 1702 4083 
z
" transform="scale(0.015625)"/>
       </defs>
       <use xlink:href="#CMR17-30" transform="scale(0.996264)"/>
       <use xlink:href="#CMR17-2e" transform="translate(45.690477 0) scale(0.996264)"/>
       <use xlink:href="#CMR17-30" transform="translate(70.561536 0) scale(0.996264)"/>
       <use xlink:href="#CMR17-30" transform="translate(116.252013 0) scale(0.996264)"/>
       <use xlink:href="#CMR17-31" transform="translate(161.94249 0) scale(0.996264)"/>
      </g>
     </g>
    </g>
    <g id="xtick_2">
     <g id="line2d_2">
      <g>
       <use xlink:href="#m7f804208b7" x="266.697433" y="228.596704" style="stroke: #000000; stroke-width: 0.8"/>
      </g>
     </g>
     <g id="text_2">
      <!-- 0.1 -->
      <g transform="translate(255.072235 249.433701) scale(0.2 -0.2)">
       <use xlink:href="#CMR17-30" transform="scale(0.996264)"/>
       <use xlink:href="#CMR17-2e" transform="translate(45.690477 0) scale(0.996264)"/>
       <use xlink:href="#CMR17-31" transform="translate(70.561536 0) scale(0.996264)"/>
      </g>
     </g>
    </g>
    <g id="xtick_3">
     <g id="line2d_3">
      <g>
       <use xlink:href="#m7f804208b7" x="412.061905" y="228.596704" style="stroke: #000000; stroke-width: 0.8"/>
      </g>
     </g>
     <g id="text_3">
      <!-- 10 -->
      <g transform="translate(402.923809 249.433701) scale(0.2 -0.2)">
       <use xlink:href="#CMR17-31" transform="scale(0.996264)"/>
       <use xlink:href="#CMR17-30" transform="translate(45.690477 0) scale(0.996264)"/>
      </g>
     </g>
    </g>
    <g id="xtick_4">
     <g id="line2d_4">
      <defs>
       <path id="mc0b486deef" d="M 0 0 
L 0 2 
" style="stroke: #000000; stroke-width: 0.6"/>
      </defs>
      <g>
       <use xlink:href="#mc0b486deef" x="70.530259" y="228.596704" style="stroke: #000000; stroke-width: 0.6"/>
      </g>
     </g>
    </g>
    <g id="xtick_5">
     <g id="line2d_5">
      <g>
       <use xlink:href="#mc0b486deef" x="83.328965" y="228.596704" style="stroke: #000000; stroke-width: 0.6"/>
      </g>
     </g>
    </g>
    <g id="xtick_6">
     <g id="line2d_6">
      <g>
       <use xlink:href="#mc0b486deef" x="92.409792" y="228.596704" style="stroke: #000000; stroke-width: 0.6"/>
      </g>
     </g>
    </g>
    <g id="xtick_7">
     <g id="line2d_7">
      <g>
       <use xlink:href="#mc0b486deef" x="99.453428" y="228.596704" style="stroke: #000000; stroke-width: 0.6"/>
      </g>
     </g>
    </g>
    <g id="xtick_8">
     <g id="line2d_8">
      <g>
       <use xlink:href="#mc0b486deef" x="105.208498" y="228.596704" style="stroke: #000000; stroke-width: 0.6"/>
      </g>
     </g>
    </g>
    <g id="xtick_9">
     <g id="line2d_9">
      <g>
       <use xlink:href="#mc0b486deef" x="110.074341" y="228.596704" style="stroke: #000000; stroke-width: 0.6"/>
      </g>
     </g>
    </g>
    <g id="xtick_10">
     <g id="line2d_10">
      <g>
       <use xlink:href="#mc0b486deef" x="114.289325" y="228.596704" style="stroke: #000000; stroke-width: 0.6"/>
      </g>
     </g>
    </g>
    <g id="xtick_11">
     <g id="line2d_11">
      <g>
       <use xlink:href="#mc0b486deef" x="118.007205" y="228.596704" style="stroke: #000000; stroke-width: 0.6"/>
      </g>
     </g>
    </g>
    <g id="xtick_12">
     <g id="line2d_12">
      <g>
       <use xlink:href="#mc0b486deef" x="143.212495" y="228.596704" style="stroke: #000000; stroke-width: 0.6"/>
      </g>
     </g>
    </g>
    <g id="xtick_13">
     <g id="line2d_13">
      <g>
       <use xlink:href="#mc0b486deef" x="156.011201" y="228.596704" style="stroke: #000000; stroke-width: 0.6"/>
      </g>
     </g>
    </g>
    <g id="xtick_14">
     <g id="line2d_14">
      <g>
       <use xlink:href="#mc0b486deef" x="165.092028" y="228.596704" style="stroke: #000000; stroke-width: 0.6"/>
      </g>
     </g>
    </g>
    <g id="xtick_15">
     <g id="line2d_15">
      <g>
       <use xlink:href="#mc0b486deef" x="172.135664" y="228.596704" style="stroke: #000000; stroke-width: 0.6"/>
      </g>
     </g>
    </g>
    <g id="xtick_16">
     <g id="line2d_16">
      <g>
       <use xlink:href="#mc0b486deef" x="177.890734" y="228.596704" style="stroke: #000000; stroke-width: 0.6"/>
      </g>
     </g>
    </g>
    <g id="xtick_17">
     <g id="line2d_17">
      <g>
       <use xlink:href="#mc0b486deef" x="182.756577" y="228.596704" style="stroke: #000000; stroke-width: 0.6"/>
      </g>
     </g>
    </g>
    <g id="xtick_18">
     <g id="line2d_18">
      <g>
       <use xlink:href="#mc0b486deef" x="186.971561" y="228.596704" style="stroke: #000000; stroke-width: 0.6"/>
      </g>
     </g>
    </g>
    <g id="xtick_19">
     <g id="line2d_19">
      <g>
       <use xlink:href="#mc0b486deef" x="190.689441" y="228.596704" style="stroke: #000000; stroke-width: 0.6"/>
      </g>
     </g>
    </g>
    <g id="xtick_20">
     <g id="line2d_20">
      <g>
       <use xlink:href="#mc0b486deef" x="215.89473" y="228.596704" style="stroke: #000000; stroke-width: 0.6"/>
      </g>
     </g>
    </g>
    <g id="xtick_21">
     <g id="line2d_21">
      <g>
       <use xlink:href="#mc0b486deef" x="228.693437" y="228.596704" style="stroke: #000000; stroke-width: 0.6"/>
      </g>
     </g>
    </g>
    <g id="xtick_22">
     <g id="line2d_22">
      <g>
       <use xlink:href="#mc0b486deef" x="237.774264" y="228.596704" style="stroke: #000000; stroke-width: 0.6"/>
      </g>
     </g>
    </g>
    <g id="xtick_23">
     <g id="line2d_23">
      <g>
       <use xlink:href="#mc0b486deef" x="244.8179" y="228.596704" style="stroke: #000000; stroke-width: 0.6"/>
      </g>
     </g>
    </g>
    <g id="xtick_24">
     <g id="line2d_24">
      <g>
       <use xlink:href="#mc0b486deef" x="250.57297" y="228.596704" style="stroke: #000000; stroke-width: 0.6"/>
      </g>
     </g>
    </g>
    <g id="xtick_25">
     <g id="line2d_25">
      <g>
       <use xlink:href="#mc0b486deef" x="255.438812" y="228.596704" style="stroke: #000000; stroke-width: 0.6"/>
      </g>
     </g>
    </g>
    <g id="xtick_26">
     <g id="line2d_26">
      <g>
       <use xlink:href="#mc0b486deef" x="259.653797" y="228.596704" style="stroke: #000000; stroke-width: 0.6"/>
      </g>
     </g>
    </g>
    <g id="xtick_27">
     <g id="line2d_27">
      <g>
       <use xlink:href="#mc0b486deef" x="263.371676" y="228.596704" style="stroke: #000000; stroke-width: 0.6"/>
      </g>
     </g>
    </g>
    <g id="xtick_28">
     <g id="line2d_28">
      <g>
       <use xlink:href="#mc0b486deef" x="288.576966" y="228.596704" style="stroke: #000000; stroke-width: 0.6"/>
      </g>
     </g>
    </g>
    <g id="xtick_29">
     <g id="line2d_29">
      <g>
       <use xlink:href="#mc0b486deef" x="301.375673" y="228.596704" style="stroke: #000000; stroke-width: 0.6"/>
      </g>
     </g>
    </g>
    <g id="xtick_30">
     <g id="line2d_30">
      <g>
       <use xlink:href="#mc0b486deef" x="310.456499" y="228.596704" style="stroke: #000000; stroke-width: 0.6"/>
      </g>
     </g>
    </g>
    <g id="xtick_31">
     <g id="line2d_31">
      <g>
       <use xlink:href="#mc0b486deef" x="317.500136" y="228.596704" style="stroke: #000000; stroke-width: 0.6"/>
      </g>
     </g>
    </g>
    <g id="xtick_32">
     <g id="line2d_32">
      <g>
       <use xlink:href="#mc0b486deef" x="323.255206" y="228.596704" style="stroke: #000000; stroke-width: 0.6"/>
      </g>
     </g>
    </g>
    <g id="xtick_33">
     <g id="line2d_33">
      <g>
       <use xlink:href="#mc0b486deef" x="328.121048" y="228.596704" style="stroke: #000000; stroke-width: 0.6"/>
      </g>
     </g>
    </g>
    <g id="xtick_34">
     <g id="line2d_34">
      <g>
       <use xlink:href="#mc0b486deef" x="332.336032" y="228.596704" style="stroke: #000000; stroke-width: 0.6"/>
      </g>
     </g>
    </g>
    <g id="xtick_35">
     <g id="line2d_35">
      <g>
       <use xlink:href="#mc0b486deef" x="336.053912" y="228.596704" style="stroke: #000000; stroke-width: 0.6"/>
      </g>
     </g>
    </g>
    <g id="xtick_36">
     <g id="line2d_36">
      <g>
       <use xlink:href="#mc0b486deef" x="361.259202" y="228.596704" style="stroke: #000000; stroke-width: 0.6"/>
      </g>
     </g>
    </g>
    <g id="xtick_37">
     <g id="line2d_37">
      <g>
       <use xlink:href="#mc0b486deef" x="374.057908" y="228.596704" style="stroke: #000000; stroke-width: 0.6"/>
      </g>
     </g>
    </g>
    <g id="xtick_38">
     <g id="line2d_38">
      <g>
       <use xlink:href="#mc0b486deef" x="383.138735" y="228.596704" style="stroke: #000000; stroke-width: 0.6"/>
      </g>
     </g>
    </g>
    <g id="xtick_39">
     <g id="line2d_39">
      <g>
       <use xlink:href="#mc0b486deef" x="390.182371" y="228.596704" style="stroke: #000000; stroke-width: 0.6"/>
      </g>
     </g>
    </g>
    <g id="xtick_40">
     <g id="line2d_40">
      <g>
       <use xlink:href="#mc0b486deef" x="395.937441" y="228.596704" style="stroke: #000000; stroke-width: 0.6"/>
      </g>
     </g>
    </g>
    <g id="xtick_41">
     <g id="line2d_41">
      <g>
       <use xlink:href="#mc0b486deef" x="400.803284" y="228.596704" style="stroke: #000000; stroke-width: 0.6"/>
      </g>
     </g>
    </g>
    <g id="xtick_42">
     <g id="line2d_42">
      <g>
       <use xlink:href="#mc0b486deef" x="405.018268" y="228.596704" style="stroke: #000000; stroke-width: 0.6"/>
      </g>
     </g>
    </g>
    <g id="xtick_43">
     <g id="line2d_43">
      <g>
       <use xlink:href="#mc0b486deef" x="408.736148" y="228.596704" style="stroke: #000000; stroke-width: 0.6"/>
      </g>
     </g>
    </g>
    <g id="text_4">
     <!-- Frequency (Hz) -->
     <g transform="translate(168.607709 272.235356) scale(0.2 -0.2)">
      <defs>
       <path id="CMR17-46" d="M 3482 4339 
L 326 4339 
L 326 4172 
C 768 4172 838 4172 838 3883 
L 838 450 
C 838 166 768 166 326 166 
L 326 0 
C 512 12 870 12 1069 12 
C 1331 12 1638 12 1901 0 
L 1901 166 
L 1760 166 
C 1274 166 1261 229 1261 456 
L 1261 2073 
L 1837 2073 
C 2432 2073 2490 1865 2490 1334 
L 2605 1334 
L 2605 2991 
L 2490 2991 
C 2490 2451 2432 2240 1837 2240 
L 1261 2240 
L 1261 3922 
C 1261 4140 1274 4172 1530 4172 
L 2355 4172 
C 3322 4172 3430 3774 3520 2920 
L 3635 2920 
L 3482 4339 
z
" transform="scale(0.015625)"/>
       <path id="CMR17-72" d="M 960 1517 
C 960 2134 1222 2713 1702 2713 
C 1747 2713 1792 2707 1837 2687 
C 1837 2687 1696 2642 1696 2475 
C 1696 2321 1818 2257 1914 2257 
C 1990 2257 2131 2302 2131 2482 
C 2131 2687 1926 2816 1709 2816 
C 1222 2816 1011 2340 947 2115 
L 941 2115 
L 941 2816 
L 198 2745 
L 198 2578 
C 576 2578 634 2540 634 2231 
L 634 443 
C 634 198 608 166 198 166 
L 198 0 
C 352 12 646 12 813 12 
C 998 12 1325 12 1498 0 
L 1498 166 
C 1037 166 960 166 960 455 
L 960 1517 
z
" transform="scale(0.015625)"/>
       <path id="CMR17-65" d="M 2438 1503 
C 2464 1529 2464 1542 2464 1606 
C 2464 2251 2118 2816 1389 2816 
C 710 2816 173 2175 173 1394 
C 173 554 781 -64 1459 -64 
C 2176 -64 2458 619 2458 755 
C 2458 800 2419 800 2406 800 
C 2362 800 2355 787 2330 709 
C 2189 270 1837 51 1504 51 
C 1229 51 954 206 781 490 
C 582 819 582 1200 582 1503 
L 2438 1503 
z
M 589 1600 
C 634 2511 1126 2713 1382 2713 
C 1818 2713 2112 2308 2118 1600 
L 589 1600 
z
" transform="scale(0.015625)"/>
       <path id="CMR17-71" d="M 2630 2816 
L 2528 2816 
L 2336 2177 
C 2189 2519 1920 2816 1491 2816 
C 838 2816 211 2228 211 1376 
C 211 529 800 -64 1440 -64 
C 1933 -64 2208 316 2291 458 
L 2291 -834 
C 2291 -1081 2266 -1114 1856 -1114 
L 1856 -1280 
C 2010 -1268 2291 -1268 2458 -1268 
C 2624 -1268 2912 -1268 3066 -1280 
L 3066 -1114 
C 2656 -1114 2630 -1088 2630 -834 
L 2630 2816 
z
M 2304 871 
C 2304 594 2074 335 2054 316 
C 1856 90 1626 38 1472 38 
C 992 38 621 652 621 1369 
C 621 2125 1043 2700 1536 2700 
C 2048 2700 2304 2112 2304 1776 
L 2304 871 
z
" transform="scale(0.015625)"/>
       <path id="CMR17-75" d="M 1882 2745 
L 1882 2579 
C 2259 2579 2317 2540 2317 2229 
L 2317 1053 
C 2317 510 2029 38 1555 38 
C 1030 38 986 355 986 691 
L 986 2816 
L 211 2745 
L 211 2579 
C 467 2579 640 2579 646 2320 
L 646 1079 
C 646 646 646 368 813 187 
C 896 103 1056 -64 1517 -64 
C 2061 -64 2272 400 2323 536 
L 2330 536 
L 2330 -64 
L 3091 -13 
L 3091 154 
C 2714 154 2656 193 2656 503 
L 2656 2816 
L 1882 2745 
z
" transform="scale(0.015625)"/>
       <path id="CMR17-6e" d="M 2656 1954 
C 2656 2282 2592 2816 1837 2816 
C 1331 2816 1069 2424 973 2166 
L 966 2166 
L 966 2816 
L 211 2745 
L 211 2578 
C 589 2578 646 2540 646 2231 
L 646 443 
C 646 198 621 166 211 166 
L 211 0 
C 365 12 646 12 813 12 
C 979 12 1267 12 1421 0 
L 1421 166 
C 1011 166 986 192 986 443 
L 986 1678 
C 986 2269 1344 2713 1792 2713 
C 2266 2713 2317 2289 2317 1980 
L 2317 443 
C 2317 198 2291 166 1882 166 
L 1882 0 
C 2035 12 2317 12 2483 12 
C 2650 12 2938 12 3091 0 
L 3091 166 
C 2682 166 2656 192 2656 443 
L 2656 1954 
z
" transform="scale(0.015625)"/>
       <path id="CMR17-63" d="M 2234 2240 
C 2112 2240 1933 2240 1933 2015 
C 1933 1836 2080 1785 2163 1785 
C 2208 1785 2394 1804 2394 2028 
C 2394 2476 1958 2816 1466 2816 
C 787 2816 211 2201 211 1379 
C 211 521 813 -64 1466 -64 
C 2259 -64 2458 676 2458 747 
C 2458 773 2451 792 2406 792 
C 2362 792 2355 786 2330 702 
C 2163 180 1798 51 1523 51 
C 1114 51 621 431 621 1385 
C 621 2358 1094 2700 1472 2700 
C 1722 2700 2093 2582 2234 2240 
z
" transform="scale(0.015625)"/>
       <path id="CMR17-79" d="M 2496 2183 
C 2656 2579 2944 2585 3034 2585 
L 3034 2752 
C 2912 2745 2752 2739 2630 2739 
C 2496 2739 2285 2739 2157 2752 
L 2157 2585 
C 2400 2566 2406 2384 2406 2332 
C 2406 2268 2394 2235 2362 2158 
L 1664 409 
L 902 2300 
C 870 2378 870 2423 870 2430 
C 870 2572 1018 2585 1171 2585 
L 1171 2752 
C 1018 2739 742 2739 582 2739 
C 410 2739 205 2739 64 2752 
L 64 2585 
C 410 2585 448 2553 531 2345 
L 1485 -31 
C 1197 -795 1030 -1242 627 -1242 
C 557 -1242 397 -1223 282 -1106 
C 429 -1093 493 -1002 493 -892 
C 493 -782 416 -685 288 -685 
C 147 -685 77 -782 77 -899 
C 77 -1158 339 -1344 627 -1344 
C 998 -1344 1229 -983 1357 -659 
L 2496 2183 
z
" transform="scale(0.015625)"/>
       <path id="CMR17-28" d="M 1958 -1562 
C 1958 -1556 1958 -1543 1939 -1524 
C 1645 -1223 858 -403 858 1596 
C 858 3595 1632 4408 1946 4729 
C 1946 4735 1958 4748 1958 4767 
C 1958 4787 1939 4800 1914 4800 
C 1843 4800 1299 4325 986 3620 
C 666 2909 576 2218 576 1603 
C 576 1141 621 360 1005 -467 
C 1312 -1133 1837 -1600 1914 -1600 
C 1946 -1600 1958 -1588 1958 -1562 
z
" transform="scale(0.015625)"/>
       <path id="CMR17-48" d="M 3590 3898 
C 3590 4185 3661 4185 4102 4185 
L 4102 4352 
C 3917 4339 3578 4339 3379 4339 
C 3181 4339 2842 4339 2656 4352 
L 2656 4185 
C 3098 4185 3168 4185 3168 3898 
L 3168 2342 
L 1261 2342 
L 1261 3898 
C 1261 4185 1331 4185 1773 4185 
L 1773 4352 
C 1587 4339 1248 4339 1050 4339 
C 851 4339 512 4339 326 4352 
L 326 4185 
C 768 4185 838 4185 838 3898 
L 838 452 
C 838 166 768 166 326 166 
L 326 0 
C 512 12 851 12 1050 12 
C 1248 12 1587 12 1773 0 
L 1773 166 
C 1331 166 1261 166 1261 452 
L 1261 2176 
L 3168 2176 
L 3168 452 
C 3168 166 3098 166 2656 166 
L 2656 0 
C 2842 12 3181 12 3379 12 
C 3578 12 3917 12 4102 0 
L 4102 166 
C 3661 166 3590 166 3590 452 
L 3590 3898 
z
" transform="scale(0.015625)"/>
       <path id="CMR17-7a" d="M 2310 2604 
C 2362 2668 2362 2681 2362 2694 
C 2362 2752 2336 2752 2221 2752 
L 275 2752 
L 211 1760 
L 326 1760 
C 371 2380 442 2649 1178 2649 
L 1958 2649 
L 128 96 
C 128 6 134 0 269 0 
L 2291 0 
L 2381 1152 
L 2266 1152 
C 2214 441 2131 115 1350 115 
L 531 115 
L 2310 2604 
z
" transform="scale(0.015625)"/>
       <path id="CMR17-29" d="M 1683 1596 
C 1683 2057 1638 2839 1254 3665 
C 947 4332 422 4800 346 4800 
C 326 4800 301 4793 301 4761 
C 301 4748 307 4742 314 4729 
C 621 4408 1402 3595 1402 1603 
C 1402 -396 627 -1210 314 -1530 
C 307 -1543 301 -1549 301 -1562 
C 301 -1594 326 -1600 346 -1600 
C 416 -1600 960 -1127 1274 -422 
C 1594 289 1683 981 1683 1596 
z
" transform="scale(0.015625)"/>
      </defs>
      <use xlink:href="#CMR17-46" transform="scale(0.996264)"/>
      <use xlink:href="#CMR17-72" transform="translate(52.176591 0) scale(0.996264)"/>
      <use xlink:href="#CMR17-65" transform="translate(87.457359 0) scale(0.996264)"/>
      <use xlink:href="#CMR17-71" transform="translate(127.943019 0) scale(0.996264)"/>
      <use xlink:href="#CMR17-75" transform="translate(176.235935 0) scale(0.996264)"/>
      <use xlink:href="#CMR17-65" transform="translate(227.131305 0) scale(0.996264)"/>
      <use xlink:href="#CMR17-6e" transform="translate(267.616966 0) scale(0.996264)"/>
      <use xlink:href="#CMR17-63" transform="translate(318.512335 0) scale(0.996264)"/>
      <use xlink:href="#CMR17-79" transform="translate(358.997996 0) scale(0.996264)"/>
      <use xlink:href="#CMR17-28" transform="translate(437.366878 0) scale(0.996264)"/>
      <use xlink:href="#CMR17-48" transform="translate(472.647646 0) scale(0.996264)"/>
      <use xlink:href="#CMR17-7a" transform="translate(541.720076 0) scale(0.996264)"/>
      <use xlink:href="#CMR17-29" transform="translate(582.205736 0) scale(0.996264)"/>
     </g>
    </g>
   </g>
   <g id="matplotlib.axis_2">
    <g id="ytick_1">
     <g id="line2d_44">
      <defs>
       <path id="m392559b554" d="M 0 0 
L -3.5 0 
" style="stroke: #000000; stroke-width: 0.8"/>
      </defs>
      <g>
       <use xlink:href="#m392559b554" x="48.650726" y="184.273178" style="stroke: #000000; stroke-width: 0.8"/>
      </g>
     </g>
     <g id="text_5">
      <!-- $\mathdefault{1}$ -->
      <g transform="translate(32.51263 191.191676) scale(0.2 -0.2)">
       <use xlink:href="#CMR17-31" transform="scale(0.996264)"/>
      </g>
     </g>
    </g>
    <g id="ytick_2">
     <g id="line2d_45">
      <g>
       <use xlink:href="#m392559b554" x="48.650726" y="114.516425" style="stroke: #000000; stroke-width: 0.8"/>
      </g>
     </g>
     <g id="text_6">
      <!-- $\mathdefault{3}$ -->
      <g transform="translate(32.51263 121.434923) scale(0.2 -0.2)">
       <defs>
        <path id="CMR17-33" d="M 1414 2176 
C 1984 2176 2234 1673 2234 1094 
C 2234 322 1824 25 1453 25 
C 1114 25 563 193 390 691 
C 422 678 454 678 486 678 
C 640 678 755 780 755 947 
C 755 1132 614 1216 486 1216 
C 378 1216 211 1164 211 927 
C 211 335 787 -128 1466 -128 
C 2176 -128 2720 432 2720 1087 
C 2720 1718 2208 2176 1600 2246 
C 2086 2347 2554 2776 2554 3353 
C 2554 3856 2048 4224 1472 4224 
C 890 4224 378 3862 378 3347 
C 378 3123 544 3084 627 3084 
C 762 3084 877 3167 877 3334 
C 877 3500 762 3584 627 3584 
C 602 3584 570 3584 544 3571 
C 730 3999 1235 4076 1459 4076 
C 1683 4076 2106 3966 2106 3347 
C 2106 3167 2080 2851 1862 2574 
C 1670 2329 1453 2316 1242 2297 
C 1210 2297 1062 2284 1037 2284 
C 992 2278 966 2272 966 2227 
C 966 2182 973 2176 1101 2176 
L 1414 2176 
z
" transform="scale(0.015625)"/>
       </defs>
       <use xlink:href="#CMR17-33" transform="scale(0.996264)"/>
      </g>
     </g>
    </g>
    <g id="ytick_3">
     <g id="line2d_46">
      <g>
       <use xlink:href="#m392559b554" x="48.650726" y="44.759672" style="stroke: #000000; stroke-width: 0.8"/>
      </g>
     </g>
     <g id="text_7">
      <!-- $\mathdefault{5}$ -->
      <g transform="translate(32.51263 51.67817) scale(0.2 -0.2)">
       <defs>
        <path id="CMR17-35" d="M 730 3750 
C 794 3724 1056 3641 1325 3641 
C 1920 3641 2246 3961 2432 4140 
C 2432 4191 2432 4224 2394 4224 
C 2387 4224 2374 4224 2323 4198 
C 2099 4102 1837 4032 1517 4032 
C 1325 4032 1037 4055 723 4191 
C 653 4224 640 4224 634 4224 
C 602 4224 595 4217 595 4090 
L 595 2231 
C 595 2113 595 2080 659 2080 
C 691 2080 704 2093 736 2139 
C 941 2435 1222 2560 1542 2560 
C 1766 2560 2246 2415 2246 1293 
C 2246 1087 2246 716 2054 422 
C 1894 159 1645 25 1370 25 
C 947 25 518 319 403 812 
C 429 806 480 793 506 793 
C 589 793 749 838 749 1036 
C 749 1209 627 1280 506 1280 
C 358 1280 262 1190 262 1011 
C 262 454 704 -128 1382 -128 
C 2042 -128 2669 441 2669 1267 
C 2669 2054 2170 2662 1549 2662 
C 1222 2662 947 2540 730 2304 
L 730 3750 
z
" transform="scale(0.015625)"/>
       </defs>
       <use xlink:href="#CMR17-35" transform="scale(0.996264)"/>
      </g>
     </g>
    </g>
    <g id="text_8">
     <!-- Cross Power Spectral Density -->
     <g transform="translate(24.636997 242.895932) rotate(-90) scale(0.2 -0.2)">
      <defs>
       <path id="CMR17-43" d="M 3974 4351 
C 3974 4467 3968 4473 3930 4473 
C 3904 4473 3898 4467 3853 4390 
L 3571 3849 
C 3258 4249 2874 4480 2381 4480 
C 1286 4480 294 3507 294 2179 
C 294 837 1286 -128 2387 -128 
C 3366 -128 3974 741 3974 1482 
C 3974 1547 3974 1573 3917 1573 
C 3866 1573 3866 1553 3859 1495 
C 3808 592 3168 38 2477 38 
C 1824 38 781 502 781 2179 
C 781 3862 1843 4313 2464 4313 
C 3187 4313 3712 3681 3834 2785 
C 3846 2707 3846 2695 3904 2695 
C 3974 2695 3974 2707 3974 2824 
L 3974 4351 
z
" transform="scale(0.015625)"/>
       <path id="CMR17-6f" d="M 2758 1356 
C 2758 2176 2163 2816 1466 2816 
C 768 2816 173 2176 173 1356 
C 173 550 768 -64 1466 -64 
C 2163 -64 2758 550 2758 1356 
z
M 1466 51 
C 1165 51 909 230 762 480 
C 602 768 582 1126 582 1408 
C 582 1676 595 2009 762 2297 
C 890 2508 1139 2713 1466 2713 
C 1754 2713 1997 2553 2150 2329 
C 2349 2028 2349 1606 2349 1408 
C 2349 1158 2336 774 2163 467 
C 1984 172 1709 51 1466 51 
z
" transform="scale(0.015625)"/>
       <path id="CMR17-73" d="M 1978 2688 
C 1978 2803 1971 2809 1933 2809 
C 1907 2809 1901 2803 1824 2707 
C 1805 2681 1747 2617 1728 2592 
C 1523 2809 1235 2816 1126 2816 
C 416 2816 160 2444 160 2073 
C 160 1497 813 1363 998 1324 
C 1402 1241 1542 1216 1677 1100 
C 1760 1024 1901 883 1901 652 
C 1901 384 1747 38 1158 38 
C 602 38 403 460 288 1024 
C 269 1113 269 1120 218 1120 
C 166 1120 160 1113 160 985 
L 160 64 
C 160 -52 166 -58 205 -58 
C 237 -58 243 -52 275 0 
C 314 57 410 211 448 275 
C 576 102 800 -64 1158 -64 
C 1792 -64 2131 281 2131 780 
C 2131 1107 1958 1280 1875 1356 
C 1683 1555 1459 1600 1190 1651 
C 838 1728 390 1817 390 2208 
C 390 2374 480 2726 1126 2726 
C 1811 2726 1850 2086 1862 1881 
C 1869 1849 1901 1843 1920 1843 
C 1978 1843 1978 1862 1978 1971 
L 1978 2688 
z
" transform="scale(0.015625)"/>
       <path id="CMR17-50" d="M 1267 2048 
L 2291 2048 
C 3117 2048 3718 2583 3718 3187 
C 3718 3791 3130 4352 2291 4352 
L 333 4352 
L 333 4185 
C 774 4185 845 4185 845 3899 
L 845 453 
C 845 166 774 166 333 166 
L 333 0 
C 518 12 858 12 1056 12 
C 1254 12 1594 12 1779 0 
L 1779 166 
C 1338 166 1267 166 1267 453 
L 1267 2048 
z
M 1254 2182 
L 1254 3937 
C 1254 4153 1267 4185 1523 4185 
L 2170 4185 
C 2995 4185 3232 3715 3232 3187 
C 3232 2608 2950 2182 2170 2182 
L 1254 2182 
z
" transform="scale(0.015625)"/>
       <path id="CMR17-77" d="M 3725 2186 
C 3853 2566 4109 2579 4205 2585 
L 4205 2752 
C 4077 2745 3949 2739 3821 2739 
C 3699 2739 3424 2739 3315 2752 
L 3315 2585 
C 3514 2572 3622 2456 3622 2296 
C 3622 2251 3610 2193 3597 2148 
L 2995 398 
L 2342 2296 
C 2330 2341 2310 2392 2310 2418 
C 2310 2585 2528 2585 2630 2585 
L 2630 2752 
C 2483 2739 2214 2739 2061 2739 
C 1901 2739 1734 2739 1587 2752 
L 1587 2585 
C 1939 2585 1939 2572 2074 2167 
L 1485 443 
L 851 2302 
C 819 2386 819 2399 819 2418 
C 819 2585 1037 2585 1139 2585 
L 1139 2752 
C 986 2739 717 2739 557 2739 
C 416 2739 198 2739 64 2752 
L 64 2585 
C 346 2585 416 2566 486 2353 
L 1274 38 
C 1299 -45 1318 -64 1370 -64 
C 1414 -64 1440 -52 1472 44 
L 2131 1987 
L 2797 44 
C 2829 -52 2854 -64 2899 -64 
C 2950 -64 2970 -45 2995 38 
L 3725 2186 
z
" transform="scale(0.015625)"/>
       <path id="CMR17-53" d="M 2803 4351 
C 2803 4467 2797 4473 2758 4473 
C 2720 4473 2707 4447 2682 4390 
L 2490 3965 
C 2246 4320 1875 4480 1472 4480 
C 819 4480 294 3958 294 3301 
C 294 3101 339 2817 557 2546 
C 794 2250 1018 2198 1530 2063 
C 1722 2011 2042 1927 2106 1901 
C 2470 1747 2662 1360 2662 999 
C 2662 534 2336 38 1779 38 
C 1094 38 454 425 410 1328 
C 403 1431 397 1437 352 1437 
C 301 1437 294 1431 294 1302 
L 294 0 
C 294 -116 301 -122 339 -122 
C 384 -122 397 -90 486 109 
C 493 128 493 141 614 386 
C 934 -39 1472 -128 1779 -128 
C 2477 -128 2970 457 2970 1141 
C 2970 1476 2848 1734 2778 1850 
C 2509 2263 2221 2340 1914 2417 
C 1869 2437 1856 2437 1498 2527 
C 1152 2617 1005 2662 845 2836 
C 666 3036 602 3243 602 3449 
C 602 3868 934 4326 1478 4326 
C 2157 4326 2579 3842 2675 3036 
C 2694 2920 2701 2914 2746 2914 
C 2803 2914 2803 2933 2803 3043 
L 2803 4351 
z
" transform="scale(0.015625)"/>
       <path id="CMR17-70" d="M 1408 -1114 
C 998 -1114 973 -1088 973 -834 
L 973 380 
C 1158 109 1427 -64 1766 -64 
C 2406 -64 3053 503 3053 1382 
C 3053 2196 2496 2816 1837 2816 
C 1453 2816 1139 2603 960 2345 
L 960 2816 
L 198 2745 
L 198 2577 
C 576 2577 634 2539 634 2228 
L 634 -834 
C 634 -1081 608 -1114 198 -1114 
L 198 -1280 
C 352 -1268 634 -1268 800 -1268 
C 966 -1268 1254 -1268 1408 -1280 
L 1408 -1114 
z
M 973 2015 
C 973 2106 973 2241 1222 2481 
C 1254 2506 1472 2700 1792 2700 
C 2259 2700 2643 2112 2643 1376 
C 2643 639 2234 38 1728 38 
C 1498 38 1248 148 1056 451 
C 973 594 973 632 973 736 
L 973 2015 
z
" transform="scale(0.015625)"/>
       <path id="CMR17-74" d="M 966 2585 
L 1862 2585 
L 1862 2752 
L 966 2752 
L 966 3968 
L 851 3968 
C 838 3292 614 2700 70 2687 
L 70 2585 
L 627 2585 
L 627 778 
C 627 655 627 -64 1370 -64 
C 1747 -64 1965 308 1965 784 
L 1965 1151 
L 1850 1151 
L 1850 790 
C 1850 347 1677 51 1408 51 
C 1222 51 966 179 966 765 
L 966 2585 
z
" transform="scale(0.015625)"/>
       <path id="CMR17-61" d="M 2304 1656 
C 2304 2048 2304 2275 2035 2534 
C 1798 2751 1523 2816 1306 2816 
C 800 2816 435 2408 435 1977 
C 435 1740 627 1728 666 1728 
C 749 1728 896 1779 896 1958 
C 896 2118 774 2188 666 2188 
C 640 2188 608 2182 589 2176 
C 723 2594 1069 2713 1293 2713 
C 1613 2713 1965 2421 1965 1875 
L 1965 1632 
C 1587 1619 1133 1568 774 1373 
C 371 1147 256 822 256 576 
C 256 77 832 -64 1171 -64 
C 1523 -64 1850 135 1990 505 
C 2003 219 2182 -39 2464 -39 
C 2598 -39 2938 51 2938 563 
L 2938 926 
L 2822 926 
L 2822 557 
C 2822 161 2650 109 2566 109 
C 2304 109 2304 446 2304 732 
L 2304 1656 
z
M 1965 887 
C 1965 323 1568 38 1216 38 
C 896 38 646 278 646 576 
C 646 771 730 1114 1101 1322 
C 1408 1497 1760 1523 1965 1536 
L 1965 887 
z
" transform="scale(0.015625)"/>
       <path id="CMR17-6c" d="M 979 4416 
L 218 4345 
L 218 4179 
C 595 4179 653 4141 653 3835 
L 653 439 
C 653 198 627 166 218 166 
L 218 0 
C 371 12 653 12 813 12 
C 979 12 1261 12 1414 0 
L 1414 166 
C 1005 166 979 191 979 439 
L 979 4416 
z
" transform="scale(0.015625)"/>
       <path id="CMR17-44" d="M 333 4352 
L 333 4185 
C 774 4185 845 4185 845 3898 
L 845 453 
C 845 166 774 166 333 166 
L 333 0 
L 2368 0 
C 3398 0 4224 943 4224 2140 
C 4224 3344 3411 4352 2368 4352 
L 333 4352 
z
M 1523 166 
C 1267 166 1254 198 1254 414 
L 1254 3936 
C 1254 4153 1267 4185 1523 4185 
L 2240 4185 
C 2771 4185 3750 3873 3750 2140 
C 3750 1242 3488 879 3366 707 
C 3213 510 2848 166 2240 166 
L 1523 166 
z
" transform="scale(0.015625)"/>
       <path id="CMR17-69" d="M 992 3961 
C 992 4102 877 4224 730 4224 
C 589 4224 467 4108 467 3961 
C 467 3820 582 3699 730 3699 
C 870 3699 992 3814 992 3961 
z
M 243 2745 
L 243 2579 
C 602 2579 653 2540 653 2231 
L 653 443 
C 653 198 627 166 218 166 
L 218 0 
C 371 12 646 12 806 12 
C 960 12 1222 12 1370 0 
L 1370 166 
C 992 166 979 205 979 436 
L 979 2816 
L 243 2745 
z
" transform="scale(0.015625)"/>
      </defs>
      <use xlink:href="#CMR17-43" transform="scale(0.996264)"/>
      <use xlink:href="#CMR17-72" transform="translate(66.509881 0) scale(0.996264)"/>
      <use xlink:href="#CMR17-6f" transform="translate(101.790648 0) scale(0.996264)"/>
      <use xlink:href="#CMR17-73" transform="translate(147.481125 0) scale(0.996264)"/>
      <use xlink:href="#CMR17-73" transform="translate(183.282463 0) scale(0.996264)"/>
      <use xlink:href="#CMR17-50" transform="translate(249.159767 0) scale(0.996264)"/>
      <use xlink:href="#CMR17-6f" transform="translate(309.143614 0) scale(0.996264)"/>
      <use xlink:href="#CMR17-77" transform="translate(352.231637 0) scale(0.996264)"/>
      <use xlink:href="#CMR17-65" transform="translate(416.139063 0) scale(0.996264)"/>
      <use xlink:href="#CMR17-72" transform="translate(456.624724 0) scale(0.996264)"/>
      <use xlink:href="#CMR17-53" transform="translate(521.981458 0) scale(0.996264)"/>
      <use xlink:href="#CMR17-70" transform="translate(572.876828 0) scale(0.996264)"/>
      <use xlink:href="#CMR17-65" transform="translate(626.374636 0) scale(0.996264)"/>
      <use xlink:href="#CMR17-63" transform="translate(666.860297 0) scale(0.996264)"/>
      <use xlink:href="#CMR17-74" transform="translate(707.345957 0) scale(0.996264)"/>
      <use xlink:href="#CMR17-72" transform="translate(742.626725 0) scale(0.996264)"/>
      <use xlink:href="#CMR17-61" transform="translate(777.907493 0) scale(0.996264)"/>
      <use xlink:href="#CMR17-6c" transform="translate(823.59797 0) scale(0.996264)"/>
      <use xlink:href="#CMR17-44" transform="translate(878.544995 0) scale(0.996264)"/>
      <use xlink:href="#CMR17-65" transform="translate(948.938551 0) scale(0.996264)"/>
      <use xlink:href="#CMR17-6e" transform="translate(989.424211 0) scale(0.996264)"/>
      <use xlink:href="#CMR17-73" transform="translate(1040.319581 0) scale(0.996264)"/>
      <use xlink:href="#CMR17-69" transform="translate(1076.120919 0) scale(0.996264)"/>
      <use xlink:href="#CMR17-74" transform="translate(1100.991977 0) scale(0.996264)"/>
      <use xlink:href="#CMR17-79" transform="translate(1133.670291 0) scale(0.996264)"/>
     </g>
    </g>
    <g id="text_9">
     <!-- $\times\mathdefault{10^{−6}}\mathdefault{}$ -->
     <g transform="translate(48.650726 17.802655) scale(0.1 -0.1)">
      <defs>
       <path id="CMSY10-2" d="M 2490 1775 
L 1210 3046 
C 1133 3123 1120 3136 1069 3136 
C 1005 3136 941 3078 941 3008 
C 941 2963 954 2950 1024 2880 
L 2304 1596 
L 1024 313 
C 954 243 941 230 941 185 
C 941 115 1005 57 1069 57 
C 1120 57 1133 70 1210 147 
L 2483 1418 
L 3808 95 
C 3821 89 3866 57 3904 57 
C 3981 57 4032 115 4032 185 
C 4032 198 4032 223 4013 255 
C 4006 268 2989 1271 2669 1596 
L 3840 2765 
C 3872 2803 3968 2886 4000 2925 
C 4006 2937 4032 2963 4032 3008 
C 4032 3078 3981 3136 3904 3136 
C 3853 3136 3827 3110 3757 3040 
L 2490 1775 
z
" transform="scale(0.015625)"/>
       <path id="CMSY10-0" d="M 4218 1472 
C 4326 1472 4442 1472 4442 1600 
C 4442 1728 4326 1728 4218 1728 
L 755 1728 
C 646 1728 531 1728 531 1600 
C 531 1472 646 1472 755 1472 
L 4218 1472 
z
" transform="scale(0.015625)"/>
       <path id="CMR17-36" d="M 678 2198 
C 678 3712 1395 4076 1811 4076 
C 1946 4076 2272 4049 2400 3782 
C 2298 3782 2106 3782 2106 3558 
C 2106 3385 2246 3328 2336 3328 
C 2394 3328 2566 3353 2566 3571 
C 2566 3987 2246 4224 1805 4224 
C 1043 4224 243 3411 243 2011 
C 243 257 966 -128 1478 -128 
C 2099 -128 2688 431 2688 1295 
C 2688 2101 2170 2688 1517 2688 
C 1126 2688 838 2430 678 1979 
L 678 2198 
z
M 1478 25 
C 691 25 691 1212 691 1450 
C 691 1914 909 2585 1504 2585 
C 1613 2585 1926 2585 2138 2140 
C 2253 1889 2253 1624 2253 1302 
C 2253 954 2253 696 2118 438 
C 1978 173 1773 25 1478 25 
z
" transform="scale(0.015625)"/>
      </defs>
      <use xlink:href="#CMSY10-2" transform="scale(0.996264)"/>
      <use xlink:href="#CMR17-31" transform="translate(77.487468 0) scale(0.996264)"/>
      <use xlink:href="#CMR17-30" transform="translate(123.177945 0) scale(0.996264)"/>
      <use xlink:href="#CMSY10-0" transform="translate(168.868422 36.153639) scale(0.697382)"/>
      <use xlink:href="#CMR17-36" transform="translate(223.109415 36.153639) scale(0.697382)"/>
     </g>
    </g>
   </g>
   <g id="line2d_47">
    <path d="M 48.650725 218.672678 
L 113.038893 218.56283 
L 131.95519 218.305078 
L 145.414862 217.810713 
L 155.600561 217.020234 
L 163.239836 215.987546 
L 169.787785 214.59751 
L 175.244411 212.892954 
L 177.427059 212.040724 
L 180.701034 210.487199 
L 182.156133 209.68735 
L 184.702559 208.087978 
L 186.157659 207.057643 
L 188.704081 205.013164 
L 191.250508 202.584157 
L 193.796933 199.717232 
L 196.707132 195.801864 
L 199.253557 191.693351 
L 200.708657 189.07073 
L 203.255081 183.773081 
L 205.801506 177.521726 
L 207.256605 173.51696 
L 209.439256 166.730634 
L 211.258129 160.330254 
L 213.44078 151.766157 
L 215.987206 140.28448 
L 218.169853 129.295259 
L 220.716279 115.036514 
L 223.626478 97.398488 
L 227.991777 70.515237 
L 229.810653 60.443756 
L 231.265753 53.444681 
L 232.720851 47.796711 
L 233.812179 44.590171 
L 234.539728 43.021819 
L 235.267278 41.921647 
L 235.994828 41.337809 
L 236.358601 41.238092 
L 236.722376 41.26856 
L 237.086152 41.430373 
L 237.813702 42.142779 
L 238.541252 43.368346 
L 239.268803 45.112247 
L 240.360126 48.605012 
L 241.45145 53.114045 
L 242.542775 58.487828 
L 243.997875 66.79793 
L 245.81675 78.465519 
L 254.547349 136.859544 
L 256.73 149.098513 
L 258.548873 158.233819 
L 260.731525 167.900919 
L 262.550397 174.941514 
L 264.369273 181.126084 
L 266.188147 186.532159 
L 268.007023 191.237153 
L 269.825897 195.309829 
L 271.644773 198.828867 
L 273.463648 201.859184 
L 275.282523 204.460403 
L 277.101396 206.686781 
L 278.920273 208.591377 
L 280.739145 210.213883 
L 282.921796 211.846414 
L 285.104446 213.189547 
L 287.650871 214.453148 
L 290.197296 215.45326 
L 293.107495 216.342241 
L 296.38147 217.091663 
L 300.019218 217.693724 
L 304.384517 218.189491 
L 309.841144 218.57966 
L 317.116641 218.865708 
L 328.029891 219.050481 
L 348.765062 219.137499 
L 412.061905 219.15152 
L 412.061905 219.15152 
" clip-path="url(#pc24504fd8d)" style="fill: none; stroke: #ffa353; stroke-width: 12; stroke-linecap: square"/>
   </g>
   <g id="line2d_48">
    <path d="M 48.650725 218.672678 
L 113.038893 218.56283 
L 131.95519 218.305078 
L 145.414862 217.810713 
L 155.600561 217.020234 
L 163.239836 215.987546 
L 169.787785 214.59751 
L 175.244411 212.892954 
L 177.427059 212.040724 
L 180.701034 210.487199 
L 182.156133 209.68735 
L 184.702559 208.087978 
L 186.157659 207.057643 
L 188.704081 205.013164 
L 191.250508 202.584157 
L 193.796933 199.717232 
L 196.707132 195.801864 
L 199.253557 191.693351 
L 200.708657 189.07073 
L 203.255081 183.773081 
L 205.801506 177.521726 
L 207.256605 173.51696 
L 209.439256 166.730634 
L 211.258129 160.330254 
L 213.44078 151.766157 
L 215.987206 140.28448 
L 218.169853 129.295259 
L 220.716279 115.036514 
L 223.626478 97.398488 
L 227.991777 70.515237 
L 229.810653 60.443756 
L 231.265753 53.444681 
L 232.720851 47.796711 
L 233.812179 44.590171 
L 234.539728 43.021819 
L 235.267278 41.921647 
L 235.994828 41.337809 
L 236.358601 41.238092 
L 236.722376 41.26856 
L 237.086152 41.430373 
L 237.813702 42.142779 
L 238.541252 43.368346 
L 239.268803 45.112247 
L 240.360126 48.605012 
L 241.45145 53.114045 
L 242.542775 58.487828 
L 243.997875 66.79793 
L 245.81675 78.465519 
L 254.547349 136.859544 
L 256.73 149.098513 
L 258.548873 158.233819 
L 260.731525 167.900919 
L 262.550397 174.941514 
L 264.369273 181.126084 
L 266.188147 186.532159 
L 268.007023 191.237153 
L 269.825897 195.309829 
L 271.644773 198.828867 
L 273.463648 201.859184 
L 275.282523 204.460403 
L 277.101396 206.686781 
L 278.920273 208.591377 
L 280.739145 210.213883 
L 282.921796 211.846414 
L 285.104446 213.189547 
L 287.650871 214.453148 
L 290.197296 215.45326 
L 293.107495 216.342241 
L 296.38147 217.091663 
L 300.019218 217.693724 
L 304.384517 218.189491 
L 309.841144 218.57966 
L 317.116641 218.865708 
L 328.029891 219.050481 
L 348.765062 219.137499 
L 412.061905 219.15152 
L 412.061905 219.15152 
" clip-path="url(#pc24504fd8d)" style="fill: none; stroke: #095400; stroke-width: 3.5; stroke-linecap: square"/>
   </g>
   <g id="line2d_49">
    <path d="M 48.650725 218.672677 
L 54.810238 218.671778 
L 60.969749 218.670449 
L 67.12926 218.668485 
L 73.288771 218.665586 
L 79.448285 218.661299 
L 85.607796 218.654969 
L 91.767306 218.645615 
L 97.926817 218.631796 
L 104.086329 218.61138 
L 110.245841 218.581215 
L 116.405353 218.536644 
L 122.564862 218.470789 
L 128.724374 218.373474 
L 134.883886 218.229661 
L 141.043397 218.017099 
L 147.202911 217.702859 
L 153.362421 217.238156 
L 159.521934 216.550648 
L 165.681445 215.532858 
L 171.840956 214.024775 
L 178.000466 211.787483 
L 184.159978 208.463113 
L 190.319489 203.514295 
L 196.479002 196.134966 
L 202.638514 185.131139 
L 208.798025 168.812101 
L 214.957538 145.107177 
L 221.117047 112.675562 
L 227.27656 74.755356 
L 233.43607 45.579741 
L 239.595581 46.050481 
L 245.755094 78.042739 
L 251.914605 120.358954 
L 258.074118 155.943247 
L 264.233628 180.692378 
L 270.393141 196.462957 
L 276.552653 206.051157 
L 282.712164 211.703723 
L 288.871675 214.961978 
L 295.031186 216.81013 
L 301.190698 217.847529 
L 307.350208 218.426373 
L 313.50972 218.74843 
L 319.669232 218.927432 
L 325.828744 219.026913 
L 331.988255 219.082215 
L 338.147767 219.112969 
L 344.307279 219.130078 
L 350.46679 219.139599 
L 356.626301 219.144898 
L 362.785812 219.147848 
L 368.945325 219.149491 
L 375.104835 219.150405 
L 381.264348 219.150914 
L 387.423859 219.151198 
L 393.583369 219.151356 
L 399.742882 219.151444 
L 405.902394 219.151493 
L 412.061905 219.15152 
" clip-path="url(#pc24504fd8d)" style="fill: none"/>
    <defs>
     <path id="mbe956dfb85" d="M -4 4 
L 4 4 
L 4 -4 
L -4 -4 
z
" style="stroke: #1b3b9d; stroke-linejoin: miter"/>
    </defs>
    <g clip-path="url(#pc24504fd8d)">
     <use xlink:href="#mbe956dfb85" x="48.650725" y="218.672677" style="fill-opacity: 0; stroke: #1b3b9d; stroke-linejoin: miter"/>
     <use xlink:href="#mbe956dfb85" x="54.810238" y="218.671778" style="fill-opacity: 0; stroke: #1b3b9d; stroke-linejoin: miter"/>
     <use xlink:href="#mbe956dfb85" x="60.969749" y="218.670449" style="fill-opacity: 0; stroke: #1b3b9d; stroke-linejoin: miter"/>
     <use xlink:href="#mbe956dfb85" x="67.12926" y="218.668485" style="fill-opacity: 0; stroke: #1b3b9d; stroke-linejoin: miter"/>
     <use xlink:href="#mbe956dfb85" x="73.288771" y="218.665586" style="fill-opacity: 0; stroke: #1b3b9d; stroke-linejoin: miter"/>
     <use xlink:href="#mbe956dfb85" x="79.448285" y="218.661299" style="fill-opacity: 0; stroke: #1b3b9d; stroke-linejoin: miter"/>
     <use xlink:href="#mbe956dfb85" x="85.607796" y="218.654969" style="fill-opacity: 0; stroke: #1b3b9d; stroke-linejoin: miter"/>
     <use xlink:href="#mbe956dfb85" x="91.767306" y="218.645615" style="fill-opacity: 0; stroke: #1b3b9d; stroke-linejoin: miter"/>
     <use xlink:href="#mbe956dfb85" x="97.926817" y="218.631796" style="fill-opacity: 0; stroke: #1b3b9d; stroke-linejoin: miter"/>
     <use xlink:href="#mbe956dfb85" x="104.086329" y="218.61138" style="fill-opacity: 0; stroke: #1b3b9d; stroke-linejoin: miter"/>
     <use xlink:href="#mbe956dfb85" x="110.245841" y="218.581215" style="fill-opacity: 0; stroke: #1b3b9d; stroke-linejoin: miter"/>
     <use xlink:href="#mbe956dfb85" x="116.405353" y="218.536644" style="fill-opacity: 0; stroke: #1b3b9d; stroke-linejoin: miter"/>
     <use xlink:href="#mbe956dfb85" x="122.564862" y="218.470789" style="fill-opacity: 0; stroke: #1b3b9d; stroke-linejoin: miter"/>
     <use xlink:href="#mbe956dfb85" x="128.724374" y="218.373474" style="fill-opacity: 0; stroke: #1b3b9d; stroke-linejoin: miter"/>
     <use xlink:href="#mbe956dfb85" x="134.883886" y="218.229661" style="fill-opacity: 0; stroke: #1b3b9d; stroke-linejoin: miter"/>
     <use xlink:href="#mbe956dfb85" x="141.043397" y="218.017099" style="fill-opacity: 0; stroke: #1b3b9d; stroke-linejoin: miter"/>
     <use xlink:href="#mbe956dfb85" x="147.202911" y="217.702859" style="fill-opacity: 0; stroke: #1b3b9d; stroke-linejoin: miter"/>
     <use xlink:href="#mbe956dfb85" x="153.362421" y="217.238156" style="fill-opacity: 0; stroke: #1b3b9d; stroke-linejoin: miter"/>
     <use xlink:href="#mbe956dfb85" x="159.521934" y="216.550648" style="fill-opacity: 0; stroke: #1b3b9d; stroke-linejoin: miter"/>
     <use xlink:href="#mbe956dfb85" x="165.681445" y="215.532858" style="fill-opacity: 0; stroke: #1b3b9d; stroke-linejoin: miter"/>
     <use xlink:href="#mbe956dfb85" x="171.840956" y="214.024775" style="fill-opacity: 0; stroke: #1b3b9d; stroke-linejoin: miter"/>
     <use xlink:href="#mbe956dfb85" x="178.000466" y="211.787483" style="fill-opacity: 0; stroke: #1b3b9d; stroke-linejoin: miter"/>
     <use xlink:href="#mbe956dfb85" x="184.159978" y="208.463113" style="fill-opacity: 0; stroke: #1b3b9d; stroke-linejoin: miter"/>
     <use xlink:href="#mbe956dfb85" x="190.319489" y="203.514295" style="fill-opacity: 0; stroke: #1b3b9d; stroke-linejoin: miter"/>
     <use xlink:href="#mbe956dfb85" x="196.479002" y="196.134966" style="fill-opacity: 0; stroke: #1b3b9d; stroke-linejoin: miter"/>
     <use xlink:href="#mbe956dfb85" x="202.638514" y="185.131139" style="fill-opacity: 0; stroke: #1b3b9d; stroke-linejoin: miter"/>
     <use xlink:href="#mbe956dfb85" x="208.798025" y="168.812101" style="fill-opacity: 0; stroke: #1b3b9d; stroke-linejoin: miter"/>
     <use xlink:href="#mbe956dfb85" x="214.957538" y="145.107177" style="fill-opacity: 0; stroke: #1b3b9d; stroke-linejoin: miter"/>
     <use xlink:href="#mbe956dfb85" x="221.117047" y="112.675562" style="fill-opacity: 0; stroke: #1b3b9d; stroke-linejoin: miter"/>
     <use xlink:href="#mbe956dfb85" x="227.27656" y="74.755356" style="fill-opacity: 0; stroke: #1b3b9d; stroke-linejoin: miter"/>
     <use xlink:href="#mbe956dfb85" x="233.43607" y="45.579741" style="fill-opacity: 0; stroke: #1b3b9d; stroke-linejoin: miter"/>
     <use xlink:href="#mbe956dfb85" x="239.595581" y="46.050481" style="fill-opacity: 0; stroke: #1b3b9d; stroke-linejoin: miter"/>
     <use xlink:href="#mbe956dfb85" x="245.755094" y="78.042739" style="fill-opacity: 0; stroke: #1b3b9d; stroke-linejoin: miter"/>
     <use xlink:href="#mbe956dfb85" x="251.914605" y="120.358954" style="fill-opacity: 0; stroke: #1b3b9d; stroke-linejoin: miter"/>
     <use xlink:href="#mbe956dfb85" x="258.074118" y="155.943247" style="fill-opacity: 0; stroke: #1b3b9d; stroke-linejoin: miter"/>
     <use xlink:href="#mbe956dfb85" x="264.233628" y="180.692378" style="fill-opacity: 0; stroke: #1b3b9d; stroke-linejoin: miter"/>
     <use xlink:href="#mbe956dfb85" x="270.393141" y="196.462957" style="fill-opacity: 0; stroke: #1b3b9d; stroke-linejoin: miter"/>
     <use xlink:href="#mbe956dfb85" x="276.552653" y="206.051157" style="fill-opacity: 0; stroke: #1b3b9d; stroke-linejoin: miter"/>
     <use xlink:href="#mbe956dfb85" x="282.712164" y="211.703723" style="fill-opacity: 0; stroke: #1b3b9d; stroke-linejoin: miter"/>
     <use xlink:href="#mbe956dfb85" x="288.871675" y="214.961978" style="fill-opacity: 0; stroke: #1b3b9d; stroke-linejoin: miter"/>
     <use xlink:href="#mbe956dfb85" x="295.031186" y="216.81013" style="fill-opacity: 0; stroke: #1b3b9d; stroke-linejoin: miter"/>
     <use xlink:href="#mbe956dfb85" x="301.190698" y="217.847529" style="fill-opacity: 0; stroke: #1b3b9d; stroke-linejoin: miter"/>
     <use xlink:href="#mbe956dfb85" x="307.350208" y="218.426373" style="fill-opacity: 0; stroke: #1b3b9d; stroke-linejoin: miter"/>
     <use xlink:href="#mbe956dfb85" x="313.50972" y="218.74843" style="fill-opacity: 0; stroke: #1b3b9d; stroke-linejoin: miter"/>
     <use xlink:href="#mbe956dfb85" x="319.669232" y="218.927432" style="fill-opacity: 0; stroke: #1b3b9d; stroke-linejoin: miter"/>
     <use xlink:href="#mbe956dfb85" x="325.828744" y="219.026913" style="fill-opacity: 0; stroke: #1b3b9d; stroke-linejoin: miter"/>
     <use xlink:href="#mbe956dfb85" x="331.988255" y="219.082215" style="fill-opacity: 0; stroke: #1b3b9d; stroke-linejoin: miter"/>
     <use xlink:href="#mbe956dfb85" x="338.147767" y="219.112969" style="fill-opacity: 0; stroke: #1b3b9d; stroke-linejoin: miter"/>
     <use xlink:href="#mbe956dfb85" x="344.307279" y="219.130078" style="fill-opacity: 0; stroke: #1b3b9d; stroke-linejoin: miter"/>
     <use xlink:href="#mbe956dfb85" x="350.46679" y="219.139599" style="fill-opacity: 0; stroke: #1b3b9d; stroke-linejoin: miter"/>
     <use xlink:href="#mbe956dfb85" x="356.626301" y="219.144898" style="fill-opacity: 0; stroke: #1b3b9d; stroke-linejoin: miter"/>
     <use xlink:href="#mbe956dfb85" x="362.785812" y="219.147848" style="fill-opacity: 0; stroke: #1b3b9d; stroke-linejoin: miter"/>
     <use xlink:href="#mbe956dfb85" x="368.945325" y="219.149491" style="fill-opacity: 0; stroke: #1b3b9d; stroke-linejoin: miter"/>
     <use xlink:href="#mbe956dfb85" x="375.104835" y="219.150405" style="fill-opacity: 0; stroke: #1b3b9d; stroke-linejoin: miter"/>
     <use xlink:href="#mbe956dfb85" x="381.264348" y="219.150914" style="fill-opacity: 0; stroke: #1b3b9d; stroke-linejoin: miter"/>
     <use xlink:href="#mbe956dfb85" x="387.423859" y="219.151198" style="fill-opacity: 0; stroke: #1b3b9d; stroke-linejoin: miter"/>
     <use xlink:href="#mbe956dfb85" x="393.583369" y="219.151356" style="fill-opacity: 0; stroke: #1b3b9d; stroke-linejoin: miter"/>
     <use xlink:href="#mbe956dfb85" x="399.742882" y="219.151444" style="fill-opacity: 0; stroke: #1b3b9d; stroke-linejoin: miter"/>
     <use xlink:href="#mbe956dfb85" x="405.902394" y="219.151493" style="fill-opacity: 0; stroke: #1b3b9d; stroke-linejoin: miter"/>
     <use xlink:href="#mbe956dfb85" x="412.061905" y="219.15152" style="fill-opacity: 0; stroke: #1b3b9d; stroke-linejoin: miter"/>
    </g>
   </g>
   <g id="line2d_50">
    <path d="M 70.530229 218.890027 
L 92.409762 218.784137 
L 105.208468 218.531443 
L 114.289295 218.57144 
L 121.332931 218.63953 
L 127.088001 218.626272 
L 136.168828 218.218378 
L 139.886708 218.250987 
L 146.220977 217.327021 
L 153.833377 217.309249 
L 159.962007 217.308851 
L 165.091998 216.312468 
L 172.135634 214.287069 
L 177.890704 210.801857 
L 184.510636 212.035884 
L 189.980044 204.830373 
L 196.44448 188.249616 
L 202.77875 174.41286 
L 208.851064 165.471901 
L 214.93324 172.16313 
L 221.119245 112.626736 
L 227.184871 122.540226 
L 233.378357 30.247839 
L 239.61352 41.54051 
L 245.812141 89.016529 
L 251.911971 106.059598 
L 258.034668 161.019686 
L 264.202365 175.112356 
L 270.387212 192.115107 
L 276.542263 205.452836 
L 282.695351 213.3226 
L 288.859755 214.229967 
L 295.034358 217.513127 
L 301.185679 217.759315 
L 307.357866 218.164397 
L 313.507997 218.764641 
L 319.671165 218.814648 
L 325.830288 219.041702 
L 331.986858 219.074282 
L 338.150202 219.09327 
L 344.308549 219.133535 
L 350.466074 219.1371 
L 356.626576 219.147748 
L 362.78723 219.148351 
L 368.945213 219.149309 
L 375.105122 219.150411 
L 381.264393 219.151059 
L 387.423845 219.151218 
L 393.583261 219.151355 
L 399.743085 219.151436 
L 405.902204 219.151506 
L 412.061243 219.151511 
" clip-path="url(#pc24504fd8d)" style="fill: none"/>
    <defs>
     <path id="m395eb58859" d="M 0 6 
C 1.591219 6 3.117479 5.367802 4.242641 4.242641 
C 5.367802 3.117479 6 1.591219 6 0 
C 6 -1.591219 5.367802 -3.117479 4.242641 -4.242641 
C 3.117479 -5.367802 1.591219 -6 0 -6 
C -1.591219 -6 -3.117479 -5.367802 -4.242641 -4.242641 
C -5.367802 -3.117479 -6 -1.591219 -6 0 
C -6 1.591219 -5.367802 3.117479 -4.242641 4.242641 
C -3.117479 5.367802 -1.591219 6 0 6 
z
" style="stroke: #000000"/>
    </defs>
    <g clip-path="url(#pc24504fd8d)">
     <use xlink:href="#m395eb58859" x="70.530229" y="218.890027" style="fill-opacity: 0; stroke: #000000"/>
     <use xlink:href="#m395eb58859" x="92.409762" y="218.784137" style="fill-opacity: 0; stroke: #000000"/>
     <use xlink:href="#m395eb58859" x="105.208468" y="218.531443" style="fill-opacity: 0; stroke: #000000"/>
     <use xlink:href="#m395eb58859" x="114.289295" y="218.57144" style="fill-opacity: 0; stroke: #000000"/>
     <use xlink:href="#m395eb58859" x="121.332931" y="218.63953" style="fill-opacity: 0; stroke: #000000"/>
     <use xlink:href="#m395eb58859" x="127.088001" y="218.626272" style="fill-opacity: 0; stroke: #000000"/>
     <use xlink:href="#m395eb58859" x="136.168828" y="218.218378" style="fill-opacity: 0; stroke: #000000"/>
     <use xlink:href="#m395eb58859" x="139.886708" y="218.250987" style="fill-opacity: 0; stroke: #000000"/>
     <use xlink:href="#m395eb58859" x="146.220977" y="217.327021" style="fill-opacity: 0; stroke: #000000"/>
     <use xlink:href="#m395eb58859" x="153.833377" y="217.309249" style="fill-opacity: 0; stroke: #000000"/>
     <use xlink:href="#m395eb58859" x="159.962007" y="217.308851" style="fill-opacity: 0; stroke: #000000"/>
     <use xlink:href="#m395eb58859" x="165.091998" y="216.312468" style="fill-opacity: 0; stroke: #000000"/>
     <use xlink:href="#m395eb58859" x="172.135634" y="214.287069" style="fill-opacity: 0; stroke: #000000"/>
     <use xlink:href="#m395eb58859" x="177.890704" y="210.801857" style="fill-opacity: 0; stroke: #000000"/>
     <use xlink:href="#m395eb58859" x="184.510636" y="212.035884" style="fill-opacity: 0; stroke: #000000"/>
     <use xlink:href="#m395eb58859" x="189.980044" y="204.830373" style="fill-opacity: 0; stroke: #000000"/>
     <use xlink:href="#m395eb58859" x="196.44448" y="188.249616" style="fill-opacity: 0; stroke: #000000"/>
     <use xlink:href="#m395eb58859" x="202.77875" y="174.41286" style="fill-opacity: 0; stroke: #000000"/>
     <use xlink:href="#m395eb58859" x="208.851064" y="165.471901" style="fill-opacity: 0; stroke: #000000"/>
     <use xlink:href="#m395eb58859" x="214.93324" y="172.16313" style="fill-opacity: 0; stroke: #000000"/>
     <use xlink:href="#m395eb58859" x="221.119245" y="112.626736" style="fill-opacity: 0; stroke: #000000"/>
     <use xlink:href="#m395eb58859" x="227.184871" y="122.540226" style="fill-opacity: 0; stroke: #000000"/>
     <use xlink:href="#m395eb58859" x="233.378357" y="30.247839" style="fill-opacity: 0; stroke: #000000"/>
     <use xlink:href="#m395eb58859" x="239.61352" y="41.54051" style="fill-opacity: 0; stroke: #000000"/>
     <use xlink:href="#m395eb58859" x="245.812141" y="89.016529" style="fill-opacity: 0; stroke: #000000"/>
     <use xlink:href="#m395eb58859" x="251.911971" y="106.059598" style="fill-opacity: 0; stroke: #000000"/>
     <use xlink:href="#m395eb58859" x="258.034668" y="161.019686" style="fill-opacity: 0; stroke: #000000"/>
     <use xlink:href="#m395eb58859" x="264.202365" y="175.112356" style="fill-opacity: 0; stroke: #000000"/>
     <use xlink:href="#m395eb58859" x="270.387212" y="192.115107" style="fill-opacity: 0; stroke: #000000"/>
     <use xlink:href="#m395eb58859" x="276.542263" y="205.452836" style="fill-opacity: 0; stroke: #000000"/>
     <use xlink:href="#m395eb58859" x="282.695351" y="213.3226" style="fill-opacity: 0; stroke: #000000"/>
     <use xlink:href="#m395eb58859" x="288.859755" y="214.229967" style="fill-opacity: 0; stroke: #000000"/>
     <use xlink:href="#m395eb58859" x="295.034358" y="217.513127" style="fill-opacity: 0; stroke: #000000"/>
     <use xlink:href="#m395eb58859" x="301.185679" y="217.759315" style="fill-opacity: 0; stroke: #000000"/>
     <use xlink:href="#m395eb58859" x="307.357866" y="218.164397" style="fill-opacity: 0; stroke: #000000"/>
     <use xlink:href="#m395eb58859" x="313.507997" y="218.764641" style="fill-opacity: 0; stroke: #000000"/>
     <use xlink:href="#m395eb58859" x="319.671165" y="218.814648" style="fill-opacity: 0; stroke: #000000"/>
     <use xlink:href="#m395eb58859" x="325.830288" y="219.041702" style="fill-opacity: 0; stroke: #000000"/>
     <use xlink:href="#m395eb58859" x="331.986858" y="219.074282" style="fill-opacity: 0; stroke: #000000"/>
     <use xlink:href="#m395eb58859" x="338.150202" y="219.09327" style="fill-opacity: 0; stroke: #000000"/>
     <use xlink:href="#m395eb58859" x="344.308549" y="219.133535" style="fill-opacity: 0; stroke: #000000"/>
     <use xlink:href="#m395eb58859" x="350.466074" y="219.1371" style="fill-opacity: 0; stroke: #000000"/>
     <use xlink:href="#m395eb58859" x="356.626576" y="219.147748" style="fill-opacity: 0; stroke: #000000"/>
     <use xlink:href="#m395eb58859" x="362.78723" y="219.148351" style="fill-opacity: 0; stroke: #000000"/>
     <use xlink:href="#m395eb58859" x="368.945213" y="219.149309" style="fill-opacity: 0; stroke: #000000"/>
     <use xlink:href="#m395eb58859" x="375.105122" y="219.150411" style="fill-opacity: 0; stroke: #000000"/>
     <use xlink:href="#m395eb58859" x="381.264393" y="219.151059" style="fill-opacity: 0; stroke: #000000"/>
     <use xlink:href="#m395eb58859" x="387.423845" y="219.151218" style="fill-opacity: 0; stroke: #000000"/>
     <use xlink:href="#m395eb58859" x="393.583261" y="219.151355" style="fill-opacity: 0; stroke: #000000"/>
     <use xlink:href="#m395eb58859" x="399.743085" y="219.151436" style="fill-opacity: 0; stroke: #000000"/>
     <use xlink:href="#m395eb58859" x="405.902204" y="219.151506" style="fill-opacity: 0; stroke: #000000"/>
     <use xlink:href="#m395eb58859" x="412.061243" y="219.151511" style="fill-opacity: 0; stroke: #000000"/>
    </g>
   </g>
   <g id="patch_3">
    <path d="M 48.650726 228.596704 
L 48.650726 20.802655 
" style="fill: none; stroke: #000000; stroke-width: 0.8; stroke-linejoin: miter; stroke-linecap: square"/>
   </g>
   <g id="patch_4">
    <path d="M 412.061905 228.596704 
L 412.061905 20.802655 
" style="fill: none; stroke: #000000; stroke-width: 0.8; stroke-linejoin: miter; stroke-linecap: square"/>
   </g>
   <g id="patch_5">
    <path d="M 48.650726 228.596704 
L 412.061905 228.596704 
" style="fill: none; stroke: #000000; stroke-width: 0.8; stroke-linejoin: miter; stroke-linecap: square"/>
   </g>
   <g id="patch_6">
    <path d="M 48.650726 20.802655 
L 412.061905 20.802655 
" style="fill: none; stroke: #000000; stroke-width: 0.8; stroke-linejoin: miter; stroke-linecap: square"/>
   </g>
   <g id="legend_1">
    <g id="patch_7">
     <path d="M 251.040224 135.554912 
L 399.461905 135.554912 
Q 403.061905 135.554912 403.061905 131.954912 
L 403.061905 33.402655 
Q 403.061905 29.802655 399.461905 29.802655 
L 251.040224 29.802655 
Q 247.440224 29.802655 247.440224 33.402655 
L 247.440224 131.954912 
Q 247.440224 135.554912 251.040224 135.554912 
z
" style="fill: #ffffff; opacity: 0.8; stroke: #cccccc; stroke-linejoin: miter"/>
    </g>
    <g id="line2d_51">
     <path d="M 254.640224 43.302655 
L 272.640224 43.302655 
L 290.640224 43.302655 
" style="fill: none; stroke: #ffa353; stroke-width: 12; stroke-linecap: square"/>
    </g>
    <g id="text_10">
     <!-- recursive -->
     <g transform="translate(305.040224 49.602655) scale(0.18 -0.18)">
      <defs>
       <path id="CMR17-76" d="M 2502 2173 
C 2560 2315 2662 2572 3034 2585 
L 3034 2752 
C 2912 2745 2752 2739 2630 2739 
C 2496 2739 2285 2739 2157 2752 
L 2157 2585 
C 2317 2572 2406 2495 2406 2328 
C 2406 2270 2406 2257 2368 2167 
L 1664 379 
L 902 2308 
C 864 2392 864 2405 864 2431 
C 864 2585 1075 2585 1171 2585 
L 1171 2752 
C 1018 2739 736 2739 576 2739 
C 403 2739 205 2739 64 2752 
L 64 2585 
C 307 2585 442 2585 518 2386 
L 1446 44 
C 1485 -52 1491 -64 1549 -64 
C 1606 -64 1613 -52 1651 44 
L 2502 2173 
z
" transform="scale(0.015625)"/>
      </defs>
      <use xlink:href="#CMR17-72" transform="scale(0.996264)"/>
      <use xlink:href="#CMR17-65" transform="translate(35.280768 0) scale(0.996264)"/>
      <use xlink:href="#CMR17-63" transform="translate(75.766428 0) scale(0.996264)"/>
      <use xlink:href="#CMR17-75" transform="translate(116.252089 0) scale(0.996264)"/>
      <use xlink:href="#CMR17-72" transform="translate(167.147459 0) scale(0.996264)"/>
      <use xlink:href="#CMR17-73" transform="translate(202.428226 0) scale(0.996264)"/>
      <use xlink:href="#CMR17-69" transform="translate(238.229564 0) scale(0.996264)"/>
      <use xlink:href="#CMR17-76" transform="translate(263.100622 0) scale(0.996264)"/>
      <use xlink:href="#CMR17-65" transform="translate(308.791084 0) scale(0.996264)"/>
     </g>
    </g>
    <g id="line2d_52">
     <path d="M 254.640224 68.39072 
L 272.640224 68.39072 
L 290.640224 68.39072 
" style="fill: none; stroke: #095400; stroke-width: 3.5; stroke-linecap: square"/>
    </g>
    <g id="text_11">
     <!-- element-wise -->
     <g transform="translate(305.040224 74.69072) scale(0.18 -0.18)">
      <defs>
       <path id="CMR17-6d" d="M 4326 1954 
C 4326 2276 4269 2816 3507 2816 
C 3072 2816 2771 2520 2656 2173 
L 2650 2173 
C 2573 2700 2195 2816 1837 2816 
C 1331 2816 1069 2424 973 2166 
L 966 2166 
L 966 2816 
L 211 2745 
L 211 2578 
C 589 2578 646 2540 646 2231 
L 646 443 
C 646 198 621 166 211 166 
L 211 0 
C 365 12 646 12 813 12 
C 979 12 1267 12 1421 0 
L 1421 166 
C 1011 166 986 192 986 443 
L 986 1678 
C 986 2269 1344 2713 1792 2713 
C 2266 2713 2317 2289 2317 1980 
L 2317 443 
C 2317 198 2291 166 1882 166 
L 1882 0 
C 2035 12 2317 12 2483 12 
C 2650 12 2938 12 3091 0 
L 3091 166 
C 2682 166 2656 192 2656 443 
L 2656 1678 
C 2656 2269 3014 2713 3462 2713 
C 3936 2713 3987 2289 3987 1980 
L 3987 443 
C 3987 198 3962 166 3552 166 
L 3552 0 
C 3706 12 3987 12 4154 12 
C 4320 12 4608 12 4762 0 
L 4762 166 
C 4352 166 4326 192 4326 443 
L 4326 1954 
z
" transform="scale(0.015625)"/>
       <path id="CMR17-2d" d="M 1632 1254 
L 1632 1536 
L 26 1536 
L 26 1254 
L 1632 1254 
z
" transform="scale(0.015625)"/>
      </defs>
      <use xlink:href="#CMR17-65" transform="scale(0.996264)"/>
      <use xlink:href="#CMR17-6c" transform="translate(40.48566 0) scale(0.996264)"/>
      <use xlink:href="#CMR17-65" transform="translate(65.356719 0) scale(0.996264)"/>
      <use xlink:href="#CMR17-6d" transform="translate(105.842379 0) scale(0.996264)"/>
      <use xlink:href="#CMR17-65" transform="translate(182.761969 0) scale(0.996264)"/>
      <use xlink:href="#CMR17-6e" transform="translate(223.24763 0) scale(0.996264)"/>
      <use xlink:href="#CMR17-74" transform="translate(271.540546 0) scale(0.996264)"/>
      <use xlink:href="#CMR17-2d" transform="translate(306.821313 0) scale(0.996264)"/>
      <use xlink:href="#CMR17-77" transform="translate(336.89728 0) scale(0.996264)"/>
      <use xlink:href="#CMR17-69" transform="translate(403.40716 0) scale(0.996264)"/>
      <use xlink:href="#CMR17-73" transform="translate(428.278219 0) scale(0.996264)"/>
      <use xlink:href="#CMR17-65" transform="translate(464.079556 0) scale(0.996264)"/>
     </g>
    </g>
    <g id="line2d_53">
     <path d="M 254.640224 93.478784 
L 272.640224 93.478784 
L 290.640224 93.478784 
" style="fill: none"/>
     <g>
      <use xlink:href="#mbe956dfb85" x="272.640224" y="93.478784" style="fill-opacity: 0; stroke: #1b3b9d; stroke-linejoin: miter"/>
     </g>
    </g>
    <g id="text_12">
     <!-- matrix -->
     <g transform="translate(305.040224 99.778784) scale(0.18 -0.18)">
      <defs>
       <path id="CMR17-78" d="M 1664 1491 
C 1856 1740 2074 2022 2253 2233 
C 2464 2476 2707 2579 2989 2585 
L 2989 2752 
C 2880 2745 2656 2739 2541 2739 
C 2368 2739 2170 2739 2022 2752 
L 2022 2585 
C 2112 2572 2163 2508 2163 2419 
C 2163 2304 2099 2233 2067 2188 
L 1594 1587 
L 1030 2323 
C 973 2393 973 2406 973 2438 
C 973 2515 1037 2579 1146 2585 
L 1146 2752 
C 992 2739 717 2739 557 2739 
C 384 2739 179 2739 38 2752 
L 38 2585 
C 384 2585 461 2560 614 2368 
L 1350 1414 
C 1363 1401 1395 1363 1395 1344 
C 1395 1318 838 633 768 544 
C 480 198 179 172 6 166 
L 6 0 
C 115 6 339 12 454 12 
C 582 12 864 12 979 0 
L 979 166 
C 941 172 838 185 838 332 
C 838 448 890 518 947 595 
L 1478 1248 
L 2035 524 
C 2086 454 2163 358 2163 313 
C 2163 224 2086 172 1984 166 
L 1984 0 
C 2138 12 2413 12 2573 12 
C 2746 12 2950 12 3091 0 
L 3091 166 
C 2771 166 2675 179 2522 377 
L 1664 1491 
z
" transform="scale(0.015625)"/>
      </defs>
      <use xlink:href="#CMR17-6d" transform="scale(0.996264)"/>
      <use xlink:href="#CMR17-61" transform="translate(76.91959 0) scale(0.996264)"/>
      <use xlink:href="#CMR17-74" transform="translate(122.610067 0) scale(0.996264)"/>
      <use xlink:href="#CMR17-72" transform="translate(157.890835 0) scale(0.996264)"/>
      <use xlink:href="#CMR17-69" transform="translate(193.171603 0) scale(0.996264)"/>
      <use xlink:href="#CMR17-78" transform="translate(218.042661 0) scale(0.996264)"/>
     </g>
    </g>
    <g id="line2d_54">
     <path d="M 254.640224 118.566848 
L 272.640224 118.566848 
L 290.640224 118.566848 
" style="fill: none"/>
     <g>
      <use xlink:href="#m395eb58859" x="272.640224" y="118.566848" style="fill-opacity: 0; stroke: #000000"/>
     </g>
    </g>
    <g id="text_13">
     <!-- simulation -->
     <g transform="translate(305.040224 124.866848) scale(0.18 -0.18)">
      <use xlink:href="#CMR17-73" transform="scale(0.996264)"/>
      <use xlink:href="#CMR17-69" transform="translate(35.801338 0) scale(0.996264)"/>
      <use xlink:href="#CMR17-6d" transform="translate(60.672396 0) scale(0.996264)"/>
      <use xlink:href="#CMR17-75" transform="translate(134.989532 0) scale(0.996264)"/>
      <use xlink:href="#CMR17-6c" transform="translate(185.884902 0) scale(0.996264)"/>
      <use xlink:href="#CMR17-61" transform="translate(210.75596 0) scale(0.996264)"/>
      <use xlink:href="#CMR17-74" transform="translate(256.446437 0) scale(0.996264)"/>
      <use xlink:href="#CMR17-69" transform="translate(291.727205 0) scale(0.996264)"/>
      <use xlink:href="#CMR17-6f" transform="translate(316.598264 0) scale(0.996264)"/>
      <use xlink:href="#CMR17-6e" transform="translate(362.288741 0) scale(0.996264)"/>
     </g>
    </g>
   </g>
  </g>
 </g>
 <defs>
  <clipPath id="pc24504fd8d">
   <rect x="48.650726" y="20.802655" width="363.411179" height="207.794048"/>
  </clipPath>
 </defs>
</svg>
