<?xml version="1.0" encoding="utf-8" standalone="no"?>
<!DOCTYPE svg PUBLIC "-//W3C//DTD SVG 1.1//EN"
  "http://www.w3.org/Graphics/SVG/1.1/DTD/svg11.dtd">
<svg xmlns:xlink="http://www.w3.org/1999/xlink" width="432pt" height="288pt" viewBox="0 0 432 288" xmlns="http://www.w3.org/2000/svg" version="1.1">
 <metadata>
  <rdf:RDF xmlns:dc="http://purl.org/dc/elements/1.1/" xmlns:cc="http://creativecommons.org/ns#" xmlns:rdf="http://www.w3.org/1999/02/22-rdf-syntax-ns#">
   <cc:Work>
    <dc:type rdf:resource="http://purl.org/dc/dcmitype/StillImage"/>
    <dc:date>2024-05-08T18:16:45.500235</dc:date>
    <dc:format>image/svg+xml</dc:format>
    <dc:creator>
     <cc:Agent>
      <dc:title>Matplotlib v3.7.1, https://matplotlib.org/</dc:title>
     </cc:Agent>
    </dc:creator>
   </cc:Work>
  </rdf:RDF>
 </metadata>
 <defs>
  <style type="text/css">*{stroke-linejoin: round; stroke-linecap: butt}</style>
 </defs>
 <g id="figure_1">
  <g id="patch_1">
   <path d="M 0 288 
L 432 288 
L 432 0 
L 0 0 
L 0 288 
z
" style="fill: none"/>
  </g>
  <g id="axes_1">
   <g id="patch_2">
    <path d="M 63.208257 228.596704 
L 412.061905 228.596704 
L 412.061905 10.8 
L 63.208257 10.8 
z
" style="fill: #ffffff"/>
   </g>
   <g id="matplotlib.axis_1">
    <g id="xtick_1">
     <g id="line2d_1">
      <defs>
       <path id="m8db4dd1a3b" d="M 0 0 
L 0 3.5 
" style="stroke: #000000; stroke-width: 0.8"/>
      </defs>
      <g>
       <use xlink:href="#m8db4dd1a3b" x="63.208257" y="228.596704" style="stroke: #000000; stroke-width: 0.8"/>
      </g>
     </g>
     <g id="text_1">
      <!-- 0.001 -->
      <g transform="translate(42.444963 249.433701) scale(0.2 -0.2)">
       <defs>
        <path id="CMR17-30" d="M 2688 2038 
C 2688 2430 2682 3099 2413 3613 
C 2176 4063 1798 4224 1466 4224 
C 1158 4224 768 4082 525 3620 
C 269 3137 243 2539 243 2038 
C 243 1671 250 1112 448 623 
C 723 -39 1216 -128 1466 -128 
C 1760 -128 2208 -7 2470 604 
C 2662 1048 2688 1568 2688 2038 
z
M 1466 -26 
C 1056 -26 813 328 723 816 
C 653 1196 653 1749 653 2109 
C 653 2604 653 3015 736 3407 
C 858 3954 1216 4121 1466 4121 
C 1728 4121 2067 3947 2189 3420 
C 2272 3054 2278 2623 2278 2109 
C 2278 1691 2278 1176 2202 797 
C 2067 96 1690 -26 1466 -26 
z
" transform="scale(0.015625)"/>
        <path id="CMR17-2e" d="M 1062 262 
C 1062 422 934 524 800 524 
C 672 524 538 422 538 262 
C 538 102 666 0 800 0 
C 928 0 1062 102 1062 262 
z
" transform="scale(0.015625)"/>
        <path id="CMR17-31" d="M 1702 4083 
C 1702 4217 1696 4224 1606 4224 
C 1357 3927 979 3833 621 3820 
C 602 3820 570 3820 563 3808 
C 557 3795 557 3782 557 3648 
C 755 3648 1088 3686 1344 3839 
L 1344 467 
C 1344 243 1331 166 781 166 
L 589 166 
L 589 0 
C 896 6 1216 12 1523 12 
C 1830 12 2150 6 2458 0 
L 2458 166 
L 2266 166 
C 1715 166 1702 236 1702 467 
L 1702 4083 
z
" transform="scale(0.015625)"/>
       </defs>
       <use xlink:href="#CMR17-30" transform="scale(0.996264)"/>
       <use xlink:href="#CMR17-2e" transform="translate(45.690477 0) scale(0.996264)"/>
       <use xlink:href="#CMR17-30" transform="translate(70.561536 0) scale(0.996264)"/>
       <use xlink:href="#CMR17-30" transform="translate(116.252013 0) scale(0.996264)"/>
       <use xlink:href="#CMR17-31" transform="translate(161.94249 0) scale(0.996264)"/>
      </g>
     </g>
    </g>
    <g id="xtick_2">
     <g id="line2d_2">
      <g>
       <use xlink:href="#m8db4dd1a3b" x="237.635081" y="228.596704" style="stroke: #000000; stroke-width: 0.8"/>
      </g>
     </g>
     <g id="text_2">
      <!-- 0.1 -->
      <g transform="translate(226.009882 249.433701) scale(0.2 -0.2)">
       <use xlink:href="#CMR17-30" transform="scale(0.996264)"/>
       <use xlink:href="#CMR17-2e" transform="translate(45.690477 0) scale(0.996264)"/>
       <use xlink:href="#CMR17-31" transform="translate(70.561536 0) scale(0.996264)"/>
      </g>
     </g>
    </g>
    <g id="xtick_3">
     <g id="line2d_3">
      <g>
       <use xlink:href="#m8db4dd1a3b" x="412.061905" y="228.596704" style="stroke: #000000; stroke-width: 0.8"/>
      </g>
     </g>
     <g id="text_3">
      <!-- 10 -->
      <g transform="translate(402.923809 249.433701) scale(0.2 -0.2)">
       <use xlink:href="#CMR17-31" transform="scale(0.996264)"/>
       <use xlink:href="#CMR17-30" transform="translate(45.690477 0) scale(0.996264)"/>
      </g>
     </g>
    </g>
    <g id="xtick_4">
     <g id="line2d_4">
      <defs>
       <path id="mf86ff6fdb1" d="M 0 0 
L 0 2 
" style="stroke: #000000; stroke-width: 0.6"/>
      </defs>
      <g>
       <use xlink:href="#mf86ff6fdb1" x="89.46211" y="228.596704" style="stroke: #000000; stroke-width: 0.6"/>
      </g>
     </g>
    </g>
    <g id="xtick_5">
     <g id="line2d_5">
      <g>
       <use xlink:href="#mf86ff6fdb1" x="104.819629" y="228.596704" style="stroke: #000000; stroke-width: 0.6"/>
      </g>
     </g>
    </g>
    <g id="xtick_6">
     <g id="line2d_6">
      <g>
       <use xlink:href="#mf86ff6fdb1" x="115.715963" y="228.596704" style="stroke: #000000; stroke-width: 0.6"/>
      </g>
     </g>
    </g>
    <g id="xtick_7">
     <g id="line2d_7">
      <g>
       <use xlink:href="#mf86ff6fdb1" x="124.167816" y="228.596704" style="stroke: #000000; stroke-width: 0.6"/>
      </g>
     </g>
    </g>
    <g id="xtick_8">
     <g id="line2d_8">
      <g>
       <use xlink:href="#mf86ff6fdb1" x="131.073482" y="228.596704" style="stroke: #000000; stroke-width: 0.6"/>
      </g>
     </g>
    </g>
    <g id="xtick_9">
     <g id="line2d_9">
      <g>
       <use xlink:href="#mf86ff6fdb1" x="136.91214" y="228.596704" style="stroke: #000000; stroke-width: 0.6"/>
      </g>
     </g>
    </g>
    <g id="xtick_10">
     <g id="line2d_10">
      <g>
       <use xlink:href="#mf86ff6fdb1" x="141.969816" y="228.596704" style="stroke: #000000; stroke-width: 0.6"/>
      </g>
     </g>
    </g>
    <g id="xtick_11">
     <g id="line2d_11">
      <g>
       <use xlink:href="#mf86ff6fdb1" x="146.431002" y="228.596704" style="stroke: #000000; stroke-width: 0.6"/>
      </g>
     </g>
    </g>
    <g id="xtick_12">
     <g id="line2d_12">
      <g>
       <use xlink:href="#mf86ff6fdb1" x="176.675522" y="228.596704" style="stroke: #000000; stroke-width: 0.6"/>
      </g>
     </g>
    </g>
    <g id="xtick_13">
     <g id="line2d_13">
      <g>
       <use xlink:href="#mf86ff6fdb1" x="192.033041" y="228.596704" style="stroke: #000000; stroke-width: 0.6"/>
      </g>
     </g>
    </g>
    <g id="xtick_14">
     <g id="line2d_14">
      <g>
       <use xlink:href="#mf86ff6fdb1" x="202.929375" y="228.596704" style="stroke: #000000; stroke-width: 0.6"/>
      </g>
     </g>
    </g>
    <g id="xtick_15">
     <g id="line2d_15">
      <g>
       <use xlink:href="#mf86ff6fdb1" x="211.381228" y="228.596704" style="stroke: #000000; stroke-width: 0.6"/>
      </g>
     </g>
    </g>
    <g id="xtick_16">
     <g id="line2d_16">
      <g>
       <use xlink:href="#mf86ff6fdb1" x="218.286894" y="228.596704" style="stroke: #000000; stroke-width: 0.6"/>
      </g>
     </g>
    </g>
    <g id="xtick_17">
     <g id="line2d_17">
      <g>
       <use xlink:href="#mf86ff6fdb1" x="224.125552" y="228.596704" style="stroke: #000000; stroke-width: 0.6"/>
      </g>
     </g>
    </g>
    <g id="xtick_18">
     <g id="line2d_18">
      <g>
       <use xlink:href="#mf86ff6fdb1" x="229.183228" y="228.596704" style="stroke: #000000; stroke-width: 0.6"/>
      </g>
     </g>
    </g>
    <g id="xtick_19">
     <g id="line2d_19">
      <g>
       <use xlink:href="#mf86ff6fdb1" x="233.644414" y="228.596704" style="stroke: #000000; stroke-width: 0.6"/>
      </g>
     </g>
    </g>
    <g id="xtick_20">
     <g id="line2d_20">
      <g>
       <use xlink:href="#mf86ff6fdb1" x="263.888934" y="228.596704" style="stroke: #000000; stroke-width: 0.6"/>
      </g>
     </g>
    </g>
    <g id="xtick_21">
     <g id="line2d_21">
      <g>
       <use xlink:href="#mf86ff6fdb1" x="279.246453" y="228.596704" style="stroke: #000000; stroke-width: 0.6"/>
      </g>
     </g>
    </g>
    <g id="xtick_22">
     <g id="line2d_22">
      <g>
       <use xlink:href="#mf86ff6fdb1" x="290.142787" y="228.596704" style="stroke: #000000; stroke-width: 0.6"/>
      </g>
     </g>
    </g>
    <g id="xtick_23">
     <g id="line2d_23">
      <g>
       <use xlink:href="#mf86ff6fdb1" x="298.59464" y="228.596704" style="stroke: #000000; stroke-width: 0.6"/>
      </g>
     </g>
    </g>
    <g id="xtick_24">
     <g id="line2d_24">
      <g>
       <use xlink:href="#mf86ff6fdb1" x="305.500306" y="228.596704" style="stroke: #000000; stroke-width: 0.6"/>
      </g>
     </g>
    </g>
    <g id="xtick_25">
     <g id="line2d_25">
      <g>
       <use xlink:href="#mf86ff6fdb1" x="311.338964" y="228.596704" style="stroke: #000000; stroke-width: 0.6"/>
      </g>
     </g>
    </g>
    <g id="xtick_26">
     <g id="line2d_26">
      <g>
       <use xlink:href="#mf86ff6fdb1" x="316.39664" y="228.596704" style="stroke: #000000; stroke-width: 0.6"/>
      </g>
     </g>
    </g>
    <g id="xtick_27">
     <g id="line2d_27">
      <g>
       <use xlink:href="#mf86ff6fdb1" x="320.857826" y="228.596704" style="stroke: #000000; stroke-width: 0.6"/>
      </g>
     </g>
    </g>
    <g id="xtick_28">
     <g id="line2d_28">
      <g>
       <use xlink:href="#mf86ff6fdb1" x="351.102346" y="228.596704" style="stroke: #000000; stroke-width: 0.6"/>
      </g>
     </g>
    </g>
    <g id="xtick_29">
     <g id="line2d_29">
      <g>
       <use xlink:href="#mf86ff6fdb1" x="366.459865" y="228.596704" style="stroke: #000000; stroke-width: 0.6"/>
      </g>
     </g>
    </g>
    <g id="xtick_30">
     <g id="line2d_30">
      <g>
       <use xlink:href="#mf86ff6fdb1" x="377.356199" y="228.596704" style="stroke: #000000; stroke-width: 0.6"/>
      </g>
     </g>
    </g>
    <g id="xtick_31">
     <g id="line2d_31">
      <g>
       <use xlink:href="#mf86ff6fdb1" x="385.808052" y="228.596704" style="stroke: #000000; stroke-width: 0.6"/>
      </g>
     </g>
    </g>
    <g id="xtick_32">
     <g id="line2d_32">
      <g>
       <use xlink:href="#mf86ff6fdb1" x="392.713718" y="228.596704" style="stroke: #000000; stroke-width: 0.6"/>
      </g>
     </g>
    </g>
    <g id="xtick_33">
     <g id="line2d_33">
      <g>
       <use xlink:href="#mf86ff6fdb1" x="398.552376" y="228.596704" style="stroke: #000000; stroke-width: 0.6"/>
      </g>
     </g>
    </g>
    <g id="xtick_34">
     <g id="line2d_34">
      <g>
       <use xlink:href="#mf86ff6fdb1" x="403.610052" y="228.596704" style="stroke: #000000; stroke-width: 0.6"/>
      </g>
     </g>
    </g>
    <g id="xtick_35">
     <g id="line2d_35">
      <g>
       <use xlink:href="#mf86ff6fdb1" x="408.071238" y="228.596704" style="stroke: #000000; stroke-width: 0.6"/>
      </g>
     </g>
    </g>
    <g id="text_4">
     <!-- Frequency (Hz) -->
     <g transform="translate(175.886474 272.235356) scale(0.2 -0.2)">
      <defs>
       <path id="CMR17-46" d="M 3482 4339 
L 326 4339 
L 326 4172 
C 768 4172 838 4172 838 3883 
L 838 450 
C 838 166 768 166 326 166 
L 326 0 
C 512 12 870 12 1069 12 
C 1331 12 1638 12 1901 0 
L 1901 166 
L 1760 166 
C 1274 166 1261 229 1261 456 
L 1261 2073 
L 1837 2073 
C 2432 2073 2490 1865 2490 1334 
L 2605 1334 
L 2605 2991 
L 2490 2991 
C 2490 2451 2432 2240 1837 2240 
L 1261 2240 
L 1261 3922 
C 1261 4140 1274 4172 1530 4172 
L 2355 4172 
C 3322 4172 3430 3774 3520 2920 
L 3635 2920 
L 3482 4339 
z
" transform="scale(0.015625)"/>
       <path id="CMR17-72" d="M 960 1517 
C 960 2134 1222 2713 1702 2713 
C 1747 2713 1792 2707 1837 2687 
C 1837 2687 1696 2642 1696 2475 
C 1696 2321 1818 2257 1914 2257 
C 1990 2257 2131 2302 2131 2482 
C 2131 2687 1926 2816 1709 2816 
C 1222 2816 1011 2340 947 2115 
L 941 2115 
L 941 2816 
L 198 2745 
L 198 2578 
C 576 2578 634 2540 634 2231 
L 634 443 
C 634 198 608 166 198 166 
L 198 0 
C 352 12 646 12 813 12 
C 998 12 1325 12 1498 0 
L 1498 166 
C 1037 166 960 166 960 455 
L 960 1517 
z
" transform="scale(0.015625)"/>
       <path id="CMR17-65" d="M 2438 1503 
C 2464 1529 2464 1542 2464 1606 
C 2464 2251 2118 2816 1389 2816 
C 710 2816 173 2175 173 1394 
C 173 554 781 -64 1459 -64 
C 2176 -64 2458 619 2458 755 
C 2458 800 2419 800 2406 800 
C 2362 800 2355 787 2330 709 
C 2189 270 1837 51 1504 51 
C 1229 51 954 206 781 490 
C 582 819 582 1200 582 1503 
L 2438 1503 
z
M 589 1600 
C 634 2511 1126 2713 1382 2713 
C 1818 2713 2112 2308 2118 1600 
L 589 1600 
z
" transform="scale(0.015625)"/>
       <path id="CMR17-71" d="M 2630 2816 
L 2528 2816 
L 2336 2177 
C 2189 2519 1920 2816 1491 2816 
C 838 2816 211 2228 211 1376 
C 211 529 800 -64 1440 -64 
C 1933 -64 2208 316 2291 458 
L 2291 -834 
C 2291 -1081 2266 -1114 1856 -1114 
L 1856 -1280 
C 2010 -1268 2291 -1268 2458 -1268 
C 2624 -1268 2912 -1268 3066 -1280 
L 3066 -1114 
C 2656 -1114 2630 -1088 2630 -834 
L 2630 2816 
z
M 2304 871 
C 2304 594 2074 335 2054 316 
C 1856 90 1626 38 1472 38 
C 992 38 621 652 621 1369 
C 621 2125 1043 2700 1536 2700 
C 2048 2700 2304 2112 2304 1776 
L 2304 871 
z
" transform="scale(0.015625)"/>
       <path id="CMR17-75" d="M 1882 2745 
L 1882 2579 
C 2259 2579 2317 2540 2317 2229 
L 2317 1053 
C 2317 510 2029 38 1555 38 
C 1030 38 986 355 986 691 
L 986 2816 
L 211 2745 
L 211 2579 
C 467 2579 640 2579 646 2320 
L 646 1079 
C 646 646 646 368 813 187 
C 896 103 1056 -64 1517 -64 
C 2061 -64 2272 400 2323 536 
L 2330 536 
L 2330 -64 
L 3091 -13 
L 3091 154 
C 2714 154 2656 193 2656 503 
L 2656 2816 
L 1882 2745 
z
" transform="scale(0.015625)"/>
       <path id="CMR17-6e" d="M 2656 1954 
C 2656 2282 2592 2816 1837 2816 
C 1331 2816 1069 2424 973 2166 
L 966 2166 
L 966 2816 
L 211 2745 
L 211 2578 
C 589 2578 646 2540 646 2231 
L 646 443 
C 646 198 621 166 211 166 
L 211 0 
C 365 12 646 12 813 12 
C 979 12 1267 12 1421 0 
L 1421 166 
C 1011 166 986 192 986 443 
L 986 1678 
C 986 2269 1344 2713 1792 2713 
C 2266 2713 2317 2289 2317 1980 
L 2317 443 
C 2317 198 2291 166 1882 166 
L 1882 0 
C 2035 12 2317 12 2483 12 
C 2650 12 2938 12 3091 0 
L 3091 166 
C 2682 166 2656 192 2656 443 
L 2656 1954 
z
" transform="scale(0.015625)"/>
       <path id="CMR17-63" d="M 2234 2240 
C 2112 2240 1933 2240 1933 2015 
C 1933 1836 2080 1785 2163 1785 
C 2208 1785 2394 1804 2394 2028 
C 2394 2476 1958 2816 1466 2816 
C 787 2816 211 2201 211 1379 
C 211 521 813 -64 1466 -64 
C 2259 -64 2458 676 2458 747 
C 2458 773 2451 792 2406 792 
C 2362 792 2355 786 2330 702 
C 2163 180 1798 51 1523 51 
C 1114 51 621 431 621 1385 
C 621 2358 1094 2700 1472 2700 
C 1722 2700 2093 2582 2234 2240 
z
" transform="scale(0.015625)"/>
       <path id="CMR17-79" d="M 2496 2183 
C 2656 2579 2944 2585 3034 2585 
L 3034 2752 
C 2912 2745 2752 2739 2630 2739 
C 2496 2739 2285 2739 2157 2752 
L 2157 2585 
C 2400 2566 2406 2384 2406 2332 
C 2406 2268 2394 2235 2362 2158 
L 1664 409 
L 902 2300 
C 870 2378 870 2423 870 2430 
C 870 2572 1018 2585 1171 2585 
L 1171 2752 
C 1018 2739 742 2739 582 2739 
C 410 2739 205 2739 64 2752 
L 64 2585 
C 410 2585 448 2553 531 2345 
L 1485 -31 
C 1197 -795 1030 -1242 627 -1242 
C 557 -1242 397 -1223 282 -1106 
C 429 -1093 493 -1002 493 -892 
C 493 -782 416 -685 288 -685 
C 147 -685 77 -782 77 -899 
C 77 -1158 339 -1344 627 -1344 
C 998 -1344 1229 -983 1357 -659 
L 2496 2183 
z
" transform="scale(0.015625)"/>
       <path id="CMR17-28" d="M 1958 -1562 
C 1958 -1556 1958 -1543 1939 -1524 
C 1645 -1223 858 -403 858 1596 
C 858 3595 1632 4408 1946 4729 
C 1946 4735 1958 4748 1958 4767 
C 1958 4787 1939 4800 1914 4800 
C 1843 4800 1299 4325 986 3620 
C 666 2909 576 2218 576 1603 
C 576 1141 621 360 1005 -467 
C 1312 -1133 1837 -1600 1914 -1600 
C 1946 -1600 1958 -1588 1958 -1562 
z
" transform="scale(0.015625)"/>
       <path id="CMR17-48" d="M 3590 3898 
C 3590 4185 3661 4185 4102 4185 
L 4102 4352 
C 3917 4339 3578 4339 3379 4339 
C 3181 4339 2842 4339 2656 4352 
L 2656 4185 
C 3098 4185 3168 4185 3168 3898 
L 3168 2342 
L 1261 2342 
L 1261 3898 
C 1261 4185 1331 4185 1773 4185 
L 1773 4352 
C 1587 4339 1248 4339 1050 4339 
C 851 4339 512 4339 326 4352 
L 326 4185 
C 768 4185 838 4185 838 3898 
L 838 452 
C 838 166 768 166 326 166 
L 326 0 
C 512 12 851 12 1050 12 
C 1248 12 1587 12 1773 0 
L 1773 166 
C 1331 166 1261 166 1261 452 
L 1261 2176 
L 3168 2176 
L 3168 452 
C 3168 166 3098 166 2656 166 
L 2656 0 
C 2842 12 3181 12 3379 12 
C 3578 12 3917 12 4102 0 
L 4102 166 
C 3661 166 3590 166 3590 452 
L 3590 3898 
z
" transform="scale(0.015625)"/>
       <path id="CMR17-7a" d="M 2310 2604 
C 2362 2668 2362 2681 2362 2694 
C 2362 2752 2336 2752 2221 2752 
L 275 2752 
L 211 1760 
L 326 1760 
C 371 2380 442 2649 1178 2649 
L 1958 2649 
L 128 96 
C 128 6 134 0 269 0 
L 2291 0 
L 2381 1152 
L 2266 1152 
C 2214 441 2131 115 1350 115 
L 531 115 
L 2310 2604 
z
" transform="scale(0.015625)"/>
       <path id="CMR17-29" d="M 1683 1596 
C 1683 2057 1638 2839 1254 3665 
C 947 4332 422 4800 346 4800 
C 326 4800 301 4793 301 4761 
C 301 4748 307 4742 314 4729 
C 621 4408 1402 3595 1402 1603 
C 1402 -396 627 -1210 314 -1530 
C 307 -1543 301 -1549 301 -1562 
C 301 -1594 326 -1600 346 -1600 
C 416 -1600 960 -1127 1274 -422 
C 1594 289 1683 981 1683 1596 
z
" transform="scale(0.015625)"/>
      </defs>
      <use xlink:href="#CMR17-46" transform="scale(0.996264)"/>
      <use xlink:href="#CMR17-72" transform="translate(52.176591 0) scale(0.996264)"/>
      <use xlink:href="#CMR17-65" transform="translate(87.457359 0) scale(0.996264)"/>
      <use xlink:href="#CMR17-71" transform="translate(127.943019 0) scale(0.996264)"/>
      <use xlink:href="#CMR17-75" transform="translate(176.235935 0) scale(0.996264)"/>
      <use xlink:href="#CMR17-65" transform="translate(227.131305 0) scale(0.996264)"/>
      <use xlink:href="#CMR17-6e" transform="translate(267.616966 0) scale(0.996264)"/>
      <use xlink:href="#CMR17-63" transform="translate(318.512335 0) scale(0.996264)"/>
      <use xlink:href="#CMR17-79" transform="translate(358.997996 0) scale(0.996264)"/>
      <use xlink:href="#CMR17-28" transform="translate(437.366878 0) scale(0.996264)"/>
      <use xlink:href="#CMR17-48" transform="translate(472.647646 0) scale(0.996264)"/>
      <use xlink:href="#CMR17-7a" transform="translate(541.720076 0) scale(0.996264)"/>
      <use xlink:href="#CMR17-29" transform="translate(582.205736 0) scale(0.996264)"/>
     </g>
    </g>
   </g>
   <g id="matplotlib.axis_2">
    <g id="ytick_1">
     <g id="line2d_36">
      <defs>
       <path id="m5f25d751c2" d="M 0 0 
L -3.5 0 
" style="stroke: #000000; stroke-width: 0.8"/>
      </defs>
      <g>
       <use xlink:href="#m5f25d751c2" x="63.208257" y="228.596704" style="stroke: #000000; stroke-width: 0.8"/>
      </g>
     </g>
     <g id="text_5">
      <!-- $\mathdefault{0.0}$ -->
      <g transform="translate(32.51263 235.515202) scale(0.2 -0.2)">
       <defs>
        <path id="CMMI12-3a" d="M 1178 307 
C 1178 492 1024 620 870 620 
C 685 620 557 467 557 313 
C 557 128 710 0 864 0 
C 1050 0 1178 153 1178 307 
z
" transform="scale(0.015625)"/>
       </defs>
       <use xlink:href="#CMR17-30" transform="scale(0.996264)"/>
       <use xlink:href="#CMMI12-3a" transform="translate(45.690477 0) scale(0.996264)"/>
       <use xlink:href="#CMR17-30" transform="translate(72.787654 0) scale(0.996264)"/>
      </g>
     </g>
    </g>
    <g id="ytick_2">
     <g id="line2d_37">
      <g>
       <use xlink:href="#m5f25d751c2" x="63.208257" y="187.111617" style="stroke: #000000; stroke-width: 0.8"/>
      </g>
     </g>
     <g id="text_6">
      <!-- $\mathdefault{0.2}$ -->
      <g transform="translate(32.51263 194.030116) scale(0.2 -0.2)">
       <defs>
        <path id="CMR17-32" d="M 2669 990 
L 2554 990 
C 2490 537 2438 460 2413 422 
C 2381 371 1920 371 1830 371 
L 602 371 
C 832 620 1280 1073 1824 1596 
C 2214 1966 2669 2400 2669 3033 
C 2669 3788 2067 4224 1395 4224 
C 691 4224 262 3603 262 3027 
C 262 2777 448 2745 525 2745 
C 589 2745 781 2783 781 3007 
C 781 3206 614 3264 525 3264 
C 486 3264 448 3257 422 3244 
C 544 3788 915 4057 1306 4057 
C 1862 4057 2227 3616 2227 3033 
C 2227 2477 1901 1998 1536 1583 
L 262 147 
L 262 0 
L 2515 0 
L 2669 990 
z
" transform="scale(0.015625)"/>
       </defs>
       <use xlink:href="#CMR17-30" transform="scale(0.996264)"/>
       <use xlink:href="#CMMI12-3a" transform="translate(45.690477 0) scale(0.996264)"/>
       <use xlink:href="#CMR17-32" transform="translate(72.787654 0) scale(0.996264)"/>
      </g>
     </g>
    </g>
    <g id="ytick_3">
     <g id="line2d_38">
      <g>
       <use xlink:href="#m5f25d751c2" x="63.208257" y="145.626531" style="stroke: #000000; stroke-width: 0.8"/>
      </g>
     </g>
     <g id="text_7">
      <!-- $\mathdefault{0.4}$ -->
      <g transform="translate(32.51263 152.545029) scale(0.2 -0.2)">
       <defs>
        <path id="CMR17-34" d="M 2150 4147 
C 2150 4281 2144 4288 2029 4288 
L 128 1254 
L 128 1088 
L 1779 1088 
L 1779 460 
C 1779 230 1766 166 1318 166 
L 1197 166 
L 1197 0 
C 1402 12 1747 12 1965 12 
C 2182 12 2528 12 2733 0 
L 2733 166 
L 2611 166 
C 2163 166 2150 230 2150 460 
L 2150 1088 
L 2803 1088 
L 2803 1254 
L 2150 1254 
L 2150 4147 
z
M 1798 3723 
L 1798 1254 
L 256 1254 
L 1798 3723 
z
" transform="scale(0.015625)"/>
       </defs>
       <use xlink:href="#CMR17-30" transform="scale(0.996264)"/>
       <use xlink:href="#CMMI12-3a" transform="translate(45.690477 0) scale(0.996264)"/>
       <use xlink:href="#CMR17-34" transform="translate(72.787654 0) scale(0.996264)"/>
      </g>
     </g>
    </g>
    <g id="ytick_4">
     <g id="line2d_39">
      <g>
       <use xlink:href="#m5f25d751c2" x="63.208257" y="104.141445" style="stroke: #000000; stroke-width: 0.8"/>
      </g>
     </g>
     <g id="text_8">
      <!-- $\mathdefault{0.6}$ -->
      <g transform="translate(32.51263 111.059943) scale(0.2 -0.2)">
       <defs>
        <path id="CMR17-36" d="M 678 2198 
C 678 3712 1395 4076 1811 4076 
C 1946 4076 2272 4049 2400 3782 
C 2298 3782 2106 3782 2106 3558 
C 2106 3385 2246 3328 2336 3328 
C 2394 3328 2566 3353 2566 3571 
C 2566 3987 2246 4224 1805 4224 
C 1043 4224 243 3411 243 2011 
C 243 257 966 -128 1478 -128 
C 2099 -128 2688 431 2688 1295 
C 2688 2101 2170 2688 1517 2688 
C 1126 2688 838 2430 678 1979 
L 678 2198 
z
M 1478 25 
C 691 25 691 1212 691 1450 
C 691 1914 909 2585 1504 2585 
C 1613 2585 1926 2585 2138 2140 
C 2253 1889 2253 1624 2253 1302 
C 2253 954 2253 696 2118 438 
C 1978 173 1773 25 1478 25 
z
" transform="scale(0.015625)"/>
       </defs>
       <use xlink:href="#CMR17-30" transform="scale(0.996264)"/>
       <use xlink:href="#CMMI12-3a" transform="translate(45.690477 0) scale(0.996264)"/>
       <use xlink:href="#CMR17-36" transform="translate(72.787654 0) scale(0.996264)"/>
      </g>
     </g>
    </g>
    <g id="ytick_5">
     <g id="line2d_40">
      <g>
       <use xlink:href="#m5f25d751c2" x="63.208257" y="62.656358" style="stroke: #000000; stroke-width: 0.8"/>
      </g>
     </g>
     <g id="text_9">
      <!-- $\mathdefault{0.8}$ -->
      <g transform="translate(32.51263 69.574856) scale(0.2 -0.2)">
       <defs>
        <path id="CMR17-38" d="M 1741 2289 
C 2144 2494 2554 2803 2554 3298 
C 2554 3884 1990 4224 1472 4224 
C 890 4224 378 3800 378 3215 
C 378 3054 416 2777 666 2533 
C 730 2469 998 2276 1171 2154 
C 883 2006 211 1652 211 945 
C 211 282 838 -128 1459 -128 
C 2144 -128 2720 366 2720 1022 
C 2720 1607 2330 1877 2074 2051 
L 1741 2289 
z
M 902 2855 
C 851 2887 595 3086 595 3388 
C 595 3781 998 4076 1459 4076 
C 1965 4076 2336 3716 2336 3298 
C 2336 2700 1670 2359 1638 2359 
C 1632 2359 1626 2359 1574 2398 
L 902 2855 
z
M 2080 1536 
C 2176 1466 2483 1253 2483 861 
C 2483 385 2010 25 1472 25 
C 890 25 448 443 448 951 
C 448 1459 838 1884 1280 2083 
L 2080 1536 
z
" transform="scale(0.015625)"/>
       </defs>
       <use xlink:href="#CMR17-30" transform="scale(0.996264)"/>
       <use xlink:href="#CMMI12-3a" transform="translate(45.690477 0) scale(0.996264)"/>
       <use xlink:href="#CMR17-38" transform="translate(72.787654 0) scale(0.996264)"/>
      </g>
     </g>
    </g>
    <g id="ytick_6">
     <g id="line2d_41">
      <g>
       <use xlink:href="#m5f25d751c2" x="63.208257" y="21.171272" style="stroke: #000000; stroke-width: 0.8"/>
      </g>
     </g>
     <g id="text_10">
      <!-- $\mathdefault{1.0}$ -->
      <g transform="translate(32.51263 28.08977) scale(0.2 -0.2)">
       <use xlink:href="#CMR17-31" transform="scale(0.996264)"/>
       <use xlink:href="#CMMI12-3a" transform="translate(45.690477 0) scale(0.996264)"/>
       <use xlink:href="#CMR17-30" transform="translate(72.787654 0) scale(0.996264)"/>
      </g>
     </g>
    </g>
    <g id="text_11">
     <!-- Coherence -->
     <g transform="translate(24.636997 160.819774) rotate(-90) scale(0.2 -0.2)">
      <defs>
       <path id="CMR17-43" d="M 3974 4351 
C 3974 4467 3968 4473 3930 4473 
C 3904 4473 3898 4467 3853 4390 
L 3571 3849 
C 3258 4249 2874 4480 2381 4480 
C 1286 4480 294 3507 294 2179 
C 294 837 1286 -128 2387 -128 
C 3366 -128 3974 741 3974 1482 
C 3974 1547 3974 1573 3917 1573 
C 3866 1573 3866 1553 3859 1495 
C 3808 592 3168 38 2477 38 
C 1824 38 781 502 781 2179 
C 781 3862 1843 4313 2464 4313 
C 3187 4313 3712 3681 3834 2785 
C 3846 2707 3846 2695 3904 2695 
C 3974 2695 3974 2707 3974 2824 
L 3974 4351 
z
" transform="scale(0.015625)"/>
       <path id="CMR17-6f" d="M 2758 1356 
C 2758 2176 2163 2816 1466 2816 
C 768 2816 173 2176 173 1356 
C 173 550 768 -64 1466 -64 
C 2163 -64 2758 550 2758 1356 
z
M 1466 51 
C 1165 51 909 230 762 480 
C 602 768 582 1126 582 1408 
C 582 1676 595 2009 762 2297 
C 890 2508 1139 2713 1466 2713 
C 1754 2713 1997 2553 2150 2329 
C 2349 2028 2349 1606 2349 1408 
C 2349 1158 2336 774 2163 467 
C 1984 172 1709 51 1466 51 
z
" transform="scale(0.015625)"/>
       <path id="CMR17-68" d="M 2656 1954 
C 2656 2282 2592 2816 1837 2816 
C 1312 2816 1056 2392 979 2179 
L 973 2179 
L 973 4416 
L 211 4345 
L 211 4179 
C 589 4179 646 4141 646 3843 
L 646 443 
C 646 198 621 166 211 166 
L 211 0 
C 365 12 646 12 813 12 
C 979 12 1267 12 1421 0 
L 1421 166 
C 1011 166 986 192 986 443 
L 986 1678 
C 986 2269 1344 2713 1792 2713 
C 2266 2713 2317 2289 2317 1980 
L 2317 443 
C 2317 198 2291 166 1882 166 
L 1882 0 
C 2035 12 2317 12 2483 12 
C 2650 12 2938 12 3091 0 
L 3091 166 
C 2682 166 2656 192 2656 443 
L 2656 1954 
z
" transform="scale(0.015625)"/>
      </defs>
      <use xlink:href="#CMR17-43" transform="scale(0.996264)"/>
      <use xlink:href="#CMR17-6f" transform="translate(66.509881 0) scale(0.996264)"/>
      <use xlink:href="#CMR17-68" transform="translate(112.200358 0) scale(0.996264)"/>
      <use xlink:href="#CMR17-65" transform="translate(163.095727 0) scale(0.996264)"/>
      <use xlink:href="#CMR17-72" transform="translate(203.581388 0) scale(0.996264)"/>
      <use xlink:href="#CMR17-65" transform="translate(238.862156 0) scale(0.996264)"/>
      <use xlink:href="#CMR17-6e" transform="translate(279.347816 0) scale(0.996264)"/>
      <use xlink:href="#CMR17-63" transform="translate(330.243186 0) scale(0.996264)"/>
      <use xlink:href="#CMR17-65" transform="translate(370.728846 0) scale(0.996264)"/>
     </g>
    </g>
   </g>
   <g id="line2d_42">
    <path d="M 63.208258 21.171296 
L 412.061905 21.171284 
L 412.061905 21.171284 
" clip-path="url(#pafd4ddbf66)" style="fill: none; stroke: #ff7f0e; stroke-width: 4; stroke-linecap: square"/>
   </g>
   <g id="line2d_43">
    <path d="M 63.208258 21.171296 
L 66.732032 21.171296 
L 70.255806 21.171272 
L 73.779579 21.171272 
L 77.303353 21.171247 
L 80.827128 21.171247 
L 84.350903 21.171284 
L 87.874677 21.171272 
L 91.398448 21.171284 
L 94.922226 21.171296 
L 98.446 21.171284 
L 101.969774 21.171272 
L 105.493549 21.171272 
L 109.017322 21.171296 
L 112.541096 21.171247 
L 116.064872 21.171296 
L 119.588644 21.171247 
L 123.112417 21.171247 
L 126.636192 21.171247 
L 130.159966 21.171247 
L 133.683741 21.171247 
L 137.207516 21.171272 
L 140.73129 21.171247 
L 144.255064 21.171272 
L 147.778837 21.171284 
L 151.302613 21.171247 
L 154.826387 21.171272 
L 158.35016 21.171284 
L 161.873935 21.171247 
L 165.397708 21.171272 
L 168.921483 21.171272 
L 172.445257 21.171247 
L 175.969031 21.171309 
L 179.492805 21.171272 
L 183.016581 21.171247 
L 186.540354 21.171272 
L 190.064128 21.171272 
L 193.587905 21.171222 
L 197.111678 21.171247 
L 200.635453 21.171247 
L 204.159224 21.171272 
L 207.683 21.171272 
L 211.206774 21.171284 
L 214.730549 21.171247 
L 218.254323 21.171321 
L 221.778095 21.171284 
L 225.301872 21.171247 
L 228.825644 21.171247 
L 232.349421 21.171247 
L 235.873195 21.171247 
L 239.396969 21.171272 
L 242.920742 21.171272 
L 246.444515 21.171284 
L 249.96829 21.171284 
L 253.492066 21.171222 
L 257.015838 21.171272 
L 260.539614 21.171321 
L 264.063386 21.171272 
L 267.587162 21.171222 
L 271.110936 21.171284 
L 274.634711 21.171321 
L 278.158484 21.171247 
L 281.682258 21.171247 
L 285.206031 21.171272 
L 288.729806 21.171296 
L 292.25358 21.171247 
L 295.777356 21.171272 
L 299.301128 21.171296 
L 302.824904 21.171197 
L 306.348677 21.171247 
L 309.872452 21.171222 
L 313.396226 21.171272 
L 316.92 21.171296 
L 320.443775 21.171284 
L 323.967549 21.171321 
L 327.491322 21.171296 
L 331.015097 21.171272 
L 334.538872 21.171284 
L 338.062646 21.171272 
L 341.586419 21.171272 
L 345.110194 21.171222 
L 348.633969 21.171247 
L 352.157744 21.171296 
L 355.681518 21.171247 
L 359.20529 21.171296 
L 362.729067 21.171247 
L 366.252841 21.171309 
L 369.776615 21.171247 
L 373.300388 21.171272 
L 376.824162 21.171321 
L 380.347935 21.171296 
L 383.871711 21.171309 
L 387.395485 21.171333 
L 390.91926 21.171247 
L 394.443034 21.171272 
L 397.966807 21.171272 
L 401.490582 21.171272 
L 405.014355 21.171247 
L 408.53813 21.171309 
L 412.061905 21.171247 
" clip-path="url(#pafd4ddbf66)" style="fill: none"/>
    <defs>
     <path id="mb69f6d7b8d" d="M 0 1.25 
C 0.331504 1.25 0.649475 1.118292 0.883883 0.883883 
C 1.118292 0.649475 1.25 0.331504 1.25 0 
C 1.25 -0.331504 1.118292 -0.649475 0.883883 -0.883883 
C 0.649475 -1.118292 0.331504 -1.25 0 -1.25 
C -0.331504 -1.25 -0.649475 -1.118292 -0.883883 -0.883883 
C -1.118292 -0.649475 -1.25 -0.331504 -1.25 0 
C -1.25 0.331504 -1.118292 0.649475 -0.883883 0.883883 
C -0.649475 1.118292 -0.331504 1.25 0 1.25 
z
" style="stroke: #1f77b4"/>
    </defs>
    <g clip-path="url(#pafd4ddbf66)">
     <use xlink:href="#mb69f6d7b8d" x="63.208258" y="21.171296" style="fill: #1f77b4; stroke: #1f77b4"/>
     <use xlink:href="#mb69f6d7b8d" x="66.732032" y="21.171296" style="fill: #1f77b4; stroke: #1f77b4"/>
     <use xlink:href="#mb69f6d7b8d" x="70.255806" y="21.171272" style="fill: #1f77b4; stroke: #1f77b4"/>
     <use xlink:href="#mb69f6d7b8d" x="73.779579" y="21.171272" style="fill: #1f77b4; stroke: #1f77b4"/>
     <use xlink:href="#mb69f6d7b8d" x="77.303353" y="21.171247" style="fill: #1f77b4; stroke: #1f77b4"/>
     <use xlink:href="#mb69f6d7b8d" x="80.827128" y="21.171247" style="fill: #1f77b4; stroke: #1f77b4"/>
     <use xlink:href="#mb69f6d7b8d" x="84.350903" y="21.171284" style="fill: #1f77b4; stroke: #1f77b4"/>
     <use xlink:href="#mb69f6d7b8d" x="87.874677" y="21.171272" style="fill: #1f77b4; stroke: #1f77b4"/>
     <use xlink:href="#mb69f6d7b8d" x="91.398448" y="21.171284" style="fill: #1f77b4; stroke: #1f77b4"/>
     <use xlink:href="#mb69f6d7b8d" x="94.922226" y="21.171296" style="fill: #1f77b4; stroke: #1f77b4"/>
     <use xlink:href="#mb69f6d7b8d" x="98.446" y="21.171284" style="fill: #1f77b4; stroke: #1f77b4"/>
     <use xlink:href="#mb69f6d7b8d" x="101.969774" y="21.171272" style="fill: #1f77b4; stroke: #1f77b4"/>
     <use xlink:href="#mb69f6d7b8d" x="105.493549" y="21.171272" style="fill: #1f77b4; stroke: #1f77b4"/>
     <use xlink:href="#mb69f6d7b8d" x="109.017322" y="21.171296" style="fill: #1f77b4; stroke: #1f77b4"/>
     <use xlink:href="#mb69f6d7b8d" x="112.541096" y="21.171247" style="fill: #1f77b4; stroke: #1f77b4"/>
     <use xlink:href="#mb69f6d7b8d" x="116.064872" y="21.171296" style="fill: #1f77b4; stroke: #1f77b4"/>
     <use xlink:href="#mb69f6d7b8d" x="119.588644" y="21.171247" style="fill: #1f77b4; stroke: #1f77b4"/>
     <use xlink:href="#mb69f6d7b8d" x="123.112417" y="21.171247" style="fill: #1f77b4; stroke: #1f77b4"/>
     <use xlink:href="#mb69f6d7b8d" x="126.636192" y="21.171247" style="fill: #1f77b4; stroke: #1f77b4"/>
     <use xlink:href="#mb69f6d7b8d" x="130.159966" y="21.171247" style="fill: #1f77b4; stroke: #1f77b4"/>
     <use xlink:href="#mb69f6d7b8d" x="133.683741" y="21.171247" style="fill: #1f77b4; stroke: #1f77b4"/>
     <use xlink:href="#mb69f6d7b8d" x="137.207516" y="21.171272" style="fill: #1f77b4; stroke: #1f77b4"/>
     <use xlink:href="#mb69f6d7b8d" x="140.73129" y="21.171247" style="fill: #1f77b4; stroke: #1f77b4"/>
     <use xlink:href="#mb69f6d7b8d" x="144.255064" y="21.171272" style="fill: #1f77b4; stroke: #1f77b4"/>
     <use xlink:href="#mb69f6d7b8d" x="147.778837" y="21.171284" style="fill: #1f77b4; stroke: #1f77b4"/>
     <use xlink:href="#mb69f6d7b8d" x="151.302613" y="21.171247" style="fill: #1f77b4; stroke: #1f77b4"/>
     <use xlink:href="#mb69f6d7b8d" x="154.826387" y="21.171272" style="fill: #1f77b4; stroke: #1f77b4"/>
     <use xlink:href="#mb69f6d7b8d" x="158.35016" y="21.171284" style="fill: #1f77b4; stroke: #1f77b4"/>
     <use xlink:href="#mb69f6d7b8d" x="161.873935" y="21.171247" style="fill: #1f77b4; stroke: #1f77b4"/>
     <use xlink:href="#mb69f6d7b8d" x="165.397708" y="21.171272" style="fill: #1f77b4; stroke: #1f77b4"/>
     <use xlink:href="#mb69f6d7b8d" x="168.921483" y="21.171272" style="fill: #1f77b4; stroke: #1f77b4"/>
     <use xlink:href="#mb69f6d7b8d" x="172.445257" y="21.171247" style="fill: #1f77b4; stroke: #1f77b4"/>
     <use xlink:href="#mb69f6d7b8d" x="175.969031" y="21.171309" style="fill: #1f77b4; stroke: #1f77b4"/>
     <use xlink:href="#mb69f6d7b8d" x="179.492805" y="21.171272" style="fill: #1f77b4; stroke: #1f77b4"/>
     <use xlink:href="#mb69f6d7b8d" x="183.016581" y="21.171247" style="fill: #1f77b4; stroke: #1f77b4"/>
     <use xlink:href="#mb69f6d7b8d" x="186.540354" y="21.171272" style="fill: #1f77b4; stroke: #1f77b4"/>
     <use xlink:href="#mb69f6d7b8d" x="190.064128" y="21.171272" style="fill: #1f77b4; stroke: #1f77b4"/>
     <use xlink:href="#mb69f6d7b8d" x="193.587905" y="21.171222" style="fill: #1f77b4; stroke: #1f77b4"/>
     <use xlink:href="#mb69f6d7b8d" x="197.111678" y="21.171247" style="fill: #1f77b4; stroke: #1f77b4"/>
     <use xlink:href="#mb69f6d7b8d" x="200.635453" y="21.171247" style="fill: #1f77b4; stroke: #1f77b4"/>
     <use xlink:href="#mb69f6d7b8d" x="204.159224" y="21.171272" style="fill: #1f77b4; stroke: #1f77b4"/>
     <use xlink:href="#mb69f6d7b8d" x="207.683" y="21.171272" style="fill: #1f77b4; stroke: #1f77b4"/>
     <use xlink:href="#mb69f6d7b8d" x="211.206774" y="21.171284" style="fill: #1f77b4; stroke: #1f77b4"/>
     <use xlink:href="#mb69f6d7b8d" x="214.730549" y="21.171247" style="fill: #1f77b4; stroke: #1f77b4"/>
     <use xlink:href="#mb69f6d7b8d" x="218.254323" y="21.171321" style="fill: #1f77b4; stroke: #1f77b4"/>
     <use xlink:href="#mb69f6d7b8d" x="221.778095" y="21.171284" style="fill: #1f77b4; stroke: #1f77b4"/>
     <use xlink:href="#mb69f6d7b8d" x="225.301872" y="21.171247" style="fill: #1f77b4; stroke: #1f77b4"/>
     <use xlink:href="#mb69f6d7b8d" x="228.825644" y="21.171247" style="fill: #1f77b4; stroke: #1f77b4"/>
     <use xlink:href="#mb69f6d7b8d" x="232.349421" y="21.171247" style="fill: #1f77b4; stroke: #1f77b4"/>
     <use xlink:href="#mb69f6d7b8d" x="235.873195" y="21.171247" style="fill: #1f77b4; stroke: #1f77b4"/>
     <use xlink:href="#mb69f6d7b8d" x="239.396969" y="21.171272" style="fill: #1f77b4; stroke: #1f77b4"/>
     <use xlink:href="#mb69f6d7b8d" x="242.920742" y="21.171272" style="fill: #1f77b4; stroke: #1f77b4"/>
     <use xlink:href="#mb69f6d7b8d" x="246.444515" y="21.171284" style="fill: #1f77b4; stroke: #1f77b4"/>
     <use xlink:href="#mb69f6d7b8d" x="249.96829" y="21.171284" style="fill: #1f77b4; stroke: #1f77b4"/>
     <use xlink:href="#mb69f6d7b8d" x="253.492066" y="21.171222" style="fill: #1f77b4; stroke: #1f77b4"/>
     <use xlink:href="#mb69f6d7b8d" x="257.015838" y="21.171272" style="fill: #1f77b4; stroke: #1f77b4"/>
     <use xlink:href="#mb69f6d7b8d" x="260.539614" y="21.171321" style="fill: #1f77b4; stroke: #1f77b4"/>
     <use xlink:href="#mb69f6d7b8d" x="264.063386" y="21.171272" style="fill: #1f77b4; stroke: #1f77b4"/>
     <use xlink:href="#mb69f6d7b8d" x="267.587162" y="21.171222" style="fill: #1f77b4; stroke: #1f77b4"/>
     <use xlink:href="#mb69f6d7b8d" x="271.110936" y="21.171284" style="fill: #1f77b4; stroke: #1f77b4"/>
     <use xlink:href="#mb69f6d7b8d" x="274.634711" y="21.171321" style="fill: #1f77b4; stroke: #1f77b4"/>
     <use xlink:href="#mb69f6d7b8d" x="278.158484" y="21.171247" style="fill: #1f77b4; stroke: #1f77b4"/>
     <use xlink:href="#mb69f6d7b8d" x="281.682258" y="21.171247" style="fill: #1f77b4; stroke: #1f77b4"/>
     <use xlink:href="#mb69f6d7b8d" x="285.206031" y="21.171272" style="fill: #1f77b4; stroke: #1f77b4"/>
     <use xlink:href="#mb69f6d7b8d" x="288.729806" y="21.171296" style="fill: #1f77b4; stroke: #1f77b4"/>
     <use xlink:href="#mb69f6d7b8d" x="292.25358" y="21.171247" style="fill: #1f77b4; stroke: #1f77b4"/>
     <use xlink:href="#mb69f6d7b8d" x="295.777356" y="21.171272" style="fill: #1f77b4; stroke: #1f77b4"/>
     <use xlink:href="#mb69f6d7b8d" x="299.301128" y="21.171296" style="fill: #1f77b4; stroke: #1f77b4"/>
     <use xlink:href="#mb69f6d7b8d" x="302.824904" y="21.171197" style="fill: #1f77b4; stroke: #1f77b4"/>
     <use xlink:href="#mb69f6d7b8d" x="306.348677" y="21.171247" style="fill: #1f77b4; stroke: #1f77b4"/>
     <use xlink:href="#mb69f6d7b8d" x="309.872452" y="21.171222" style="fill: #1f77b4; stroke: #1f77b4"/>
     <use xlink:href="#mb69f6d7b8d" x="313.396226" y="21.171272" style="fill: #1f77b4; stroke: #1f77b4"/>
     <use xlink:href="#mb69f6d7b8d" x="316.92" y="21.171296" style="fill: #1f77b4; stroke: #1f77b4"/>
     <use xlink:href="#mb69f6d7b8d" x="320.443775" y="21.171284" style="fill: #1f77b4; stroke: #1f77b4"/>
     <use xlink:href="#mb69f6d7b8d" x="323.967549" y="21.171321" style="fill: #1f77b4; stroke: #1f77b4"/>
     <use xlink:href="#mb69f6d7b8d" x="327.491322" y="21.171296" style="fill: #1f77b4; stroke: #1f77b4"/>
     <use xlink:href="#mb69f6d7b8d" x="331.015097" y="21.171272" style="fill: #1f77b4; stroke: #1f77b4"/>
     <use xlink:href="#mb69f6d7b8d" x="334.538872" y="21.171284" style="fill: #1f77b4; stroke: #1f77b4"/>
     <use xlink:href="#mb69f6d7b8d" x="338.062646" y="21.171272" style="fill: #1f77b4; stroke: #1f77b4"/>
     <use xlink:href="#mb69f6d7b8d" x="341.586419" y="21.171272" style="fill: #1f77b4; stroke: #1f77b4"/>
     <use xlink:href="#mb69f6d7b8d" x="345.110194" y="21.171222" style="fill: #1f77b4; stroke: #1f77b4"/>
     <use xlink:href="#mb69f6d7b8d" x="348.633969" y="21.171247" style="fill: #1f77b4; stroke: #1f77b4"/>
     <use xlink:href="#mb69f6d7b8d" x="352.157744" y="21.171296" style="fill: #1f77b4; stroke: #1f77b4"/>
     <use xlink:href="#mb69f6d7b8d" x="355.681518" y="21.171247" style="fill: #1f77b4; stroke: #1f77b4"/>
     <use xlink:href="#mb69f6d7b8d" x="359.20529" y="21.171296" style="fill: #1f77b4; stroke: #1f77b4"/>
     <use xlink:href="#mb69f6d7b8d" x="362.729067" y="21.171247" style="fill: #1f77b4; stroke: #1f77b4"/>
     <use xlink:href="#mb69f6d7b8d" x="366.252841" y="21.171309" style="fill: #1f77b4; stroke: #1f77b4"/>
     <use xlink:href="#mb69f6d7b8d" x="369.776615" y="21.171247" style="fill: #1f77b4; stroke: #1f77b4"/>
     <use xlink:href="#mb69f6d7b8d" x="373.300388" y="21.171272" style="fill: #1f77b4; stroke: #1f77b4"/>
     <use xlink:href="#mb69f6d7b8d" x="376.824162" y="21.171321" style="fill: #1f77b4; stroke: #1f77b4"/>
     <use xlink:href="#mb69f6d7b8d" x="380.347935" y="21.171296" style="fill: #1f77b4; stroke: #1f77b4"/>
     <use xlink:href="#mb69f6d7b8d" x="383.871711" y="21.171309" style="fill: #1f77b4; stroke: #1f77b4"/>
     <use xlink:href="#mb69f6d7b8d" x="387.395485" y="21.171333" style="fill: #1f77b4; stroke: #1f77b4"/>
     <use xlink:href="#mb69f6d7b8d" x="390.91926" y="21.171247" style="fill: #1f77b4; stroke: #1f77b4"/>
     <use xlink:href="#mb69f6d7b8d" x="394.443034" y="21.171272" style="fill: #1f77b4; stroke: #1f77b4"/>
     <use xlink:href="#mb69f6d7b8d" x="397.966807" y="21.171272" style="fill: #1f77b4; stroke: #1f77b4"/>
     <use xlink:href="#mb69f6d7b8d" x="401.490582" y="21.171272" style="fill: #1f77b4; stroke: #1f77b4"/>
     <use xlink:href="#mb69f6d7b8d" x="405.014355" y="21.171247" style="fill: #1f77b4; stroke: #1f77b4"/>
     <use xlink:href="#mb69f6d7b8d" x="408.53813" y="21.171309" style="fill: #1f77b4; stroke: #1f77b4"/>
     <use xlink:href="#mb69f6d7b8d" x="412.061905" y="21.171247" style="fill: #1f77b4; stroke: #1f77b4"/>
    </g>
   </g>
   <g id="line2d_44">
    <path d="M 70.113996 221.58204 
L 85.471516 207.539773 
L 96.367849 160.173471 
L 104.819702 111.849167 
L 111.725369 88.918226 
L 117.564027 83.977665 
L 122.621702 76.496833 
L 127.082888 78.875401 
L 131.073555 92.514353 
L 134.683553 63.183783 
L 137.979222 37.359742 
L 141.010944 37.011907 
L 143.81788 39.562563 
L 148.875555 29.274359 
L 151.171792 29.67427 
L 155.384608 27.238322 
L 159.175399 24.975143 
L 162.621074 23.85716 
L 165.779261 23.218522 
L 168.694261 23.549123 
L 172.684928 22.222208 
L 176.294925 21.945784 
L 179.590594 21.835564 
L 182.622316 21.621835 
L 186.320501 21.428272 
L 189.689503 21.403891 
L 193.51865 21.253514 
L 196.99598 21.2468 
L 200.786772 21.204455 
L 204.232447 21.194367 
L 207.892314 21.184018 
L 211.229492 21.194836 
L 214.714827 21.190163 
L 218.286967 21.264653 
L 221.896965 21.30031 
L 225.192634 21.310324 
L 228.802631 21.377545 
L 232.360421 22.114991 
L 235.851498 21.78449 
L 239.483145 21.609299 
L 242.994634 21.339069 
L 246.388811 21.271861 
L 249.998809 21.23388 
L 253.444483 21.206953 
L 257.013629 21.210612 
L 260.524409 21.188494 
L 264.077916 21.184983 
L 267.636486 21.188469 
L 271.077686 21.179938 
L 274.662042 21.176712 
L 278.170859 21.177565 
L 281.667327 21.174189 
L 285.193248 21.175191 
L 288.714852 21.174696 
L 292.260434 21.173856 
L 295.797099 21.1732 
L 299.300176 21.172607 
L 302.833037 21.172718 
L 306.361667 21.172075 
L 309.860427 21.173064 
L 313.402848 21.172965 
L 316.923303 21.173101 
L 320.451715 21.173448 
L 323.959482 21.172768 
L 327.489022 21.172471 
L 331.008348 21.173336 
L 334.546285 21.17278 
L 338.055392 21.175277 
L 341.589509 21.174536 
L 345.115754 21.174375 
L 348.633689 21.177453 
L 352.163114 21.178801 
L 355.684615 21.178554 
L 359.201138 21.17843 
L 362.729302 21.179407 
L 366.254852 21.181447 
L 369.779588 21.19292 
L 373.302425 21.198657 
L 376.826098 21.198533 
L 380.350098 21.207608 
L 383.871703 21.25025 
L 387.395498 21.232792 
L 390.918223 21.266186 
L 394.442555 21.280479 
L 397.967913 21.324011 
L 401.49149 21.460677 
L 405.01454 21.364909 
L 408.538089 21.450947 
L 412.062735 21.517846 
" clip-path="url(#pafd4ddbf66)" style="fill: none"/>
    <defs>
     <path id="mbc7717eae3" d="M 0 4 
C 1.060812 4 2.078319 3.578535 2.828427 2.828427 
C 3.578535 2.078319 4 1.060812 4 0 
C 4 -1.060812 3.578535 -2.078319 2.828427 -2.828427 
C 2.078319 -3.578535 1.060812 -4 0 -4 
C -1.060812 -4 -2.078319 -3.578535 -2.828427 -2.828427 
C -3.578535 -2.078319 -4 -1.060812 -4 0 
C -4 1.060812 -3.578535 2.078319 -2.828427 2.828427 
C -2.078319 3.578535 -1.060812 4 0 4 
z
" style="stroke: #000000"/>
    </defs>
    <g clip-path="url(#pafd4ddbf66)">
     <use xlink:href="#mbc7717eae3" x="70.113996" y="221.58204" style="fill-opacity: 0; stroke: #000000"/>
     <use xlink:href="#mbc7717eae3" x="85.471516" y="207.539773" style="fill-opacity: 0; stroke: #000000"/>
     <use xlink:href="#mbc7717eae3" x="96.367849" y="160.173471" style="fill-opacity: 0; stroke: #000000"/>
     <use xlink:href="#mbc7717eae3" x="104.819702" y="111.849167" style="fill-opacity: 0; stroke: #000000"/>
     <use xlink:href="#mbc7717eae3" x="111.725369" y="88.918226" style="fill-opacity: 0; stroke: #000000"/>
     <use xlink:href="#mbc7717eae3" x="117.564027" y="83.977665" style="fill-opacity: 0; stroke: #000000"/>
     <use xlink:href="#mbc7717eae3" x="122.621702" y="76.496833" style="fill-opacity: 0; stroke: #000000"/>
     <use xlink:href="#mbc7717eae3" x="127.082888" y="78.875401" style="fill-opacity: 0; stroke: #000000"/>
     <use xlink:href="#mbc7717eae3" x="131.073555" y="92.514353" style="fill-opacity: 0; stroke: #000000"/>
     <use xlink:href="#mbc7717eae3" x="134.683553" y="63.183783" style="fill-opacity: 0; stroke: #000000"/>
     <use xlink:href="#mbc7717eae3" x="137.979222" y="37.359742" style="fill-opacity: 0; stroke: #000000"/>
     <use xlink:href="#mbc7717eae3" x="141.010944" y="37.011907" style="fill-opacity: 0; stroke: #000000"/>
     <use xlink:href="#mbc7717eae3" x="143.81788" y="39.562563" style="fill-opacity: 0; stroke: #000000"/>
     <use xlink:href="#mbc7717eae3" x="148.875555" y="29.274359" style="fill-opacity: 0; stroke: #000000"/>
     <use xlink:href="#mbc7717eae3" x="151.171792" y="29.67427" style="fill-opacity: 0; stroke: #000000"/>
     <use xlink:href="#mbc7717eae3" x="155.384608" y="27.238322" style="fill-opacity: 0; stroke: #000000"/>
     <use xlink:href="#mbc7717eae3" x="159.175399" y="24.975143" style="fill-opacity: 0; stroke: #000000"/>
     <use xlink:href="#mbc7717eae3" x="162.621074" y="23.85716" style="fill-opacity: 0; stroke: #000000"/>
     <use xlink:href="#mbc7717eae3" x="165.779261" y="23.218522" style="fill-opacity: 0; stroke: #000000"/>
     <use xlink:href="#mbc7717eae3" x="168.694261" y="23.549123" style="fill-opacity: 0; stroke: #000000"/>
     <use xlink:href="#mbc7717eae3" x="172.684928" y="22.222208" style="fill-opacity: 0; stroke: #000000"/>
     <use xlink:href="#mbc7717eae3" x="176.294925" y="21.945784" style="fill-opacity: 0; stroke: #000000"/>
     <use xlink:href="#mbc7717eae3" x="179.590594" y="21.835564" style="fill-opacity: 0; stroke: #000000"/>
     <use xlink:href="#mbc7717eae3" x="182.622316" y="21.621835" style="fill-opacity: 0; stroke: #000000"/>
     <use xlink:href="#mbc7717eae3" x="186.320501" y="21.428272" style="fill-opacity: 0; stroke: #000000"/>
     <use xlink:href="#mbc7717eae3" x="189.689503" y="21.403891" style="fill-opacity: 0; stroke: #000000"/>
     <use xlink:href="#mbc7717eae3" x="193.51865" y="21.253514" style="fill-opacity: 0; stroke: #000000"/>
     <use xlink:href="#mbc7717eae3" x="196.99598" y="21.2468" style="fill-opacity: 0; stroke: #000000"/>
     <use xlink:href="#mbc7717eae3" x="200.786772" y="21.204455" style="fill-opacity: 0; stroke: #000000"/>
     <use xlink:href="#mbc7717eae3" x="204.232447" y="21.194367" style="fill-opacity: 0; stroke: #000000"/>
     <use xlink:href="#mbc7717eae3" x="207.892314" y="21.184018" style="fill-opacity: 0; stroke: #000000"/>
     <use xlink:href="#mbc7717eae3" x="211.229492" y="21.194836" style="fill-opacity: 0; stroke: #000000"/>
     <use xlink:href="#mbc7717eae3" x="214.714827" y="21.190163" style="fill-opacity: 0; stroke: #000000"/>
     <use xlink:href="#mbc7717eae3" x="218.286967" y="21.264653" style="fill-opacity: 0; stroke: #000000"/>
     <use xlink:href="#mbc7717eae3" x="221.896965" y="21.30031" style="fill-opacity: 0; stroke: #000000"/>
     <use xlink:href="#mbc7717eae3" x="225.192634" y="21.310324" style="fill-opacity: 0; stroke: #000000"/>
     <use xlink:href="#mbc7717eae3" x="228.802631" y="21.377545" style="fill-opacity: 0; stroke: #000000"/>
     <use xlink:href="#mbc7717eae3" x="232.360421" y="22.114991" style="fill-opacity: 0; stroke: #000000"/>
     <use xlink:href="#mbc7717eae3" x="235.851498" y="21.78449" style="fill-opacity: 0; stroke: #000000"/>
     <use xlink:href="#mbc7717eae3" x="239.483145" y="21.609299" style="fill-opacity: 0; stroke: #000000"/>
     <use xlink:href="#mbc7717eae3" x="242.994634" y="21.339069" style="fill-opacity: 0; stroke: #000000"/>
     <use xlink:href="#mbc7717eae3" x="246.388811" y="21.271861" style="fill-opacity: 0; stroke: #000000"/>
     <use xlink:href="#mbc7717eae3" x="249.998809" y="21.23388" style="fill-opacity: 0; stroke: #000000"/>
     <use xlink:href="#mbc7717eae3" x="253.444483" y="21.206953" style="fill-opacity: 0; stroke: #000000"/>
     <use xlink:href="#mbc7717eae3" x="257.013629" y="21.210612" style="fill-opacity: 0; stroke: #000000"/>
     <use xlink:href="#mbc7717eae3" x="260.524409" y="21.188494" style="fill-opacity: 0; stroke: #000000"/>
     <use xlink:href="#mbc7717eae3" x="264.077916" y="21.184983" style="fill-opacity: 0; stroke: #000000"/>
     <use xlink:href="#mbc7717eae3" x="267.636486" y="21.188469" style="fill-opacity: 0; stroke: #000000"/>
     <use xlink:href="#mbc7717eae3" x="271.077686" y="21.179938" style="fill-opacity: 0; stroke: #000000"/>
     <use xlink:href="#mbc7717eae3" x="274.662042" y="21.176712" style="fill-opacity: 0; stroke: #000000"/>
     <use xlink:href="#mbc7717eae3" x="278.170859" y="21.177565" style="fill-opacity: 0; stroke: #000000"/>
     <use xlink:href="#mbc7717eae3" x="281.667327" y="21.174189" style="fill-opacity: 0; stroke: #000000"/>
     <use xlink:href="#mbc7717eae3" x="285.193248" y="21.175191" style="fill-opacity: 0; stroke: #000000"/>
     <use xlink:href="#mbc7717eae3" x="288.714852" y="21.174696" style="fill-opacity: 0; stroke: #000000"/>
     <use xlink:href="#mbc7717eae3" x="292.260434" y="21.173856" style="fill-opacity: 0; stroke: #000000"/>
     <use xlink:href="#mbc7717eae3" x="295.797099" y="21.1732" style="fill-opacity: 0; stroke: #000000"/>
     <use xlink:href="#mbc7717eae3" x="299.300176" y="21.172607" style="fill-opacity: 0; stroke: #000000"/>
     <use xlink:href="#mbc7717eae3" x="302.833037" y="21.172718" style="fill-opacity: 0; stroke: #000000"/>
     <use xlink:href="#mbc7717eae3" x="306.361667" y="21.172075" style="fill-opacity: 0; stroke: #000000"/>
     <use xlink:href="#mbc7717eae3" x="309.860427" y="21.173064" style="fill-opacity: 0; stroke: #000000"/>
     <use xlink:href="#mbc7717eae3" x="313.402848" y="21.172965" style="fill-opacity: 0; stroke: #000000"/>
     <use xlink:href="#mbc7717eae3" x="316.923303" y="21.173101" style="fill-opacity: 0; stroke: #000000"/>
     <use xlink:href="#mbc7717eae3" x="320.451715" y="21.173448" style="fill-opacity: 0; stroke: #000000"/>
     <use xlink:href="#mbc7717eae3" x="323.959482" y="21.172768" style="fill-opacity: 0; stroke: #000000"/>
     <use xlink:href="#mbc7717eae3" x="327.489022" y="21.172471" style="fill-opacity: 0; stroke: #000000"/>
     <use xlink:href="#mbc7717eae3" x="331.008348" y="21.173336" style="fill-opacity: 0; stroke: #000000"/>
     <use xlink:href="#mbc7717eae3" x="334.546285" y="21.17278" style="fill-opacity: 0; stroke: #000000"/>
     <use xlink:href="#mbc7717eae3" x="338.055392" y="21.175277" style="fill-opacity: 0; stroke: #000000"/>
     <use xlink:href="#mbc7717eae3" x="341.589509" y="21.174536" style="fill-opacity: 0; stroke: #000000"/>
     <use xlink:href="#mbc7717eae3" x="345.115754" y="21.174375" style="fill-opacity: 0; stroke: #000000"/>
     <use xlink:href="#mbc7717eae3" x="348.633689" y="21.177453" style="fill-opacity: 0; stroke: #000000"/>
     <use xlink:href="#mbc7717eae3" x="352.163114" y="21.178801" style="fill-opacity: 0; stroke: #000000"/>
     <use xlink:href="#mbc7717eae3" x="355.684615" y="21.178554" style="fill-opacity: 0; stroke: #000000"/>
     <use xlink:href="#mbc7717eae3" x="359.201138" y="21.17843" style="fill-opacity: 0; stroke: #000000"/>
     <use xlink:href="#mbc7717eae3" x="362.729302" y="21.179407" style="fill-opacity: 0; stroke: #000000"/>
     <use xlink:href="#mbc7717eae3" x="366.254852" y="21.181447" style="fill-opacity: 0; stroke: #000000"/>
     <use xlink:href="#mbc7717eae3" x="369.779588" y="21.19292" style="fill-opacity: 0; stroke: #000000"/>
     <use xlink:href="#mbc7717eae3" x="373.302425" y="21.198657" style="fill-opacity: 0; stroke: #000000"/>
     <use xlink:href="#mbc7717eae3" x="376.826098" y="21.198533" style="fill-opacity: 0; stroke: #000000"/>
     <use xlink:href="#mbc7717eae3" x="380.350098" y="21.207608" style="fill-opacity: 0; stroke: #000000"/>
     <use xlink:href="#mbc7717eae3" x="383.871703" y="21.25025" style="fill-opacity: 0; stroke: #000000"/>
     <use xlink:href="#mbc7717eae3" x="387.395498" y="21.232792" style="fill-opacity: 0; stroke: #000000"/>
     <use xlink:href="#mbc7717eae3" x="390.918223" y="21.266186" style="fill-opacity: 0; stroke: #000000"/>
     <use xlink:href="#mbc7717eae3" x="394.442555" y="21.280479" style="fill-opacity: 0; stroke: #000000"/>
     <use xlink:href="#mbc7717eae3" x="397.967913" y="21.324011" style="fill-opacity: 0; stroke: #000000"/>
     <use xlink:href="#mbc7717eae3" x="401.49149" y="21.460677" style="fill-opacity: 0; stroke: #000000"/>
     <use xlink:href="#mbc7717eae3" x="405.01454" y="21.364909" style="fill-opacity: 0; stroke: #000000"/>
     <use xlink:href="#mbc7717eae3" x="408.538089" y="21.450947" style="fill-opacity: 0; stroke: #000000"/>
     <use xlink:href="#mbc7717eae3" x="412.062735" y="21.517846" style="fill-opacity: 0; stroke: #000000"/>
    </g>
   </g>
   <g id="patch_3">
    <path d="M 63.208257 228.596704 
L 63.208257 10.8 
" style="fill: none; stroke: #000000; stroke-width: 0.8; stroke-linejoin: miter; stroke-linecap: square"/>
   </g>
   <g id="patch_4">
    <path d="M 412.061905 228.596704 
L 412.061905 10.8 
" style="fill: none; stroke: #000000; stroke-width: 0.8; stroke-linejoin: miter; stroke-linecap: square"/>
   </g>
   <g id="patch_5">
    <path d="M 63.208257 228.596704 
L 412.061905 228.596704 
" style="fill: none; stroke: #000000; stroke-width: 0.8; stroke-linejoin: miter; stroke-linecap: square"/>
   </g>
   <g id="patch_6">
    <path d="M 63.208257 10.8 
L 412.061905 10.8 
" style="fill: none; stroke: #000000; stroke-width: 0.8; stroke-linejoin: miter; stroke-linecap: square"/>
   </g>
   <g id="legend_1">
    <g id="patch_7">
     <path d="M 267.488811 219.596704 
L 399.461905 219.596704 
Q 403.061905 219.596704 403.061905 215.996704 
L 403.061905 142.532511 
Q 403.061905 138.932511 399.461905 138.932511 
L 267.488811 138.932511 
Q 263.888811 138.932511 263.888811 142.532511 
L 263.888811 215.996704 
Q 263.888811 219.596704 267.488811 219.596704 
z
" style="fill: #ffffff; opacity: 0.8; stroke: #cccccc; stroke-linejoin: miter"/>
    </g>
    <g id="line2d_45">
     <path d="M 271.088811 152.432511 
L 289.088811 152.432511 
L 307.088811 152.432511 
" style="fill: none; stroke: #ff7f0e; stroke-width: 4; stroke-linecap: square"/>
    </g>
    <g id="text_12">
     <!-- rational -->
     <g transform="translate(321.488811 158.732511) scale(0.18 -0.18)">
      <defs>
       <path id="CMR17-61" d="M 2304 1656 
C 2304 2048 2304 2275 2035 2534 
C 1798 2751 1523 2816 1306 2816 
C 800 2816 435 2408 435 1977 
C 435 1740 627 1728 666 1728 
C 749 1728 896 1779 896 1958 
C 896 2118 774 2188 666 2188 
C 640 2188 608 2182 589 2176 
C 723 2594 1069 2713 1293 2713 
C 1613 2713 1965 2421 1965 1875 
L 1965 1632 
C 1587 1619 1133 1568 774 1373 
C 371 1147 256 822 256 576 
C 256 77 832 -64 1171 -64 
C 1523 -64 1850 135 1990 505 
C 2003 219 2182 -39 2464 -39 
C 2598 -39 2938 51 2938 563 
L 2938 926 
L 2822 926 
L 2822 557 
C 2822 161 2650 109 2566 109 
C 2304 109 2304 446 2304 732 
L 2304 1656 
z
M 1965 887 
C 1965 323 1568 38 1216 38 
C 896 38 646 278 646 576 
C 646 771 730 1114 1101 1322 
C 1408 1497 1760 1523 1965 1536 
L 1965 887 
z
" transform="scale(0.015625)"/>
       <path id="CMR17-74" d="M 966 2585 
L 1862 2585 
L 1862 2752 
L 966 2752 
L 966 3968 
L 851 3968 
C 838 3292 614 2700 70 2687 
L 70 2585 
L 627 2585 
L 627 778 
C 627 655 627 -64 1370 -64 
C 1747 -64 1965 308 1965 784 
L 1965 1151 
L 1850 1151 
L 1850 790 
C 1850 347 1677 51 1408 51 
C 1222 51 966 179 966 765 
L 966 2585 
z
" transform="scale(0.015625)"/>
       <path id="CMR17-69" d="M 992 3961 
C 992 4102 877 4224 730 4224 
C 589 4224 467 4108 467 3961 
C 467 3820 582 3699 730 3699 
C 870 3699 992 3814 992 3961 
z
M 243 2745 
L 243 2579 
C 602 2579 653 2540 653 2231 
L 653 443 
C 653 198 627 166 218 166 
L 218 0 
C 371 12 646 12 806 12 
C 960 12 1222 12 1370 0 
L 1370 166 
C 992 166 979 205 979 436 
L 979 2816 
L 243 2745 
z
" transform="scale(0.015625)"/>
       <path id="CMR17-6c" d="M 979 4416 
L 218 4345 
L 218 4179 
C 595 4179 653 4141 653 3835 
L 653 439 
C 653 198 627 166 218 166 
L 218 0 
C 371 12 653 12 813 12 
C 979 12 1261 12 1414 0 
L 1414 166 
C 1005 166 979 191 979 439 
L 979 4416 
z
" transform="scale(0.015625)"/>
      </defs>
      <use xlink:href="#CMR17-72" transform="scale(0.996264)"/>
      <use xlink:href="#CMR17-61" transform="translate(35.280768 0) scale(0.996264)"/>
      <use xlink:href="#CMR17-74" transform="translate(80.971245 0) scale(0.996264)"/>
      <use xlink:href="#CMR17-69" transform="translate(116.252013 0) scale(0.996264)"/>
      <use xlink:href="#CMR17-6f" transform="translate(141.123071 0) scale(0.996264)"/>
      <use xlink:href="#CMR17-6e" transform="translate(186.813548 0) scale(0.996264)"/>
      <use xlink:href="#CMR17-61" transform="translate(237.708918 0) scale(0.996264)"/>
      <use xlink:href="#CMR17-6c" transform="translate(283.399395 0) scale(0.996264)"/>
     </g>
    </g>
    <g id="line2d_46">
     <path d="M 271.088811 177.520576 
L 289.088811 177.520576 
L 307.088811 177.520576 
" style="fill: none"/>
     <g>
      <use xlink:href="#mb69f6d7b8d" x="289.088811" y="177.520576" style="fill: #1f77b4; stroke: #1f77b4"/>
     </g>
    </g>
    <g id="text_13">
     <!-- matrix -->
     <g transform="translate(321.488811 183.820576) scale(0.18 -0.18)">
      <defs>
       <path id="CMR17-6d" d="M 4326 1954 
C 4326 2276 4269 2816 3507 2816 
C 3072 2816 2771 2520 2656 2173 
L 2650 2173 
C 2573 2700 2195 2816 1837 2816 
C 1331 2816 1069 2424 973 2166 
L 966 2166 
L 966 2816 
L 211 2745 
L 211 2578 
C 589 2578 646 2540 646 2231 
L 646 443 
C 646 198 621 166 211 166 
L 211 0 
C 365 12 646 12 813 12 
C 979 12 1267 12 1421 0 
L 1421 166 
C 1011 166 986 192 986 443 
L 986 1678 
C 986 2269 1344 2713 1792 2713 
C 2266 2713 2317 2289 2317 1980 
L 2317 443 
C 2317 198 2291 166 1882 166 
L 1882 0 
C 2035 12 2317 12 2483 12 
C 2650 12 2938 12 3091 0 
L 3091 166 
C 2682 166 2656 192 2656 443 
L 2656 1678 
C 2656 2269 3014 2713 3462 2713 
C 3936 2713 3987 2289 3987 1980 
L 3987 443 
C 3987 198 3962 166 3552 166 
L 3552 0 
C 3706 12 3987 12 4154 12 
C 4320 12 4608 12 4762 0 
L 4762 166 
C 4352 166 4326 192 4326 443 
L 4326 1954 
z
" transform="scale(0.015625)"/>
       <path id="CMR17-78" d="M 1664 1491 
C 1856 1740 2074 2022 2253 2233 
C 2464 2476 2707 2579 2989 2585 
L 2989 2752 
C 2880 2745 2656 2739 2541 2739 
C 2368 2739 2170 2739 2022 2752 
L 2022 2585 
C 2112 2572 2163 2508 2163 2419 
C 2163 2304 2099 2233 2067 2188 
L 1594 1587 
L 1030 2323 
C 973 2393 973 2406 973 2438 
C 973 2515 1037 2579 1146 2585 
L 1146 2752 
C 992 2739 717 2739 557 2739 
C 384 2739 179 2739 38 2752 
L 38 2585 
C 384 2585 461 2560 614 2368 
L 1350 1414 
C 1363 1401 1395 1363 1395 1344 
C 1395 1318 838 633 768 544 
C 480 198 179 172 6 166 
L 6 0 
C 115 6 339 12 454 12 
C 582 12 864 12 979 0 
L 979 166 
C 941 172 838 185 838 332 
C 838 448 890 518 947 595 
L 1478 1248 
L 2035 524 
C 2086 454 2163 358 2163 313 
C 2163 224 2086 172 1984 166 
L 1984 0 
C 2138 12 2413 12 2573 12 
C 2746 12 2950 12 3091 0 
L 3091 166 
C 2771 166 2675 179 2522 377 
L 1664 1491 
z
" transform="scale(0.015625)"/>
      </defs>
      <use xlink:href="#CMR17-6d" transform="scale(0.996264)"/>
      <use xlink:href="#CMR17-61" transform="translate(76.91959 0) scale(0.996264)"/>
      <use xlink:href="#CMR17-74" transform="translate(122.610067 0) scale(0.996264)"/>
      <use xlink:href="#CMR17-72" transform="translate(157.890835 0) scale(0.996264)"/>
      <use xlink:href="#CMR17-69" transform="translate(193.171603 0) scale(0.996264)"/>
      <use xlink:href="#CMR17-78" transform="translate(218.042661 0) scale(0.996264)"/>
     </g>
    </g>
    <g id="line2d_47">
     <path d="M 271.088811 202.60864 
L 289.088811 202.60864 
L 307.088811 202.60864 
" style="fill: none"/>
     <g>
      <use xlink:href="#mbc7717eae3" x="289.088811" y="202.60864" style="fill-opacity: 0; stroke: #000000"/>
     </g>
    </g>
    <g id="text_14">
     <!-- simulation -->
     <g transform="translate(321.488811 208.90864) scale(0.18 -0.18)">
      <defs>
       <path id="CMR17-73" d="M 1978 2688 
C 1978 2803 1971 2809 1933 2809 
C 1907 2809 1901 2803 1824 2707 
C 1805 2681 1747 2617 1728 2592 
C 1523 2809 1235 2816 1126 2816 
C 416 2816 160 2444 160 2073 
C 160 1497 813 1363 998 1324 
C 1402 1241 1542 1216 1677 1100 
C 1760 1024 1901 883 1901 652 
C 1901 384 1747 38 1158 38 
C 602 38 403 460 288 1024 
C 269 1113 269 1120 218 1120 
C 166 1120 160 1113 160 985 
L 160 64 
C 160 -52 166 -58 205 -58 
C 237 -58 243 -52 275 0 
C 314 57 410 211 448 275 
C 576 102 800 -64 1158 -64 
C 1792 -64 2131 281 2131 780 
C 2131 1107 1958 1280 1875 1356 
C 1683 1555 1459 1600 1190 1651 
C 838 1728 390 1817 390 2208 
C 390 2374 480 2726 1126 2726 
C 1811 2726 1850 2086 1862 1881 
C 1869 1849 1901 1843 1920 1843 
C 1978 1843 1978 1862 1978 1971 
L 1978 2688 
z
" transform="scale(0.015625)"/>
      </defs>
      <use xlink:href="#CMR17-73" transform="scale(0.996264)"/>
      <use xlink:href="#CMR17-69" transform="translate(35.801338 0) scale(0.996264)"/>
      <use xlink:href="#CMR17-6d" transform="translate(60.672396 0) scale(0.996264)"/>
      <use xlink:href="#CMR17-75" transform="translate(134.989532 0) scale(0.996264)"/>
      <use xlink:href="#CMR17-6c" transform="translate(185.884902 0) scale(0.996264)"/>
      <use xlink:href="#CMR17-61" transform="translate(210.75596 0) scale(0.996264)"/>
      <use xlink:href="#CMR17-74" transform="translate(256.446437 0) scale(0.996264)"/>
      <use xlink:href="#CMR17-69" transform="translate(291.727205 0) scale(0.996264)"/>
      <use xlink:href="#CMR17-6f" transform="translate(316.598264 0) scale(0.996264)"/>
      <use xlink:href="#CMR17-6e" transform="translate(362.288741 0) scale(0.996264)"/>
     </g>
    </g>
   </g>
  </g>
 </g>
 <defs>
  <clipPath id="pafd4ddbf66">
   <rect x="63.208257" y="10.8" width="348.853648" height="217.796704"/>
  </clipPath>
 </defs>
</svg>
