<?xml version="1.0" encoding="utf-8" standalone="no"?>
<!DOCTYPE svg PUBLIC "-//W3C//DTD SVG 1.1//EN"
  "http://www.w3.org/Graphics/SVG/1.1/DTD/svg11.dtd">
<svg xmlns:xlink="http://www.w3.org/1999/xlink" width="432pt" height="288pt" viewBox="0 0 432 288" xmlns="http://www.w3.org/2000/svg" version="1.1">
 <metadata>
  <rdf:RDF xmlns:dc="http://purl.org/dc/elements/1.1/" xmlns:cc="http://creativecommons.org/ns#" xmlns:rdf="http://www.w3.org/1999/02/22-rdf-syntax-ns#">
   <cc:Work>
    <dc:type rdf:resource="http://purl.org/dc/dcmitype/StillImage"/>
    <dc:date>2024-05-08T18:16:31.617278</dc:date>
    <dc:format>image/svg+xml</dc:format>
    <dc:creator>
     <cc:Agent>
      <dc:title>Matplotlib v3.7.1, https://matplotlib.org/</dc:title>
     </cc:Agent>
    </dc:creator>
   </cc:Work>
  </rdf:RDF>
 </metadata>
 <defs>
  <style type="text/css">*{stroke-linejoin: round; stroke-linecap: butt}</style>
 </defs>
 <g id="figure_1">
  <g id="patch_1">
   <path d="M 0 288 
L 432 288 
L 432 0 
L 0 0 
L 0 288 
z
" style="fill: none"/>
  </g>
  <g id="axes_1">
   <g id="patch_2">
    <path d="M 99.760638 228.596704 
L 412.061905 228.596704 
L 412.061905 17.718498 
L 99.760638 17.718498 
z
" style="fill: #ffffff"/>
   </g>
   <g id="matplotlib.axis_1">
    <g id="xtick_1">
     <g id="line2d_1">
      <defs>
       <path id="meb15345008" d="M 0 0 
L 0 3.5 
" style="stroke: #000000; stroke-width: 0.8"/>
      </defs>
      <g>
       <use xlink:href="#meb15345008" x="99.760638" y="228.596704" style="stroke: #000000; stroke-width: 0.8"/>
      </g>
     </g>
     <g id="text_1">
      <!-- 0.001 -->
      <g transform="translate(78.997345 249.433701) scale(0.2 -0.2)">
       <defs>
        <path id="CMR17-30" d="M 2688 2038 
C 2688 2430 2682 3099 2413 3613 
C 2176 4063 1798 4224 1466 4224 
C 1158 4224 768 4082 525 3620 
C 269 3137 243 2539 243 2038 
C 243 1671 250 1112 448 623 
C 723 -39 1216 -128 1466 -128 
C 1760 -128 2208 -7 2470 604 
C 2662 1048 2688 1568 2688 2038 
z
M 1466 -26 
C 1056 -26 813 328 723 816 
C 653 1196 653 1749 653 2109 
C 653 2604 653 3015 736 3407 
C 858 3954 1216 4121 1466 4121 
C 1728 4121 2067 3947 2189 3420 
C 2272 3054 2278 2623 2278 2109 
C 2278 1691 2278 1176 2202 797 
C 2067 96 1690 -26 1466 -26 
z
" transform="scale(0.015625)"/>
        <path id="CMR17-2e" d="M 1062 262 
C 1062 422 934 524 800 524 
C 672 524 538 422 538 262 
C 538 102 666 0 800 0 
C 928 0 1062 102 1062 262 
z
" transform="scale(0.015625)"/>
        <path id="CMR17-31" d="M 1702 4083 
C 1702 4217 1696 4224 1606 4224 
C 1357 3927 979 3833 621 3820 
C 602 3820 570 3820 563 3808 
C 557 3795 557 3782 557 3648 
C 755 3648 1088 3686 1344 3839 
L 1344 467 
C 1344 243 1331 166 781 166 
L 589 166 
L 589 0 
C 896 6 1216 12 1523 12 
C 1830 12 2150 6 2458 0 
L 2458 166 
L 2266 166 
C 1715 166 1702 236 1702 467 
L 1702 4083 
z
" transform="scale(0.015625)"/>
       </defs>
       <use xlink:href="#CMR17-30" transform="scale(0.996264)"/>
       <use xlink:href="#CMR17-2e" transform="translate(45.690477 0) scale(0.996264)"/>
       <use xlink:href="#CMR17-30" transform="translate(70.561536 0) scale(0.996264)"/>
       <use xlink:href="#CMR17-30" transform="translate(116.252013 0) scale(0.996264)"/>
       <use xlink:href="#CMR17-31" transform="translate(161.94249 0) scale(0.996264)"/>
      </g>
     </g>
    </g>
    <g id="xtick_2">
     <g id="line2d_2">
      <g>
       <use xlink:href="#meb15345008" x="255.911271" y="228.596704" style="stroke: #000000; stroke-width: 0.8"/>
      </g>
     </g>
     <g id="text_2">
      <!-- 0.1 -->
      <g transform="translate(244.286073 249.433701) scale(0.2 -0.2)">
       <use xlink:href="#CMR17-30" transform="scale(0.996264)"/>
       <use xlink:href="#CMR17-2e" transform="translate(45.690477 0) scale(0.996264)"/>
       <use xlink:href="#CMR17-31" transform="translate(70.561536 0) scale(0.996264)"/>
      </g>
     </g>
    </g>
    <g id="xtick_3">
     <g id="line2d_3">
      <g>
       <use xlink:href="#meb15345008" x="412.061905" y="228.596704" style="stroke: #000000; stroke-width: 0.8"/>
      </g>
     </g>
     <g id="text_3">
      <!-- 10 -->
      <g transform="translate(402.923809 249.433701) scale(0.2 -0.2)">
       <use xlink:href="#CMR17-31" transform="scale(0.996264)"/>
       <use xlink:href="#CMR17-30" transform="translate(45.690477 0) scale(0.996264)"/>
      </g>
     </g>
    </g>
    <g id="xtick_4">
     <g id="line2d_4">
      <defs>
       <path id="me2412635c1" d="M 0 0 
L 0 2 
" style="stroke: #000000; stroke-width: 0.6"/>
      </defs>
      <g>
       <use xlink:href="#me2412635c1" x="123.263651" y="228.596704" style="stroke: #000000; stroke-width: 0.6"/>
      </g>
     </g>
    </g>
    <g id="xtick_5">
     <g id="line2d_5">
      <g>
       <use xlink:href="#me2412635c1" x="137.012031" y="228.596704" style="stroke: #000000; stroke-width: 0.6"/>
      </g>
     </g>
    </g>
    <g id="xtick_6">
     <g id="line2d_6">
      <g>
       <use xlink:href="#me2412635c1" x="146.766663" y="228.596704" style="stroke: #000000; stroke-width: 0.6"/>
      </g>
     </g>
    </g>
    <g id="xtick_7">
     <g id="line2d_7">
      <g>
       <use xlink:href="#me2412635c1" x="154.332943" y="228.596704" style="stroke: #000000; stroke-width: 0.6"/>
      </g>
     </g>
    </g>
    <g id="xtick_8">
     <g id="line2d_8">
      <g>
       <use xlink:href="#me2412635c1" x="160.515044" y="228.596704" style="stroke: #000000; stroke-width: 0.6"/>
      </g>
     </g>
    </g>
    <g id="xtick_9">
     <g id="line2d_9">
      <g>
       <use xlink:href="#me2412635c1" x="165.741935" y="228.596704" style="stroke: #000000; stroke-width: 0.6"/>
      </g>
     </g>
    </g>
    <g id="xtick_10">
     <g id="line2d_10">
      <g>
       <use xlink:href="#me2412635c1" x="170.269675" y="228.596704" style="stroke: #000000; stroke-width: 0.6"/>
      </g>
     </g>
    </g>
    <g id="xtick_11">
     <g id="line2d_11">
      <g>
       <use xlink:href="#me2412635c1" x="174.263424" y="228.596704" style="stroke: #000000; stroke-width: 0.6"/>
      </g>
     </g>
    </g>
    <g id="xtick_12">
     <g id="line2d_12">
      <g>
       <use xlink:href="#me2412635c1" x="201.338967" y="228.596704" style="stroke: #000000; stroke-width: 0.6"/>
      </g>
     </g>
    </g>
    <g id="xtick_13">
     <g id="line2d_13">
      <g>
       <use xlink:href="#me2412635c1" x="215.087348" y="228.596704" style="stroke: #000000; stroke-width: 0.6"/>
      </g>
     </g>
    </g>
    <g id="xtick_14">
     <g id="line2d_14">
      <g>
       <use xlink:href="#me2412635c1" x="224.841979" y="228.596704" style="stroke: #000000; stroke-width: 0.6"/>
      </g>
     </g>
    </g>
    <g id="xtick_15">
     <g id="line2d_15">
      <g>
       <use xlink:href="#me2412635c1" x="232.408259" y="228.596704" style="stroke: #000000; stroke-width: 0.6"/>
      </g>
     </g>
    </g>
    <g id="xtick_16">
     <g id="line2d_16">
      <g>
       <use xlink:href="#me2412635c1" x="238.59036" y="228.596704" style="stroke: #000000; stroke-width: 0.6"/>
      </g>
     </g>
    </g>
    <g id="xtick_17">
     <g id="line2d_17">
      <g>
       <use xlink:href="#me2412635c1" x="243.817252" y="228.596704" style="stroke: #000000; stroke-width: 0.6"/>
      </g>
     </g>
    </g>
    <g id="xtick_18">
     <g id="line2d_18">
      <g>
       <use xlink:href="#me2412635c1" x="248.344992" y="228.596704" style="stroke: #000000; stroke-width: 0.6"/>
      </g>
     </g>
    </g>
    <g id="xtick_19">
     <g id="line2d_19">
      <g>
       <use xlink:href="#me2412635c1" x="252.338741" y="228.596704" style="stroke: #000000; stroke-width: 0.6"/>
      </g>
     </g>
    </g>
    <g id="xtick_20">
     <g id="line2d_20">
      <g>
       <use xlink:href="#me2412635c1" x="279.414284" y="228.596704" style="stroke: #000000; stroke-width: 0.6"/>
      </g>
     </g>
    </g>
    <g id="xtick_21">
     <g id="line2d_21">
      <g>
       <use xlink:href="#me2412635c1" x="293.162664" y="228.596704" style="stroke: #000000; stroke-width: 0.6"/>
      </g>
     </g>
    </g>
    <g id="xtick_22">
     <g id="line2d_22">
      <g>
       <use xlink:href="#me2412635c1" x="302.917296" y="228.596704" style="stroke: #000000; stroke-width: 0.6"/>
      </g>
     </g>
    </g>
    <g id="xtick_23">
     <g id="line2d_23">
      <g>
       <use xlink:href="#me2412635c1" x="310.483576" y="228.596704" style="stroke: #000000; stroke-width: 0.6"/>
      </g>
     </g>
    </g>
    <g id="xtick_24">
     <g id="line2d_24">
      <g>
       <use xlink:href="#me2412635c1" x="316.665677" y="228.596704" style="stroke: #000000; stroke-width: 0.6"/>
      </g>
     </g>
    </g>
    <g id="xtick_25">
     <g id="line2d_25">
      <g>
       <use xlink:href="#me2412635c1" x="321.892568" y="228.596704" style="stroke: #000000; stroke-width: 0.6"/>
      </g>
     </g>
    </g>
    <g id="xtick_26">
     <g id="line2d_26">
      <g>
       <use xlink:href="#me2412635c1" x="326.420308" y="228.596704" style="stroke: #000000; stroke-width: 0.6"/>
      </g>
     </g>
    </g>
    <g id="xtick_27">
     <g id="line2d_27">
      <g>
       <use xlink:href="#me2412635c1" x="330.414057" y="228.596704" style="stroke: #000000; stroke-width: 0.6"/>
      </g>
     </g>
    </g>
    <g id="xtick_28">
     <g id="line2d_28">
      <g>
       <use xlink:href="#me2412635c1" x="357.4896" y="228.596704" style="stroke: #000000; stroke-width: 0.6"/>
      </g>
     </g>
    </g>
    <g id="xtick_29">
     <g id="line2d_29">
      <g>
       <use xlink:href="#me2412635c1" x="371.237981" y="228.596704" style="stroke: #000000; stroke-width: 0.6"/>
      </g>
     </g>
    </g>
    <g id="xtick_30">
     <g id="line2d_30">
      <g>
       <use xlink:href="#me2412635c1" x="380.992612" y="228.596704" style="stroke: #000000; stroke-width: 0.6"/>
      </g>
     </g>
    </g>
    <g id="xtick_31">
     <g id="line2d_31">
      <g>
       <use xlink:href="#me2412635c1" x="388.558892" y="228.596704" style="stroke: #000000; stroke-width: 0.6"/>
      </g>
     </g>
    </g>
    <g id="xtick_32">
     <g id="line2d_32">
      <g>
       <use xlink:href="#me2412635c1" x="394.740993" y="228.596704" style="stroke: #000000; stroke-width: 0.6"/>
      </g>
     </g>
    </g>
    <g id="xtick_33">
     <g id="line2d_33">
      <g>
       <use xlink:href="#me2412635c1" x="399.967885" y="228.596704" style="stroke: #000000; stroke-width: 0.6"/>
      </g>
     </g>
    </g>
    <g id="xtick_34">
     <g id="line2d_34">
      <g>
       <use xlink:href="#me2412635c1" x="404.495625" y="228.596704" style="stroke: #000000; stroke-width: 0.6"/>
      </g>
     </g>
    </g>
    <g id="xtick_35">
     <g id="line2d_35">
      <g>
       <use xlink:href="#me2412635c1" x="408.489374" y="228.596704" style="stroke: #000000; stroke-width: 0.6"/>
      </g>
     </g>
    </g>
    <g id="text_4">
     <!-- Frequency (Hz) -->
     <g transform="translate(194.162665 272.235356) scale(0.2 -0.2)">
      <defs>
       <path id="CMR17-46" d="M 3482 4339 
L 326 4339 
L 326 4172 
C 768 4172 838 4172 838 3883 
L 838 450 
C 838 166 768 166 326 166 
L 326 0 
C 512 12 870 12 1069 12 
C 1331 12 1638 12 1901 0 
L 1901 166 
L 1760 166 
C 1274 166 1261 229 1261 456 
L 1261 2073 
L 1837 2073 
C 2432 2073 2490 1865 2490 1334 
L 2605 1334 
L 2605 2991 
L 2490 2991 
C 2490 2451 2432 2240 1837 2240 
L 1261 2240 
L 1261 3922 
C 1261 4140 1274 4172 1530 4172 
L 2355 4172 
C 3322 4172 3430 3774 3520 2920 
L 3635 2920 
L 3482 4339 
z
" transform="scale(0.015625)"/>
       <path id="CMR17-72" d="M 960 1517 
C 960 2134 1222 2713 1702 2713 
C 1747 2713 1792 2707 1837 2687 
C 1837 2687 1696 2642 1696 2475 
C 1696 2321 1818 2257 1914 2257 
C 1990 2257 2131 2302 2131 2482 
C 2131 2687 1926 2816 1709 2816 
C 1222 2816 1011 2340 947 2115 
L 941 2115 
L 941 2816 
L 198 2745 
L 198 2578 
C 576 2578 634 2540 634 2231 
L 634 443 
C 634 198 608 166 198 166 
L 198 0 
C 352 12 646 12 813 12 
C 998 12 1325 12 1498 0 
L 1498 166 
C 1037 166 960 166 960 455 
L 960 1517 
z
" transform="scale(0.015625)"/>
       <path id="CMR17-65" d="M 2438 1503 
C 2464 1529 2464 1542 2464 1606 
C 2464 2251 2118 2816 1389 2816 
C 710 2816 173 2175 173 1394 
C 173 554 781 -64 1459 -64 
C 2176 -64 2458 619 2458 755 
C 2458 800 2419 800 2406 800 
C 2362 800 2355 787 2330 709 
C 2189 270 1837 51 1504 51 
C 1229 51 954 206 781 490 
C 582 819 582 1200 582 1503 
L 2438 1503 
z
M 589 1600 
C 634 2511 1126 2713 1382 2713 
C 1818 2713 2112 2308 2118 1600 
L 589 1600 
z
" transform="scale(0.015625)"/>
       <path id="CMR17-71" d="M 2630 2816 
L 2528 2816 
L 2336 2177 
C 2189 2519 1920 2816 1491 2816 
C 838 2816 211 2228 211 1376 
C 211 529 800 -64 1440 -64 
C 1933 -64 2208 316 2291 458 
L 2291 -834 
C 2291 -1081 2266 -1114 1856 -1114 
L 1856 -1280 
C 2010 -1268 2291 -1268 2458 -1268 
C 2624 -1268 2912 -1268 3066 -1280 
L 3066 -1114 
C 2656 -1114 2630 -1088 2630 -834 
L 2630 2816 
z
M 2304 871 
C 2304 594 2074 335 2054 316 
C 1856 90 1626 38 1472 38 
C 992 38 621 652 621 1369 
C 621 2125 1043 2700 1536 2700 
C 2048 2700 2304 2112 2304 1776 
L 2304 871 
z
" transform="scale(0.015625)"/>
       <path id="CMR17-75" d="M 1882 2745 
L 1882 2579 
C 2259 2579 2317 2540 2317 2229 
L 2317 1053 
C 2317 510 2029 38 1555 38 
C 1030 38 986 355 986 691 
L 986 2816 
L 211 2745 
L 211 2579 
C 467 2579 640 2579 646 2320 
L 646 1079 
C 646 646 646 368 813 187 
C 896 103 1056 -64 1517 -64 
C 2061 -64 2272 400 2323 536 
L 2330 536 
L 2330 -64 
L 3091 -13 
L 3091 154 
C 2714 154 2656 193 2656 503 
L 2656 2816 
L 1882 2745 
z
" transform="scale(0.015625)"/>
       <path id="CMR17-6e" d="M 2656 1954 
C 2656 2282 2592 2816 1837 2816 
C 1331 2816 1069 2424 973 2166 
L 966 2166 
L 966 2816 
L 211 2745 
L 211 2578 
C 589 2578 646 2540 646 2231 
L 646 443 
C 646 198 621 166 211 166 
L 211 0 
C 365 12 646 12 813 12 
C 979 12 1267 12 1421 0 
L 1421 166 
C 1011 166 986 192 986 443 
L 986 1678 
C 986 2269 1344 2713 1792 2713 
C 2266 2713 2317 2289 2317 1980 
L 2317 443 
C 2317 198 2291 166 1882 166 
L 1882 0 
C 2035 12 2317 12 2483 12 
C 2650 12 2938 12 3091 0 
L 3091 166 
C 2682 166 2656 192 2656 443 
L 2656 1954 
z
" transform="scale(0.015625)"/>
       <path id="CMR17-63" d="M 2234 2240 
C 2112 2240 1933 2240 1933 2015 
C 1933 1836 2080 1785 2163 1785 
C 2208 1785 2394 1804 2394 2028 
C 2394 2476 1958 2816 1466 2816 
C 787 2816 211 2201 211 1379 
C 211 521 813 -64 1466 -64 
C 2259 -64 2458 676 2458 747 
C 2458 773 2451 792 2406 792 
C 2362 792 2355 786 2330 702 
C 2163 180 1798 51 1523 51 
C 1114 51 621 431 621 1385 
C 621 2358 1094 2700 1472 2700 
C 1722 2700 2093 2582 2234 2240 
z
" transform="scale(0.015625)"/>
       <path id="CMR17-79" d="M 2496 2183 
C 2656 2579 2944 2585 3034 2585 
L 3034 2752 
C 2912 2745 2752 2739 2630 2739 
C 2496 2739 2285 2739 2157 2752 
L 2157 2585 
C 2400 2566 2406 2384 2406 2332 
C 2406 2268 2394 2235 2362 2158 
L 1664 409 
L 902 2300 
C 870 2378 870 2423 870 2430 
C 870 2572 1018 2585 1171 2585 
L 1171 2752 
C 1018 2739 742 2739 582 2739 
C 410 2739 205 2739 64 2752 
L 64 2585 
C 410 2585 448 2553 531 2345 
L 1485 -31 
C 1197 -795 1030 -1242 627 -1242 
C 557 -1242 397 -1223 282 -1106 
C 429 -1093 493 -1002 493 -892 
C 493 -782 416 -685 288 -685 
C 147 -685 77 -782 77 -899 
C 77 -1158 339 -1344 627 -1344 
C 998 -1344 1229 -983 1357 -659 
L 2496 2183 
z
" transform="scale(0.015625)"/>
       <path id="CMR17-28" d="M 1958 -1562 
C 1958 -1556 1958 -1543 1939 -1524 
C 1645 -1223 858 -403 858 1596 
C 858 3595 1632 4408 1946 4729 
C 1946 4735 1958 4748 1958 4767 
C 1958 4787 1939 4800 1914 4800 
C 1843 4800 1299 4325 986 3620 
C 666 2909 576 2218 576 1603 
C 576 1141 621 360 1005 -467 
C 1312 -1133 1837 -1600 1914 -1600 
C 1946 -1600 1958 -1588 1958 -1562 
z
" transform="scale(0.015625)"/>
       <path id="CMR17-48" d="M 3590 3898 
C 3590 4185 3661 4185 4102 4185 
L 4102 4352 
C 3917 4339 3578 4339 3379 4339 
C 3181 4339 2842 4339 2656 4352 
L 2656 4185 
C 3098 4185 3168 4185 3168 3898 
L 3168 2342 
L 1261 2342 
L 1261 3898 
C 1261 4185 1331 4185 1773 4185 
L 1773 4352 
C 1587 4339 1248 4339 1050 4339 
C 851 4339 512 4339 326 4352 
L 326 4185 
C 768 4185 838 4185 838 3898 
L 838 452 
C 838 166 768 166 326 166 
L 326 0 
C 512 12 851 12 1050 12 
C 1248 12 1587 12 1773 0 
L 1773 166 
C 1331 166 1261 166 1261 452 
L 1261 2176 
L 3168 2176 
L 3168 452 
C 3168 166 3098 166 2656 166 
L 2656 0 
C 2842 12 3181 12 3379 12 
C 3578 12 3917 12 4102 0 
L 4102 166 
C 3661 166 3590 166 3590 452 
L 3590 3898 
z
" transform="scale(0.015625)"/>
       <path id="CMR17-7a" d="M 2310 2604 
C 2362 2668 2362 2681 2362 2694 
C 2362 2752 2336 2752 2221 2752 
L 275 2752 
L 211 1760 
L 326 1760 
C 371 2380 442 2649 1178 2649 
L 1958 2649 
L 128 96 
C 128 6 134 0 269 0 
L 2291 0 
L 2381 1152 
L 2266 1152 
C 2214 441 2131 115 1350 115 
L 531 115 
L 2310 2604 
z
" transform="scale(0.015625)"/>
       <path id="CMR17-29" d="M 1683 1596 
C 1683 2057 1638 2839 1254 3665 
C 947 4332 422 4800 346 4800 
C 326 4800 301 4793 301 4761 
C 301 4748 307 4742 314 4729 
C 621 4408 1402 3595 1402 1603 
C 1402 -396 627 -1210 314 -1530 
C 307 -1543 301 -1549 301 -1562 
C 301 -1594 326 -1600 346 -1600 
C 416 -1600 960 -1127 1274 -422 
C 1594 289 1683 981 1683 1596 
z
" transform="scale(0.015625)"/>
      </defs>
      <use xlink:href="#CMR17-46" transform="scale(0.996264)"/>
      <use xlink:href="#CMR17-72" transform="translate(52.176591 0) scale(0.996264)"/>
      <use xlink:href="#CMR17-65" transform="translate(87.457359 0) scale(0.996264)"/>
      <use xlink:href="#CMR17-71" transform="translate(127.943019 0) scale(0.996264)"/>
      <use xlink:href="#CMR17-75" transform="translate(176.235935 0) scale(0.996264)"/>
      <use xlink:href="#CMR17-65" transform="translate(227.131305 0) scale(0.996264)"/>
      <use xlink:href="#CMR17-6e" transform="translate(267.616966 0) scale(0.996264)"/>
      <use xlink:href="#CMR17-63" transform="translate(318.512335 0) scale(0.996264)"/>
      <use xlink:href="#CMR17-79" transform="translate(358.997996 0) scale(0.996264)"/>
      <use xlink:href="#CMR17-28" transform="translate(437.366878 0) scale(0.996264)"/>
      <use xlink:href="#CMR17-48" transform="translate(472.647646 0) scale(0.996264)"/>
      <use xlink:href="#CMR17-7a" transform="translate(541.720076 0) scale(0.996264)"/>
      <use xlink:href="#CMR17-29" transform="translate(582.205736 0) scale(0.996264)"/>
     </g>
    </g>
   </g>
   <g id="matplotlib.axis_2">
    <g id="ytick_1">
     <g id="line2d_36">
      <defs>
       <path id="m92dc415810" d="M 0 0 
L -3.5 0 
" style="stroke: #000000; stroke-width: 0.8"/>
      </defs>
      <g>
       <use xlink:href="#m92dc415810" x="99.760638" y="228.596704" style="stroke: #000000; stroke-width: 0.8"/>
      </g>
     </g>
     <g id="text_5">
      <!-- $\mathdefault{0.00000}$ -->
      <g transform="translate(32.51263 235.515202) scale(0.2 -0.2)">
       <defs>
        <path id="CMMI12-3a" d="M 1178 307 
C 1178 492 1024 620 870 620 
C 685 620 557 467 557 313 
C 557 128 710 0 864 0 
C 1050 0 1178 153 1178 307 
z
" transform="scale(0.015625)"/>
       </defs>
       <use xlink:href="#CMR17-30" transform="scale(0.996264)"/>
       <use xlink:href="#CMMI12-3a" transform="translate(45.690477 0) scale(0.996264)"/>
       <use xlink:href="#CMR17-30" transform="translate(72.787654 0) scale(0.996264)"/>
       <use xlink:href="#CMR17-30" transform="translate(118.478131 0) scale(0.996264)"/>
       <use xlink:href="#CMR17-30" transform="translate(164.168608 0) scale(0.996264)"/>
       <use xlink:href="#CMR17-30" transform="translate(209.859086 0) scale(0.996264)"/>
       <use xlink:href="#CMR17-30" transform="translate(255.549563 0) scale(0.996264)"/>
      </g>
     </g>
    </g>
    <g id="ytick_2">
     <g id="line2d_37">
      <g>
       <use xlink:href="#m92dc415810" x="99.760638" y="123.157601" style="stroke: #000000; stroke-width: 0.8"/>
      </g>
     </g>
     <g id="text_6">
      <!-- $\mathdefault{0.00009}$ -->
      <g transform="translate(32.51263 130.0761) scale(0.2 -0.2)">
       <defs>
        <path id="CMR17-39" d="M 2253 1871 
C 2253 448 1670 25 1190 25 
C 1043 25 685 43 538 281 
C 704 256 826 345 826 505 
C 826 678 685 736 595 736 
C 538 736 365 710 365 492 
C 365 68 742 -128 1203 -128 
C 1939 -128 2688 665 2688 2090 
C 2688 3857 1971 4224 1485 4224 
C 851 4224 243 3664 243 2800 
C 243 2000 762 1408 1414 1408 
C 1952 1408 2189 1910 2253 2122 
L 2253 1871 
z
M 1427 1510 
C 1254 1510 1011 1542 813 1929 
C 678 2181 678 2477 678 2793 
C 678 3174 678 3438 858 3722 
C 947 3857 1114 4076 1485 4076 
C 2240 4076 2240 2909 2240 2651 
C 2240 2193 2035 1510 1427 1510 
z
" transform="scale(0.015625)"/>
       </defs>
       <use xlink:href="#CMR17-30" transform="scale(0.996264)"/>
       <use xlink:href="#CMMI12-3a" transform="translate(45.690477 0) scale(0.996264)"/>
       <use xlink:href="#CMR17-30" transform="translate(72.787654 0) scale(0.996264)"/>
       <use xlink:href="#CMR17-30" transform="translate(118.478131 0) scale(0.996264)"/>
       <use xlink:href="#CMR17-30" transform="translate(164.168608 0) scale(0.996264)"/>
       <use xlink:href="#CMR17-30" transform="translate(209.859086 0) scale(0.996264)"/>
       <use xlink:href="#CMR17-39" transform="translate(255.549563 0) scale(0.996264)"/>
      </g>
     </g>
    </g>
    <g id="ytick_3">
     <g id="line2d_38">
      <g>
       <use xlink:href="#m92dc415810" x="99.760638" y="17.718498" style="stroke: #000000; stroke-width: 0.8"/>
      </g>
     </g>
     <g id="text_7">
      <!-- $\mathdefault{0.00018}$ -->
      <g transform="translate(32.51263 24.636997) scale(0.2 -0.2)">
       <defs>
        <path id="CMR17-38" d="M 1741 2289 
C 2144 2494 2554 2803 2554 3298 
C 2554 3884 1990 4224 1472 4224 
C 890 4224 378 3800 378 3215 
C 378 3054 416 2777 666 2533 
C 730 2469 998 2276 1171 2154 
C 883 2006 211 1652 211 945 
C 211 282 838 -128 1459 -128 
C 2144 -128 2720 366 2720 1022 
C 2720 1607 2330 1877 2074 2051 
L 1741 2289 
z
M 902 2855 
C 851 2887 595 3086 595 3388 
C 595 3781 998 4076 1459 4076 
C 1965 4076 2336 3716 2336 3298 
C 2336 2700 1670 2359 1638 2359 
C 1632 2359 1626 2359 1574 2398 
L 902 2855 
z
M 2080 1536 
C 2176 1466 2483 1253 2483 861 
C 2483 385 2010 25 1472 25 
C 890 25 448 443 448 951 
C 448 1459 838 1884 1280 2083 
L 2080 1536 
z
" transform="scale(0.015625)"/>
       </defs>
       <use xlink:href="#CMR17-30" transform="scale(0.996264)"/>
       <use xlink:href="#CMMI12-3a" transform="translate(45.690477 0) scale(0.996264)"/>
       <use xlink:href="#CMR17-30" transform="translate(72.787654 0) scale(0.996264)"/>
       <use xlink:href="#CMR17-30" transform="translate(118.478131 0) scale(0.996264)"/>
       <use xlink:href="#CMR17-30" transform="translate(164.168608 0) scale(0.996264)"/>
       <use xlink:href="#CMR17-31" transform="translate(209.859086 0) scale(0.996264)"/>
       <use xlink:href="#CMR17-38" transform="translate(255.549563 0) scale(0.996264)"/>
      </g>
     </g>
    </g>
    <g id="text_8">
     <!-- Cross Power Spectral Density -->
     <g transform="translate(24.636997 241.353853) rotate(-90) scale(0.2 -0.2)">
      <defs>
       <path id="CMR17-43" d="M 3974 4351 
C 3974 4467 3968 4473 3930 4473 
C 3904 4473 3898 4467 3853 4390 
L 3571 3849 
C 3258 4249 2874 4480 2381 4480 
C 1286 4480 294 3507 294 2179 
C 294 837 1286 -128 2387 -128 
C 3366 -128 3974 741 3974 1482 
C 3974 1547 3974 1573 3917 1573 
C 3866 1573 3866 1553 3859 1495 
C 3808 592 3168 38 2477 38 
C 1824 38 781 502 781 2179 
C 781 3862 1843 4313 2464 4313 
C 3187 4313 3712 3681 3834 2785 
C 3846 2707 3846 2695 3904 2695 
C 3974 2695 3974 2707 3974 2824 
L 3974 4351 
z
" transform="scale(0.015625)"/>
       <path id="CMR17-6f" d="M 2758 1356 
C 2758 2176 2163 2816 1466 2816 
C 768 2816 173 2176 173 1356 
C 173 550 768 -64 1466 -64 
C 2163 -64 2758 550 2758 1356 
z
M 1466 51 
C 1165 51 909 230 762 480 
C 602 768 582 1126 582 1408 
C 582 1676 595 2009 762 2297 
C 890 2508 1139 2713 1466 2713 
C 1754 2713 1997 2553 2150 2329 
C 2349 2028 2349 1606 2349 1408 
C 2349 1158 2336 774 2163 467 
C 1984 172 1709 51 1466 51 
z
" transform="scale(0.015625)"/>
       <path id="CMR17-73" d="M 1978 2688 
C 1978 2803 1971 2809 1933 2809 
C 1907 2809 1901 2803 1824 2707 
C 1805 2681 1747 2617 1728 2592 
C 1523 2809 1235 2816 1126 2816 
C 416 2816 160 2444 160 2073 
C 160 1497 813 1363 998 1324 
C 1402 1241 1542 1216 1677 1100 
C 1760 1024 1901 883 1901 652 
C 1901 384 1747 38 1158 38 
C 602 38 403 460 288 1024 
C 269 1113 269 1120 218 1120 
C 166 1120 160 1113 160 985 
L 160 64 
C 160 -52 166 -58 205 -58 
C 237 -58 243 -52 275 0 
C 314 57 410 211 448 275 
C 576 102 800 -64 1158 -64 
C 1792 -64 2131 281 2131 780 
C 2131 1107 1958 1280 1875 1356 
C 1683 1555 1459 1600 1190 1651 
C 838 1728 390 1817 390 2208 
C 390 2374 480 2726 1126 2726 
C 1811 2726 1850 2086 1862 1881 
C 1869 1849 1901 1843 1920 1843 
C 1978 1843 1978 1862 1978 1971 
L 1978 2688 
z
" transform="scale(0.015625)"/>
       <path id="CMR17-50" d="M 1267 2048 
L 2291 2048 
C 3117 2048 3718 2583 3718 3187 
C 3718 3791 3130 4352 2291 4352 
L 333 4352 
L 333 4185 
C 774 4185 845 4185 845 3899 
L 845 453 
C 845 166 774 166 333 166 
L 333 0 
C 518 12 858 12 1056 12 
C 1254 12 1594 12 1779 0 
L 1779 166 
C 1338 166 1267 166 1267 453 
L 1267 2048 
z
M 1254 2182 
L 1254 3937 
C 1254 4153 1267 4185 1523 4185 
L 2170 4185 
C 2995 4185 3232 3715 3232 3187 
C 3232 2608 2950 2182 2170 2182 
L 1254 2182 
z
" transform="scale(0.015625)"/>
       <path id="CMR17-77" d="M 3725 2186 
C 3853 2566 4109 2579 4205 2585 
L 4205 2752 
C 4077 2745 3949 2739 3821 2739 
C 3699 2739 3424 2739 3315 2752 
L 3315 2585 
C 3514 2572 3622 2456 3622 2296 
C 3622 2251 3610 2193 3597 2148 
L 2995 398 
L 2342 2296 
C 2330 2341 2310 2392 2310 2418 
C 2310 2585 2528 2585 2630 2585 
L 2630 2752 
C 2483 2739 2214 2739 2061 2739 
C 1901 2739 1734 2739 1587 2752 
L 1587 2585 
C 1939 2585 1939 2572 2074 2167 
L 1485 443 
L 851 2302 
C 819 2386 819 2399 819 2418 
C 819 2585 1037 2585 1139 2585 
L 1139 2752 
C 986 2739 717 2739 557 2739 
C 416 2739 198 2739 64 2752 
L 64 2585 
C 346 2585 416 2566 486 2353 
L 1274 38 
C 1299 -45 1318 -64 1370 -64 
C 1414 -64 1440 -52 1472 44 
L 2131 1987 
L 2797 44 
C 2829 -52 2854 -64 2899 -64 
C 2950 -64 2970 -45 2995 38 
L 3725 2186 
z
" transform="scale(0.015625)"/>
       <path id="CMR17-53" d="M 2803 4351 
C 2803 4467 2797 4473 2758 4473 
C 2720 4473 2707 4447 2682 4390 
L 2490 3965 
C 2246 4320 1875 4480 1472 4480 
C 819 4480 294 3958 294 3301 
C 294 3101 339 2817 557 2546 
C 794 2250 1018 2198 1530 2063 
C 1722 2011 2042 1927 2106 1901 
C 2470 1747 2662 1360 2662 999 
C 2662 534 2336 38 1779 38 
C 1094 38 454 425 410 1328 
C 403 1431 397 1437 352 1437 
C 301 1437 294 1431 294 1302 
L 294 0 
C 294 -116 301 -122 339 -122 
C 384 -122 397 -90 486 109 
C 493 128 493 141 614 386 
C 934 -39 1472 -128 1779 -128 
C 2477 -128 2970 457 2970 1141 
C 2970 1476 2848 1734 2778 1850 
C 2509 2263 2221 2340 1914 2417 
C 1869 2437 1856 2437 1498 2527 
C 1152 2617 1005 2662 845 2836 
C 666 3036 602 3243 602 3449 
C 602 3868 934 4326 1478 4326 
C 2157 4326 2579 3842 2675 3036 
C 2694 2920 2701 2914 2746 2914 
C 2803 2914 2803 2933 2803 3043 
L 2803 4351 
z
" transform="scale(0.015625)"/>
       <path id="CMR17-70" d="M 1408 -1114 
C 998 -1114 973 -1088 973 -834 
L 973 380 
C 1158 109 1427 -64 1766 -64 
C 2406 -64 3053 503 3053 1382 
C 3053 2196 2496 2816 1837 2816 
C 1453 2816 1139 2603 960 2345 
L 960 2816 
L 198 2745 
L 198 2577 
C 576 2577 634 2539 634 2228 
L 634 -834 
C 634 -1081 608 -1114 198 -1114 
L 198 -1280 
C 352 -1268 634 -1268 800 -1268 
C 966 -1268 1254 -1268 1408 -1280 
L 1408 -1114 
z
M 973 2015 
C 973 2106 973 2241 1222 2481 
C 1254 2506 1472 2700 1792 2700 
C 2259 2700 2643 2112 2643 1376 
C 2643 639 2234 38 1728 38 
C 1498 38 1248 148 1056 451 
C 973 594 973 632 973 736 
L 973 2015 
z
" transform="scale(0.015625)"/>
       <path id="CMR17-74" d="M 966 2585 
L 1862 2585 
L 1862 2752 
L 966 2752 
L 966 3968 
L 851 3968 
C 838 3292 614 2700 70 2687 
L 70 2585 
L 627 2585 
L 627 778 
C 627 655 627 -64 1370 -64 
C 1747 -64 1965 308 1965 784 
L 1965 1151 
L 1850 1151 
L 1850 790 
C 1850 347 1677 51 1408 51 
C 1222 51 966 179 966 765 
L 966 2585 
z
" transform="scale(0.015625)"/>
       <path id="CMR17-61" d="M 2304 1656 
C 2304 2048 2304 2275 2035 2534 
C 1798 2751 1523 2816 1306 2816 
C 800 2816 435 2408 435 1977 
C 435 1740 627 1728 666 1728 
C 749 1728 896 1779 896 1958 
C 896 2118 774 2188 666 2188 
C 640 2188 608 2182 589 2176 
C 723 2594 1069 2713 1293 2713 
C 1613 2713 1965 2421 1965 1875 
L 1965 1632 
C 1587 1619 1133 1568 774 1373 
C 371 1147 256 822 256 576 
C 256 77 832 -64 1171 -64 
C 1523 -64 1850 135 1990 505 
C 2003 219 2182 -39 2464 -39 
C 2598 -39 2938 51 2938 563 
L 2938 926 
L 2822 926 
L 2822 557 
C 2822 161 2650 109 2566 109 
C 2304 109 2304 446 2304 732 
L 2304 1656 
z
M 1965 887 
C 1965 323 1568 38 1216 38 
C 896 38 646 278 646 576 
C 646 771 730 1114 1101 1322 
C 1408 1497 1760 1523 1965 1536 
L 1965 887 
z
" transform="scale(0.015625)"/>
       <path id="CMR17-6c" d="M 979 4416 
L 218 4345 
L 218 4179 
C 595 4179 653 4141 653 3835 
L 653 439 
C 653 198 627 166 218 166 
L 218 0 
C 371 12 653 12 813 12 
C 979 12 1261 12 1414 0 
L 1414 166 
C 1005 166 979 191 979 439 
L 979 4416 
z
" transform="scale(0.015625)"/>
       <path id="CMR17-44" d="M 333 4352 
L 333 4185 
C 774 4185 845 4185 845 3898 
L 845 453 
C 845 166 774 166 333 166 
L 333 0 
L 2368 0 
C 3398 0 4224 943 4224 2140 
C 4224 3344 3411 4352 2368 4352 
L 333 4352 
z
M 1523 166 
C 1267 166 1254 198 1254 414 
L 1254 3936 
C 1254 4153 1267 4185 1523 4185 
L 2240 4185 
C 2771 4185 3750 3873 3750 2140 
C 3750 1242 3488 879 3366 707 
C 3213 510 2848 166 2240 166 
L 1523 166 
z
" transform="scale(0.015625)"/>
       <path id="CMR17-69" d="M 992 3961 
C 992 4102 877 4224 730 4224 
C 589 4224 467 4108 467 3961 
C 467 3820 582 3699 730 3699 
C 870 3699 992 3814 992 3961 
z
M 243 2745 
L 243 2579 
C 602 2579 653 2540 653 2231 
L 653 443 
C 653 198 627 166 218 166 
L 218 0 
C 371 12 646 12 806 12 
C 960 12 1222 12 1370 0 
L 1370 166 
C 992 166 979 205 979 436 
L 979 2816 
L 243 2745 
z
" transform="scale(0.015625)"/>
      </defs>
      <use xlink:href="#CMR17-43" transform="scale(0.996264)"/>
      <use xlink:href="#CMR17-72" transform="translate(66.509881 0) scale(0.996264)"/>
      <use xlink:href="#CMR17-6f" transform="translate(101.790648 0) scale(0.996264)"/>
      <use xlink:href="#CMR17-73" transform="translate(147.481125 0) scale(0.996264)"/>
      <use xlink:href="#CMR17-73" transform="translate(183.282463 0) scale(0.996264)"/>
      <use xlink:href="#CMR17-50" transform="translate(249.159767 0) scale(0.996264)"/>
      <use xlink:href="#CMR17-6f" transform="translate(309.143614 0) scale(0.996264)"/>
      <use xlink:href="#CMR17-77" transform="translate(352.231637 0) scale(0.996264)"/>
      <use xlink:href="#CMR17-65" transform="translate(416.139063 0) scale(0.996264)"/>
      <use xlink:href="#CMR17-72" transform="translate(456.624724 0) scale(0.996264)"/>
      <use xlink:href="#CMR17-53" transform="translate(521.981458 0) scale(0.996264)"/>
      <use xlink:href="#CMR17-70" transform="translate(572.876828 0) scale(0.996264)"/>
      <use xlink:href="#CMR17-65" transform="translate(626.374636 0) scale(0.996264)"/>
      <use xlink:href="#CMR17-63" transform="translate(666.860297 0) scale(0.996264)"/>
      <use xlink:href="#CMR17-74" transform="translate(707.345957 0) scale(0.996264)"/>
      <use xlink:href="#CMR17-72" transform="translate(742.626725 0) scale(0.996264)"/>
      <use xlink:href="#CMR17-61" transform="translate(777.907493 0) scale(0.996264)"/>
      <use xlink:href="#CMR17-6c" transform="translate(823.59797 0) scale(0.996264)"/>
      <use xlink:href="#CMR17-44" transform="translate(878.544995 0) scale(0.996264)"/>
      <use xlink:href="#CMR17-65" transform="translate(948.938551 0) scale(0.996264)"/>
      <use xlink:href="#CMR17-6e" transform="translate(989.424211 0) scale(0.996264)"/>
      <use xlink:href="#CMR17-73" transform="translate(1040.319581 0) scale(0.996264)"/>
      <use xlink:href="#CMR17-69" transform="translate(1076.120919 0) scale(0.996264)"/>
      <use xlink:href="#CMR17-74" transform="translate(1100.991977 0) scale(0.996264)"/>
      <use xlink:href="#CMR17-79" transform="translate(1133.670291 0) scale(0.996264)"/>
     </g>
    </g>
   </g>
   <g id="line2d_39">
    <path d="M 99.76064 228.410869 
L 132.585095 228.105276 
L 157.594206 227.54543 
L 174.16274 226.794783 
L 184.166387 226.011202 
L 189.793436 225.354424 
L 194.482643 224.604787 
L 198.234011 223.796356 
L 201.360149 222.906431 
L 204.173675 221.853026 
L 206.674586 220.614405 
L 208.55027 219.424524 
L 210.113338 218.186877 
L 211.676407 216.6561 
L 212.926863 215.140849 
L 214.177318 213.281235 
L 215.427774 210.988232 
L 216.365616 208.864598 
L 217.303455 206.279844 
L 218.241298 203.170766 
L 219.179139 199.25344 
L 220.116982 194.352589 
L 221.054825 188.13628 
L 221.992666 179.960941 
L 222.930509 169.271009 
L 223.86835 155.034963 
L 224.80619 136.118177 
L 225.744031 111.700872 
L 227.932328 48.550581 
L 228.244942 43.889015 
L 228.557556 41.638443 
L 228.870172 42.182299 
L 229.182785 45.448621 
L 229.4954 51.305541 
L 230.120626 69.109913 
L 232.308924 141.472993 
L 233.246765 163.374618 
L 234.184606 179.300991 
L 235.122448 190.764874 
L 236.060289 199.074877 
L 236.998131 205.184712 
L 237.935973 209.751818 
L 238.873816 213.241496 
L 239.811656 215.945696 
L 240.749498 218.058567 
L 241.68734 219.749028 
L 242.937797 221.496481 
L 244.188251 222.827995 
L 245.438707 223.862056 
L 247.001776 224.849769 
L 248.564846 225.597286 
L 250.440527 226.269338 
L 252.941439 226.906095 
L 256.067578 227.436459 
L 260.131558 227.864092 
L 265.445994 228.180506 
L 273.261341 228.406463 
L 286.703738 228.54335 
L 319.84081 228.594016 
L 412.061905 228.596703 
L 412.061905 228.596703 
" clip-path="url(#pb7380203ce)" style="fill: none; stroke: #ff7f0e; stroke-width: 4; stroke-linecap: square"/>
   </g>
   <g id="line2d_40">
    <path d="M 99.76064 228.410869 
L 102.915198 228.39272 
L 106.069756 228.372787 
L 109.224313 228.350894 
L 112.37887 228.326842 
L 115.533429 228.300415 
L 118.687989 228.27137 
L 121.842547 228.239441 
L 124.997103 228.204328 
L 128.151664 228.165699 
L 131.306222 228.123181 
L 134.46078 228.076356 
L 137.615338 228.024749 
L 140.769896 227.967826 
L 143.924454 227.904974 
L 147.079014 227.83549 
L 150.23357 227.758561 
L 153.388127 227.67324 
L 156.542686 227.578407 
L 159.697244 227.472735 
L 162.851803 227.354623 
L 166.006362 227.222123 
L 169.16092 227.072828 
L 172.315478 226.903723 
L 175.470036 226.710976 
L 178.624595 226.489628 
L 181.779153 226.233154 
L 184.933711 225.932792 
L 188.08827 225.576522 
L 191.242827 225.147461 
L 194.397385 224.621228 
L 197.551944 223.961511 
L 200.706501 223.112192 
L 203.86106 221.982691 
L 207.015619 220.418848 
L 210.170177 218.140595 
L 213.324735 214.595452 
L 216.479295 208.572467 
L 219.633852 197.035551 
L 222.788411 171.122094 
L 225.942967 105.87865 
L 229.097527 44.307625 
L 232.252085 139.997049 
L 235.406643 193.544653 
L 238.561202 212.185843 
L 241.715758 219.792992 
L 244.870318 223.423216 
L 248.024875 225.361838 
L 251.179436 226.483443 
L 254.333994 227.171371 
L 257.488552 227.612125 
L 260.643108 227.904071 
L 263.797666 228.102509 
L 266.952225 228.240153 
L 270.106785 228.337179 
L 273.261341 228.406463 
L 276.415901 228.456455 
L 279.570457 228.492832 
L 282.725017 228.519484 
L 285.879575 228.539122 
L 289.034134 228.553657 
L 292.188691 228.564458 
L 295.343249 228.572507 
L 298.497807 228.578522 
L 301.652365 228.583026 
L 304.806924 228.586404 
L 307.961483 228.588942 
L 311.116039 228.590851 
L 314.270599 228.592288 
L 317.425157 228.59337 
L 320.579715 228.594187 
L 323.734274 228.594803 
L 326.888832 228.595267 
L 330.043391 228.595618 
L 333.197948 228.595883 
L 336.352505 228.596084 
L 339.507064 228.596235 
L 342.661624 228.596349 
L 345.816181 228.596436 
L 348.970739 228.596501 
L 352.125298 228.596551 
L 355.279857 228.596588 
L 358.434415 228.596616 
L 361.588973 228.596638 
L 364.74353 228.596654 
L 367.898091 228.596666 
L 371.052649 228.596675 
L 374.207206 228.596682 
L 377.361764 228.596687 
L 380.516322 228.596691 
L 383.670879 228.596694 
L 386.825439 228.596697 
L 389.979997 228.596699 
L 393.134556 228.5967 
L 396.289114 228.596701 
L 399.443671 228.596702 
L 402.59823 228.596702 
L 405.752787 228.596703 
L 408.907346 228.596703 
L 412.061905 228.596703 
" clip-path="url(#pb7380203ce)" style="fill: none"/>
    <defs>
     <path id="m4e9fcdb437" d="M 0 1.25 
C 0.331504 1.25 0.649475 1.118292 0.883883 0.883883 
C 1.118292 0.649475 1.25 0.331504 1.25 0 
C 1.25 -0.331504 1.118292 -0.649475 0.883883 -0.883883 
C 0.649475 -1.118292 0.331504 -1.25 0 -1.25 
C -0.331504 -1.25 -0.649475 -1.118292 -0.883883 -0.883883 
C -1.118292 -0.649475 -1.25 -0.331504 -1.25 0 
C -1.25 0.331504 -1.118292 0.649475 -0.883883 0.883883 
C -0.649475 1.118292 -0.331504 1.25 0 1.25 
z
" style="stroke: #1f77b4"/>
    </defs>
    <g clip-path="url(#pb7380203ce)">
     <use xlink:href="#m4e9fcdb437" x="99.76064" y="228.410869" style="fill: #1f77b4; stroke: #1f77b4"/>
     <use xlink:href="#m4e9fcdb437" x="102.915198" y="228.39272" style="fill: #1f77b4; stroke: #1f77b4"/>
     <use xlink:href="#m4e9fcdb437" x="106.069756" y="228.372787" style="fill: #1f77b4; stroke: #1f77b4"/>
     <use xlink:href="#m4e9fcdb437" x="109.224313" y="228.350894" style="fill: #1f77b4; stroke: #1f77b4"/>
     <use xlink:href="#m4e9fcdb437" x="112.37887" y="228.326842" style="fill: #1f77b4; stroke: #1f77b4"/>
     <use xlink:href="#m4e9fcdb437" x="115.533429" y="228.300415" style="fill: #1f77b4; stroke: #1f77b4"/>
     <use xlink:href="#m4e9fcdb437" x="118.687989" y="228.27137" style="fill: #1f77b4; stroke: #1f77b4"/>
     <use xlink:href="#m4e9fcdb437" x="121.842547" y="228.239441" style="fill: #1f77b4; stroke: #1f77b4"/>
     <use xlink:href="#m4e9fcdb437" x="124.997103" y="228.204328" style="fill: #1f77b4; stroke: #1f77b4"/>
     <use xlink:href="#m4e9fcdb437" x="128.151664" y="228.165699" style="fill: #1f77b4; stroke: #1f77b4"/>
     <use xlink:href="#m4e9fcdb437" x="131.306222" y="228.123181" style="fill: #1f77b4; stroke: #1f77b4"/>
     <use xlink:href="#m4e9fcdb437" x="134.46078" y="228.076356" style="fill: #1f77b4; stroke: #1f77b4"/>
     <use xlink:href="#m4e9fcdb437" x="137.615338" y="228.024749" style="fill: #1f77b4; stroke: #1f77b4"/>
     <use xlink:href="#m4e9fcdb437" x="140.769896" y="227.967826" style="fill: #1f77b4; stroke: #1f77b4"/>
     <use xlink:href="#m4e9fcdb437" x="143.924454" y="227.904974" style="fill: #1f77b4; stroke: #1f77b4"/>
     <use xlink:href="#m4e9fcdb437" x="147.079014" y="227.83549" style="fill: #1f77b4; stroke: #1f77b4"/>
     <use xlink:href="#m4e9fcdb437" x="150.23357" y="227.758561" style="fill: #1f77b4; stroke: #1f77b4"/>
     <use xlink:href="#m4e9fcdb437" x="153.388127" y="227.67324" style="fill: #1f77b4; stroke: #1f77b4"/>
     <use xlink:href="#m4e9fcdb437" x="156.542686" y="227.578407" style="fill: #1f77b4; stroke: #1f77b4"/>
     <use xlink:href="#m4e9fcdb437" x="159.697244" y="227.472735" style="fill: #1f77b4; stroke: #1f77b4"/>
     <use xlink:href="#m4e9fcdb437" x="162.851803" y="227.354623" style="fill: #1f77b4; stroke: #1f77b4"/>
     <use xlink:href="#m4e9fcdb437" x="166.006362" y="227.222123" style="fill: #1f77b4; stroke: #1f77b4"/>
     <use xlink:href="#m4e9fcdb437" x="169.16092" y="227.072828" style="fill: #1f77b4; stroke: #1f77b4"/>
     <use xlink:href="#m4e9fcdb437" x="172.315478" y="226.903723" style="fill: #1f77b4; stroke: #1f77b4"/>
     <use xlink:href="#m4e9fcdb437" x="175.470036" y="226.710976" style="fill: #1f77b4; stroke: #1f77b4"/>
     <use xlink:href="#m4e9fcdb437" x="178.624595" y="226.489628" style="fill: #1f77b4; stroke: #1f77b4"/>
     <use xlink:href="#m4e9fcdb437" x="181.779153" y="226.233154" style="fill: #1f77b4; stroke: #1f77b4"/>
     <use xlink:href="#m4e9fcdb437" x="184.933711" y="225.932792" style="fill: #1f77b4; stroke: #1f77b4"/>
     <use xlink:href="#m4e9fcdb437" x="188.08827" y="225.576522" style="fill: #1f77b4; stroke: #1f77b4"/>
     <use xlink:href="#m4e9fcdb437" x="191.242827" y="225.147461" style="fill: #1f77b4; stroke: #1f77b4"/>
     <use xlink:href="#m4e9fcdb437" x="194.397385" y="224.621228" style="fill: #1f77b4; stroke: #1f77b4"/>
     <use xlink:href="#m4e9fcdb437" x="197.551944" y="223.961511" style="fill: #1f77b4; stroke: #1f77b4"/>
     <use xlink:href="#m4e9fcdb437" x="200.706501" y="223.112192" style="fill: #1f77b4; stroke: #1f77b4"/>
     <use xlink:href="#m4e9fcdb437" x="203.86106" y="221.982691" style="fill: #1f77b4; stroke: #1f77b4"/>
     <use xlink:href="#m4e9fcdb437" x="207.015619" y="220.418848" style="fill: #1f77b4; stroke: #1f77b4"/>
     <use xlink:href="#m4e9fcdb437" x="210.170177" y="218.140595" style="fill: #1f77b4; stroke: #1f77b4"/>
     <use xlink:href="#m4e9fcdb437" x="213.324735" y="214.595452" style="fill: #1f77b4; stroke: #1f77b4"/>
     <use xlink:href="#m4e9fcdb437" x="216.479295" y="208.572467" style="fill: #1f77b4; stroke: #1f77b4"/>
     <use xlink:href="#m4e9fcdb437" x="219.633852" y="197.035551" style="fill: #1f77b4; stroke: #1f77b4"/>
     <use xlink:href="#m4e9fcdb437" x="222.788411" y="171.122094" style="fill: #1f77b4; stroke: #1f77b4"/>
     <use xlink:href="#m4e9fcdb437" x="225.942967" y="105.87865" style="fill: #1f77b4; stroke: #1f77b4"/>
     <use xlink:href="#m4e9fcdb437" x="229.097527" y="44.307625" style="fill: #1f77b4; stroke: #1f77b4"/>
     <use xlink:href="#m4e9fcdb437" x="232.252085" y="139.997049" style="fill: #1f77b4; stroke: #1f77b4"/>
     <use xlink:href="#m4e9fcdb437" x="235.406643" y="193.544653" style="fill: #1f77b4; stroke: #1f77b4"/>
     <use xlink:href="#m4e9fcdb437" x="238.561202" y="212.185843" style="fill: #1f77b4; stroke: #1f77b4"/>
     <use xlink:href="#m4e9fcdb437" x="241.715758" y="219.792992" style="fill: #1f77b4; stroke: #1f77b4"/>
     <use xlink:href="#m4e9fcdb437" x="244.870318" y="223.423216" style="fill: #1f77b4; stroke: #1f77b4"/>
     <use xlink:href="#m4e9fcdb437" x="248.024875" y="225.361838" style="fill: #1f77b4; stroke: #1f77b4"/>
     <use xlink:href="#m4e9fcdb437" x="251.179436" y="226.483443" style="fill: #1f77b4; stroke: #1f77b4"/>
     <use xlink:href="#m4e9fcdb437" x="254.333994" y="227.171371" style="fill: #1f77b4; stroke: #1f77b4"/>
     <use xlink:href="#m4e9fcdb437" x="257.488552" y="227.612125" style="fill: #1f77b4; stroke: #1f77b4"/>
     <use xlink:href="#m4e9fcdb437" x="260.643108" y="227.904071" style="fill: #1f77b4; stroke: #1f77b4"/>
     <use xlink:href="#m4e9fcdb437" x="263.797666" y="228.102509" style="fill: #1f77b4; stroke: #1f77b4"/>
     <use xlink:href="#m4e9fcdb437" x="266.952225" y="228.240153" style="fill: #1f77b4; stroke: #1f77b4"/>
     <use xlink:href="#m4e9fcdb437" x="270.106785" y="228.337179" style="fill: #1f77b4; stroke: #1f77b4"/>
     <use xlink:href="#m4e9fcdb437" x="273.261341" y="228.406463" style="fill: #1f77b4; stroke: #1f77b4"/>
     <use xlink:href="#m4e9fcdb437" x="276.415901" y="228.456455" style="fill: #1f77b4; stroke: #1f77b4"/>
     <use xlink:href="#m4e9fcdb437" x="279.570457" y="228.492832" style="fill: #1f77b4; stroke: #1f77b4"/>
     <use xlink:href="#m4e9fcdb437" x="282.725017" y="228.519484" style="fill: #1f77b4; stroke: #1f77b4"/>
     <use xlink:href="#m4e9fcdb437" x="285.879575" y="228.539122" style="fill: #1f77b4; stroke: #1f77b4"/>
     <use xlink:href="#m4e9fcdb437" x="289.034134" y="228.553657" style="fill: #1f77b4; stroke: #1f77b4"/>
     <use xlink:href="#m4e9fcdb437" x="292.188691" y="228.564458" style="fill: #1f77b4; stroke: #1f77b4"/>
     <use xlink:href="#m4e9fcdb437" x="295.343249" y="228.572507" style="fill: #1f77b4; stroke: #1f77b4"/>
     <use xlink:href="#m4e9fcdb437" x="298.497807" y="228.578522" style="fill: #1f77b4; stroke: #1f77b4"/>
     <use xlink:href="#m4e9fcdb437" x="301.652365" y="228.583026" style="fill: #1f77b4; stroke: #1f77b4"/>
     <use xlink:href="#m4e9fcdb437" x="304.806924" y="228.586404" style="fill: #1f77b4; stroke: #1f77b4"/>
     <use xlink:href="#m4e9fcdb437" x="307.961483" y="228.588942" style="fill: #1f77b4; stroke: #1f77b4"/>
     <use xlink:href="#m4e9fcdb437" x="311.116039" y="228.590851" style="fill: #1f77b4; stroke: #1f77b4"/>
     <use xlink:href="#m4e9fcdb437" x="314.270599" y="228.592288" style="fill: #1f77b4; stroke: #1f77b4"/>
     <use xlink:href="#m4e9fcdb437" x="317.425157" y="228.59337" style="fill: #1f77b4; stroke: #1f77b4"/>
     <use xlink:href="#m4e9fcdb437" x="320.579715" y="228.594187" style="fill: #1f77b4; stroke: #1f77b4"/>
     <use xlink:href="#m4e9fcdb437" x="323.734274" y="228.594803" style="fill: #1f77b4; stroke: #1f77b4"/>
     <use xlink:href="#m4e9fcdb437" x="326.888832" y="228.595267" style="fill: #1f77b4; stroke: #1f77b4"/>
     <use xlink:href="#m4e9fcdb437" x="330.043391" y="228.595618" style="fill: #1f77b4; stroke: #1f77b4"/>
     <use xlink:href="#m4e9fcdb437" x="333.197948" y="228.595883" style="fill: #1f77b4; stroke: #1f77b4"/>
     <use xlink:href="#m4e9fcdb437" x="336.352505" y="228.596084" style="fill: #1f77b4; stroke: #1f77b4"/>
     <use xlink:href="#m4e9fcdb437" x="339.507064" y="228.596235" style="fill: #1f77b4; stroke: #1f77b4"/>
     <use xlink:href="#m4e9fcdb437" x="342.661624" y="228.596349" style="fill: #1f77b4; stroke: #1f77b4"/>
     <use xlink:href="#m4e9fcdb437" x="345.816181" y="228.596436" style="fill: #1f77b4; stroke: #1f77b4"/>
     <use xlink:href="#m4e9fcdb437" x="348.970739" y="228.596501" style="fill: #1f77b4; stroke: #1f77b4"/>
     <use xlink:href="#m4e9fcdb437" x="352.125298" y="228.596551" style="fill: #1f77b4; stroke: #1f77b4"/>
     <use xlink:href="#m4e9fcdb437" x="355.279857" y="228.596588" style="fill: #1f77b4; stroke: #1f77b4"/>
     <use xlink:href="#m4e9fcdb437" x="358.434415" y="228.596616" style="fill: #1f77b4; stroke: #1f77b4"/>
     <use xlink:href="#m4e9fcdb437" x="361.588973" y="228.596638" style="fill: #1f77b4; stroke: #1f77b4"/>
     <use xlink:href="#m4e9fcdb437" x="364.74353" y="228.596654" style="fill: #1f77b4; stroke: #1f77b4"/>
     <use xlink:href="#m4e9fcdb437" x="367.898091" y="228.596666" style="fill: #1f77b4; stroke: #1f77b4"/>
     <use xlink:href="#m4e9fcdb437" x="371.052649" y="228.596675" style="fill: #1f77b4; stroke: #1f77b4"/>
     <use xlink:href="#m4e9fcdb437" x="374.207206" y="228.596682" style="fill: #1f77b4; stroke: #1f77b4"/>
     <use xlink:href="#m4e9fcdb437" x="377.361764" y="228.596687" style="fill: #1f77b4; stroke: #1f77b4"/>
     <use xlink:href="#m4e9fcdb437" x="380.516322" y="228.596691" style="fill: #1f77b4; stroke: #1f77b4"/>
     <use xlink:href="#m4e9fcdb437" x="383.670879" y="228.596694" style="fill: #1f77b4; stroke: #1f77b4"/>
     <use xlink:href="#m4e9fcdb437" x="386.825439" y="228.596697" style="fill: #1f77b4; stroke: #1f77b4"/>
     <use xlink:href="#m4e9fcdb437" x="389.979997" y="228.596699" style="fill: #1f77b4; stroke: #1f77b4"/>
     <use xlink:href="#m4e9fcdb437" x="393.134556" y="228.5967" style="fill: #1f77b4; stroke: #1f77b4"/>
     <use xlink:href="#m4e9fcdb437" x="396.289114" y="228.596701" style="fill: #1f77b4; stroke: #1f77b4"/>
     <use xlink:href="#m4e9fcdb437" x="399.443671" y="228.596702" style="fill: #1f77b4; stroke: #1f77b4"/>
     <use xlink:href="#m4e9fcdb437" x="402.59823" y="228.596702" style="fill: #1f77b4; stroke: #1f77b4"/>
     <use xlink:href="#m4e9fcdb437" x="405.752787" y="228.596703" style="fill: #1f77b4; stroke: #1f77b4"/>
     <use xlink:href="#m4e9fcdb437" x="408.907346" y="228.596703" style="fill: #1f77b4; stroke: #1f77b4"/>
     <use xlink:href="#m4e9fcdb437" x="412.061905" y="228.596703" style="fill: #1f77b4; stroke: #1f77b4"/>
    </g>
   </g>
   <g id="line2d_41">
    <path d="M 105.942805 228.498098 
L 119.691185 228.42616 
L 129.445817 228.23012 
L 137.012097 228.024491 
L 143.194198 227.724973 
L 148.421089 227.785204 
L 152.948829 227.717959 
L 156.942578 227.772698 
L 160.515109 228.06444 
L 163.746856 227.74456 
L 166.69721 226.88301 
L 169.411272 226.882523 
L 171.924102 227.387765 
L 176.451841 226.595857 
L 178.507481 226.510475 
L 182.278885 225.821551 
L 185.672482 226.262492 
L 188.757124 225.387515 
L 191.584401 225.846296 
L 194.193971 224.60634 
L 197.766502 222.689292 
L 200.998249 222.889109 
L 203.948603 221.543572 
L 206.662665 221.040342 
L 209.973359 219.600864 
L 212.989362 217.436742 
L 216.417297 205.765594 
L 219.530278 198.683552 
L 222.923875 177.640374 
L 226.008517 124.430992 
L 229.284909 41.767089 
L 232.272422 161.903359 
L 235.392569 186.192585 
L 238.590425 218.721421 
L 241.822172 220.918247 
L 244.772526 221.340186 
L 248.004273 224.05105 
L 251.189283 227.140404 
L 254.31457 227.119007 
L 257.565698 227.479728 
L 260.709259 227.842154 
L 263.747799 227.996902 
L 266.979546 228.253975 
L 270.064188 228.386164 
L 273.259363 228.463704 
L 276.402289 228.465775 
L 279.583465 228.463108 
L 282.769173 228.532029 
L 285.849809 228.519091 
L 289.058601 228.546864 
L 292.19977 228.569627 
L 295.329882 228.57528 
L 298.486363 228.57872 
L 301.638978 228.581833 
L 304.813059 228.584638 
L 307.979157 228.589431 
L 311.115187 228.589766 
L 314.27788 228.592238 
L 317.436785 228.591928 
L 320.56895 228.594797 
L 323.740202 228.595113 
L 326.891789 228.595294 
L 330.050498 228.595814 
L 333.190726 228.595867 
L 336.350446 228.595898 
L 339.501023 228.596238 
L 342.66826 228.596296 
L 345.809688 228.596429 
L 348.973505 228.59658 
L 352.130275 228.596492 
L 355.279606 228.596612 
L 358.439223 228.596633 
L 361.591746 228.596654 
L 364.739813 228.596637 
L 367.898301 228.596655 
L 371.054449 228.596678 
L 374.209868 228.596685 
L 377.363587 228.596691 
L 380.518055 228.596694 
L 383.672816 228.596697 
L 386.825431 228.5967 
L 389.980008 228.596699 
L 393.133627 228.5967 
L 396.288685 228.596702 
L 399.444661 228.596702 
L 402.599043 228.596703 
L 405.752953 228.596703 
L 408.907309 228.596703 
L 412.062648 228.596703 
" clip-path="url(#pb7380203ce)" style="fill: none"/>
    <defs>
     <path id="md7d115359e" d="M 0 4 
C 1.060812 4 2.078319 3.578535 2.828427 2.828427 
C 3.578535 2.078319 4 1.060812 4 0 
C 4 -1.060812 3.578535 -2.078319 2.828427 -2.828427 
C 2.078319 -3.578535 1.060812 -4 0 -4 
C -1.060812 -4 -2.078319 -3.578535 -2.828427 -2.828427 
C -3.578535 -2.078319 -4 -1.060812 -4 0 
C -4 1.060812 -3.578535 2.078319 -2.828427 2.828427 
C -2.078319 3.578535 -1.060812 4 0 4 
z
" style="stroke: #000000"/>
    </defs>
    <g clip-path="url(#pb7380203ce)">
     <use xlink:href="#md7d115359e" x="105.942805" y="228.498098" style="fill-opacity: 0; stroke: #000000"/>
     <use xlink:href="#md7d115359e" x="119.691185" y="228.42616" style="fill-opacity: 0; stroke: #000000"/>
     <use xlink:href="#md7d115359e" x="129.445817" y="228.23012" style="fill-opacity: 0; stroke: #000000"/>
     <use xlink:href="#md7d115359e" x="137.012097" y="228.024491" style="fill-opacity: 0; stroke: #000000"/>
     <use xlink:href="#md7d115359e" x="143.194198" y="227.724973" style="fill-opacity: 0; stroke: #000000"/>
     <use xlink:href="#md7d115359e" x="148.421089" y="227.785204" style="fill-opacity: 0; stroke: #000000"/>
     <use xlink:href="#md7d115359e" x="152.948829" y="227.717959" style="fill-opacity: 0; stroke: #000000"/>
     <use xlink:href="#md7d115359e" x="156.942578" y="227.772698" style="fill-opacity: 0; stroke: #000000"/>
     <use xlink:href="#md7d115359e" x="160.515109" y="228.06444" style="fill-opacity: 0; stroke: #000000"/>
     <use xlink:href="#md7d115359e" x="163.746856" y="227.74456" style="fill-opacity: 0; stroke: #000000"/>
     <use xlink:href="#md7d115359e" x="166.69721" y="226.88301" style="fill-opacity: 0; stroke: #000000"/>
     <use xlink:href="#md7d115359e" x="169.411272" y="226.882523" style="fill-opacity: 0; stroke: #000000"/>
     <use xlink:href="#md7d115359e" x="171.924102" y="227.387765" style="fill-opacity: 0; stroke: #000000"/>
     <use xlink:href="#md7d115359e" x="176.451841" y="226.595857" style="fill-opacity: 0; stroke: #000000"/>
     <use xlink:href="#md7d115359e" x="178.507481" y="226.510475" style="fill-opacity: 0; stroke: #000000"/>
     <use xlink:href="#md7d115359e" x="182.278885" y="225.821551" style="fill-opacity: 0; stroke: #000000"/>
     <use xlink:href="#md7d115359e" x="185.672482" y="226.262492" style="fill-opacity: 0; stroke: #000000"/>
     <use xlink:href="#md7d115359e" x="188.757124" y="225.387515" style="fill-opacity: 0; stroke: #000000"/>
     <use xlink:href="#md7d115359e" x="191.584401" y="225.846296" style="fill-opacity: 0; stroke: #000000"/>
     <use xlink:href="#md7d115359e" x="194.193971" y="224.60634" style="fill-opacity: 0; stroke: #000000"/>
     <use xlink:href="#md7d115359e" x="197.766502" y="222.689292" style="fill-opacity: 0; stroke: #000000"/>
     <use xlink:href="#md7d115359e" x="200.998249" y="222.889109" style="fill-opacity: 0; stroke: #000000"/>
     <use xlink:href="#md7d115359e" x="203.948603" y="221.543572" style="fill-opacity: 0; stroke: #000000"/>
     <use xlink:href="#md7d115359e" x="206.662665" y="221.040342" style="fill-opacity: 0; stroke: #000000"/>
     <use xlink:href="#md7d115359e" x="209.973359" y="219.600864" style="fill-opacity: 0; stroke: #000000"/>
     <use xlink:href="#md7d115359e" x="212.989362" y="217.436742" style="fill-opacity: 0; stroke: #000000"/>
     <use xlink:href="#md7d115359e" x="216.417297" y="205.765594" style="fill-opacity: 0; stroke: #000000"/>
     <use xlink:href="#md7d115359e" x="219.530278" y="198.683552" style="fill-opacity: 0; stroke: #000000"/>
     <use xlink:href="#md7d115359e" x="222.923875" y="177.640374" style="fill-opacity: 0; stroke: #000000"/>
     <use xlink:href="#md7d115359e" x="226.008517" y="124.430992" style="fill-opacity: 0; stroke: #000000"/>
     <use xlink:href="#md7d115359e" x="229.284909" y="41.767089" style="fill-opacity: 0; stroke: #000000"/>
     <use xlink:href="#md7d115359e" x="232.272422" y="161.903359" style="fill-opacity: 0; stroke: #000000"/>
     <use xlink:href="#md7d115359e" x="235.392569" y="186.192585" style="fill-opacity: 0; stroke: #000000"/>
     <use xlink:href="#md7d115359e" x="238.590425" y="218.721421" style="fill-opacity: 0; stroke: #000000"/>
     <use xlink:href="#md7d115359e" x="241.822172" y="220.918247" style="fill-opacity: 0; stroke: #000000"/>
     <use xlink:href="#md7d115359e" x="244.772526" y="221.340186" style="fill-opacity: 0; stroke: #000000"/>
     <use xlink:href="#md7d115359e" x="248.004273" y="224.05105" style="fill-opacity: 0; stroke: #000000"/>
     <use xlink:href="#md7d115359e" x="251.189283" y="227.140404" style="fill-opacity: 0; stroke: #000000"/>
     <use xlink:href="#md7d115359e" x="254.31457" y="227.119007" style="fill-opacity: 0; stroke: #000000"/>
     <use xlink:href="#md7d115359e" x="257.565698" y="227.479728" style="fill-opacity: 0; stroke: #000000"/>
     <use xlink:href="#md7d115359e" x="260.709259" y="227.842154" style="fill-opacity: 0; stroke: #000000"/>
     <use xlink:href="#md7d115359e" x="263.747799" y="227.996902" style="fill-opacity: 0; stroke: #000000"/>
     <use xlink:href="#md7d115359e" x="266.979546" y="228.253975" style="fill-opacity: 0; stroke: #000000"/>
     <use xlink:href="#md7d115359e" x="270.064188" y="228.386164" style="fill-opacity: 0; stroke: #000000"/>
     <use xlink:href="#md7d115359e" x="273.259363" y="228.463704" style="fill-opacity: 0; stroke: #000000"/>
     <use xlink:href="#md7d115359e" x="276.402289" y="228.465775" style="fill-opacity: 0; stroke: #000000"/>
     <use xlink:href="#md7d115359e" x="279.583465" y="228.463108" style="fill-opacity: 0; stroke: #000000"/>
     <use xlink:href="#md7d115359e" x="282.769173" y="228.532029" style="fill-opacity: 0; stroke: #000000"/>
     <use xlink:href="#md7d115359e" x="285.849809" y="228.519091" style="fill-opacity: 0; stroke: #000000"/>
     <use xlink:href="#md7d115359e" x="289.058601" y="228.546864" style="fill-opacity: 0; stroke: #000000"/>
     <use xlink:href="#md7d115359e" x="292.19977" y="228.569627" style="fill-opacity: 0; stroke: #000000"/>
     <use xlink:href="#md7d115359e" x="295.329882" y="228.57528" style="fill-opacity: 0; stroke: #000000"/>
     <use xlink:href="#md7d115359e" x="298.486363" y="228.57872" style="fill-opacity: 0; stroke: #000000"/>
     <use xlink:href="#md7d115359e" x="301.638978" y="228.581833" style="fill-opacity: 0; stroke: #000000"/>
     <use xlink:href="#md7d115359e" x="304.813059" y="228.584638" style="fill-opacity: 0; stroke: #000000"/>
     <use xlink:href="#md7d115359e" x="307.979157" y="228.589431" style="fill-opacity: 0; stroke: #000000"/>
     <use xlink:href="#md7d115359e" x="311.115187" y="228.589766" style="fill-opacity: 0; stroke: #000000"/>
     <use xlink:href="#md7d115359e" x="314.27788" y="228.592238" style="fill-opacity: 0; stroke: #000000"/>
     <use xlink:href="#md7d115359e" x="317.436785" y="228.591928" style="fill-opacity: 0; stroke: #000000"/>
     <use xlink:href="#md7d115359e" x="320.56895" y="228.594797" style="fill-opacity: 0; stroke: #000000"/>
     <use xlink:href="#md7d115359e" x="323.740202" y="228.595113" style="fill-opacity: 0; stroke: #000000"/>
     <use xlink:href="#md7d115359e" x="326.891789" y="228.595294" style="fill-opacity: 0; stroke: #000000"/>
     <use xlink:href="#md7d115359e" x="330.050498" y="228.595814" style="fill-opacity: 0; stroke: #000000"/>
     <use xlink:href="#md7d115359e" x="333.190726" y="228.595867" style="fill-opacity: 0; stroke: #000000"/>
     <use xlink:href="#md7d115359e" x="336.350446" y="228.595898" style="fill-opacity: 0; stroke: #000000"/>
     <use xlink:href="#md7d115359e" x="339.501023" y="228.596238" style="fill-opacity: 0; stroke: #000000"/>
     <use xlink:href="#md7d115359e" x="342.66826" y="228.596296" style="fill-opacity: 0; stroke: #000000"/>
     <use xlink:href="#md7d115359e" x="345.809688" y="228.596429" style="fill-opacity: 0; stroke: #000000"/>
     <use xlink:href="#md7d115359e" x="348.973505" y="228.59658" style="fill-opacity: 0; stroke: #000000"/>
     <use xlink:href="#md7d115359e" x="352.130275" y="228.596492" style="fill-opacity: 0; stroke: #000000"/>
     <use xlink:href="#md7d115359e" x="355.279606" y="228.596612" style="fill-opacity: 0; stroke: #000000"/>
     <use xlink:href="#md7d115359e" x="358.439223" y="228.596633" style="fill-opacity: 0; stroke: #000000"/>
     <use xlink:href="#md7d115359e" x="361.591746" y="228.596654" style="fill-opacity: 0; stroke: #000000"/>
     <use xlink:href="#md7d115359e" x="364.739813" y="228.596637" style="fill-opacity: 0; stroke: #000000"/>
     <use xlink:href="#md7d115359e" x="367.898301" y="228.596655" style="fill-opacity: 0; stroke: #000000"/>
     <use xlink:href="#md7d115359e" x="371.054449" y="228.596678" style="fill-opacity: 0; stroke: #000000"/>
     <use xlink:href="#md7d115359e" x="374.209868" y="228.596685" style="fill-opacity: 0; stroke: #000000"/>
     <use xlink:href="#md7d115359e" x="377.363587" y="228.596691" style="fill-opacity: 0; stroke: #000000"/>
     <use xlink:href="#md7d115359e" x="380.518055" y="228.596694" style="fill-opacity: 0; stroke: #000000"/>
     <use xlink:href="#md7d115359e" x="383.672816" y="228.596697" style="fill-opacity: 0; stroke: #000000"/>
     <use xlink:href="#md7d115359e" x="386.825431" y="228.5967" style="fill-opacity: 0; stroke: #000000"/>
     <use xlink:href="#md7d115359e" x="389.980008" y="228.596699" style="fill-opacity: 0; stroke: #000000"/>
     <use xlink:href="#md7d115359e" x="393.133627" y="228.5967" style="fill-opacity: 0; stroke: #000000"/>
     <use xlink:href="#md7d115359e" x="396.288685" y="228.596702" style="fill-opacity: 0; stroke: #000000"/>
     <use xlink:href="#md7d115359e" x="399.444661" y="228.596702" style="fill-opacity: 0; stroke: #000000"/>
     <use xlink:href="#md7d115359e" x="402.599043" y="228.596703" style="fill-opacity: 0; stroke: #000000"/>
     <use xlink:href="#md7d115359e" x="405.752953" y="228.596703" style="fill-opacity: 0; stroke: #000000"/>
     <use xlink:href="#md7d115359e" x="408.907309" y="228.596703" style="fill-opacity: 0; stroke: #000000"/>
     <use xlink:href="#md7d115359e" x="412.062648" y="228.596703" style="fill-opacity: 0; stroke: #000000"/>
    </g>
   </g>
   <g id="patch_3">
    <path d="M 99.760638 228.596704 
L 99.760638 17.718498 
" style="fill: none; stroke: #000000; stroke-width: 0.8; stroke-linejoin: miter; stroke-linecap: square"/>
   </g>
   <g id="patch_4">
    <path d="M 412.061905 228.596704 
L 412.061905 17.718498 
" style="fill: none; stroke: #000000; stroke-width: 0.8; stroke-linejoin: miter; stroke-linecap: square"/>
   </g>
   <g id="patch_5">
    <path d="M 99.760638 228.596704 
L 412.061905 228.596704 
" style="fill: none; stroke: #000000; stroke-width: 0.8; stroke-linejoin: miter; stroke-linecap: square"/>
   </g>
   <g id="patch_6">
    <path d="M 99.760638 17.718498 
L 412.061905 17.718498 
" style="fill: none; stroke: #000000; stroke-width: 0.8; stroke-linejoin: miter; stroke-linecap: square"/>
   </g>
   <g id="legend_1">
    <g id="patch_7">
     <path d="M 267.488811 107.382691 
L 399.461905 107.382691 
Q 403.061905 107.382691 403.061905 103.782691 
L 403.061905 30.318498 
Q 403.061905 26.718498 399.461905 26.718498 
L 267.488811 26.718498 
Q 263.888811 26.718498 263.888811 30.318498 
L 263.888811 103.782691 
Q 263.888811 107.382691 267.488811 107.382691 
z
" style="fill: #ffffff; opacity: 0.8; stroke: #cccccc; stroke-linejoin: miter"/>
    </g>
    <g id="line2d_42">
     <path d="M 271.088811 40.218498 
L 289.088811 40.218498 
L 307.088811 40.218498 
" style="fill: none; stroke: #ff7f0e; stroke-width: 4; stroke-linecap: square"/>
    </g>
    <g id="text_9">
     <!-- rational -->
     <g transform="translate(321.488811 46.518498) scale(0.18 -0.18)">
      <use xlink:href="#CMR17-72" transform="scale(0.996264)"/>
      <use xlink:href="#CMR17-61" transform="translate(35.280768 0) scale(0.996264)"/>
      <use xlink:href="#CMR17-74" transform="translate(80.971245 0) scale(0.996264)"/>
      <use xlink:href="#CMR17-69" transform="translate(116.252013 0) scale(0.996264)"/>
      <use xlink:href="#CMR17-6f" transform="translate(141.123071 0) scale(0.996264)"/>
      <use xlink:href="#CMR17-6e" transform="translate(186.813548 0) scale(0.996264)"/>
      <use xlink:href="#CMR17-61" transform="translate(237.708918 0) scale(0.996264)"/>
      <use xlink:href="#CMR17-6c" transform="translate(283.399395 0) scale(0.996264)"/>
     </g>
    </g>
    <g id="line2d_43">
     <path d="M 271.088811 65.306563 
L 289.088811 65.306563 
L 307.088811 65.306563 
" style="fill: none"/>
     <g>
      <use xlink:href="#m4e9fcdb437" x="289.088811" y="65.306563" style="fill: #1f77b4; stroke: #1f77b4"/>
     </g>
    </g>
    <g id="text_10">
     <!-- matrix -->
     <g transform="translate(321.488811 71.606563) scale(0.18 -0.18)">
      <defs>
       <path id="CMR17-6d" d="M 4326 1954 
C 4326 2276 4269 2816 3507 2816 
C 3072 2816 2771 2520 2656 2173 
L 2650 2173 
C 2573 2700 2195 2816 1837 2816 
C 1331 2816 1069 2424 973 2166 
L 966 2166 
L 966 2816 
L 211 2745 
L 211 2578 
C 589 2578 646 2540 646 2231 
L 646 443 
C 646 198 621 166 211 166 
L 211 0 
C 365 12 646 12 813 12 
C 979 12 1267 12 1421 0 
L 1421 166 
C 1011 166 986 192 986 443 
L 986 1678 
C 986 2269 1344 2713 1792 2713 
C 2266 2713 2317 2289 2317 1980 
L 2317 443 
C 2317 198 2291 166 1882 166 
L 1882 0 
C 2035 12 2317 12 2483 12 
C 2650 12 2938 12 3091 0 
L 3091 166 
C 2682 166 2656 192 2656 443 
L 2656 1678 
C 2656 2269 3014 2713 3462 2713 
C 3936 2713 3987 2289 3987 1980 
L 3987 443 
C 3987 198 3962 166 3552 166 
L 3552 0 
C 3706 12 3987 12 4154 12 
C 4320 12 4608 12 4762 0 
L 4762 166 
C 4352 166 4326 192 4326 443 
L 4326 1954 
z
" transform="scale(0.015625)"/>
       <path id="CMR17-78" d="M 1664 1491 
C 1856 1740 2074 2022 2253 2233 
C 2464 2476 2707 2579 2989 2585 
L 2989 2752 
C 2880 2745 2656 2739 2541 2739 
C 2368 2739 2170 2739 2022 2752 
L 2022 2585 
C 2112 2572 2163 2508 2163 2419 
C 2163 2304 2099 2233 2067 2188 
L 1594 1587 
L 1030 2323 
C 973 2393 973 2406 973 2438 
C 973 2515 1037 2579 1146 2585 
L 1146 2752 
C 992 2739 717 2739 557 2739 
C 384 2739 179 2739 38 2752 
L 38 2585 
C 384 2585 461 2560 614 2368 
L 1350 1414 
C 1363 1401 1395 1363 1395 1344 
C 1395 1318 838 633 768 544 
C 480 198 179 172 6 166 
L 6 0 
C 115 6 339 12 454 12 
C 582 12 864 12 979 0 
L 979 166 
C 941 172 838 185 838 332 
C 838 448 890 518 947 595 
L 1478 1248 
L 2035 524 
C 2086 454 2163 358 2163 313 
C 2163 224 2086 172 1984 166 
L 1984 0 
C 2138 12 2413 12 2573 12 
C 2746 12 2950 12 3091 0 
L 3091 166 
C 2771 166 2675 179 2522 377 
L 1664 1491 
z
" transform="scale(0.015625)"/>
      </defs>
      <use xlink:href="#CMR17-6d" transform="scale(0.996264)"/>
      <use xlink:href="#CMR17-61" transform="translate(76.91959 0) scale(0.996264)"/>
      <use xlink:href="#CMR17-74" transform="translate(122.610067 0) scale(0.996264)"/>
      <use xlink:href="#CMR17-72" transform="translate(157.890835 0) scale(0.996264)"/>
      <use xlink:href="#CMR17-69" transform="translate(193.171603 0) scale(0.996264)"/>
      <use xlink:href="#CMR17-78" transform="translate(218.042661 0) scale(0.996264)"/>
     </g>
    </g>
    <g id="line2d_44">
     <path d="M 271.088811 90.394627 
L 289.088811 90.394627 
L 307.088811 90.394627 
" style="fill: none"/>
     <g>
      <use xlink:href="#md7d115359e" x="289.088811" y="90.394627" style="fill-opacity: 0; stroke: #000000"/>
     </g>
    </g>
    <g id="text_11">
     <!-- simulation -->
     <g transform="translate(321.488811 96.694627) scale(0.18 -0.18)">
      <use xlink:href="#CMR17-73" transform="scale(0.996264)"/>
      <use xlink:href="#CMR17-69" transform="translate(35.801338 0) scale(0.996264)"/>
      <use xlink:href="#CMR17-6d" transform="translate(60.672396 0) scale(0.996264)"/>
      <use xlink:href="#CMR17-75" transform="translate(134.989532 0) scale(0.996264)"/>
      <use xlink:href="#CMR17-6c" transform="translate(185.884902 0) scale(0.996264)"/>
      <use xlink:href="#CMR17-61" transform="translate(210.75596 0) scale(0.996264)"/>
      <use xlink:href="#CMR17-74" transform="translate(256.446437 0) scale(0.996264)"/>
      <use xlink:href="#CMR17-69" transform="translate(291.727205 0) scale(0.996264)"/>
      <use xlink:href="#CMR17-6f" transform="translate(316.598264 0) scale(0.996264)"/>
      <use xlink:href="#CMR17-6e" transform="translate(362.288741 0) scale(0.996264)"/>
     </g>
    </g>
   </g>
  </g>
 </g>
 <defs>
  <clipPath id="pb7380203ce">
   <rect x="99.760638" y="17.718498" width="312.301266" height="210.878206"/>
  </clipPath>
 </defs>
</svg>
