<?xml version="1.0" encoding="utf-8" standalone="no"?>
<!DOCTYPE svg PUBLIC "-//W3C//DTD SVG 1.1//EN"
  "http://www.w3.org/Graphics/SVG/1.1/DTD/svg11.dtd">
<svg xmlns:xlink="http://www.w3.org/1999/xlink" width="432pt" height="288pt" viewBox="0 0 432 288" xmlns="http://www.w3.org/2000/svg" version="1.1">
 <metadata>
  <rdf:RDF xmlns:dc="http://purl.org/dc/elements/1.1/" xmlns:cc="http://creativecommons.org/ns#" xmlns:rdf="http://www.w3.org/1999/02/22-rdf-syntax-ns#">
   <cc:Work>
    <dc:type rdf:resource="http://purl.org/dc/dcmitype/StillImage"/>
    <dc:date>2024-05-08T18:16:14.977866</dc:date>
    <dc:format>image/svg+xml</dc:format>
    <dc:creator>
     <cc:Agent>
      <dc:title>Matplotlib v3.7.1, https://matplotlib.org/</dc:title>
     </cc:Agent>
    </dc:creator>
   </cc:Work>
  </rdf:RDF>
 </metadata>
 <defs>
  <style type="text/css">*{stroke-linejoin: round; stroke-linecap: butt}</style>
 </defs>
 <g id="figure_1">
  <g id="patch_1">
   <path d="M 0 288 
L 432 288 
L 432 0 
L 0 0 
L 0 288 
z
" style="fill: none"/>
  </g>
  <g id="axes_1">
   <g id="patch_2">
    <path d="M 82.293927 228.596704 
L 416.630952 228.596704 
L 416.630952 17.718498 
L 82.293927 17.718498 
z
" style="fill: #ffffff"/>
   </g>
   <g id="matplotlib.axis_1">
    <g id="xtick_1">
     <g id="line2d_1">
      <defs>
       <path id="mbcec828278" d="M 0 0 
L 0 3.5 
" style="stroke: #000000; stroke-width: 0.8"/>
      </defs>
      <g>
       <use xlink:href="#mbcec828278" x="82.293927" y="228.596704" style="stroke: #000000; stroke-width: 0.8"/>
      </g>
     </g>
     <g id="text_1">
      <!-- 0.002 -->
      <g transform="translate(61.530634 249.433701) scale(0.2 -0.2)">
       <defs>
        <path id="CMR17-30" d="M 2688 2038 
C 2688 2430 2682 3099 2413 3613 
C 2176 4063 1798 4224 1466 4224 
C 1158 4224 768 4082 525 3620 
C 269 3137 243 2539 243 2038 
C 243 1671 250 1112 448 623 
C 723 -39 1216 -128 1466 -128 
C 1760 -128 2208 -7 2470 604 
C 2662 1048 2688 1568 2688 2038 
z
M 1466 -26 
C 1056 -26 813 328 723 816 
C 653 1196 653 1749 653 2109 
C 653 2604 653 3015 736 3407 
C 858 3954 1216 4121 1466 4121 
C 1728 4121 2067 3947 2189 3420 
C 2272 3054 2278 2623 2278 2109 
C 2278 1691 2278 1176 2202 797 
C 2067 96 1690 -26 1466 -26 
z
" transform="scale(0.015625)"/>
        <path id="CMR17-2e" d="M 1062 262 
C 1062 422 934 524 800 524 
C 672 524 538 422 538 262 
C 538 102 666 0 800 0 
C 928 0 1062 102 1062 262 
z
" transform="scale(0.015625)"/>
        <path id="CMR17-32" d="M 2669 990 
L 2554 990 
C 2490 537 2438 460 2413 422 
C 2381 371 1920 371 1830 371 
L 602 371 
C 832 620 1280 1073 1824 1596 
C 2214 1966 2669 2400 2669 3033 
C 2669 3788 2067 4224 1395 4224 
C 691 4224 262 3603 262 3027 
C 262 2777 448 2745 525 2745 
C 589 2745 781 2783 781 3007 
C 781 3206 614 3264 525 3264 
C 486 3264 448 3257 422 3244 
C 544 3788 915 4057 1306 4057 
C 1862 4057 2227 3616 2227 3033 
C 2227 2477 1901 1998 1536 1583 
L 262 147 
L 262 0 
L 2515 0 
L 2669 990 
z
" transform="scale(0.015625)"/>
       </defs>
       <use xlink:href="#CMR17-30" transform="scale(0.996264)"/>
       <use xlink:href="#CMR17-2e" transform="translate(45.690477 0) scale(0.996264)"/>
       <use xlink:href="#CMR17-30" transform="translate(70.561536 0) scale(0.996264)"/>
       <use xlink:href="#CMR17-30" transform="translate(116.252013 0) scale(0.996264)"/>
       <use xlink:href="#CMR17-32" transform="translate(161.94249 0) scale(0.996264)"/>
      </g>
     </g>
    </g>
    <g id="xtick_2">
     <g id="line2d_2">
      <g>
       <use xlink:href="#mbcec828278" x="193.739602" y="228.596704" style="stroke: #000000; stroke-width: 0.8"/>
      </g>
     </g>
     <g id="text_2">
      <!-- 0.02 -->
      <g transform="translate(177.545356 249.433701) scale(0.2 -0.2)">
       <use xlink:href="#CMR17-30" transform="scale(0.996264)"/>
       <use xlink:href="#CMR17-2e" transform="translate(45.690477 0) scale(0.996264)"/>
       <use xlink:href="#CMR17-30" transform="translate(70.561536 0) scale(0.996264)"/>
       <use xlink:href="#CMR17-32" transform="translate(116.252013 0) scale(0.996264)"/>
      </g>
     </g>
    </g>
    <g id="xtick_3">
     <g id="line2d_3">
      <g>
       <use xlink:href="#mbcec828278" x="305.185277" y="228.596704" style="stroke: #000000; stroke-width: 0.8"/>
      </g>
     </g>
     <g id="text_3">
      <!-- 0.2 -->
      <g transform="translate(293.560079 249.433701) scale(0.2 -0.2)">
       <use xlink:href="#CMR17-30" transform="scale(0.996264)"/>
       <use xlink:href="#CMR17-2e" transform="translate(45.690477 0) scale(0.996264)"/>
       <use xlink:href="#CMR17-32" transform="translate(70.561536 0) scale(0.996264)"/>
      </g>
     </g>
    </g>
    <g id="xtick_4">
     <g id="line2d_4">
      <g>
       <use xlink:href="#mbcec828278" x="416.630952" y="228.596704" style="stroke: #000000; stroke-width: 0.8"/>
      </g>
     </g>
     <g id="text_4">
      <!-- 2 -->
      <g transform="translate(412.061905 249.433701) scale(0.2 -0.2)">
       <use xlink:href="#CMR17-32" transform="scale(0.996264)"/>
      </g>
     </g>
    </g>
    <g id="xtick_5">
     <g id="line2d_5">
      <defs>
       <path id="me09daa75a8" d="M 0 0 
L 0 2 
" style="stroke: #000000; stroke-width: 0.6"/>
      </defs>
      <g>
       <use xlink:href="#me09daa75a8" x="101.918536" y="228.596704" style="stroke: #000000; stroke-width: 0.6"/>
      </g>
     </g>
    </g>
    <g id="xtick_6">
     <g id="line2d_6">
      <g>
       <use xlink:href="#me09daa75a8" x="115.842418" y="228.596704" style="stroke: #000000; stroke-width: 0.6"/>
      </g>
     </g>
    </g>
    <g id="xtick_7">
     <g id="line2d_7">
      <g>
       <use xlink:href="#me09daa75a8" x="126.64262" y="228.596704" style="stroke: #000000; stroke-width: 0.6"/>
      </g>
     </g>
    </g>
    <g id="xtick_8">
     <g id="line2d_8">
      <g>
       <use xlink:href="#me09daa75a8" x="135.467027" y="228.596704" style="stroke: #000000; stroke-width: 0.6"/>
      </g>
     </g>
    </g>
    <g id="xtick_9">
     <g id="line2d_9">
      <g>
       <use xlink:href="#me09daa75a8" x="142.927958" y="228.596704" style="stroke: #000000; stroke-width: 0.6"/>
      </g>
     </g>
    </g>
    <g id="xtick_10">
     <g id="line2d_10">
      <g>
       <use xlink:href="#me09daa75a8" x="149.390909" y="228.596704" style="stroke: #000000; stroke-width: 0.6"/>
      </g>
     </g>
    </g>
    <g id="xtick_11">
     <g id="line2d_11">
      <g>
       <use xlink:href="#me09daa75a8" x="155.091637" y="228.596704" style="stroke: #000000; stroke-width: 0.6"/>
      </g>
     </g>
    </g>
    <g id="xtick_12">
     <g id="line2d_12">
      <g>
       <use xlink:href="#me09daa75a8" x="213.364211" y="228.596704" style="stroke: #000000; stroke-width: 0.6"/>
      </g>
     </g>
    </g>
    <g id="xtick_13">
     <g id="line2d_13">
      <g>
       <use xlink:href="#me09daa75a8" x="227.288093" y="228.596704" style="stroke: #000000; stroke-width: 0.6"/>
      </g>
     </g>
    </g>
    <g id="xtick_14">
     <g id="line2d_14">
      <g>
       <use xlink:href="#me09daa75a8" x="238.088295" y="228.596704" style="stroke: #000000; stroke-width: 0.6"/>
      </g>
     </g>
    </g>
    <g id="xtick_15">
     <g id="line2d_15">
      <g>
       <use xlink:href="#me09daa75a8" x="246.912703" y="228.596704" style="stroke: #000000; stroke-width: 0.6"/>
      </g>
     </g>
    </g>
    <g id="xtick_16">
     <g id="line2d_16">
      <g>
       <use xlink:href="#me09daa75a8" x="254.373633" y="228.596704" style="stroke: #000000; stroke-width: 0.6"/>
      </g>
     </g>
    </g>
    <g id="xtick_17">
     <g id="line2d_17">
      <g>
       <use xlink:href="#me09daa75a8" x="260.836584" y="228.596704" style="stroke: #000000; stroke-width: 0.6"/>
      </g>
     </g>
    </g>
    <g id="xtick_18">
     <g id="line2d_18">
      <g>
       <use xlink:href="#me09daa75a8" x="266.537312" y="228.596704" style="stroke: #000000; stroke-width: 0.6"/>
      </g>
     </g>
    </g>
    <g id="xtick_19">
     <g id="line2d_19">
      <g>
       <use xlink:href="#me09daa75a8" x="324.809886" y="228.596704" style="stroke: #000000; stroke-width: 0.6"/>
      </g>
     </g>
    </g>
    <g id="xtick_20">
     <g id="line2d_20">
      <g>
       <use xlink:href="#me09daa75a8" x="338.733768" y="228.596704" style="stroke: #000000; stroke-width: 0.6"/>
      </g>
     </g>
    </g>
    <g id="xtick_21">
     <g id="line2d_21">
      <g>
       <use xlink:href="#me09daa75a8" x="349.53397" y="228.596704" style="stroke: #000000; stroke-width: 0.6"/>
      </g>
     </g>
    </g>
    <g id="xtick_22">
     <g id="line2d_22">
      <g>
       <use xlink:href="#me09daa75a8" x="358.358378" y="228.596704" style="stroke: #000000; stroke-width: 0.6"/>
      </g>
     </g>
    </g>
    <g id="xtick_23">
     <g id="line2d_23">
      <g>
       <use xlink:href="#me09daa75a8" x="365.819308" y="228.596704" style="stroke: #000000; stroke-width: 0.6"/>
      </g>
     </g>
    </g>
    <g id="xtick_24">
     <g id="line2d_24">
      <g>
       <use xlink:href="#me09daa75a8" x="372.282259" y="228.596704" style="stroke: #000000; stroke-width: 0.6"/>
      </g>
     </g>
    </g>
    <g id="xtick_25">
     <g id="line2d_25">
      <g>
       <use xlink:href="#me09daa75a8" x="377.982987" y="228.596704" style="stroke: #000000; stroke-width: 0.6"/>
      </g>
     </g>
    </g>
    <g id="text_5">
     <!-- Frequency (Hz) -->
     <g transform="translate(187.713833 272.235356) scale(0.2 -0.2)">
      <defs>
       <path id="CMR17-46" d="M 3482 4339 
L 326 4339 
L 326 4172 
C 768 4172 838 4172 838 3883 
L 838 450 
C 838 166 768 166 326 166 
L 326 0 
C 512 12 870 12 1069 12 
C 1331 12 1638 12 1901 0 
L 1901 166 
L 1760 166 
C 1274 166 1261 229 1261 456 
L 1261 2073 
L 1837 2073 
C 2432 2073 2490 1865 2490 1334 
L 2605 1334 
L 2605 2991 
L 2490 2991 
C 2490 2451 2432 2240 1837 2240 
L 1261 2240 
L 1261 3922 
C 1261 4140 1274 4172 1530 4172 
L 2355 4172 
C 3322 4172 3430 3774 3520 2920 
L 3635 2920 
L 3482 4339 
z
" transform="scale(0.015625)"/>
       <path id="CMR17-72" d="M 960 1517 
C 960 2134 1222 2713 1702 2713 
C 1747 2713 1792 2707 1837 2687 
C 1837 2687 1696 2642 1696 2475 
C 1696 2321 1818 2257 1914 2257 
C 1990 2257 2131 2302 2131 2482 
C 2131 2687 1926 2816 1709 2816 
C 1222 2816 1011 2340 947 2115 
L 941 2115 
L 941 2816 
L 198 2745 
L 198 2578 
C 576 2578 634 2540 634 2231 
L 634 443 
C 634 198 608 166 198 166 
L 198 0 
C 352 12 646 12 813 12 
C 998 12 1325 12 1498 0 
L 1498 166 
C 1037 166 960 166 960 455 
L 960 1517 
z
" transform="scale(0.015625)"/>
       <path id="CMR17-65" d="M 2438 1503 
C 2464 1529 2464 1542 2464 1606 
C 2464 2251 2118 2816 1389 2816 
C 710 2816 173 2175 173 1394 
C 173 554 781 -64 1459 -64 
C 2176 -64 2458 619 2458 755 
C 2458 800 2419 800 2406 800 
C 2362 800 2355 787 2330 709 
C 2189 270 1837 51 1504 51 
C 1229 51 954 206 781 490 
C 582 819 582 1200 582 1503 
L 2438 1503 
z
M 589 1600 
C 634 2511 1126 2713 1382 2713 
C 1818 2713 2112 2308 2118 1600 
L 589 1600 
z
" transform="scale(0.015625)"/>
       <path id="CMR17-71" d="M 2630 2816 
L 2528 2816 
L 2336 2177 
C 2189 2519 1920 2816 1491 2816 
C 838 2816 211 2228 211 1376 
C 211 529 800 -64 1440 -64 
C 1933 -64 2208 316 2291 458 
L 2291 -834 
C 2291 -1081 2266 -1114 1856 -1114 
L 1856 -1280 
C 2010 -1268 2291 -1268 2458 -1268 
C 2624 -1268 2912 -1268 3066 -1280 
L 3066 -1114 
C 2656 -1114 2630 -1088 2630 -834 
L 2630 2816 
z
M 2304 871 
C 2304 594 2074 335 2054 316 
C 1856 90 1626 38 1472 38 
C 992 38 621 652 621 1369 
C 621 2125 1043 2700 1536 2700 
C 2048 2700 2304 2112 2304 1776 
L 2304 871 
z
" transform="scale(0.015625)"/>
       <path id="CMR17-75" d="M 1882 2745 
L 1882 2579 
C 2259 2579 2317 2540 2317 2229 
L 2317 1053 
C 2317 510 2029 38 1555 38 
C 1030 38 986 355 986 691 
L 986 2816 
L 211 2745 
L 211 2579 
C 467 2579 640 2579 646 2320 
L 646 1079 
C 646 646 646 368 813 187 
C 896 103 1056 -64 1517 -64 
C 2061 -64 2272 400 2323 536 
L 2330 536 
L 2330 -64 
L 3091 -13 
L 3091 154 
C 2714 154 2656 193 2656 503 
L 2656 2816 
L 1882 2745 
z
" transform="scale(0.015625)"/>
       <path id="CMR17-6e" d="M 2656 1954 
C 2656 2282 2592 2816 1837 2816 
C 1331 2816 1069 2424 973 2166 
L 966 2166 
L 966 2816 
L 211 2745 
L 211 2578 
C 589 2578 646 2540 646 2231 
L 646 443 
C 646 198 621 166 211 166 
L 211 0 
C 365 12 646 12 813 12 
C 979 12 1267 12 1421 0 
L 1421 166 
C 1011 166 986 192 986 443 
L 986 1678 
C 986 2269 1344 2713 1792 2713 
C 2266 2713 2317 2289 2317 1980 
L 2317 443 
C 2317 198 2291 166 1882 166 
L 1882 0 
C 2035 12 2317 12 2483 12 
C 2650 12 2938 12 3091 0 
L 3091 166 
C 2682 166 2656 192 2656 443 
L 2656 1954 
z
" transform="scale(0.015625)"/>
       <path id="CMR17-63" d="M 2234 2240 
C 2112 2240 1933 2240 1933 2015 
C 1933 1836 2080 1785 2163 1785 
C 2208 1785 2394 1804 2394 2028 
C 2394 2476 1958 2816 1466 2816 
C 787 2816 211 2201 211 1379 
C 211 521 813 -64 1466 -64 
C 2259 -64 2458 676 2458 747 
C 2458 773 2451 792 2406 792 
C 2362 792 2355 786 2330 702 
C 2163 180 1798 51 1523 51 
C 1114 51 621 431 621 1385 
C 621 2358 1094 2700 1472 2700 
C 1722 2700 2093 2582 2234 2240 
z
" transform="scale(0.015625)"/>
       <path id="CMR17-79" d="M 2496 2183 
C 2656 2579 2944 2585 3034 2585 
L 3034 2752 
C 2912 2745 2752 2739 2630 2739 
C 2496 2739 2285 2739 2157 2752 
L 2157 2585 
C 2400 2566 2406 2384 2406 2332 
C 2406 2268 2394 2235 2362 2158 
L 1664 409 
L 902 2300 
C 870 2378 870 2423 870 2430 
C 870 2572 1018 2585 1171 2585 
L 1171 2752 
C 1018 2739 742 2739 582 2739 
C 410 2739 205 2739 64 2752 
L 64 2585 
C 410 2585 448 2553 531 2345 
L 1485 -31 
C 1197 -795 1030 -1242 627 -1242 
C 557 -1242 397 -1223 282 -1106 
C 429 -1093 493 -1002 493 -892 
C 493 -782 416 -685 288 -685 
C 147 -685 77 -782 77 -899 
C 77 -1158 339 -1344 627 -1344 
C 998 -1344 1229 -983 1357 -659 
L 2496 2183 
z
" transform="scale(0.015625)"/>
       <path id="CMR17-28" d="M 1958 -1562 
C 1958 -1556 1958 -1543 1939 -1524 
C 1645 -1223 858 -403 858 1596 
C 858 3595 1632 4408 1946 4729 
C 1946 4735 1958 4748 1958 4767 
C 1958 4787 1939 4800 1914 4800 
C 1843 4800 1299 4325 986 3620 
C 666 2909 576 2218 576 1603 
C 576 1141 621 360 1005 -467 
C 1312 -1133 1837 -1600 1914 -1600 
C 1946 -1600 1958 -1588 1958 -1562 
z
" transform="scale(0.015625)"/>
       <path id="CMR17-48" d="M 3590 3898 
C 3590 4185 3661 4185 4102 4185 
L 4102 4352 
C 3917 4339 3578 4339 3379 4339 
C 3181 4339 2842 4339 2656 4352 
L 2656 4185 
C 3098 4185 3168 4185 3168 3898 
L 3168 2342 
L 1261 2342 
L 1261 3898 
C 1261 4185 1331 4185 1773 4185 
L 1773 4352 
C 1587 4339 1248 4339 1050 4339 
C 851 4339 512 4339 326 4352 
L 326 4185 
C 768 4185 838 4185 838 3898 
L 838 452 
C 838 166 768 166 326 166 
L 326 0 
C 512 12 851 12 1050 12 
C 1248 12 1587 12 1773 0 
L 1773 166 
C 1331 166 1261 166 1261 452 
L 1261 2176 
L 3168 2176 
L 3168 452 
C 3168 166 3098 166 2656 166 
L 2656 0 
C 2842 12 3181 12 3379 12 
C 3578 12 3917 12 4102 0 
L 4102 166 
C 3661 166 3590 166 3590 452 
L 3590 3898 
z
" transform="scale(0.015625)"/>
       <path id="CMR17-7a" d="M 2310 2604 
C 2362 2668 2362 2681 2362 2694 
C 2362 2752 2336 2752 2221 2752 
L 275 2752 
L 211 1760 
L 326 1760 
C 371 2380 442 2649 1178 2649 
L 1958 2649 
L 128 96 
C 128 6 134 0 269 0 
L 2291 0 
L 2381 1152 
L 2266 1152 
C 2214 441 2131 115 1350 115 
L 531 115 
L 2310 2604 
z
" transform="scale(0.015625)"/>
       <path id="CMR17-29" d="M 1683 1596 
C 1683 2057 1638 2839 1254 3665 
C 947 4332 422 4800 346 4800 
C 326 4800 301 4793 301 4761 
C 301 4748 307 4742 314 4729 
C 621 4408 1402 3595 1402 1603 
C 1402 -396 627 -1210 314 -1530 
C 307 -1543 301 -1549 301 -1562 
C 301 -1594 326 -1600 346 -1600 
C 416 -1600 960 -1127 1274 -422 
C 1594 289 1683 981 1683 1596 
z
" transform="scale(0.015625)"/>
      </defs>
      <use xlink:href="#CMR17-46" transform="scale(0.996264)"/>
      <use xlink:href="#CMR17-72" transform="translate(52.176591 0) scale(0.996264)"/>
      <use xlink:href="#CMR17-65" transform="translate(87.457359 0) scale(0.996264)"/>
      <use xlink:href="#CMR17-71" transform="translate(127.943019 0) scale(0.996264)"/>
      <use xlink:href="#CMR17-75" transform="translate(176.235935 0) scale(0.996264)"/>
      <use xlink:href="#CMR17-65" transform="translate(227.131305 0) scale(0.996264)"/>
      <use xlink:href="#CMR17-6e" transform="translate(267.616966 0) scale(0.996264)"/>
      <use xlink:href="#CMR17-63" transform="translate(318.512335 0) scale(0.996264)"/>
      <use xlink:href="#CMR17-79" transform="translate(358.997996 0) scale(0.996264)"/>
      <use xlink:href="#CMR17-28" transform="translate(437.366878 0) scale(0.996264)"/>
      <use xlink:href="#CMR17-48" transform="translate(472.647646 0) scale(0.996264)"/>
      <use xlink:href="#CMR17-7a" transform="translate(541.720076 0) scale(0.996264)"/>
      <use xlink:href="#CMR17-29" transform="translate(582.205736 0) scale(0.996264)"/>
     </g>
    </g>
   </g>
   <g id="matplotlib.axis_2">
    <g id="ytick_1">
     <g id="line2d_26">
      <defs>
       <path id="ma5e69127f5" d="M 0 0 
L -3.5 0 
" style="stroke: #000000; stroke-width: 0.8"/>
      </defs>
      <g>
       <use xlink:href="#ma5e69127f5" x="82.293927" y="205.165792" style="stroke: #000000; stroke-width: 0.8"/>
      </g>
     </g>
     <g id="text_6">
      <!-- $\mathdefault{10^{-10}}$ -->
      <g transform="translate(32.51263 212.084291) scale(0.2 -0.2)">
       <defs>
        <path id="CMR17-31" d="M 1702 4083 
C 1702 4217 1696 4224 1606 4224 
C 1357 3927 979 3833 621 3820 
C 602 3820 570 3820 563 3808 
C 557 3795 557 3782 557 3648 
C 755 3648 1088 3686 1344 3839 
L 1344 467 
C 1344 243 1331 166 781 166 
L 589 166 
L 589 0 
C 896 6 1216 12 1523 12 
C 1830 12 2150 6 2458 0 
L 2458 166 
L 2266 166 
C 1715 166 1702 236 1702 467 
L 1702 4083 
z
" transform="scale(0.015625)"/>
        <path id="CMSY10-0" d="M 4218 1472 
C 4326 1472 4442 1472 4442 1600 
C 4442 1728 4326 1728 4218 1728 
L 755 1728 
C 646 1728 531 1728 531 1600 
C 531 1472 646 1472 755 1472 
L 4218 1472 
z
" transform="scale(0.015625)"/>
       </defs>
       <use xlink:href="#CMR17-31" transform="scale(0.996264)"/>
       <use xlink:href="#CMR17-30" transform="translate(45.690477 0) scale(0.996264)"/>
       <use xlink:href="#CMSY10-0" transform="translate(91.380954 36.153639) scale(0.697382)"/>
       <use xlink:href="#CMR17-31" transform="translate(145.621947 36.153639) scale(0.697382)"/>
       <use xlink:href="#CMR17-30" transform="translate(177.605129 36.153639) scale(0.697382)"/>
      </g>
     </g>
    </g>
    <g id="ytick_2">
     <g id="line2d_27">
      <g>
       <use xlink:href="#ma5e69127f5" x="82.293927" y="111.442145" style="stroke: #000000; stroke-width: 0.8"/>
      </g>
     </g>
     <g id="text_7">
      <!-- $\mathdefault{10^{-6}}$ -->
      <g transform="translate(39.341089 118.360644) scale(0.2 -0.2)">
       <defs>
        <path id="CMR17-36" d="M 678 2198 
C 678 3712 1395 4076 1811 4076 
C 1946 4076 2272 4049 2400 3782 
C 2298 3782 2106 3782 2106 3558 
C 2106 3385 2246 3328 2336 3328 
C 2394 3328 2566 3353 2566 3571 
C 2566 3987 2246 4224 1805 4224 
C 1043 4224 243 3411 243 2011 
C 243 257 966 -128 1478 -128 
C 2099 -128 2688 431 2688 1295 
C 2688 2101 2170 2688 1517 2688 
C 1126 2688 838 2430 678 1979 
L 678 2198 
z
M 1478 25 
C 691 25 691 1212 691 1450 
C 691 1914 909 2585 1504 2585 
C 1613 2585 1926 2585 2138 2140 
C 2253 1889 2253 1624 2253 1302 
C 2253 954 2253 696 2118 438 
C 1978 173 1773 25 1478 25 
z
" transform="scale(0.015625)"/>
       </defs>
       <use xlink:href="#CMR17-31" transform="scale(0.996264)"/>
       <use xlink:href="#CMR17-30" transform="translate(45.690477 0) scale(0.996264)"/>
       <use xlink:href="#CMSY10-0" transform="translate(91.380954 36.153639) scale(0.697382)"/>
       <use xlink:href="#CMR17-36" transform="translate(145.621947 36.153639) scale(0.697382)"/>
      </g>
     </g>
    </g>
    <g id="ytick_3">
     <g id="line2d_28">
      <g>
       <use xlink:href="#ma5e69127f5" x="82.293927" y="17.718498" style="stroke: #000000; stroke-width: 0.8"/>
      </g>
     </g>
     <g id="text_8">
      <!-- $\mathdefault{10^{-2}}$ -->
      <g transform="translate(39.341089 24.636997) scale(0.2 -0.2)">
       <use xlink:href="#CMR17-31" transform="scale(0.996264)"/>
       <use xlink:href="#CMR17-30" transform="translate(45.690477 0) scale(0.996264)"/>
       <use xlink:href="#CMSY10-0" transform="translate(91.380954 36.153639) scale(0.697382)"/>
       <use xlink:href="#CMR17-32" transform="translate(145.621947 36.153639) scale(0.697382)"/>
      </g>
     </g>
    </g>
    <g id="text_9">
     <!-- Power Spectral Density -->
     <g transform="translate(24.636997 216.437881) rotate(-90) scale(0.2 -0.2)">
      <defs>
       <path id="CMR17-50" d="M 1267 2048 
L 2291 2048 
C 3117 2048 3718 2583 3718 3187 
C 3718 3791 3130 4352 2291 4352 
L 333 4352 
L 333 4185 
C 774 4185 845 4185 845 3899 
L 845 453 
C 845 166 774 166 333 166 
L 333 0 
C 518 12 858 12 1056 12 
C 1254 12 1594 12 1779 0 
L 1779 166 
C 1338 166 1267 166 1267 453 
L 1267 2048 
z
M 1254 2182 
L 1254 3937 
C 1254 4153 1267 4185 1523 4185 
L 2170 4185 
C 2995 4185 3232 3715 3232 3187 
C 3232 2608 2950 2182 2170 2182 
L 1254 2182 
z
" transform="scale(0.015625)"/>
       <path id="CMR17-6f" d="M 2758 1356 
C 2758 2176 2163 2816 1466 2816 
C 768 2816 173 2176 173 1356 
C 173 550 768 -64 1466 -64 
C 2163 -64 2758 550 2758 1356 
z
M 1466 51 
C 1165 51 909 230 762 480 
C 602 768 582 1126 582 1408 
C 582 1676 595 2009 762 2297 
C 890 2508 1139 2713 1466 2713 
C 1754 2713 1997 2553 2150 2329 
C 2349 2028 2349 1606 2349 1408 
C 2349 1158 2336 774 2163 467 
C 1984 172 1709 51 1466 51 
z
" transform="scale(0.015625)"/>
       <path id="CMR17-77" d="M 3725 2186 
C 3853 2566 4109 2579 4205 2585 
L 4205 2752 
C 4077 2745 3949 2739 3821 2739 
C 3699 2739 3424 2739 3315 2752 
L 3315 2585 
C 3514 2572 3622 2456 3622 2296 
C 3622 2251 3610 2193 3597 2148 
L 2995 398 
L 2342 2296 
C 2330 2341 2310 2392 2310 2418 
C 2310 2585 2528 2585 2630 2585 
L 2630 2752 
C 2483 2739 2214 2739 2061 2739 
C 1901 2739 1734 2739 1587 2752 
L 1587 2585 
C 1939 2585 1939 2572 2074 2167 
L 1485 443 
L 851 2302 
C 819 2386 819 2399 819 2418 
C 819 2585 1037 2585 1139 2585 
L 1139 2752 
C 986 2739 717 2739 557 2739 
C 416 2739 198 2739 64 2752 
L 64 2585 
C 346 2585 416 2566 486 2353 
L 1274 38 
C 1299 -45 1318 -64 1370 -64 
C 1414 -64 1440 -52 1472 44 
L 2131 1987 
L 2797 44 
C 2829 -52 2854 -64 2899 -64 
C 2950 -64 2970 -45 2995 38 
L 3725 2186 
z
" transform="scale(0.015625)"/>
       <path id="CMR17-53" d="M 2803 4351 
C 2803 4467 2797 4473 2758 4473 
C 2720 4473 2707 4447 2682 4390 
L 2490 3965 
C 2246 4320 1875 4480 1472 4480 
C 819 4480 294 3958 294 3301 
C 294 3101 339 2817 557 2546 
C 794 2250 1018 2198 1530 2063 
C 1722 2011 2042 1927 2106 1901 
C 2470 1747 2662 1360 2662 999 
C 2662 534 2336 38 1779 38 
C 1094 38 454 425 410 1328 
C 403 1431 397 1437 352 1437 
C 301 1437 294 1431 294 1302 
L 294 0 
C 294 -116 301 -122 339 -122 
C 384 -122 397 -90 486 109 
C 493 128 493 141 614 386 
C 934 -39 1472 -128 1779 -128 
C 2477 -128 2970 457 2970 1141 
C 2970 1476 2848 1734 2778 1850 
C 2509 2263 2221 2340 1914 2417 
C 1869 2437 1856 2437 1498 2527 
C 1152 2617 1005 2662 845 2836 
C 666 3036 602 3243 602 3449 
C 602 3868 934 4326 1478 4326 
C 2157 4326 2579 3842 2675 3036 
C 2694 2920 2701 2914 2746 2914 
C 2803 2914 2803 2933 2803 3043 
L 2803 4351 
z
" transform="scale(0.015625)"/>
       <path id="CMR17-70" d="M 1408 -1114 
C 998 -1114 973 -1088 973 -834 
L 973 380 
C 1158 109 1427 -64 1766 -64 
C 2406 -64 3053 503 3053 1382 
C 3053 2196 2496 2816 1837 2816 
C 1453 2816 1139 2603 960 2345 
L 960 2816 
L 198 2745 
L 198 2577 
C 576 2577 634 2539 634 2228 
L 634 -834 
C 634 -1081 608 -1114 198 -1114 
L 198 -1280 
C 352 -1268 634 -1268 800 -1268 
C 966 -1268 1254 -1268 1408 -1280 
L 1408 -1114 
z
M 973 2015 
C 973 2106 973 2241 1222 2481 
C 1254 2506 1472 2700 1792 2700 
C 2259 2700 2643 2112 2643 1376 
C 2643 639 2234 38 1728 38 
C 1498 38 1248 148 1056 451 
C 973 594 973 632 973 736 
L 973 2015 
z
" transform="scale(0.015625)"/>
       <path id="CMR17-74" d="M 966 2585 
L 1862 2585 
L 1862 2752 
L 966 2752 
L 966 3968 
L 851 3968 
C 838 3292 614 2700 70 2687 
L 70 2585 
L 627 2585 
L 627 778 
C 627 655 627 -64 1370 -64 
C 1747 -64 1965 308 1965 784 
L 1965 1151 
L 1850 1151 
L 1850 790 
C 1850 347 1677 51 1408 51 
C 1222 51 966 179 966 765 
L 966 2585 
z
" transform="scale(0.015625)"/>
       <path id="CMR17-61" d="M 2304 1656 
C 2304 2048 2304 2275 2035 2534 
C 1798 2751 1523 2816 1306 2816 
C 800 2816 435 2408 435 1977 
C 435 1740 627 1728 666 1728 
C 749 1728 896 1779 896 1958 
C 896 2118 774 2188 666 2188 
C 640 2188 608 2182 589 2176 
C 723 2594 1069 2713 1293 2713 
C 1613 2713 1965 2421 1965 1875 
L 1965 1632 
C 1587 1619 1133 1568 774 1373 
C 371 1147 256 822 256 576 
C 256 77 832 -64 1171 -64 
C 1523 -64 1850 135 1990 505 
C 2003 219 2182 -39 2464 -39 
C 2598 -39 2938 51 2938 563 
L 2938 926 
L 2822 926 
L 2822 557 
C 2822 161 2650 109 2566 109 
C 2304 109 2304 446 2304 732 
L 2304 1656 
z
M 1965 887 
C 1965 323 1568 38 1216 38 
C 896 38 646 278 646 576 
C 646 771 730 1114 1101 1322 
C 1408 1497 1760 1523 1965 1536 
L 1965 887 
z
" transform="scale(0.015625)"/>
       <path id="CMR17-6c" d="M 979 4416 
L 218 4345 
L 218 4179 
C 595 4179 653 4141 653 3835 
L 653 439 
C 653 198 627 166 218 166 
L 218 0 
C 371 12 653 12 813 12 
C 979 12 1261 12 1414 0 
L 1414 166 
C 1005 166 979 191 979 439 
L 979 4416 
z
" transform="scale(0.015625)"/>
       <path id="CMR17-44" d="M 333 4352 
L 333 4185 
C 774 4185 845 4185 845 3898 
L 845 453 
C 845 166 774 166 333 166 
L 333 0 
L 2368 0 
C 3398 0 4224 943 4224 2140 
C 4224 3344 3411 4352 2368 4352 
L 333 4352 
z
M 1523 166 
C 1267 166 1254 198 1254 414 
L 1254 3936 
C 1254 4153 1267 4185 1523 4185 
L 2240 4185 
C 2771 4185 3750 3873 3750 2140 
C 3750 1242 3488 879 3366 707 
C 3213 510 2848 166 2240 166 
L 1523 166 
z
" transform="scale(0.015625)"/>
       <path id="CMR17-73" d="M 1978 2688 
C 1978 2803 1971 2809 1933 2809 
C 1907 2809 1901 2803 1824 2707 
C 1805 2681 1747 2617 1728 2592 
C 1523 2809 1235 2816 1126 2816 
C 416 2816 160 2444 160 2073 
C 160 1497 813 1363 998 1324 
C 1402 1241 1542 1216 1677 1100 
C 1760 1024 1901 883 1901 652 
C 1901 384 1747 38 1158 38 
C 602 38 403 460 288 1024 
C 269 1113 269 1120 218 1120 
C 166 1120 160 1113 160 985 
L 160 64 
C 160 -52 166 -58 205 -58 
C 237 -58 243 -52 275 0 
C 314 57 410 211 448 275 
C 576 102 800 -64 1158 -64 
C 1792 -64 2131 281 2131 780 
C 2131 1107 1958 1280 1875 1356 
C 1683 1555 1459 1600 1190 1651 
C 838 1728 390 1817 390 2208 
C 390 2374 480 2726 1126 2726 
C 1811 2726 1850 2086 1862 1881 
C 1869 1849 1901 1843 1920 1843 
C 1978 1843 1978 1862 1978 1971 
L 1978 2688 
z
" transform="scale(0.015625)"/>
       <path id="CMR17-69" d="M 992 3961 
C 992 4102 877 4224 730 4224 
C 589 4224 467 4108 467 3961 
C 467 3820 582 3699 730 3699 
C 870 3699 992 3814 992 3961 
z
M 243 2745 
L 243 2579 
C 602 2579 653 2540 653 2231 
L 653 443 
C 653 198 627 166 218 166 
L 218 0 
C 371 12 646 12 806 12 
C 960 12 1222 12 1370 0 
L 1370 166 
C 992 166 979 205 979 436 
L 979 2816 
L 243 2745 
z
" transform="scale(0.015625)"/>
      </defs>
      <use xlink:href="#CMR17-50" transform="scale(0.996264)"/>
      <use xlink:href="#CMR17-6f" transform="translate(59.983847 0) scale(0.996264)"/>
      <use xlink:href="#CMR17-77" transform="translate(103.07187 0) scale(0.996264)"/>
      <use xlink:href="#CMR17-65" transform="translate(166.979296 0) scale(0.996264)"/>
      <use xlink:href="#CMR17-72" transform="translate(207.464957 0) scale(0.996264)"/>
      <use xlink:href="#CMR17-53" transform="translate(272.821691 0) scale(0.996264)"/>
      <use xlink:href="#CMR17-70" transform="translate(323.717061 0) scale(0.996264)"/>
      <use xlink:href="#CMR17-65" transform="translate(377.214869 0) scale(0.996264)"/>
      <use xlink:href="#CMR17-63" transform="translate(417.70053 0) scale(0.996264)"/>
      <use xlink:href="#CMR17-74" transform="translate(458.18619 0) scale(0.996264)"/>
      <use xlink:href="#CMR17-72" transform="translate(493.466958 0) scale(0.996264)"/>
      <use xlink:href="#CMR17-61" transform="translate(528.747726 0) scale(0.996264)"/>
      <use xlink:href="#CMR17-6c" transform="translate(574.438203 0) scale(0.996264)"/>
      <use xlink:href="#CMR17-44" transform="translate(629.385228 0) scale(0.996264)"/>
      <use xlink:href="#CMR17-65" transform="translate(699.778784 0) scale(0.996264)"/>
      <use xlink:href="#CMR17-6e" transform="translate(740.264444 0) scale(0.996264)"/>
      <use xlink:href="#CMR17-73" transform="translate(791.159814 0) scale(0.996264)"/>
      <use xlink:href="#CMR17-69" transform="translate(826.961152 0) scale(0.996264)"/>
      <use xlink:href="#CMR17-74" transform="translate(851.83221 0) scale(0.996264)"/>
      <use xlink:href="#CMR17-79" transform="translate(884.510524 0) scale(0.996264)"/>
     </g>
    </g>
   </g>
   <g id="line2d_29">
    <path d="M 48.745438 78.630922 
L 114.341088 78.493128 
L 138.88368 78.231349 
L 154.501692 77.853325 
L 166.103643 77.354271 
L 175.028222 76.754851 
L 182.167886 76.067853 
L 188.415089 75.248035 
L 193.769838 74.319381 
L 198.232126 73.330103 
L 202.248188 72.21853 
L 205.818019 71.002075 
L 208.941622 69.711555 
L 211.618995 68.393393 
L 214.296368 66.830171 
L 216.527511 65.296053 
L 218.758657 63.50318 
L 220.989804 61.395994 
L 223.220949 58.913744 
L 225.452094 56.014164 
L 228.575693 51.436015 
L 229.914382 49.594469 
L 230.806841 48.606921 
L 231.699296 47.959022 
L 232.145525 47.803239 
L 232.591754 47.777548 
L 233.037985 47.890277 
L 233.484213 48.144512 
L 234.37667 49.061166 
L 235.269129 50.447582 
L 236.607814 53.130139 
L 239.731416 60.32364 
L 242.40879 66.204483 
L 245.086164 71.490228 
L 247.763539 76.235645 
L 250.440911 80.544041 
L 253.564514 85.138692 
L 257.134347 89.95313 
L 261.150408 94.95108 
L 265.612697 100.118514 
L 270.521215 105.456477 
L 276.322191 111.424053 
L 283.015626 117.981042 
L 291.047744 125.526718 
L 300.864782 134.430775 
L 313.359191 145.446969 
L 330.31589 160.078702 
L 355.750941 181.703767 
L 405.282349 223.467686 
L 433 246.788679 
L 433 246.788679 
" clip-path="url(#p9c5046e594)" style="fill: none; stroke: #ff7f0e; stroke-width: 6; stroke-linecap: square"/>
   </g>
   <g id="line2d_30">
    <path d="M 57.569937 76.928087 
L 77.194546 79.721491 
L 91.118428 79.288006 
L 101.91863 77.632946 
L 110.743037 75.984217 
L 118.203967 79.135498 
L 124.666919 78.794196 
L 130.367646 79.880529 
L 135.467121 86.022827 
L 140.080157 82.802483 
L 144.291528 76.216664 
L 148.165615 77.221635 
L 151.752458 82.226145 
L 158.21541 77.30213 
L 161.149656 77.302143 
L 166.533004 75.576504 
L 171.377068 78.526622 
L 175.780124 76.394506 
L 179.815814 78.752581 
L 183.540747 75.625955 
L 188.640221 72.941137 
L 193.253257 74.269587 
L 197.464629 72.809579 
L 201.338715 72.975856 
L 206.06444 72.158762 
L 210.36952 70.897578 
L 215.262597 64.646552 
L 219.706104 62.831659 
L 224.550168 58.451693 
L 228.953224 52.050355 
L 233.629986 47.130561 
L 237.894399 58.48676 
L 242.348136 64.019217 
L 246.912796 79.853316 
L 251.525832 83.396049 
L 255.737203 84.810802 
L 260.350239 90.49059 
L 264.896562 102.915458 
L 269.357634 103.854193 
L 273.998335 107.676548 
L 278.485493 112.579571 
L 282.822743 115.914338 
L 287.435778 122.573229 
L 291.838834 128.441045 
L 296.399668 134.045674 
L 300.885918 135.162556 
L 305.426769 135.89707 
L 309.974088 144.236736 
L 314.371425 143.306572 
L 318.951695 148.777852 
L 323.435438 155.917481 
L 327.9034 159.260781 
L 332.408999 161.987165 
L 336.909082 164.86329 
L 341.439805 167.947455 
L 345.959132 174.054368 
L 350.43554 175.459111 
L 354.950007 180.894318 
L 359.459068 181.157937 
L 363.929959 191.435432 
L 368.456642 194.223705 
L 372.955257 196.387571 
L 377.464038 202.014431 
L 381.946438 203.583409 
L 386.456662 204.907918 
L 390.953834 211.422227 
L 395.474788 213.71606 
L 399.958901 218.637347 
L 404.474972 227.704897 
L 408.980985 223.142328 
L 413.47638 232.607265 
L 417.986455 236.165259 
L 422.486406 240.646959 
L 426.979996 238.592815 
L 431.488461 242.503312 
L 433 245.015646 
" clip-path="url(#p9c5046e594)" style="fill: none"/>
    <defs>
     <path id="m90f16ed279" d="M 0 4 
C 1.060812 4 2.078319 3.578535 2.828427 2.828427 
C 3.578535 2.078319 4 1.060812 4 0 
C 4 -1.060812 3.578535 -2.078319 2.828427 -2.828427 
C 2.078319 -3.578535 1.060812 -4 0 -4 
C -1.060812 -4 -2.078319 -3.578535 -2.828427 -2.828427 
C -3.578535 -2.078319 -4 -1.060812 -4 0 
C -4 1.060812 -3.578535 2.078319 -2.828427 2.828427 
C -2.078319 3.578535 -1.060812 4 0 4 
z
" style="stroke: #000000"/>
    </defs>
    <g clip-path="url(#p9c5046e594)">
     <use xlink:href="#m90f16ed279" x="57.569937" y="76.928087" style="fill-opacity: 0; stroke: #000000"/>
     <use xlink:href="#m90f16ed279" x="77.194546" y="79.721491" style="fill-opacity: 0; stroke: #000000"/>
     <use xlink:href="#m90f16ed279" x="91.118428" y="79.288006" style="fill-opacity: 0; stroke: #000000"/>
     <use xlink:href="#m90f16ed279" x="101.91863" y="77.632946" style="fill-opacity: 0; stroke: #000000"/>
     <use xlink:href="#m90f16ed279" x="110.743037" y="75.984217" style="fill-opacity: 0; stroke: #000000"/>
     <use xlink:href="#m90f16ed279" x="118.203967" y="79.135498" style="fill-opacity: 0; stroke: #000000"/>
     <use xlink:href="#m90f16ed279" x="124.666919" y="78.794196" style="fill-opacity: 0; stroke: #000000"/>
     <use xlink:href="#m90f16ed279" x="130.367646" y="79.880529" style="fill-opacity: 0; stroke: #000000"/>
     <use xlink:href="#m90f16ed279" x="135.467121" y="86.022827" style="fill-opacity: 0; stroke: #000000"/>
     <use xlink:href="#m90f16ed279" x="140.080157" y="82.802483" style="fill-opacity: 0; stroke: #000000"/>
     <use xlink:href="#m90f16ed279" x="144.291528" y="76.216664" style="fill-opacity: 0; stroke: #000000"/>
     <use xlink:href="#m90f16ed279" x="148.165615" y="77.221635" style="fill-opacity: 0; stroke: #000000"/>
     <use xlink:href="#m90f16ed279" x="151.752458" y="82.226145" style="fill-opacity: 0; stroke: #000000"/>
     <use xlink:href="#m90f16ed279" x="158.21541" y="77.30213" style="fill-opacity: 0; stroke: #000000"/>
     <use xlink:href="#m90f16ed279" x="161.149656" y="77.302143" style="fill-opacity: 0; stroke: #000000"/>
     <use xlink:href="#m90f16ed279" x="166.533004" y="75.576504" style="fill-opacity: 0; stroke: #000000"/>
     <use xlink:href="#m90f16ed279" x="171.377068" y="78.526622" style="fill-opacity: 0; stroke: #000000"/>
     <use xlink:href="#m90f16ed279" x="175.780124" y="76.394506" style="fill-opacity: 0; stroke: #000000"/>
     <use xlink:href="#m90f16ed279" x="179.815814" y="78.752581" style="fill-opacity: 0; stroke: #000000"/>
     <use xlink:href="#m90f16ed279" x="183.540747" y="75.625955" style="fill-opacity: 0; stroke: #000000"/>
     <use xlink:href="#m90f16ed279" x="188.640221" y="72.941137" style="fill-opacity: 0; stroke: #000000"/>
     <use xlink:href="#m90f16ed279" x="193.253257" y="74.269587" style="fill-opacity: 0; stroke: #000000"/>
     <use xlink:href="#m90f16ed279" x="197.464629" y="72.809579" style="fill-opacity: 0; stroke: #000000"/>
     <use xlink:href="#m90f16ed279" x="201.338715" y="72.975856" style="fill-opacity: 0; stroke: #000000"/>
     <use xlink:href="#m90f16ed279" x="206.06444" y="72.158762" style="fill-opacity: 0; stroke: #000000"/>
     <use xlink:href="#m90f16ed279" x="210.36952" y="70.897578" style="fill-opacity: 0; stroke: #000000"/>
     <use xlink:href="#m90f16ed279" x="215.262597" y="64.646552" style="fill-opacity: 0; stroke: #000000"/>
     <use xlink:href="#m90f16ed279" x="219.706104" y="62.831659" style="fill-opacity: 0; stroke: #000000"/>
     <use xlink:href="#m90f16ed279" x="224.550168" y="58.451693" style="fill-opacity: 0; stroke: #000000"/>
     <use xlink:href="#m90f16ed279" x="228.953224" y="52.050355" style="fill-opacity: 0; stroke: #000000"/>
     <use xlink:href="#m90f16ed279" x="233.629986" y="47.130561" style="fill-opacity: 0; stroke: #000000"/>
     <use xlink:href="#m90f16ed279" x="237.894399" y="58.48676" style="fill-opacity: 0; stroke: #000000"/>
     <use xlink:href="#m90f16ed279" x="242.348136" y="64.019217" style="fill-opacity: 0; stroke: #000000"/>
     <use xlink:href="#m90f16ed279" x="246.912796" y="79.853316" style="fill-opacity: 0; stroke: #000000"/>
     <use xlink:href="#m90f16ed279" x="251.525832" y="83.396049" style="fill-opacity: 0; stroke: #000000"/>
     <use xlink:href="#m90f16ed279" x="255.737203" y="84.810802" style="fill-opacity: 0; stroke: #000000"/>
     <use xlink:href="#m90f16ed279" x="260.350239" y="90.49059" style="fill-opacity: 0; stroke: #000000"/>
     <use xlink:href="#m90f16ed279" x="264.896562" y="102.915458" style="fill-opacity: 0; stroke: #000000"/>
     <use xlink:href="#m90f16ed279" x="269.357634" y="103.854193" style="fill-opacity: 0; stroke: #000000"/>
     <use xlink:href="#m90f16ed279" x="273.998335" y="107.676548" style="fill-opacity: 0; stroke: #000000"/>
     <use xlink:href="#m90f16ed279" x="278.485493" y="112.579571" style="fill-opacity: 0; stroke: #000000"/>
     <use xlink:href="#m90f16ed279" x="282.822743" y="115.914338" style="fill-opacity: 0; stroke: #000000"/>
     <use xlink:href="#m90f16ed279" x="287.435778" y="122.573229" style="fill-opacity: 0; stroke: #000000"/>
     <use xlink:href="#m90f16ed279" x="291.838834" y="128.441045" style="fill-opacity: 0; stroke: #000000"/>
     <use xlink:href="#m90f16ed279" x="296.399668" y="134.045674" style="fill-opacity: 0; stroke: #000000"/>
     <use xlink:href="#m90f16ed279" x="300.885918" y="135.162556" style="fill-opacity: 0; stroke: #000000"/>
     <use xlink:href="#m90f16ed279" x="305.426769" y="135.89707" style="fill-opacity: 0; stroke: #000000"/>
     <use xlink:href="#m90f16ed279" x="309.974088" y="144.236736" style="fill-opacity: 0; stroke: #000000"/>
     <use xlink:href="#m90f16ed279" x="314.371425" y="143.306572" style="fill-opacity: 0; stroke: #000000"/>
     <use xlink:href="#m90f16ed279" x="318.951695" y="148.777852" style="fill-opacity: 0; stroke: #000000"/>
     <use xlink:href="#m90f16ed279" x="323.435438" y="155.917481" style="fill-opacity: 0; stroke: #000000"/>
     <use xlink:href="#m90f16ed279" x="327.9034" y="159.260781" style="fill-opacity: 0; stroke: #000000"/>
     <use xlink:href="#m90f16ed279" x="332.408999" y="161.987165" style="fill-opacity: 0; stroke: #000000"/>
     <use xlink:href="#m90f16ed279" x="336.909082" y="164.86329" style="fill-opacity: 0; stroke: #000000"/>
     <use xlink:href="#m90f16ed279" x="341.439805" y="167.947455" style="fill-opacity: 0; stroke: #000000"/>
     <use xlink:href="#m90f16ed279" x="345.959132" y="174.054368" style="fill-opacity: 0; stroke: #000000"/>
     <use xlink:href="#m90f16ed279" x="350.43554" y="175.459111" style="fill-opacity: 0; stroke: #000000"/>
     <use xlink:href="#m90f16ed279" x="354.950007" y="180.894318" style="fill-opacity: 0; stroke: #000000"/>
     <use xlink:href="#m90f16ed279" x="359.459068" y="181.157937" style="fill-opacity: 0; stroke: #000000"/>
     <use xlink:href="#m90f16ed279" x="363.929959" y="191.435432" style="fill-opacity: 0; stroke: #000000"/>
     <use xlink:href="#m90f16ed279" x="368.456642" y="194.223705" style="fill-opacity: 0; stroke: #000000"/>
     <use xlink:href="#m90f16ed279" x="372.955257" y="196.387571" style="fill-opacity: 0; stroke: #000000"/>
     <use xlink:href="#m90f16ed279" x="377.464038" y="202.014431" style="fill-opacity: 0; stroke: #000000"/>
     <use xlink:href="#m90f16ed279" x="381.946438" y="203.583409" style="fill-opacity: 0; stroke: #000000"/>
     <use xlink:href="#m90f16ed279" x="386.456662" y="204.907918" style="fill-opacity: 0; stroke: #000000"/>
     <use xlink:href="#m90f16ed279" x="390.953834" y="211.422227" style="fill-opacity: 0; stroke: #000000"/>
     <use xlink:href="#m90f16ed279" x="395.474788" y="213.71606" style="fill-opacity: 0; stroke: #000000"/>
     <use xlink:href="#m90f16ed279" x="399.958901" y="218.637347" style="fill-opacity: 0; stroke: #000000"/>
     <use xlink:href="#m90f16ed279" x="404.474972" y="227.704897" style="fill-opacity: 0; stroke: #000000"/>
     <use xlink:href="#m90f16ed279" x="408.980985" y="223.142328" style="fill-opacity: 0; stroke: #000000"/>
     <use xlink:href="#m90f16ed279" x="413.47638" y="232.607265" style="fill-opacity: 0; stroke: #000000"/>
     <use xlink:href="#m90f16ed279" x="417.986455" y="236.165259" style="fill-opacity: 0; stroke: #000000"/>
     <use xlink:href="#m90f16ed279" x="422.486406" y="240.646959" style="fill-opacity: 0; stroke: #000000"/>
     <use xlink:href="#m90f16ed279" x="426.979996" y="238.592815" style="fill-opacity: 0; stroke: #000000"/>
     <use xlink:href="#m90f16ed279" x="431.488461" y="242.503312" style="fill-opacity: 0; stroke: #000000"/>
     <use xlink:href="#m90f16ed279" x="435.993585" y="249.991294" style="fill-opacity: 0; stroke: #000000"/>
     <use xlink:href="#m90f16ed279" x="440.49767" y="254.194364" style="fill-opacity: 0; stroke: #000000"/>
     <use xlink:href="#m90f16ed279" x="444.999328" y="259.158149" style="fill-opacity: 0; stroke: #000000"/>
     <use xlink:href="#m90f16ed279" x="449.502054" y="262.480447" style="fill-opacity: 0; stroke: #000000"/>
     <use xlink:href="#m90f16ed279" x="454.005199" y="266.672709" style="fill-opacity: 0; stroke: #000000"/>
     <use xlink:href="#m90f16ed279" x="458.505282" y="274.138978" style="fill-opacity: 0; stroke: #000000"/>
     <use xlink:href="#m90f16ed279" x="463.008164" y="271.478547" style="fill-opacity: 0; stroke: #000000"/>
     <use xlink:href="#m90f16ed279" x="467.509678" y="275.921879" style="fill-opacity: 0; stroke: #000000"/>
     <use xlink:href="#m90f16ed279" x="472.013247" y="281.677005" style="fill-opacity: 0; stroke: #000000"/>
     <use xlink:href="#m90f16ed279" x="476.518127" y="283.946379" style="fill-opacity: 0; stroke: #000000"/>
     <use xlink:href="#m90f16ed279" x="481.02073" y="289.487772" style="fill-opacity: 0; stroke: #000000"/>
     <use xlink:href="#m90f16ed279" x="485.52266" y="291.640773" style="fill-opacity: 0; stroke: #000000"/>
     <use xlink:href="#m90f16ed279" x="490.025228" y="292.101647" style="fill-opacity: 0; stroke: #000000"/>
     <use xlink:href="#m90f16ed279" x="494.529198" y="298.822383" style="fill-opacity: 0; stroke: #000000"/>
    </g>
   </g>
   <g id="patch_3">
    <path d="M 82.293927 228.596704 
L 82.293927 17.718498 
" style="fill: none; stroke: #000000; stroke-width: 0.8; stroke-linejoin: miter; stroke-linecap: square"/>
   </g>
   <g id="patch_4">
    <path d="M 416.630952 228.596704 
L 416.630952 17.718498 
" style="fill: none; stroke: #000000; stroke-width: 0.8; stroke-linejoin: miter; stroke-linecap: square"/>
   </g>
   <g id="patch_5">
    <path d="M 82.293927 228.596704 
L 416.630952 228.596704 
" style="fill: none; stroke: #000000; stroke-width: 0.8; stroke-linejoin: miter; stroke-linecap: square"/>
   </g>
   <g id="patch_6">
    <path d="M 82.293927 17.718498 
L 416.630952 17.718498 
" style="fill: none; stroke: #000000; stroke-width: 0.8; stroke-linejoin: miter; stroke-linecap: square"/>
   </g>
   <g id="legend_1">
    <g id="patch_7">
     <path d="M 94.893927 219.596704 
L 226.867021 219.596704 
Q 230.467021 219.596704 230.467021 215.996704 
L 230.467021 167.620576 
Q 230.467021 164.020576 226.867021 164.020576 
L 94.893927 164.020576 
Q 91.293927 164.020576 91.293927 167.620576 
L 91.293927 215.996704 
Q 91.293927 219.596704 94.893927 219.596704 
z
" style="fill: #ffffff; opacity: 0.8; stroke: #cccccc; stroke-linejoin: miter"/>
    </g>
    <g id="line2d_31">
     <path d="M 98.493927 177.520576 
L 116.493927 177.520576 
L 134.493927 177.520576 
" style="fill: none; stroke: #ff7f0e; stroke-width: 6; stroke-linecap: square"/>
    </g>
    <g id="text_10">
     <!-- analytical -->
     <g transform="translate(148.893927 183.820576) scale(0.18 -0.18)">
      <use xlink:href="#CMR17-61" transform="scale(0.996264)"/>
      <use xlink:href="#CMR17-6e" transform="translate(45.690477 0) scale(0.996264)"/>
      <use xlink:href="#CMR17-61" transform="translate(96.585847 0) scale(0.996264)"/>
      <use xlink:href="#CMR17-6c" transform="translate(142.276324 0) scale(0.996264)"/>
      <use xlink:href="#CMR17-79" transform="translate(167.147382 0) scale(0.996264)"/>
      <use xlink:href="#CMR17-74" transform="translate(215.440298 0) scale(0.996264)"/>
      <use xlink:href="#CMR17-69" transform="translate(250.721066 0) scale(0.996264)"/>
      <use xlink:href="#CMR17-63" transform="translate(275.592125 0) scale(0.996264)"/>
      <use xlink:href="#CMR17-61" transform="translate(316.077785 0) scale(0.996264)"/>
      <use xlink:href="#CMR17-6c" transform="translate(361.768262 0) scale(0.996264)"/>
     </g>
    </g>
    <g id="line2d_32">
     <path d="M 98.493927 202.60864 
L 116.493927 202.60864 
L 134.493927 202.60864 
" style="fill: none"/>
     <g>
      <use xlink:href="#m90f16ed279" x="116.493927" y="202.60864" style="fill-opacity: 0; stroke: #000000"/>
     </g>
    </g>
    <g id="text_11">
     <!-- simulation -->
     <g transform="translate(148.893927 208.90864) scale(0.18 -0.18)">
      <defs>
       <path id="CMR17-6d" d="M 4326 1954 
C 4326 2276 4269 2816 3507 2816 
C 3072 2816 2771 2520 2656 2173 
L 2650 2173 
C 2573 2700 2195 2816 1837 2816 
C 1331 2816 1069 2424 973 2166 
L 966 2166 
L 966 2816 
L 211 2745 
L 211 2578 
C 589 2578 646 2540 646 2231 
L 646 443 
C 646 198 621 166 211 166 
L 211 0 
C 365 12 646 12 813 12 
C 979 12 1267 12 1421 0 
L 1421 166 
C 1011 166 986 192 986 443 
L 986 1678 
C 986 2269 1344 2713 1792 2713 
C 2266 2713 2317 2289 2317 1980 
L 2317 443 
C 2317 198 2291 166 1882 166 
L 1882 0 
C 2035 12 2317 12 2483 12 
C 2650 12 2938 12 3091 0 
L 3091 166 
C 2682 166 2656 192 2656 443 
L 2656 1678 
C 2656 2269 3014 2713 3462 2713 
C 3936 2713 3987 2289 3987 1980 
L 3987 443 
C 3987 198 3962 166 3552 166 
L 3552 0 
C 3706 12 3987 12 4154 12 
C 4320 12 4608 12 4762 0 
L 4762 166 
C 4352 166 4326 192 4326 443 
L 4326 1954 
z
" transform="scale(0.015625)"/>
      </defs>
      <use xlink:href="#CMR17-73" transform="scale(0.996264)"/>
      <use xlink:href="#CMR17-69" transform="translate(35.801338 0) scale(0.996264)"/>
      <use xlink:href="#CMR17-6d" transform="translate(60.672396 0) scale(0.996264)"/>
      <use xlink:href="#CMR17-75" transform="translate(134.989532 0) scale(0.996264)"/>
      <use xlink:href="#CMR17-6c" transform="translate(185.884902 0) scale(0.996264)"/>
      <use xlink:href="#CMR17-61" transform="translate(210.75596 0) scale(0.996264)"/>
      <use xlink:href="#CMR17-74" transform="translate(256.446437 0) scale(0.996264)"/>
      <use xlink:href="#CMR17-69" transform="translate(291.727205 0) scale(0.996264)"/>
      <use xlink:href="#CMR17-6f" transform="translate(316.598264 0) scale(0.996264)"/>
      <use xlink:href="#CMR17-6e" transform="translate(362.288741 0) scale(0.996264)"/>
     </g>
    </g>
   </g>
  </g>
 </g>
 <defs>
  <clipPath id="p9c5046e594">
   <rect x="82.293927" y="17.718498" width="334.337025" height="210.878206"/>
  </clipPath>
 </defs>
</svg>
