<?xml version="1.0" encoding="utf-8" standalone="no"?>
<!DOCTYPE svg PUBLIC "-//W3C//DTD SVG 1.1//EN"
  "http://www.w3.org/Graphics/SVG/1.1/DTD/svg11.dtd">
<svg xmlns:xlink="http://www.w3.org/1999/xlink" width="504pt" height="360pt" viewBox="0 0 504 360" xmlns="http://www.w3.org/2000/svg" version="1.1">
 <metadata>
  <rdf:RDF xmlns:dc="http://purl.org/dc/elements/1.1/" xmlns:cc="http://creativecommons.org/ns#" xmlns:rdf="http://www.w3.org/1999/02/22-rdf-syntax-ns#">
   <cc:Work>
    <dc:type rdf:resource="http://purl.org/dc/dcmitype/StillImage"/>
    <dc:date>2024-08-22T20:57:57.889864</dc:date>
    <dc:format>image/svg+xml</dc:format>
    <dc:creator>
     <cc:Agent>
      <dc:title>Matplotlib v3.7.1, https://matplotlib.org/</dc:title>
     </cc:Agent>
    </dc:creator>
   </cc:Work>
  </rdf:RDF>
 </metadata>
 <defs>
  <style type="text/css">*{stroke-linejoin: round; stroke-linecap: butt}</style>
 </defs>
 <g id="figure_1">
  <g id="patch_1">
   <path d="M 0 360 
L 504 360 
L 504 0 
L 0 0 
L 0 360 
z
" style="fill: none"/>
  </g>
  <g id="axes_1">
   <g id="patch_2">
    <path d="M 82.293927 300.596704 
L 488.630952 300.596704 
L 488.630952 17.718498 
L 82.293927 17.718498 
z
" style="fill: #ffffff"/>
   </g>
   <g id="matplotlib.axis_1">
    <g id="xtick_1">
     <g id="line2d_1">
      <defs>
       <path id="m2b14f2d985" d="M 0 0 
L 0 3.5 
" style="stroke: #000000; stroke-width: 0.8"/>
      </defs>
      <g>
       <use xlink:href="#m2b14f2d985" x="82.293927" y="300.596704" style="stroke: #000000; stroke-width: 0.8"/>
      </g>
     </g>
     <g id="text_1">
      <!-- 0.002 -->
      <g transform="translate(61.530634 321.433701) scale(0.2 -0.2)">
       <defs>
        <path id="CMR17-30" d="M 2688 2038 
C 2688 2430 2682 3099 2413 3613 
C 2176 4063 1798 4224 1466 4224 
C 1158 4224 768 4082 525 3620 
C 269 3137 243 2539 243 2038 
C 243 1671 250 1112 448 623 
C 723 -39 1216 -128 1466 -128 
C 1760 -128 2208 -7 2470 604 
C 2662 1048 2688 1568 2688 2038 
z
M 1466 -26 
C 1056 -26 813 328 723 816 
C 653 1196 653 1749 653 2109 
C 653 2604 653 3015 736 3407 
C 858 3954 1216 4121 1466 4121 
C 1728 4121 2067 3947 2189 3420 
C 2272 3054 2278 2623 2278 2109 
C 2278 1691 2278 1176 2202 797 
C 2067 96 1690 -26 1466 -26 
z
" transform="scale(0.015625)"/>
        <path id="CMR17-2e" d="M 1062 262 
C 1062 422 934 524 800 524 
C 672 524 538 422 538 262 
C 538 102 666 0 800 0 
C 928 0 1062 102 1062 262 
z
" transform="scale(0.015625)"/>
        <path id="CMR17-32" d="M 2669 990 
L 2554 990 
C 2490 537 2438 460 2413 422 
C 2381 371 1920 371 1830 371 
L 602 371 
C 832 620 1280 1073 1824 1596 
C 2214 1966 2669 2400 2669 3033 
C 2669 3788 2067 4224 1395 4224 
C 691 4224 262 3603 262 3027 
C 262 2777 448 2745 525 2745 
C 589 2745 781 2783 781 3007 
C 781 3206 614 3264 525 3264 
C 486 3264 448 3257 422 3244 
C 544 3788 915 4057 1306 4057 
C 1862 4057 2227 3616 2227 3033 
C 2227 2477 1901 1998 1536 1583 
L 262 147 
L 262 0 
L 2515 0 
L 2669 990 
z
" transform="scale(0.015625)"/>
       </defs>
       <use xlink:href="#CMR17-30" transform="scale(0.996264)"/>
       <use xlink:href="#CMR17-2e" transform="translate(45.690477 0) scale(0.996264)"/>
       <use xlink:href="#CMR17-30" transform="translate(70.561536 0) scale(0.996264)"/>
       <use xlink:href="#CMR17-30" transform="translate(116.252013 0) scale(0.996264)"/>
       <use xlink:href="#CMR17-32" transform="translate(161.94249 0) scale(0.996264)"/>
      </g>
     </g>
    </g>
    <g id="xtick_2">
     <g id="line2d_2">
      <g>
       <use xlink:href="#m2b14f2d985" x="217.739602" y="300.596704" style="stroke: #000000; stroke-width: 0.8"/>
      </g>
     </g>
     <g id="text_2">
      <!-- 0.02 -->
      <g transform="translate(201.545356 321.433701) scale(0.2 -0.2)">
       <use xlink:href="#CMR17-30" transform="scale(0.996264)"/>
       <use xlink:href="#CMR17-2e" transform="translate(45.690477 0) scale(0.996264)"/>
       <use xlink:href="#CMR17-30" transform="translate(70.561536 0) scale(0.996264)"/>
       <use xlink:href="#CMR17-32" transform="translate(116.252013 0) scale(0.996264)"/>
      </g>
     </g>
    </g>
    <g id="xtick_3">
     <g id="line2d_3">
      <g>
       <use xlink:href="#m2b14f2d985" x="353.185277" y="300.596704" style="stroke: #000000; stroke-width: 0.8"/>
      </g>
     </g>
     <g id="text_3">
      <!-- 0.2 -->
      <g transform="translate(341.560079 321.433701) scale(0.2 -0.2)">
       <use xlink:href="#CMR17-30" transform="scale(0.996264)"/>
       <use xlink:href="#CMR17-2e" transform="translate(45.690477 0) scale(0.996264)"/>
       <use xlink:href="#CMR17-32" transform="translate(70.561536 0) scale(0.996264)"/>
      </g>
     </g>
    </g>
    <g id="xtick_4">
     <g id="line2d_4">
      <g>
       <use xlink:href="#m2b14f2d985" x="488.630952" y="300.596704" style="stroke: #000000; stroke-width: 0.8"/>
      </g>
     </g>
     <g id="text_4">
      <!-- 2 -->
      <g transform="translate(484.061905 321.433701) scale(0.2 -0.2)">
       <use xlink:href="#CMR17-32" transform="scale(0.996264)"/>
      </g>
     </g>
    </g>
    <g id="xtick_5">
     <g id="line2d_5">
      <defs>
       <path id="me15060c64c" d="M 0 0 
L 0 2 
" style="stroke: #000000; stroke-width: 0.6"/>
      </defs>
      <g>
       <use xlink:href="#me15060c64c" x="106.144727" y="300.596704" style="stroke: #000000; stroke-width: 0.6"/>
      </g>
     </g>
    </g>
    <g id="xtick_6">
     <g id="line2d_6">
      <g>
       <use xlink:href="#me15060c64c" x="123.067138" y="300.596704" style="stroke: #000000; stroke-width: 0.6"/>
      </g>
     </g>
    </g>
    <g id="xtick_7">
     <g id="line2d_7">
      <g>
       <use xlink:href="#me15060c64c" x="136.19318" y="300.596704" style="stroke: #000000; stroke-width: 0.6"/>
      </g>
     </g>
    </g>
    <g id="xtick_8">
     <g id="line2d_8">
      <g>
       <use xlink:href="#me15060c64c" x="146.917938" y="300.596704" style="stroke: #000000; stroke-width: 0.6"/>
      </g>
     </g>
    </g>
    <g id="xtick_9">
     <g id="line2d_9">
      <g>
       <use xlink:href="#me15060c64c" x="155.985591" y="300.596704" style="stroke: #000000; stroke-width: 0.6"/>
      </g>
     </g>
    </g>
    <g id="xtick_10">
     <g id="line2d_10">
      <g>
       <use xlink:href="#me15060c64c" x="163.840349" y="300.596704" style="stroke: #000000; stroke-width: 0.6"/>
      </g>
     </g>
    </g>
    <g id="xtick_11">
     <g id="line2d_11">
      <g>
       <use xlink:href="#me15060c64c" x="170.768737" y="300.596704" style="stroke: #000000; stroke-width: 0.6"/>
      </g>
     </g>
    </g>
    <g id="xtick_12">
     <g id="line2d_12">
      <g>
       <use xlink:href="#me15060c64c" x="241.590402" y="300.596704" style="stroke: #000000; stroke-width: 0.6"/>
      </g>
     </g>
    </g>
    <g id="xtick_13">
     <g id="line2d_13">
      <g>
       <use xlink:href="#me15060c64c" x="258.512813" y="300.596704" style="stroke: #000000; stroke-width: 0.6"/>
      </g>
     </g>
    </g>
    <g id="xtick_14">
     <g id="line2d_14">
      <g>
       <use xlink:href="#me15060c64c" x="271.638855" y="300.596704" style="stroke: #000000; stroke-width: 0.6"/>
      </g>
     </g>
    </g>
    <g id="xtick_15">
     <g id="line2d_15">
      <g>
       <use xlink:href="#me15060c64c" x="282.363613" y="300.596704" style="stroke: #000000; stroke-width: 0.6"/>
      </g>
     </g>
    </g>
    <g id="xtick_16">
     <g id="line2d_16">
      <g>
       <use xlink:href="#me15060c64c" x="291.431266" y="300.596704" style="stroke: #000000; stroke-width: 0.6"/>
      </g>
     </g>
    </g>
    <g id="xtick_17">
     <g id="line2d_17">
      <g>
       <use xlink:href="#me15060c64c" x="299.286024" y="300.596704" style="stroke: #000000; stroke-width: 0.6"/>
      </g>
     </g>
    </g>
    <g id="xtick_18">
     <g id="line2d_18">
      <g>
       <use xlink:href="#me15060c64c" x="306.214412" y="300.596704" style="stroke: #000000; stroke-width: 0.6"/>
      </g>
     </g>
    </g>
    <g id="xtick_19">
     <g id="line2d_19">
      <g>
       <use xlink:href="#me15060c64c" x="377.036077" y="300.596704" style="stroke: #000000; stroke-width: 0.6"/>
      </g>
     </g>
    </g>
    <g id="xtick_20">
     <g id="line2d_20">
      <g>
       <use xlink:href="#me15060c64c" x="393.958488" y="300.596704" style="stroke: #000000; stroke-width: 0.6"/>
      </g>
     </g>
    </g>
    <g id="xtick_21">
     <g id="line2d_21">
      <g>
       <use xlink:href="#me15060c64c" x="407.08453" y="300.596704" style="stroke: #000000; stroke-width: 0.6"/>
      </g>
     </g>
    </g>
    <g id="xtick_22">
     <g id="line2d_22">
      <g>
       <use xlink:href="#me15060c64c" x="417.809288" y="300.596704" style="stroke: #000000; stroke-width: 0.6"/>
      </g>
     </g>
    </g>
    <g id="xtick_23">
     <g id="line2d_23">
      <g>
       <use xlink:href="#me15060c64c" x="426.876941" y="300.596704" style="stroke: #000000; stroke-width: 0.6"/>
      </g>
     </g>
    </g>
    <g id="xtick_24">
     <g id="line2d_24">
      <g>
       <use xlink:href="#me15060c64c" x="434.731699" y="300.596704" style="stroke: #000000; stroke-width: 0.6"/>
      </g>
     </g>
    </g>
    <g id="xtick_25">
     <g id="line2d_25">
      <g>
       <use xlink:href="#me15060c64c" x="441.660087" y="300.596704" style="stroke: #000000; stroke-width: 0.6"/>
      </g>
     </g>
    </g>
    <g id="text_5">
     <!-- Frequency (Hz) -->
     <g transform="translate(223.713833 344.235356) scale(0.2 -0.2)">
      <defs>
       <path id="CMR17-46" d="M 3482 4339 
L 326 4339 
L 326 4172 
C 768 4172 838 4172 838 3883 
L 838 450 
C 838 166 768 166 326 166 
L 326 0 
C 512 12 870 12 1069 12 
C 1331 12 1638 12 1901 0 
L 1901 166 
L 1760 166 
C 1274 166 1261 229 1261 456 
L 1261 2073 
L 1837 2073 
C 2432 2073 2490 1865 2490 1334 
L 2605 1334 
L 2605 2991 
L 2490 2991 
C 2490 2451 2432 2240 1837 2240 
L 1261 2240 
L 1261 3922 
C 1261 4140 1274 4172 1530 4172 
L 2355 4172 
C 3322 4172 3430 3774 3520 2920 
L 3635 2920 
L 3482 4339 
z
" transform="scale(0.015625)"/>
       <path id="CMR17-72" d="M 960 1517 
C 960 2134 1222 2713 1702 2713 
C 1747 2713 1792 2707 1837 2687 
C 1837 2687 1696 2642 1696 2475 
C 1696 2321 1818 2257 1914 2257 
C 1990 2257 2131 2302 2131 2482 
C 2131 2687 1926 2816 1709 2816 
C 1222 2816 1011 2340 947 2115 
L 941 2115 
L 941 2816 
L 198 2745 
L 198 2578 
C 576 2578 634 2540 634 2231 
L 634 443 
C 634 198 608 166 198 166 
L 198 0 
C 352 12 646 12 813 12 
C 998 12 1325 12 1498 0 
L 1498 166 
C 1037 166 960 166 960 455 
L 960 1517 
z
" transform="scale(0.015625)"/>
       <path id="CMR17-65" d="M 2438 1503 
C 2464 1529 2464 1542 2464 1606 
C 2464 2251 2118 2816 1389 2816 
C 710 2816 173 2175 173 1394 
C 173 554 781 -64 1459 -64 
C 2176 -64 2458 619 2458 755 
C 2458 800 2419 800 2406 800 
C 2362 800 2355 787 2330 709 
C 2189 270 1837 51 1504 51 
C 1229 51 954 206 781 490 
C 582 819 582 1200 582 1503 
L 2438 1503 
z
M 589 1600 
C 634 2511 1126 2713 1382 2713 
C 1818 2713 2112 2308 2118 1600 
L 589 1600 
z
" transform="scale(0.015625)"/>
       <path id="CMR17-71" d="M 2630 2816 
L 2528 2816 
L 2336 2177 
C 2189 2519 1920 2816 1491 2816 
C 838 2816 211 2228 211 1376 
C 211 529 800 -64 1440 -64 
C 1933 -64 2208 316 2291 458 
L 2291 -834 
C 2291 -1081 2266 -1114 1856 -1114 
L 1856 -1280 
C 2010 -1268 2291 -1268 2458 -1268 
C 2624 -1268 2912 -1268 3066 -1280 
L 3066 -1114 
C 2656 -1114 2630 -1088 2630 -834 
L 2630 2816 
z
M 2304 871 
C 2304 594 2074 335 2054 316 
C 1856 90 1626 38 1472 38 
C 992 38 621 652 621 1369 
C 621 2125 1043 2700 1536 2700 
C 2048 2700 2304 2112 2304 1776 
L 2304 871 
z
" transform="scale(0.015625)"/>
       <path id="CMR17-75" d="M 1882 2745 
L 1882 2579 
C 2259 2579 2317 2540 2317 2229 
L 2317 1053 
C 2317 510 2029 38 1555 38 
C 1030 38 986 355 986 691 
L 986 2816 
L 211 2745 
L 211 2579 
C 467 2579 640 2579 646 2320 
L 646 1079 
C 646 646 646 368 813 187 
C 896 103 1056 -64 1517 -64 
C 2061 -64 2272 400 2323 536 
L 2330 536 
L 2330 -64 
L 3091 -13 
L 3091 154 
C 2714 154 2656 193 2656 503 
L 2656 2816 
L 1882 2745 
z
" transform="scale(0.015625)"/>
       <path id="CMR17-6e" d="M 2656 1954 
C 2656 2282 2592 2816 1837 2816 
C 1331 2816 1069 2424 973 2166 
L 966 2166 
L 966 2816 
L 211 2745 
L 211 2578 
C 589 2578 646 2540 646 2231 
L 646 443 
C 646 198 621 166 211 166 
L 211 0 
C 365 12 646 12 813 12 
C 979 12 1267 12 1421 0 
L 1421 166 
C 1011 166 986 192 986 443 
L 986 1678 
C 986 2269 1344 2713 1792 2713 
C 2266 2713 2317 2289 2317 1980 
L 2317 443 
C 2317 198 2291 166 1882 166 
L 1882 0 
C 2035 12 2317 12 2483 12 
C 2650 12 2938 12 3091 0 
L 3091 166 
C 2682 166 2656 192 2656 443 
L 2656 1954 
z
" transform="scale(0.015625)"/>
       <path id="CMR17-63" d="M 2234 2240 
C 2112 2240 1933 2240 1933 2015 
C 1933 1836 2080 1785 2163 1785 
C 2208 1785 2394 1804 2394 2028 
C 2394 2476 1958 2816 1466 2816 
C 787 2816 211 2201 211 1379 
C 211 521 813 -64 1466 -64 
C 2259 -64 2458 676 2458 747 
C 2458 773 2451 792 2406 792 
C 2362 792 2355 786 2330 702 
C 2163 180 1798 51 1523 51 
C 1114 51 621 431 621 1385 
C 621 2358 1094 2700 1472 2700 
C 1722 2700 2093 2582 2234 2240 
z
" transform="scale(0.015625)"/>
       <path id="CMR17-79" d="M 2496 2183 
C 2656 2579 2944 2585 3034 2585 
L 3034 2752 
C 2912 2745 2752 2739 2630 2739 
C 2496 2739 2285 2739 2157 2752 
L 2157 2585 
C 2400 2566 2406 2384 2406 2332 
C 2406 2268 2394 2235 2362 2158 
L 1664 409 
L 902 2300 
C 870 2378 870 2423 870 2430 
C 870 2572 1018 2585 1171 2585 
L 1171 2752 
C 1018 2739 742 2739 582 2739 
C 410 2739 205 2739 64 2752 
L 64 2585 
C 410 2585 448 2553 531 2345 
L 1485 -31 
C 1197 -795 1030 -1242 627 -1242 
C 557 -1242 397 -1223 282 -1106 
C 429 -1093 493 -1002 493 -892 
C 493 -782 416 -685 288 -685 
C 147 -685 77 -782 77 -899 
C 77 -1158 339 -1344 627 -1344 
C 998 -1344 1229 -983 1357 -659 
L 2496 2183 
z
" transform="scale(0.015625)"/>
       <path id="CMR17-28" d="M 1958 -1562 
C 1958 -1556 1958 -1543 1939 -1524 
C 1645 -1223 858 -403 858 1596 
C 858 3595 1632 4408 1946 4729 
C 1946 4735 1958 4748 1958 4767 
C 1958 4787 1939 4800 1914 4800 
C 1843 4800 1299 4325 986 3620 
C 666 2909 576 2218 576 1603 
C 576 1141 621 360 1005 -467 
C 1312 -1133 1837 -1600 1914 -1600 
C 1946 -1600 1958 -1588 1958 -1562 
z
" transform="scale(0.015625)"/>
       <path id="CMR17-48" d="M 3590 3898 
C 3590 4185 3661 4185 4102 4185 
L 4102 4352 
C 3917 4339 3578 4339 3379 4339 
C 3181 4339 2842 4339 2656 4352 
L 2656 4185 
C 3098 4185 3168 4185 3168 3898 
L 3168 2342 
L 1261 2342 
L 1261 3898 
C 1261 4185 1331 4185 1773 4185 
L 1773 4352 
C 1587 4339 1248 4339 1050 4339 
C 851 4339 512 4339 326 4352 
L 326 4185 
C 768 4185 838 4185 838 3898 
L 838 452 
C 838 166 768 166 326 166 
L 326 0 
C 512 12 851 12 1050 12 
C 1248 12 1587 12 1773 0 
L 1773 166 
C 1331 166 1261 166 1261 452 
L 1261 2176 
L 3168 2176 
L 3168 452 
C 3168 166 3098 166 2656 166 
L 2656 0 
C 2842 12 3181 12 3379 12 
C 3578 12 3917 12 4102 0 
L 4102 166 
C 3661 166 3590 166 3590 452 
L 3590 3898 
z
" transform="scale(0.015625)"/>
       <path id="CMR17-7a" d="M 2310 2604 
C 2362 2668 2362 2681 2362 2694 
C 2362 2752 2336 2752 2221 2752 
L 275 2752 
L 211 1760 
L 326 1760 
C 371 2380 442 2649 1178 2649 
L 1958 2649 
L 128 96 
C 128 6 134 0 269 0 
L 2291 0 
L 2381 1152 
L 2266 1152 
C 2214 441 2131 115 1350 115 
L 531 115 
L 2310 2604 
z
" transform="scale(0.015625)"/>
       <path id="CMR17-29" d="M 1683 1596 
C 1683 2057 1638 2839 1254 3665 
C 947 4332 422 4800 346 4800 
C 326 4800 301 4793 301 4761 
C 301 4748 307 4742 314 4729 
C 621 4408 1402 3595 1402 1603 
C 1402 -396 627 -1210 314 -1530 
C 307 -1543 301 -1549 301 -1562 
C 301 -1594 326 -1600 346 -1600 
C 416 -1600 960 -1127 1274 -422 
C 1594 289 1683 981 1683 1596 
z
" transform="scale(0.015625)"/>
      </defs>
      <use xlink:href="#CMR17-46" transform="scale(0.996264)"/>
      <use xlink:href="#CMR17-72" transform="translate(52.176591 0) scale(0.996264)"/>
      <use xlink:href="#CMR17-65" transform="translate(87.457359 0) scale(0.996264)"/>
      <use xlink:href="#CMR17-71" transform="translate(127.943019 0) scale(0.996264)"/>
      <use xlink:href="#CMR17-75" transform="translate(176.235935 0) scale(0.996264)"/>
      <use xlink:href="#CMR17-65" transform="translate(227.131305 0) scale(0.996264)"/>
      <use xlink:href="#CMR17-6e" transform="translate(267.616966 0) scale(0.996264)"/>
      <use xlink:href="#CMR17-63" transform="translate(318.512335 0) scale(0.996264)"/>
      <use xlink:href="#CMR17-79" transform="translate(358.997996 0) scale(0.996264)"/>
      <use xlink:href="#CMR17-28" transform="translate(437.366878 0) scale(0.996264)"/>
      <use xlink:href="#CMR17-48" transform="translate(472.647646 0) scale(0.996264)"/>
      <use xlink:href="#CMR17-7a" transform="translate(541.720076 0) scale(0.996264)"/>
      <use xlink:href="#CMR17-29" transform="translate(582.205736 0) scale(0.996264)"/>
     </g>
    </g>
   </g>
   <g id="matplotlib.axis_2">
    <g id="ytick_1">
     <g id="line2d_26">
      <defs>
       <path id="m4e65f12af6" d="M 0 0 
L -3.5 0 
" style="stroke: #000000; stroke-width: 0.8"/>
      </defs>
      <g>
       <use xlink:href="#m4e65f12af6" x="82.293927" y="269.165792" style="stroke: #000000; stroke-width: 0.8"/>
      </g>
     </g>
     <g id="text_6">
      <!-- $\mathdefault{10^{-10}}$ -->
      <g transform="translate(32.51263 276.084291) scale(0.2 -0.2)">
       <defs>
        <path id="CMR17-31" d="M 1702 4083 
C 1702 4217 1696 4224 1606 4224 
C 1357 3927 979 3833 621 3820 
C 602 3820 570 3820 563 3808 
C 557 3795 557 3782 557 3648 
C 755 3648 1088 3686 1344 3839 
L 1344 467 
C 1344 243 1331 166 781 166 
L 589 166 
L 589 0 
C 896 6 1216 12 1523 12 
C 1830 12 2150 6 2458 0 
L 2458 166 
L 2266 166 
C 1715 166 1702 236 1702 467 
L 1702 4083 
z
" transform="scale(0.015625)"/>
        <path id="CMSY10-0" d="M 4218 1472 
C 4326 1472 4442 1472 4442 1600 
C 4442 1728 4326 1728 4218 1728 
L 755 1728 
C 646 1728 531 1728 531 1600 
C 531 1472 646 1472 755 1472 
L 4218 1472 
z
" transform="scale(0.015625)"/>
       </defs>
       <use xlink:href="#CMR17-31" transform="scale(0.996264)"/>
       <use xlink:href="#CMR17-30" transform="translate(45.690477 0) scale(0.996264)"/>
       <use xlink:href="#CMSY10-0" transform="translate(91.380954 36.153639) scale(0.697382)"/>
       <use xlink:href="#CMR17-31" transform="translate(145.621947 36.153639) scale(0.697382)"/>
       <use xlink:href="#CMR17-30" transform="translate(177.605129 36.153639) scale(0.697382)"/>
      </g>
     </g>
    </g>
    <g id="ytick_2">
     <g id="line2d_27">
      <g>
       <use xlink:href="#m4e65f12af6" x="82.293927" y="143.442145" style="stroke: #000000; stroke-width: 0.8"/>
      </g>
     </g>
     <g id="text_7">
      <!-- $\mathdefault{10^{-6}}$ -->
      <g transform="translate(39.341089 150.360644) scale(0.2 -0.2)">
       <defs>
        <path id="CMR17-36" d="M 678 2198 
C 678 3712 1395 4076 1811 4076 
C 1946 4076 2272 4049 2400 3782 
C 2298 3782 2106 3782 2106 3558 
C 2106 3385 2246 3328 2336 3328 
C 2394 3328 2566 3353 2566 3571 
C 2566 3987 2246 4224 1805 4224 
C 1043 4224 243 3411 243 2011 
C 243 257 966 -128 1478 -128 
C 2099 -128 2688 431 2688 1295 
C 2688 2101 2170 2688 1517 2688 
C 1126 2688 838 2430 678 1979 
L 678 2198 
z
M 1478 25 
C 691 25 691 1212 691 1450 
C 691 1914 909 2585 1504 2585 
C 1613 2585 1926 2585 2138 2140 
C 2253 1889 2253 1624 2253 1302 
C 2253 954 2253 696 2118 438 
C 1978 173 1773 25 1478 25 
z
" transform="scale(0.015625)"/>
       </defs>
       <use xlink:href="#CMR17-31" transform="scale(0.996264)"/>
       <use xlink:href="#CMR17-30" transform="translate(45.690477 0) scale(0.996264)"/>
       <use xlink:href="#CMSY10-0" transform="translate(91.380954 36.153639) scale(0.697382)"/>
       <use xlink:href="#CMR17-36" transform="translate(145.621947 36.153639) scale(0.697382)"/>
      </g>
     </g>
    </g>
    <g id="ytick_3">
     <g id="line2d_28">
      <g>
       <use xlink:href="#m4e65f12af6" x="82.293927" y="17.718498" style="stroke: #000000; stroke-width: 0.8"/>
      </g>
     </g>
     <g id="text_8">
      <!-- $\mathdefault{10^{-2}}$ -->
      <g transform="translate(39.341089 24.636997) scale(0.2 -0.2)">
       <use xlink:href="#CMR17-31" transform="scale(0.996264)"/>
       <use xlink:href="#CMR17-30" transform="translate(45.690477 0) scale(0.996264)"/>
       <use xlink:href="#CMSY10-0" transform="translate(91.380954 36.153639) scale(0.697382)"/>
       <use xlink:href="#CMR17-32" transform="translate(145.621947 36.153639) scale(0.697382)"/>
      </g>
     </g>
    </g>
    <g id="text_9">
     <!-- Power Spectral Density -->
     <g transform="translate(24.636997 252.437881) rotate(-90) scale(0.2 -0.2)">
      <defs>
       <path id="CMR17-50" d="M 1267 2048 
L 2291 2048 
C 3117 2048 3718 2583 3718 3187 
C 3718 3791 3130 4352 2291 4352 
L 333 4352 
L 333 4185 
C 774 4185 845 4185 845 3899 
L 845 453 
C 845 166 774 166 333 166 
L 333 0 
C 518 12 858 12 1056 12 
C 1254 12 1594 12 1779 0 
L 1779 166 
C 1338 166 1267 166 1267 453 
L 1267 2048 
z
M 1254 2182 
L 1254 3937 
C 1254 4153 1267 4185 1523 4185 
L 2170 4185 
C 2995 4185 3232 3715 3232 3187 
C 3232 2608 2950 2182 2170 2182 
L 1254 2182 
z
" transform="scale(0.015625)"/>
       <path id="CMR17-6f" d="M 2758 1356 
C 2758 2176 2163 2816 1466 2816 
C 768 2816 173 2176 173 1356 
C 173 550 768 -64 1466 -64 
C 2163 -64 2758 550 2758 1356 
z
M 1466 51 
C 1165 51 909 230 762 480 
C 602 768 582 1126 582 1408 
C 582 1676 595 2009 762 2297 
C 890 2508 1139 2713 1466 2713 
C 1754 2713 1997 2553 2150 2329 
C 2349 2028 2349 1606 2349 1408 
C 2349 1158 2336 774 2163 467 
C 1984 172 1709 51 1466 51 
z
" transform="scale(0.015625)"/>
       <path id="CMR17-77" d="M 3725 2186 
C 3853 2566 4109 2579 4205 2585 
L 4205 2752 
C 4077 2745 3949 2739 3821 2739 
C 3699 2739 3424 2739 3315 2752 
L 3315 2585 
C 3514 2572 3622 2456 3622 2296 
C 3622 2251 3610 2193 3597 2148 
L 2995 398 
L 2342 2296 
C 2330 2341 2310 2392 2310 2418 
C 2310 2585 2528 2585 2630 2585 
L 2630 2752 
C 2483 2739 2214 2739 2061 2739 
C 1901 2739 1734 2739 1587 2752 
L 1587 2585 
C 1939 2585 1939 2572 2074 2167 
L 1485 443 
L 851 2302 
C 819 2386 819 2399 819 2418 
C 819 2585 1037 2585 1139 2585 
L 1139 2752 
C 986 2739 717 2739 557 2739 
C 416 2739 198 2739 64 2752 
L 64 2585 
C 346 2585 416 2566 486 2353 
L 1274 38 
C 1299 -45 1318 -64 1370 -64 
C 1414 -64 1440 -52 1472 44 
L 2131 1987 
L 2797 44 
C 2829 -52 2854 -64 2899 -64 
C 2950 -64 2970 -45 2995 38 
L 3725 2186 
z
" transform="scale(0.015625)"/>
       <path id="CMR17-53" d="M 2803 4351 
C 2803 4467 2797 4473 2758 4473 
C 2720 4473 2707 4447 2682 4390 
L 2490 3965 
C 2246 4320 1875 4480 1472 4480 
C 819 4480 294 3958 294 3301 
C 294 3101 339 2817 557 2546 
C 794 2250 1018 2198 1530 2063 
C 1722 2011 2042 1927 2106 1901 
C 2470 1747 2662 1360 2662 999 
C 2662 534 2336 38 1779 38 
C 1094 38 454 425 410 1328 
C 403 1431 397 1437 352 1437 
C 301 1437 294 1431 294 1302 
L 294 0 
C 294 -116 301 -122 339 -122 
C 384 -122 397 -90 486 109 
C 493 128 493 141 614 386 
C 934 -39 1472 -128 1779 -128 
C 2477 -128 2970 457 2970 1141 
C 2970 1476 2848 1734 2778 1850 
C 2509 2263 2221 2340 1914 2417 
C 1869 2437 1856 2437 1498 2527 
C 1152 2617 1005 2662 845 2836 
C 666 3036 602 3243 602 3449 
C 602 3868 934 4326 1478 4326 
C 2157 4326 2579 3842 2675 3036 
C 2694 2920 2701 2914 2746 2914 
C 2803 2914 2803 2933 2803 3043 
L 2803 4351 
z
" transform="scale(0.015625)"/>
       <path id="CMR17-70" d="M 1408 -1114 
C 998 -1114 973 -1088 973 -834 
L 973 380 
C 1158 109 1427 -64 1766 -64 
C 2406 -64 3053 503 3053 1382 
C 3053 2196 2496 2816 1837 2816 
C 1453 2816 1139 2603 960 2345 
L 960 2816 
L 198 2745 
L 198 2577 
C 576 2577 634 2539 634 2228 
L 634 -834 
C 634 -1081 608 -1114 198 -1114 
L 198 -1280 
C 352 -1268 634 -1268 800 -1268 
C 966 -1268 1254 -1268 1408 -1280 
L 1408 -1114 
z
M 973 2015 
C 973 2106 973 2241 1222 2481 
C 1254 2506 1472 2700 1792 2700 
C 2259 2700 2643 2112 2643 1376 
C 2643 639 2234 38 1728 38 
C 1498 38 1248 148 1056 451 
C 973 594 973 632 973 736 
L 973 2015 
z
" transform="scale(0.015625)"/>
       <path id="CMR17-74" d="M 966 2585 
L 1862 2585 
L 1862 2752 
L 966 2752 
L 966 3968 
L 851 3968 
C 838 3292 614 2700 70 2687 
L 70 2585 
L 627 2585 
L 627 778 
C 627 655 627 -64 1370 -64 
C 1747 -64 1965 308 1965 784 
L 1965 1151 
L 1850 1151 
L 1850 790 
C 1850 347 1677 51 1408 51 
C 1222 51 966 179 966 765 
L 966 2585 
z
" transform="scale(0.015625)"/>
       <path id="CMR17-61" d="M 2304 1656 
C 2304 2048 2304 2275 2035 2534 
C 1798 2751 1523 2816 1306 2816 
C 800 2816 435 2408 435 1977 
C 435 1740 627 1728 666 1728 
C 749 1728 896 1779 896 1958 
C 896 2118 774 2188 666 2188 
C 640 2188 608 2182 589 2176 
C 723 2594 1069 2713 1293 2713 
C 1613 2713 1965 2421 1965 1875 
L 1965 1632 
C 1587 1619 1133 1568 774 1373 
C 371 1147 256 822 256 576 
C 256 77 832 -64 1171 -64 
C 1523 -64 1850 135 1990 505 
C 2003 219 2182 -39 2464 -39 
C 2598 -39 2938 51 2938 563 
L 2938 926 
L 2822 926 
L 2822 557 
C 2822 161 2650 109 2566 109 
C 2304 109 2304 446 2304 732 
L 2304 1656 
z
M 1965 887 
C 1965 323 1568 38 1216 38 
C 896 38 646 278 646 576 
C 646 771 730 1114 1101 1322 
C 1408 1497 1760 1523 1965 1536 
L 1965 887 
z
" transform="scale(0.015625)"/>
       <path id="CMR17-6c" d="M 979 4416 
L 218 4345 
L 218 4179 
C 595 4179 653 4141 653 3835 
L 653 439 
C 653 198 627 166 218 166 
L 218 0 
C 371 12 653 12 813 12 
C 979 12 1261 12 1414 0 
L 1414 166 
C 1005 166 979 191 979 439 
L 979 4416 
z
" transform="scale(0.015625)"/>
       <path id="CMR17-44" d="M 333 4352 
L 333 4185 
C 774 4185 845 4185 845 3898 
L 845 453 
C 845 166 774 166 333 166 
L 333 0 
L 2368 0 
C 3398 0 4224 943 4224 2140 
C 4224 3344 3411 4352 2368 4352 
L 333 4352 
z
M 1523 166 
C 1267 166 1254 198 1254 414 
L 1254 3936 
C 1254 4153 1267 4185 1523 4185 
L 2240 4185 
C 2771 4185 3750 3873 3750 2140 
C 3750 1242 3488 879 3366 707 
C 3213 510 2848 166 2240 166 
L 1523 166 
z
" transform="scale(0.015625)"/>
       <path id="CMR17-73" d="M 1978 2688 
C 1978 2803 1971 2809 1933 2809 
C 1907 2809 1901 2803 1824 2707 
C 1805 2681 1747 2617 1728 2592 
C 1523 2809 1235 2816 1126 2816 
C 416 2816 160 2444 160 2073 
C 160 1497 813 1363 998 1324 
C 1402 1241 1542 1216 1677 1100 
C 1760 1024 1901 883 1901 652 
C 1901 384 1747 38 1158 38 
C 602 38 403 460 288 1024 
C 269 1113 269 1120 218 1120 
C 166 1120 160 1113 160 985 
L 160 64 
C 160 -52 166 -58 205 -58 
C 237 -58 243 -52 275 0 
C 314 57 410 211 448 275 
C 576 102 800 -64 1158 -64 
C 1792 -64 2131 281 2131 780 
C 2131 1107 1958 1280 1875 1356 
C 1683 1555 1459 1600 1190 1651 
C 838 1728 390 1817 390 2208 
C 390 2374 480 2726 1126 2726 
C 1811 2726 1850 2086 1862 1881 
C 1869 1849 1901 1843 1920 1843 
C 1978 1843 1978 1862 1978 1971 
L 1978 2688 
z
" transform="scale(0.015625)"/>
       <path id="CMR17-69" d="M 992 3961 
C 992 4102 877 4224 730 4224 
C 589 4224 467 4108 467 3961 
C 467 3820 582 3699 730 3699 
C 870 3699 992 3814 992 3961 
z
M 243 2745 
L 243 2579 
C 602 2579 653 2540 653 2231 
L 653 443 
C 653 198 627 166 218 166 
L 218 0 
C 371 12 646 12 806 12 
C 960 12 1222 12 1370 0 
L 1370 166 
C 992 166 979 205 979 436 
L 979 2816 
L 243 2745 
z
" transform="scale(0.015625)"/>
      </defs>
      <use xlink:href="#CMR17-50" transform="scale(0.996264)"/>
      <use xlink:href="#CMR17-6f" transform="translate(59.983847 0) scale(0.996264)"/>
      <use xlink:href="#CMR17-77" transform="translate(103.07187 0) scale(0.996264)"/>
      <use xlink:href="#CMR17-65" transform="translate(166.979296 0) scale(0.996264)"/>
      <use xlink:href="#CMR17-72" transform="translate(207.464957 0) scale(0.996264)"/>
      <use xlink:href="#CMR17-53" transform="translate(272.821691 0) scale(0.996264)"/>
      <use xlink:href="#CMR17-70" transform="translate(323.717061 0) scale(0.996264)"/>
      <use xlink:href="#CMR17-65" transform="translate(377.214869 0) scale(0.996264)"/>
      <use xlink:href="#CMR17-63" transform="translate(417.70053 0) scale(0.996264)"/>
      <use xlink:href="#CMR17-74" transform="translate(458.18619 0) scale(0.996264)"/>
      <use xlink:href="#CMR17-72" transform="translate(493.466958 0) scale(0.996264)"/>
      <use xlink:href="#CMR17-61" transform="translate(528.747726 0) scale(0.996264)"/>
      <use xlink:href="#CMR17-6c" transform="translate(574.438203 0) scale(0.996264)"/>
      <use xlink:href="#CMR17-44" transform="translate(629.385228 0) scale(0.996264)"/>
      <use xlink:href="#CMR17-65" transform="translate(699.778784 0) scale(0.996264)"/>
      <use xlink:href="#CMR17-6e" transform="translate(740.264444 0) scale(0.996264)"/>
      <use xlink:href="#CMR17-73" transform="translate(791.159814 0) scale(0.996264)"/>
      <use xlink:href="#CMR17-69" transform="translate(826.961152 0) scale(0.996264)"/>
      <use xlink:href="#CMR17-74" transform="translate(851.83221 0) scale(0.996264)"/>
      <use xlink:href="#CMR17-79" transform="translate(884.510524 0) scale(0.996264)"/>
     </g>
    </g>
   </g>
   <g id="line2d_29">
    <path d="M 41.520719 99.428209 
L 114.192269 99.285677 
L 143.477819 99.018069 
L 161.916872 98.6439 
L 176.017321 98.142192 
L 186.863821 97.543421 
L 196.08335 96.812115 
L 203.675899 95.990032 
L 210.183802 95.068091 
L 215.607052 94.096858 
L 220.487975 93.018989 
L 224.826573 91.855651 
L 229.165173 90.448578 
L 232.961451 88.96638 
L 236.215401 87.463508 
L 239.46935 85.695287 
L 242.180976 83.973906 
L 244.892598 81.977617 
L 247.0619 80.143559 
L 249.2312 78.059907 
L 251.400502 75.685596 
L 253.569802 72.979008 
L 255.7391 69.911876 
L 258.450726 65.62063 
L 261.162352 61.255848 
L 262.246999 59.769893 
L 263.331651 58.650303 
L 263.873975 58.284023 
L 264.4163 58.075051 
L 264.958625 58.040589 
L 265.500953 58.191806 
L 266.043277 58.532845 
L 266.585604 59.059972 
L 267.670251 60.623432 
L 268.754903 62.736317 
L 270.381875 66.550456 
L 276.889776 82.759019 
L 279.601401 88.721684 
L 282.313028 94.165146 
L 285.024654 99.169826 
L 288.278599 104.703689 
L 291.53255 109.824636 
L 295.328827 115.387403 
L 299.66743 121.320547 
L 304.548356 127.579351 
L 309.971603 134.140895 
L 315.937181 140.998722 
L 322.987402 148.742294 
L 331.122279 157.323299 
L 340.341807 166.723523 
L 351.730631 178.010125 
L 365.831081 191.661944 
L 384.812457 209.709056 
L 412.471033 235.666667 
L 461.280288 281.118877 
L 505 321.727005 
L 505 321.727005 
" clip-path="url(#pe71227b473)" style="fill: none; stroke: #ff7f0e; stroke-width: 6; stroke-linecap: square"/>
   </g>
   <g id="line2d_30">
    <path d="M 52.245587 101.355793 
L 76.096386 100.800992 
L 93.018798 100.026681 
L 106.14484 96.725404 
L 116.869597 96.624625 
L 125.93725 95.746824 
L 133.792009 100.40742 
L 140.720397 101.074617 
L 146.918051 97.346215 
L 152.524511 98.783626 
L 157.642808 104.890583 
L 162.351185 96.810683 
L 166.710461 96.112058 
L 174.56522 102.005352 
L 178.131361 99.056075 
L 184.674021 94.919695 
L 190.561261 98.741379 
L 195.912522 99.116991 
L 200.817304 91.75633 
L 205.344407 97.421345 
L 211.542061 89.288442 
L 217.148522 91.881674 
L 222.266819 91.910946 
L 226.975196 93.14235 
L 232.718614 89.520356 
L 237.950799 88.038048 
L 243.897607 84.158612 
L 249.298031 80.54074 
L 255.185271 70.718355 
L 260.536532 58.218122 
L 266.220443 59.241201 
L 271.403204 69.596918 
L 276.81606 83.847895 
L 282.363726 93.544919 
L 287.970186 107.243811 
L 293.088483 110.759284 
L 298.694944 122.040055 
L 304.220324 123.867845 
L 309.642095 133.121136 
L 315.282179 140.264616 
L 320.735652 147.617998 
L 326.006936 148.933083 
L 331.613396 154.840809 
L 336.964657 160.028646 
L 342.507673 169.723013 
L 347.960045 176.752853 
L 353.478774 176.29888 
L 359.005366 188.382132 
L 364.349677 191.122093 
L 369.916315 197.510773 
L 375.365639 200.876854 
L 380.795783 207.363522 
L 386.27167 210.092283 
L 391.740853 214.562374 
L 397.247274 217.940676 
L 402.739845 225.039037 
L 408.180255 231.6254 
L 413.666919 233.74373 
L 419.147013 240.390531 
L 424.580717 244.55326 
L 430.08223 255.947029 
L 435.549627 254.812665 
L 441.029382 258.49461 
L 446.477074 265.432927 
L 451.958581 271.975367 
L 457.424226 277.876426 
L 462.918775 284.35623 
L 468.368548 287.136119 
L 473.857162 290.527526 
L 479.333553 301.352841 
L 484.797037 303.252479 
L 490.278365 309.590035 
L 495.747388 313.766624 
L 501.208679 315.807739 
L 505 322.27758 
" clip-path="url(#pe71227b473)" style="fill: none"/>
    <defs>
     <path id="m5008c2c5b6" d="M 0 4 
C 1.060812 4 2.078319 3.578535 2.828427 2.828427 
C 3.578535 2.078319 4 1.060812 4 0 
C 4 -1.060812 3.578535 -2.078319 2.828427 -2.828427 
C 2.078319 -3.578535 1.060812 -4 0 -4 
C -1.060812 -4 -2.078319 -3.578535 -2.828427 -2.828427 
C -3.578535 -2.078319 -4 -1.060812 -4 0 
C -4 1.060812 -3.578535 2.078319 -2.828427 2.828427 
C -2.078319 3.578535 -1.060812 4 0 4 
z
" style="stroke: #000000"/>
    </defs>
    <g clip-path="url(#pe71227b473)">
     <use xlink:href="#m5008c2c5b6" x="52.245587" y="101.355793" style="fill-opacity: 0; stroke: #000000"/>
     <use xlink:href="#m5008c2c5b6" x="76.096386" y="100.800992" style="fill-opacity: 0; stroke: #000000"/>
     <use xlink:href="#m5008c2c5b6" x="93.018798" y="100.026681" style="fill-opacity: 0; stroke: #000000"/>
     <use xlink:href="#m5008c2c5b6" x="106.14484" y="96.725404" style="fill-opacity: 0; stroke: #000000"/>
     <use xlink:href="#m5008c2c5b6" x="116.869597" y="96.624625" style="fill-opacity: 0; stroke: #000000"/>
     <use xlink:href="#m5008c2c5b6" x="125.93725" y="95.746824" style="fill-opacity: 0; stroke: #000000"/>
     <use xlink:href="#m5008c2c5b6" x="133.792009" y="100.40742" style="fill-opacity: 0; stroke: #000000"/>
     <use xlink:href="#m5008c2c5b6" x="140.720397" y="101.074617" style="fill-opacity: 0; stroke: #000000"/>
     <use xlink:href="#m5008c2c5b6" x="146.918051" y="97.346215" style="fill-opacity: 0; stroke: #000000"/>
     <use xlink:href="#m5008c2c5b6" x="152.524511" y="98.783626" style="fill-opacity: 0; stroke: #000000"/>
     <use xlink:href="#m5008c2c5b6" x="157.642808" y="104.890583" style="fill-opacity: 0; stroke: #000000"/>
     <use xlink:href="#m5008c2c5b6" x="162.351185" y="96.810683" style="fill-opacity: 0; stroke: #000000"/>
     <use xlink:href="#m5008c2c5b6" x="166.710461" y="96.112058" style="fill-opacity: 0; stroke: #000000"/>
     <use xlink:href="#m5008c2c5b6" x="174.56522" y="102.005352" style="fill-opacity: 0; stroke: #000000"/>
     <use xlink:href="#m5008c2c5b6" x="178.131361" y="99.056075" style="fill-opacity: 0; stroke: #000000"/>
     <use xlink:href="#m5008c2c5b6" x="184.674021" y="94.919695" style="fill-opacity: 0; stroke: #000000"/>
     <use xlink:href="#m5008c2c5b6" x="190.561261" y="98.741379" style="fill-opacity: 0; stroke: #000000"/>
     <use xlink:href="#m5008c2c5b6" x="195.912522" y="99.116991" style="fill-opacity: 0; stroke: #000000"/>
     <use xlink:href="#m5008c2c5b6" x="200.817304" y="91.75633" style="fill-opacity: 0; stroke: #000000"/>
     <use xlink:href="#m5008c2c5b6" x="205.344407" y="97.421345" style="fill-opacity: 0; stroke: #000000"/>
     <use xlink:href="#m5008c2c5b6" x="211.542061" y="89.288442" style="fill-opacity: 0; stroke: #000000"/>
     <use xlink:href="#m5008c2c5b6" x="217.148522" y="91.881674" style="fill-opacity: 0; stroke: #000000"/>
     <use xlink:href="#m5008c2c5b6" x="222.266819" y="91.910946" style="fill-opacity: 0; stroke: #000000"/>
     <use xlink:href="#m5008c2c5b6" x="226.975196" y="93.14235" style="fill-opacity: 0; stroke: #000000"/>
     <use xlink:href="#m5008c2c5b6" x="232.718614" y="89.520356" style="fill-opacity: 0; stroke: #000000"/>
     <use xlink:href="#m5008c2c5b6" x="237.950799" y="88.038048" style="fill-opacity: 0; stroke: #000000"/>
     <use xlink:href="#m5008c2c5b6" x="243.897607" y="84.158612" style="fill-opacity: 0; stroke: #000000"/>
     <use xlink:href="#m5008c2c5b6" x="249.298031" y="80.54074" style="fill-opacity: 0; stroke: #000000"/>
     <use xlink:href="#m5008c2c5b6" x="255.185271" y="70.718355" style="fill-opacity: 0; stroke: #000000"/>
     <use xlink:href="#m5008c2c5b6" x="260.536532" y="58.218122" style="fill-opacity: 0; stroke: #000000"/>
     <use xlink:href="#m5008c2c5b6" x="266.220443" y="59.241201" style="fill-opacity: 0; stroke: #000000"/>
     <use xlink:href="#m5008c2c5b6" x="271.403204" y="69.596918" style="fill-opacity: 0; stroke: #000000"/>
     <use xlink:href="#m5008c2c5b6" x="276.81606" y="83.847895" style="fill-opacity: 0; stroke: #000000"/>
     <use xlink:href="#m5008c2c5b6" x="282.363726" y="93.544919" style="fill-opacity: 0; stroke: #000000"/>
     <use xlink:href="#m5008c2c5b6" x="287.970186" y="107.243811" style="fill-opacity: 0; stroke: #000000"/>
     <use xlink:href="#m5008c2c5b6" x="293.088483" y="110.759284" style="fill-opacity: 0; stroke: #000000"/>
     <use xlink:href="#m5008c2c5b6" x="298.694944" y="122.040055" style="fill-opacity: 0; stroke: #000000"/>
     <use xlink:href="#m5008c2c5b6" x="304.220324" y="123.867845" style="fill-opacity: 0; stroke: #000000"/>
     <use xlink:href="#m5008c2c5b6" x="309.642095" y="133.121136" style="fill-opacity: 0; stroke: #000000"/>
     <use xlink:href="#m5008c2c5b6" x="315.282179" y="140.264616" style="fill-opacity: 0; stroke: #000000"/>
     <use xlink:href="#m5008c2c5b6" x="320.735652" y="147.617998" style="fill-opacity: 0; stroke: #000000"/>
     <use xlink:href="#m5008c2c5b6" x="326.006936" y="148.933083" style="fill-opacity: 0; stroke: #000000"/>
     <use xlink:href="#m5008c2c5b6" x="331.613396" y="154.840809" style="fill-opacity: 0; stroke: #000000"/>
     <use xlink:href="#m5008c2c5b6" x="336.964657" y="160.028646" style="fill-opacity: 0; stroke: #000000"/>
     <use xlink:href="#m5008c2c5b6" x="342.507673" y="169.723013" style="fill-opacity: 0; stroke: #000000"/>
     <use xlink:href="#m5008c2c5b6" x="347.960045" y="176.752853" style="fill-opacity: 0; stroke: #000000"/>
     <use xlink:href="#m5008c2c5b6" x="353.478774" y="176.29888" style="fill-opacity: 0; stroke: #000000"/>
     <use xlink:href="#m5008c2c5b6" x="359.005366" y="188.382132" style="fill-opacity: 0; stroke: #000000"/>
     <use xlink:href="#m5008c2c5b6" x="364.349677" y="191.122093" style="fill-opacity: 0; stroke: #000000"/>
     <use xlink:href="#m5008c2c5b6" x="369.916315" y="197.510773" style="fill-opacity: 0; stroke: #000000"/>
     <use xlink:href="#m5008c2c5b6" x="375.365639" y="200.876854" style="fill-opacity: 0; stroke: #000000"/>
     <use xlink:href="#m5008c2c5b6" x="380.795783" y="207.363522" style="fill-opacity: 0; stroke: #000000"/>
     <use xlink:href="#m5008c2c5b6" x="386.27167" y="210.092283" style="fill-opacity: 0; stroke: #000000"/>
     <use xlink:href="#m5008c2c5b6" x="391.740853" y="214.562374" style="fill-opacity: 0; stroke: #000000"/>
     <use xlink:href="#m5008c2c5b6" x="397.247274" y="217.940676" style="fill-opacity: 0; stroke: #000000"/>
     <use xlink:href="#m5008c2c5b6" x="402.739845" y="225.039037" style="fill-opacity: 0; stroke: #000000"/>
     <use xlink:href="#m5008c2c5b6" x="408.180255" y="231.6254" style="fill-opacity: 0; stroke: #000000"/>
     <use xlink:href="#m5008c2c5b6" x="413.666919" y="233.74373" style="fill-opacity: 0; stroke: #000000"/>
     <use xlink:href="#m5008c2c5b6" x="419.147013" y="240.390531" style="fill-opacity: 0; stroke: #000000"/>
     <use xlink:href="#m5008c2c5b6" x="424.580717" y="244.55326" style="fill-opacity: 0; stroke: #000000"/>
     <use xlink:href="#m5008c2c5b6" x="430.08223" y="255.947029" style="fill-opacity: 0; stroke: #000000"/>
     <use xlink:href="#m5008c2c5b6" x="435.549627" y="254.812665" style="fill-opacity: 0; stroke: #000000"/>
     <use xlink:href="#m5008c2c5b6" x="441.029382" y="258.49461" style="fill-opacity: 0; stroke: #000000"/>
     <use xlink:href="#m5008c2c5b6" x="446.477074" y="265.432927" style="fill-opacity: 0; stroke: #000000"/>
     <use xlink:href="#m5008c2c5b6" x="451.958581" y="271.975367" style="fill-opacity: 0; stroke: #000000"/>
     <use xlink:href="#m5008c2c5b6" x="457.424226" y="277.876426" style="fill-opacity: 0; stroke: #000000"/>
     <use xlink:href="#m5008c2c5b6" x="462.918775" y="284.35623" style="fill-opacity: 0; stroke: #000000"/>
     <use xlink:href="#m5008c2c5b6" x="468.368548" y="287.136119" style="fill-opacity: 0; stroke: #000000"/>
     <use xlink:href="#m5008c2c5b6" x="473.857162" y="290.527526" style="fill-opacity: 0; stroke: #000000"/>
     <use xlink:href="#m5008c2c5b6" x="479.333553" y="301.352841" style="fill-opacity: 0; stroke: #000000"/>
     <use xlink:href="#m5008c2c5b6" x="484.797037" y="303.252479" style="fill-opacity: 0; stroke: #000000"/>
     <use xlink:href="#m5008c2c5b6" x="490.278365" y="309.590035" style="fill-opacity: 0; stroke: #000000"/>
     <use xlink:href="#m5008c2c5b6" x="495.747388" y="313.766624" style="fill-opacity: 0; stroke: #000000"/>
     <use xlink:href="#m5008c2c5b6" x="501.208679" y="315.807739" style="fill-opacity: 0; stroke: #000000"/>
     <use xlink:href="#m5008c2c5b6" x="506.688049" y="325.158214" style="fill-opacity: 0; stroke: #000000"/>
     <use xlink:href="#m5008c2c5b6" x="512.163359" y="328.480622" style="fill-opacity: 0; stroke: #000000"/>
     <use xlink:href="#m5008c2c5b6" x="517.637405" y="330.019404" style="fill-opacity: 0; stroke: #000000"/>
     <use xlink:href="#m5008c2c5b6" x="523.108502" y="336.143333" style="fill-opacity: 0; stroke: #000000"/>
     <use xlink:href="#m5008c2c5b6" x="528.580897" y="345.726383" style="fill-opacity: 0; stroke: #000000"/>
     <use xlink:href="#m5008c2c5b6" x="534.053801" y="349.904289" style="fill-opacity: 0; stroke: #000000"/>
     <use xlink:href="#m5008c2c5b6" x="539.522984" y="353.614467" style="fill-opacity: 0; stroke: #000000"/>
     <use xlink:href="#m5008c2c5b6" x="544.995569" y="362.14091" style="fill-opacity: 0; stroke: #000000"/>
     <use xlink:href="#m5008c2c5b6" x="550.466491" y="364.755009" style="fill-opacity: 0; stroke: #000000"/>
     <use xlink:href="#m5008c2c5b6" x="555.939911" y="369.68364" style="fill-opacity: 0; stroke: #000000"/>
     <use xlink:href="#m5008c2c5b6" x="561.414923" y="375.027338" style="fill-opacity: 0; stroke: #000000"/>
     <use xlink:href="#m5008c2c5b6" x="566.887169" y="374.28411" style="fill-opacity: 0; stroke: #000000"/>
     <use xlink:href="#m5008c2c5b6" x="572.358597" y="385.070376" style="fill-opacity: 0; stroke: #000000"/>
     <use xlink:href="#m5008c2c5b6" x="577.830799" y="389.246666" style="fill-opacity: 0; stroke: #000000"/>
     <use xlink:href="#m5008c2c5b6" x="583.304706" y="395.836325" style="fill-opacity: 0; stroke: #000000"/>
    </g>
   </g>
   <g id="patch_3">
    <path d="M 82.293927 300.596704 
L 82.293927 17.718498 
" style="fill: none; stroke: #000000; stroke-width: 0.8; stroke-linejoin: miter; stroke-linecap: square"/>
   </g>
   <g id="patch_4">
    <path d="M 488.630952 300.596704 
L 488.630952 17.718498 
" style="fill: none; stroke: #000000; stroke-width: 0.8; stroke-linejoin: miter; stroke-linecap: square"/>
   </g>
   <g id="patch_5">
    <path d="M 82.293927 300.596704 
L 488.630952 300.596704 
" style="fill: none; stroke: #000000; stroke-width: 0.8; stroke-linejoin: miter; stroke-linecap: square"/>
   </g>
   <g id="patch_6">
    <path d="M 82.293927 17.718498 
L 488.630952 17.718498 
" style="fill: none; stroke: #000000; stroke-width: 0.8; stroke-linejoin: miter; stroke-linecap: square"/>
   </g>
   <g id="legend_1">
    <g id="patch_7">
     <path d="M 94.893927 291.596704 
L 226.867021 291.596704 
Q 230.467021 291.596704 230.467021 287.996704 
L 230.467021 239.620576 
Q 230.467021 236.020576 226.867021 236.020576 
L 94.893927 236.020576 
Q 91.293927 236.020576 91.293927 239.620576 
L 91.293927 287.996704 
Q 91.293927 291.596704 94.893927 291.596704 
z
" style="fill: #ffffff; opacity: 0.8; stroke: #cccccc; stroke-linejoin: miter"/>
    </g>
    <g id="line2d_31">
     <path d="M 98.493927 249.520576 
L 116.493927 249.520576 
L 134.493927 249.520576 
" style="fill: none; stroke: #ff7f0e; stroke-width: 6; stroke-linecap: square"/>
    </g>
    <g id="text_10">
     <!-- analytical -->
     <g transform="translate(148.893927 255.820576) scale(0.18 -0.18)">
      <use xlink:href="#CMR17-61" transform="scale(0.996264)"/>
      <use xlink:href="#CMR17-6e" transform="translate(45.690477 0) scale(0.996264)"/>
      <use xlink:href="#CMR17-61" transform="translate(96.585847 0) scale(0.996264)"/>
      <use xlink:href="#CMR17-6c" transform="translate(142.276324 0) scale(0.996264)"/>
      <use xlink:href="#CMR17-79" transform="translate(167.147382 0) scale(0.996264)"/>
      <use xlink:href="#CMR17-74" transform="translate(215.440298 0) scale(0.996264)"/>
      <use xlink:href="#CMR17-69" transform="translate(250.721066 0) scale(0.996264)"/>
      <use xlink:href="#CMR17-63" transform="translate(275.592125 0) scale(0.996264)"/>
      <use xlink:href="#CMR17-61" transform="translate(316.077785 0) scale(0.996264)"/>
      <use xlink:href="#CMR17-6c" transform="translate(361.768262 0) scale(0.996264)"/>
     </g>
    </g>
    <g id="line2d_32">
     <path d="M 98.493927 274.60864 
L 116.493927 274.60864 
L 134.493927 274.60864 
" style="fill: none"/>
     <g>
      <use xlink:href="#m5008c2c5b6" x="116.493927" y="274.60864" style="fill-opacity: 0; stroke: #000000"/>
     </g>
    </g>
    <g id="text_11">
     <!-- simulation -->
     <g transform="translate(148.893927 280.90864) scale(0.18 -0.18)">
      <defs>
       <path id="CMR17-6d" d="M 4326 1954 
C 4326 2276 4269 2816 3507 2816 
C 3072 2816 2771 2520 2656 2173 
L 2650 2173 
C 2573 2700 2195 2816 1837 2816 
C 1331 2816 1069 2424 973 2166 
L 966 2166 
L 966 2816 
L 211 2745 
L 211 2578 
C 589 2578 646 2540 646 2231 
L 646 443 
C 646 198 621 166 211 166 
L 211 0 
C 365 12 646 12 813 12 
C 979 12 1267 12 1421 0 
L 1421 166 
C 1011 166 986 192 986 443 
L 986 1678 
C 986 2269 1344 2713 1792 2713 
C 2266 2713 2317 2289 2317 1980 
L 2317 443 
C 2317 198 2291 166 1882 166 
L 1882 0 
C 2035 12 2317 12 2483 12 
C 2650 12 2938 12 3091 0 
L 3091 166 
C 2682 166 2656 192 2656 443 
L 2656 1678 
C 2656 2269 3014 2713 3462 2713 
C 3936 2713 3987 2289 3987 1980 
L 3987 443 
C 3987 198 3962 166 3552 166 
L 3552 0 
C 3706 12 3987 12 4154 12 
C 4320 12 4608 12 4762 0 
L 4762 166 
C 4352 166 4326 192 4326 443 
L 4326 1954 
z
" transform="scale(0.015625)"/>
      </defs>
      <use xlink:href="#CMR17-73" transform="scale(0.996264)"/>
      <use xlink:href="#CMR17-69" transform="translate(35.801338 0) scale(0.996264)"/>
      <use xlink:href="#CMR17-6d" transform="translate(60.672396 0) scale(0.996264)"/>
      <use xlink:href="#CMR17-75" transform="translate(134.989532 0) scale(0.996264)"/>
      <use xlink:href="#CMR17-6c" transform="translate(185.884902 0) scale(0.996264)"/>
      <use xlink:href="#CMR17-61" transform="translate(210.75596 0) scale(0.996264)"/>
      <use xlink:href="#CMR17-74" transform="translate(256.446437 0) scale(0.996264)"/>
      <use xlink:href="#CMR17-69" transform="translate(291.727205 0) scale(0.996264)"/>
      <use xlink:href="#CMR17-6f" transform="translate(316.598264 0) scale(0.996264)"/>
      <use xlink:href="#CMR17-6e" transform="translate(362.288741 0) scale(0.996264)"/>
     </g>
    </g>
   </g>
  </g>
 </g>
 <defs>
  <clipPath id="pe71227b473">
   <rect x="82.293927" y="17.718498" width="406.337025" height="282.878206"/>
  </clipPath>
 </defs>
</svg>
