<?xml version="1.0" encoding="utf-8" standalone="no"?>
<!DOCTYPE svg PUBLIC "-//W3C//DTD SVG 1.1//EN"
  "http://www.w3.org/Graphics/SVG/1.1/DTD/svg11.dtd">
<svg xmlns:xlink="http://www.w3.org/1999/xlink" width="432pt" height="288pt" viewBox="0 0 432 288" xmlns="http://www.w3.org/2000/svg" version="1.1">
 <metadata>
  <rdf:RDF xmlns:dc="http://purl.org/dc/elements/1.1/" xmlns:cc="http://creativecommons.org/ns#" xmlns:rdf="http://www.w3.org/1999/02/22-rdf-syntax-ns#">
   <cc:Work>
    <dc:type rdf:resource="http://purl.org/dc/dcmitype/StillImage"/>
    <dc:date>2024-05-08T18:16:03.536825</dc:date>
    <dc:format>image/svg+xml</dc:format>
    <dc:creator>
     <cc:Agent>
      <dc:title>Matplotlib v3.7.1, https://matplotlib.org/</dc:title>
     </cc:Agent>
    </dc:creator>
   </cc:Work>
  </rdf:RDF>
 </metadata>
 <defs>
  <style type="text/css">*{stroke-linejoin: round; stroke-linecap: butt}</style>
 </defs>
 <g id="figure_1">
  <g id="patch_1">
   <path d="M 0 288 
L 432 288 
L 432 0 
L 0 0 
L 0 288 
z
" style="fill: none"/>
  </g>
  <g id="axes_1">
   <g id="patch_2">
    <path d="M 82.293927 228.596704 
L 412.061905 228.596704 
L 412.061905 10.8 
L 82.293927 10.8 
z
" style="fill: #ffffff"/>
   </g>
   <g id="matplotlib.axis_1">
    <g id="xtick_1">
     <g id="line2d_1">
      <defs>
       <path id="md530453a78" d="M 0 0 
L 0 3.5 
" style="stroke: #000000; stroke-width: 0.8"/>
      </defs>
      <g>
       <use xlink:href="#md530453a78" x="82.293927" y="228.596704" style="stroke: #000000; stroke-width: 0.8"/>
      </g>
     </g>
     <g id="text_1">
      <!-- 0.001 -->
      <g transform="translate(61.530634 249.433701) scale(0.2 -0.2)">
       <defs>
        <path id="CMR17-30" d="M 2688 2038 
C 2688 2430 2682 3099 2413 3613 
C 2176 4063 1798 4224 1466 4224 
C 1158 4224 768 4082 525 3620 
C 269 3137 243 2539 243 2038 
C 243 1671 250 1112 448 623 
C 723 -39 1216 -128 1466 -128 
C 1760 -128 2208 -7 2470 604 
C 2662 1048 2688 1568 2688 2038 
z
M 1466 -26 
C 1056 -26 813 328 723 816 
C 653 1196 653 1749 653 2109 
C 653 2604 653 3015 736 3407 
C 858 3954 1216 4121 1466 4121 
C 1728 4121 2067 3947 2189 3420 
C 2272 3054 2278 2623 2278 2109 
C 2278 1691 2278 1176 2202 797 
C 2067 96 1690 -26 1466 -26 
z
" transform="scale(0.015625)"/>
        <path id="CMR17-2e" d="M 1062 262 
C 1062 422 934 524 800 524 
C 672 524 538 422 538 262 
C 538 102 666 0 800 0 
C 928 0 1062 102 1062 262 
z
" transform="scale(0.015625)"/>
        <path id="CMR17-31" d="M 1702 4083 
C 1702 4217 1696 4224 1606 4224 
C 1357 3927 979 3833 621 3820 
C 602 3820 570 3820 563 3808 
C 557 3795 557 3782 557 3648 
C 755 3648 1088 3686 1344 3839 
L 1344 467 
C 1344 243 1331 166 781 166 
L 589 166 
L 589 0 
C 896 6 1216 12 1523 12 
C 1830 12 2150 6 2458 0 
L 2458 166 
L 2266 166 
C 1715 166 1702 236 1702 467 
L 1702 4083 
z
" transform="scale(0.015625)"/>
       </defs>
       <use xlink:href="#CMR17-30" transform="scale(0.996264)"/>
       <use xlink:href="#CMR17-2e" transform="translate(45.690477 0) scale(0.996264)"/>
       <use xlink:href="#CMR17-30" transform="translate(70.561536 0) scale(0.996264)"/>
       <use xlink:href="#CMR17-30" transform="translate(116.252013 0) scale(0.996264)"/>
       <use xlink:href="#CMR17-31" transform="translate(161.94249 0) scale(0.996264)"/>
      </g>
     </g>
    </g>
    <g id="xtick_2">
     <g id="line2d_2">
      <g>
       <use xlink:href="#md530453a78" x="247.177916" y="228.596704" style="stroke: #000000; stroke-width: 0.8"/>
      </g>
     </g>
     <g id="text_2">
      <!-- 0.1 -->
      <g transform="translate(235.552718 249.433701) scale(0.2 -0.2)">
       <use xlink:href="#CMR17-30" transform="scale(0.996264)"/>
       <use xlink:href="#CMR17-2e" transform="translate(45.690477 0) scale(0.996264)"/>
       <use xlink:href="#CMR17-31" transform="translate(70.561536 0) scale(0.996264)"/>
      </g>
     </g>
    </g>
    <g id="xtick_3">
     <g id="line2d_3">
      <g>
       <use xlink:href="#md530453a78" x="412.061905" y="228.596704" style="stroke: #000000; stroke-width: 0.8"/>
      </g>
     </g>
     <g id="text_3">
      <!-- 10 -->
      <g transform="translate(402.923809 249.433701) scale(0.2 -0.2)">
       <use xlink:href="#CMR17-31" transform="scale(0.996264)"/>
       <use xlink:href="#CMR17-30" transform="translate(45.690477 0) scale(0.996264)"/>
      </g>
     </g>
    </g>
    <g id="xtick_4">
     <g id="line2d_4">
      <defs>
       <path id="mb5f3276810" d="M 0 0 
L 0 2 
" style="stroke: #000000; stroke-width: 0.6"/>
      </defs>
      <g>
       <use xlink:href="#mb5f3276810" x="107.11144" y="228.596704" style="stroke: #000000; stroke-width: 0.6"/>
      </g>
     </g>
    </g>
    <g id="xtick_5">
     <g id="line2d_5">
      <g>
       <use xlink:href="#mb5f3276810" x="121.628755" y="228.596704" style="stroke: #000000; stroke-width: 0.6"/>
      </g>
     </g>
    </g>
    <g id="xtick_6">
     <g id="line2d_6">
      <g>
       <use xlink:href="#mb5f3276810" x="131.928954" y="228.596704" style="stroke: #000000; stroke-width: 0.6"/>
      </g>
     </g>
    </g>
    <g id="xtick_7">
     <g id="line2d_7">
      <g>
       <use xlink:href="#mb5f3276810" x="139.918408" y="228.596704" style="stroke: #000000; stroke-width: 0.6"/>
      </g>
     </g>
    </g>
    <g id="xtick_8">
     <g id="line2d_8">
      <g>
       <use xlink:href="#mb5f3276810" x="146.446268" y="228.596704" style="stroke: #000000; stroke-width: 0.6"/>
      </g>
     </g>
    </g>
    <g id="xtick_9">
     <g id="line2d_9">
      <g>
       <use xlink:href="#mb5f3276810" x="151.965495" y="228.596704" style="stroke: #000000; stroke-width: 0.6"/>
      </g>
     </g>
    </g>
    <g id="xtick_10">
     <g id="line2d_10">
      <g>
       <use xlink:href="#mb5f3276810" x="156.746467" y="228.596704" style="stroke: #000000; stroke-width: 0.6"/>
      </g>
     </g>
    </g>
    <g id="xtick_11">
     <g id="line2d_11">
      <g>
       <use xlink:href="#mb5f3276810" x="160.963583" y="228.596704" style="stroke: #000000; stroke-width: 0.6"/>
      </g>
     </g>
    </g>
    <g id="xtick_12">
     <g id="line2d_12">
      <g>
       <use xlink:href="#mb5f3276810" x="189.553435" y="228.596704" style="stroke: #000000; stroke-width: 0.6"/>
      </g>
     </g>
    </g>
    <g id="xtick_13">
     <g id="line2d_13">
      <g>
       <use xlink:href="#mb5f3276810" x="204.070749" y="228.596704" style="stroke: #000000; stroke-width: 0.6"/>
      </g>
     </g>
    </g>
    <g id="xtick_14">
     <g id="line2d_14">
      <g>
       <use xlink:href="#mb5f3276810" x="214.370948" y="228.596704" style="stroke: #000000; stroke-width: 0.6"/>
      </g>
     </g>
    </g>
    <g id="xtick_15">
     <g id="line2d_15">
      <g>
       <use xlink:href="#mb5f3276810" x="222.360403" y="228.596704" style="stroke: #000000; stroke-width: 0.6"/>
      </g>
     </g>
    </g>
    <g id="xtick_16">
     <g id="line2d_16">
      <g>
       <use xlink:href="#mb5f3276810" x="228.888263" y="228.596704" style="stroke: #000000; stroke-width: 0.6"/>
      </g>
     </g>
    </g>
    <g id="xtick_17">
     <g id="line2d_17">
      <g>
       <use xlink:href="#mb5f3276810" x="234.407489" y="228.596704" style="stroke: #000000; stroke-width: 0.6"/>
      </g>
     </g>
    </g>
    <g id="xtick_18">
     <g id="line2d_18">
      <g>
       <use xlink:href="#mb5f3276810" x="239.188461" y="228.596704" style="stroke: #000000; stroke-width: 0.6"/>
      </g>
     </g>
    </g>
    <g id="xtick_19">
     <g id="line2d_19">
      <g>
       <use xlink:href="#mb5f3276810" x="243.405577" y="228.596704" style="stroke: #000000; stroke-width: 0.6"/>
      </g>
     </g>
    </g>
    <g id="xtick_20">
     <g id="line2d_20">
      <g>
       <use xlink:href="#mb5f3276810" x="271.995429" y="228.596704" style="stroke: #000000; stroke-width: 0.6"/>
      </g>
     </g>
    </g>
    <g id="xtick_21">
     <g id="line2d_21">
      <g>
       <use xlink:href="#mb5f3276810" x="286.512744" y="228.596704" style="stroke: #000000; stroke-width: 0.6"/>
      </g>
     </g>
    </g>
    <g id="xtick_22">
     <g id="line2d_22">
      <g>
       <use xlink:href="#mb5f3276810" x="296.812942" y="228.596704" style="stroke: #000000; stroke-width: 0.6"/>
      </g>
     </g>
    </g>
    <g id="xtick_23">
     <g id="line2d_23">
      <g>
       <use xlink:href="#mb5f3276810" x="304.802397" y="228.596704" style="stroke: #000000; stroke-width: 0.6"/>
      </g>
     </g>
    </g>
    <g id="xtick_24">
     <g id="line2d_24">
      <g>
       <use xlink:href="#mb5f3276810" x="311.330257" y="228.596704" style="stroke: #000000; stroke-width: 0.6"/>
      </g>
     </g>
    </g>
    <g id="xtick_25">
     <g id="line2d_25">
      <g>
       <use xlink:href="#mb5f3276810" x="316.849484" y="228.596704" style="stroke: #000000; stroke-width: 0.6"/>
      </g>
     </g>
    </g>
    <g id="xtick_26">
     <g id="line2d_26">
      <g>
       <use xlink:href="#mb5f3276810" x="321.630455" y="228.596704" style="stroke: #000000; stroke-width: 0.6"/>
      </g>
     </g>
    </g>
    <g id="xtick_27">
     <g id="line2d_27">
      <g>
       <use xlink:href="#mb5f3276810" x="325.847571" y="228.596704" style="stroke: #000000; stroke-width: 0.6"/>
      </g>
     </g>
    </g>
    <g id="xtick_28">
     <g id="line2d_28">
      <g>
       <use xlink:href="#mb5f3276810" x="354.437423" y="228.596704" style="stroke: #000000; stroke-width: 0.6"/>
      </g>
     </g>
    </g>
    <g id="xtick_29">
     <g id="line2d_29">
      <g>
       <use xlink:href="#mb5f3276810" x="368.954738" y="228.596704" style="stroke: #000000; stroke-width: 0.6"/>
      </g>
     </g>
    </g>
    <g id="xtick_30">
     <g id="line2d_30">
      <g>
       <use xlink:href="#mb5f3276810" x="379.254937" y="228.596704" style="stroke: #000000; stroke-width: 0.6"/>
      </g>
     </g>
    </g>
    <g id="xtick_31">
     <g id="line2d_31">
      <g>
       <use xlink:href="#mb5f3276810" x="387.244391" y="228.596704" style="stroke: #000000; stroke-width: 0.6"/>
      </g>
     </g>
    </g>
    <g id="xtick_32">
     <g id="line2d_32">
      <g>
       <use xlink:href="#mb5f3276810" x="393.772251" y="228.596704" style="stroke: #000000; stroke-width: 0.6"/>
      </g>
     </g>
    </g>
    <g id="xtick_33">
     <g id="line2d_33">
      <g>
       <use xlink:href="#mb5f3276810" x="399.291478" y="228.596704" style="stroke: #000000; stroke-width: 0.6"/>
      </g>
     </g>
    </g>
    <g id="xtick_34">
     <g id="line2d_34">
      <g>
       <use xlink:href="#mb5f3276810" x="404.07245" y="228.596704" style="stroke: #000000; stroke-width: 0.6"/>
      </g>
     </g>
    </g>
    <g id="xtick_35">
     <g id="line2d_35">
      <g>
       <use xlink:href="#mb5f3276810" x="408.289566" y="228.596704" style="stroke: #000000; stroke-width: 0.6"/>
      </g>
     </g>
    </g>
    <g id="text_4">
     <!-- Frequency (Hz) -->
     <g transform="translate(185.42931 272.235356) scale(0.2 -0.2)">
      <defs>
       <path id="CMR17-46" d="M 3482 4339 
L 326 4339 
L 326 4172 
C 768 4172 838 4172 838 3883 
L 838 450 
C 838 166 768 166 326 166 
L 326 0 
C 512 12 870 12 1069 12 
C 1331 12 1638 12 1901 0 
L 1901 166 
L 1760 166 
C 1274 166 1261 229 1261 456 
L 1261 2073 
L 1837 2073 
C 2432 2073 2490 1865 2490 1334 
L 2605 1334 
L 2605 2991 
L 2490 2991 
C 2490 2451 2432 2240 1837 2240 
L 1261 2240 
L 1261 3922 
C 1261 4140 1274 4172 1530 4172 
L 2355 4172 
C 3322 4172 3430 3774 3520 2920 
L 3635 2920 
L 3482 4339 
z
" transform="scale(0.015625)"/>
       <path id="CMR17-72" d="M 960 1517 
C 960 2134 1222 2713 1702 2713 
C 1747 2713 1792 2707 1837 2687 
C 1837 2687 1696 2642 1696 2475 
C 1696 2321 1818 2257 1914 2257 
C 1990 2257 2131 2302 2131 2482 
C 2131 2687 1926 2816 1709 2816 
C 1222 2816 1011 2340 947 2115 
L 941 2115 
L 941 2816 
L 198 2745 
L 198 2578 
C 576 2578 634 2540 634 2231 
L 634 443 
C 634 198 608 166 198 166 
L 198 0 
C 352 12 646 12 813 12 
C 998 12 1325 12 1498 0 
L 1498 166 
C 1037 166 960 166 960 455 
L 960 1517 
z
" transform="scale(0.015625)"/>
       <path id="CMR17-65" d="M 2438 1503 
C 2464 1529 2464 1542 2464 1606 
C 2464 2251 2118 2816 1389 2816 
C 710 2816 173 2175 173 1394 
C 173 554 781 -64 1459 -64 
C 2176 -64 2458 619 2458 755 
C 2458 800 2419 800 2406 800 
C 2362 800 2355 787 2330 709 
C 2189 270 1837 51 1504 51 
C 1229 51 954 206 781 490 
C 582 819 582 1200 582 1503 
L 2438 1503 
z
M 589 1600 
C 634 2511 1126 2713 1382 2713 
C 1818 2713 2112 2308 2118 1600 
L 589 1600 
z
" transform="scale(0.015625)"/>
       <path id="CMR17-71" d="M 2630 2816 
L 2528 2816 
L 2336 2177 
C 2189 2519 1920 2816 1491 2816 
C 838 2816 211 2228 211 1376 
C 211 529 800 -64 1440 -64 
C 1933 -64 2208 316 2291 458 
L 2291 -834 
C 2291 -1081 2266 -1114 1856 -1114 
L 1856 -1280 
C 2010 -1268 2291 -1268 2458 -1268 
C 2624 -1268 2912 -1268 3066 -1280 
L 3066 -1114 
C 2656 -1114 2630 -1088 2630 -834 
L 2630 2816 
z
M 2304 871 
C 2304 594 2074 335 2054 316 
C 1856 90 1626 38 1472 38 
C 992 38 621 652 621 1369 
C 621 2125 1043 2700 1536 2700 
C 2048 2700 2304 2112 2304 1776 
L 2304 871 
z
" transform="scale(0.015625)"/>
       <path id="CMR17-75" d="M 1882 2745 
L 1882 2579 
C 2259 2579 2317 2540 2317 2229 
L 2317 1053 
C 2317 510 2029 38 1555 38 
C 1030 38 986 355 986 691 
L 986 2816 
L 211 2745 
L 211 2579 
C 467 2579 640 2579 646 2320 
L 646 1079 
C 646 646 646 368 813 187 
C 896 103 1056 -64 1517 -64 
C 2061 -64 2272 400 2323 536 
L 2330 536 
L 2330 -64 
L 3091 -13 
L 3091 154 
C 2714 154 2656 193 2656 503 
L 2656 2816 
L 1882 2745 
z
" transform="scale(0.015625)"/>
       <path id="CMR17-6e" d="M 2656 1954 
C 2656 2282 2592 2816 1837 2816 
C 1331 2816 1069 2424 973 2166 
L 966 2166 
L 966 2816 
L 211 2745 
L 211 2578 
C 589 2578 646 2540 646 2231 
L 646 443 
C 646 198 621 166 211 166 
L 211 0 
C 365 12 646 12 813 12 
C 979 12 1267 12 1421 0 
L 1421 166 
C 1011 166 986 192 986 443 
L 986 1678 
C 986 2269 1344 2713 1792 2713 
C 2266 2713 2317 2289 2317 1980 
L 2317 443 
C 2317 198 2291 166 1882 166 
L 1882 0 
C 2035 12 2317 12 2483 12 
C 2650 12 2938 12 3091 0 
L 3091 166 
C 2682 166 2656 192 2656 443 
L 2656 1954 
z
" transform="scale(0.015625)"/>
       <path id="CMR17-63" d="M 2234 2240 
C 2112 2240 1933 2240 1933 2015 
C 1933 1836 2080 1785 2163 1785 
C 2208 1785 2394 1804 2394 2028 
C 2394 2476 1958 2816 1466 2816 
C 787 2816 211 2201 211 1379 
C 211 521 813 -64 1466 -64 
C 2259 -64 2458 676 2458 747 
C 2458 773 2451 792 2406 792 
C 2362 792 2355 786 2330 702 
C 2163 180 1798 51 1523 51 
C 1114 51 621 431 621 1385 
C 621 2358 1094 2700 1472 2700 
C 1722 2700 2093 2582 2234 2240 
z
" transform="scale(0.015625)"/>
       <path id="CMR17-79" d="M 2496 2183 
C 2656 2579 2944 2585 3034 2585 
L 3034 2752 
C 2912 2745 2752 2739 2630 2739 
C 2496 2739 2285 2739 2157 2752 
L 2157 2585 
C 2400 2566 2406 2384 2406 2332 
C 2406 2268 2394 2235 2362 2158 
L 1664 409 
L 902 2300 
C 870 2378 870 2423 870 2430 
C 870 2572 1018 2585 1171 2585 
L 1171 2752 
C 1018 2739 742 2739 582 2739 
C 410 2739 205 2739 64 2752 
L 64 2585 
C 410 2585 448 2553 531 2345 
L 1485 -31 
C 1197 -795 1030 -1242 627 -1242 
C 557 -1242 397 -1223 282 -1106 
C 429 -1093 493 -1002 493 -892 
C 493 -782 416 -685 288 -685 
C 147 -685 77 -782 77 -899 
C 77 -1158 339 -1344 627 -1344 
C 998 -1344 1229 -983 1357 -659 
L 2496 2183 
z
" transform="scale(0.015625)"/>
       <path id="CMR17-28" d="M 1958 -1562 
C 1958 -1556 1958 -1543 1939 -1524 
C 1645 -1223 858 -403 858 1596 
C 858 3595 1632 4408 1946 4729 
C 1946 4735 1958 4748 1958 4767 
C 1958 4787 1939 4800 1914 4800 
C 1843 4800 1299 4325 986 3620 
C 666 2909 576 2218 576 1603 
C 576 1141 621 360 1005 -467 
C 1312 -1133 1837 -1600 1914 -1600 
C 1946 -1600 1958 -1588 1958 -1562 
z
" transform="scale(0.015625)"/>
       <path id="CMR17-48" d="M 3590 3898 
C 3590 4185 3661 4185 4102 4185 
L 4102 4352 
C 3917 4339 3578 4339 3379 4339 
C 3181 4339 2842 4339 2656 4352 
L 2656 4185 
C 3098 4185 3168 4185 3168 3898 
L 3168 2342 
L 1261 2342 
L 1261 3898 
C 1261 4185 1331 4185 1773 4185 
L 1773 4352 
C 1587 4339 1248 4339 1050 4339 
C 851 4339 512 4339 326 4352 
L 326 4185 
C 768 4185 838 4185 838 3898 
L 838 452 
C 838 166 768 166 326 166 
L 326 0 
C 512 12 851 12 1050 12 
C 1248 12 1587 12 1773 0 
L 1773 166 
C 1331 166 1261 166 1261 452 
L 1261 2176 
L 3168 2176 
L 3168 452 
C 3168 166 3098 166 2656 166 
L 2656 0 
C 2842 12 3181 12 3379 12 
C 3578 12 3917 12 4102 0 
L 4102 166 
C 3661 166 3590 166 3590 452 
L 3590 3898 
z
" transform="scale(0.015625)"/>
       <path id="CMR17-7a" d="M 2310 2604 
C 2362 2668 2362 2681 2362 2694 
C 2362 2752 2336 2752 2221 2752 
L 275 2752 
L 211 1760 
L 326 1760 
C 371 2380 442 2649 1178 2649 
L 1958 2649 
L 128 96 
C 128 6 134 0 269 0 
L 2291 0 
L 2381 1152 
L 2266 1152 
C 2214 441 2131 115 1350 115 
L 531 115 
L 2310 2604 
z
" transform="scale(0.015625)"/>
       <path id="CMR17-29" d="M 1683 1596 
C 1683 2057 1638 2839 1254 3665 
C 947 4332 422 4800 346 4800 
C 326 4800 301 4793 301 4761 
C 301 4748 307 4742 314 4729 
C 621 4408 1402 3595 1402 1603 
C 1402 -396 627 -1210 314 -1530 
C 307 -1543 301 -1549 301 -1562 
C 301 -1594 326 -1600 346 -1600 
C 416 -1600 960 -1127 1274 -422 
C 1594 289 1683 981 1683 1596 
z
" transform="scale(0.015625)"/>
      </defs>
      <use xlink:href="#CMR17-46" transform="scale(0.996264)"/>
      <use xlink:href="#CMR17-72" transform="translate(52.176591 0) scale(0.996264)"/>
      <use xlink:href="#CMR17-65" transform="translate(87.457359 0) scale(0.996264)"/>
      <use xlink:href="#CMR17-71" transform="translate(127.943019 0) scale(0.996264)"/>
      <use xlink:href="#CMR17-75" transform="translate(176.235935 0) scale(0.996264)"/>
      <use xlink:href="#CMR17-65" transform="translate(227.131305 0) scale(0.996264)"/>
      <use xlink:href="#CMR17-6e" transform="translate(267.616966 0) scale(0.996264)"/>
      <use xlink:href="#CMR17-63" transform="translate(318.512335 0) scale(0.996264)"/>
      <use xlink:href="#CMR17-79" transform="translate(358.997996 0) scale(0.996264)"/>
      <use xlink:href="#CMR17-28" transform="translate(437.366878 0) scale(0.996264)"/>
      <use xlink:href="#CMR17-48" transform="translate(472.647646 0) scale(0.996264)"/>
      <use xlink:href="#CMR17-7a" transform="translate(541.720076 0) scale(0.996264)"/>
      <use xlink:href="#CMR17-29" transform="translate(582.205736 0) scale(0.996264)"/>
     </g>
    </g>
   </g>
   <g id="matplotlib.axis_2">
    <g id="ytick_1">
     <g id="line2d_36">
      <defs>
       <path id="m9670664fc0" d="M 0 0 
L -3.5 0 
" style="stroke: #000000; stroke-width: 0.8"/>
      </defs>
      <g>
       <use xlink:href="#m9670664fc0" x="82.293927" y="192.297253" style="stroke: #000000; stroke-width: 0.8"/>
      </g>
     </g>
     <g id="text_5">
      <!-- $\mathdefault{10^{-11}}$ -->
      <g transform="translate(32.51263 199.215752) scale(0.2 -0.2)">
       <defs>
        <path id="CMSY10-0" d="M 4218 1472 
C 4326 1472 4442 1472 4442 1600 
C 4442 1728 4326 1728 4218 1728 
L 755 1728 
C 646 1728 531 1728 531 1600 
C 531 1472 646 1472 755 1472 
L 4218 1472 
z
" transform="scale(0.015625)"/>
       </defs>
       <use xlink:href="#CMR17-31" transform="scale(0.996264)"/>
       <use xlink:href="#CMR17-30" transform="translate(45.690477 0) scale(0.996264)"/>
       <use xlink:href="#CMSY10-0" transform="translate(91.380954 36.153639) scale(0.697382)"/>
       <use xlink:href="#CMR17-31" transform="translate(145.621947 36.153639) scale(0.697382)"/>
       <use xlink:href="#CMR17-31" transform="translate(177.605129 36.153639) scale(0.697382)"/>
      </g>
     </g>
    </g>
    <g id="ytick_2">
     <g id="line2d_37">
      <g>
       <use xlink:href="#m9670664fc0" x="82.293927" y="119.698352" style="stroke: #000000; stroke-width: 0.8"/>
      </g>
     </g>
     <g id="text_6">
      <!-- $\mathdefault{10^{-7}}$ -->
      <g transform="translate(39.341089 126.61685) scale(0.2 -0.2)">
       <defs>
        <path id="CMR17-37" d="M 2886 3955 
L 2886 4096 
L 1382 4096 
C 634 4096 621 4166 595 4288 
L 480 4288 
L 294 3104 
L 410 3104 
C 429 3226 474 3552 550 3673 
C 589 3724 1062 3724 1171 3724 
L 2579 3724 
L 1869 2670 
C 1395 1961 1069 1003 1069 166 
C 1069 89 1069 -128 1299 -128 
C 1530 -128 1530 89 1530 172 
L 1530 466 
C 1530 1514 1709 2204 2003 2644 
L 2886 3955 
z
" transform="scale(0.015625)"/>
       </defs>
       <use xlink:href="#CMR17-31" transform="scale(0.996264)"/>
       <use xlink:href="#CMR17-30" transform="translate(45.690477 0) scale(0.996264)"/>
       <use xlink:href="#CMSY10-0" transform="translate(91.380954 36.153639) scale(0.697382)"/>
       <use xlink:href="#CMR17-37" transform="translate(145.621947 36.153639) scale(0.697382)"/>
      </g>
     </g>
    </g>
    <g id="ytick_3">
     <g id="line2d_38">
      <g>
       <use xlink:href="#m9670664fc0" x="82.293927" y="47.099451" style="stroke: #000000; stroke-width: 0.8"/>
      </g>
     </g>
     <g id="text_7">
      <!-- $\mathdefault{10^{-3}}$ -->
      <g transform="translate(39.341089 54.017949) scale(0.2 -0.2)">
       <defs>
        <path id="CMR17-33" d="M 1414 2176 
C 1984 2176 2234 1673 2234 1094 
C 2234 322 1824 25 1453 25 
C 1114 25 563 193 390 691 
C 422 678 454 678 486 678 
C 640 678 755 780 755 947 
C 755 1132 614 1216 486 1216 
C 378 1216 211 1164 211 927 
C 211 335 787 -128 1466 -128 
C 2176 -128 2720 432 2720 1087 
C 2720 1718 2208 2176 1600 2246 
C 2086 2347 2554 2776 2554 3353 
C 2554 3856 2048 4224 1472 4224 
C 890 4224 378 3862 378 3347 
C 378 3123 544 3084 627 3084 
C 762 3084 877 3167 877 3334 
C 877 3500 762 3584 627 3584 
C 602 3584 570 3584 544 3571 
C 730 3999 1235 4076 1459 4076 
C 1683 4076 2106 3966 2106 3347 
C 2106 3167 2080 2851 1862 2574 
C 1670 2329 1453 2316 1242 2297 
C 1210 2297 1062 2284 1037 2284 
C 992 2278 966 2272 966 2227 
C 966 2182 973 2176 1101 2176 
L 1414 2176 
z
" transform="scale(0.015625)"/>
       </defs>
       <use xlink:href="#CMR17-31" transform="scale(0.996264)"/>
       <use xlink:href="#CMR17-30" transform="translate(45.690477 0) scale(0.996264)"/>
       <use xlink:href="#CMSY10-0" transform="translate(91.380954 36.153639) scale(0.697382)"/>
       <use xlink:href="#CMR17-33" transform="translate(145.621947 36.153639) scale(0.697382)"/>
      </g>
     </g>
    </g>
    <g id="text_8">
     <!-- Power Spectral Density -->
     <g transform="translate(24.636997 212.978632) rotate(-90) scale(0.2 -0.2)">
      <defs>
       <path id="CMR17-50" d="M 1267 2048 
L 2291 2048 
C 3117 2048 3718 2583 3718 3187 
C 3718 3791 3130 4352 2291 4352 
L 333 4352 
L 333 4185 
C 774 4185 845 4185 845 3899 
L 845 453 
C 845 166 774 166 333 166 
L 333 0 
C 518 12 858 12 1056 12 
C 1254 12 1594 12 1779 0 
L 1779 166 
C 1338 166 1267 166 1267 453 
L 1267 2048 
z
M 1254 2182 
L 1254 3937 
C 1254 4153 1267 4185 1523 4185 
L 2170 4185 
C 2995 4185 3232 3715 3232 3187 
C 3232 2608 2950 2182 2170 2182 
L 1254 2182 
z
" transform="scale(0.015625)"/>
       <path id="CMR17-6f" d="M 2758 1356 
C 2758 2176 2163 2816 1466 2816 
C 768 2816 173 2176 173 1356 
C 173 550 768 -64 1466 -64 
C 2163 -64 2758 550 2758 1356 
z
M 1466 51 
C 1165 51 909 230 762 480 
C 602 768 582 1126 582 1408 
C 582 1676 595 2009 762 2297 
C 890 2508 1139 2713 1466 2713 
C 1754 2713 1997 2553 2150 2329 
C 2349 2028 2349 1606 2349 1408 
C 2349 1158 2336 774 2163 467 
C 1984 172 1709 51 1466 51 
z
" transform="scale(0.015625)"/>
       <path id="CMR17-77" d="M 3725 2186 
C 3853 2566 4109 2579 4205 2585 
L 4205 2752 
C 4077 2745 3949 2739 3821 2739 
C 3699 2739 3424 2739 3315 2752 
L 3315 2585 
C 3514 2572 3622 2456 3622 2296 
C 3622 2251 3610 2193 3597 2148 
L 2995 398 
L 2342 2296 
C 2330 2341 2310 2392 2310 2418 
C 2310 2585 2528 2585 2630 2585 
L 2630 2752 
C 2483 2739 2214 2739 2061 2739 
C 1901 2739 1734 2739 1587 2752 
L 1587 2585 
C 1939 2585 1939 2572 2074 2167 
L 1485 443 
L 851 2302 
C 819 2386 819 2399 819 2418 
C 819 2585 1037 2585 1139 2585 
L 1139 2752 
C 986 2739 717 2739 557 2739 
C 416 2739 198 2739 64 2752 
L 64 2585 
C 346 2585 416 2566 486 2353 
L 1274 38 
C 1299 -45 1318 -64 1370 -64 
C 1414 -64 1440 -52 1472 44 
L 2131 1987 
L 2797 44 
C 2829 -52 2854 -64 2899 -64 
C 2950 -64 2970 -45 2995 38 
L 3725 2186 
z
" transform="scale(0.015625)"/>
       <path id="CMR17-53" d="M 2803 4351 
C 2803 4467 2797 4473 2758 4473 
C 2720 4473 2707 4447 2682 4390 
L 2490 3965 
C 2246 4320 1875 4480 1472 4480 
C 819 4480 294 3958 294 3301 
C 294 3101 339 2817 557 2546 
C 794 2250 1018 2198 1530 2063 
C 1722 2011 2042 1927 2106 1901 
C 2470 1747 2662 1360 2662 999 
C 2662 534 2336 38 1779 38 
C 1094 38 454 425 410 1328 
C 403 1431 397 1437 352 1437 
C 301 1437 294 1431 294 1302 
L 294 0 
C 294 -116 301 -122 339 -122 
C 384 -122 397 -90 486 109 
C 493 128 493 141 614 386 
C 934 -39 1472 -128 1779 -128 
C 2477 -128 2970 457 2970 1141 
C 2970 1476 2848 1734 2778 1850 
C 2509 2263 2221 2340 1914 2417 
C 1869 2437 1856 2437 1498 2527 
C 1152 2617 1005 2662 845 2836 
C 666 3036 602 3243 602 3449 
C 602 3868 934 4326 1478 4326 
C 2157 4326 2579 3842 2675 3036 
C 2694 2920 2701 2914 2746 2914 
C 2803 2914 2803 2933 2803 3043 
L 2803 4351 
z
" transform="scale(0.015625)"/>
       <path id="CMR17-70" d="M 1408 -1114 
C 998 -1114 973 -1088 973 -834 
L 973 380 
C 1158 109 1427 -64 1766 -64 
C 2406 -64 3053 503 3053 1382 
C 3053 2196 2496 2816 1837 2816 
C 1453 2816 1139 2603 960 2345 
L 960 2816 
L 198 2745 
L 198 2577 
C 576 2577 634 2539 634 2228 
L 634 -834 
C 634 -1081 608 -1114 198 -1114 
L 198 -1280 
C 352 -1268 634 -1268 800 -1268 
C 966 -1268 1254 -1268 1408 -1280 
L 1408 -1114 
z
M 973 2015 
C 973 2106 973 2241 1222 2481 
C 1254 2506 1472 2700 1792 2700 
C 2259 2700 2643 2112 2643 1376 
C 2643 639 2234 38 1728 38 
C 1498 38 1248 148 1056 451 
C 973 594 973 632 973 736 
L 973 2015 
z
" transform="scale(0.015625)"/>
       <path id="CMR17-74" d="M 966 2585 
L 1862 2585 
L 1862 2752 
L 966 2752 
L 966 3968 
L 851 3968 
C 838 3292 614 2700 70 2687 
L 70 2585 
L 627 2585 
L 627 778 
C 627 655 627 -64 1370 -64 
C 1747 -64 1965 308 1965 784 
L 1965 1151 
L 1850 1151 
L 1850 790 
C 1850 347 1677 51 1408 51 
C 1222 51 966 179 966 765 
L 966 2585 
z
" transform="scale(0.015625)"/>
       <path id="CMR17-61" d="M 2304 1656 
C 2304 2048 2304 2275 2035 2534 
C 1798 2751 1523 2816 1306 2816 
C 800 2816 435 2408 435 1977 
C 435 1740 627 1728 666 1728 
C 749 1728 896 1779 896 1958 
C 896 2118 774 2188 666 2188 
C 640 2188 608 2182 589 2176 
C 723 2594 1069 2713 1293 2713 
C 1613 2713 1965 2421 1965 1875 
L 1965 1632 
C 1587 1619 1133 1568 774 1373 
C 371 1147 256 822 256 576 
C 256 77 832 -64 1171 -64 
C 1523 -64 1850 135 1990 505 
C 2003 219 2182 -39 2464 -39 
C 2598 -39 2938 51 2938 563 
L 2938 926 
L 2822 926 
L 2822 557 
C 2822 161 2650 109 2566 109 
C 2304 109 2304 446 2304 732 
L 2304 1656 
z
M 1965 887 
C 1965 323 1568 38 1216 38 
C 896 38 646 278 646 576 
C 646 771 730 1114 1101 1322 
C 1408 1497 1760 1523 1965 1536 
L 1965 887 
z
" transform="scale(0.015625)"/>
       <path id="CMR17-6c" d="M 979 4416 
L 218 4345 
L 218 4179 
C 595 4179 653 4141 653 3835 
L 653 439 
C 653 198 627 166 218 166 
L 218 0 
C 371 12 653 12 813 12 
C 979 12 1261 12 1414 0 
L 1414 166 
C 1005 166 979 191 979 439 
L 979 4416 
z
" transform="scale(0.015625)"/>
       <path id="CMR17-44" d="M 333 4352 
L 333 4185 
C 774 4185 845 4185 845 3898 
L 845 453 
C 845 166 774 166 333 166 
L 333 0 
L 2368 0 
C 3398 0 4224 943 4224 2140 
C 4224 3344 3411 4352 2368 4352 
L 333 4352 
z
M 1523 166 
C 1267 166 1254 198 1254 414 
L 1254 3936 
C 1254 4153 1267 4185 1523 4185 
L 2240 4185 
C 2771 4185 3750 3873 3750 2140 
C 3750 1242 3488 879 3366 707 
C 3213 510 2848 166 2240 166 
L 1523 166 
z
" transform="scale(0.015625)"/>
       <path id="CMR17-73" d="M 1978 2688 
C 1978 2803 1971 2809 1933 2809 
C 1907 2809 1901 2803 1824 2707 
C 1805 2681 1747 2617 1728 2592 
C 1523 2809 1235 2816 1126 2816 
C 416 2816 160 2444 160 2073 
C 160 1497 813 1363 998 1324 
C 1402 1241 1542 1216 1677 1100 
C 1760 1024 1901 883 1901 652 
C 1901 384 1747 38 1158 38 
C 602 38 403 460 288 1024 
C 269 1113 269 1120 218 1120 
C 166 1120 160 1113 160 985 
L 160 64 
C 160 -52 166 -58 205 -58 
C 237 -58 243 -52 275 0 
C 314 57 410 211 448 275 
C 576 102 800 -64 1158 -64 
C 1792 -64 2131 281 2131 780 
C 2131 1107 1958 1280 1875 1356 
C 1683 1555 1459 1600 1190 1651 
C 838 1728 390 1817 390 2208 
C 390 2374 480 2726 1126 2726 
C 1811 2726 1850 2086 1862 1881 
C 1869 1849 1901 1843 1920 1843 
C 1978 1843 1978 1862 1978 1971 
L 1978 2688 
z
" transform="scale(0.015625)"/>
       <path id="CMR17-69" d="M 992 3961 
C 992 4102 877 4224 730 4224 
C 589 4224 467 4108 467 3961 
C 467 3820 582 3699 730 3699 
C 870 3699 992 3814 992 3961 
z
M 243 2745 
L 243 2579 
C 602 2579 653 2540 653 2231 
L 653 443 
C 653 198 627 166 218 166 
L 218 0 
C 371 12 646 12 806 12 
C 960 12 1222 12 1370 0 
L 1370 166 
C 992 166 979 205 979 436 
L 979 2816 
L 243 2745 
z
" transform="scale(0.015625)"/>
      </defs>
      <use xlink:href="#CMR17-50" transform="scale(0.996264)"/>
      <use xlink:href="#CMR17-6f" transform="translate(59.983847 0) scale(0.996264)"/>
      <use xlink:href="#CMR17-77" transform="translate(103.07187 0) scale(0.996264)"/>
      <use xlink:href="#CMR17-65" transform="translate(166.979296 0) scale(0.996264)"/>
      <use xlink:href="#CMR17-72" transform="translate(207.464957 0) scale(0.996264)"/>
      <use xlink:href="#CMR17-53" transform="translate(272.821691 0) scale(0.996264)"/>
      <use xlink:href="#CMR17-70" transform="translate(323.717061 0) scale(0.996264)"/>
      <use xlink:href="#CMR17-65" transform="translate(377.214869 0) scale(0.996264)"/>
      <use xlink:href="#CMR17-63" transform="translate(417.70053 0) scale(0.996264)"/>
      <use xlink:href="#CMR17-74" transform="translate(458.18619 0) scale(0.996264)"/>
      <use xlink:href="#CMR17-72" transform="translate(493.466958 0) scale(0.996264)"/>
      <use xlink:href="#CMR17-61" transform="translate(528.747726 0) scale(0.996264)"/>
      <use xlink:href="#CMR17-6c" transform="translate(574.438203 0) scale(0.996264)"/>
      <use xlink:href="#CMR17-44" transform="translate(629.385228 0) scale(0.996264)"/>
      <use xlink:href="#CMR17-65" transform="translate(699.778784 0) scale(0.996264)"/>
      <use xlink:href="#CMR17-6e" transform="translate(740.264444 0) scale(0.996264)"/>
      <use xlink:href="#CMR17-73" transform="translate(791.159814 0) scale(0.996264)"/>
      <use xlink:href="#CMR17-69" transform="translate(826.961152 0) scale(0.996264)"/>
      <use xlink:href="#CMR17-74" transform="translate(851.83221 0) scale(0.996264)"/>
      <use xlink:href="#CMR17-79" transform="translate(884.510524 0) scale(0.996264)"/>
     </g>
    </g>
   </g>
   <g id="line2d_39">
    <path d="M 82.293929 76.101571 
L 134.449423 75.968483 
L 152.934916 75.710981 
L 164.488349 75.341477 
L 173.070897 74.850981 
L 179.672859 74.257668 
L 184.95443 73.571872 
L 189.575802 72.745052 
L 193.206879 71.886366 
L 196.50786 70.88667 
L 199.478744 69.747132 
L 202.119528 68.479487 
L 204.430215 67.110333 
L 206.410802 65.68563 
L 208.39139 63.962654 
L 210.041883 62.240424 
L 211.692372 60.201169 
L 213.342864 57.809193 
L 216.973943 52.242728 
L 217.634137 51.696874 
L 218.294333 51.543072 
L 218.624433 51.638098 
L 219.28463 52.182791 
L 219.944824 53.156925 
L 220.935119 55.199389 
L 222.915708 60.109643 
L 225.226393 65.659051 
L 227.206981 69.879431 
L 229.517669 74.236399 
L 231.828357 78.118061 
L 234.469138 82.121001 
L 237.440023 86.217897 
L 240.741004 90.402989 
L 244.70218 95.059302 
L 249.323555 100.136085 
L 254.93522 105.948383 
L 261.537181 112.458303 
L 270.119733 120.588559 
L 281.343068 130.892582 
L 297.517872 145.417236 
L 325.906307 170.566493 
L 412.061905 246.473774 
L 412.061905 246.473774 
" clip-path="url(#p345b08e79b)" style="fill: none; stroke: #ff7f0e; stroke-width: 6; stroke-linecap: square"/>
   </g>
   <g id="line2d_40">
    <path d="M 82.293929 76.101571 
L 85.624918 76.100015 
L 88.955908 76.098139 
L 92.286896 76.095882 
L 95.617885 76.093162 
L 98.948875 76.089884 
L 102.279866 76.085936 
L 105.610856 76.081176 
L 108.941843 76.075444 
L 112.272836 76.068537 
L 115.603825 76.060212 
L 118.934815 76.050181 
L 122.265805 76.038091 
L 125.596793 76.023514 
L 128.927783 76.005941 
L 132.258774 75.98475 
L 135.589761 75.959188 
L 138.92075 75.928347 
L 142.25174 75.89112 
L 145.58273 75.84617 
L 148.913721 75.791865 
L 152.244711 75.726217 
L 155.5757 75.646797 
L 158.906689 75.550628 
L 162.237679 75.434046 
L 165.56867 75.292529 
L 168.899659 75.120456 
L 172.230648 74.910803 
L 175.561638 74.654723 
L 178.892627 74.340974 
L 182.223617 73.955085 
L 185.554607 73.478205 
L 188.885596 72.885322 
L 192.216586 72.14258 
L 195.547576 71.202962 
L 198.878565 69.999151 
L 202.209555 68.431146 
L 205.540547 66.344199 
L 208.871535 63.491191 
L 212.202526 59.49972 
L 215.533513 54.253933 
L 218.864504 51.782174 
L 222.195494 58.288335 
L 225.526484 66.330889 
L 228.857473 73.046035 
L 232.188461 78.688232 
L 235.519453 83.612007 
L 238.85044 88.046552 
L 242.181433 92.135814 
L 245.512422 95.973412 
L 248.843412 99.622772 
L 252.1744 103.128421 
L 255.505389 106.522572 
L 258.836379 109.829097 
L 262.167371 113.066057 
L 265.498358 116.247326 
L 268.82935 119.383731 
L 272.160337 122.483783 
L 275.491328 125.554263 
L 278.822318 128.600597 
L 282.153309 131.627154 
L 285.484297 134.637482 
L 288.815286 137.634453 
L 292.146275 140.620432 
L 295.477265 143.597337 
L 298.808255 146.56675 
L 302.139246 149.52997 
L 305.470234 152.488066 
L 308.801225 155.441923 
L 312.132214 158.392269 
L 315.463204 161.339703 
L 318.794194 164.284728 
L 322.125183 167.227756 
L 325.456174 170.169125 
L 328.787163 173.109117 
L 332.118151 176.04797 
L 335.449142 178.985877 
L 338.780132 181.923002 
L 342.111121 184.859469 
L 345.44211 187.795402 
L 348.773101 190.730882 
L 352.104091 193.66599 
L 355.435081 196.600792 
L 358.76607 199.535333 
L 362.097059 202.469661 
L 365.428051 205.403816 
L 368.75904 208.337823 
L 372.090029 211.271708 
L 375.421018 214.205491 
L 378.752007 217.139189 
L 382.082996 220.072817 
L 385.413987 223.006392 
L 388.744977 225.939916 
L 392.075967 228.873399 
L 395.406957 231.806851 
L 398.737945 234.740273 
L 402.068936 237.673674 
L 405.399925 240.607055 
L 408.730915 243.540422 
L 412.061905 246.473776 
" clip-path="url(#p345b08e79b)" style="fill: none"/>
    <defs>
     <path id="mc8fb1fc4ea" d="M -1.25 1.25 
L 1.25 1.25 
L 1.25 -1.25 
L -1.25 -1.25 
z
" style="stroke: #1f77b4; stroke-linejoin: miter"/>
    </defs>
    <g clip-path="url(#p345b08e79b)">
     <use xlink:href="#mc8fb1fc4ea" x="82.293929" y="76.101571" style="fill: #1f77b4; stroke: #1f77b4; stroke-linejoin: miter"/>
     <use xlink:href="#mc8fb1fc4ea" x="85.624918" y="76.100015" style="fill: #1f77b4; stroke: #1f77b4; stroke-linejoin: miter"/>
     <use xlink:href="#mc8fb1fc4ea" x="88.955908" y="76.098139" style="fill: #1f77b4; stroke: #1f77b4; stroke-linejoin: miter"/>
     <use xlink:href="#mc8fb1fc4ea" x="92.286896" y="76.095882" style="fill: #1f77b4; stroke: #1f77b4; stroke-linejoin: miter"/>
     <use xlink:href="#mc8fb1fc4ea" x="95.617885" y="76.093162" style="fill: #1f77b4; stroke: #1f77b4; stroke-linejoin: miter"/>
     <use xlink:href="#mc8fb1fc4ea" x="98.948875" y="76.089884" style="fill: #1f77b4; stroke: #1f77b4; stroke-linejoin: miter"/>
     <use xlink:href="#mc8fb1fc4ea" x="102.279866" y="76.085936" style="fill: #1f77b4; stroke: #1f77b4; stroke-linejoin: miter"/>
     <use xlink:href="#mc8fb1fc4ea" x="105.610856" y="76.081176" style="fill: #1f77b4; stroke: #1f77b4; stroke-linejoin: miter"/>
     <use xlink:href="#mc8fb1fc4ea" x="108.941843" y="76.075444" style="fill: #1f77b4; stroke: #1f77b4; stroke-linejoin: miter"/>
     <use xlink:href="#mc8fb1fc4ea" x="112.272836" y="76.068537" style="fill: #1f77b4; stroke: #1f77b4; stroke-linejoin: miter"/>
     <use xlink:href="#mc8fb1fc4ea" x="115.603825" y="76.060212" style="fill: #1f77b4; stroke: #1f77b4; stroke-linejoin: miter"/>
     <use xlink:href="#mc8fb1fc4ea" x="118.934815" y="76.050181" style="fill: #1f77b4; stroke: #1f77b4; stroke-linejoin: miter"/>
     <use xlink:href="#mc8fb1fc4ea" x="122.265805" y="76.038091" style="fill: #1f77b4; stroke: #1f77b4; stroke-linejoin: miter"/>
     <use xlink:href="#mc8fb1fc4ea" x="125.596793" y="76.023514" style="fill: #1f77b4; stroke: #1f77b4; stroke-linejoin: miter"/>
     <use xlink:href="#mc8fb1fc4ea" x="128.927783" y="76.005941" style="fill: #1f77b4; stroke: #1f77b4; stroke-linejoin: miter"/>
     <use xlink:href="#mc8fb1fc4ea" x="132.258774" y="75.98475" style="fill: #1f77b4; stroke: #1f77b4; stroke-linejoin: miter"/>
     <use xlink:href="#mc8fb1fc4ea" x="135.589761" y="75.959188" style="fill: #1f77b4; stroke: #1f77b4; stroke-linejoin: miter"/>
     <use xlink:href="#mc8fb1fc4ea" x="138.92075" y="75.928347" style="fill: #1f77b4; stroke: #1f77b4; stroke-linejoin: miter"/>
     <use xlink:href="#mc8fb1fc4ea" x="142.25174" y="75.89112" style="fill: #1f77b4; stroke: #1f77b4; stroke-linejoin: miter"/>
     <use xlink:href="#mc8fb1fc4ea" x="145.58273" y="75.84617" style="fill: #1f77b4; stroke: #1f77b4; stroke-linejoin: miter"/>
     <use xlink:href="#mc8fb1fc4ea" x="148.913721" y="75.791865" style="fill: #1f77b4; stroke: #1f77b4; stroke-linejoin: miter"/>
     <use xlink:href="#mc8fb1fc4ea" x="152.244711" y="75.726217" style="fill: #1f77b4; stroke: #1f77b4; stroke-linejoin: miter"/>
     <use xlink:href="#mc8fb1fc4ea" x="155.5757" y="75.646797" style="fill: #1f77b4; stroke: #1f77b4; stroke-linejoin: miter"/>
     <use xlink:href="#mc8fb1fc4ea" x="158.906689" y="75.550628" style="fill: #1f77b4; stroke: #1f77b4; stroke-linejoin: miter"/>
     <use xlink:href="#mc8fb1fc4ea" x="162.237679" y="75.434046" style="fill: #1f77b4; stroke: #1f77b4; stroke-linejoin: miter"/>
     <use xlink:href="#mc8fb1fc4ea" x="165.56867" y="75.292529" style="fill: #1f77b4; stroke: #1f77b4; stroke-linejoin: miter"/>
     <use xlink:href="#mc8fb1fc4ea" x="168.899659" y="75.120456" style="fill: #1f77b4; stroke: #1f77b4; stroke-linejoin: miter"/>
     <use xlink:href="#mc8fb1fc4ea" x="172.230648" y="74.910803" style="fill: #1f77b4; stroke: #1f77b4; stroke-linejoin: miter"/>
     <use xlink:href="#mc8fb1fc4ea" x="175.561638" y="74.654723" style="fill: #1f77b4; stroke: #1f77b4; stroke-linejoin: miter"/>
     <use xlink:href="#mc8fb1fc4ea" x="178.892627" y="74.340974" style="fill: #1f77b4; stroke: #1f77b4; stroke-linejoin: miter"/>
     <use xlink:href="#mc8fb1fc4ea" x="182.223617" y="73.955085" style="fill: #1f77b4; stroke: #1f77b4; stroke-linejoin: miter"/>
     <use xlink:href="#mc8fb1fc4ea" x="185.554607" y="73.478205" style="fill: #1f77b4; stroke: #1f77b4; stroke-linejoin: miter"/>
     <use xlink:href="#mc8fb1fc4ea" x="188.885596" y="72.885322" style="fill: #1f77b4; stroke: #1f77b4; stroke-linejoin: miter"/>
     <use xlink:href="#mc8fb1fc4ea" x="192.216586" y="72.14258" style="fill: #1f77b4; stroke: #1f77b4; stroke-linejoin: miter"/>
     <use xlink:href="#mc8fb1fc4ea" x="195.547576" y="71.202962" style="fill: #1f77b4; stroke: #1f77b4; stroke-linejoin: miter"/>
     <use xlink:href="#mc8fb1fc4ea" x="198.878565" y="69.999151" style="fill: #1f77b4; stroke: #1f77b4; stroke-linejoin: miter"/>
     <use xlink:href="#mc8fb1fc4ea" x="202.209555" y="68.431146" style="fill: #1f77b4; stroke: #1f77b4; stroke-linejoin: miter"/>
     <use xlink:href="#mc8fb1fc4ea" x="205.540547" y="66.344199" style="fill: #1f77b4; stroke: #1f77b4; stroke-linejoin: miter"/>
     <use xlink:href="#mc8fb1fc4ea" x="208.871535" y="63.491191" style="fill: #1f77b4; stroke: #1f77b4; stroke-linejoin: miter"/>
     <use xlink:href="#mc8fb1fc4ea" x="212.202526" y="59.49972" style="fill: #1f77b4; stroke: #1f77b4; stroke-linejoin: miter"/>
     <use xlink:href="#mc8fb1fc4ea" x="215.533513" y="54.253933" style="fill: #1f77b4; stroke: #1f77b4; stroke-linejoin: miter"/>
     <use xlink:href="#mc8fb1fc4ea" x="218.864504" y="51.782174" style="fill: #1f77b4; stroke: #1f77b4; stroke-linejoin: miter"/>
     <use xlink:href="#mc8fb1fc4ea" x="222.195494" y="58.288335" style="fill: #1f77b4; stroke: #1f77b4; stroke-linejoin: miter"/>
     <use xlink:href="#mc8fb1fc4ea" x="225.526484" y="66.330889" style="fill: #1f77b4; stroke: #1f77b4; stroke-linejoin: miter"/>
     <use xlink:href="#mc8fb1fc4ea" x="228.857473" y="73.046035" style="fill: #1f77b4; stroke: #1f77b4; stroke-linejoin: miter"/>
     <use xlink:href="#mc8fb1fc4ea" x="232.188461" y="78.688232" style="fill: #1f77b4; stroke: #1f77b4; stroke-linejoin: miter"/>
     <use xlink:href="#mc8fb1fc4ea" x="235.519453" y="83.612007" style="fill: #1f77b4; stroke: #1f77b4; stroke-linejoin: miter"/>
     <use xlink:href="#mc8fb1fc4ea" x="238.85044" y="88.046552" style="fill: #1f77b4; stroke: #1f77b4; stroke-linejoin: miter"/>
     <use xlink:href="#mc8fb1fc4ea" x="242.181433" y="92.135814" style="fill: #1f77b4; stroke: #1f77b4; stroke-linejoin: miter"/>
     <use xlink:href="#mc8fb1fc4ea" x="245.512422" y="95.973412" style="fill: #1f77b4; stroke: #1f77b4; stroke-linejoin: miter"/>
     <use xlink:href="#mc8fb1fc4ea" x="248.843412" y="99.622772" style="fill: #1f77b4; stroke: #1f77b4; stroke-linejoin: miter"/>
     <use xlink:href="#mc8fb1fc4ea" x="252.1744" y="103.128421" style="fill: #1f77b4; stroke: #1f77b4; stroke-linejoin: miter"/>
     <use xlink:href="#mc8fb1fc4ea" x="255.505389" y="106.522572" style="fill: #1f77b4; stroke: #1f77b4; stroke-linejoin: miter"/>
     <use xlink:href="#mc8fb1fc4ea" x="258.836379" y="109.829097" style="fill: #1f77b4; stroke: #1f77b4; stroke-linejoin: miter"/>
     <use xlink:href="#mc8fb1fc4ea" x="262.167371" y="113.066057" style="fill: #1f77b4; stroke: #1f77b4; stroke-linejoin: miter"/>
     <use xlink:href="#mc8fb1fc4ea" x="265.498358" y="116.247326" style="fill: #1f77b4; stroke: #1f77b4; stroke-linejoin: miter"/>
     <use xlink:href="#mc8fb1fc4ea" x="268.82935" y="119.383731" style="fill: #1f77b4; stroke: #1f77b4; stroke-linejoin: miter"/>
     <use xlink:href="#mc8fb1fc4ea" x="272.160337" y="122.483783" style="fill: #1f77b4; stroke: #1f77b4; stroke-linejoin: miter"/>
     <use xlink:href="#mc8fb1fc4ea" x="275.491328" y="125.554263" style="fill: #1f77b4; stroke: #1f77b4; stroke-linejoin: miter"/>
     <use xlink:href="#mc8fb1fc4ea" x="278.822318" y="128.600597" style="fill: #1f77b4; stroke: #1f77b4; stroke-linejoin: miter"/>
     <use xlink:href="#mc8fb1fc4ea" x="282.153309" y="131.627154" style="fill: #1f77b4; stroke: #1f77b4; stroke-linejoin: miter"/>
     <use xlink:href="#mc8fb1fc4ea" x="285.484297" y="134.637482" style="fill: #1f77b4; stroke: #1f77b4; stroke-linejoin: miter"/>
     <use xlink:href="#mc8fb1fc4ea" x="288.815286" y="137.634453" style="fill: #1f77b4; stroke: #1f77b4; stroke-linejoin: miter"/>
     <use xlink:href="#mc8fb1fc4ea" x="292.146275" y="140.620432" style="fill: #1f77b4; stroke: #1f77b4; stroke-linejoin: miter"/>
     <use xlink:href="#mc8fb1fc4ea" x="295.477265" y="143.597337" style="fill: #1f77b4; stroke: #1f77b4; stroke-linejoin: miter"/>
     <use xlink:href="#mc8fb1fc4ea" x="298.808255" y="146.56675" style="fill: #1f77b4; stroke: #1f77b4; stroke-linejoin: miter"/>
     <use xlink:href="#mc8fb1fc4ea" x="302.139246" y="149.52997" style="fill: #1f77b4; stroke: #1f77b4; stroke-linejoin: miter"/>
     <use xlink:href="#mc8fb1fc4ea" x="305.470234" y="152.488066" style="fill: #1f77b4; stroke: #1f77b4; stroke-linejoin: miter"/>
     <use xlink:href="#mc8fb1fc4ea" x="308.801225" y="155.441923" style="fill: #1f77b4; stroke: #1f77b4; stroke-linejoin: miter"/>
     <use xlink:href="#mc8fb1fc4ea" x="312.132214" y="158.392269" style="fill: #1f77b4; stroke: #1f77b4; stroke-linejoin: miter"/>
     <use xlink:href="#mc8fb1fc4ea" x="315.463204" y="161.339703" style="fill: #1f77b4; stroke: #1f77b4; stroke-linejoin: miter"/>
     <use xlink:href="#mc8fb1fc4ea" x="318.794194" y="164.284728" style="fill: #1f77b4; stroke: #1f77b4; stroke-linejoin: miter"/>
     <use xlink:href="#mc8fb1fc4ea" x="322.125183" y="167.227756" style="fill: #1f77b4; stroke: #1f77b4; stroke-linejoin: miter"/>
     <use xlink:href="#mc8fb1fc4ea" x="325.456174" y="170.169125" style="fill: #1f77b4; stroke: #1f77b4; stroke-linejoin: miter"/>
     <use xlink:href="#mc8fb1fc4ea" x="328.787163" y="173.109117" style="fill: #1f77b4; stroke: #1f77b4; stroke-linejoin: miter"/>
     <use xlink:href="#mc8fb1fc4ea" x="332.118151" y="176.04797" style="fill: #1f77b4; stroke: #1f77b4; stroke-linejoin: miter"/>
     <use xlink:href="#mc8fb1fc4ea" x="335.449142" y="178.985877" style="fill: #1f77b4; stroke: #1f77b4; stroke-linejoin: miter"/>
     <use xlink:href="#mc8fb1fc4ea" x="338.780132" y="181.923002" style="fill: #1f77b4; stroke: #1f77b4; stroke-linejoin: miter"/>
     <use xlink:href="#mc8fb1fc4ea" x="342.111121" y="184.859469" style="fill: #1f77b4; stroke: #1f77b4; stroke-linejoin: miter"/>
     <use xlink:href="#mc8fb1fc4ea" x="345.44211" y="187.795402" style="fill: #1f77b4; stroke: #1f77b4; stroke-linejoin: miter"/>
     <use xlink:href="#mc8fb1fc4ea" x="348.773101" y="190.730882" style="fill: #1f77b4; stroke: #1f77b4; stroke-linejoin: miter"/>
     <use xlink:href="#mc8fb1fc4ea" x="352.104091" y="193.66599" style="fill: #1f77b4; stroke: #1f77b4; stroke-linejoin: miter"/>
     <use xlink:href="#mc8fb1fc4ea" x="355.435081" y="196.600792" style="fill: #1f77b4; stroke: #1f77b4; stroke-linejoin: miter"/>
     <use xlink:href="#mc8fb1fc4ea" x="358.76607" y="199.535333" style="fill: #1f77b4; stroke: #1f77b4; stroke-linejoin: miter"/>
     <use xlink:href="#mc8fb1fc4ea" x="362.097059" y="202.469661" style="fill: #1f77b4; stroke: #1f77b4; stroke-linejoin: miter"/>
     <use xlink:href="#mc8fb1fc4ea" x="365.428051" y="205.403816" style="fill: #1f77b4; stroke: #1f77b4; stroke-linejoin: miter"/>
     <use xlink:href="#mc8fb1fc4ea" x="368.75904" y="208.337823" style="fill: #1f77b4; stroke: #1f77b4; stroke-linejoin: miter"/>
     <use xlink:href="#mc8fb1fc4ea" x="372.090029" y="211.271708" style="fill: #1f77b4; stroke: #1f77b4; stroke-linejoin: miter"/>
     <use xlink:href="#mc8fb1fc4ea" x="375.421018" y="214.205491" style="fill: #1f77b4; stroke: #1f77b4; stroke-linejoin: miter"/>
     <use xlink:href="#mc8fb1fc4ea" x="378.752007" y="217.139189" style="fill: #1f77b4; stroke: #1f77b4; stroke-linejoin: miter"/>
     <use xlink:href="#mc8fb1fc4ea" x="382.082996" y="220.072817" style="fill: #1f77b4; stroke: #1f77b4; stroke-linejoin: miter"/>
     <use xlink:href="#mc8fb1fc4ea" x="385.413987" y="223.006392" style="fill: #1f77b4; stroke: #1f77b4; stroke-linejoin: miter"/>
     <use xlink:href="#mc8fb1fc4ea" x="388.744977" y="225.939916" style="fill: #1f77b4; stroke: #1f77b4; stroke-linejoin: miter"/>
     <use xlink:href="#mc8fb1fc4ea" x="392.075967" y="228.873399" style="fill: #1f77b4; stroke: #1f77b4; stroke-linejoin: miter"/>
     <use xlink:href="#mc8fb1fc4ea" x="395.406957" y="231.806851" style="fill: #1f77b4; stroke: #1f77b4; stroke-linejoin: miter"/>
     <use xlink:href="#mc8fb1fc4ea" x="398.737945" y="234.740273" style="fill: #1f77b4; stroke: #1f77b4; stroke-linejoin: miter"/>
     <use xlink:href="#mc8fb1fc4ea" x="402.068936" y="237.673674" style="fill: #1f77b4; stroke: #1f77b4; stroke-linejoin: miter"/>
     <use xlink:href="#mc8fb1fc4ea" x="405.399925" y="240.607055" style="fill: #1f77b4; stroke: #1f77b4; stroke-linejoin: miter"/>
     <use xlink:href="#mc8fb1fc4ea" x="408.730915" y="243.540422" style="fill: #1f77b4; stroke: #1f77b4; stroke-linejoin: miter"/>
     <use xlink:href="#mc8fb1fc4ea" x="412.061905" y="246.473776" style="fill: #1f77b4; stroke: #1f77b4; stroke-linejoin: miter"/>
    </g>
   </g>
   <g id="line2d_41">
    <path d="M 88.821856 74.813829 
L 103.339171 76.977617 
L 113.639369 76.641837 
L 121.628824 75.359817 
L 128.156684 74.082702 
L 133.675911 76.523703 
L 138.456882 76.259329 
L 142.673998 77.100809 
L 146.446337 81.858669 
L 149.858833 79.364172 
L 152.974197 74.262757 
L 155.840054 75.041213 
L 158.493424 78.917737 
L 163.274396 75.103565 
L 165.445006 75.103575 
L 169.42734 73.766885 
L 173.010738 76.052064 
L 176.267901 74.400515 
L 179.253305 76.227094 
L 182.008826 73.80519 
L 185.781165 71.725514 
L 189.19366 72.754539 
L 192.309025 71.623608 
L 195.174882 71.752407 
L 198.67074 71.119482 
L 201.855425 70.142561 
L 205.475081 65.300478 
L 208.762168 63.894651 
L 212.345566 60.501904 
L 215.602729 55.543388 
L 219.062366 51.732486 
L 222.216968 60.529066 
L 225.511622 64.814541 
L 228.888332 77.079729 
L 232.300827 79.823951 
L 235.416191 80.919828 
L 238.828687 85.319426 
L 242.191831 94.943803 
L 245.491912 95.670953 
L 248.924873 98.631772 
L 252.24425 102.429684 
L 255.452733 105.012814 
L 258.865228 110.170831 
L 262.122391 114.716077 
L 265.49627 119.057456 
L 268.814976 119.9226 
L 272.174073 120.491559 
L 275.537954 126.951514 
L 278.790887 126.231004 
L 282.179144 130.46909 
L 285.495995 135.99949 
L 288.801172 138.58923 
L 292.134191 140.701104 
L 295.46313 142.928967 
L 298.814734 145.31798 
L 302.157909 150.048432 
L 305.469334 151.136554 
L 308.808913 155.346698 
L 312.144493 155.550898 
L 315.451837 163.511908 
L 318.800453 165.671721 
L 322.128306 167.347865 
L 325.463679 171.706464 
L 328.779537 172.921804 
L 332.115977 173.947777 
L 335.442762 178.9938 
L 338.78714 180.770617 
L 342.104265 184.582675 
L 345.445031 191.606454 
L 348.778357 188.072261 
L 352.103827 195.403858 
L 355.440158 198.159902 
L 358.768999 201.631454 
L 362.093134 200.040301 
L 365.428273 203.069396 
L 368.760941 208.869631 
L 372.09284 212.125355 
L 375.422944 215.970332 
L 378.753837 218.543804 
L 382.085041 221.791156 
L 385.41398 227.574573 
L 388.744989 225.513787 
L 392.074987 228.955619 
L 395.406504 233.413574 
L 398.738991 235.171445 
L 402.069794 239.463841 
L 405.400099 241.131569 
L 408.730876 241.488565 
L 412.06269 246.694487 
" clip-path="url(#p345b08e79b)" style="fill: none"/>
    <defs>
     <path id="m41c7515c3e" d="M 0 4 
C 1.060812 4 2.078319 3.578535 2.828427 2.828427 
C 3.578535 2.078319 4 1.060812 4 0 
C 4 -1.060812 3.578535 -2.078319 2.828427 -2.828427 
C 2.078319 -3.578535 1.060812 -4 0 -4 
C -1.060812 -4 -2.078319 -3.578535 -2.828427 -2.828427 
C -3.578535 -2.078319 -4 -1.060812 -4 0 
C -4 1.060812 -3.578535 2.078319 -2.828427 2.828427 
C -2.078319 3.578535 -1.060812 4 0 4 
z
" style="stroke: #000000"/>
    </defs>
    <g clip-path="url(#p345b08e79b)">
     <use xlink:href="#m41c7515c3e" x="88.821856" y="74.813829" style="fill-opacity: 0; stroke: #000000"/>
     <use xlink:href="#m41c7515c3e" x="103.339171" y="76.977617" style="fill-opacity: 0; stroke: #000000"/>
     <use xlink:href="#m41c7515c3e" x="113.639369" y="76.641837" style="fill-opacity: 0; stroke: #000000"/>
     <use xlink:href="#m41c7515c3e" x="121.628824" y="75.359817" style="fill-opacity: 0; stroke: #000000"/>
     <use xlink:href="#m41c7515c3e" x="128.156684" y="74.082702" style="fill-opacity: 0; stroke: #000000"/>
     <use xlink:href="#m41c7515c3e" x="133.675911" y="76.523703" style="fill-opacity: 0; stroke: #000000"/>
     <use xlink:href="#m41c7515c3e" x="138.456882" y="76.259329" style="fill-opacity: 0; stroke: #000000"/>
     <use xlink:href="#m41c7515c3e" x="142.673998" y="77.100809" style="fill-opacity: 0; stroke: #000000"/>
     <use xlink:href="#m41c7515c3e" x="146.446337" y="81.858669" style="fill-opacity: 0; stroke: #000000"/>
     <use xlink:href="#m41c7515c3e" x="149.858833" y="79.364172" style="fill-opacity: 0; stroke: #000000"/>
     <use xlink:href="#m41c7515c3e" x="152.974197" y="74.262757" style="fill-opacity: 0; stroke: #000000"/>
     <use xlink:href="#m41c7515c3e" x="155.840054" y="75.041213" style="fill-opacity: 0; stroke: #000000"/>
     <use xlink:href="#m41c7515c3e" x="158.493424" y="78.917737" style="fill-opacity: 0; stroke: #000000"/>
     <use xlink:href="#m41c7515c3e" x="163.274396" y="75.103565" style="fill-opacity: 0; stroke: #000000"/>
     <use xlink:href="#m41c7515c3e" x="165.445006" y="75.103575" style="fill-opacity: 0; stroke: #000000"/>
     <use xlink:href="#m41c7515c3e" x="169.42734" y="73.766885" style="fill-opacity: 0; stroke: #000000"/>
     <use xlink:href="#m41c7515c3e" x="173.010738" y="76.052064" style="fill-opacity: 0; stroke: #000000"/>
     <use xlink:href="#m41c7515c3e" x="176.267901" y="74.400515" style="fill-opacity: 0; stroke: #000000"/>
     <use xlink:href="#m41c7515c3e" x="179.253305" y="76.227094" style="fill-opacity: 0; stroke: #000000"/>
     <use xlink:href="#m41c7515c3e" x="182.008826" y="73.80519" style="fill-opacity: 0; stroke: #000000"/>
     <use xlink:href="#m41c7515c3e" x="185.781165" y="71.725514" style="fill-opacity: 0; stroke: #000000"/>
     <use xlink:href="#m41c7515c3e" x="189.19366" y="72.754539" style="fill-opacity: 0; stroke: #000000"/>
     <use xlink:href="#m41c7515c3e" x="192.309025" y="71.623608" style="fill-opacity: 0; stroke: #000000"/>
     <use xlink:href="#m41c7515c3e" x="195.174882" y="71.752407" style="fill-opacity: 0; stroke: #000000"/>
     <use xlink:href="#m41c7515c3e" x="198.67074" y="71.119482" style="fill-opacity: 0; stroke: #000000"/>
     <use xlink:href="#m41c7515c3e" x="201.855425" y="70.142561" style="fill-opacity: 0; stroke: #000000"/>
     <use xlink:href="#m41c7515c3e" x="205.475081" y="65.300478" style="fill-opacity: 0; stroke: #000000"/>
     <use xlink:href="#m41c7515c3e" x="208.762168" y="63.894651" style="fill-opacity: 0; stroke: #000000"/>
     <use xlink:href="#m41c7515c3e" x="212.345566" y="60.501904" style="fill-opacity: 0; stroke: #000000"/>
     <use xlink:href="#m41c7515c3e" x="215.602729" y="55.543388" style="fill-opacity: 0; stroke: #000000"/>
     <use xlink:href="#m41c7515c3e" x="219.062366" y="51.732486" style="fill-opacity: 0; stroke: #000000"/>
     <use xlink:href="#m41c7515c3e" x="222.216968" y="60.529066" style="fill-opacity: 0; stroke: #000000"/>
     <use xlink:href="#m41c7515c3e" x="225.511622" y="64.814541" style="fill-opacity: 0; stroke: #000000"/>
     <use xlink:href="#m41c7515c3e" x="228.888332" y="77.079729" style="fill-opacity: 0; stroke: #000000"/>
     <use xlink:href="#m41c7515c3e" x="232.300827" y="79.823951" style="fill-opacity: 0; stroke: #000000"/>
     <use xlink:href="#m41c7515c3e" x="235.416191" y="80.919828" style="fill-opacity: 0; stroke: #000000"/>
     <use xlink:href="#m41c7515c3e" x="238.828687" y="85.319426" style="fill-opacity: 0; stroke: #000000"/>
     <use xlink:href="#m41c7515c3e" x="242.191831" y="94.943803" style="fill-opacity: 0; stroke: #000000"/>
     <use xlink:href="#m41c7515c3e" x="245.491912" y="95.670953" style="fill-opacity: 0; stroke: #000000"/>
     <use xlink:href="#m41c7515c3e" x="248.924873" y="98.631772" style="fill-opacity: 0; stroke: #000000"/>
     <use xlink:href="#m41c7515c3e" x="252.24425" y="102.429684" style="fill-opacity: 0; stroke: #000000"/>
     <use xlink:href="#m41c7515c3e" x="255.452733" y="105.012814" style="fill-opacity: 0; stroke: #000000"/>
     <use xlink:href="#m41c7515c3e" x="258.865228" y="110.170831" style="fill-opacity: 0; stroke: #000000"/>
     <use xlink:href="#m41c7515c3e" x="262.122391" y="114.716077" style="fill-opacity: 0; stroke: #000000"/>
     <use xlink:href="#m41c7515c3e" x="265.49627" y="119.057456" style="fill-opacity: 0; stroke: #000000"/>
     <use xlink:href="#m41c7515c3e" x="268.814976" y="119.9226" style="fill-opacity: 0; stroke: #000000"/>
     <use xlink:href="#m41c7515c3e" x="272.174073" y="120.491559" style="fill-opacity: 0; stroke: #000000"/>
     <use xlink:href="#m41c7515c3e" x="275.537954" y="126.951514" style="fill-opacity: 0; stroke: #000000"/>
     <use xlink:href="#m41c7515c3e" x="278.790887" y="126.231004" style="fill-opacity: 0; stroke: #000000"/>
     <use xlink:href="#m41c7515c3e" x="282.179144" y="130.46909" style="fill-opacity: 0; stroke: #000000"/>
     <use xlink:href="#m41c7515c3e" x="285.495995" y="135.99949" style="fill-opacity: 0; stroke: #000000"/>
     <use xlink:href="#m41c7515c3e" x="288.801172" y="138.58923" style="fill-opacity: 0; stroke: #000000"/>
     <use xlink:href="#m41c7515c3e" x="292.134191" y="140.701104" style="fill-opacity: 0; stroke: #000000"/>
     <use xlink:href="#m41c7515c3e" x="295.46313" y="142.928967" style="fill-opacity: 0; stroke: #000000"/>
     <use xlink:href="#m41c7515c3e" x="298.814734" y="145.31798" style="fill-opacity: 0; stroke: #000000"/>
     <use xlink:href="#m41c7515c3e" x="302.157909" y="150.048432" style="fill-opacity: 0; stroke: #000000"/>
     <use xlink:href="#m41c7515c3e" x="305.469334" y="151.136554" style="fill-opacity: 0; stroke: #000000"/>
     <use xlink:href="#m41c7515c3e" x="308.808913" y="155.346698" style="fill-opacity: 0; stroke: #000000"/>
     <use xlink:href="#m41c7515c3e" x="312.144493" y="155.550898" style="fill-opacity: 0; stroke: #000000"/>
     <use xlink:href="#m41c7515c3e" x="315.451837" y="163.511908" style="fill-opacity: 0; stroke: #000000"/>
     <use xlink:href="#m41c7515c3e" x="318.800453" y="165.671721" style="fill-opacity: 0; stroke: #000000"/>
     <use xlink:href="#m41c7515c3e" x="322.128306" y="167.347865" style="fill-opacity: 0; stroke: #000000"/>
     <use xlink:href="#m41c7515c3e" x="325.463679" y="171.706464" style="fill-opacity: 0; stroke: #000000"/>
     <use xlink:href="#m41c7515c3e" x="328.779537" y="172.921804" style="fill-opacity: 0; stroke: #000000"/>
     <use xlink:href="#m41c7515c3e" x="332.115977" y="173.947777" style="fill-opacity: 0; stroke: #000000"/>
     <use xlink:href="#m41c7515c3e" x="335.442762" y="178.9938" style="fill-opacity: 0; stroke: #000000"/>
     <use xlink:href="#m41c7515c3e" x="338.78714" y="180.770617" style="fill-opacity: 0; stroke: #000000"/>
     <use xlink:href="#m41c7515c3e" x="342.104265" y="184.582675" style="fill-opacity: 0; stroke: #000000"/>
     <use xlink:href="#m41c7515c3e" x="345.445031" y="191.606454" style="fill-opacity: 0; stroke: #000000"/>
     <use xlink:href="#m41c7515c3e" x="348.778357" y="188.072261" style="fill-opacity: 0; stroke: #000000"/>
     <use xlink:href="#m41c7515c3e" x="352.103827" y="195.403858" style="fill-opacity: 0; stroke: #000000"/>
     <use xlink:href="#m41c7515c3e" x="355.440158" y="198.159902" style="fill-opacity: 0; stroke: #000000"/>
     <use xlink:href="#m41c7515c3e" x="358.768999" y="201.631454" style="fill-opacity: 0; stroke: #000000"/>
     <use xlink:href="#m41c7515c3e" x="362.093134" y="200.040301" style="fill-opacity: 0; stroke: #000000"/>
     <use xlink:href="#m41c7515c3e" x="365.428273" y="203.069396" style="fill-opacity: 0; stroke: #000000"/>
     <use xlink:href="#m41c7515c3e" x="368.760941" y="208.869631" style="fill-opacity: 0; stroke: #000000"/>
     <use xlink:href="#m41c7515c3e" x="372.09284" y="212.125355" style="fill-opacity: 0; stroke: #000000"/>
     <use xlink:href="#m41c7515c3e" x="375.422944" y="215.970332" style="fill-opacity: 0; stroke: #000000"/>
     <use xlink:href="#m41c7515c3e" x="378.753837" y="218.543804" style="fill-opacity: 0; stroke: #000000"/>
     <use xlink:href="#m41c7515c3e" x="382.085041" y="221.791156" style="fill-opacity: 0; stroke: #000000"/>
     <use xlink:href="#m41c7515c3e" x="385.41398" y="227.574573" style="fill-opacity: 0; stroke: #000000"/>
     <use xlink:href="#m41c7515c3e" x="388.744989" y="225.513787" style="fill-opacity: 0; stroke: #000000"/>
     <use xlink:href="#m41c7515c3e" x="392.074987" y="228.955619" style="fill-opacity: 0; stroke: #000000"/>
     <use xlink:href="#m41c7515c3e" x="395.406504" y="233.413574" style="fill-opacity: 0; stroke: #000000"/>
     <use xlink:href="#m41c7515c3e" x="398.738991" y="235.171445" style="fill-opacity: 0; stroke: #000000"/>
     <use xlink:href="#m41c7515c3e" x="402.069794" y="239.463841" style="fill-opacity: 0; stroke: #000000"/>
     <use xlink:href="#m41c7515c3e" x="405.400099" y="241.131569" style="fill-opacity: 0; stroke: #000000"/>
     <use xlink:href="#m41c7515c3e" x="408.730876" y="241.488565" style="fill-opacity: 0; stroke: #000000"/>
     <use xlink:href="#m41c7515c3e" x="412.06269" y="246.694487" style="fill-opacity: 0; stroke: #000000"/>
    </g>
   </g>
   <g id="patch_3">
    <path d="M 82.293927 228.596704 
L 82.293927 10.8 
" style="fill: none; stroke: #000000; stroke-width: 0.8; stroke-linejoin: miter; stroke-linecap: square"/>
   </g>
   <g id="patch_4">
    <path d="M 412.061905 228.596704 
L 412.061905 10.8 
" style="fill: none; stroke: #000000; stroke-width: 0.8; stroke-linejoin: miter; stroke-linecap: square"/>
   </g>
   <g id="patch_5">
    <path d="M 82.293927 228.596704 
L 412.061905 228.596704 
" style="fill: none; stroke: #000000; stroke-width: 0.8; stroke-linejoin: miter; stroke-linecap: square"/>
   </g>
   <g id="patch_6">
    <path d="M 82.293927 10.8 
L 412.061905 10.8 
" style="fill: none; stroke: #000000; stroke-width: 0.8; stroke-linejoin: miter; stroke-linecap: square"/>
   </g>
   <g id="legend_1">
    <g id="patch_7">
     <path d="M 94.893927 219.596704 
L 226.867021 219.596704 
Q 230.467021 219.596704 230.467021 215.996704 
L 230.467021 142.532511 
Q 230.467021 138.932511 226.867021 138.932511 
L 94.893927 138.932511 
Q 91.293927 138.932511 91.293927 142.532511 
L 91.293927 215.996704 
Q 91.293927 219.596704 94.893927 219.596704 
z
" style="fill: #ffffff; opacity: 0.8; stroke: #cccccc; stroke-linejoin: miter"/>
    </g>
    <g id="line2d_42">
     <path d="M 98.493927 152.432511 
L 116.493927 152.432511 
L 134.493927 152.432511 
" style="fill: none; stroke: #ff7f0e; stroke-width: 6; stroke-linecap: square"/>
    </g>
    <g id="text_9">
     <!-- rational -->
     <g transform="translate(148.893927 158.732511) scale(0.18 -0.18)">
      <use xlink:href="#CMR17-72" transform="scale(0.996264)"/>
      <use xlink:href="#CMR17-61" transform="translate(35.280768 0) scale(0.996264)"/>
      <use xlink:href="#CMR17-74" transform="translate(80.971245 0) scale(0.996264)"/>
      <use xlink:href="#CMR17-69" transform="translate(116.252013 0) scale(0.996264)"/>
      <use xlink:href="#CMR17-6f" transform="translate(141.123071 0) scale(0.996264)"/>
      <use xlink:href="#CMR17-6e" transform="translate(186.813548 0) scale(0.996264)"/>
      <use xlink:href="#CMR17-61" transform="translate(237.708918 0) scale(0.996264)"/>
      <use xlink:href="#CMR17-6c" transform="translate(283.399395 0) scale(0.996264)"/>
     </g>
    </g>
    <g id="line2d_43">
     <path d="M 98.493927 177.520576 
L 116.493927 177.520576 
L 134.493927 177.520576 
" style="fill: none"/>
     <g>
      <use xlink:href="#mc8fb1fc4ea" x="116.493927" y="177.520576" style="fill: #1f77b4; stroke: #1f77b4; stroke-linejoin: miter"/>
     </g>
    </g>
    <g id="text_10">
     <!-- matrix -->
     <g transform="translate(148.893927 183.820576) scale(0.18 -0.18)">
      <defs>
       <path id="CMR17-6d" d="M 4326 1954 
C 4326 2276 4269 2816 3507 2816 
C 3072 2816 2771 2520 2656 2173 
L 2650 2173 
C 2573 2700 2195 2816 1837 2816 
C 1331 2816 1069 2424 973 2166 
L 966 2166 
L 966 2816 
L 211 2745 
L 211 2578 
C 589 2578 646 2540 646 2231 
L 646 443 
C 646 198 621 166 211 166 
L 211 0 
C 365 12 646 12 813 12 
C 979 12 1267 12 1421 0 
L 1421 166 
C 1011 166 986 192 986 443 
L 986 1678 
C 986 2269 1344 2713 1792 2713 
C 2266 2713 2317 2289 2317 1980 
L 2317 443 
C 2317 198 2291 166 1882 166 
L 1882 0 
C 2035 12 2317 12 2483 12 
C 2650 12 2938 12 3091 0 
L 3091 166 
C 2682 166 2656 192 2656 443 
L 2656 1678 
C 2656 2269 3014 2713 3462 2713 
C 3936 2713 3987 2289 3987 1980 
L 3987 443 
C 3987 198 3962 166 3552 166 
L 3552 0 
C 3706 12 3987 12 4154 12 
C 4320 12 4608 12 4762 0 
L 4762 166 
C 4352 166 4326 192 4326 443 
L 4326 1954 
z
" transform="scale(0.015625)"/>
       <path id="CMR17-78" d="M 1664 1491 
C 1856 1740 2074 2022 2253 2233 
C 2464 2476 2707 2579 2989 2585 
L 2989 2752 
C 2880 2745 2656 2739 2541 2739 
C 2368 2739 2170 2739 2022 2752 
L 2022 2585 
C 2112 2572 2163 2508 2163 2419 
C 2163 2304 2099 2233 2067 2188 
L 1594 1587 
L 1030 2323 
C 973 2393 973 2406 973 2438 
C 973 2515 1037 2579 1146 2585 
L 1146 2752 
C 992 2739 717 2739 557 2739 
C 384 2739 179 2739 38 2752 
L 38 2585 
C 384 2585 461 2560 614 2368 
L 1350 1414 
C 1363 1401 1395 1363 1395 1344 
C 1395 1318 838 633 768 544 
C 480 198 179 172 6 166 
L 6 0 
C 115 6 339 12 454 12 
C 582 12 864 12 979 0 
L 979 166 
C 941 172 838 185 838 332 
C 838 448 890 518 947 595 
L 1478 1248 
L 2035 524 
C 2086 454 2163 358 2163 313 
C 2163 224 2086 172 1984 166 
L 1984 0 
C 2138 12 2413 12 2573 12 
C 2746 12 2950 12 3091 0 
L 3091 166 
C 2771 166 2675 179 2522 377 
L 1664 1491 
z
" transform="scale(0.015625)"/>
      </defs>
      <use xlink:href="#CMR17-6d" transform="scale(0.996264)"/>
      <use xlink:href="#CMR17-61" transform="translate(76.91959 0) scale(0.996264)"/>
      <use xlink:href="#CMR17-74" transform="translate(122.610067 0) scale(0.996264)"/>
      <use xlink:href="#CMR17-72" transform="translate(157.890835 0) scale(0.996264)"/>
      <use xlink:href="#CMR17-69" transform="translate(193.171603 0) scale(0.996264)"/>
      <use xlink:href="#CMR17-78" transform="translate(218.042661 0) scale(0.996264)"/>
     </g>
    </g>
    <g id="line2d_44">
     <path d="M 98.493927 202.60864 
L 116.493927 202.60864 
L 134.493927 202.60864 
" style="fill: none"/>
     <g>
      <use xlink:href="#m41c7515c3e" x="116.493927" y="202.60864" style="fill-opacity: 0; stroke: #000000"/>
     </g>
    </g>
    <g id="text_11">
     <!-- simulation -->
     <g transform="translate(148.893927 208.90864) scale(0.18 -0.18)">
      <use xlink:href="#CMR17-73" transform="scale(0.996264)"/>
      <use xlink:href="#CMR17-69" transform="translate(35.801338 0) scale(0.996264)"/>
      <use xlink:href="#CMR17-6d" transform="translate(60.672396 0) scale(0.996264)"/>
      <use xlink:href="#CMR17-75" transform="translate(134.989532 0) scale(0.996264)"/>
      <use xlink:href="#CMR17-6c" transform="translate(185.884902 0) scale(0.996264)"/>
      <use xlink:href="#CMR17-61" transform="translate(210.75596 0) scale(0.996264)"/>
      <use xlink:href="#CMR17-74" transform="translate(256.446437 0) scale(0.996264)"/>
      <use xlink:href="#CMR17-69" transform="translate(291.727205 0) scale(0.996264)"/>
      <use xlink:href="#CMR17-6f" transform="translate(316.598264 0) scale(0.996264)"/>
      <use xlink:href="#CMR17-6e" transform="translate(362.288741 0) scale(0.996264)"/>
     </g>
    </g>
   </g>
  </g>
 </g>
 <defs>
  <clipPath id="p345b08e79b">
   <rect x="82.293927" y="10.8" width="329.767977" height="217.796704"/>
  </clipPath>
 </defs>
</svg>
