<?xml version="1.0" encoding="utf-8" standalone="no"?>
<!DOCTYPE svg PUBLIC "-//W3C//DTD SVG 1.1//EN"
  "http://www.w3.org/Graphics/SVG/1.1/DTD/svg11.dtd">
<svg xmlns:xlink="http://www.w3.org/1999/xlink" width="432pt" height="288pt" viewBox="0 0 432 288" xmlns="http://www.w3.org/2000/svg" version="1.1">
 <metadata>
  <rdf:RDF xmlns:dc="http://purl.org/dc/elements/1.1/" xmlns:cc="http://creativecommons.org/ns#" xmlns:rdf="http://www.w3.org/1999/02/22-rdf-syntax-ns#">
   <cc:Work>
    <dc:type rdf:resource="http://purl.org/dc/dcmitype/StillImage"/>
    <dc:date>2024-05-08T20:41:48.357796</dc:date>
    <dc:format>image/svg+xml</dc:format>
    <dc:creator>
     <cc:Agent>
      <dc:title>Matplotlib v3.7.1, https://matplotlib.org/</dc:title>
     </cc:Agent>
    </dc:creator>
   </cc:Work>
  </rdf:RDF>
 </metadata>
 <defs>
  <style type="text/css">*{stroke-linejoin: round; stroke-linecap: butt}</style>
 </defs>
 <g id="figure_1">
  <g id="patch_1">
   <path d="M 0 288 
L 432 288 
L 432 0 
L 0 0 
L 0 288 
z
" style="fill: none"/>
  </g>
  <g id="axes_1">
   <g id="patch_2">
    <path d="M 90.622543 228.596704 
L 416.630952 228.596704 
L 416.630952 17.718498 
L 90.622543 17.718498 
z
" style="fill: #ffffff"/>
   </g>
   <g id="matplotlib.axis_1">
    <g id="xtick_1">
     <g id="line2d_1">
      <defs>
       <path id="m93e280f545" d="M 0 0 
L 0 3.5 
" style="stroke: #000000; stroke-width: 0.8"/>
      </defs>
      <g>
       <use xlink:href="#m93e280f545" x="90.622543" y="228.596704" style="stroke: #000000; stroke-width: 0.8"/>
      </g>
     </g>
     <g id="text_1">
      <!-- 0.001 -->
      <g transform="translate(69.859249 249.433701) scale(0.2 -0.2)">
       <defs>
        <path id="CMR17-30" d="M 2688 2038 
C 2688 2430 2682 3099 2413 3613 
C 2176 4063 1798 4224 1466 4224 
C 1158 4224 768 4082 525 3620 
C 269 3137 243 2539 243 2038 
C 243 1671 250 1112 448 623 
C 723 -39 1216 -128 1466 -128 
C 1760 -128 2208 -7 2470 604 
C 2662 1048 2688 1568 2688 2038 
z
M 1466 -26 
C 1056 -26 813 328 723 816 
C 653 1196 653 1749 653 2109 
C 653 2604 653 3015 736 3407 
C 858 3954 1216 4121 1466 4121 
C 1728 4121 2067 3947 2189 3420 
C 2272 3054 2278 2623 2278 2109 
C 2278 1691 2278 1176 2202 797 
C 2067 96 1690 -26 1466 -26 
z
" transform="scale(0.015625)"/>
        <path id="CMR17-2e" d="M 1062 262 
C 1062 422 934 524 800 524 
C 672 524 538 422 538 262 
C 538 102 666 0 800 0 
C 928 0 1062 102 1062 262 
z
" transform="scale(0.015625)"/>
        <path id="CMR17-31" d="M 1702 4083 
C 1702 4217 1696 4224 1606 4224 
C 1357 3927 979 3833 621 3820 
C 602 3820 570 3820 563 3808 
C 557 3795 557 3782 557 3648 
C 755 3648 1088 3686 1344 3839 
L 1344 467 
C 1344 243 1331 166 781 166 
L 589 166 
L 589 0 
C 896 6 1216 12 1523 12 
C 1830 12 2150 6 2458 0 
L 2458 166 
L 2266 166 
C 1715 166 1702 236 1702 467 
L 1702 4083 
z
" transform="scale(0.015625)"/>
       </defs>
       <use xlink:href="#CMR17-30" transform="scale(0.996264)"/>
       <use xlink:href="#CMR17-2e" transform="translate(45.690477 0) scale(0.996264)"/>
       <use xlink:href="#CMR17-30" transform="translate(70.561536 0) scale(0.996264)"/>
       <use xlink:href="#CMR17-30" transform="translate(116.252013 0) scale(0.996264)"/>
       <use xlink:href="#CMR17-31" transform="translate(161.94249 0) scale(0.996264)"/>
      </g>
     </g>
    </g>
    <g id="xtick_2">
     <g id="line2d_2">
      <g>
       <use xlink:href="#m93e280f545" x="266.892374" y="228.596704" style="stroke: #000000; stroke-width: 0.8"/>
      </g>
     </g>
     <g id="text_2">
      <!-- 0.1 -->
      <g transform="translate(255.267176 249.433701) scale(0.2 -0.2)">
       <use xlink:href="#CMR17-30" transform="scale(0.996264)"/>
       <use xlink:href="#CMR17-2e" transform="translate(45.690477 0) scale(0.996264)"/>
       <use xlink:href="#CMR17-31" transform="translate(70.561536 0) scale(0.996264)"/>
      </g>
     </g>
    </g>
    <g id="xtick_3">
     <g id="line2d_3">
      <g>
       <use xlink:href="#m93e280f545" x="416.630952" y="228.596704" style="stroke: #000000; stroke-width: 0.8"/>
      </g>
     </g>
     <g id="text_3">
      <!-- 5 -->
      <g transform="translate(412.061905 249.433701) scale(0.2 -0.2)">
       <defs>
        <path id="CMR17-35" d="M 730 3750 
C 794 3724 1056 3641 1325 3641 
C 1920 3641 2246 3961 2432 4140 
C 2432 4191 2432 4224 2394 4224 
C 2387 4224 2374 4224 2323 4198 
C 2099 4102 1837 4032 1517 4032 
C 1325 4032 1037 4055 723 4191 
C 653 4224 640 4224 634 4224 
C 602 4224 595 4217 595 4090 
L 595 2231 
C 595 2113 595 2080 659 2080 
C 691 2080 704 2093 736 2139 
C 941 2435 1222 2560 1542 2560 
C 1766 2560 2246 2415 2246 1293 
C 2246 1087 2246 716 2054 422 
C 1894 159 1645 25 1370 25 
C 947 25 518 319 403 812 
C 429 806 480 793 506 793 
C 589 793 749 838 749 1036 
C 749 1209 627 1280 506 1280 
C 358 1280 262 1190 262 1011 
C 262 454 704 -128 1382 -128 
C 2042 -128 2669 441 2669 1267 
C 2669 2054 2170 2662 1549 2662 
C 1222 2662 947 2540 730 2304 
L 730 3750 
z
" transform="scale(0.015625)"/>
       </defs>
       <use xlink:href="#CMR17-35" transform="scale(0.996264)"/>
      </g>
     </g>
    </g>
    <g id="xtick_4">
     <g id="line2d_4">
      <defs>
       <path id="mc67077ea10" d="M 0 0 
L 0 2 
" style="stroke: #000000; stroke-width: 0.6"/>
      </defs>
      <g>
       <use xlink:href="#mc67077ea10" x="117.153796" y="228.596704" style="stroke: #000000; stroke-width: 0.6"/>
      </g>
     </g>
    </g>
    <g id="xtick_5">
     <g id="line2d_5">
      <g>
       <use xlink:href="#mc67077ea10" x="132.673584" y="228.596704" style="stroke: #000000; stroke-width: 0.6"/>
      </g>
     </g>
    </g>
    <g id="xtick_6">
     <g id="line2d_6">
      <g>
       <use xlink:href="#mc67077ea10" x="143.685049" y="228.596704" style="stroke: #000000; stroke-width: 0.6"/>
      </g>
     </g>
    </g>
    <g id="xtick_7">
     <g id="line2d_7">
      <g>
       <use xlink:href="#mc67077ea10" x="152.226205" y="228.596704" style="stroke: #000000; stroke-width: 0.6"/>
      </g>
     </g>
    </g>
    <g id="xtick_8">
     <g id="line2d_8">
      <g>
       <use xlink:href="#mc67077ea10" x="159.204838" y="228.596704" style="stroke: #000000; stroke-width: 0.6"/>
      </g>
     </g>
    </g>
    <g id="xtick_9">
     <g id="line2d_9">
      <g>
       <use xlink:href="#mc67077ea10" x="165.105187" y="228.596704" style="stroke: #000000; stroke-width: 0.6"/>
      </g>
     </g>
    </g>
    <g id="xtick_10">
     <g id="line2d_10">
      <g>
       <use xlink:href="#mc67077ea10" x="170.216303" y="228.596704" style="stroke: #000000; stroke-width: 0.6"/>
      </g>
     </g>
    </g>
    <g id="xtick_11">
     <g id="line2d_11">
      <g>
       <use xlink:href="#mc67077ea10" x="174.724626" y="228.596704" style="stroke: #000000; stroke-width: 0.6"/>
      </g>
     </g>
    </g>
    <g id="xtick_12">
     <g id="line2d_12">
      <g>
       <use xlink:href="#mc67077ea10" x="205.288712" y="228.596704" style="stroke: #000000; stroke-width: 0.6"/>
      </g>
     </g>
    </g>
    <g id="xtick_13">
     <g id="line2d_13">
      <g>
       <use xlink:href="#mc67077ea10" x="220.8085" y="228.596704" style="stroke: #000000; stroke-width: 0.6"/>
      </g>
     </g>
    </g>
    <g id="xtick_14">
     <g id="line2d_14">
      <g>
       <use xlink:href="#mc67077ea10" x="231.819965" y="228.596704" style="stroke: #000000; stroke-width: 0.6"/>
      </g>
     </g>
    </g>
    <g id="xtick_15">
     <g id="line2d_15">
      <g>
       <use xlink:href="#mc67077ea10" x="240.361121" y="228.596704" style="stroke: #000000; stroke-width: 0.6"/>
      </g>
     </g>
    </g>
    <g id="xtick_16">
     <g id="line2d_16">
      <g>
       <use xlink:href="#mc67077ea10" x="247.339753" y="228.596704" style="stroke: #000000; stroke-width: 0.6"/>
      </g>
     </g>
    </g>
    <g id="xtick_17">
     <g id="line2d_17">
      <g>
       <use xlink:href="#mc67077ea10" x="253.240103" y="228.596704" style="stroke: #000000; stroke-width: 0.6"/>
      </g>
     </g>
    </g>
    <g id="xtick_18">
     <g id="line2d_18">
      <g>
       <use xlink:href="#mc67077ea10" x="258.351218" y="228.596704" style="stroke: #000000; stroke-width: 0.6"/>
      </g>
     </g>
    </g>
    <g id="xtick_19">
     <g id="line2d_19">
      <g>
       <use xlink:href="#mc67077ea10" x="262.859542" y="228.596704" style="stroke: #000000; stroke-width: 0.6"/>
      </g>
     </g>
    </g>
    <g id="xtick_20">
     <g id="line2d_20">
      <g>
       <use xlink:href="#mc67077ea10" x="293.423628" y="228.596704" style="stroke: #000000; stroke-width: 0.6"/>
      </g>
     </g>
    </g>
    <g id="xtick_21">
     <g id="line2d_21">
      <g>
       <use xlink:href="#mc67077ea10" x="308.943416" y="228.596704" style="stroke: #000000; stroke-width: 0.6"/>
      </g>
     </g>
    </g>
    <g id="xtick_22">
     <g id="line2d_22">
      <g>
       <use xlink:href="#mc67077ea10" x="319.954881" y="228.596704" style="stroke: #000000; stroke-width: 0.6"/>
      </g>
     </g>
    </g>
    <g id="xtick_23">
     <g id="line2d_23">
      <g>
       <use xlink:href="#mc67077ea10" x="328.496037" y="228.596704" style="stroke: #000000; stroke-width: 0.6"/>
      </g>
     </g>
    </g>
    <g id="xtick_24">
     <g id="line2d_24">
      <g>
       <use xlink:href="#mc67077ea10" x="335.474669" y="228.596704" style="stroke: #000000; stroke-width: 0.6"/>
      </g>
     </g>
    </g>
    <g id="xtick_25">
     <g id="line2d_25">
      <g>
       <use xlink:href="#mc67077ea10" x="341.375019" y="228.596704" style="stroke: #000000; stroke-width: 0.6"/>
      </g>
     </g>
    </g>
    <g id="xtick_26">
     <g id="line2d_26">
      <g>
       <use xlink:href="#mc67077ea10" x="346.486134" y="228.596704" style="stroke: #000000; stroke-width: 0.6"/>
      </g>
     </g>
    </g>
    <g id="xtick_27">
     <g id="line2d_27">
      <g>
       <use xlink:href="#mc67077ea10" x="350.994457" y="228.596704" style="stroke: #000000; stroke-width: 0.6"/>
      </g>
     </g>
    </g>
    <g id="xtick_28">
     <g id="line2d_28">
      <g>
       <use xlink:href="#mc67077ea10" x="381.558543" y="228.596704" style="stroke: #000000; stroke-width: 0.6"/>
      </g>
     </g>
    </g>
    <g id="xtick_29">
     <g id="line2d_29">
      <g>
       <use xlink:href="#mc67077ea10" x="397.078331" y="228.596704" style="stroke: #000000; stroke-width: 0.6"/>
      </g>
     </g>
    </g>
    <g id="xtick_30">
     <g id="line2d_30">
      <g>
       <use xlink:href="#mc67077ea10" x="408.089796" y="228.596704" style="stroke: #000000; stroke-width: 0.6"/>
      </g>
     </g>
    </g>
    <g id="text_4">
     <!-- Frequency (Hz) -->
     <g transform="translate(191.878141 272.235356) scale(0.2 -0.2)">
      <defs>
       <path id="CMR17-46" d="M 3482 4339 
L 326 4339 
L 326 4172 
C 768 4172 838 4172 838 3883 
L 838 450 
C 838 166 768 166 326 166 
L 326 0 
C 512 12 870 12 1069 12 
C 1331 12 1638 12 1901 0 
L 1901 166 
L 1760 166 
C 1274 166 1261 229 1261 456 
L 1261 2073 
L 1837 2073 
C 2432 2073 2490 1865 2490 1334 
L 2605 1334 
L 2605 2991 
L 2490 2991 
C 2490 2451 2432 2240 1837 2240 
L 1261 2240 
L 1261 3922 
C 1261 4140 1274 4172 1530 4172 
L 2355 4172 
C 3322 4172 3430 3774 3520 2920 
L 3635 2920 
L 3482 4339 
z
" transform="scale(0.015625)"/>
       <path id="CMR17-72" d="M 960 1517 
C 960 2134 1222 2713 1702 2713 
C 1747 2713 1792 2707 1837 2687 
C 1837 2687 1696 2642 1696 2475 
C 1696 2321 1818 2257 1914 2257 
C 1990 2257 2131 2302 2131 2482 
C 2131 2687 1926 2816 1709 2816 
C 1222 2816 1011 2340 947 2115 
L 941 2115 
L 941 2816 
L 198 2745 
L 198 2578 
C 576 2578 634 2540 634 2231 
L 634 443 
C 634 198 608 166 198 166 
L 198 0 
C 352 12 646 12 813 12 
C 998 12 1325 12 1498 0 
L 1498 166 
C 1037 166 960 166 960 455 
L 960 1517 
z
" transform="scale(0.015625)"/>
       <path id="CMR17-65" d="M 2438 1503 
C 2464 1529 2464 1542 2464 1606 
C 2464 2251 2118 2816 1389 2816 
C 710 2816 173 2175 173 1394 
C 173 554 781 -64 1459 -64 
C 2176 -64 2458 619 2458 755 
C 2458 800 2419 800 2406 800 
C 2362 800 2355 787 2330 709 
C 2189 270 1837 51 1504 51 
C 1229 51 954 206 781 490 
C 582 819 582 1200 582 1503 
L 2438 1503 
z
M 589 1600 
C 634 2511 1126 2713 1382 2713 
C 1818 2713 2112 2308 2118 1600 
L 589 1600 
z
" transform="scale(0.015625)"/>
       <path id="CMR17-71" d="M 2630 2816 
L 2528 2816 
L 2336 2177 
C 2189 2519 1920 2816 1491 2816 
C 838 2816 211 2228 211 1376 
C 211 529 800 -64 1440 -64 
C 1933 -64 2208 316 2291 458 
L 2291 -834 
C 2291 -1081 2266 -1114 1856 -1114 
L 1856 -1280 
C 2010 -1268 2291 -1268 2458 -1268 
C 2624 -1268 2912 -1268 3066 -1280 
L 3066 -1114 
C 2656 -1114 2630 -1088 2630 -834 
L 2630 2816 
z
M 2304 871 
C 2304 594 2074 335 2054 316 
C 1856 90 1626 38 1472 38 
C 992 38 621 652 621 1369 
C 621 2125 1043 2700 1536 2700 
C 2048 2700 2304 2112 2304 1776 
L 2304 871 
z
" transform="scale(0.015625)"/>
       <path id="CMR17-75" d="M 1882 2745 
L 1882 2579 
C 2259 2579 2317 2540 2317 2229 
L 2317 1053 
C 2317 510 2029 38 1555 38 
C 1030 38 986 355 986 691 
L 986 2816 
L 211 2745 
L 211 2579 
C 467 2579 640 2579 646 2320 
L 646 1079 
C 646 646 646 368 813 187 
C 896 103 1056 -64 1517 -64 
C 2061 -64 2272 400 2323 536 
L 2330 536 
L 2330 -64 
L 3091 -13 
L 3091 154 
C 2714 154 2656 193 2656 503 
L 2656 2816 
L 1882 2745 
z
" transform="scale(0.015625)"/>
       <path id="CMR17-6e" d="M 2656 1954 
C 2656 2282 2592 2816 1837 2816 
C 1331 2816 1069 2424 973 2166 
L 966 2166 
L 966 2816 
L 211 2745 
L 211 2578 
C 589 2578 646 2540 646 2231 
L 646 443 
C 646 198 621 166 211 166 
L 211 0 
C 365 12 646 12 813 12 
C 979 12 1267 12 1421 0 
L 1421 166 
C 1011 166 986 192 986 443 
L 986 1678 
C 986 2269 1344 2713 1792 2713 
C 2266 2713 2317 2289 2317 1980 
L 2317 443 
C 2317 198 2291 166 1882 166 
L 1882 0 
C 2035 12 2317 12 2483 12 
C 2650 12 2938 12 3091 0 
L 3091 166 
C 2682 166 2656 192 2656 443 
L 2656 1954 
z
" transform="scale(0.015625)"/>
       <path id="CMR17-63" d="M 2234 2240 
C 2112 2240 1933 2240 1933 2015 
C 1933 1836 2080 1785 2163 1785 
C 2208 1785 2394 1804 2394 2028 
C 2394 2476 1958 2816 1466 2816 
C 787 2816 211 2201 211 1379 
C 211 521 813 -64 1466 -64 
C 2259 -64 2458 676 2458 747 
C 2458 773 2451 792 2406 792 
C 2362 792 2355 786 2330 702 
C 2163 180 1798 51 1523 51 
C 1114 51 621 431 621 1385 
C 621 2358 1094 2700 1472 2700 
C 1722 2700 2093 2582 2234 2240 
z
" transform="scale(0.015625)"/>
       <path id="CMR17-79" d="M 2496 2183 
C 2656 2579 2944 2585 3034 2585 
L 3034 2752 
C 2912 2745 2752 2739 2630 2739 
C 2496 2739 2285 2739 2157 2752 
L 2157 2585 
C 2400 2566 2406 2384 2406 2332 
C 2406 2268 2394 2235 2362 2158 
L 1664 409 
L 902 2300 
C 870 2378 870 2423 870 2430 
C 870 2572 1018 2585 1171 2585 
L 1171 2752 
C 1018 2739 742 2739 582 2739 
C 410 2739 205 2739 64 2752 
L 64 2585 
C 410 2585 448 2553 531 2345 
L 1485 -31 
C 1197 -795 1030 -1242 627 -1242 
C 557 -1242 397 -1223 282 -1106 
C 429 -1093 493 -1002 493 -892 
C 493 -782 416 -685 288 -685 
C 147 -685 77 -782 77 -899 
C 77 -1158 339 -1344 627 -1344 
C 998 -1344 1229 -983 1357 -659 
L 2496 2183 
z
" transform="scale(0.015625)"/>
       <path id="CMR17-28" d="M 1958 -1562 
C 1958 -1556 1958 -1543 1939 -1524 
C 1645 -1223 858 -403 858 1596 
C 858 3595 1632 4408 1946 4729 
C 1946 4735 1958 4748 1958 4767 
C 1958 4787 1939 4800 1914 4800 
C 1843 4800 1299 4325 986 3620 
C 666 2909 576 2218 576 1603 
C 576 1141 621 360 1005 -467 
C 1312 -1133 1837 -1600 1914 -1600 
C 1946 -1600 1958 -1588 1958 -1562 
z
" transform="scale(0.015625)"/>
       <path id="CMR17-48" d="M 3590 3898 
C 3590 4185 3661 4185 4102 4185 
L 4102 4352 
C 3917 4339 3578 4339 3379 4339 
C 3181 4339 2842 4339 2656 4352 
L 2656 4185 
C 3098 4185 3168 4185 3168 3898 
L 3168 2342 
L 1261 2342 
L 1261 3898 
C 1261 4185 1331 4185 1773 4185 
L 1773 4352 
C 1587 4339 1248 4339 1050 4339 
C 851 4339 512 4339 326 4352 
L 326 4185 
C 768 4185 838 4185 838 3898 
L 838 452 
C 838 166 768 166 326 166 
L 326 0 
C 512 12 851 12 1050 12 
C 1248 12 1587 12 1773 0 
L 1773 166 
C 1331 166 1261 166 1261 452 
L 1261 2176 
L 3168 2176 
L 3168 452 
C 3168 166 3098 166 2656 166 
L 2656 0 
C 2842 12 3181 12 3379 12 
C 3578 12 3917 12 4102 0 
L 4102 166 
C 3661 166 3590 166 3590 452 
L 3590 3898 
z
" transform="scale(0.015625)"/>
       <path id="CMR17-7a" d="M 2310 2604 
C 2362 2668 2362 2681 2362 2694 
C 2362 2752 2336 2752 2221 2752 
L 275 2752 
L 211 1760 
L 326 1760 
C 371 2380 442 2649 1178 2649 
L 1958 2649 
L 128 96 
C 128 6 134 0 269 0 
L 2291 0 
L 2381 1152 
L 2266 1152 
C 2214 441 2131 115 1350 115 
L 531 115 
L 2310 2604 
z
" transform="scale(0.015625)"/>
       <path id="CMR17-29" d="M 1683 1596 
C 1683 2057 1638 2839 1254 3665 
C 947 4332 422 4800 346 4800 
C 326 4800 301 4793 301 4761 
C 301 4748 307 4742 314 4729 
C 621 4408 1402 3595 1402 1603 
C 1402 -396 627 -1210 314 -1530 
C 307 -1543 301 -1549 301 -1562 
C 301 -1594 326 -1600 346 -1600 
C 416 -1600 960 -1127 1274 -422 
C 1594 289 1683 981 1683 1596 
z
" transform="scale(0.015625)"/>
      </defs>
      <use xlink:href="#CMR17-46" transform="scale(0.996264)"/>
      <use xlink:href="#CMR17-72" transform="translate(52.176591 0) scale(0.996264)"/>
      <use xlink:href="#CMR17-65" transform="translate(87.457359 0) scale(0.996264)"/>
      <use xlink:href="#CMR17-71" transform="translate(127.943019 0) scale(0.996264)"/>
      <use xlink:href="#CMR17-75" transform="translate(176.235935 0) scale(0.996264)"/>
      <use xlink:href="#CMR17-65" transform="translate(227.131305 0) scale(0.996264)"/>
      <use xlink:href="#CMR17-6e" transform="translate(267.616966 0) scale(0.996264)"/>
      <use xlink:href="#CMR17-63" transform="translate(318.512335 0) scale(0.996264)"/>
      <use xlink:href="#CMR17-79" transform="translate(358.997996 0) scale(0.996264)"/>
      <use xlink:href="#CMR17-28" transform="translate(437.366878 0) scale(0.996264)"/>
      <use xlink:href="#CMR17-48" transform="translate(472.647646 0) scale(0.996264)"/>
      <use xlink:href="#CMR17-7a" transform="translate(541.720076 0) scale(0.996264)"/>
      <use xlink:href="#CMR17-29" transform="translate(582.205736 0) scale(0.996264)"/>
     </g>
    </g>
   </g>
   <g id="matplotlib.axis_2">
    <g id="ytick_1">
     <g id="line2d_31">
      <defs>
       <path id="m2fc360748e" d="M 0 0 
L -3.5 0 
" style="stroke: #000000; stroke-width: 0.8"/>
      </defs>
      <g>
       <use xlink:href="#m2fc360748e" x="90.622543" y="220.564243" style="stroke: #000000; stroke-width: 0.8"/>
      </g>
     </g>
     <g id="text_5">
      <!-- $\mathdefault{0.0000}$ -->
      <g transform="translate(32.51263 227.482742) scale(0.2 -0.2)">
       <defs>
        <path id="CMMI12-3a" d="M 1178 307 
C 1178 492 1024 620 870 620 
C 685 620 557 467 557 313 
C 557 128 710 0 864 0 
C 1050 0 1178 153 1178 307 
z
" transform="scale(0.015625)"/>
       </defs>
       <use xlink:href="#CMR17-30" transform="scale(0.996264)"/>
       <use xlink:href="#CMMI12-3a" transform="translate(45.690477 0) scale(0.996264)"/>
       <use xlink:href="#CMR17-30" transform="translate(72.787654 0) scale(0.996264)"/>
       <use xlink:href="#CMR17-30" transform="translate(118.478131 0) scale(0.996264)"/>
       <use xlink:href="#CMR17-30" transform="translate(164.168608 0) scale(0.996264)"/>
       <use xlink:href="#CMR17-30" transform="translate(209.859086 0) scale(0.996264)"/>
      </g>
     </g>
    </g>
    <g id="ytick_2">
     <g id="line2d_32">
      <g>
       <use xlink:href="#m2fc360748e" x="90.622543" y="119.141371" style="stroke: #000000; stroke-width: 0.8"/>
      </g>
     </g>
     <g id="text_6">
      <!-- $\mathdefault{0.0005}$ -->
      <g transform="translate(32.51263 126.059869) scale(0.2 -0.2)">
       <use xlink:href="#CMR17-30" transform="scale(0.996264)"/>
       <use xlink:href="#CMMI12-3a" transform="translate(45.690477 0) scale(0.996264)"/>
       <use xlink:href="#CMR17-30" transform="translate(72.787654 0) scale(0.996264)"/>
       <use xlink:href="#CMR17-30" transform="translate(118.478131 0) scale(0.996264)"/>
       <use xlink:href="#CMR17-30" transform="translate(164.168608 0) scale(0.996264)"/>
       <use xlink:href="#CMR17-35" transform="translate(209.859086 0) scale(0.996264)"/>
      </g>
     </g>
    </g>
    <g id="ytick_3">
     <g id="line2d_33">
      <g>
       <use xlink:href="#m2fc360748e" x="90.622543" y="17.718498" style="stroke: #000000; stroke-width: 0.8"/>
      </g>
     </g>
     <g id="text_7">
      <!-- $\mathdefault{0.0010}$ -->
      <g transform="translate(32.51263 24.636997) scale(0.2 -0.2)">
       <use xlink:href="#CMR17-30" transform="scale(0.996264)"/>
       <use xlink:href="#CMMI12-3a" transform="translate(45.690477 0) scale(0.996264)"/>
       <use xlink:href="#CMR17-30" transform="translate(72.787654 0) scale(0.996264)"/>
       <use xlink:href="#CMR17-30" transform="translate(118.478131 0) scale(0.996264)"/>
       <use xlink:href="#CMR17-31" transform="translate(164.168608 0) scale(0.996264)"/>
       <use xlink:href="#CMR17-30" transform="translate(209.859086 0) scale(0.996264)"/>
      </g>
     </g>
    </g>
    <g id="text_8">
     <!-- Cross Power Spectral Density -->
     <g transform="translate(24.636997 241.353853) rotate(-90) scale(0.2 -0.2)">
      <defs>
       <path id="CMR17-43" d="M 3974 4351 
C 3974 4467 3968 4473 3930 4473 
C 3904 4473 3898 4467 3853 4390 
L 3571 3849 
C 3258 4249 2874 4480 2381 4480 
C 1286 4480 294 3507 294 2179 
C 294 837 1286 -128 2387 -128 
C 3366 -128 3974 741 3974 1482 
C 3974 1547 3974 1573 3917 1573 
C 3866 1573 3866 1553 3859 1495 
C 3808 592 3168 38 2477 38 
C 1824 38 781 502 781 2179 
C 781 3862 1843 4313 2464 4313 
C 3187 4313 3712 3681 3834 2785 
C 3846 2707 3846 2695 3904 2695 
C 3974 2695 3974 2707 3974 2824 
L 3974 4351 
z
" transform="scale(0.015625)"/>
       <path id="CMR17-6f" d="M 2758 1356 
C 2758 2176 2163 2816 1466 2816 
C 768 2816 173 2176 173 1356 
C 173 550 768 -64 1466 -64 
C 2163 -64 2758 550 2758 1356 
z
M 1466 51 
C 1165 51 909 230 762 480 
C 602 768 582 1126 582 1408 
C 582 1676 595 2009 762 2297 
C 890 2508 1139 2713 1466 2713 
C 1754 2713 1997 2553 2150 2329 
C 2349 2028 2349 1606 2349 1408 
C 2349 1158 2336 774 2163 467 
C 1984 172 1709 51 1466 51 
z
" transform="scale(0.015625)"/>
       <path id="CMR17-73" d="M 1978 2688 
C 1978 2803 1971 2809 1933 2809 
C 1907 2809 1901 2803 1824 2707 
C 1805 2681 1747 2617 1728 2592 
C 1523 2809 1235 2816 1126 2816 
C 416 2816 160 2444 160 2073 
C 160 1497 813 1363 998 1324 
C 1402 1241 1542 1216 1677 1100 
C 1760 1024 1901 883 1901 652 
C 1901 384 1747 38 1158 38 
C 602 38 403 460 288 1024 
C 269 1113 269 1120 218 1120 
C 166 1120 160 1113 160 985 
L 160 64 
C 160 -52 166 -58 205 -58 
C 237 -58 243 -52 275 0 
C 314 57 410 211 448 275 
C 576 102 800 -64 1158 -64 
C 1792 -64 2131 281 2131 780 
C 2131 1107 1958 1280 1875 1356 
C 1683 1555 1459 1600 1190 1651 
C 838 1728 390 1817 390 2208 
C 390 2374 480 2726 1126 2726 
C 1811 2726 1850 2086 1862 1881 
C 1869 1849 1901 1843 1920 1843 
C 1978 1843 1978 1862 1978 1971 
L 1978 2688 
z
" transform="scale(0.015625)"/>
       <path id="CMR17-50" d="M 1267 2048 
L 2291 2048 
C 3117 2048 3718 2583 3718 3187 
C 3718 3791 3130 4352 2291 4352 
L 333 4352 
L 333 4185 
C 774 4185 845 4185 845 3899 
L 845 453 
C 845 166 774 166 333 166 
L 333 0 
C 518 12 858 12 1056 12 
C 1254 12 1594 12 1779 0 
L 1779 166 
C 1338 166 1267 166 1267 453 
L 1267 2048 
z
M 1254 2182 
L 1254 3937 
C 1254 4153 1267 4185 1523 4185 
L 2170 4185 
C 2995 4185 3232 3715 3232 3187 
C 3232 2608 2950 2182 2170 2182 
L 1254 2182 
z
" transform="scale(0.015625)"/>
       <path id="CMR17-77" d="M 3725 2186 
C 3853 2566 4109 2579 4205 2585 
L 4205 2752 
C 4077 2745 3949 2739 3821 2739 
C 3699 2739 3424 2739 3315 2752 
L 3315 2585 
C 3514 2572 3622 2456 3622 2296 
C 3622 2251 3610 2193 3597 2148 
L 2995 398 
L 2342 2296 
C 2330 2341 2310 2392 2310 2418 
C 2310 2585 2528 2585 2630 2585 
L 2630 2752 
C 2483 2739 2214 2739 2061 2739 
C 1901 2739 1734 2739 1587 2752 
L 1587 2585 
C 1939 2585 1939 2572 2074 2167 
L 1485 443 
L 851 2302 
C 819 2386 819 2399 819 2418 
C 819 2585 1037 2585 1139 2585 
L 1139 2752 
C 986 2739 717 2739 557 2739 
C 416 2739 198 2739 64 2752 
L 64 2585 
C 346 2585 416 2566 486 2353 
L 1274 38 
C 1299 -45 1318 -64 1370 -64 
C 1414 -64 1440 -52 1472 44 
L 2131 1987 
L 2797 44 
C 2829 -52 2854 -64 2899 -64 
C 2950 -64 2970 -45 2995 38 
L 3725 2186 
z
" transform="scale(0.015625)"/>
       <path id="CMR17-53" d="M 2803 4351 
C 2803 4467 2797 4473 2758 4473 
C 2720 4473 2707 4447 2682 4390 
L 2490 3965 
C 2246 4320 1875 4480 1472 4480 
C 819 4480 294 3958 294 3301 
C 294 3101 339 2817 557 2546 
C 794 2250 1018 2198 1530 2063 
C 1722 2011 2042 1927 2106 1901 
C 2470 1747 2662 1360 2662 999 
C 2662 534 2336 38 1779 38 
C 1094 38 454 425 410 1328 
C 403 1431 397 1437 352 1437 
C 301 1437 294 1431 294 1302 
L 294 0 
C 294 -116 301 -122 339 -122 
C 384 -122 397 -90 486 109 
C 493 128 493 141 614 386 
C 934 -39 1472 -128 1779 -128 
C 2477 -128 2970 457 2970 1141 
C 2970 1476 2848 1734 2778 1850 
C 2509 2263 2221 2340 1914 2417 
C 1869 2437 1856 2437 1498 2527 
C 1152 2617 1005 2662 845 2836 
C 666 3036 602 3243 602 3449 
C 602 3868 934 4326 1478 4326 
C 2157 4326 2579 3842 2675 3036 
C 2694 2920 2701 2914 2746 2914 
C 2803 2914 2803 2933 2803 3043 
L 2803 4351 
z
" transform="scale(0.015625)"/>
       <path id="CMR17-70" d="M 1408 -1114 
C 998 -1114 973 -1088 973 -834 
L 973 380 
C 1158 109 1427 -64 1766 -64 
C 2406 -64 3053 503 3053 1382 
C 3053 2196 2496 2816 1837 2816 
C 1453 2816 1139 2603 960 2345 
L 960 2816 
L 198 2745 
L 198 2577 
C 576 2577 634 2539 634 2228 
L 634 -834 
C 634 -1081 608 -1114 198 -1114 
L 198 -1280 
C 352 -1268 634 -1268 800 -1268 
C 966 -1268 1254 -1268 1408 -1280 
L 1408 -1114 
z
M 973 2015 
C 973 2106 973 2241 1222 2481 
C 1254 2506 1472 2700 1792 2700 
C 2259 2700 2643 2112 2643 1376 
C 2643 639 2234 38 1728 38 
C 1498 38 1248 148 1056 451 
C 973 594 973 632 973 736 
L 973 2015 
z
" transform="scale(0.015625)"/>
       <path id="CMR17-74" d="M 966 2585 
L 1862 2585 
L 1862 2752 
L 966 2752 
L 966 3968 
L 851 3968 
C 838 3292 614 2700 70 2687 
L 70 2585 
L 627 2585 
L 627 778 
C 627 655 627 -64 1370 -64 
C 1747 -64 1965 308 1965 784 
L 1965 1151 
L 1850 1151 
L 1850 790 
C 1850 347 1677 51 1408 51 
C 1222 51 966 179 966 765 
L 966 2585 
z
" transform="scale(0.015625)"/>
       <path id="CMR17-61" d="M 2304 1656 
C 2304 2048 2304 2275 2035 2534 
C 1798 2751 1523 2816 1306 2816 
C 800 2816 435 2408 435 1977 
C 435 1740 627 1728 666 1728 
C 749 1728 896 1779 896 1958 
C 896 2118 774 2188 666 2188 
C 640 2188 608 2182 589 2176 
C 723 2594 1069 2713 1293 2713 
C 1613 2713 1965 2421 1965 1875 
L 1965 1632 
C 1587 1619 1133 1568 774 1373 
C 371 1147 256 822 256 576 
C 256 77 832 -64 1171 -64 
C 1523 -64 1850 135 1990 505 
C 2003 219 2182 -39 2464 -39 
C 2598 -39 2938 51 2938 563 
L 2938 926 
L 2822 926 
L 2822 557 
C 2822 161 2650 109 2566 109 
C 2304 109 2304 446 2304 732 
L 2304 1656 
z
M 1965 887 
C 1965 323 1568 38 1216 38 
C 896 38 646 278 646 576 
C 646 771 730 1114 1101 1322 
C 1408 1497 1760 1523 1965 1536 
L 1965 887 
z
" transform="scale(0.015625)"/>
       <path id="CMR17-6c" d="M 979 4416 
L 218 4345 
L 218 4179 
C 595 4179 653 4141 653 3835 
L 653 439 
C 653 198 627 166 218 166 
L 218 0 
C 371 12 653 12 813 12 
C 979 12 1261 12 1414 0 
L 1414 166 
C 1005 166 979 191 979 439 
L 979 4416 
z
" transform="scale(0.015625)"/>
       <path id="CMR17-44" d="M 333 4352 
L 333 4185 
C 774 4185 845 4185 845 3898 
L 845 453 
C 845 166 774 166 333 166 
L 333 0 
L 2368 0 
C 3398 0 4224 943 4224 2140 
C 4224 3344 3411 4352 2368 4352 
L 333 4352 
z
M 1523 166 
C 1267 166 1254 198 1254 414 
L 1254 3936 
C 1254 4153 1267 4185 1523 4185 
L 2240 4185 
C 2771 4185 3750 3873 3750 2140 
C 3750 1242 3488 879 3366 707 
C 3213 510 2848 166 2240 166 
L 1523 166 
z
" transform="scale(0.015625)"/>
       <path id="CMR17-69" d="M 992 3961 
C 992 4102 877 4224 730 4224 
C 589 4224 467 4108 467 3961 
C 467 3820 582 3699 730 3699 
C 870 3699 992 3814 992 3961 
z
M 243 2745 
L 243 2579 
C 602 2579 653 2540 653 2231 
L 653 443 
C 653 198 627 166 218 166 
L 218 0 
C 371 12 646 12 806 12 
C 960 12 1222 12 1370 0 
L 1370 166 
C 992 166 979 205 979 436 
L 979 2816 
L 243 2745 
z
" transform="scale(0.015625)"/>
      </defs>
      <use xlink:href="#CMR17-43" transform="scale(0.996264)"/>
      <use xlink:href="#CMR17-72" transform="translate(66.509881 0) scale(0.996264)"/>
      <use xlink:href="#CMR17-6f" transform="translate(101.790648 0) scale(0.996264)"/>
      <use xlink:href="#CMR17-73" transform="translate(147.481125 0) scale(0.996264)"/>
      <use xlink:href="#CMR17-73" transform="translate(183.282463 0) scale(0.996264)"/>
      <use xlink:href="#CMR17-50" transform="translate(249.159767 0) scale(0.996264)"/>
      <use xlink:href="#CMR17-6f" transform="translate(309.143614 0) scale(0.996264)"/>
      <use xlink:href="#CMR17-77" transform="translate(352.231637 0) scale(0.996264)"/>
      <use xlink:href="#CMR17-65" transform="translate(416.139063 0) scale(0.996264)"/>
      <use xlink:href="#CMR17-72" transform="translate(456.624724 0) scale(0.996264)"/>
      <use xlink:href="#CMR17-53" transform="translate(521.981458 0) scale(0.996264)"/>
      <use xlink:href="#CMR17-70" transform="translate(572.876828 0) scale(0.996264)"/>
      <use xlink:href="#CMR17-65" transform="translate(626.374636 0) scale(0.996264)"/>
      <use xlink:href="#CMR17-63" transform="translate(666.860297 0) scale(0.996264)"/>
      <use xlink:href="#CMR17-74" transform="translate(707.345957 0) scale(0.996264)"/>
      <use xlink:href="#CMR17-72" transform="translate(742.626725 0) scale(0.996264)"/>
      <use xlink:href="#CMR17-61" transform="translate(777.907493 0) scale(0.996264)"/>
      <use xlink:href="#CMR17-6c" transform="translate(823.59797 0) scale(0.996264)"/>
      <use xlink:href="#CMR17-44" transform="translate(878.544995 0) scale(0.996264)"/>
      <use xlink:href="#CMR17-65" transform="translate(948.938551 0) scale(0.996264)"/>
      <use xlink:href="#CMR17-6e" transform="translate(989.424211 0) scale(0.996264)"/>
      <use xlink:href="#CMR17-73" transform="translate(1040.319581 0) scale(0.996264)"/>
      <use xlink:href="#CMR17-69" transform="translate(1076.120919 0) scale(0.996264)"/>
      <use xlink:href="#CMR17-74" transform="translate(1100.991977 0) scale(0.996264)"/>
      <use xlink:href="#CMR17-79" transform="translate(1133.670291 0) scale(0.996264)"/>
     </g>
    </g>
   </g>
   <g id="line2d_34">
    <path d="M 90.622545 214.600562 
L 104.385354 214.157804 
L 111.796095 213.763662 
L 115.677914 213.509639 
L 125.911798 212.566151 
L 140.027502 210.383804 
L 143.203535 209.714171 
L 150.614276 207.762482 
L 158.377913 204.96098 
L 164.729981 201.867028 
L 170.023366 198.484589 
L 171.787832 197.13023 
L 173.199402 195.978626 
L 175.669648 193.743419 
L 178.84568 190.32298 
L 182.374609 185.668863 
L 184.139071 182.914526 
L 186.609317 178.46165 
L 188.020888 175.569042 
L 190.138244 170.660356 
L 192.608491 163.815819 
L 194.020062 159.306145 
L 195.784524 152.994583 
L 198.254773 142.662277 
L 200.725018 130.549194 
L 207.429979 94.394504 
L 208.488658 90.260269 
L 209.19444 88.111741 
L 209.900225 86.628086 
L 210.606013 85.841563 
L 210.958904 85.734436 
L 211.311798 85.827902 
L 211.66469 86.130555 
L 212.017582 86.611509 
L 212.723366 88.251502 
L 213.429153 90.666802 
L 214.487831 95.669514 
L 215.546508 102.192861 
L 216.958077 112.38543 
L 222.957249 157.903547 
L 224.368821 166.449144 
L 225.780391 173.907112 
L 227.191963 180.271309 
L 228.603533 185.727459 
L 230.015101 190.299283 
L 231.426674 194.139225 
L 232.838241 197.368034 
L 234.249811 200.049137 
L 235.661382 202.275069 
L 237.072955 204.105178 
L 238.484524 205.597174 
L 239.896093 206.781112 
L 241.307664 207.690928 
L 242.719233 208.358387 
L 244.130805 208.791908 
L 245.542374 209.005201 
L 246.953945 208.994089 
L 248.365516 208.748665 
L 249.777085 208.244571 
L 251.188653 207.431006 
L 252.247335 206.578305 
L 253.306009 205.465554 
L 254.36469 204.017615 
L 255.423367 202.142102 
L 256.482045 199.683336 
L 257.540722 196.435501 
L 258.5994 192.028916 
L 259.305185 188.204917 
L 260.01097 183.407777 
L 260.716753 177.372586 
L 261.422541 169.672586 
L 262.128326 159.746458 
L 262.834109 147.196787 
L 263.892787 122.909355 
L 264.951466 96.10377 
L 265.304358 89.087804 
L 265.65725 84.415008 
L 266.010144 82.738342 
L 266.363035 84.547178 
L 266.715929 89.682768 
L 267.421712 107.380545 
L 268.833283 149.030519 
L 269.539068 165.309138 
L 270.244853 177.727388 
L 270.950639 187.043823 
L 271.656423 194.011223 
L 272.362209 199.255485 
L 273.067993 203.245772 
L 273.773778 206.320331 
L 274.832458 209.7142 
L 275.891136 212.127439 
L 276.949811 213.885333 
L 278.00849 215.193866 
L 279.067167 216.186837 
L 280.478737 217.170284 
L 281.890306 217.887314 
L 283.65477 218.533079 
L 285.772125 219.069417 
L 288.595265 219.537813 
L 292.477085 219.922551 
L 297.770473 220.204647 
L 306.239896 220.407855 
L 322.120058 220.525695 
L 368.348983 220.563313 
L 433 220.564237 
L 433 220.564237 
" clip-path="url(#p62c52ddd57)" style="fill: none; stroke: #ffa353; stroke-width: 12; stroke-linecap: square"/>
   </g>
   <g id="line2d_35">
    <path d="M 90.622545 214.600562 
L 104.385354 214.157804 
L 111.796095 213.763662 
L 115.677914 213.509639 
L 125.911798 212.566151 
L 140.027502 210.383804 
L 143.203535 209.714171 
L 150.614276 207.762482 
L 158.377913 204.96098 
L 164.729981 201.867028 
L 170.023366 198.484589 
L 171.787832 197.13023 
L 173.199402 195.978626 
L 175.669648 193.743419 
L 178.84568 190.32298 
L 182.374609 185.668863 
L 184.139071 182.914526 
L 186.609317 178.46165 
L 188.020888 175.569042 
L 190.138244 170.660356 
L 192.608491 163.815819 
L 194.020062 159.306145 
L 195.784524 152.994583 
L 198.254773 142.662277 
L 200.725018 130.549194 
L 207.429979 94.394504 
L 208.488658 90.260269 
L 209.19444 88.111741 
L 209.900225 86.628086 
L 210.606013 85.841563 
L 210.958904 85.734436 
L 211.311798 85.827902 
L 211.66469 86.130555 
L 212.017582 86.611509 
L 212.723366 88.251502 
L 213.429153 90.666802 
L 214.487831 95.669514 
L 215.546508 102.192861 
L 216.958077 112.38543 
L 222.957249 157.903547 
L 224.368821 166.449144 
L 225.780391 173.907112 
L 227.191963 180.271309 
L 228.603533 185.727459 
L 230.015101 190.299283 
L 231.426674 194.139225 
L 232.838241 197.368034 
L 234.249811 200.049137 
L 235.661382 202.275069 
L 237.072955 204.105178 
L 238.484524 205.597174 
L 239.896093 206.781112 
L 241.307664 207.690928 
L 242.719233 208.358387 
L 244.130805 208.791908 
L 245.542374 209.005201 
L 246.953945 208.994089 
L 248.365516 208.748665 
L 249.777085 208.244571 
L 251.188653 207.431006 
L 252.247335 206.578305 
L 253.306009 205.465554 
L 254.36469 204.017615 
L 255.423367 202.142102 
L 256.482045 199.683336 
L 257.540722 196.435501 
L 258.5994 192.028916 
L 259.305185 188.204917 
L 260.01097 183.407777 
L 260.716753 177.372586 
L 261.422541 169.672586 
L 262.128326 159.746458 
L 262.834109 147.196787 
L 263.892787 122.909355 
L 264.951466 96.10377 
L 265.304358 89.087804 
L 265.65725 84.415008 
L 266.010144 82.738342 
L 266.363035 84.547178 
L 266.715929 89.682768 
L 267.421712 107.380545 
L 268.833283 149.030519 
L 269.539068 165.309138 
L 270.244853 177.727388 
L 270.950639 187.043823 
L 271.656423 194.011223 
L 272.362209 199.255485 
L 273.067993 203.245772 
L 273.773778 206.320331 
L 274.832458 209.7142 
L 275.891136 212.127439 
L 276.949811 213.885333 
L 278.00849 215.193866 
L 279.067167 216.186837 
L 280.478737 217.170284 
L 281.890306 217.887314 
L 283.65477 218.533079 
L 285.772125 219.069417 
L 288.595265 219.537813 
L 292.477085 219.922551 
L 297.770473 220.204647 
L 306.239896 220.407855 
L 322.120058 220.525695 
L 368.348983 220.563313 
L 433 220.564237 
L 433 220.564237 
" clip-path="url(#p62c52ddd57)" style="fill: none; stroke: #095400; stroke-width: 3.5; stroke-linecap: square"/>
   </g>
   <g id="line2d_36">
    <path d="M 90.622545 214.600563 
L 96.597793 214.442194 
L 102.57304 214.231256 
L 108.548288 213.95222 
L 114.523536 213.585974 
L 120.498787 213.109311 
L 126.474036 212.494241 
L 132.449284 211.706829 
L 138.424532 210.70511 
L 144.399781 209.435417 
L 150.375028 207.825995 
L 156.350277 205.776152 
L 162.325525 203.137528 
L 168.300774 199.681049 
L 174.27602 195.036634 
L 180.251272 188.579843 
L 186.226518 179.218248 
L 192.201768 165.027287 
L 198.177018 142.987665 
L 204.152267 111.526243 
L 210.127514 86.292577 
L 216.102763 106.010477 
L 222.078011 152.027642 
L 228.053257 183.706258 
L 234.028506 199.662582 
L 240.003756 206.85775 
L 245.979005 209.02586 
L 251.954251 206.839335 
L 257.9295 194.968541 
L 263.904749 122.576301 
L 269.879997 171.755129 
L 275.855248 212.059817 
L 281.830497 217.86099 
L 287.805745 219.42777 
L 293.780993 220.011061 
L 299.75624 220.270942 
L 305.731489 220.400225 
L 311.706737 220.469289 
L 317.681986 220.50798 
L 323.657235 220.530371 
L 329.632484 220.543623 
L 335.607733 220.551592 
L 341.582981 220.556438 
L 347.558231 220.559408 
L 353.533478 220.561239 
L 359.508725 220.562373 
L 365.483975 220.563077 
L 371.459222 220.563515 
L 377.434472 220.563789 
L 383.40972 220.563959 
L 389.384969 220.564066 
L 395.360218 220.564132 
L 401.335465 220.564174 
L 407.310716 220.5642 
L 413.285964 220.564216 
L 419.261213 220.564226 
L 425.23646 220.564233 
L 431.211708 220.564237 
L 433 220.564237 
" clip-path="url(#p62c52ddd57)" style="fill: none"/>
    <defs>
     <path id="m208844e324" d="M -4 4 
L 4 4 
L 4 -4 
L -4 -4 
z
" style="stroke: #1b3b9d; stroke-linejoin: miter"/>
    </defs>
    <g clip-path="url(#p62c52ddd57)">
     <use xlink:href="#m208844e324" x="90.622545" y="214.600563" style="fill-opacity: 0; stroke: #1b3b9d; stroke-linejoin: miter"/>
     <use xlink:href="#m208844e324" x="96.597793" y="214.442194" style="fill-opacity: 0; stroke: #1b3b9d; stroke-linejoin: miter"/>
     <use xlink:href="#m208844e324" x="102.57304" y="214.231256" style="fill-opacity: 0; stroke: #1b3b9d; stroke-linejoin: miter"/>
     <use xlink:href="#m208844e324" x="108.548288" y="213.95222" style="fill-opacity: 0; stroke: #1b3b9d; stroke-linejoin: miter"/>
     <use xlink:href="#m208844e324" x="114.523536" y="213.585974" style="fill-opacity: 0; stroke: #1b3b9d; stroke-linejoin: miter"/>
     <use xlink:href="#m208844e324" x="120.498787" y="213.109311" style="fill-opacity: 0; stroke: #1b3b9d; stroke-linejoin: miter"/>
     <use xlink:href="#m208844e324" x="126.474036" y="212.494241" style="fill-opacity: 0; stroke: #1b3b9d; stroke-linejoin: miter"/>
     <use xlink:href="#m208844e324" x="132.449284" y="211.706829" style="fill-opacity: 0; stroke: #1b3b9d; stroke-linejoin: miter"/>
     <use xlink:href="#m208844e324" x="138.424532" y="210.70511" style="fill-opacity: 0; stroke: #1b3b9d; stroke-linejoin: miter"/>
     <use xlink:href="#m208844e324" x="144.399781" y="209.435417" style="fill-opacity: 0; stroke: #1b3b9d; stroke-linejoin: miter"/>
     <use xlink:href="#m208844e324" x="150.375028" y="207.825995" style="fill-opacity: 0; stroke: #1b3b9d; stroke-linejoin: miter"/>
     <use xlink:href="#m208844e324" x="156.350277" y="205.776152" style="fill-opacity: 0; stroke: #1b3b9d; stroke-linejoin: miter"/>
     <use xlink:href="#m208844e324" x="162.325525" y="203.137528" style="fill-opacity: 0; stroke: #1b3b9d; stroke-linejoin: miter"/>
     <use xlink:href="#m208844e324" x="168.300774" y="199.681049" style="fill-opacity: 0; stroke: #1b3b9d; stroke-linejoin: miter"/>
     <use xlink:href="#m208844e324" x="174.27602" y="195.036634" style="fill-opacity: 0; stroke: #1b3b9d; stroke-linejoin: miter"/>
     <use xlink:href="#m208844e324" x="180.251272" y="188.579843" style="fill-opacity: 0; stroke: #1b3b9d; stroke-linejoin: miter"/>
     <use xlink:href="#m208844e324" x="186.226518" y="179.218248" style="fill-opacity: 0; stroke: #1b3b9d; stroke-linejoin: miter"/>
     <use xlink:href="#m208844e324" x="192.201768" y="165.027287" style="fill-opacity: 0; stroke: #1b3b9d; stroke-linejoin: miter"/>
     <use xlink:href="#m208844e324" x="198.177018" y="142.987665" style="fill-opacity: 0; stroke: #1b3b9d; stroke-linejoin: miter"/>
     <use xlink:href="#m208844e324" x="204.152267" y="111.526243" style="fill-opacity: 0; stroke: #1b3b9d; stroke-linejoin: miter"/>
     <use xlink:href="#m208844e324" x="210.127514" y="86.292577" style="fill-opacity: 0; stroke: #1b3b9d; stroke-linejoin: miter"/>
     <use xlink:href="#m208844e324" x="216.102763" y="106.010477" style="fill-opacity: 0; stroke: #1b3b9d; stroke-linejoin: miter"/>
     <use xlink:href="#m208844e324" x="222.078011" y="152.027642" style="fill-opacity: 0; stroke: #1b3b9d; stroke-linejoin: miter"/>
     <use xlink:href="#m208844e324" x="228.053257" y="183.706258" style="fill-opacity: 0; stroke: #1b3b9d; stroke-linejoin: miter"/>
     <use xlink:href="#m208844e324" x="234.028506" y="199.662582" style="fill-opacity: 0; stroke: #1b3b9d; stroke-linejoin: miter"/>
     <use xlink:href="#m208844e324" x="240.003756" y="206.85775" style="fill-opacity: 0; stroke: #1b3b9d; stroke-linejoin: miter"/>
     <use xlink:href="#m208844e324" x="245.979005" y="209.02586" style="fill-opacity: 0; stroke: #1b3b9d; stroke-linejoin: miter"/>
     <use xlink:href="#m208844e324" x="251.954251" y="206.839335" style="fill-opacity: 0; stroke: #1b3b9d; stroke-linejoin: miter"/>
     <use xlink:href="#m208844e324" x="257.9295" y="194.968541" style="fill-opacity: 0; stroke: #1b3b9d; stroke-linejoin: miter"/>
     <use xlink:href="#m208844e324" x="263.904749" y="122.576301" style="fill-opacity: 0; stroke: #1b3b9d; stroke-linejoin: miter"/>
     <use xlink:href="#m208844e324" x="269.879997" y="171.755129" style="fill-opacity: 0; stroke: #1b3b9d; stroke-linejoin: miter"/>
     <use xlink:href="#m208844e324" x="275.855248" y="212.059817" style="fill-opacity: 0; stroke: #1b3b9d; stroke-linejoin: miter"/>
     <use xlink:href="#m208844e324" x="281.830497" y="217.86099" style="fill-opacity: 0; stroke: #1b3b9d; stroke-linejoin: miter"/>
     <use xlink:href="#m208844e324" x="287.805745" y="219.42777" style="fill-opacity: 0; stroke: #1b3b9d; stroke-linejoin: miter"/>
     <use xlink:href="#m208844e324" x="293.780993" y="220.011061" style="fill-opacity: 0; stroke: #1b3b9d; stroke-linejoin: miter"/>
     <use xlink:href="#m208844e324" x="299.75624" y="220.270942" style="fill-opacity: 0; stroke: #1b3b9d; stroke-linejoin: miter"/>
     <use xlink:href="#m208844e324" x="305.731489" y="220.400225" style="fill-opacity: 0; stroke: #1b3b9d; stroke-linejoin: miter"/>
     <use xlink:href="#m208844e324" x="311.706737" y="220.469289" style="fill-opacity: 0; stroke: #1b3b9d; stroke-linejoin: miter"/>
     <use xlink:href="#m208844e324" x="317.681986" y="220.50798" style="fill-opacity: 0; stroke: #1b3b9d; stroke-linejoin: miter"/>
     <use xlink:href="#m208844e324" x="323.657235" y="220.530371" style="fill-opacity: 0; stroke: #1b3b9d; stroke-linejoin: miter"/>
     <use xlink:href="#m208844e324" x="329.632484" y="220.543623" style="fill-opacity: 0; stroke: #1b3b9d; stroke-linejoin: miter"/>
     <use xlink:href="#m208844e324" x="335.607733" y="220.551592" style="fill-opacity: 0; stroke: #1b3b9d; stroke-linejoin: miter"/>
     <use xlink:href="#m208844e324" x="341.582981" y="220.556438" style="fill-opacity: 0; stroke: #1b3b9d; stroke-linejoin: miter"/>
     <use xlink:href="#m208844e324" x="347.558231" y="220.559408" style="fill-opacity: 0; stroke: #1b3b9d; stroke-linejoin: miter"/>
     <use xlink:href="#m208844e324" x="353.533478" y="220.561239" style="fill-opacity: 0; stroke: #1b3b9d; stroke-linejoin: miter"/>
     <use xlink:href="#m208844e324" x="359.508725" y="220.562373" style="fill-opacity: 0; stroke: #1b3b9d; stroke-linejoin: miter"/>
     <use xlink:href="#m208844e324" x="365.483975" y="220.563077" style="fill-opacity: 0; stroke: #1b3b9d; stroke-linejoin: miter"/>
     <use xlink:href="#m208844e324" x="371.459222" y="220.563515" style="fill-opacity: 0; stroke: #1b3b9d; stroke-linejoin: miter"/>
     <use xlink:href="#m208844e324" x="377.434472" y="220.563789" style="fill-opacity: 0; stroke: #1b3b9d; stroke-linejoin: miter"/>
     <use xlink:href="#m208844e324" x="383.40972" y="220.563959" style="fill-opacity: 0; stroke: #1b3b9d; stroke-linejoin: miter"/>
     <use xlink:href="#m208844e324" x="389.384969" y="220.564066" style="fill-opacity: 0; stroke: #1b3b9d; stroke-linejoin: miter"/>
     <use xlink:href="#m208844e324" x="395.360218" y="220.564132" style="fill-opacity: 0; stroke: #1b3b9d; stroke-linejoin: miter"/>
     <use xlink:href="#m208844e324" x="401.335465" y="220.564174" style="fill-opacity: 0; stroke: #1b3b9d; stroke-linejoin: miter"/>
     <use xlink:href="#m208844e324" x="407.310716" y="220.5642" style="fill-opacity: 0; stroke: #1b3b9d; stroke-linejoin: miter"/>
     <use xlink:href="#m208844e324" x="413.285964" y="220.564216" style="fill-opacity: 0; stroke: #1b3b9d; stroke-linejoin: miter"/>
     <use xlink:href="#m208844e324" x="419.261213" y="220.564226" style="fill-opacity: 0; stroke: #1b3b9d; stroke-linejoin: miter"/>
     <use xlink:href="#m208844e324" x="425.23646" y="220.564233" style="fill-opacity: 0; stroke: #1b3b9d; stroke-linejoin: miter"/>
     <use xlink:href="#m208844e324" x="431.211708" y="220.564237" style="fill-opacity: 0; stroke: #1b3b9d; stroke-linejoin: miter"/>
     <use xlink:href="#m208844e324" x="437.186956" y="220.564239" style="fill-opacity: 0; stroke: #1b3b9d; stroke-linejoin: miter"/>
     <use xlink:href="#m208844e324" x="443.162206" y="220.564241" style="fill-opacity: 0; stroke: #1b3b9d; stroke-linejoin: miter"/>
    </g>
   </g>
   <g id="line2d_37">
    <path d="M 97.601249 212.135715 
L 113.121037 213.203624 
L 124.132502 215.542463 
L 132.673658 212.566957 
L 139.652291 211.236485 
L 145.55264 204.759367 
L 150.663756 206.320157 
L 155.172079 211.24639 
L 162.853052 204.429601 
L 169.247299 198.777765 
L 174.7247 201.954767 
L 179.515508 186.250112 
L 185.736165 179.885749 
L 192.714797 154.104263 
L 198.615147 165.6488 
L 203.726262 116.594275 
L 210.30409 59.914976 
L 215.915559 87.760324 
L 222.309806 148.530981 
L 227.787206 179.121565 
L 234.230494 200.550687 
L 240.207782 208.640747 
L 246.173955 211.294109 
L 252.017891 204.981259 
L 257.9666 200.677074 
L 263.86695 122.466568 
L 269.838248 153.582917 
L 275.920434 212.910412 
L 281.79486 218.181939 
L 287.828345 218.631691 
L 293.728695 220.174309 
L 299.726564 220.253804 
L 305.751933 220.440754 
L 311.676049 220.398871 
L 317.667933 220.477173 
L 323.637876 220.534836 
L 329.612651 220.553483 
L 335.5894 220.551514 
L 341.582317 220.562066 
L 347.552527 220.562628 
L 353.536542 220.560597 
L 359.515267 220.560165 
L 365.479756 220.563885 
L 371.454938 220.562302 
L 377.436368 220.562975 
L 383.404256 220.563713 
L 389.388925 220.563727 
L 395.36407 220.564026 
L 401.334122 220.563869 
L 407.308769 220.564109 
L 413.286056 220.564133 
L 419.260807 220.564102 
L 425.235821 220.564193 
L 431.211562 220.564233 
L 433 220.564228 
" clip-path="url(#p62c52ddd57)" style="fill: none"/>
    <defs>
     <path id="m6314c533d5" d="M 0 6 
C 1.591219 6 3.117479 5.367802 4.242641 4.242641 
C 5.367802 3.117479 6 1.591219 6 0 
C 6 -1.591219 5.367802 -3.117479 4.242641 -4.242641 
C 3.117479 -5.367802 1.591219 -6 0 -6 
C -1.591219 -6 -3.117479 -5.367802 -4.242641 -4.242641 
C -5.367802 -3.117479 -6 -1.591219 -6 0 
C -6 1.591219 -5.367802 3.117479 -4.242641 4.242641 
C -3.117479 5.367802 -1.591219 6 0 6 
z
" style="stroke: #000000"/>
    </defs>
    <g clip-path="url(#p62c52ddd57)">
     <use xlink:href="#m6314c533d5" x="97.601249" y="212.135715" style="fill-opacity: 0; stroke: #000000"/>
     <use xlink:href="#m6314c533d5" x="113.121037" y="213.203624" style="fill-opacity: 0; stroke: #000000"/>
     <use xlink:href="#m6314c533d5" x="124.132502" y="215.542463" style="fill-opacity: 0; stroke: #000000"/>
     <use xlink:href="#m6314c533d5" x="132.673658" y="212.566957" style="fill-opacity: 0; stroke: #000000"/>
     <use xlink:href="#m6314c533d5" x="139.652291" y="211.236485" style="fill-opacity: 0; stroke: #000000"/>
     <use xlink:href="#m6314c533d5" x="145.55264" y="204.759367" style="fill-opacity: 0; stroke: #000000"/>
     <use xlink:href="#m6314c533d5" x="150.663756" y="206.320157" style="fill-opacity: 0; stroke: #000000"/>
     <use xlink:href="#m6314c533d5" x="155.172079" y="211.24639" style="fill-opacity: 0; stroke: #000000"/>
     <use xlink:href="#m6314c533d5" x="162.853052" y="204.429601" style="fill-opacity: 0; stroke: #000000"/>
     <use xlink:href="#m6314c533d5" x="169.247299" y="198.777765" style="fill-opacity: 0; stroke: #000000"/>
     <use xlink:href="#m6314c533d5" x="174.7247" y="201.954767" style="fill-opacity: 0; stroke: #000000"/>
     <use xlink:href="#m6314c533d5" x="179.515508" y="186.250112" style="fill-opacity: 0; stroke: #000000"/>
     <use xlink:href="#m6314c533d5" x="185.736165" y="179.885749" style="fill-opacity: 0; stroke: #000000"/>
     <use xlink:href="#m6314c533d5" x="192.714797" y="154.104263" style="fill-opacity: 0; stroke: #000000"/>
     <use xlink:href="#m6314c533d5" x="198.615147" y="165.6488" style="fill-opacity: 0; stroke: #000000"/>
     <use xlink:href="#m6314c533d5" x="203.726262" y="116.594275" style="fill-opacity: 0; stroke: #000000"/>
     <use xlink:href="#m6314c533d5" x="210.30409" y="59.914976" style="fill-opacity: 0; stroke: #000000"/>
     <use xlink:href="#m6314c533d5" x="215.915559" y="87.760324" style="fill-opacity: 0; stroke: #000000"/>
     <use xlink:href="#m6314c533d5" x="222.309806" y="148.530981" style="fill-opacity: 0; stroke: #000000"/>
     <use xlink:href="#m6314c533d5" x="227.787206" y="179.121565" style="fill-opacity: 0; stroke: #000000"/>
     <use xlink:href="#m6314c533d5" x="234.230494" y="200.550687" style="fill-opacity: 0; stroke: #000000"/>
     <use xlink:href="#m6314c533d5" x="240.207782" y="208.640747" style="fill-opacity: 0; stroke: #000000"/>
     <use xlink:href="#m6314c533d5" x="246.173955" y="211.294109" style="fill-opacity: 0; stroke: #000000"/>
     <use xlink:href="#m6314c533d5" x="252.017891" y="204.981259" style="fill-opacity: 0; stroke: #000000"/>
     <use xlink:href="#m6314c533d5" x="257.9666" y="200.677074" style="fill-opacity: 0; stroke: #000000"/>
     <use xlink:href="#m6314c533d5" x="263.86695" y="122.466568" style="fill-opacity: 0; stroke: #000000"/>
     <use xlink:href="#m6314c533d5" x="269.838248" y="153.582917" style="fill-opacity: 0; stroke: #000000"/>
     <use xlink:href="#m6314c533d5" x="275.920434" y="212.910412" style="fill-opacity: 0; stroke: #000000"/>
     <use xlink:href="#m6314c533d5" x="281.79486" y="218.181939" style="fill-opacity: 0; stroke: #000000"/>
     <use xlink:href="#m6314c533d5" x="287.828345" y="218.631691" style="fill-opacity: 0; stroke: #000000"/>
     <use xlink:href="#m6314c533d5" x="293.728695" y="220.174309" style="fill-opacity: 0; stroke: #000000"/>
     <use xlink:href="#m6314c533d5" x="299.726564" y="220.253804" style="fill-opacity: 0; stroke: #000000"/>
     <use xlink:href="#m6314c533d5" x="305.751933" y="220.440754" style="fill-opacity: 0; stroke: #000000"/>
     <use xlink:href="#m6314c533d5" x="311.676049" y="220.398871" style="fill-opacity: 0; stroke: #000000"/>
     <use xlink:href="#m6314c533d5" x="317.667933" y="220.477173" style="fill-opacity: 0; stroke: #000000"/>
     <use xlink:href="#m6314c533d5" x="323.637876" y="220.534836" style="fill-opacity: 0; stroke: #000000"/>
     <use xlink:href="#m6314c533d5" x="329.612651" y="220.553483" style="fill-opacity: 0; stroke: #000000"/>
     <use xlink:href="#m6314c533d5" x="335.5894" y="220.551514" style="fill-opacity: 0; stroke: #000000"/>
     <use xlink:href="#m6314c533d5" x="341.582317" y="220.562066" style="fill-opacity: 0; stroke: #000000"/>
     <use xlink:href="#m6314c533d5" x="347.552527" y="220.562628" style="fill-opacity: 0; stroke: #000000"/>
     <use xlink:href="#m6314c533d5" x="353.536542" y="220.560597" style="fill-opacity: 0; stroke: #000000"/>
     <use xlink:href="#m6314c533d5" x="359.515267" y="220.560165" style="fill-opacity: 0; stroke: #000000"/>
     <use xlink:href="#m6314c533d5" x="365.479756" y="220.563885" style="fill-opacity: 0; stroke: #000000"/>
     <use xlink:href="#m6314c533d5" x="371.454938" y="220.562302" style="fill-opacity: 0; stroke: #000000"/>
     <use xlink:href="#m6314c533d5" x="377.436368" y="220.562975" style="fill-opacity: 0; stroke: #000000"/>
     <use xlink:href="#m6314c533d5" x="383.404256" y="220.563713" style="fill-opacity: 0; stroke: #000000"/>
     <use xlink:href="#m6314c533d5" x="389.388925" y="220.563727" style="fill-opacity: 0; stroke: #000000"/>
     <use xlink:href="#m6314c533d5" x="395.36407" y="220.564026" style="fill-opacity: 0; stroke: #000000"/>
     <use xlink:href="#m6314c533d5" x="401.334122" y="220.563869" style="fill-opacity: 0; stroke: #000000"/>
     <use xlink:href="#m6314c533d5" x="407.308769" y="220.564109" style="fill-opacity: 0; stroke: #000000"/>
     <use xlink:href="#m6314c533d5" x="413.286056" y="220.564133" style="fill-opacity: 0; stroke: #000000"/>
     <use xlink:href="#m6314c533d5" x="419.260807" y="220.564102" style="fill-opacity: 0; stroke: #000000"/>
     <use xlink:href="#m6314c533d5" x="425.235821" y="220.564193" style="fill-opacity: 0; stroke: #000000"/>
     <use xlink:href="#m6314c533d5" x="431.211562" y="220.564233" style="fill-opacity: 0; stroke: #000000"/>
     <use xlink:href="#m6314c533d5" x="437.187601" y="220.564215" style="fill-opacity: 0; stroke: #000000"/>
     <use xlink:href="#m6314c533d5" x="443.163045" y="220.564238" style="fill-opacity: 0; stroke: #000000"/>
    </g>
   </g>
   <g id="patch_3">
    <path d="M 90.622543 228.596704 
L 90.622543 17.718498 
" style="fill: none; stroke: #000000; stroke-width: 0.8; stroke-linejoin: miter; stroke-linecap: square"/>
   </g>
   <g id="patch_4">
    <path d="M 416.630952 228.596704 
L 416.630952 17.718498 
" style="fill: none; stroke: #000000; stroke-width: 0.8; stroke-linejoin: miter; stroke-linecap: square"/>
   </g>
   <g id="patch_5">
    <path d="M 90.622543 228.596704 
L 416.630952 228.596704 
" style="fill: none; stroke: #000000; stroke-width: 0.8; stroke-linejoin: miter; stroke-linecap: square"/>
   </g>
   <g id="patch_6">
    <path d="M 90.622543 17.718498 
L 416.630952 17.718498 
" style="fill: none; stroke: #000000; stroke-width: 0.8; stroke-linejoin: miter; stroke-linecap: square"/>
   </g>
   <g id="legend_1">
    <g id="patch_7">
     <path d="M 255.609272 132.470755 
L 404.030952 132.470755 
Q 407.630952 132.470755 407.630952 128.870755 
L 407.630952 30.318498 
Q 407.630952 26.718498 404.030952 26.718498 
L 255.609272 26.718498 
Q 252.009272 26.718498 252.009272 30.318498 
L 252.009272 128.870755 
Q 252.009272 132.470755 255.609272 132.470755 
z
" style="fill: #ffffff; opacity: 0.8; stroke: #cccccc; stroke-linejoin: miter"/>
    </g>
    <g id="line2d_38">
     <path d="M 259.209272 40.218498 
L 277.209272 40.218498 
L 295.209272 40.218498 
" style="fill: none; stroke: #ffa353; stroke-width: 12; stroke-linecap: square"/>
    </g>
    <g id="text_9">
     <!-- recursive -->
     <g transform="translate(309.609272 46.518498) scale(0.18 -0.18)">
      <defs>
       <path id="CMR17-76" d="M 2502 2173 
C 2560 2315 2662 2572 3034 2585 
L 3034 2752 
C 2912 2745 2752 2739 2630 2739 
C 2496 2739 2285 2739 2157 2752 
L 2157 2585 
C 2317 2572 2406 2495 2406 2328 
C 2406 2270 2406 2257 2368 2167 
L 1664 379 
L 902 2308 
C 864 2392 864 2405 864 2431 
C 864 2585 1075 2585 1171 2585 
L 1171 2752 
C 1018 2739 736 2739 576 2739 
C 403 2739 205 2739 64 2752 
L 64 2585 
C 307 2585 442 2585 518 2386 
L 1446 44 
C 1485 -52 1491 -64 1549 -64 
C 1606 -64 1613 -52 1651 44 
L 2502 2173 
z
" transform="scale(0.015625)"/>
      </defs>
      <use xlink:href="#CMR17-72" transform="scale(0.996264)"/>
      <use xlink:href="#CMR17-65" transform="translate(35.280768 0) scale(0.996264)"/>
      <use xlink:href="#CMR17-63" transform="translate(75.766428 0) scale(0.996264)"/>
      <use xlink:href="#CMR17-75" transform="translate(116.252089 0) scale(0.996264)"/>
      <use xlink:href="#CMR17-72" transform="translate(167.147459 0) scale(0.996264)"/>
      <use xlink:href="#CMR17-73" transform="translate(202.428226 0) scale(0.996264)"/>
      <use xlink:href="#CMR17-69" transform="translate(238.229564 0) scale(0.996264)"/>
      <use xlink:href="#CMR17-76" transform="translate(263.100622 0) scale(0.996264)"/>
      <use xlink:href="#CMR17-65" transform="translate(308.791084 0) scale(0.996264)"/>
     </g>
    </g>
    <g id="line2d_39">
     <path d="M 259.209272 65.306563 
L 277.209272 65.306563 
L 295.209272 65.306563 
" style="fill: none; stroke: #095400; stroke-width: 3.5; stroke-linecap: square"/>
    </g>
    <g id="text_10">
     <!-- element-wise -->
     <g transform="translate(309.609272 71.606563) scale(0.18 -0.18)">
      <defs>
       <path id="CMR17-6d" d="M 4326 1954 
C 4326 2276 4269 2816 3507 2816 
C 3072 2816 2771 2520 2656 2173 
L 2650 2173 
C 2573 2700 2195 2816 1837 2816 
C 1331 2816 1069 2424 973 2166 
L 966 2166 
L 966 2816 
L 211 2745 
L 211 2578 
C 589 2578 646 2540 646 2231 
L 646 443 
C 646 198 621 166 211 166 
L 211 0 
C 365 12 646 12 813 12 
C 979 12 1267 12 1421 0 
L 1421 166 
C 1011 166 986 192 986 443 
L 986 1678 
C 986 2269 1344 2713 1792 2713 
C 2266 2713 2317 2289 2317 1980 
L 2317 443 
C 2317 198 2291 166 1882 166 
L 1882 0 
C 2035 12 2317 12 2483 12 
C 2650 12 2938 12 3091 0 
L 3091 166 
C 2682 166 2656 192 2656 443 
L 2656 1678 
C 2656 2269 3014 2713 3462 2713 
C 3936 2713 3987 2289 3987 1980 
L 3987 443 
C 3987 198 3962 166 3552 166 
L 3552 0 
C 3706 12 3987 12 4154 12 
C 4320 12 4608 12 4762 0 
L 4762 166 
C 4352 166 4326 192 4326 443 
L 4326 1954 
z
" transform="scale(0.015625)"/>
       <path id="CMR17-2d" d="M 1632 1254 
L 1632 1536 
L 26 1536 
L 26 1254 
L 1632 1254 
z
" transform="scale(0.015625)"/>
      </defs>
      <use xlink:href="#CMR17-65" transform="scale(0.996264)"/>
      <use xlink:href="#CMR17-6c" transform="translate(40.48566 0) scale(0.996264)"/>
      <use xlink:href="#CMR17-65" transform="translate(65.356719 0) scale(0.996264)"/>
      <use xlink:href="#CMR17-6d" transform="translate(105.842379 0) scale(0.996264)"/>
      <use xlink:href="#CMR17-65" transform="translate(182.761969 0) scale(0.996264)"/>
      <use xlink:href="#CMR17-6e" transform="translate(223.24763 0) scale(0.996264)"/>
      <use xlink:href="#CMR17-74" transform="translate(271.540546 0) scale(0.996264)"/>
      <use xlink:href="#CMR17-2d" transform="translate(306.821313 0) scale(0.996264)"/>
      <use xlink:href="#CMR17-77" transform="translate(336.89728 0) scale(0.996264)"/>
      <use xlink:href="#CMR17-69" transform="translate(403.40716 0) scale(0.996264)"/>
      <use xlink:href="#CMR17-73" transform="translate(428.278219 0) scale(0.996264)"/>
      <use xlink:href="#CMR17-65" transform="translate(464.079556 0) scale(0.996264)"/>
     </g>
    </g>
    <g id="line2d_40">
     <path d="M 259.209272 90.394627 
L 277.209272 90.394627 
L 295.209272 90.394627 
" style="fill: none"/>
     <g>
      <use xlink:href="#m208844e324" x="277.209272" y="90.394627" style="fill-opacity: 0; stroke: #1b3b9d; stroke-linejoin: miter"/>
     </g>
    </g>
    <g id="text_11">
     <!-- matrix -->
     <g transform="translate(309.609272 96.694627) scale(0.18 -0.18)">
      <defs>
       <path id="CMR17-78" d="M 1664 1491 
C 1856 1740 2074 2022 2253 2233 
C 2464 2476 2707 2579 2989 2585 
L 2989 2752 
C 2880 2745 2656 2739 2541 2739 
C 2368 2739 2170 2739 2022 2752 
L 2022 2585 
C 2112 2572 2163 2508 2163 2419 
C 2163 2304 2099 2233 2067 2188 
L 1594 1587 
L 1030 2323 
C 973 2393 973 2406 973 2438 
C 973 2515 1037 2579 1146 2585 
L 1146 2752 
C 992 2739 717 2739 557 2739 
C 384 2739 179 2739 38 2752 
L 38 2585 
C 384 2585 461 2560 614 2368 
L 1350 1414 
C 1363 1401 1395 1363 1395 1344 
C 1395 1318 838 633 768 544 
C 480 198 179 172 6 166 
L 6 0 
C 115 6 339 12 454 12 
C 582 12 864 12 979 0 
L 979 166 
C 941 172 838 185 838 332 
C 838 448 890 518 947 595 
L 1478 1248 
L 2035 524 
C 2086 454 2163 358 2163 313 
C 2163 224 2086 172 1984 166 
L 1984 0 
C 2138 12 2413 12 2573 12 
C 2746 12 2950 12 3091 0 
L 3091 166 
C 2771 166 2675 179 2522 377 
L 1664 1491 
z
" transform="scale(0.015625)"/>
      </defs>
      <use xlink:href="#CMR17-6d" transform="scale(0.996264)"/>
      <use xlink:href="#CMR17-61" transform="translate(76.91959 0) scale(0.996264)"/>
      <use xlink:href="#CMR17-74" transform="translate(122.610067 0) scale(0.996264)"/>
      <use xlink:href="#CMR17-72" transform="translate(157.890835 0) scale(0.996264)"/>
      <use xlink:href="#CMR17-69" transform="translate(193.171603 0) scale(0.996264)"/>
      <use xlink:href="#CMR17-78" transform="translate(218.042661 0) scale(0.996264)"/>
     </g>
    </g>
    <g id="line2d_41">
     <path d="M 259.209272 115.482691 
L 277.209272 115.482691 
L 295.209272 115.482691 
" style="fill: none"/>
     <g>
      <use xlink:href="#m6314c533d5" x="277.209272" y="115.482691" style="fill-opacity: 0; stroke: #000000"/>
     </g>
    </g>
    <g id="text_12">
     <!-- simulation -->
     <g transform="translate(309.609272 121.782691) scale(0.18 -0.18)">
      <use xlink:href="#CMR17-73" transform="scale(0.996264)"/>
      <use xlink:href="#CMR17-69" transform="translate(35.801338 0) scale(0.996264)"/>
      <use xlink:href="#CMR17-6d" transform="translate(60.672396 0) scale(0.996264)"/>
      <use xlink:href="#CMR17-75" transform="translate(134.989532 0) scale(0.996264)"/>
      <use xlink:href="#CMR17-6c" transform="translate(185.884902 0) scale(0.996264)"/>
      <use xlink:href="#CMR17-61" transform="translate(210.75596 0) scale(0.996264)"/>
      <use xlink:href="#CMR17-74" transform="translate(256.446437 0) scale(0.996264)"/>
      <use xlink:href="#CMR17-69" transform="translate(291.727205 0) scale(0.996264)"/>
      <use xlink:href="#CMR17-6f" transform="translate(316.598264 0) scale(0.996264)"/>
      <use xlink:href="#CMR17-6e" transform="translate(362.288741 0) scale(0.996264)"/>
     </g>
    </g>
   </g>
  </g>
 </g>
 <defs>
  <clipPath id="p62c52ddd57">
   <rect x="90.622543" y="17.718498" width="326.008409" height="210.878206"/>
  </clipPath>
 </defs>
</svg>
