<?xml version="1.0" encoding="utf-8" standalone="no"?>
<!DOCTYPE svg PUBLIC "-//W3C//DTD SVG 1.1//EN"
  "http://www.w3.org/Graphics/SVG/1.1/DTD/svg11.dtd">
<svg xmlns:xlink="http://www.w3.org/1999/xlink" width="432pt" height="288pt" viewBox="0 0 432 288" xmlns="http://www.w3.org/2000/svg" version="1.1">
 <metadata>
  <rdf:RDF xmlns:dc="http://purl.org/dc/elements/1.1/" xmlns:cc="http://creativecommons.org/ns#" xmlns:rdf="http://www.w3.org/1999/02/22-rdf-syntax-ns#">
   <cc:Work>
    <dc:type rdf:resource="http://purl.org/dc/dcmitype/StillImage"/>
    <dc:date>2024-05-09T12:50:43.516684</dc:date>
    <dc:format>image/svg+xml</dc:format>
    <dc:creator>
     <cc:Agent>
      <dc:title>Matplotlib v3.7.1, https://matplotlib.org/</dc:title>
     </cc:Agent>
    </dc:creator>
   </cc:Work>
  </rdf:RDF>
 </metadata>
 <defs>
  <style type="text/css">*{stroke-linejoin: round; stroke-linecap: butt}</style>
 </defs>
 <g id="figure_1">
  <g id="patch_1">
   <path d="M 0 288 
L 432 288 
L 432 0 
L 0 0 
L 0 288 
z
" style="fill: none"/>
  </g>
  <g id="axes_1">
   <g id="patch_2">
    <path d="M 82.293927 228.596704 
L 416.630952 228.596704 
L 416.630952 17.718498 
L 82.293927 17.718498 
z
" style="fill: #ffffff"/>
   </g>
   <g id="matplotlib.axis_1">
    <g id="xtick_1">
     <g id="line2d_1">
      <defs>
       <path id="m7b53865faa" d="M 0 0 
L 0 3.5 
" style="stroke: #000000; stroke-width: 0.8"/>
      </defs>
      <g>
       <use xlink:href="#m7b53865faa" x="82.293927" y="228.596704" style="stroke: #000000; stroke-width: 0.8"/>
      </g>
     </g>
     <g id="text_1">
      <!-- 0.001 -->
      <g transform="translate(61.530634 249.433701) scale(0.2 -0.2)">
       <defs>
        <path id="CMR17-30" d="M 2688 2038 
C 2688 2430 2682 3099 2413 3613 
C 2176 4063 1798 4224 1466 4224 
C 1158 4224 768 4082 525 3620 
C 269 3137 243 2539 243 2038 
C 243 1671 250 1112 448 623 
C 723 -39 1216 -128 1466 -128 
C 1760 -128 2208 -7 2470 604 
C 2662 1048 2688 1568 2688 2038 
z
M 1466 -26 
C 1056 -26 813 328 723 816 
C 653 1196 653 1749 653 2109 
C 653 2604 653 3015 736 3407 
C 858 3954 1216 4121 1466 4121 
C 1728 4121 2067 3947 2189 3420 
C 2272 3054 2278 2623 2278 2109 
C 2278 1691 2278 1176 2202 797 
C 2067 96 1690 -26 1466 -26 
z
" transform="scale(0.015625)"/>
        <path id="CMR17-2e" d="M 1062 262 
C 1062 422 934 524 800 524 
C 672 524 538 422 538 262 
C 538 102 666 0 800 0 
C 928 0 1062 102 1062 262 
z
" transform="scale(0.015625)"/>
        <path id="CMR17-31" d="M 1702 4083 
C 1702 4217 1696 4224 1606 4224 
C 1357 3927 979 3833 621 3820 
C 602 3820 570 3820 563 3808 
C 557 3795 557 3782 557 3648 
C 755 3648 1088 3686 1344 3839 
L 1344 467 
C 1344 243 1331 166 781 166 
L 589 166 
L 589 0 
C 896 6 1216 12 1523 12 
C 1830 12 2150 6 2458 0 
L 2458 166 
L 2266 166 
C 1715 166 1702 236 1702 467 
L 1702 4083 
z
" transform="scale(0.015625)"/>
       </defs>
       <use xlink:href="#CMR17-30" transform="scale(0.996264)"/>
       <use xlink:href="#CMR17-2e" transform="translate(45.690477 0) scale(0.996264)"/>
       <use xlink:href="#CMR17-30" transform="translate(70.561536 0) scale(0.996264)"/>
       <use xlink:href="#CMR17-30" transform="translate(116.252013 0) scale(0.996264)"/>
       <use xlink:href="#CMR17-31" transform="translate(161.94249 0) scale(0.996264)"/>
      </g>
     </g>
    </g>
    <g id="xtick_2">
     <g id="line2d_2">
      <g>
       <use xlink:href="#m7b53865faa" x="263.066967" y="228.596704" style="stroke: #000000; stroke-width: 0.8"/>
      </g>
     </g>
     <g id="text_2">
      <!-- 0.1 -->
      <g transform="translate(251.441768 249.433701) scale(0.2 -0.2)">
       <use xlink:href="#CMR17-30" transform="scale(0.996264)"/>
       <use xlink:href="#CMR17-2e" transform="translate(45.690477 0) scale(0.996264)"/>
       <use xlink:href="#CMR17-31" transform="translate(70.561536 0) scale(0.996264)"/>
      </g>
     </g>
    </g>
    <g id="xtick_3">
     <g id="line2d_3">
      <g>
       <use xlink:href="#m7b53865faa" x="416.630952" y="228.596704" style="stroke: #000000; stroke-width: 0.8"/>
      </g>
     </g>
     <g id="text_3">
      <!-- 5 -->
      <g transform="translate(412.061905 249.433701) scale(0.2 -0.2)">
       <defs>
        <path id="CMR17-35" d="M 730 3750 
C 794 3724 1056 3641 1325 3641 
C 1920 3641 2246 3961 2432 4140 
C 2432 4191 2432 4224 2394 4224 
C 2387 4224 2374 4224 2323 4198 
C 2099 4102 1837 4032 1517 4032 
C 1325 4032 1037 4055 723 4191 
C 653 4224 640 4224 634 4224 
C 602 4224 595 4217 595 4090 
L 595 2231 
C 595 2113 595 2080 659 2080 
C 691 2080 704 2093 736 2139 
C 941 2435 1222 2560 1542 2560 
C 1766 2560 2246 2415 2246 1293 
C 2246 1087 2246 716 2054 422 
C 1894 159 1645 25 1370 25 
C 947 25 518 319 403 812 
C 429 806 480 793 506 793 
C 589 793 749 838 749 1036 
C 749 1209 627 1280 506 1280 
C 358 1280 262 1190 262 1011 
C 262 454 704 -128 1382 -128 
C 2042 -128 2669 441 2669 1267 
C 2669 2054 2170 2662 1549 2662 
C 1222 2662 947 2540 730 2304 
L 730 3750 
z
" transform="scale(0.015625)"/>
       </defs>
       <use xlink:href="#CMR17-35" transform="scale(0.996264)"/>
      </g>
     </g>
    </g>
    <g id="xtick_4">
     <g id="line2d_4">
      <defs>
       <path id="ma718d9a182" d="M 0 0 
L 0 2 
" style="stroke: #000000; stroke-width: 0.6"/>
      </defs>
      <g>
       <use xlink:href="#ma718d9a182" x="109.502981" y="228.596704" style="stroke: #000000; stroke-width: 0.6"/>
      </g>
     </g>
    </g>
    <g id="xtick_5">
     <g id="line2d_5">
      <g>
       <use xlink:href="#ma718d9a182" x="125.419257" y="228.596704" style="stroke: #000000; stroke-width: 0.6"/>
      </g>
     </g>
    </g>
    <g id="xtick_6">
     <g id="line2d_6">
      <g>
       <use xlink:href="#ma718d9a182" x="136.712034" y="228.596704" style="stroke: #000000; stroke-width: 0.6"/>
      </g>
     </g>
    </g>
    <g id="xtick_7">
     <g id="line2d_7">
      <g>
       <use xlink:href="#ma718d9a182" x="145.471393" y="228.596704" style="stroke: #000000; stroke-width: 0.6"/>
      </g>
     </g>
    </g>
    <g id="xtick_8">
     <g id="line2d_8">
      <g>
       <use xlink:href="#ma718d9a182" x="152.62831" y="228.596704" style="stroke: #000000; stroke-width: 0.6"/>
      </g>
     </g>
    </g>
    <g id="xtick_9">
     <g id="line2d_9">
      <g>
       <use xlink:href="#ma718d9a182" x="158.679398" y="228.596704" style="stroke: #000000; stroke-width: 0.6"/>
      </g>
     </g>
    </g>
    <g id="xtick_10">
     <g id="line2d_10">
      <g>
       <use xlink:href="#ma718d9a182" x="163.921088" y="228.596704" style="stroke: #000000; stroke-width: 0.6"/>
      </g>
     </g>
    </g>
    <g id="xtick_11">
     <g id="line2d_11">
      <g>
       <use xlink:href="#ma718d9a182" x="168.544587" y="228.596704" style="stroke: #000000; stroke-width: 0.6"/>
      </g>
     </g>
    </g>
    <g id="xtick_12">
     <g id="line2d_12">
      <g>
       <use xlink:href="#ma718d9a182" x="199.889501" y="228.596704" style="stroke: #000000; stroke-width: 0.6"/>
      </g>
     </g>
    </g>
    <g id="xtick_13">
     <g id="line2d_13">
      <g>
       <use xlink:href="#ma718d9a182" x="215.805777" y="228.596704" style="stroke: #000000; stroke-width: 0.6"/>
      </g>
     </g>
    </g>
    <g id="xtick_14">
     <g id="line2d_14">
      <g>
       <use xlink:href="#ma718d9a182" x="227.098554" y="228.596704" style="stroke: #000000; stroke-width: 0.6"/>
      </g>
     </g>
    </g>
    <g id="xtick_15">
     <g id="line2d_15">
      <g>
       <use xlink:href="#ma718d9a182" x="235.857913" y="228.596704" style="stroke: #000000; stroke-width: 0.6"/>
      </g>
     </g>
    </g>
    <g id="xtick_16">
     <g id="line2d_16">
      <g>
       <use xlink:href="#ma718d9a182" x="243.01483" y="228.596704" style="stroke: #000000; stroke-width: 0.6"/>
      </g>
     </g>
    </g>
    <g id="xtick_17">
     <g id="line2d_17">
      <g>
       <use xlink:href="#ma718d9a182" x="249.065917" y="228.596704" style="stroke: #000000; stroke-width: 0.6"/>
      </g>
     </g>
    </g>
    <g id="xtick_18">
     <g id="line2d_18">
      <g>
       <use xlink:href="#ma718d9a182" x="254.307608" y="228.596704" style="stroke: #000000; stroke-width: 0.6"/>
      </g>
     </g>
    </g>
    <g id="xtick_19">
     <g id="line2d_19">
      <g>
       <use xlink:href="#ma718d9a182" x="258.931106" y="228.596704" style="stroke: #000000; stroke-width: 0.6"/>
      </g>
     </g>
    </g>
    <g id="xtick_20">
     <g id="line2d_20">
      <g>
       <use xlink:href="#ma718d9a182" x="290.27602" y="228.596704" style="stroke: #000000; stroke-width: 0.6"/>
      </g>
     </g>
    </g>
    <g id="xtick_21">
     <g id="line2d_21">
      <g>
       <use xlink:href="#ma718d9a182" x="306.192296" y="228.596704" style="stroke: #000000; stroke-width: 0.6"/>
      </g>
     </g>
    </g>
    <g id="xtick_22">
     <g id="line2d_22">
      <g>
       <use xlink:href="#ma718d9a182" x="317.485074" y="228.596704" style="stroke: #000000; stroke-width: 0.6"/>
      </g>
     </g>
    </g>
    <g id="xtick_23">
     <g id="line2d_23">
      <g>
       <use xlink:href="#ma718d9a182" x="326.244433" y="228.596704" style="stroke: #000000; stroke-width: 0.6"/>
      </g>
     </g>
    </g>
    <g id="xtick_24">
     <g id="line2d_24">
      <g>
       <use xlink:href="#ma718d9a182" x="333.40135" y="228.596704" style="stroke: #000000; stroke-width: 0.6"/>
      </g>
     </g>
    </g>
    <g id="xtick_25">
     <g id="line2d_25">
      <g>
       <use xlink:href="#ma718d9a182" x="339.452437" y="228.596704" style="stroke: #000000; stroke-width: 0.6"/>
      </g>
     </g>
    </g>
    <g id="xtick_26">
     <g id="line2d_26">
      <g>
       <use xlink:href="#ma718d9a182" x="344.694127" y="228.596704" style="stroke: #000000; stroke-width: 0.6"/>
      </g>
     </g>
    </g>
    <g id="xtick_27">
     <g id="line2d_27">
      <g>
       <use xlink:href="#ma718d9a182" x="349.317626" y="228.596704" style="stroke: #000000; stroke-width: 0.6"/>
      </g>
     </g>
    </g>
    <g id="xtick_28">
     <g id="line2d_28">
      <g>
       <use xlink:href="#ma718d9a182" x="380.66254" y="228.596704" style="stroke: #000000; stroke-width: 0.6"/>
      </g>
     </g>
    </g>
    <g id="xtick_29">
     <g id="line2d_29">
      <g>
       <use xlink:href="#ma718d9a182" x="396.578816" y="228.596704" style="stroke: #000000; stroke-width: 0.6"/>
      </g>
     </g>
    </g>
    <g id="xtick_30">
     <g id="line2d_30">
      <g>
       <use xlink:href="#ma718d9a182" x="407.871593" y="228.596704" style="stroke: #000000; stroke-width: 0.6"/>
      </g>
     </g>
    </g>
    <g id="text_4">
     <!-- Frequency (Hz) -->
     <g transform="translate(187.713833 272.235356) scale(0.2 -0.2)">
      <defs>
       <path id="CMR17-46" d="M 3482 4339 
L 326 4339 
L 326 4172 
C 768 4172 838 4172 838 3883 
L 838 450 
C 838 166 768 166 326 166 
L 326 0 
C 512 12 870 12 1069 12 
C 1331 12 1638 12 1901 0 
L 1901 166 
L 1760 166 
C 1274 166 1261 229 1261 456 
L 1261 2073 
L 1837 2073 
C 2432 2073 2490 1865 2490 1334 
L 2605 1334 
L 2605 2991 
L 2490 2991 
C 2490 2451 2432 2240 1837 2240 
L 1261 2240 
L 1261 3922 
C 1261 4140 1274 4172 1530 4172 
L 2355 4172 
C 3322 4172 3430 3774 3520 2920 
L 3635 2920 
L 3482 4339 
z
" transform="scale(0.015625)"/>
       <path id="CMR17-72" d="M 960 1517 
C 960 2134 1222 2713 1702 2713 
C 1747 2713 1792 2707 1837 2687 
C 1837 2687 1696 2642 1696 2475 
C 1696 2321 1818 2257 1914 2257 
C 1990 2257 2131 2302 2131 2482 
C 2131 2687 1926 2816 1709 2816 
C 1222 2816 1011 2340 947 2115 
L 941 2115 
L 941 2816 
L 198 2745 
L 198 2578 
C 576 2578 634 2540 634 2231 
L 634 443 
C 634 198 608 166 198 166 
L 198 0 
C 352 12 646 12 813 12 
C 998 12 1325 12 1498 0 
L 1498 166 
C 1037 166 960 166 960 455 
L 960 1517 
z
" transform="scale(0.015625)"/>
       <path id="CMR17-65" d="M 2438 1503 
C 2464 1529 2464 1542 2464 1606 
C 2464 2251 2118 2816 1389 2816 
C 710 2816 173 2175 173 1394 
C 173 554 781 -64 1459 -64 
C 2176 -64 2458 619 2458 755 
C 2458 800 2419 800 2406 800 
C 2362 800 2355 787 2330 709 
C 2189 270 1837 51 1504 51 
C 1229 51 954 206 781 490 
C 582 819 582 1200 582 1503 
L 2438 1503 
z
M 589 1600 
C 634 2511 1126 2713 1382 2713 
C 1818 2713 2112 2308 2118 1600 
L 589 1600 
z
" transform="scale(0.015625)"/>
       <path id="CMR17-71" d="M 2630 2816 
L 2528 2816 
L 2336 2177 
C 2189 2519 1920 2816 1491 2816 
C 838 2816 211 2228 211 1376 
C 211 529 800 -64 1440 -64 
C 1933 -64 2208 316 2291 458 
L 2291 -834 
C 2291 -1081 2266 -1114 1856 -1114 
L 1856 -1280 
C 2010 -1268 2291 -1268 2458 -1268 
C 2624 -1268 2912 -1268 3066 -1280 
L 3066 -1114 
C 2656 -1114 2630 -1088 2630 -834 
L 2630 2816 
z
M 2304 871 
C 2304 594 2074 335 2054 316 
C 1856 90 1626 38 1472 38 
C 992 38 621 652 621 1369 
C 621 2125 1043 2700 1536 2700 
C 2048 2700 2304 2112 2304 1776 
L 2304 871 
z
" transform="scale(0.015625)"/>
       <path id="CMR17-75" d="M 1882 2745 
L 1882 2579 
C 2259 2579 2317 2540 2317 2229 
L 2317 1053 
C 2317 510 2029 38 1555 38 
C 1030 38 986 355 986 691 
L 986 2816 
L 211 2745 
L 211 2579 
C 467 2579 640 2579 646 2320 
L 646 1079 
C 646 646 646 368 813 187 
C 896 103 1056 -64 1517 -64 
C 2061 -64 2272 400 2323 536 
L 2330 536 
L 2330 -64 
L 3091 -13 
L 3091 154 
C 2714 154 2656 193 2656 503 
L 2656 2816 
L 1882 2745 
z
" transform="scale(0.015625)"/>
       <path id="CMR17-6e" d="M 2656 1954 
C 2656 2282 2592 2816 1837 2816 
C 1331 2816 1069 2424 973 2166 
L 966 2166 
L 966 2816 
L 211 2745 
L 211 2578 
C 589 2578 646 2540 646 2231 
L 646 443 
C 646 198 621 166 211 166 
L 211 0 
C 365 12 646 12 813 12 
C 979 12 1267 12 1421 0 
L 1421 166 
C 1011 166 986 192 986 443 
L 986 1678 
C 986 2269 1344 2713 1792 2713 
C 2266 2713 2317 2289 2317 1980 
L 2317 443 
C 2317 198 2291 166 1882 166 
L 1882 0 
C 2035 12 2317 12 2483 12 
C 2650 12 2938 12 3091 0 
L 3091 166 
C 2682 166 2656 192 2656 443 
L 2656 1954 
z
" transform="scale(0.015625)"/>
       <path id="CMR17-63" d="M 2234 2240 
C 2112 2240 1933 2240 1933 2015 
C 1933 1836 2080 1785 2163 1785 
C 2208 1785 2394 1804 2394 2028 
C 2394 2476 1958 2816 1466 2816 
C 787 2816 211 2201 211 1379 
C 211 521 813 -64 1466 -64 
C 2259 -64 2458 676 2458 747 
C 2458 773 2451 792 2406 792 
C 2362 792 2355 786 2330 702 
C 2163 180 1798 51 1523 51 
C 1114 51 621 431 621 1385 
C 621 2358 1094 2700 1472 2700 
C 1722 2700 2093 2582 2234 2240 
z
" transform="scale(0.015625)"/>
       <path id="CMR17-79" d="M 2496 2183 
C 2656 2579 2944 2585 3034 2585 
L 3034 2752 
C 2912 2745 2752 2739 2630 2739 
C 2496 2739 2285 2739 2157 2752 
L 2157 2585 
C 2400 2566 2406 2384 2406 2332 
C 2406 2268 2394 2235 2362 2158 
L 1664 409 
L 902 2300 
C 870 2378 870 2423 870 2430 
C 870 2572 1018 2585 1171 2585 
L 1171 2752 
C 1018 2739 742 2739 582 2739 
C 410 2739 205 2739 64 2752 
L 64 2585 
C 410 2585 448 2553 531 2345 
L 1485 -31 
C 1197 -795 1030 -1242 627 -1242 
C 557 -1242 397 -1223 282 -1106 
C 429 -1093 493 -1002 493 -892 
C 493 -782 416 -685 288 -685 
C 147 -685 77 -782 77 -899 
C 77 -1158 339 -1344 627 -1344 
C 998 -1344 1229 -983 1357 -659 
L 2496 2183 
z
" transform="scale(0.015625)"/>
       <path id="CMR17-28" d="M 1958 -1562 
C 1958 -1556 1958 -1543 1939 -1524 
C 1645 -1223 858 -403 858 1596 
C 858 3595 1632 4408 1946 4729 
C 1946 4735 1958 4748 1958 4767 
C 1958 4787 1939 4800 1914 4800 
C 1843 4800 1299 4325 986 3620 
C 666 2909 576 2218 576 1603 
C 576 1141 621 360 1005 -467 
C 1312 -1133 1837 -1600 1914 -1600 
C 1946 -1600 1958 -1588 1958 -1562 
z
" transform="scale(0.015625)"/>
       <path id="CMR17-48" d="M 3590 3898 
C 3590 4185 3661 4185 4102 4185 
L 4102 4352 
C 3917 4339 3578 4339 3379 4339 
C 3181 4339 2842 4339 2656 4352 
L 2656 4185 
C 3098 4185 3168 4185 3168 3898 
L 3168 2342 
L 1261 2342 
L 1261 3898 
C 1261 4185 1331 4185 1773 4185 
L 1773 4352 
C 1587 4339 1248 4339 1050 4339 
C 851 4339 512 4339 326 4352 
L 326 4185 
C 768 4185 838 4185 838 3898 
L 838 452 
C 838 166 768 166 326 166 
L 326 0 
C 512 12 851 12 1050 12 
C 1248 12 1587 12 1773 0 
L 1773 166 
C 1331 166 1261 166 1261 452 
L 1261 2176 
L 3168 2176 
L 3168 452 
C 3168 166 3098 166 2656 166 
L 2656 0 
C 2842 12 3181 12 3379 12 
C 3578 12 3917 12 4102 0 
L 4102 166 
C 3661 166 3590 166 3590 452 
L 3590 3898 
z
" transform="scale(0.015625)"/>
       <path id="CMR17-7a" d="M 2310 2604 
C 2362 2668 2362 2681 2362 2694 
C 2362 2752 2336 2752 2221 2752 
L 275 2752 
L 211 1760 
L 326 1760 
C 371 2380 442 2649 1178 2649 
L 1958 2649 
L 128 96 
C 128 6 134 0 269 0 
L 2291 0 
L 2381 1152 
L 2266 1152 
C 2214 441 2131 115 1350 115 
L 531 115 
L 2310 2604 
z
" transform="scale(0.015625)"/>
       <path id="CMR17-29" d="M 1683 1596 
C 1683 2057 1638 2839 1254 3665 
C 947 4332 422 4800 346 4800 
C 326 4800 301 4793 301 4761 
C 301 4748 307 4742 314 4729 
C 621 4408 1402 3595 1402 1603 
C 1402 -396 627 -1210 314 -1530 
C 307 -1543 301 -1549 301 -1562 
C 301 -1594 326 -1600 346 -1600 
C 416 -1600 960 -1127 1274 -422 
C 1594 289 1683 981 1683 1596 
z
" transform="scale(0.015625)"/>
      </defs>
      <use xlink:href="#CMR17-46" transform="scale(0.996264)"/>
      <use xlink:href="#CMR17-72" transform="translate(52.176591 0) scale(0.996264)"/>
      <use xlink:href="#CMR17-65" transform="translate(87.457359 0) scale(0.996264)"/>
      <use xlink:href="#CMR17-71" transform="translate(127.943019 0) scale(0.996264)"/>
      <use xlink:href="#CMR17-75" transform="translate(176.235935 0) scale(0.996264)"/>
      <use xlink:href="#CMR17-65" transform="translate(227.131305 0) scale(0.996264)"/>
      <use xlink:href="#CMR17-6e" transform="translate(267.616966 0) scale(0.996264)"/>
      <use xlink:href="#CMR17-63" transform="translate(318.512335 0) scale(0.996264)"/>
      <use xlink:href="#CMR17-79" transform="translate(358.997996 0) scale(0.996264)"/>
      <use xlink:href="#CMR17-28" transform="translate(437.366878 0) scale(0.996264)"/>
      <use xlink:href="#CMR17-48" transform="translate(472.647646 0) scale(0.996264)"/>
      <use xlink:href="#CMR17-7a" transform="translate(541.720076 0) scale(0.996264)"/>
      <use xlink:href="#CMR17-29" transform="translate(582.205736 0) scale(0.996264)"/>
     </g>
    </g>
   </g>
   <g id="matplotlib.axis_2">
    <g id="ytick_1">
     <g id="line2d_31">
      <defs>
       <path id="m2b7bd06188" d="M 0 0 
L -3.5 0 
" style="stroke: #000000; stroke-width: 0.8"/>
      </defs>
      <g>
       <use xlink:href="#m2b7bd06188" x="82.293927" y="175.877153" style="stroke: #000000; stroke-width: 0.8"/>
      </g>
     </g>
     <g id="text_5">
      <!-- $\mathdefault{10^{-12}}$ -->
      <g transform="translate(32.51263 182.795651) scale(0.2 -0.2)">
       <defs>
        <path id="CMSY10-0" d="M 4218 1472 
C 4326 1472 4442 1472 4442 1600 
C 4442 1728 4326 1728 4218 1728 
L 755 1728 
C 646 1728 531 1728 531 1600 
C 531 1472 646 1472 755 1472 
L 4218 1472 
z
" transform="scale(0.015625)"/>
        <path id="CMR17-32" d="M 2669 990 
L 2554 990 
C 2490 537 2438 460 2413 422 
C 2381 371 1920 371 1830 371 
L 602 371 
C 832 620 1280 1073 1824 1596 
C 2214 1966 2669 2400 2669 3033 
C 2669 3788 2067 4224 1395 4224 
C 691 4224 262 3603 262 3027 
C 262 2777 448 2745 525 2745 
C 589 2745 781 2783 781 3007 
C 781 3206 614 3264 525 3264 
C 486 3264 448 3257 422 3244 
C 544 3788 915 4057 1306 4057 
C 1862 4057 2227 3616 2227 3033 
C 2227 2477 1901 1998 1536 1583 
L 262 147 
L 262 0 
L 2515 0 
L 2669 990 
z
" transform="scale(0.015625)"/>
       </defs>
       <use xlink:href="#CMR17-31" transform="scale(0.996264)"/>
       <use xlink:href="#CMR17-30" transform="translate(45.690477 0) scale(0.996264)"/>
       <use xlink:href="#CMSY10-0" transform="translate(91.380954 36.153639) scale(0.697382)"/>
       <use xlink:href="#CMR17-31" transform="translate(145.621947 36.153639) scale(0.697382)"/>
       <use xlink:href="#CMR17-32" transform="translate(177.605129 36.153639) scale(0.697382)"/>
      </g>
     </g>
    </g>
    <g id="ytick_2">
     <g id="line2d_32">
      <g>
       <use xlink:href="#m2b7bd06188" x="82.293927" y="96.797825" style="stroke: #000000; stroke-width: 0.8"/>
      </g>
     </g>
     <g id="text_6">
      <!-- $\mathdefault{10^{-9}}$ -->
      <g transform="translate(39.341089 103.716324) scale(0.2 -0.2)">
       <defs>
        <path id="CMR17-39" d="M 2253 1871 
C 2253 448 1670 25 1190 25 
C 1043 25 685 43 538 281 
C 704 256 826 345 826 505 
C 826 678 685 736 595 736 
C 538 736 365 710 365 492 
C 365 68 742 -128 1203 -128 
C 1939 -128 2688 665 2688 2090 
C 2688 3857 1971 4224 1485 4224 
C 851 4224 243 3664 243 2800 
C 243 2000 762 1408 1414 1408 
C 1952 1408 2189 1910 2253 2122 
L 2253 1871 
z
M 1427 1510 
C 1254 1510 1011 1542 813 1929 
C 678 2181 678 2477 678 2793 
C 678 3174 678 3438 858 3722 
C 947 3857 1114 4076 1485 4076 
C 2240 4076 2240 2909 2240 2651 
C 2240 2193 2035 1510 1427 1510 
z
" transform="scale(0.015625)"/>
       </defs>
       <use xlink:href="#CMR17-31" transform="scale(0.996264)"/>
       <use xlink:href="#CMR17-30" transform="translate(45.690477 0) scale(0.996264)"/>
       <use xlink:href="#CMSY10-0" transform="translate(91.380954 36.153639) scale(0.697382)"/>
       <use xlink:href="#CMR17-39" transform="translate(145.621947 36.153639) scale(0.697382)"/>
      </g>
     </g>
    </g>
    <g id="ytick_3">
     <g id="line2d_33">
      <g>
       <use xlink:href="#m2b7bd06188" x="82.293927" y="17.718498" style="stroke: #000000; stroke-width: 0.8"/>
      </g>
     </g>
     <g id="text_7">
      <!-- $\mathdefault{10^{-6}}$ -->
      <g transform="translate(39.341089 24.636997) scale(0.2 -0.2)">
       <defs>
        <path id="CMR17-36" d="M 678 2198 
C 678 3712 1395 4076 1811 4076 
C 1946 4076 2272 4049 2400 3782 
C 2298 3782 2106 3782 2106 3558 
C 2106 3385 2246 3328 2336 3328 
C 2394 3328 2566 3353 2566 3571 
C 2566 3987 2246 4224 1805 4224 
C 1043 4224 243 3411 243 2011 
C 243 257 966 -128 1478 -128 
C 2099 -128 2688 431 2688 1295 
C 2688 2101 2170 2688 1517 2688 
C 1126 2688 838 2430 678 1979 
L 678 2198 
z
M 1478 25 
C 691 25 691 1212 691 1450 
C 691 1914 909 2585 1504 2585 
C 1613 2585 1926 2585 2138 2140 
C 2253 1889 2253 1624 2253 1302 
C 2253 954 2253 696 2118 438 
C 1978 173 1773 25 1478 25 
z
" transform="scale(0.015625)"/>
       </defs>
       <use xlink:href="#CMR17-31" transform="scale(0.996264)"/>
       <use xlink:href="#CMR17-30" transform="translate(45.690477 0) scale(0.996264)"/>
       <use xlink:href="#CMSY10-0" transform="translate(91.380954 36.153639) scale(0.697382)"/>
       <use xlink:href="#CMR17-36" transform="translate(145.621947 36.153639) scale(0.697382)"/>
      </g>
     </g>
    </g>
    <g id="text_8">
     <!-- Power Spectral Density -->
     <g transform="translate(24.636997 216.437881) rotate(-90) scale(0.2 -0.2)">
      <defs>
       <path id="CMR17-50" d="M 1267 2048 
L 2291 2048 
C 3117 2048 3718 2583 3718 3187 
C 3718 3791 3130 4352 2291 4352 
L 333 4352 
L 333 4185 
C 774 4185 845 4185 845 3899 
L 845 453 
C 845 166 774 166 333 166 
L 333 0 
C 518 12 858 12 1056 12 
C 1254 12 1594 12 1779 0 
L 1779 166 
C 1338 166 1267 166 1267 453 
L 1267 2048 
z
M 1254 2182 
L 1254 3937 
C 1254 4153 1267 4185 1523 4185 
L 2170 4185 
C 2995 4185 3232 3715 3232 3187 
C 3232 2608 2950 2182 2170 2182 
L 1254 2182 
z
" transform="scale(0.015625)"/>
       <path id="CMR17-6f" d="M 2758 1356 
C 2758 2176 2163 2816 1466 2816 
C 768 2816 173 2176 173 1356 
C 173 550 768 -64 1466 -64 
C 2163 -64 2758 550 2758 1356 
z
M 1466 51 
C 1165 51 909 230 762 480 
C 602 768 582 1126 582 1408 
C 582 1676 595 2009 762 2297 
C 890 2508 1139 2713 1466 2713 
C 1754 2713 1997 2553 2150 2329 
C 2349 2028 2349 1606 2349 1408 
C 2349 1158 2336 774 2163 467 
C 1984 172 1709 51 1466 51 
z
" transform="scale(0.015625)"/>
       <path id="CMR17-77" d="M 3725 2186 
C 3853 2566 4109 2579 4205 2585 
L 4205 2752 
C 4077 2745 3949 2739 3821 2739 
C 3699 2739 3424 2739 3315 2752 
L 3315 2585 
C 3514 2572 3622 2456 3622 2296 
C 3622 2251 3610 2193 3597 2148 
L 2995 398 
L 2342 2296 
C 2330 2341 2310 2392 2310 2418 
C 2310 2585 2528 2585 2630 2585 
L 2630 2752 
C 2483 2739 2214 2739 2061 2739 
C 1901 2739 1734 2739 1587 2752 
L 1587 2585 
C 1939 2585 1939 2572 2074 2167 
L 1485 443 
L 851 2302 
C 819 2386 819 2399 819 2418 
C 819 2585 1037 2585 1139 2585 
L 1139 2752 
C 986 2739 717 2739 557 2739 
C 416 2739 198 2739 64 2752 
L 64 2585 
C 346 2585 416 2566 486 2353 
L 1274 38 
C 1299 -45 1318 -64 1370 -64 
C 1414 -64 1440 -52 1472 44 
L 2131 1987 
L 2797 44 
C 2829 -52 2854 -64 2899 -64 
C 2950 -64 2970 -45 2995 38 
L 3725 2186 
z
" transform="scale(0.015625)"/>
       <path id="CMR17-53" d="M 2803 4351 
C 2803 4467 2797 4473 2758 4473 
C 2720 4473 2707 4447 2682 4390 
L 2490 3965 
C 2246 4320 1875 4480 1472 4480 
C 819 4480 294 3958 294 3301 
C 294 3101 339 2817 557 2546 
C 794 2250 1018 2198 1530 2063 
C 1722 2011 2042 1927 2106 1901 
C 2470 1747 2662 1360 2662 999 
C 2662 534 2336 38 1779 38 
C 1094 38 454 425 410 1328 
C 403 1431 397 1437 352 1437 
C 301 1437 294 1431 294 1302 
L 294 0 
C 294 -116 301 -122 339 -122 
C 384 -122 397 -90 486 109 
C 493 128 493 141 614 386 
C 934 -39 1472 -128 1779 -128 
C 2477 -128 2970 457 2970 1141 
C 2970 1476 2848 1734 2778 1850 
C 2509 2263 2221 2340 1914 2417 
C 1869 2437 1856 2437 1498 2527 
C 1152 2617 1005 2662 845 2836 
C 666 3036 602 3243 602 3449 
C 602 3868 934 4326 1478 4326 
C 2157 4326 2579 3842 2675 3036 
C 2694 2920 2701 2914 2746 2914 
C 2803 2914 2803 2933 2803 3043 
L 2803 4351 
z
" transform="scale(0.015625)"/>
       <path id="CMR17-70" d="M 1408 -1114 
C 998 -1114 973 -1088 973 -834 
L 973 380 
C 1158 109 1427 -64 1766 -64 
C 2406 -64 3053 503 3053 1382 
C 3053 2196 2496 2816 1837 2816 
C 1453 2816 1139 2603 960 2345 
L 960 2816 
L 198 2745 
L 198 2577 
C 576 2577 634 2539 634 2228 
L 634 -834 
C 634 -1081 608 -1114 198 -1114 
L 198 -1280 
C 352 -1268 634 -1268 800 -1268 
C 966 -1268 1254 -1268 1408 -1280 
L 1408 -1114 
z
M 973 2015 
C 973 2106 973 2241 1222 2481 
C 1254 2506 1472 2700 1792 2700 
C 2259 2700 2643 2112 2643 1376 
C 2643 639 2234 38 1728 38 
C 1498 38 1248 148 1056 451 
C 973 594 973 632 973 736 
L 973 2015 
z
" transform="scale(0.015625)"/>
       <path id="CMR17-74" d="M 966 2585 
L 1862 2585 
L 1862 2752 
L 966 2752 
L 966 3968 
L 851 3968 
C 838 3292 614 2700 70 2687 
L 70 2585 
L 627 2585 
L 627 778 
C 627 655 627 -64 1370 -64 
C 1747 -64 1965 308 1965 784 
L 1965 1151 
L 1850 1151 
L 1850 790 
C 1850 347 1677 51 1408 51 
C 1222 51 966 179 966 765 
L 966 2585 
z
" transform="scale(0.015625)"/>
       <path id="CMR17-61" d="M 2304 1656 
C 2304 2048 2304 2275 2035 2534 
C 1798 2751 1523 2816 1306 2816 
C 800 2816 435 2408 435 1977 
C 435 1740 627 1728 666 1728 
C 749 1728 896 1779 896 1958 
C 896 2118 774 2188 666 2188 
C 640 2188 608 2182 589 2176 
C 723 2594 1069 2713 1293 2713 
C 1613 2713 1965 2421 1965 1875 
L 1965 1632 
C 1587 1619 1133 1568 774 1373 
C 371 1147 256 822 256 576 
C 256 77 832 -64 1171 -64 
C 1523 -64 1850 135 1990 505 
C 2003 219 2182 -39 2464 -39 
C 2598 -39 2938 51 2938 563 
L 2938 926 
L 2822 926 
L 2822 557 
C 2822 161 2650 109 2566 109 
C 2304 109 2304 446 2304 732 
L 2304 1656 
z
M 1965 887 
C 1965 323 1568 38 1216 38 
C 896 38 646 278 646 576 
C 646 771 730 1114 1101 1322 
C 1408 1497 1760 1523 1965 1536 
L 1965 887 
z
" transform="scale(0.015625)"/>
       <path id="CMR17-6c" d="M 979 4416 
L 218 4345 
L 218 4179 
C 595 4179 653 4141 653 3835 
L 653 439 
C 653 198 627 166 218 166 
L 218 0 
C 371 12 653 12 813 12 
C 979 12 1261 12 1414 0 
L 1414 166 
C 1005 166 979 191 979 439 
L 979 4416 
z
" transform="scale(0.015625)"/>
       <path id="CMR17-44" d="M 333 4352 
L 333 4185 
C 774 4185 845 4185 845 3898 
L 845 453 
C 845 166 774 166 333 166 
L 333 0 
L 2368 0 
C 3398 0 4224 943 4224 2140 
C 4224 3344 3411 4352 2368 4352 
L 333 4352 
z
M 1523 166 
C 1267 166 1254 198 1254 414 
L 1254 3936 
C 1254 4153 1267 4185 1523 4185 
L 2240 4185 
C 2771 4185 3750 3873 3750 2140 
C 3750 1242 3488 879 3366 707 
C 3213 510 2848 166 2240 166 
L 1523 166 
z
" transform="scale(0.015625)"/>
       <path id="CMR17-73" d="M 1978 2688 
C 1978 2803 1971 2809 1933 2809 
C 1907 2809 1901 2803 1824 2707 
C 1805 2681 1747 2617 1728 2592 
C 1523 2809 1235 2816 1126 2816 
C 416 2816 160 2444 160 2073 
C 160 1497 813 1363 998 1324 
C 1402 1241 1542 1216 1677 1100 
C 1760 1024 1901 883 1901 652 
C 1901 384 1747 38 1158 38 
C 602 38 403 460 288 1024 
C 269 1113 269 1120 218 1120 
C 166 1120 160 1113 160 985 
L 160 64 
C 160 -52 166 -58 205 -58 
C 237 -58 243 -52 275 0 
C 314 57 410 211 448 275 
C 576 102 800 -64 1158 -64 
C 1792 -64 2131 281 2131 780 
C 2131 1107 1958 1280 1875 1356 
C 1683 1555 1459 1600 1190 1651 
C 838 1728 390 1817 390 2208 
C 390 2374 480 2726 1126 2726 
C 1811 2726 1850 2086 1862 1881 
C 1869 1849 1901 1843 1920 1843 
C 1978 1843 1978 1862 1978 1971 
L 1978 2688 
z
" transform="scale(0.015625)"/>
       <path id="CMR17-69" d="M 992 3961 
C 992 4102 877 4224 730 4224 
C 589 4224 467 4108 467 3961 
C 467 3820 582 3699 730 3699 
C 870 3699 992 3814 992 3961 
z
M 243 2745 
L 243 2579 
C 602 2579 653 2540 653 2231 
L 653 443 
C 653 198 627 166 218 166 
L 218 0 
C 371 12 646 12 806 12 
C 960 12 1222 12 1370 0 
L 1370 166 
C 992 166 979 205 979 436 
L 979 2816 
L 243 2745 
z
" transform="scale(0.015625)"/>
      </defs>
      <use xlink:href="#CMR17-50" transform="scale(0.996264)"/>
      <use xlink:href="#CMR17-6f" transform="translate(59.983847 0) scale(0.996264)"/>
      <use xlink:href="#CMR17-77" transform="translate(103.07187 0) scale(0.996264)"/>
      <use xlink:href="#CMR17-65" transform="translate(166.979296 0) scale(0.996264)"/>
      <use xlink:href="#CMR17-72" transform="translate(207.464957 0) scale(0.996264)"/>
      <use xlink:href="#CMR17-53" transform="translate(272.821691 0) scale(0.996264)"/>
      <use xlink:href="#CMR17-70" transform="translate(323.717061 0) scale(0.996264)"/>
      <use xlink:href="#CMR17-65" transform="translate(377.214869 0) scale(0.996264)"/>
      <use xlink:href="#CMR17-63" transform="translate(417.70053 0) scale(0.996264)"/>
      <use xlink:href="#CMR17-74" transform="translate(458.18619 0) scale(0.996264)"/>
      <use xlink:href="#CMR17-72" transform="translate(493.466958 0) scale(0.996264)"/>
      <use xlink:href="#CMR17-61" transform="translate(528.747726 0) scale(0.996264)"/>
      <use xlink:href="#CMR17-6c" transform="translate(574.438203 0) scale(0.996264)"/>
      <use xlink:href="#CMR17-44" transform="translate(629.385228 0) scale(0.996264)"/>
      <use xlink:href="#CMR17-65" transform="translate(699.778784 0) scale(0.996264)"/>
      <use xlink:href="#CMR17-6e" transform="translate(740.264444 0) scale(0.996264)"/>
      <use xlink:href="#CMR17-73" transform="translate(791.159814 0) scale(0.996264)"/>
      <use xlink:href="#CMR17-69" transform="translate(826.961152 0) scale(0.996264)"/>
      <use xlink:href="#CMR17-74" transform="translate(851.83221 0) scale(0.996264)"/>
      <use xlink:href="#CMR17-79" transform="translate(884.510524 0) scale(0.996264)"/>
     </g>
    </g>
   </g>
   <g id="line2d_34">
    <path d="M 82.293929 34.599357 
L 96.770247 34.912132 
L 106.903671 35.33933 
L 114.865645 35.884711 
L 121.741898 36.576175 
L 127.532427 37.371319 
L 132.961046 38.339438 
L 138.027755 39.4764 
L 142.73256 40.765704 
L 147.075457 42.17926 
L 151.418352 43.825936 
L 155.76125 45.719898 
L 160.104145 47.868347 
L 164.447041 50.271616 
L 169.151844 53.171608 
L 173.856647 56.260828 
L 176.390005 58.18848 
L 180.009084 60.992397 
L 182.180532 62.339026 
L 184.713887 63.893602 
L 186.16152 65.134547 
L 187.609152 66.752855 
L 191.59014 71.605682 
L 192.675864 72.501998 
L 193.761585 73.064792 
L 194.847313 73.278232 
L 195.933035 73.188167 
L 198.104484 72.764533 
L 198.8283 72.871214 
L 199.552114 73.267714 
L 200.27593 74.013216 
L 200.999746 75.10811 
L 202.085472 77.271094 
L 206.428367 86.863701 
L 207.875998 89.223612 
L 208.961723 90.594805 
L 210.047447 91.602935 
L 211.133171 92.221609 
L 211.856986 92.398964 
L 212.580803 92.370738 
L 213.304619 92.118471 
L 214.028434 91.621195 
L 214.75225 90.856976 
L 215.476066 89.806393 
L 216.56179 87.678634 
L 218.00942 84.038624 
L 219.095148 81.502941 
L 219.457053 80.95256 
L 219.818962 80.65415 
L 220.18087 80.657013 
L 220.542776 80.984885 
L 220.904686 81.629548 
L 221.628502 83.699886 
L 223.076136 89.336097 
L 224.885676 96.161459 
L 226.333307 100.649877 
L 227.780936 104.340138 
L 229.22857 107.404948 
L 230.676201 109.994878 
L 232.485743 112.735276 
L 234.295282 115.066451 
L 236.46673 117.466752 
L 238.638177 119.537492 
L 241.171532 121.619561 
L 243.704889 123.379201 
L 245.876336 124.620285 
L 247.685876 125.431384 
L 249.495417 125.982319 
L 250.943049 126.17536 
L 252.028773 126.12997 
L 253.114496 125.874681 
L 254.200219 125.351298 
L 255.285946 124.480808 
L 256.009762 123.655635 
L 256.733575 122.586747 
L 257.457394 121.220821 
L 258.18121 119.489095 
L 258.905024 117.300578 
L 259.62884 114.530923 
L 260.352656 111.003808 
L 261.076474 106.461861 
L 261.800288 100.543734 
L 263.24792 85.599315 
L 263.609827 84.601746 
L 263.971738 86.618934 
L 266.143184 108.981042 
L 267.228909 116.061829 
L 268.314632 121.331966 
L 269.400355 125.429942 
L 270.48608 128.726522 
L 271.571804 131.451949 
L 273.019438 134.452016 
L 274.467068 136.936568 
L 276.276609 139.54132 
L 278.086149 141.759896 
L 280.257595 144.07491 
L 282.790953 146.452212 
L 286.048124 149.176391 
L 290.029111 152.189351 
L 295.095824 155.725358 
L 301.972077 160.224585 
L 311.381682 166.091092 
L 325.496093 174.599976 
L 349.020115 188.487502 
L 404.030127 220.637302 
L 433 237.537647 
L 433 237.537647 
" clip-path="url(#p4ffcf278e1)" style="fill: none; stroke: #ffa353; stroke-width: 12; stroke-linecap: square"/>
   </g>
   <g id="line2d_35">
    <path d="M 82.293929 34.599357 
L 96.770247 34.912132 
L 106.903671 35.33933 
L 114.865645 35.884711 
L 121.741898 36.576175 
L 127.532427 37.371319 
L 132.961046 38.339438 
L 138.027755 39.4764 
L 142.73256 40.765704 
L 147.075457 42.17926 
L 151.418352 43.825936 
L 155.76125 45.719898 
L 160.104145 47.868347 
L 164.447041 50.271616 
L 169.151844 53.171608 
L 173.856647 56.260828 
L 176.390005 58.18848 
L 180.009084 60.992397 
L 182.180532 62.339026 
L 184.713887 63.893602 
L 186.16152 65.134547 
L 187.609152 66.752855 
L 191.59014 71.605682 
L 192.675864 72.501998 
L 193.761585 73.064792 
L 194.847313 73.278232 
L 195.933035 73.188167 
L 198.104484 72.764533 
L 198.8283 72.871214 
L 199.552114 73.267714 
L 200.27593 74.013216 
L 200.999746 75.10811 
L 202.085472 77.271094 
L 206.428367 86.863701 
L 207.875998 89.223612 
L 208.961723 90.594805 
L 210.047447 91.602935 
L 211.133171 92.221609 
L 211.856986 92.398964 
L 212.580803 92.370738 
L 213.304619 92.118471 
L 214.028434 91.621195 
L 214.75225 90.856976 
L 215.476066 89.806393 
L 216.56179 87.678634 
L 218.00942 84.038624 
L 219.095148 81.502941 
L 219.457053 80.95256 
L 219.818962 80.65415 
L 220.18087 80.657013 
L 220.542776 80.984885 
L 220.904686 81.629548 
L 221.628502 83.699886 
L 223.076136 89.336097 
L 224.885676 96.161459 
L 226.333307 100.649877 
L 227.780936 104.340138 
L 229.22857 107.404948 
L 230.676201 109.994878 
L 232.485743 112.735276 
L 234.295282 115.066451 
L 236.46673 117.466752 
L 238.638177 119.537492 
L 241.171532 121.619561 
L 243.704889 123.379201 
L 245.876336 124.620285 
L 247.685876 125.431384 
L 249.495417 125.982319 
L 250.943049 126.17536 
L 252.028773 126.12997 
L 253.114496 125.874681 
L 254.200219 125.351298 
L 255.285946 124.480808 
L 256.009762 123.655635 
L 256.733575 122.586747 
L 257.457394 121.220821 
L 258.18121 119.489095 
L 258.905024 117.300578 
L 259.62884 114.530923 
L 260.352656 111.003808 
L 261.076474 106.461861 
L 261.800288 100.543734 
L 263.24792 85.599315 
L 263.609827 84.601746 
L 263.971738 86.618934 
L 266.143184 108.981042 
L 267.228909 116.061829 
L 268.314632 121.331966 
L 269.400355 125.429942 
L 270.48608 128.726522 
L 271.571804 131.451949 
L 273.019438 134.452016 
L 274.467068 136.936568 
L 276.276609 139.54132 
L 278.086149 141.759896 
L 280.257595 144.07491 
L 282.790953 146.452212 
L 286.048124 149.176391 
L 290.029111 152.189351 
L 295.095824 155.725358 
L 301.972077 160.224585 
L 311.381682 166.091092 
L 325.496093 174.599976 
L 349.020115 188.487502 
L 404.030127 220.637302 
L 433 237.537647 
L 433 237.537647 
" clip-path="url(#p4ffcf278e1)" style="fill: none; stroke: #095400; stroke-width: 3.5; stroke-linecap: square"/>
   </g>
   <g id="line2d_36">
    <path d="M 82.293929 34.599357 
L 88.421828 34.702055 
L 94.549727 34.84642 
L 100.677626 35.04938 
L 106.805525 35.333952 
L 112.933427 35.730501 
L 119.061327 36.277687 
L 125.189226 37.022757 
L 131.317125 38.020872 
L 137.445025 39.332981 
L 143.572924 41.021835 
L 149.700823 43.145884 
L 155.828723 45.751341 
L 161.956623 48.860212 
L 168.08452 52.496588 
L 174.212424 56.516511 
L 180.34032 61.216882 
L 186.468221 65.447373 
L 192.596123 72.447022 
L 198.724022 72.839978 
L 204.85192 83.669322 
L 210.979821 92.159161 
L 217.107719 86.380013 
L 223.235617 89.979457 
L 229.363517 107.664431 
L 235.491419 116.434781 
L 241.619319 121.953755 
L 247.747215 125.454722 
L 253.875115 125.540359 
L 260.003016 112.816094 
L 266.130915 108.886971 
L 272.258817 132.952355 
L 278.386717 142.099941 
L 284.514616 147.930816 
L 290.642516 152.632004 
L 296.770414 156.845796 
L 302.898314 160.813628 
L 309.026212 164.643304 
L 315.154113 168.389319 
L 321.282013 172.081931 
L 327.409913 175.739141 
L 333.537813 179.372249 
L 339.665712 182.988601 
L 345.793613 186.593153 
L 351.921512 190.189309 
L 358.04941 193.779436 
L 364.17731 197.365223 
L 370.305209 200.947867 
L 376.43311 204.528229 
L 382.561009 208.106929 
L 388.688909 211.68442 
L 394.81681 215.261017 
L 400.944708 218.836976 
L 407.072609 222.412467 
L 413.200509 225.98762 
L 419.328409 229.562505 
L 425.456307 233.13721 
L 431.584206 236.711783 
L 433 237.537634 
" clip-path="url(#p4ffcf278e1)" style="fill: none"/>
    <defs>
     <path id="m233300288f" d="M -4 4 
L 4 4 
L 4 -4 
L -4 -4 
z
" style="stroke: #1b3b9d; stroke-linejoin: miter"/>
    </defs>
    <g clip-path="url(#p4ffcf278e1)">
     <use xlink:href="#m233300288f" x="82.293929" y="34.599357" style="fill-opacity: 0; stroke: #1b3b9d; stroke-linejoin: miter"/>
     <use xlink:href="#m233300288f" x="88.421828" y="34.702055" style="fill-opacity: 0; stroke: #1b3b9d; stroke-linejoin: miter"/>
     <use xlink:href="#m233300288f" x="94.549727" y="34.84642" style="fill-opacity: 0; stroke: #1b3b9d; stroke-linejoin: miter"/>
     <use xlink:href="#m233300288f" x="100.677626" y="35.04938" style="fill-opacity: 0; stroke: #1b3b9d; stroke-linejoin: miter"/>
     <use xlink:href="#m233300288f" x="106.805525" y="35.333952" style="fill-opacity: 0; stroke: #1b3b9d; stroke-linejoin: miter"/>
     <use xlink:href="#m233300288f" x="112.933427" y="35.730501" style="fill-opacity: 0; stroke: #1b3b9d; stroke-linejoin: miter"/>
     <use xlink:href="#m233300288f" x="119.061327" y="36.277687" style="fill-opacity: 0; stroke: #1b3b9d; stroke-linejoin: miter"/>
     <use xlink:href="#m233300288f" x="125.189226" y="37.022757" style="fill-opacity: 0; stroke: #1b3b9d; stroke-linejoin: miter"/>
     <use xlink:href="#m233300288f" x="131.317125" y="38.020872" style="fill-opacity: 0; stroke: #1b3b9d; stroke-linejoin: miter"/>
     <use xlink:href="#m233300288f" x="137.445025" y="39.332981" style="fill-opacity: 0; stroke: #1b3b9d; stroke-linejoin: miter"/>
     <use xlink:href="#m233300288f" x="143.572924" y="41.021835" style="fill-opacity: 0; stroke: #1b3b9d; stroke-linejoin: miter"/>
     <use xlink:href="#m233300288f" x="149.700823" y="43.145884" style="fill-opacity: 0; stroke: #1b3b9d; stroke-linejoin: miter"/>
     <use xlink:href="#m233300288f" x="155.828723" y="45.751341" style="fill-opacity: 0; stroke: #1b3b9d; stroke-linejoin: miter"/>
     <use xlink:href="#m233300288f" x="161.956623" y="48.860212" style="fill-opacity: 0; stroke: #1b3b9d; stroke-linejoin: miter"/>
     <use xlink:href="#m233300288f" x="168.08452" y="52.496588" style="fill-opacity: 0; stroke: #1b3b9d; stroke-linejoin: miter"/>
     <use xlink:href="#m233300288f" x="174.212424" y="56.516511" style="fill-opacity: 0; stroke: #1b3b9d; stroke-linejoin: miter"/>
     <use xlink:href="#m233300288f" x="180.34032" y="61.216882" style="fill-opacity: 0; stroke: #1b3b9d; stroke-linejoin: miter"/>
     <use xlink:href="#m233300288f" x="186.468221" y="65.447373" style="fill-opacity: 0; stroke: #1b3b9d; stroke-linejoin: miter"/>
     <use xlink:href="#m233300288f" x="192.596123" y="72.447022" style="fill-opacity: 0; stroke: #1b3b9d; stroke-linejoin: miter"/>
     <use xlink:href="#m233300288f" x="198.724022" y="72.839978" style="fill-opacity: 0; stroke: #1b3b9d; stroke-linejoin: miter"/>
     <use xlink:href="#m233300288f" x="204.85192" y="83.669322" style="fill-opacity: 0; stroke: #1b3b9d; stroke-linejoin: miter"/>
     <use xlink:href="#m233300288f" x="210.979821" y="92.159161" style="fill-opacity: 0; stroke: #1b3b9d; stroke-linejoin: miter"/>
     <use xlink:href="#m233300288f" x="217.107719" y="86.380013" style="fill-opacity: 0; stroke: #1b3b9d; stroke-linejoin: miter"/>
     <use xlink:href="#m233300288f" x="223.235617" y="89.979457" style="fill-opacity: 0; stroke: #1b3b9d; stroke-linejoin: miter"/>
     <use xlink:href="#m233300288f" x="229.363517" y="107.664431" style="fill-opacity: 0; stroke: #1b3b9d; stroke-linejoin: miter"/>
     <use xlink:href="#m233300288f" x="235.491419" y="116.434781" style="fill-opacity: 0; stroke: #1b3b9d; stroke-linejoin: miter"/>
     <use xlink:href="#m233300288f" x="241.619319" y="121.953755" style="fill-opacity: 0; stroke: #1b3b9d; stroke-linejoin: miter"/>
     <use xlink:href="#m233300288f" x="247.747215" y="125.454722" style="fill-opacity: 0; stroke: #1b3b9d; stroke-linejoin: miter"/>
     <use xlink:href="#m233300288f" x="253.875115" y="125.540359" style="fill-opacity: 0; stroke: #1b3b9d; stroke-linejoin: miter"/>
     <use xlink:href="#m233300288f" x="260.003016" y="112.816094" style="fill-opacity: 0; stroke: #1b3b9d; stroke-linejoin: miter"/>
     <use xlink:href="#m233300288f" x="266.130915" y="108.886971" style="fill-opacity: 0; stroke: #1b3b9d; stroke-linejoin: miter"/>
     <use xlink:href="#m233300288f" x="272.258817" y="132.952355" style="fill-opacity: 0; stroke: #1b3b9d; stroke-linejoin: miter"/>
     <use xlink:href="#m233300288f" x="278.386717" y="142.099941" style="fill-opacity: 0; stroke: #1b3b9d; stroke-linejoin: miter"/>
     <use xlink:href="#m233300288f" x="284.514616" y="147.930816" style="fill-opacity: 0; stroke: #1b3b9d; stroke-linejoin: miter"/>
     <use xlink:href="#m233300288f" x="290.642516" y="152.632004" style="fill-opacity: 0; stroke: #1b3b9d; stroke-linejoin: miter"/>
     <use xlink:href="#m233300288f" x="296.770414" y="156.845796" style="fill-opacity: 0; stroke: #1b3b9d; stroke-linejoin: miter"/>
     <use xlink:href="#m233300288f" x="302.898314" y="160.813628" style="fill-opacity: 0; stroke: #1b3b9d; stroke-linejoin: miter"/>
     <use xlink:href="#m233300288f" x="309.026212" y="164.643304" style="fill-opacity: 0; stroke: #1b3b9d; stroke-linejoin: miter"/>
     <use xlink:href="#m233300288f" x="315.154113" y="168.389319" style="fill-opacity: 0; stroke: #1b3b9d; stroke-linejoin: miter"/>
     <use xlink:href="#m233300288f" x="321.282013" y="172.081931" style="fill-opacity: 0; stroke: #1b3b9d; stroke-linejoin: miter"/>
     <use xlink:href="#m233300288f" x="327.409913" y="175.739141" style="fill-opacity: 0; stroke: #1b3b9d; stroke-linejoin: miter"/>
     <use xlink:href="#m233300288f" x="333.537813" y="179.372249" style="fill-opacity: 0; stroke: #1b3b9d; stroke-linejoin: miter"/>
     <use xlink:href="#m233300288f" x="339.665712" y="182.988601" style="fill-opacity: 0; stroke: #1b3b9d; stroke-linejoin: miter"/>
     <use xlink:href="#m233300288f" x="345.793613" y="186.593153" style="fill-opacity: 0; stroke: #1b3b9d; stroke-linejoin: miter"/>
     <use xlink:href="#m233300288f" x="351.921512" y="190.189309" style="fill-opacity: 0; stroke: #1b3b9d; stroke-linejoin: miter"/>
     <use xlink:href="#m233300288f" x="358.04941" y="193.779436" style="fill-opacity: 0; stroke: #1b3b9d; stroke-linejoin: miter"/>
     <use xlink:href="#m233300288f" x="364.17731" y="197.365223" style="fill-opacity: 0; stroke: #1b3b9d; stroke-linejoin: miter"/>
     <use xlink:href="#m233300288f" x="370.305209" y="200.947867" style="fill-opacity: 0; stroke: #1b3b9d; stroke-linejoin: miter"/>
     <use xlink:href="#m233300288f" x="376.43311" y="204.528229" style="fill-opacity: 0; stroke: #1b3b9d; stroke-linejoin: miter"/>
     <use xlink:href="#m233300288f" x="382.561009" y="208.106929" style="fill-opacity: 0; stroke: #1b3b9d; stroke-linejoin: miter"/>
     <use xlink:href="#m233300288f" x="388.688909" y="211.68442" style="fill-opacity: 0; stroke: #1b3b9d; stroke-linejoin: miter"/>
     <use xlink:href="#m233300288f" x="394.81681" y="215.261017" style="fill-opacity: 0; stroke: #1b3b9d; stroke-linejoin: miter"/>
     <use xlink:href="#m233300288f" x="400.944708" y="218.836976" style="fill-opacity: 0; stroke: #1b3b9d; stroke-linejoin: miter"/>
     <use xlink:href="#m233300288f" x="407.072609" y="222.412467" style="fill-opacity: 0; stroke: #1b3b9d; stroke-linejoin: miter"/>
     <use xlink:href="#m233300288f" x="413.200509" y="225.98762" style="fill-opacity: 0; stroke: #1b3b9d; stroke-linejoin: miter"/>
     <use xlink:href="#m233300288f" x="419.328409" y="229.562505" style="fill-opacity: 0; stroke: #1b3b9d; stroke-linejoin: miter"/>
     <use xlink:href="#m233300288f" x="425.456307" y="233.13721" style="fill-opacity: 0; stroke: #1b3b9d; stroke-linejoin: miter"/>
     <use xlink:href="#m233300288f" x="431.584206" y="236.711783" style="fill-opacity: 0; stroke: #1b3b9d; stroke-linejoin: miter"/>
     <use xlink:href="#m233300288f" x="437.712105" y="240.286266" style="fill-opacity: 0; stroke: #1b3b9d; stroke-linejoin: miter"/>
     <use xlink:href="#m233300288f" x="443.840006" y="243.860667" style="fill-opacity: 0; stroke: #1b3b9d; stroke-linejoin: miter"/>
    </g>
   </g>
   <g id="line2d_37">
    <path d="M 89.4512 32.718051 
L 105.367476 37.085821 
L 116.660253 38.270202 
L 125.419612 40.348408 
L 132.576529 42.585089 
L 138.627617 39.645754 
L 143.869307 40.49478 
L 148.492805 43.228309 
L 156.370006 48.336677 
L 162.927609 49.901615 
L 168.544942 47.638336 
L 173.458142 53.622158 
L 179.837719 59.194663 
L 186.994636 62.12337 
L 193.045724 75.833982 
L 198.287414 69.251089 
L 205.033287 83.293506 
L 210.788114 92.633145 
L 217.345716 85.463199 
L 222.963049 89.851242 
L 229.570945 106.494321 
L 235.700936 115.311814 
L 241.819528 118.92869 
L 247.812761 126.053046 
L 253.913443 124.609065 
L 259.964531 112.482586 
L 266.088379 103.711241 
L 272.325948 132.975769 
L 278.350449 143.540028 
L 284.538073 149.688572 
L 290.589161 154.328891 
L 296.740259 157.838167 
L 302.919559 164.457659 
L 308.99502 162.695543 
L 315.13998 165.771077 
L 321.262439 171.348745 
L 327.389852 175.076481 
L 333.519292 180.481888 
L 339.665311 183.444805 
L 345.788044 183.378579 
L 351.924933 190.940193 
L 358.056399 195.642222 
L 364.173264 196.455773 
L 370.301095 200.760122 
L 376.435334 201.58409 
L 382.555684 212.748294 
L 388.693246 212.826098 
L 394.812828 217.562366 
L 400.94361 221.354473 
L 407.070892 225.542397 
L 413.200883 230.318449 
L 419.328272 232.837432 
L 425.455931 235.041632 
L 431.584335 246.176828 
L 433 247.051549 
" clip-path="url(#p4ffcf278e1)" style="fill: none"/>
    <defs>
     <path id="ma1eac53442" d="M 0 6 
C 1.591219 6 3.117479 5.367802 4.242641 4.242641 
C 5.367802 3.117479 6 1.591219 6 0 
C 6 -1.591219 5.367802 -3.117479 4.242641 -4.242641 
C 3.117479 -5.367802 1.591219 -6 0 -6 
C -1.591219 -6 -3.117479 -5.367802 -4.242641 -4.242641 
C -5.367802 -3.117479 -6 -1.591219 -6 0 
C -6 1.591219 -5.367802 3.117479 -4.242641 4.242641 
C -3.117479 5.367802 -1.591219 6 0 6 
z
" style="stroke: #000000"/>
    </defs>
    <g clip-path="url(#p4ffcf278e1)">
     <use xlink:href="#ma1eac53442" x="89.4512" y="32.718051" style="fill-opacity: 0; stroke: #000000"/>
     <use xlink:href="#ma1eac53442" x="105.367476" y="37.085821" style="fill-opacity: 0; stroke: #000000"/>
     <use xlink:href="#ma1eac53442" x="116.660253" y="38.270202" style="fill-opacity: 0; stroke: #000000"/>
     <use xlink:href="#ma1eac53442" x="125.419612" y="40.348408" style="fill-opacity: 0; stroke: #000000"/>
     <use xlink:href="#ma1eac53442" x="132.576529" y="42.585089" style="fill-opacity: 0; stroke: #000000"/>
     <use xlink:href="#ma1eac53442" x="138.627617" y="39.645754" style="fill-opacity: 0; stroke: #000000"/>
     <use xlink:href="#ma1eac53442" x="143.869307" y="40.49478" style="fill-opacity: 0; stroke: #000000"/>
     <use xlink:href="#ma1eac53442" x="148.492805" y="43.228309" style="fill-opacity: 0; stroke: #000000"/>
     <use xlink:href="#ma1eac53442" x="156.370006" y="48.336677" style="fill-opacity: 0; stroke: #000000"/>
     <use xlink:href="#ma1eac53442" x="162.927609" y="49.901615" style="fill-opacity: 0; stroke: #000000"/>
     <use xlink:href="#ma1eac53442" x="168.544942" y="47.638336" style="fill-opacity: 0; stroke: #000000"/>
     <use xlink:href="#ma1eac53442" x="173.458142" y="53.622158" style="fill-opacity: 0; stroke: #000000"/>
     <use xlink:href="#ma1eac53442" x="179.837719" y="59.194663" style="fill-opacity: 0; stroke: #000000"/>
     <use xlink:href="#ma1eac53442" x="186.994636" y="62.12337" style="fill-opacity: 0; stroke: #000000"/>
     <use xlink:href="#ma1eac53442" x="193.045724" y="75.833982" style="fill-opacity: 0; stroke: #000000"/>
     <use xlink:href="#ma1eac53442" x="198.287414" y="69.251089" style="fill-opacity: 0; stroke: #000000"/>
     <use xlink:href="#ma1eac53442" x="205.033287" y="83.293506" style="fill-opacity: 0; stroke: #000000"/>
     <use xlink:href="#ma1eac53442" x="210.788114" y="92.633145" style="fill-opacity: 0; stroke: #000000"/>
     <use xlink:href="#ma1eac53442" x="217.345716" y="85.463199" style="fill-opacity: 0; stroke: #000000"/>
     <use xlink:href="#ma1eac53442" x="222.963049" y="89.851242" style="fill-opacity: 0; stroke: #000000"/>
     <use xlink:href="#ma1eac53442" x="229.570945" y="106.494321" style="fill-opacity: 0; stroke: #000000"/>
     <use xlink:href="#ma1eac53442" x="235.700936" y="115.311814" style="fill-opacity: 0; stroke: #000000"/>
     <use xlink:href="#ma1eac53442" x="241.819528" y="118.92869" style="fill-opacity: 0; stroke: #000000"/>
     <use xlink:href="#ma1eac53442" x="247.812761" y="126.053046" style="fill-opacity: 0; stroke: #000000"/>
     <use xlink:href="#ma1eac53442" x="253.913443" y="124.609065" style="fill-opacity: 0; stroke: #000000"/>
     <use xlink:href="#ma1eac53442" x="259.964531" y="112.482586" style="fill-opacity: 0; stroke: #000000"/>
     <use xlink:href="#ma1eac53442" x="266.088379" y="103.711241" style="fill-opacity: 0; stroke: #000000"/>
     <use xlink:href="#ma1eac53442" x="272.325948" y="132.975769" style="fill-opacity: 0; stroke: #000000"/>
     <use xlink:href="#ma1eac53442" x="278.350449" y="143.540028" style="fill-opacity: 0; stroke: #000000"/>
     <use xlink:href="#ma1eac53442" x="284.538073" y="149.688572" style="fill-opacity: 0; stroke: #000000"/>
     <use xlink:href="#ma1eac53442" x="290.589161" y="154.328891" style="fill-opacity: 0; stroke: #000000"/>
     <use xlink:href="#ma1eac53442" x="296.740259" y="157.838167" style="fill-opacity: 0; stroke: #000000"/>
     <use xlink:href="#ma1eac53442" x="302.919559" y="164.457659" style="fill-opacity: 0; stroke: #000000"/>
     <use xlink:href="#ma1eac53442" x="308.99502" y="162.695543" style="fill-opacity: 0; stroke: #000000"/>
     <use xlink:href="#ma1eac53442" x="315.13998" y="165.771077" style="fill-opacity: 0; stroke: #000000"/>
     <use xlink:href="#ma1eac53442" x="321.262439" y="171.348745" style="fill-opacity: 0; stroke: #000000"/>
     <use xlink:href="#ma1eac53442" x="327.389852" y="175.076481" style="fill-opacity: 0; stroke: #000000"/>
     <use xlink:href="#ma1eac53442" x="333.519292" y="180.481888" style="fill-opacity: 0; stroke: #000000"/>
     <use xlink:href="#ma1eac53442" x="339.665311" y="183.444805" style="fill-opacity: 0; stroke: #000000"/>
     <use xlink:href="#ma1eac53442" x="345.788044" y="183.378579" style="fill-opacity: 0; stroke: #000000"/>
     <use xlink:href="#ma1eac53442" x="351.924933" y="190.940193" style="fill-opacity: 0; stroke: #000000"/>
     <use xlink:href="#ma1eac53442" x="358.056399" y="195.642222" style="fill-opacity: 0; stroke: #000000"/>
     <use xlink:href="#ma1eac53442" x="364.173264" y="196.455773" style="fill-opacity: 0; stroke: #000000"/>
     <use xlink:href="#ma1eac53442" x="370.301095" y="200.760122" style="fill-opacity: 0; stroke: #000000"/>
     <use xlink:href="#ma1eac53442" x="376.435334" y="201.58409" style="fill-opacity: 0; stroke: #000000"/>
     <use xlink:href="#ma1eac53442" x="382.555684" y="212.748294" style="fill-opacity: 0; stroke: #000000"/>
     <use xlink:href="#ma1eac53442" x="388.693246" y="212.826098" style="fill-opacity: 0; stroke: #000000"/>
     <use xlink:href="#ma1eac53442" x="394.812828" y="217.562366" style="fill-opacity: 0; stroke: #000000"/>
     <use xlink:href="#ma1eac53442" x="400.94361" y="221.354473" style="fill-opacity: 0; stroke: #000000"/>
     <use xlink:href="#ma1eac53442" x="407.070892" y="225.542397" style="fill-opacity: 0; stroke: #000000"/>
     <use xlink:href="#ma1eac53442" x="413.200883" y="230.318449" style="fill-opacity: 0; stroke: #000000"/>
     <use xlink:href="#ma1eac53442" x="419.328272" y="232.837432" style="fill-opacity: 0; stroke: #000000"/>
     <use xlink:href="#ma1eac53442" x="425.455931" y="235.041632" style="fill-opacity: 0; stroke: #000000"/>
     <use xlink:href="#ma1eac53442" x="431.584335" y="246.176828" style="fill-opacity: 0; stroke: #000000"/>
     <use xlink:href="#ma1eac53442" x="437.713046" y="249.963681" style="fill-opacity: 0; stroke: #000000"/>
     <use xlink:href="#ma1eac53442" x="443.841146" y="256.346972" style="fill-opacity: 0; stroke: #000000"/>
    </g>
   </g>
   <g id="patch_3">
    <path d="M 82.293927 228.596704 
L 82.293927 17.718498 
" style="fill: none; stroke: #000000; stroke-width: 0.8; stroke-linejoin: miter; stroke-linecap: square"/>
   </g>
   <g id="patch_4">
    <path d="M 416.630952 228.596704 
L 416.630952 17.718498 
" style="fill: none; stroke: #000000; stroke-width: 0.8; stroke-linejoin: miter; stroke-linecap: square"/>
   </g>
   <g id="patch_5">
    <path d="M 82.293927 228.596704 
L 416.630952 228.596704 
" style="fill: none; stroke: #000000; stroke-width: 0.8; stroke-linejoin: miter; stroke-linecap: square"/>
   </g>
   <g id="patch_6">
    <path d="M 82.293927 17.718498 
L 416.630952 17.718498 
" style="fill: none; stroke: #000000; stroke-width: 0.8; stroke-linejoin: miter; stroke-linecap: square"/>
   </g>
   <g id="legend_1">
    <g id="patch_7">
     <path d="M 94.893927 219.596704 
L 243.315608 219.596704 
Q 246.915608 219.596704 246.915608 215.996704 
L 246.915608 117.444447 
Q 246.915608 113.844447 243.315608 113.844447 
L 94.893927 113.844447 
Q 91.293927 113.844447 91.293927 117.444447 
L 91.293927 215.996704 
Q 91.293927 219.596704 94.893927 219.596704 
z
" style="fill: #ffffff; opacity: 0.8; stroke: #cccccc; stroke-linejoin: miter"/>
    </g>
    <g id="line2d_38">
     <path d="M 98.493927 127.344447 
L 116.493927 127.344447 
L 134.493927 127.344447 
" style="fill: none; stroke: #ffa353; stroke-width: 12; stroke-linecap: square"/>
    </g>
    <g id="text_9">
     <!-- recursive -->
     <g transform="translate(148.893927 133.644447) scale(0.18 -0.18)">
      <defs>
       <path id="CMR17-76" d="M 2502 2173 
C 2560 2315 2662 2572 3034 2585 
L 3034 2752 
C 2912 2745 2752 2739 2630 2739 
C 2496 2739 2285 2739 2157 2752 
L 2157 2585 
C 2317 2572 2406 2495 2406 2328 
C 2406 2270 2406 2257 2368 2167 
L 1664 379 
L 902 2308 
C 864 2392 864 2405 864 2431 
C 864 2585 1075 2585 1171 2585 
L 1171 2752 
C 1018 2739 736 2739 576 2739 
C 403 2739 205 2739 64 2752 
L 64 2585 
C 307 2585 442 2585 518 2386 
L 1446 44 
C 1485 -52 1491 -64 1549 -64 
C 1606 -64 1613 -52 1651 44 
L 2502 2173 
z
" transform="scale(0.015625)"/>
      </defs>
      <use xlink:href="#CMR17-72" transform="scale(0.996264)"/>
      <use xlink:href="#CMR17-65" transform="translate(35.280768 0) scale(0.996264)"/>
      <use xlink:href="#CMR17-63" transform="translate(75.766428 0) scale(0.996264)"/>
      <use xlink:href="#CMR17-75" transform="translate(116.252089 0) scale(0.996264)"/>
      <use xlink:href="#CMR17-72" transform="translate(167.147459 0) scale(0.996264)"/>
      <use xlink:href="#CMR17-73" transform="translate(202.428226 0) scale(0.996264)"/>
      <use xlink:href="#CMR17-69" transform="translate(238.229564 0) scale(0.996264)"/>
      <use xlink:href="#CMR17-76" transform="translate(263.100622 0) scale(0.996264)"/>
      <use xlink:href="#CMR17-65" transform="translate(308.791084 0) scale(0.996264)"/>
     </g>
    </g>
    <g id="line2d_39">
     <path d="M 98.493927 152.432511 
L 116.493927 152.432511 
L 134.493927 152.432511 
" style="fill: none; stroke: #095400; stroke-width: 3.5; stroke-linecap: square"/>
    </g>
    <g id="text_10">
     <!-- element-wise -->
     <g transform="translate(148.893927 158.732511) scale(0.18 -0.18)">
      <defs>
       <path id="CMR17-6d" d="M 4326 1954 
C 4326 2276 4269 2816 3507 2816 
C 3072 2816 2771 2520 2656 2173 
L 2650 2173 
C 2573 2700 2195 2816 1837 2816 
C 1331 2816 1069 2424 973 2166 
L 966 2166 
L 966 2816 
L 211 2745 
L 211 2578 
C 589 2578 646 2540 646 2231 
L 646 443 
C 646 198 621 166 211 166 
L 211 0 
C 365 12 646 12 813 12 
C 979 12 1267 12 1421 0 
L 1421 166 
C 1011 166 986 192 986 443 
L 986 1678 
C 986 2269 1344 2713 1792 2713 
C 2266 2713 2317 2289 2317 1980 
L 2317 443 
C 2317 198 2291 166 1882 166 
L 1882 0 
C 2035 12 2317 12 2483 12 
C 2650 12 2938 12 3091 0 
L 3091 166 
C 2682 166 2656 192 2656 443 
L 2656 1678 
C 2656 2269 3014 2713 3462 2713 
C 3936 2713 3987 2289 3987 1980 
L 3987 443 
C 3987 198 3962 166 3552 166 
L 3552 0 
C 3706 12 3987 12 4154 12 
C 4320 12 4608 12 4762 0 
L 4762 166 
C 4352 166 4326 192 4326 443 
L 4326 1954 
z
" transform="scale(0.015625)"/>
       <path id="CMR17-2d" d="M 1632 1254 
L 1632 1536 
L 26 1536 
L 26 1254 
L 1632 1254 
z
" transform="scale(0.015625)"/>
      </defs>
      <use xlink:href="#CMR17-65" transform="scale(0.996264)"/>
      <use xlink:href="#CMR17-6c" transform="translate(40.48566 0) scale(0.996264)"/>
      <use xlink:href="#CMR17-65" transform="translate(65.356719 0) scale(0.996264)"/>
      <use xlink:href="#CMR17-6d" transform="translate(105.842379 0) scale(0.996264)"/>
      <use xlink:href="#CMR17-65" transform="translate(182.761969 0) scale(0.996264)"/>
      <use xlink:href="#CMR17-6e" transform="translate(223.24763 0) scale(0.996264)"/>
      <use xlink:href="#CMR17-74" transform="translate(271.540546 0) scale(0.996264)"/>
      <use xlink:href="#CMR17-2d" transform="translate(306.821313 0) scale(0.996264)"/>
      <use xlink:href="#CMR17-77" transform="translate(336.89728 0) scale(0.996264)"/>
      <use xlink:href="#CMR17-69" transform="translate(403.40716 0) scale(0.996264)"/>
      <use xlink:href="#CMR17-73" transform="translate(428.278219 0) scale(0.996264)"/>
      <use xlink:href="#CMR17-65" transform="translate(464.079556 0) scale(0.996264)"/>
     </g>
    </g>
    <g id="line2d_40">
     <path d="M 98.493927 177.520576 
L 116.493927 177.520576 
L 134.493927 177.520576 
" style="fill: none"/>
     <g>
      <use xlink:href="#m233300288f" x="116.493927" y="177.520576" style="fill-opacity: 0; stroke: #1b3b9d; stroke-linejoin: miter"/>
     </g>
    </g>
    <g id="text_11">
     <!-- matrix -->
     <g transform="translate(148.893927 183.820576) scale(0.18 -0.18)">
      <defs>
       <path id="CMR17-78" d="M 1664 1491 
C 1856 1740 2074 2022 2253 2233 
C 2464 2476 2707 2579 2989 2585 
L 2989 2752 
C 2880 2745 2656 2739 2541 2739 
C 2368 2739 2170 2739 2022 2752 
L 2022 2585 
C 2112 2572 2163 2508 2163 2419 
C 2163 2304 2099 2233 2067 2188 
L 1594 1587 
L 1030 2323 
C 973 2393 973 2406 973 2438 
C 973 2515 1037 2579 1146 2585 
L 1146 2752 
C 992 2739 717 2739 557 2739 
C 384 2739 179 2739 38 2752 
L 38 2585 
C 384 2585 461 2560 614 2368 
L 1350 1414 
C 1363 1401 1395 1363 1395 1344 
C 1395 1318 838 633 768 544 
C 480 198 179 172 6 166 
L 6 0 
C 115 6 339 12 454 12 
C 582 12 864 12 979 0 
L 979 166 
C 941 172 838 185 838 332 
C 838 448 890 518 947 595 
L 1478 1248 
L 2035 524 
C 2086 454 2163 358 2163 313 
C 2163 224 2086 172 1984 166 
L 1984 0 
C 2138 12 2413 12 2573 12 
C 2746 12 2950 12 3091 0 
L 3091 166 
C 2771 166 2675 179 2522 377 
L 1664 1491 
z
" transform="scale(0.015625)"/>
      </defs>
      <use xlink:href="#CMR17-6d" transform="scale(0.996264)"/>
      <use xlink:href="#CMR17-61" transform="translate(76.91959 0) scale(0.996264)"/>
      <use xlink:href="#CMR17-74" transform="translate(122.610067 0) scale(0.996264)"/>
      <use xlink:href="#CMR17-72" transform="translate(157.890835 0) scale(0.996264)"/>
      <use xlink:href="#CMR17-69" transform="translate(193.171603 0) scale(0.996264)"/>
      <use xlink:href="#CMR17-78" transform="translate(218.042661 0) scale(0.996264)"/>
     </g>
    </g>
    <g id="line2d_41">
     <path d="M 98.493927 202.60864 
L 116.493927 202.60864 
L 134.493927 202.60864 
" style="fill: none"/>
     <g>
      <use xlink:href="#ma1eac53442" x="116.493927" y="202.60864" style="fill-opacity: 0; stroke: #000000"/>
     </g>
    </g>
    <g id="text_12">
     <!-- simulation -->
     <g transform="translate(148.893927 208.90864) scale(0.18 -0.18)">
      <use xlink:href="#CMR17-73" transform="scale(0.996264)"/>
      <use xlink:href="#CMR17-69" transform="translate(35.801338 0) scale(0.996264)"/>
      <use xlink:href="#CMR17-6d" transform="translate(60.672396 0) scale(0.996264)"/>
      <use xlink:href="#CMR17-75" transform="translate(134.989532 0) scale(0.996264)"/>
      <use xlink:href="#CMR17-6c" transform="translate(185.884902 0) scale(0.996264)"/>
      <use xlink:href="#CMR17-61" transform="translate(210.75596 0) scale(0.996264)"/>
      <use xlink:href="#CMR17-74" transform="translate(256.446437 0) scale(0.996264)"/>
      <use xlink:href="#CMR17-69" transform="translate(291.727205 0) scale(0.996264)"/>
      <use xlink:href="#CMR17-6f" transform="translate(316.598264 0) scale(0.996264)"/>
      <use xlink:href="#CMR17-6e" transform="translate(362.288741 0) scale(0.996264)"/>
     </g>
    </g>
   </g>
  </g>
 </g>
 <defs>
  <clipPath id="p4ffcf278e1">
   <rect x="82.293927" y="17.718498" width="334.337025" height="210.878206"/>
  </clipPath>
 </defs>
</svg>
