<?xml version="1.0" encoding="utf-8" standalone="no"?>
<!DOCTYPE svg PUBLIC "-//W3C//DTD SVG 1.1//EN"
  "http://www.w3.org/Graphics/SVG/1.1/DTD/svg11.dtd">
<svg xmlns:xlink="http://www.w3.org/1999/xlink" width="432pt" height="288pt" viewBox="0 0 432 288" xmlns="http://www.w3.org/2000/svg" version="1.1">
 <metadata>
  <rdf:RDF xmlns:dc="http://purl.org/dc/elements/1.1/" xmlns:cc="http://creativecommons.org/ns#" xmlns:rdf="http://www.w3.org/1999/02/22-rdf-syntax-ns#">
   <cc:Work>
    <dc:type rdf:resource="http://purl.org/dc/dcmitype/StillImage"/>
    <dc:date>2024-05-09T14:03:04.926331</dc:date>
    <dc:format>image/svg+xml</dc:format>
    <dc:creator>
     <cc:Agent>
      <dc:title>Matplotlib v3.7.1, https://matplotlib.org/</dc:title>
     </cc:Agent>
    </dc:creator>
   </cc:Work>
  </rdf:RDF>
 </metadata>
 <defs>
  <style type="text/css">*{stroke-linejoin: round; stroke-linecap: butt}</style>
 </defs>
 <g id="figure_1">
  <g id="patch_1">
   <path d="M 0 288 
L 432 288 
L 432 0 
L 0 0 
L 0 288 
z
" style="fill: none"/>
  </g>
  <g id="axes_1">
   <g id="patch_2">
    <path d="M 63.208257 228.596704 
L 402.923809 228.596704 
L 402.923809 17.718498 
L 63.208257 17.718498 
z
" style="fill: #ffffff"/>
   </g>
   <g id="matplotlib.axis_1">
    <g id="xtick_1">
     <g id="line2d_1">
      <defs>
       <path id="m1dec6206a7" d="M 0 0 
L 0 3.5 
" style="stroke: #000000; stroke-width: 0.8"/>
      </defs>
      <g>
       <use xlink:href="#m1dec6206a7" x="63.208257" y="228.596704" style="stroke: #000000; stroke-width: 0.8"/>
      </g>
     </g>
     <g id="text_1">
      <!-- 10 -->
      <g transform="translate(54.070161 249.433701) scale(0.2 -0.2)">
       <defs>
        <path id="CMR17-31" d="M 1702 4083 
C 1702 4217 1696 4224 1606 4224 
C 1357 3927 979 3833 621 3820 
C 602 3820 570 3820 563 3808 
C 557 3795 557 3782 557 3648 
C 755 3648 1088 3686 1344 3839 
L 1344 467 
C 1344 243 1331 166 781 166 
L 589 166 
L 589 0 
C 896 6 1216 12 1523 12 
C 1830 12 2150 6 2458 0 
L 2458 166 
L 2266 166 
C 1715 166 1702 236 1702 467 
L 1702 4083 
z
" transform="scale(0.015625)"/>
        <path id="CMR17-30" d="M 2688 2038 
C 2688 2430 2682 3099 2413 3613 
C 2176 4063 1798 4224 1466 4224 
C 1158 4224 768 4082 525 3620 
C 269 3137 243 2539 243 2038 
C 243 1671 250 1112 448 623 
C 723 -39 1216 -128 1466 -128 
C 1760 -128 2208 -7 2470 604 
C 2662 1048 2688 1568 2688 2038 
z
M 1466 -26 
C 1056 -26 813 328 723 816 
C 653 1196 653 1749 653 2109 
C 653 2604 653 3015 736 3407 
C 858 3954 1216 4121 1466 4121 
C 1728 4121 2067 3947 2189 3420 
C 2272 3054 2278 2623 2278 2109 
C 2278 1691 2278 1176 2202 797 
C 2067 96 1690 -26 1466 -26 
z
" transform="scale(0.015625)"/>
       </defs>
       <use xlink:href="#CMR17-31" transform="scale(0.996264)"/>
       <use xlink:href="#CMR17-30" transform="translate(45.690477 0) scale(0.996264)"/>
      </g>
     </g>
    </g>
    <g id="xtick_2">
     <g id="line2d_2">
      <g>
       <use xlink:href="#m1dec6206a7" x="233.066033" y="228.596704" style="stroke: #000000; stroke-width: 0.8"/>
      </g>
     </g>
     <g id="text_2">
      <!-- 100 -->
      <g transform="translate(219.35889 249.433701) scale(0.2 -0.2)">
       <use xlink:href="#CMR17-31" transform="scale(0.996264)"/>
       <use xlink:href="#CMR17-30" transform="translate(45.690477 0) scale(0.996264)"/>
       <use xlink:href="#CMR17-30" transform="translate(91.380954 0) scale(0.996264)"/>
      </g>
     </g>
    </g>
    <g id="xtick_3">
     <g id="line2d_3">
      <g>
       <use xlink:href="#m1dec6206a7" x="402.923809" y="228.596704" style="stroke: #000000; stroke-width: 0.8"/>
      </g>
     </g>
     <g id="text_3">
      <!-- 1000 -->
      <g transform="translate(384.647618 249.433701) scale(0.2 -0.2)">
       <use xlink:href="#CMR17-31" transform="scale(0.996264)"/>
       <use xlink:href="#CMR17-30" transform="translate(45.690477 0) scale(0.996264)"/>
       <use xlink:href="#CMR17-30" transform="translate(91.380954 0) scale(0.996264)"/>
       <use xlink:href="#CMR17-30" transform="translate(137.071431 0) scale(0.996264)"/>
      </g>
     </g>
    </g>
    <g id="xtick_4">
     <g id="line2d_4">
      <defs>
       <path id="m34fe827cd2" d="M 0 0 
L 0 2 
" style="stroke: #000000; stroke-width: 0.6"/>
      </defs>
      <g>
       <use xlink:href="#m34fe827cd2" x="114.340542" y="228.596704" style="stroke: #000000; stroke-width: 0.6"/>
      </g>
     </g>
    </g>
    <g id="xtick_5">
     <g id="line2d_5">
      <g>
       <use xlink:href="#m34fe827cd2" x="144.251012" y="228.596704" style="stroke: #000000; stroke-width: 0.6"/>
      </g>
     </g>
    </g>
    <g id="xtick_6">
     <g id="line2d_6">
      <g>
       <use xlink:href="#m34fe827cd2" x="165.472828" y="228.596704" style="stroke: #000000; stroke-width: 0.6"/>
      </g>
     </g>
    </g>
    <g id="xtick_7">
     <g id="line2d_7">
      <g>
       <use xlink:href="#m34fe827cd2" x="181.933747" y="228.596704" style="stroke: #000000; stroke-width: 0.6"/>
      </g>
     </g>
    </g>
    <g id="xtick_8">
     <g id="line2d_8">
      <g>
       <use xlink:href="#m34fe827cd2" x="195.383298" y="228.596704" style="stroke: #000000; stroke-width: 0.6"/>
      </g>
     </g>
    </g>
    <g id="xtick_9">
     <g id="line2d_9">
      <g>
       <use xlink:href="#m34fe827cd2" x="206.75473" y="228.596704" style="stroke: #000000; stroke-width: 0.6"/>
      </g>
     </g>
    </g>
    <g id="xtick_10">
     <g id="line2d_10">
      <g>
       <use xlink:href="#m34fe827cd2" x="216.605114" y="228.596704" style="stroke: #000000; stroke-width: 0.6"/>
      </g>
     </g>
    </g>
    <g id="xtick_11">
     <g id="line2d_11">
      <g>
       <use xlink:href="#m34fe827cd2" x="225.293767" y="228.596704" style="stroke: #000000; stroke-width: 0.6"/>
      </g>
     </g>
    </g>
    <g id="xtick_12">
     <g id="line2d_12">
      <g>
       <use xlink:href="#m34fe827cd2" x="284.198319" y="228.596704" style="stroke: #000000; stroke-width: 0.6"/>
      </g>
     </g>
    </g>
    <g id="xtick_13">
     <g id="line2d_13">
      <g>
       <use xlink:href="#m34fe827cd2" x="314.108788" y="228.596704" style="stroke: #000000; stroke-width: 0.6"/>
      </g>
     </g>
    </g>
    <g id="xtick_14">
     <g id="line2d_14">
      <g>
       <use xlink:href="#m34fe827cd2" x="335.330604" y="228.596704" style="stroke: #000000; stroke-width: 0.6"/>
      </g>
     </g>
    </g>
    <g id="xtick_15">
     <g id="line2d_15">
      <g>
       <use xlink:href="#m34fe827cd2" x="351.791524" y="228.596704" style="stroke: #000000; stroke-width: 0.6"/>
      </g>
     </g>
    </g>
    <g id="xtick_16">
     <g id="line2d_16">
      <g>
       <use xlink:href="#m34fe827cd2" x="365.241074" y="228.596704" style="stroke: #000000; stroke-width: 0.6"/>
      </g>
     </g>
    </g>
    <g id="xtick_17">
     <g id="line2d_17">
      <g>
       <use xlink:href="#m34fe827cd2" x="376.612507" y="228.596704" style="stroke: #000000; stroke-width: 0.6"/>
      </g>
     </g>
    </g>
    <g id="xtick_18">
     <g id="line2d_18">
      <g>
       <use xlink:href="#m34fe827cd2" x="386.46289" y="228.596704" style="stroke: #000000; stroke-width: 0.6"/>
      </g>
     </g>
    </g>
    <g id="xtick_19">
     <g id="line2d_19">
      <g>
       <use xlink:href="#m34fe827cd2" x="395.151544" y="228.596704" style="stroke: #000000; stroke-width: 0.6"/>
      </g>
     </g>
    </g>
    <g id="text_4">
     <!-- Frequency (Hz) -->
     <g transform="translate(171.317427 272.235356) scale(0.2 -0.2)">
      <defs>
       <path id="CMR17-46" d="M 3482 4339 
L 326 4339 
L 326 4172 
C 768 4172 838 4172 838 3883 
L 838 450 
C 838 166 768 166 326 166 
L 326 0 
C 512 12 870 12 1069 12 
C 1331 12 1638 12 1901 0 
L 1901 166 
L 1760 166 
C 1274 166 1261 229 1261 456 
L 1261 2073 
L 1837 2073 
C 2432 2073 2490 1865 2490 1334 
L 2605 1334 
L 2605 2991 
L 2490 2991 
C 2490 2451 2432 2240 1837 2240 
L 1261 2240 
L 1261 3922 
C 1261 4140 1274 4172 1530 4172 
L 2355 4172 
C 3322 4172 3430 3774 3520 2920 
L 3635 2920 
L 3482 4339 
z
" transform="scale(0.015625)"/>
       <path id="CMR17-72" d="M 960 1517 
C 960 2134 1222 2713 1702 2713 
C 1747 2713 1792 2707 1837 2687 
C 1837 2687 1696 2642 1696 2475 
C 1696 2321 1818 2257 1914 2257 
C 1990 2257 2131 2302 2131 2482 
C 2131 2687 1926 2816 1709 2816 
C 1222 2816 1011 2340 947 2115 
L 941 2115 
L 941 2816 
L 198 2745 
L 198 2578 
C 576 2578 634 2540 634 2231 
L 634 443 
C 634 198 608 166 198 166 
L 198 0 
C 352 12 646 12 813 12 
C 998 12 1325 12 1498 0 
L 1498 166 
C 1037 166 960 166 960 455 
L 960 1517 
z
" transform="scale(0.015625)"/>
       <path id="CMR17-65" d="M 2438 1503 
C 2464 1529 2464 1542 2464 1606 
C 2464 2251 2118 2816 1389 2816 
C 710 2816 173 2175 173 1394 
C 173 554 781 -64 1459 -64 
C 2176 -64 2458 619 2458 755 
C 2458 800 2419 800 2406 800 
C 2362 800 2355 787 2330 709 
C 2189 270 1837 51 1504 51 
C 1229 51 954 206 781 490 
C 582 819 582 1200 582 1503 
L 2438 1503 
z
M 589 1600 
C 634 2511 1126 2713 1382 2713 
C 1818 2713 2112 2308 2118 1600 
L 589 1600 
z
" transform="scale(0.015625)"/>
       <path id="CMR17-71" d="M 2630 2816 
L 2528 2816 
L 2336 2177 
C 2189 2519 1920 2816 1491 2816 
C 838 2816 211 2228 211 1376 
C 211 529 800 -64 1440 -64 
C 1933 -64 2208 316 2291 458 
L 2291 -834 
C 2291 -1081 2266 -1114 1856 -1114 
L 1856 -1280 
C 2010 -1268 2291 -1268 2458 -1268 
C 2624 -1268 2912 -1268 3066 -1280 
L 3066 -1114 
C 2656 -1114 2630 -1088 2630 -834 
L 2630 2816 
z
M 2304 871 
C 2304 594 2074 335 2054 316 
C 1856 90 1626 38 1472 38 
C 992 38 621 652 621 1369 
C 621 2125 1043 2700 1536 2700 
C 2048 2700 2304 2112 2304 1776 
L 2304 871 
z
" transform="scale(0.015625)"/>
       <path id="CMR17-75" d="M 1882 2745 
L 1882 2579 
C 2259 2579 2317 2540 2317 2229 
L 2317 1053 
C 2317 510 2029 38 1555 38 
C 1030 38 986 355 986 691 
L 986 2816 
L 211 2745 
L 211 2579 
C 467 2579 640 2579 646 2320 
L 646 1079 
C 646 646 646 368 813 187 
C 896 103 1056 -64 1517 -64 
C 2061 -64 2272 400 2323 536 
L 2330 536 
L 2330 -64 
L 3091 -13 
L 3091 154 
C 2714 154 2656 193 2656 503 
L 2656 2816 
L 1882 2745 
z
" transform="scale(0.015625)"/>
       <path id="CMR17-6e" d="M 2656 1954 
C 2656 2282 2592 2816 1837 2816 
C 1331 2816 1069 2424 973 2166 
L 966 2166 
L 966 2816 
L 211 2745 
L 211 2578 
C 589 2578 646 2540 646 2231 
L 646 443 
C 646 198 621 166 211 166 
L 211 0 
C 365 12 646 12 813 12 
C 979 12 1267 12 1421 0 
L 1421 166 
C 1011 166 986 192 986 443 
L 986 1678 
C 986 2269 1344 2713 1792 2713 
C 2266 2713 2317 2289 2317 1980 
L 2317 443 
C 2317 198 2291 166 1882 166 
L 1882 0 
C 2035 12 2317 12 2483 12 
C 2650 12 2938 12 3091 0 
L 3091 166 
C 2682 166 2656 192 2656 443 
L 2656 1954 
z
" transform="scale(0.015625)"/>
       <path id="CMR17-63" d="M 2234 2240 
C 2112 2240 1933 2240 1933 2015 
C 1933 1836 2080 1785 2163 1785 
C 2208 1785 2394 1804 2394 2028 
C 2394 2476 1958 2816 1466 2816 
C 787 2816 211 2201 211 1379 
C 211 521 813 -64 1466 -64 
C 2259 -64 2458 676 2458 747 
C 2458 773 2451 792 2406 792 
C 2362 792 2355 786 2330 702 
C 2163 180 1798 51 1523 51 
C 1114 51 621 431 621 1385 
C 621 2358 1094 2700 1472 2700 
C 1722 2700 2093 2582 2234 2240 
z
" transform="scale(0.015625)"/>
       <path id="CMR17-79" d="M 2496 2183 
C 2656 2579 2944 2585 3034 2585 
L 3034 2752 
C 2912 2745 2752 2739 2630 2739 
C 2496 2739 2285 2739 2157 2752 
L 2157 2585 
C 2400 2566 2406 2384 2406 2332 
C 2406 2268 2394 2235 2362 2158 
L 1664 409 
L 902 2300 
C 870 2378 870 2423 870 2430 
C 870 2572 1018 2585 1171 2585 
L 1171 2752 
C 1018 2739 742 2739 582 2739 
C 410 2739 205 2739 64 2752 
L 64 2585 
C 410 2585 448 2553 531 2345 
L 1485 -31 
C 1197 -795 1030 -1242 627 -1242 
C 557 -1242 397 -1223 282 -1106 
C 429 -1093 493 -1002 493 -892 
C 493 -782 416 -685 288 -685 
C 147 -685 77 -782 77 -899 
C 77 -1158 339 -1344 627 -1344 
C 998 -1344 1229 -983 1357 -659 
L 2496 2183 
z
" transform="scale(0.015625)"/>
       <path id="CMR17-28" d="M 1958 -1562 
C 1958 -1556 1958 -1543 1939 -1524 
C 1645 -1223 858 -403 858 1596 
C 858 3595 1632 4408 1946 4729 
C 1946 4735 1958 4748 1958 4767 
C 1958 4787 1939 4800 1914 4800 
C 1843 4800 1299 4325 986 3620 
C 666 2909 576 2218 576 1603 
C 576 1141 621 360 1005 -467 
C 1312 -1133 1837 -1600 1914 -1600 
C 1946 -1600 1958 -1588 1958 -1562 
z
" transform="scale(0.015625)"/>
       <path id="CMR17-48" d="M 3590 3898 
C 3590 4185 3661 4185 4102 4185 
L 4102 4352 
C 3917 4339 3578 4339 3379 4339 
C 3181 4339 2842 4339 2656 4352 
L 2656 4185 
C 3098 4185 3168 4185 3168 3898 
L 3168 2342 
L 1261 2342 
L 1261 3898 
C 1261 4185 1331 4185 1773 4185 
L 1773 4352 
C 1587 4339 1248 4339 1050 4339 
C 851 4339 512 4339 326 4352 
L 326 4185 
C 768 4185 838 4185 838 3898 
L 838 452 
C 838 166 768 166 326 166 
L 326 0 
C 512 12 851 12 1050 12 
C 1248 12 1587 12 1773 0 
L 1773 166 
C 1331 166 1261 166 1261 452 
L 1261 2176 
L 3168 2176 
L 3168 452 
C 3168 166 3098 166 2656 166 
L 2656 0 
C 2842 12 3181 12 3379 12 
C 3578 12 3917 12 4102 0 
L 4102 166 
C 3661 166 3590 166 3590 452 
L 3590 3898 
z
" transform="scale(0.015625)"/>
       <path id="CMR17-7a" d="M 2310 2604 
C 2362 2668 2362 2681 2362 2694 
C 2362 2752 2336 2752 2221 2752 
L 275 2752 
L 211 1760 
L 326 1760 
C 371 2380 442 2649 1178 2649 
L 1958 2649 
L 128 96 
C 128 6 134 0 269 0 
L 2291 0 
L 2381 1152 
L 2266 1152 
C 2214 441 2131 115 1350 115 
L 531 115 
L 2310 2604 
z
" transform="scale(0.015625)"/>
       <path id="CMR17-29" d="M 1683 1596 
C 1683 2057 1638 2839 1254 3665 
C 947 4332 422 4800 346 4800 
C 326 4800 301 4793 301 4761 
C 301 4748 307 4742 314 4729 
C 621 4408 1402 3595 1402 1603 
C 1402 -396 627 -1210 314 -1530 
C 307 -1543 301 -1549 301 -1562 
C 301 -1594 326 -1600 346 -1600 
C 416 -1600 960 -1127 1274 -422 
C 1594 289 1683 981 1683 1596 
z
" transform="scale(0.015625)"/>
      </defs>
      <use xlink:href="#CMR17-46" transform="scale(0.996264)"/>
      <use xlink:href="#CMR17-72" transform="translate(52.176591 0) scale(0.996264)"/>
      <use xlink:href="#CMR17-65" transform="translate(87.457359 0) scale(0.996264)"/>
      <use xlink:href="#CMR17-71" transform="translate(127.943019 0) scale(0.996264)"/>
      <use xlink:href="#CMR17-75" transform="translate(176.235935 0) scale(0.996264)"/>
      <use xlink:href="#CMR17-65" transform="translate(227.131305 0) scale(0.996264)"/>
      <use xlink:href="#CMR17-6e" transform="translate(267.616966 0) scale(0.996264)"/>
      <use xlink:href="#CMR17-63" transform="translate(318.512335 0) scale(0.996264)"/>
      <use xlink:href="#CMR17-79" transform="translate(358.997996 0) scale(0.996264)"/>
      <use xlink:href="#CMR17-28" transform="translate(437.366878 0) scale(0.996264)"/>
      <use xlink:href="#CMR17-48" transform="translate(472.647646 0) scale(0.996264)"/>
      <use xlink:href="#CMR17-7a" transform="translate(541.720076 0) scale(0.996264)"/>
      <use xlink:href="#CMR17-29" transform="translate(582.205736 0) scale(0.996264)"/>
     </g>
    </g>
   </g>
   <g id="matplotlib.axis_2">
    <g id="ytick_1">
     <g id="line2d_20">
      <defs>
       <path id="m408d51b85c" d="M 0 0 
L -3.5 0 
" style="stroke: #000000; stroke-width: 0.8"/>
      </defs>
      <g>
       <use xlink:href="#m408d51b85c" x="63.208257" y="228.596704" style="stroke: #000000; stroke-width: 0.8"/>
      </g>
     </g>
     <g id="text_5">
      <!-- $\mathdefault{0.0}$ -->
      <g transform="translate(32.51263 235.515202) scale(0.2 -0.2)">
       <defs>
        <path id="CMMI12-3a" d="M 1178 307 
C 1178 492 1024 620 870 620 
C 685 620 557 467 557 313 
C 557 128 710 0 864 0 
C 1050 0 1178 153 1178 307 
z
" transform="scale(0.015625)"/>
       </defs>
       <use xlink:href="#CMR17-30" transform="scale(0.996264)"/>
       <use xlink:href="#CMMI12-3a" transform="translate(45.690477 0) scale(0.996264)"/>
       <use xlink:href="#CMR17-30" transform="translate(72.787654 0) scale(0.996264)"/>
      </g>
     </g>
    </g>
    <g id="ytick_2">
     <g id="line2d_21">
      <g>
       <use xlink:href="#m408d51b85c" x="63.208257" y="186.421063" style="stroke: #000000; stroke-width: 0.8"/>
      </g>
     </g>
     <g id="text_6">
      <!-- $\mathdefault{0.2}$ -->
      <g transform="translate(32.51263 193.339561) scale(0.2 -0.2)">
       <defs>
        <path id="CMR17-32" d="M 2669 990 
L 2554 990 
C 2490 537 2438 460 2413 422 
C 2381 371 1920 371 1830 371 
L 602 371 
C 832 620 1280 1073 1824 1596 
C 2214 1966 2669 2400 2669 3033 
C 2669 3788 2067 4224 1395 4224 
C 691 4224 262 3603 262 3027 
C 262 2777 448 2745 525 2745 
C 589 2745 781 2783 781 3007 
C 781 3206 614 3264 525 3264 
C 486 3264 448 3257 422 3244 
C 544 3788 915 4057 1306 4057 
C 1862 4057 2227 3616 2227 3033 
C 2227 2477 1901 1998 1536 1583 
L 262 147 
L 262 0 
L 2515 0 
L 2669 990 
z
" transform="scale(0.015625)"/>
       </defs>
       <use xlink:href="#CMR17-30" transform="scale(0.996264)"/>
       <use xlink:href="#CMMI12-3a" transform="translate(45.690477 0) scale(0.996264)"/>
       <use xlink:href="#CMR17-32" transform="translate(72.787654 0) scale(0.996264)"/>
      </g>
     </g>
    </g>
    <g id="ytick_3">
     <g id="line2d_22">
      <g>
       <use xlink:href="#m408d51b85c" x="63.208257" y="144.245422" style="stroke: #000000; stroke-width: 0.8"/>
      </g>
     </g>
     <g id="text_7">
      <!-- $\mathdefault{0.4}$ -->
      <g transform="translate(32.51263 151.16392) scale(0.2 -0.2)">
       <defs>
        <path id="CMR17-34" d="M 2150 4147 
C 2150 4281 2144 4288 2029 4288 
L 128 1254 
L 128 1088 
L 1779 1088 
L 1779 460 
C 1779 230 1766 166 1318 166 
L 1197 166 
L 1197 0 
C 1402 12 1747 12 1965 12 
C 2182 12 2528 12 2733 0 
L 2733 166 
L 2611 166 
C 2163 166 2150 230 2150 460 
L 2150 1088 
L 2803 1088 
L 2803 1254 
L 2150 1254 
L 2150 4147 
z
M 1798 3723 
L 1798 1254 
L 256 1254 
L 1798 3723 
z
" transform="scale(0.015625)"/>
       </defs>
       <use xlink:href="#CMR17-30" transform="scale(0.996264)"/>
       <use xlink:href="#CMMI12-3a" transform="translate(45.690477 0) scale(0.996264)"/>
       <use xlink:href="#CMR17-34" transform="translate(72.787654 0) scale(0.996264)"/>
      </g>
     </g>
    </g>
    <g id="ytick_4">
     <g id="line2d_23">
      <g>
       <use xlink:href="#m408d51b85c" x="63.208257" y="102.069781" style="stroke: #000000; stroke-width: 0.8"/>
      </g>
     </g>
     <g id="text_8">
      <!-- $\mathdefault{0.6}$ -->
      <g transform="translate(32.51263 108.988279) scale(0.2 -0.2)">
       <defs>
        <path id="CMR17-36" d="M 678 2198 
C 678 3712 1395 4076 1811 4076 
C 1946 4076 2272 4049 2400 3782 
C 2298 3782 2106 3782 2106 3558 
C 2106 3385 2246 3328 2336 3328 
C 2394 3328 2566 3353 2566 3571 
C 2566 3987 2246 4224 1805 4224 
C 1043 4224 243 3411 243 2011 
C 243 257 966 -128 1478 -128 
C 2099 -128 2688 431 2688 1295 
C 2688 2101 2170 2688 1517 2688 
C 1126 2688 838 2430 678 1979 
L 678 2198 
z
M 1478 25 
C 691 25 691 1212 691 1450 
C 691 1914 909 2585 1504 2585 
C 1613 2585 1926 2585 2138 2140 
C 2253 1889 2253 1624 2253 1302 
C 2253 954 2253 696 2118 438 
C 1978 173 1773 25 1478 25 
z
" transform="scale(0.015625)"/>
       </defs>
       <use xlink:href="#CMR17-30" transform="scale(0.996264)"/>
       <use xlink:href="#CMMI12-3a" transform="translate(45.690477 0) scale(0.996264)"/>
       <use xlink:href="#CMR17-36" transform="translate(72.787654 0) scale(0.996264)"/>
      </g>
     </g>
    </g>
    <g id="ytick_5">
     <g id="line2d_24">
      <g>
       <use xlink:href="#m408d51b85c" x="63.208257" y="59.894139" style="stroke: #000000; stroke-width: 0.8"/>
      </g>
     </g>
     <g id="text_9">
      <!-- $\mathdefault{0.8}$ -->
      <g transform="translate(32.51263 66.812638) scale(0.2 -0.2)">
       <defs>
        <path id="CMR17-38" d="M 1741 2289 
C 2144 2494 2554 2803 2554 3298 
C 2554 3884 1990 4224 1472 4224 
C 890 4224 378 3800 378 3215 
C 378 3054 416 2777 666 2533 
C 730 2469 998 2276 1171 2154 
C 883 2006 211 1652 211 945 
C 211 282 838 -128 1459 -128 
C 2144 -128 2720 366 2720 1022 
C 2720 1607 2330 1877 2074 2051 
L 1741 2289 
z
M 902 2855 
C 851 2887 595 3086 595 3388 
C 595 3781 998 4076 1459 4076 
C 1965 4076 2336 3716 2336 3298 
C 2336 2700 1670 2359 1638 2359 
C 1632 2359 1626 2359 1574 2398 
L 902 2855 
z
M 2080 1536 
C 2176 1466 2483 1253 2483 861 
C 2483 385 2010 25 1472 25 
C 890 25 448 443 448 951 
C 448 1459 838 1884 1280 2083 
L 2080 1536 
z
" transform="scale(0.015625)"/>
       </defs>
       <use xlink:href="#CMR17-30" transform="scale(0.996264)"/>
       <use xlink:href="#CMMI12-3a" transform="translate(45.690477 0) scale(0.996264)"/>
       <use xlink:href="#CMR17-38" transform="translate(72.787654 0) scale(0.996264)"/>
      </g>
     </g>
    </g>
    <g id="ytick_6">
     <g id="line2d_25">
      <g>
       <use xlink:href="#m408d51b85c" x="63.208257" y="17.718498" style="stroke: #000000; stroke-width: 0.8"/>
      </g>
     </g>
     <g id="text_10">
      <!-- $\mathdefault{1.0}$ -->
      <g transform="translate(32.51263 24.636997) scale(0.2 -0.2)">
       <use xlink:href="#CMR17-31" transform="scale(0.996264)"/>
       <use xlink:href="#CMMI12-3a" transform="translate(45.690477 0) scale(0.996264)"/>
       <use xlink:href="#CMR17-30" transform="translate(72.787654 0) scale(0.996264)"/>
      </g>
     </g>
    </g>
    <g id="text_11">
     <!-- Coherence -->
     <g transform="translate(24.636997 164.279023) rotate(-90) scale(0.2 -0.2)">
      <defs>
       <path id="CMR17-43" d="M 3974 4351 
C 3974 4467 3968 4473 3930 4473 
C 3904 4473 3898 4467 3853 4390 
L 3571 3849 
C 3258 4249 2874 4480 2381 4480 
C 1286 4480 294 3507 294 2179 
C 294 837 1286 -128 2387 -128 
C 3366 -128 3974 741 3974 1482 
C 3974 1547 3974 1573 3917 1573 
C 3866 1573 3866 1553 3859 1495 
C 3808 592 3168 38 2477 38 
C 1824 38 781 502 781 2179 
C 781 3862 1843 4313 2464 4313 
C 3187 4313 3712 3681 3834 2785 
C 3846 2707 3846 2695 3904 2695 
C 3974 2695 3974 2707 3974 2824 
L 3974 4351 
z
" transform="scale(0.015625)"/>
       <path id="CMR17-6f" d="M 2758 1356 
C 2758 2176 2163 2816 1466 2816 
C 768 2816 173 2176 173 1356 
C 173 550 768 -64 1466 -64 
C 2163 -64 2758 550 2758 1356 
z
M 1466 51 
C 1165 51 909 230 762 480 
C 602 768 582 1126 582 1408 
C 582 1676 595 2009 762 2297 
C 890 2508 1139 2713 1466 2713 
C 1754 2713 1997 2553 2150 2329 
C 2349 2028 2349 1606 2349 1408 
C 2349 1158 2336 774 2163 467 
C 1984 172 1709 51 1466 51 
z
" transform="scale(0.015625)"/>
       <path id="CMR17-68" d="M 2656 1954 
C 2656 2282 2592 2816 1837 2816 
C 1312 2816 1056 2392 979 2179 
L 973 2179 
L 973 4416 
L 211 4345 
L 211 4179 
C 589 4179 646 4141 646 3843 
L 646 443 
C 646 198 621 166 211 166 
L 211 0 
C 365 12 646 12 813 12 
C 979 12 1267 12 1421 0 
L 1421 166 
C 1011 166 986 192 986 443 
L 986 1678 
C 986 2269 1344 2713 1792 2713 
C 2266 2713 2317 2289 2317 1980 
L 2317 443 
C 2317 198 2291 166 1882 166 
L 1882 0 
C 2035 12 2317 12 2483 12 
C 2650 12 2938 12 3091 0 
L 3091 166 
C 2682 166 2656 192 2656 443 
L 2656 1954 
z
" transform="scale(0.015625)"/>
      </defs>
      <use xlink:href="#CMR17-43" transform="scale(0.996264)"/>
      <use xlink:href="#CMR17-6f" transform="translate(66.509881 0) scale(0.996264)"/>
      <use xlink:href="#CMR17-68" transform="translate(112.200358 0) scale(0.996264)"/>
      <use xlink:href="#CMR17-65" transform="translate(163.095727 0) scale(0.996264)"/>
      <use xlink:href="#CMR17-72" transform="translate(203.581388 0) scale(0.996264)"/>
      <use xlink:href="#CMR17-65" transform="translate(238.862156 0) scale(0.996264)"/>
      <use xlink:href="#CMR17-6e" transform="translate(279.347816 0) scale(0.996264)"/>
      <use xlink:href="#CMR17-63" transform="translate(330.243186 0) scale(0.996264)"/>
      <use xlink:href="#CMR17-65" transform="translate(370.728846 0) scale(0.996264)"/>
     </g>
    </g>
   </g>
   <g id="line2d_26">
    <path d="M -1 227.645464 
L 33.623416 227.380661 
L 56.067091 226.997073 
L 72.389755 226.502185 
L 85.141842 225.896859 
L 95.343511 225.195884 
L 104.014933 224.375449 
L 111.156101 223.479724 
L 117.277099 222.49494 
L 122.888015 221.357545 
L 127.478767 220.210615 
L 131.559432 218.984683 
L 135.640099 217.518153 
L 139.210684 215.993971 
L 142.271185 214.472472 
L 145.331686 212.71643 
L 148.392186 210.685549 
L 150.942599 208.749631 
L 153.493022 206.559456 
L 156.043435 204.08033 
L 158.593857 201.27362 
L 161.144271 198.096965 
L 163.694688 194.504393 
L 166.245108 190.447182 
L 168.795521 185.874997 
L 171.345938 180.737764 
L 173.896355 174.988725 
L 176.446776 168.588341 
L 178.997194 161.509879 
L 181.547609 153.746143 
L 184.098025 145.318235 
L 187.158526 134.414067 
L 191.239194 118.874668 
L 198.380361 91.447012 
L 200.930774 82.661144 
L 202.971115 76.435526 
L 204.501359 72.366354 
L 206.031608 68.899596 
L 207.561859 66.106174 
L 208.582027 64.648047 
L 209.602198 63.530516 
L 210.622362 62.765054 
L 211.642531 62.359914 
L 212.662694 62.31993 
L 213.682864 62.646469 
L 214.703029 63.337364 
L 215.723199 64.386985 
L 216.743364 65.786343 
L 217.763528 67.523296 
L 219.293778 70.728078 
L 220.824028 74.596533 
L 222.354279 79.056678 
L 224.394615 85.785635 
L 226.945034 95.170894 
L 230.515614 109.426198 
L 238.166867 140.359972 
L 241.227369 151.732121 
L 243.777785 160.494354 
L 246.328203 168.537955 
L 248.878621 175.839765 
L 251.429036 182.406449 
L 253.979454 188.26608 
L 256.529868 193.460916 
L 259.080289 198.04168 
L 261.630702 202.06308 
L 264.181122 205.580666 
L 266.73154 208.648508 
L 269.281957 211.317792 
L 271.832371 213.635936 
L 274.382789 215.646203 
L 276.933209 217.387515 
L 279.483621 218.894599 
L 282.544127 220.43694 
L 285.604623 221.732192 
L 289.17521 222.983115 
L 292.74579 224.003149 
L 296.826459 224.940712 
L 301.41721 225.765207 
L 306.518048 226.461579 
L 312.639049 227.071324 
L 320.290296 227.590864 
L 329.471796 227.982756 
L 341.7138 228.275316 
L 360.076801 228.471689 
L 395.782642 228.596704 
L 395.782642 228.596704 
" clip-path="url(#p807526c6a0)" style="fill: none; stroke: #ffa353; stroke-width: 12; stroke-linecap: square"/>
   </g>
   <g id="line2d_27">
    <path d="M -1 227.645464 
L 33.623416 227.380661 
L 56.067091 226.997073 
L 72.389755 226.502185 
L 85.141842 225.896859 
L 95.343511 225.195884 
L 104.014933 224.375449 
L 111.156101 223.479724 
L 117.277099 222.49494 
L 122.888015 221.357545 
L 127.478767 220.210615 
L 131.559432 218.984683 
L 135.640099 217.518153 
L 139.210684 215.993971 
L 142.271185 214.472472 
L 145.331686 212.71643 
L 148.392186 210.685549 
L 150.942599 208.749631 
L 153.493022 206.559456 
L 156.043435 204.08033 
L 158.593857 201.27362 
L 161.144271 198.096965 
L 163.694688 194.504393 
L 166.245108 190.447182 
L 168.795521 185.874997 
L 171.345938 180.737764 
L 173.896355 174.988725 
L 176.446776 168.588341 
L 178.997194 161.509879 
L 181.547609 153.746143 
L 184.098025 145.318235 
L 187.158526 134.414067 
L 191.239194 118.874668 
L 198.380361 91.447012 
L 200.930774 82.661144 
L 202.971115 76.435526 
L 204.501359 72.366354 
L 206.031608 68.899596 
L 207.561859 66.106174 
L 208.582027 64.648047 
L 209.602198 63.530516 
L 210.622362 62.765054 
L 211.642531 62.359914 
L 212.662694 62.31993 
L 213.682864 62.646469 
L 214.703029 63.337364 
L 215.723199 64.386985 
L 216.743364 65.786343 
L 217.763528 67.523296 
L 219.293778 70.728078 
L 220.824028 74.596533 
L 222.354279 79.056678 
L 224.394615 85.785635 
L 226.945034 95.170894 
L 230.515614 109.426198 
L 238.166867 140.359972 
L 241.227369 151.732121 
L 243.777785 160.494354 
L 246.328203 168.537955 
L 248.878621 175.839765 
L 251.429036 182.406449 
L 253.979454 188.26608 
L 256.529868 193.460916 
L 259.080289 198.04168 
L 261.630702 202.06308 
L 264.181122 205.580666 
L 266.73154 208.648508 
L 269.281957 211.317792 
L 271.832371 213.635936 
L 274.382789 215.646203 
L 276.933209 217.387515 
L 279.483621 218.894599 
L 282.544127 220.43694 
L 285.604623 221.732192 
L 289.17521 222.983115 
L 292.74579 224.003149 
L 296.826459 224.940712 
L 301.41721 225.765207 
L 306.518048 226.461579 
L 312.639049 227.071324 
L 320.290296 227.590864 
L 329.471796 227.982756 
L 341.7138 228.275316 
L 360.076801 228.471689 
L 395.782642 228.596704 
L 395.782642 228.596704 
" clip-path="url(#p807526c6a0)" style="fill: none; stroke: #095400; stroke-width: 3.5; stroke-linecap: square"/>
   </g>
   <g id="line2d_28">
    <path d="M -1 227.644578 
L 5.629352 227.612691 
L 14.266187 227.559685 
L 22.903021 227.491901 
L 31.539855 227.40505 
L 40.176692 227.293497 
L 48.813531 227.149751 
L 57.450367 226.963994 
L 66.087204 226.722961 
L 74.724037 226.4088 
L 83.360875 225.996897 
L 91.997708 225.452483 
L 100.634545 224.725151 
L 109.271379 223.739502 
L 117.908219 222.379394 
L 126.545056 220.462129 
L 135.181888 217.696472 
L 143.818726 213.616228 
L 152.455559 207.48322 
L 161.092397 198.165593 
L 169.729232 184.062316 
L 178.366073 163.325366 
L 187.002905 134.986915 
L 195.639745 101.711135 
L 204.276579 72.928233 
L 212.913412 62.366196 
L 221.550249 76.644215 
L 230.187086 108.083517 
L 238.823922 142.872492 
L 247.460759 171.872177 
L 256.097597 192.625131 
L 264.734431 206.282648 
L 273.37127 214.883184 
L 282.008106 220.185874 
L 290.644938 223.428308 
L 299.281775 225.408322 
L 307.918609 226.620181 
L 316.555446 227.36483 
L 325.192287 227.824562 
L 333.82912 228.109813 
L 342.465959 228.287712 
L 351.102792 228.399242 
L 359.73963 228.469543 
L 368.376462 228.514114 
L 377.013299 228.54255 
L 385.650136 228.560818 
L 394.286972 228.572646 
L 402.923809 228.580373 
" clip-path="url(#p807526c6a0)" style="fill: none"/>
    <defs>
     <path id="m193641bbcb" d="M -4 4 
L 4 4 
L 4 -4 
L -4 -4 
z
" style="stroke: #1b3b9d; stroke-linejoin: miter"/>
    </defs>
    <g clip-path="url(#p807526c6a0)">
     <use xlink:href="#m193641bbcb" x="-1" y="227.644578" style="fill-opacity: 0; stroke: #1b3b9d; stroke-linejoin: miter"/>
     <use xlink:href="#m193641bbcb" x="5.629352" y="227.612691" style="fill-opacity: 0; stroke: #1b3b9d; stroke-linejoin: miter"/>
     <use xlink:href="#m193641bbcb" x="14.266187" y="227.559685" style="fill-opacity: 0; stroke: #1b3b9d; stroke-linejoin: miter"/>
     <use xlink:href="#m193641bbcb" x="22.903021" y="227.491901" style="fill-opacity: 0; stroke: #1b3b9d; stroke-linejoin: miter"/>
     <use xlink:href="#m193641bbcb" x="31.539855" y="227.40505" style="fill-opacity: 0; stroke: #1b3b9d; stroke-linejoin: miter"/>
     <use xlink:href="#m193641bbcb" x="40.176692" y="227.293497" style="fill-opacity: 0; stroke: #1b3b9d; stroke-linejoin: miter"/>
     <use xlink:href="#m193641bbcb" x="48.813531" y="227.149751" style="fill-opacity: 0; stroke: #1b3b9d; stroke-linejoin: miter"/>
     <use xlink:href="#m193641bbcb" x="57.450367" y="226.963994" style="fill-opacity: 0; stroke: #1b3b9d; stroke-linejoin: miter"/>
     <use xlink:href="#m193641bbcb" x="66.087204" y="226.722961" style="fill-opacity: 0; stroke: #1b3b9d; stroke-linejoin: miter"/>
     <use xlink:href="#m193641bbcb" x="74.724037" y="226.4088" style="fill-opacity: 0; stroke: #1b3b9d; stroke-linejoin: miter"/>
     <use xlink:href="#m193641bbcb" x="83.360875" y="225.996897" style="fill-opacity: 0; stroke: #1b3b9d; stroke-linejoin: miter"/>
     <use xlink:href="#m193641bbcb" x="91.997708" y="225.452483" style="fill-opacity: 0; stroke: #1b3b9d; stroke-linejoin: miter"/>
     <use xlink:href="#m193641bbcb" x="100.634545" y="224.725151" style="fill-opacity: 0; stroke: #1b3b9d; stroke-linejoin: miter"/>
     <use xlink:href="#m193641bbcb" x="109.271379" y="223.739502" style="fill-opacity: 0; stroke: #1b3b9d; stroke-linejoin: miter"/>
     <use xlink:href="#m193641bbcb" x="117.908219" y="222.379394" style="fill-opacity: 0; stroke: #1b3b9d; stroke-linejoin: miter"/>
     <use xlink:href="#m193641bbcb" x="126.545056" y="220.462129" style="fill-opacity: 0; stroke: #1b3b9d; stroke-linejoin: miter"/>
     <use xlink:href="#m193641bbcb" x="135.181888" y="217.696472" style="fill-opacity: 0; stroke: #1b3b9d; stroke-linejoin: miter"/>
     <use xlink:href="#m193641bbcb" x="143.818726" y="213.616228" style="fill-opacity: 0; stroke: #1b3b9d; stroke-linejoin: miter"/>
     <use xlink:href="#m193641bbcb" x="152.455559" y="207.48322" style="fill-opacity: 0; stroke: #1b3b9d; stroke-linejoin: miter"/>
     <use xlink:href="#m193641bbcb" x="161.092397" y="198.165593" style="fill-opacity: 0; stroke: #1b3b9d; stroke-linejoin: miter"/>
     <use xlink:href="#m193641bbcb" x="169.729232" y="184.062316" style="fill-opacity: 0; stroke: #1b3b9d; stroke-linejoin: miter"/>
     <use xlink:href="#m193641bbcb" x="178.366073" y="163.325366" style="fill-opacity: 0; stroke: #1b3b9d; stroke-linejoin: miter"/>
     <use xlink:href="#m193641bbcb" x="187.002905" y="134.986915" style="fill-opacity: 0; stroke: #1b3b9d; stroke-linejoin: miter"/>
     <use xlink:href="#m193641bbcb" x="195.639745" y="101.711135" style="fill-opacity: 0; stroke: #1b3b9d; stroke-linejoin: miter"/>
     <use xlink:href="#m193641bbcb" x="204.276579" y="72.928233" style="fill-opacity: 0; stroke: #1b3b9d; stroke-linejoin: miter"/>
     <use xlink:href="#m193641bbcb" x="212.913412" y="62.366196" style="fill-opacity: 0; stroke: #1b3b9d; stroke-linejoin: miter"/>
     <use xlink:href="#m193641bbcb" x="221.550249" y="76.644215" style="fill-opacity: 0; stroke: #1b3b9d; stroke-linejoin: miter"/>
     <use xlink:href="#m193641bbcb" x="230.187086" y="108.083517" style="fill-opacity: 0; stroke: #1b3b9d; stroke-linejoin: miter"/>
     <use xlink:href="#m193641bbcb" x="238.823922" y="142.872492" style="fill-opacity: 0; stroke: #1b3b9d; stroke-linejoin: miter"/>
     <use xlink:href="#m193641bbcb" x="247.460759" y="171.872177" style="fill-opacity: 0; stroke: #1b3b9d; stroke-linejoin: miter"/>
     <use xlink:href="#m193641bbcb" x="256.097597" y="192.625131" style="fill-opacity: 0; stroke: #1b3b9d; stroke-linejoin: miter"/>
     <use xlink:href="#m193641bbcb" x="264.734431" y="206.282648" style="fill-opacity: 0; stroke: #1b3b9d; stroke-linejoin: miter"/>
     <use xlink:href="#m193641bbcb" x="273.37127" y="214.883184" style="fill-opacity: 0; stroke: #1b3b9d; stroke-linejoin: miter"/>
     <use xlink:href="#m193641bbcb" x="282.008106" y="220.185874" style="fill-opacity: 0; stroke: #1b3b9d; stroke-linejoin: miter"/>
     <use xlink:href="#m193641bbcb" x="290.644938" y="223.428308" style="fill-opacity: 0; stroke: #1b3b9d; stroke-linejoin: miter"/>
     <use xlink:href="#m193641bbcb" x="299.281775" y="225.408322" style="fill-opacity: 0; stroke: #1b3b9d; stroke-linejoin: miter"/>
     <use xlink:href="#m193641bbcb" x="307.918609" y="226.620181" style="fill-opacity: 0; stroke: #1b3b9d; stroke-linejoin: miter"/>
     <use xlink:href="#m193641bbcb" x="316.555446" y="227.36483" style="fill-opacity: 0; stroke: #1b3b9d; stroke-linejoin: miter"/>
     <use xlink:href="#m193641bbcb" x="325.192287" y="227.824562" style="fill-opacity: 0; stroke: #1b3b9d; stroke-linejoin: miter"/>
     <use xlink:href="#m193641bbcb" x="333.82912" y="228.109813" style="fill-opacity: 0; stroke: #1b3b9d; stroke-linejoin: miter"/>
     <use xlink:href="#m193641bbcb" x="342.465959" y="228.287712" style="fill-opacity: 0; stroke: #1b3b9d; stroke-linejoin: miter"/>
     <use xlink:href="#m193641bbcb" x="351.102792" y="228.399242" style="fill-opacity: 0; stroke: #1b3b9d; stroke-linejoin: miter"/>
     <use xlink:href="#m193641bbcb" x="359.73963" y="228.469543" style="fill-opacity: 0; stroke: #1b3b9d; stroke-linejoin: miter"/>
     <use xlink:href="#m193641bbcb" x="368.376462" y="228.514114" style="fill-opacity: 0; stroke: #1b3b9d; stroke-linejoin: miter"/>
     <use xlink:href="#m193641bbcb" x="377.013299" y="228.54255" style="fill-opacity: 0; stroke: #1b3b9d; stroke-linejoin: miter"/>
     <use xlink:href="#m193641bbcb" x="385.650136" y="228.560818" style="fill-opacity: 0; stroke: #1b3b9d; stroke-linejoin: miter"/>
     <use xlink:href="#m193641bbcb" x="394.286972" y="228.572646" style="fill-opacity: 0; stroke: #1b3b9d; stroke-linejoin: miter"/>
     <use xlink:href="#m193641bbcb" x="402.923809" y="228.580373" style="fill-opacity: 0; stroke: #1b3b9d; stroke-linejoin: miter"/>
    </g>
   </g>
   <g id="line2d_29">
    <path d="M -1 227.51197 
L 12.075237 224.120931 
L 25.524787 219.099983 
L 36.89622 217.783711 
L 46.746603 213.823705 
L 55.435257 220.004715 
L 63.207523 224.714145 
L 76.657073 222.344864 
L 82.561687 226.991991 
L 93.117992 226.355762 
L 102.351064 226.979574 
L 110.55599 224.992042 
L 117.938976 223.888049 
L 127.789359 224.815174 
L 136.478012 218.83201 
L 144.250278 210.256942 
L 153.48335 213.940215 
L 161.688275 186.566392 
L 169.071261 198.663794 
L 178.921644 168.192421 
L 187.610298 122.873283 
L 195.382564 99.374172 
L 204.615635 68.761793 
L 212.820561 42.418068 
L 221.939352 58.035222 
L 230.05393 114.491319 
L 238.742584 145.605867 
L 247.734188 167.713014 
L 256.28835 184.502626 
L 264.917152 199.143958 
L 273.499281 221.911111 
L 281.950661 218.628364 
L 290.554766 211.545168 
L 299.168185 227.771648 
L 307.957135 226.246089 
L 316.526904 228.558667 
L 325.268419 224.607935 
L 333.839551 228.242612 
L 342.528205 226.0736 
L 351.049393 220.993713 
L 359.754604 228.045768 
L 368.369644 227.217611 
L 377.032106 226.974422 
L 385.627559 227.919409 
L 394.326574 226.686035 
L 402.84927 227.670915 
" clip-path="url(#p807526c6a0)" style="fill: none"/>
    <defs>
     <path id="md336e13e4b" d="M 0 6 
C 1.591219 6 3.117479 5.367802 4.242641 4.242641 
C 5.367802 3.117479 6 1.591219 6 0 
C 6 -1.591219 5.367802 -3.117479 4.242641 -4.242641 
C 3.117479 -5.367802 1.591219 -6 0 -6 
C -1.591219 -6 -3.117479 -5.367802 -4.242641 -4.242641 
C -5.367802 -3.117479 -6 -1.591219 -6 0 
C -6 1.591219 -5.367802 3.117479 -4.242641 4.242641 
C -3.117479 5.367802 -1.591219 6 0 6 
z
" style="stroke: #000000"/>
    </defs>
    <g clip-path="url(#p807526c6a0)">
     <use xlink:href="#md336e13e4b" x="-1" y="227.51197" style="fill-opacity: 0; stroke: #000000"/>
     <use xlink:href="#md336e13e4b" x="12.075237" y="224.120931" style="fill-opacity: 0; stroke: #000000"/>
     <use xlink:href="#md336e13e4b" x="25.524787" y="219.099983" style="fill-opacity: 0; stroke: #000000"/>
     <use xlink:href="#md336e13e4b" x="36.89622" y="217.783711" style="fill-opacity: 0; stroke: #000000"/>
     <use xlink:href="#md336e13e4b" x="46.746603" y="213.823705" style="fill-opacity: 0; stroke: #000000"/>
     <use xlink:href="#md336e13e4b" x="55.435257" y="220.004715" style="fill-opacity: 0; stroke: #000000"/>
     <use xlink:href="#md336e13e4b" x="63.207523" y="224.714145" style="fill-opacity: 0; stroke: #000000"/>
     <use xlink:href="#md336e13e4b" x="76.657073" y="222.344864" style="fill-opacity: 0; stroke: #000000"/>
     <use xlink:href="#md336e13e4b" x="82.561687" y="226.991991" style="fill-opacity: 0; stroke: #000000"/>
     <use xlink:href="#md336e13e4b" x="93.117992" y="226.355762" style="fill-opacity: 0; stroke: #000000"/>
     <use xlink:href="#md336e13e4b" x="102.351064" y="226.979574" style="fill-opacity: 0; stroke: #000000"/>
     <use xlink:href="#md336e13e4b" x="110.55599" y="224.992042" style="fill-opacity: 0; stroke: #000000"/>
     <use xlink:href="#md336e13e4b" x="117.938976" y="223.888049" style="fill-opacity: 0; stroke: #000000"/>
     <use xlink:href="#md336e13e4b" x="127.789359" y="224.815174" style="fill-opacity: 0; stroke: #000000"/>
     <use xlink:href="#md336e13e4b" x="136.478012" y="218.83201" style="fill-opacity: 0; stroke: #000000"/>
     <use xlink:href="#md336e13e4b" x="144.250278" y="210.256942" style="fill-opacity: 0; stroke: #000000"/>
     <use xlink:href="#md336e13e4b" x="153.48335" y="213.940215" style="fill-opacity: 0; stroke: #000000"/>
     <use xlink:href="#md336e13e4b" x="161.688275" y="186.566392" style="fill-opacity: 0; stroke: #000000"/>
     <use xlink:href="#md336e13e4b" x="169.071261" y="198.663794" style="fill-opacity: 0; stroke: #000000"/>
     <use xlink:href="#md336e13e4b" x="178.921644" y="168.192421" style="fill-opacity: 0; stroke: #000000"/>
     <use xlink:href="#md336e13e4b" x="187.610298" y="122.873283" style="fill-opacity: 0; stroke: #000000"/>
     <use xlink:href="#md336e13e4b" x="195.382564" y="99.374172" style="fill-opacity: 0; stroke: #000000"/>
     <use xlink:href="#md336e13e4b" x="204.615635" y="68.761793" style="fill-opacity: 0; stroke: #000000"/>
     <use xlink:href="#md336e13e4b" x="212.820561" y="42.418068" style="fill-opacity: 0; stroke: #000000"/>
     <use xlink:href="#md336e13e4b" x="221.939352" y="58.035222" style="fill-opacity: 0; stroke: #000000"/>
     <use xlink:href="#md336e13e4b" x="230.05393" y="114.491319" style="fill-opacity: 0; stroke: #000000"/>
     <use xlink:href="#md336e13e4b" x="238.742584" y="145.605867" style="fill-opacity: 0; stroke: #000000"/>
     <use xlink:href="#md336e13e4b" x="247.734188" y="167.713014" style="fill-opacity: 0; stroke: #000000"/>
     <use xlink:href="#md336e13e4b" x="256.28835" y="184.502626" style="fill-opacity: 0; stroke: #000000"/>
     <use xlink:href="#md336e13e4b" x="264.917152" y="199.143958" style="fill-opacity: 0; stroke: #000000"/>
     <use xlink:href="#md336e13e4b" x="273.499281" y="221.911111" style="fill-opacity: 0; stroke: #000000"/>
     <use xlink:href="#md336e13e4b" x="281.950661" y="218.628364" style="fill-opacity: 0; stroke: #000000"/>
     <use xlink:href="#md336e13e4b" x="290.554766" y="211.545168" style="fill-opacity: 0; stroke: #000000"/>
     <use xlink:href="#md336e13e4b" x="299.168185" y="227.771648" style="fill-opacity: 0; stroke: #000000"/>
     <use xlink:href="#md336e13e4b" x="307.957135" y="226.246089" style="fill-opacity: 0; stroke: #000000"/>
     <use xlink:href="#md336e13e4b" x="316.526904" y="228.558667" style="fill-opacity: 0; stroke: #000000"/>
     <use xlink:href="#md336e13e4b" x="325.268419" y="224.607935" style="fill-opacity: 0; stroke: #000000"/>
     <use xlink:href="#md336e13e4b" x="333.839551" y="228.242612" style="fill-opacity: 0; stroke: #000000"/>
     <use xlink:href="#md336e13e4b" x="342.528205" y="226.0736" style="fill-opacity: 0; stroke: #000000"/>
     <use xlink:href="#md336e13e4b" x="351.049393" y="220.993713" style="fill-opacity: 0; stroke: #000000"/>
     <use xlink:href="#md336e13e4b" x="359.754604" y="228.045768" style="fill-opacity: 0; stroke: #000000"/>
     <use xlink:href="#md336e13e4b" x="368.369644" y="227.217611" style="fill-opacity: 0; stroke: #000000"/>
     <use xlink:href="#md336e13e4b" x="377.032106" y="226.974422" style="fill-opacity: 0; stroke: #000000"/>
     <use xlink:href="#md336e13e4b" x="385.627559" y="227.919409" style="fill-opacity: 0; stroke: #000000"/>
     <use xlink:href="#md336e13e4b" x="394.326574" y="226.686035" style="fill-opacity: 0; stroke: #000000"/>
     <use xlink:href="#md336e13e4b" x="402.84927" y="227.670915" style="fill-opacity: 0; stroke: #000000"/>
    </g>
   </g>
   <g id="patch_3">
    <path d="M 63.208257 228.596704 
L 63.208257 17.718498 
" style="fill: none; stroke: #000000; stroke-width: 0.8; stroke-linejoin: miter; stroke-linecap: square"/>
   </g>
   <g id="patch_4">
    <path d="M 402.923809 228.596704 
L 402.923809 17.718498 
" style="fill: none; stroke: #000000; stroke-width: 0.8; stroke-linejoin: miter; stroke-linecap: square"/>
   </g>
   <g id="patch_5">
    <path d="M 63.208257 228.596704 
L 402.923809 228.596704 
" style="fill: none; stroke: #000000; stroke-width: 0.8; stroke-linejoin: miter; stroke-linecap: square"/>
   </g>
   <g id="patch_6">
    <path d="M 63.208257 17.718498 
L 402.923809 17.718498 
" style="fill: none; stroke: #000000; stroke-width: 0.8; stroke-linejoin: miter; stroke-linecap: square"/>
   </g>
   <g id="legend_1">
    <g id="patch_7">
     <path d="M 241.902128 132.470755 
L 390.323809 132.470755 
Q 393.923809 132.470755 393.923809 128.870755 
L 393.923809 30.318498 
Q 393.923809 26.718498 390.323809 26.718498 
L 241.902128 26.718498 
Q 238.302128 26.718498 238.302128 30.318498 
L 238.302128 128.870755 
Q 238.302128 132.470755 241.902128 132.470755 
z
" style="fill: #ffffff; opacity: 0.8; stroke: #cccccc; stroke-linejoin: miter"/>
    </g>
    <g id="line2d_30">
     <path d="M 245.502128 40.218498 
L 263.502128 40.218498 
L 281.502128 40.218498 
" style="fill: none; stroke: #ffa353; stroke-width: 12; stroke-linecap: square"/>
    </g>
    <g id="text_12">
     <!-- recursive -->
     <g transform="translate(295.902128 46.518498) scale(0.18 -0.18)">
      <defs>
       <path id="CMR17-73" d="M 1978 2688 
C 1978 2803 1971 2809 1933 2809 
C 1907 2809 1901 2803 1824 2707 
C 1805 2681 1747 2617 1728 2592 
C 1523 2809 1235 2816 1126 2816 
C 416 2816 160 2444 160 2073 
C 160 1497 813 1363 998 1324 
C 1402 1241 1542 1216 1677 1100 
C 1760 1024 1901 883 1901 652 
C 1901 384 1747 38 1158 38 
C 602 38 403 460 288 1024 
C 269 1113 269 1120 218 1120 
C 166 1120 160 1113 160 985 
L 160 64 
C 160 -52 166 -58 205 -58 
C 237 -58 243 -52 275 0 
C 314 57 410 211 448 275 
C 576 102 800 -64 1158 -64 
C 1792 -64 2131 281 2131 780 
C 2131 1107 1958 1280 1875 1356 
C 1683 1555 1459 1600 1190 1651 
C 838 1728 390 1817 390 2208 
C 390 2374 480 2726 1126 2726 
C 1811 2726 1850 2086 1862 1881 
C 1869 1849 1901 1843 1920 1843 
C 1978 1843 1978 1862 1978 1971 
L 1978 2688 
z
" transform="scale(0.015625)"/>
       <path id="CMR17-69" d="M 992 3961 
C 992 4102 877 4224 730 4224 
C 589 4224 467 4108 467 3961 
C 467 3820 582 3699 730 3699 
C 870 3699 992 3814 992 3961 
z
M 243 2745 
L 243 2579 
C 602 2579 653 2540 653 2231 
L 653 443 
C 653 198 627 166 218 166 
L 218 0 
C 371 12 646 12 806 12 
C 960 12 1222 12 1370 0 
L 1370 166 
C 992 166 979 205 979 436 
L 979 2816 
L 243 2745 
z
" transform="scale(0.015625)"/>
       <path id="CMR17-76" d="M 2502 2173 
C 2560 2315 2662 2572 3034 2585 
L 3034 2752 
C 2912 2745 2752 2739 2630 2739 
C 2496 2739 2285 2739 2157 2752 
L 2157 2585 
C 2317 2572 2406 2495 2406 2328 
C 2406 2270 2406 2257 2368 2167 
L 1664 379 
L 902 2308 
C 864 2392 864 2405 864 2431 
C 864 2585 1075 2585 1171 2585 
L 1171 2752 
C 1018 2739 736 2739 576 2739 
C 403 2739 205 2739 64 2752 
L 64 2585 
C 307 2585 442 2585 518 2386 
L 1446 44 
C 1485 -52 1491 -64 1549 -64 
C 1606 -64 1613 -52 1651 44 
L 2502 2173 
z
" transform="scale(0.015625)"/>
      </defs>
      <use xlink:href="#CMR17-72" transform="scale(0.996264)"/>
      <use xlink:href="#CMR17-65" transform="translate(35.280768 0) scale(0.996264)"/>
      <use xlink:href="#CMR17-63" transform="translate(75.766428 0) scale(0.996264)"/>
      <use xlink:href="#CMR17-75" transform="translate(116.252089 0) scale(0.996264)"/>
      <use xlink:href="#CMR17-72" transform="translate(167.147459 0) scale(0.996264)"/>
      <use xlink:href="#CMR17-73" transform="translate(202.428226 0) scale(0.996264)"/>
      <use xlink:href="#CMR17-69" transform="translate(238.229564 0) scale(0.996264)"/>
      <use xlink:href="#CMR17-76" transform="translate(263.100622 0) scale(0.996264)"/>
      <use xlink:href="#CMR17-65" transform="translate(308.791084 0) scale(0.996264)"/>
     </g>
    </g>
    <g id="line2d_31">
     <path d="M 245.502128 65.306563 
L 263.502128 65.306563 
L 281.502128 65.306563 
" style="fill: none; stroke: #095400; stroke-width: 3.5; stroke-linecap: square"/>
    </g>
    <g id="text_13">
     <!-- element-wise -->
     <g transform="translate(295.902128 71.606563) scale(0.18 -0.18)">
      <defs>
       <path id="CMR17-6c" d="M 979 4416 
L 218 4345 
L 218 4179 
C 595 4179 653 4141 653 3835 
L 653 439 
C 653 198 627 166 218 166 
L 218 0 
C 371 12 653 12 813 12 
C 979 12 1261 12 1414 0 
L 1414 166 
C 1005 166 979 191 979 439 
L 979 4416 
z
" transform="scale(0.015625)"/>
       <path id="CMR17-6d" d="M 4326 1954 
C 4326 2276 4269 2816 3507 2816 
C 3072 2816 2771 2520 2656 2173 
L 2650 2173 
C 2573 2700 2195 2816 1837 2816 
C 1331 2816 1069 2424 973 2166 
L 966 2166 
L 966 2816 
L 211 2745 
L 211 2578 
C 589 2578 646 2540 646 2231 
L 646 443 
C 646 198 621 166 211 166 
L 211 0 
C 365 12 646 12 813 12 
C 979 12 1267 12 1421 0 
L 1421 166 
C 1011 166 986 192 986 443 
L 986 1678 
C 986 2269 1344 2713 1792 2713 
C 2266 2713 2317 2289 2317 1980 
L 2317 443 
C 2317 198 2291 166 1882 166 
L 1882 0 
C 2035 12 2317 12 2483 12 
C 2650 12 2938 12 3091 0 
L 3091 166 
C 2682 166 2656 192 2656 443 
L 2656 1678 
C 2656 2269 3014 2713 3462 2713 
C 3936 2713 3987 2289 3987 1980 
L 3987 443 
C 3987 198 3962 166 3552 166 
L 3552 0 
C 3706 12 3987 12 4154 12 
C 4320 12 4608 12 4762 0 
L 4762 166 
C 4352 166 4326 192 4326 443 
L 4326 1954 
z
" transform="scale(0.015625)"/>
       <path id="CMR17-74" d="M 966 2585 
L 1862 2585 
L 1862 2752 
L 966 2752 
L 966 3968 
L 851 3968 
C 838 3292 614 2700 70 2687 
L 70 2585 
L 627 2585 
L 627 778 
C 627 655 627 -64 1370 -64 
C 1747 -64 1965 308 1965 784 
L 1965 1151 
L 1850 1151 
L 1850 790 
C 1850 347 1677 51 1408 51 
C 1222 51 966 179 966 765 
L 966 2585 
z
" transform="scale(0.015625)"/>
       <path id="CMR17-2d" d="M 1632 1254 
L 1632 1536 
L 26 1536 
L 26 1254 
L 1632 1254 
z
" transform="scale(0.015625)"/>
       <path id="CMR17-77" d="M 3725 2186 
C 3853 2566 4109 2579 4205 2585 
L 4205 2752 
C 4077 2745 3949 2739 3821 2739 
C 3699 2739 3424 2739 3315 2752 
L 3315 2585 
C 3514 2572 3622 2456 3622 2296 
C 3622 2251 3610 2193 3597 2148 
L 2995 398 
L 2342 2296 
C 2330 2341 2310 2392 2310 2418 
C 2310 2585 2528 2585 2630 2585 
L 2630 2752 
C 2483 2739 2214 2739 2061 2739 
C 1901 2739 1734 2739 1587 2752 
L 1587 2585 
C 1939 2585 1939 2572 2074 2167 
L 1485 443 
L 851 2302 
C 819 2386 819 2399 819 2418 
C 819 2585 1037 2585 1139 2585 
L 1139 2752 
C 986 2739 717 2739 557 2739 
C 416 2739 198 2739 64 2752 
L 64 2585 
C 346 2585 416 2566 486 2353 
L 1274 38 
C 1299 -45 1318 -64 1370 -64 
C 1414 -64 1440 -52 1472 44 
L 2131 1987 
L 2797 44 
C 2829 -52 2854 -64 2899 -64 
C 2950 -64 2970 -45 2995 38 
L 3725 2186 
z
" transform="scale(0.015625)"/>
      </defs>
      <use xlink:href="#CMR17-65" transform="scale(0.996264)"/>
      <use xlink:href="#CMR17-6c" transform="translate(40.48566 0) scale(0.996264)"/>
      <use xlink:href="#CMR17-65" transform="translate(65.356719 0) scale(0.996264)"/>
      <use xlink:href="#CMR17-6d" transform="translate(105.842379 0) scale(0.996264)"/>
      <use xlink:href="#CMR17-65" transform="translate(182.761969 0) scale(0.996264)"/>
      <use xlink:href="#CMR17-6e" transform="translate(223.24763 0) scale(0.996264)"/>
      <use xlink:href="#CMR17-74" transform="translate(271.540546 0) scale(0.996264)"/>
      <use xlink:href="#CMR17-2d" transform="translate(306.821313 0) scale(0.996264)"/>
      <use xlink:href="#CMR17-77" transform="translate(336.89728 0) scale(0.996264)"/>
      <use xlink:href="#CMR17-69" transform="translate(403.40716 0) scale(0.996264)"/>
      <use xlink:href="#CMR17-73" transform="translate(428.278219 0) scale(0.996264)"/>
      <use xlink:href="#CMR17-65" transform="translate(464.079556 0) scale(0.996264)"/>
     </g>
    </g>
    <g id="line2d_32">
     <path d="M 245.502128 90.394627 
L 263.502128 90.394627 
L 281.502128 90.394627 
" style="fill: none"/>
     <g>
      <use xlink:href="#m193641bbcb" x="263.502128" y="90.394627" style="fill-opacity: 0; stroke: #1b3b9d; stroke-linejoin: miter"/>
     </g>
    </g>
    <g id="text_14">
     <!-- matrix -->
     <g transform="translate(295.902128 96.694627) scale(0.18 -0.18)">
      <defs>
       <path id="CMR17-61" d="M 2304 1656 
C 2304 2048 2304 2275 2035 2534 
C 1798 2751 1523 2816 1306 2816 
C 800 2816 435 2408 435 1977 
C 435 1740 627 1728 666 1728 
C 749 1728 896 1779 896 1958 
C 896 2118 774 2188 666 2188 
C 640 2188 608 2182 589 2176 
C 723 2594 1069 2713 1293 2713 
C 1613 2713 1965 2421 1965 1875 
L 1965 1632 
C 1587 1619 1133 1568 774 1373 
C 371 1147 256 822 256 576 
C 256 77 832 -64 1171 -64 
C 1523 -64 1850 135 1990 505 
C 2003 219 2182 -39 2464 -39 
C 2598 -39 2938 51 2938 563 
L 2938 926 
L 2822 926 
L 2822 557 
C 2822 161 2650 109 2566 109 
C 2304 109 2304 446 2304 732 
L 2304 1656 
z
M 1965 887 
C 1965 323 1568 38 1216 38 
C 896 38 646 278 646 576 
C 646 771 730 1114 1101 1322 
C 1408 1497 1760 1523 1965 1536 
L 1965 887 
z
" transform="scale(0.015625)"/>
       <path id="CMR17-78" d="M 1664 1491 
C 1856 1740 2074 2022 2253 2233 
C 2464 2476 2707 2579 2989 2585 
L 2989 2752 
C 2880 2745 2656 2739 2541 2739 
C 2368 2739 2170 2739 2022 2752 
L 2022 2585 
C 2112 2572 2163 2508 2163 2419 
C 2163 2304 2099 2233 2067 2188 
L 1594 1587 
L 1030 2323 
C 973 2393 973 2406 973 2438 
C 973 2515 1037 2579 1146 2585 
L 1146 2752 
C 992 2739 717 2739 557 2739 
C 384 2739 179 2739 38 2752 
L 38 2585 
C 384 2585 461 2560 614 2368 
L 1350 1414 
C 1363 1401 1395 1363 1395 1344 
C 1395 1318 838 633 768 544 
C 480 198 179 172 6 166 
L 6 0 
C 115 6 339 12 454 12 
C 582 12 864 12 979 0 
L 979 166 
C 941 172 838 185 838 332 
C 838 448 890 518 947 595 
L 1478 1248 
L 2035 524 
C 2086 454 2163 358 2163 313 
C 2163 224 2086 172 1984 166 
L 1984 0 
C 2138 12 2413 12 2573 12 
C 2746 12 2950 12 3091 0 
L 3091 166 
C 2771 166 2675 179 2522 377 
L 1664 1491 
z
" transform="scale(0.015625)"/>
      </defs>
      <use xlink:href="#CMR17-6d" transform="scale(0.996264)"/>
      <use xlink:href="#CMR17-61" transform="translate(76.91959 0) scale(0.996264)"/>
      <use xlink:href="#CMR17-74" transform="translate(122.610067 0) scale(0.996264)"/>
      <use xlink:href="#CMR17-72" transform="translate(157.890835 0) scale(0.996264)"/>
      <use xlink:href="#CMR17-69" transform="translate(193.171603 0) scale(0.996264)"/>
      <use xlink:href="#CMR17-78" transform="translate(218.042661 0) scale(0.996264)"/>
     </g>
    </g>
    <g id="line2d_33">
     <path d="M 245.502128 115.482691 
L 263.502128 115.482691 
L 281.502128 115.482691 
" style="fill: none"/>
     <g>
      <use xlink:href="#md336e13e4b" x="263.502128" y="115.482691" style="fill-opacity: 0; stroke: #000000"/>
     </g>
    </g>
    <g id="text_15">
     <!-- simulation -->
     <g transform="translate(295.902128 121.782691) scale(0.18 -0.18)">
      <use xlink:href="#CMR17-73" transform="scale(0.996264)"/>
      <use xlink:href="#CMR17-69" transform="translate(35.801338 0) scale(0.996264)"/>
      <use xlink:href="#CMR17-6d" transform="translate(60.672396 0) scale(0.996264)"/>
      <use xlink:href="#CMR17-75" transform="translate(134.989532 0) scale(0.996264)"/>
      <use xlink:href="#CMR17-6c" transform="translate(185.884902 0) scale(0.996264)"/>
      <use xlink:href="#CMR17-61" transform="translate(210.75596 0) scale(0.996264)"/>
      <use xlink:href="#CMR17-74" transform="translate(256.446437 0) scale(0.996264)"/>
      <use xlink:href="#CMR17-69" transform="translate(291.727205 0) scale(0.996264)"/>
      <use xlink:href="#CMR17-6f" transform="translate(316.598264 0) scale(0.996264)"/>
      <use xlink:href="#CMR17-6e" transform="translate(362.288741 0) scale(0.996264)"/>
     </g>
    </g>
   </g>
  </g>
 </g>
 <defs>
  <clipPath id="p807526c6a0">
   <rect x="63.208257" y="17.718498" width="339.715553" height="210.878206"/>
  </clipPath>
 </defs>
</svg>
