<?xml version="1.0" encoding="utf-8" standalone="no"?>
<!DOCTYPE svg PUBLIC "-//W3C//DTD SVG 1.1//EN"
  "http://www.w3.org/Graphics/SVG/1.1/DTD/svg11.dtd">
<svg xmlns:xlink="http://www.w3.org/1999/xlink" width="432pt" height="288pt" viewBox="0 0 432 288" xmlns="http://www.w3.org/2000/svg" version="1.1">
 <metadata>
  <rdf:RDF xmlns:dc="http://purl.org/dc/elements/1.1/" xmlns:cc="http://creativecommons.org/ns#" xmlns:rdf="http://www.w3.org/1999/02/22-rdf-syntax-ns#">
   <cc:Work>
    <dc:type rdf:resource="http://purl.org/dc/dcmitype/StillImage"/>
    <dc:date>2024-05-09T13:59:52.385613</dc:date>
    <dc:format>image/svg+xml</dc:format>
    <dc:creator>
     <cc:Agent>
      <dc:title>Matplotlib v3.7.1, https://matplotlib.org/</dc:title>
     </cc:Agent>
    </dc:creator>
   </cc:Work>
  </rdf:RDF>
 </metadata>
 <defs>
  <style type="text/css">*{stroke-linejoin: round; stroke-linecap: butt}</style>
 </defs>
 <g id="figure_1">
  <g id="patch_1">
   <path d="M 0 288 
L 432 288 
L 432 0 
L 0 0 
L 0 288 
z
" style="fill: none"/>
  </g>
  <g id="axes_1">
   <g id="patch_2">
    <path d="M 48.650726 228.596704 
L 402.923809 228.596704 
L 402.923809 20.802655 
L 48.650726 20.802655 
z
" style="fill: #ffffff"/>
   </g>
   <g id="matplotlib.axis_1">
    <g id="xtick_1">
     <g id="line2d_1">
      <defs>
       <path id="m08385149a8" d="M 0 0 
L 0 3.5 
" style="stroke: #000000; stroke-width: 0.8"/>
      </defs>
      <g>
       <use xlink:href="#m08385149a8" x="48.650726" y="228.596704" style="stroke: #000000; stroke-width: 0.8"/>
      </g>
     </g>
     <g id="text_1">
      <!-- 10 -->
      <g transform="translate(39.51263 249.433701) scale(0.2 -0.2)">
       <defs>
        <path id="CMR17-31" d="M 1702 4083 
C 1702 4217 1696 4224 1606 4224 
C 1357 3927 979 3833 621 3820 
C 602 3820 570 3820 563 3808 
C 557 3795 557 3782 557 3648 
C 755 3648 1088 3686 1344 3839 
L 1344 467 
C 1344 243 1331 166 781 166 
L 589 166 
L 589 0 
C 896 6 1216 12 1523 12 
C 1830 12 2150 6 2458 0 
L 2458 166 
L 2266 166 
C 1715 166 1702 236 1702 467 
L 1702 4083 
z
" transform="scale(0.015625)"/>
        <path id="CMR17-30" d="M 2688 2038 
C 2688 2430 2682 3099 2413 3613 
C 2176 4063 1798 4224 1466 4224 
C 1158 4224 768 4082 525 3620 
C 269 3137 243 2539 243 2038 
C 243 1671 250 1112 448 623 
C 723 -39 1216 -128 1466 -128 
C 1760 -128 2208 -7 2470 604 
C 2662 1048 2688 1568 2688 2038 
z
M 1466 -26 
C 1056 -26 813 328 723 816 
C 653 1196 653 1749 653 2109 
C 653 2604 653 3015 736 3407 
C 858 3954 1216 4121 1466 4121 
C 1728 4121 2067 3947 2189 3420 
C 2272 3054 2278 2623 2278 2109 
C 2278 1691 2278 1176 2202 797 
C 2067 96 1690 -26 1466 -26 
z
" transform="scale(0.015625)"/>
       </defs>
       <use xlink:href="#CMR17-31" transform="scale(0.996264)"/>
       <use xlink:href="#CMR17-30" transform="translate(45.690477 0) scale(0.996264)"/>
      </g>
     </g>
    </g>
    <g id="xtick_2">
     <g id="line2d_2">
      <g>
       <use xlink:href="#m08385149a8" x="225.787267" y="228.596704" style="stroke: #000000; stroke-width: 0.8"/>
      </g>
     </g>
     <g id="text_2">
      <!-- 100 -->
      <g transform="translate(212.080124 249.433701) scale(0.2 -0.2)">
       <use xlink:href="#CMR17-31" transform="scale(0.996264)"/>
       <use xlink:href="#CMR17-30" transform="translate(45.690477 0) scale(0.996264)"/>
       <use xlink:href="#CMR17-30" transform="translate(91.380954 0) scale(0.996264)"/>
      </g>
     </g>
    </g>
    <g id="xtick_3">
     <g id="line2d_3">
      <g>
       <use xlink:href="#m08385149a8" x="402.923809" y="228.596704" style="stroke: #000000; stroke-width: 0.8"/>
      </g>
     </g>
     <g id="text_3">
      <!-- 1000 -->
      <g transform="translate(384.647618 249.433701) scale(0.2 -0.2)">
       <use xlink:href="#CMR17-31" transform="scale(0.996264)"/>
       <use xlink:href="#CMR17-30" transform="translate(45.690477 0) scale(0.996264)"/>
       <use xlink:href="#CMR17-30" transform="translate(91.380954 0) scale(0.996264)"/>
       <use xlink:href="#CMR17-30" transform="translate(137.071431 0) scale(0.996264)"/>
      </g>
     </g>
    </g>
    <g id="xtick_4">
     <g id="line2d_4">
      <defs>
       <path id="m74e9fdef22" d="M 0 0 
L 0 2 
" style="stroke: #000000; stroke-width: 0.6"/>
      </defs>
      <g>
       <use xlink:href="#m74e9fdef22" x="101.974138" y="228.596704" style="stroke: #000000; stroke-width: 0.6"/>
      </g>
     </g>
    </g>
    <g id="xtick_5">
     <g id="line2d_5">
      <g>
       <use xlink:href="#m74e9fdef22" x="133.166335" y="228.596704" style="stroke: #000000; stroke-width: 0.6"/>
      </g>
     </g>
    </g>
    <g id="xtick_6">
     <g id="line2d_6">
      <g>
       <use xlink:href="#m74e9fdef22" x="155.297551" y="228.596704" style="stroke: #000000; stroke-width: 0.6"/>
      </g>
     </g>
    </g>
    <g id="xtick_7">
     <g id="line2d_7">
      <g>
       <use xlink:href="#m74e9fdef22" x="172.463855" y="228.596704" style="stroke: #000000; stroke-width: 0.6"/>
      </g>
     </g>
    </g>
    <g id="xtick_8">
     <g id="line2d_8">
      <g>
       <use xlink:href="#m74e9fdef22" x="186.489747" y="228.596704" style="stroke: #000000; stroke-width: 0.6"/>
      </g>
     </g>
    </g>
    <g id="xtick_9">
     <g id="line2d_9">
      <g>
       <use xlink:href="#m74e9fdef22" x="198.34847" y="228.596704" style="stroke: #000000; stroke-width: 0.6"/>
      </g>
     </g>
    </g>
    <g id="xtick_10">
     <g id="line2d_10">
      <g>
       <use xlink:href="#m74e9fdef22" x="208.620963" y="228.596704" style="stroke: #000000; stroke-width: 0.6"/>
      </g>
     </g>
    </g>
    <g id="xtick_11">
     <g id="line2d_11">
      <g>
       <use xlink:href="#m74e9fdef22" x="217.681944" y="228.596704" style="stroke: #000000; stroke-width: 0.6"/>
      </g>
     </g>
    </g>
    <g id="xtick_12">
     <g id="line2d_12">
      <g>
       <use xlink:href="#m74e9fdef22" x="279.11068" y="228.596704" style="stroke: #000000; stroke-width: 0.6"/>
      </g>
     </g>
    </g>
    <g id="xtick_13">
     <g id="line2d_13">
      <g>
       <use xlink:href="#m74e9fdef22" x="310.302876" y="228.596704" style="stroke: #000000; stroke-width: 0.6"/>
      </g>
     </g>
    </g>
    <g id="xtick_14">
     <g id="line2d_14">
      <g>
       <use xlink:href="#m74e9fdef22" x="332.434092" y="228.596704" style="stroke: #000000; stroke-width: 0.6"/>
      </g>
     </g>
    </g>
    <g id="xtick_15">
     <g id="line2d_15">
      <g>
       <use xlink:href="#m74e9fdef22" x="349.600397" y="228.596704" style="stroke: #000000; stroke-width: 0.6"/>
      </g>
     </g>
    </g>
    <g id="xtick_16">
     <g id="line2d_16">
      <g>
       <use xlink:href="#m74e9fdef22" x="363.626289" y="228.596704" style="stroke: #000000; stroke-width: 0.6"/>
      </g>
     </g>
    </g>
    <g id="xtick_17">
     <g id="line2d_17">
      <g>
       <use xlink:href="#m74e9fdef22" x="375.485012" y="228.596704" style="stroke: #000000; stroke-width: 0.6"/>
      </g>
     </g>
    </g>
    <g id="xtick_18">
     <g id="line2d_18">
      <g>
       <use xlink:href="#m74e9fdef22" x="385.757505" y="228.596704" style="stroke: #000000; stroke-width: 0.6"/>
      </g>
     </g>
    </g>
    <g id="xtick_19">
     <g id="line2d_19">
      <g>
       <use xlink:href="#m74e9fdef22" x="394.818486" y="228.596704" style="stroke: #000000; stroke-width: 0.6"/>
      </g>
     </g>
    </g>
    <g id="text_4">
     <!-- Frequency (Hz) -->
     <g transform="translate(164.038661 272.235356) scale(0.2 -0.2)">
      <defs>
       <path id="CMR17-46" d="M 3482 4339 
L 326 4339 
L 326 4172 
C 768 4172 838 4172 838 3883 
L 838 450 
C 838 166 768 166 326 166 
L 326 0 
C 512 12 870 12 1069 12 
C 1331 12 1638 12 1901 0 
L 1901 166 
L 1760 166 
C 1274 166 1261 229 1261 456 
L 1261 2073 
L 1837 2073 
C 2432 2073 2490 1865 2490 1334 
L 2605 1334 
L 2605 2991 
L 2490 2991 
C 2490 2451 2432 2240 1837 2240 
L 1261 2240 
L 1261 3922 
C 1261 4140 1274 4172 1530 4172 
L 2355 4172 
C 3322 4172 3430 3774 3520 2920 
L 3635 2920 
L 3482 4339 
z
" transform="scale(0.015625)"/>
       <path id="CMR17-72" d="M 960 1517 
C 960 2134 1222 2713 1702 2713 
C 1747 2713 1792 2707 1837 2687 
C 1837 2687 1696 2642 1696 2475 
C 1696 2321 1818 2257 1914 2257 
C 1990 2257 2131 2302 2131 2482 
C 2131 2687 1926 2816 1709 2816 
C 1222 2816 1011 2340 947 2115 
L 941 2115 
L 941 2816 
L 198 2745 
L 198 2578 
C 576 2578 634 2540 634 2231 
L 634 443 
C 634 198 608 166 198 166 
L 198 0 
C 352 12 646 12 813 12 
C 998 12 1325 12 1498 0 
L 1498 166 
C 1037 166 960 166 960 455 
L 960 1517 
z
" transform="scale(0.015625)"/>
       <path id="CMR17-65" d="M 2438 1503 
C 2464 1529 2464 1542 2464 1606 
C 2464 2251 2118 2816 1389 2816 
C 710 2816 173 2175 173 1394 
C 173 554 781 -64 1459 -64 
C 2176 -64 2458 619 2458 755 
C 2458 800 2419 800 2406 800 
C 2362 800 2355 787 2330 709 
C 2189 270 1837 51 1504 51 
C 1229 51 954 206 781 490 
C 582 819 582 1200 582 1503 
L 2438 1503 
z
M 589 1600 
C 634 2511 1126 2713 1382 2713 
C 1818 2713 2112 2308 2118 1600 
L 589 1600 
z
" transform="scale(0.015625)"/>
       <path id="CMR17-71" d="M 2630 2816 
L 2528 2816 
L 2336 2177 
C 2189 2519 1920 2816 1491 2816 
C 838 2816 211 2228 211 1376 
C 211 529 800 -64 1440 -64 
C 1933 -64 2208 316 2291 458 
L 2291 -834 
C 2291 -1081 2266 -1114 1856 -1114 
L 1856 -1280 
C 2010 -1268 2291 -1268 2458 -1268 
C 2624 -1268 2912 -1268 3066 -1280 
L 3066 -1114 
C 2656 -1114 2630 -1088 2630 -834 
L 2630 2816 
z
M 2304 871 
C 2304 594 2074 335 2054 316 
C 1856 90 1626 38 1472 38 
C 992 38 621 652 621 1369 
C 621 2125 1043 2700 1536 2700 
C 2048 2700 2304 2112 2304 1776 
L 2304 871 
z
" transform="scale(0.015625)"/>
       <path id="CMR17-75" d="M 1882 2745 
L 1882 2579 
C 2259 2579 2317 2540 2317 2229 
L 2317 1053 
C 2317 510 2029 38 1555 38 
C 1030 38 986 355 986 691 
L 986 2816 
L 211 2745 
L 211 2579 
C 467 2579 640 2579 646 2320 
L 646 1079 
C 646 646 646 368 813 187 
C 896 103 1056 -64 1517 -64 
C 2061 -64 2272 400 2323 536 
L 2330 536 
L 2330 -64 
L 3091 -13 
L 3091 154 
C 2714 154 2656 193 2656 503 
L 2656 2816 
L 1882 2745 
z
" transform="scale(0.015625)"/>
       <path id="CMR17-6e" d="M 2656 1954 
C 2656 2282 2592 2816 1837 2816 
C 1331 2816 1069 2424 973 2166 
L 966 2166 
L 966 2816 
L 211 2745 
L 211 2578 
C 589 2578 646 2540 646 2231 
L 646 443 
C 646 198 621 166 211 166 
L 211 0 
C 365 12 646 12 813 12 
C 979 12 1267 12 1421 0 
L 1421 166 
C 1011 166 986 192 986 443 
L 986 1678 
C 986 2269 1344 2713 1792 2713 
C 2266 2713 2317 2289 2317 1980 
L 2317 443 
C 2317 198 2291 166 1882 166 
L 1882 0 
C 2035 12 2317 12 2483 12 
C 2650 12 2938 12 3091 0 
L 3091 166 
C 2682 166 2656 192 2656 443 
L 2656 1954 
z
" transform="scale(0.015625)"/>
       <path id="CMR17-63" d="M 2234 2240 
C 2112 2240 1933 2240 1933 2015 
C 1933 1836 2080 1785 2163 1785 
C 2208 1785 2394 1804 2394 2028 
C 2394 2476 1958 2816 1466 2816 
C 787 2816 211 2201 211 1379 
C 211 521 813 -64 1466 -64 
C 2259 -64 2458 676 2458 747 
C 2458 773 2451 792 2406 792 
C 2362 792 2355 786 2330 702 
C 2163 180 1798 51 1523 51 
C 1114 51 621 431 621 1385 
C 621 2358 1094 2700 1472 2700 
C 1722 2700 2093 2582 2234 2240 
z
" transform="scale(0.015625)"/>
       <path id="CMR17-79" d="M 2496 2183 
C 2656 2579 2944 2585 3034 2585 
L 3034 2752 
C 2912 2745 2752 2739 2630 2739 
C 2496 2739 2285 2739 2157 2752 
L 2157 2585 
C 2400 2566 2406 2384 2406 2332 
C 2406 2268 2394 2235 2362 2158 
L 1664 409 
L 902 2300 
C 870 2378 870 2423 870 2430 
C 870 2572 1018 2585 1171 2585 
L 1171 2752 
C 1018 2739 742 2739 582 2739 
C 410 2739 205 2739 64 2752 
L 64 2585 
C 410 2585 448 2553 531 2345 
L 1485 -31 
C 1197 -795 1030 -1242 627 -1242 
C 557 -1242 397 -1223 282 -1106 
C 429 -1093 493 -1002 493 -892 
C 493 -782 416 -685 288 -685 
C 147 -685 77 -782 77 -899 
C 77 -1158 339 -1344 627 -1344 
C 998 -1344 1229 -983 1357 -659 
L 2496 2183 
z
" transform="scale(0.015625)"/>
       <path id="CMR17-28" d="M 1958 -1562 
C 1958 -1556 1958 -1543 1939 -1524 
C 1645 -1223 858 -403 858 1596 
C 858 3595 1632 4408 1946 4729 
C 1946 4735 1958 4748 1958 4767 
C 1958 4787 1939 4800 1914 4800 
C 1843 4800 1299 4325 986 3620 
C 666 2909 576 2218 576 1603 
C 576 1141 621 360 1005 -467 
C 1312 -1133 1837 -1600 1914 -1600 
C 1946 -1600 1958 -1588 1958 -1562 
z
" transform="scale(0.015625)"/>
       <path id="CMR17-48" d="M 3590 3898 
C 3590 4185 3661 4185 4102 4185 
L 4102 4352 
C 3917 4339 3578 4339 3379 4339 
C 3181 4339 2842 4339 2656 4352 
L 2656 4185 
C 3098 4185 3168 4185 3168 3898 
L 3168 2342 
L 1261 2342 
L 1261 3898 
C 1261 4185 1331 4185 1773 4185 
L 1773 4352 
C 1587 4339 1248 4339 1050 4339 
C 851 4339 512 4339 326 4352 
L 326 4185 
C 768 4185 838 4185 838 3898 
L 838 452 
C 838 166 768 166 326 166 
L 326 0 
C 512 12 851 12 1050 12 
C 1248 12 1587 12 1773 0 
L 1773 166 
C 1331 166 1261 166 1261 452 
L 1261 2176 
L 3168 2176 
L 3168 452 
C 3168 166 3098 166 2656 166 
L 2656 0 
C 2842 12 3181 12 3379 12 
C 3578 12 3917 12 4102 0 
L 4102 166 
C 3661 166 3590 166 3590 452 
L 3590 3898 
z
" transform="scale(0.015625)"/>
       <path id="CMR17-7a" d="M 2310 2604 
C 2362 2668 2362 2681 2362 2694 
C 2362 2752 2336 2752 2221 2752 
L 275 2752 
L 211 1760 
L 326 1760 
C 371 2380 442 2649 1178 2649 
L 1958 2649 
L 128 96 
C 128 6 134 0 269 0 
L 2291 0 
L 2381 1152 
L 2266 1152 
C 2214 441 2131 115 1350 115 
L 531 115 
L 2310 2604 
z
" transform="scale(0.015625)"/>
       <path id="CMR17-29" d="M 1683 1596 
C 1683 2057 1638 2839 1254 3665 
C 947 4332 422 4800 346 4800 
C 326 4800 301 4793 301 4761 
C 301 4748 307 4742 314 4729 
C 621 4408 1402 3595 1402 1603 
C 1402 -396 627 -1210 314 -1530 
C 307 -1543 301 -1549 301 -1562 
C 301 -1594 326 -1600 346 -1600 
C 416 -1600 960 -1127 1274 -422 
C 1594 289 1683 981 1683 1596 
z
" transform="scale(0.015625)"/>
      </defs>
      <use xlink:href="#CMR17-46" transform="scale(0.996264)"/>
      <use xlink:href="#CMR17-72" transform="translate(52.176591 0) scale(0.996264)"/>
      <use xlink:href="#CMR17-65" transform="translate(87.457359 0) scale(0.996264)"/>
      <use xlink:href="#CMR17-71" transform="translate(127.943019 0) scale(0.996264)"/>
      <use xlink:href="#CMR17-75" transform="translate(176.235935 0) scale(0.996264)"/>
      <use xlink:href="#CMR17-65" transform="translate(227.131305 0) scale(0.996264)"/>
      <use xlink:href="#CMR17-6e" transform="translate(267.616966 0) scale(0.996264)"/>
      <use xlink:href="#CMR17-63" transform="translate(318.512335 0) scale(0.996264)"/>
      <use xlink:href="#CMR17-79" transform="translate(358.997996 0) scale(0.996264)"/>
      <use xlink:href="#CMR17-28" transform="translate(437.366878 0) scale(0.996264)"/>
      <use xlink:href="#CMR17-48" transform="translate(472.647646 0) scale(0.996264)"/>
      <use xlink:href="#CMR17-7a" transform="translate(541.720076 0) scale(0.996264)"/>
      <use xlink:href="#CMR17-29" transform="translate(582.205736 0) scale(0.996264)"/>
     </g>
    </g>
   </g>
   <g id="matplotlib.axis_2">
    <g id="ytick_1">
     <g id="line2d_20">
      <defs>
       <path id="m4cce353ece" d="M 0 0 
L -3.5 0 
" style="stroke: #000000; stroke-width: 0.8"/>
      </defs>
      <g>
       <use xlink:href="#m4cce353ece" x="48.650726" y="181.245778" style="stroke: #000000; stroke-width: 0.8"/>
      </g>
     </g>
     <g id="text_5">
      <!-- $\mathdefault{2}$ -->
      <g transform="translate(32.51263 188.164276) scale(0.2 -0.2)">
       <defs>
        <path id="CMR17-32" d="M 2669 990 
L 2554 990 
C 2490 537 2438 460 2413 422 
C 2381 371 1920 371 1830 371 
L 602 371 
C 832 620 1280 1073 1824 1596 
C 2214 1966 2669 2400 2669 3033 
C 2669 3788 2067 4224 1395 4224 
C 691 4224 262 3603 262 3027 
C 262 2777 448 2745 525 2745 
C 589 2745 781 2783 781 3007 
C 781 3206 614 3264 525 3264 
C 486 3264 448 3257 422 3244 
C 544 3788 915 4057 1306 4057 
C 1862 4057 2227 3616 2227 3033 
C 2227 2477 1901 1998 1536 1583 
L 262 147 
L 262 0 
L 2515 0 
L 2669 990 
z
" transform="scale(0.015625)"/>
       </defs>
       <use xlink:href="#CMR17-32" transform="scale(0.996264)"/>
      </g>
     </g>
    </g>
    <g id="ytick_2">
     <g id="line2d_21">
      <g>
       <use xlink:href="#m4cce353ece" x="48.650726" y="124.386101" style="stroke: #000000; stroke-width: 0.8"/>
      </g>
     </g>
     <g id="text_6">
      <!-- $\mathdefault{5}$ -->
      <g transform="translate(32.51263 131.304599) scale(0.2 -0.2)">
       <defs>
        <path id="CMR17-35" d="M 730 3750 
C 794 3724 1056 3641 1325 3641 
C 1920 3641 2246 3961 2432 4140 
C 2432 4191 2432 4224 2394 4224 
C 2387 4224 2374 4224 2323 4198 
C 2099 4102 1837 4032 1517 4032 
C 1325 4032 1037 4055 723 4191 
C 653 4224 640 4224 634 4224 
C 602 4224 595 4217 595 4090 
L 595 2231 
C 595 2113 595 2080 659 2080 
C 691 2080 704 2093 736 2139 
C 941 2435 1222 2560 1542 2560 
C 1766 2560 2246 2415 2246 1293 
C 2246 1087 2246 716 2054 422 
C 1894 159 1645 25 1370 25 
C 947 25 518 319 403 812 
C 429 806 480 793 506 793 
C 589 793 749 838 749 1036 
C 749 1209 627 1280 506 1280 
C 358 1280 262 1190 262 1011 
C 262 454 704 -128 1382 -128 
C 2042 -128 2669 441 2669 1267 
C 2669 2054 2170 2662 1549 2662 
C 1222 2662 947 2540 730 2304 
L 730 3750 
z
" transform="scale(0.015625)"/>
       </defs>
       <use xlink:href="#CMR17-35" transform="scale(0.996264)"/>
      </g>
     </g>
    </g>
    <g id="ytick_3">
     <g id="line2d_22">
      <g>
       <use xlink:href="#m4cce353ece" x="48.650726" y="67.526423" style="stroke: #000000; stroke-width: 0.8"/>
      </g>
     </g>
     <g id="text_7">
      <!-- $\mathdefault{8}$ -->
      <g transform="translate(32.51263 74.444922) scale(0.2 -0.2)">
       <defs>
        <path id="CMR17-38" d="M 1741 2289 
C 2144 2494 2554 2803 2554 3298 
C 2554 3884 1990 4224 1472 4224 
C 890 4224 378 3800 378 3215 
C 378 3054 416 2777 666 2533 
C 730 2469 998 2276 1171 2154 
C 883 2006 211 1652 211 945 
C 211 282 838 -128 1459 -128 
C 2144 -128 2720 366 2720 1022 
C 2720 1607 2330 1877 2074 2051 
L 1741 2289 
z
M 902 2855 
C 851 2887 595 3086 595 3388 
C 595 3781 998 4076 1459 4076 
C 1965 4076 2336 3716 2336 3298 
C 2336 2700 1670 2359 1638 2359 
C 1632 2359 1626 2359 1574 2398 
L 902 2855 
z
M 2080 1536 
C 2176 1466 2483 1253 2483 861 
C 2483 385 2010 25 1472 25 
C 890 25 448 443 448 951 
C 448 1459 838 1884 1280 2083 
L 2080 1536 
z
" transform="scale(0.015625)"/>
       </defs>
       <use xlink:href="#CMR17-38" transform="scale(0.996264)"/>
      </g>
     </g>
    </g>
    <g id="text_8">
     <!-- Cross Power Spectral Density -->
     <g transform="translate(24.636997 242.895932) rotate(-90) scale(0.2 -0.2)">
      <defs>
       <path id="CMR17-43" d="M 3974 4351 
C 3974 4467 3968 4473 3930 4473 
C 3904 4473 3898 4467 3853 4390 
L 3571 3849 
C 3258 4249 2874 4480 2381 4480 
C 1286 4480 294 3507 294 2179 
C 294 837 1286 -128 2387 -128 
C 3366 -128 3974 741 3974 1482 
C 3974 1547 3974 1573 3917 1573 
C 3866 1573 3866 1553 3859 1495 
C 3808 592 3168 38 2477 38 
C 1824 38 781 502 781 2179 
C 781 3862 1843 4313 2464 4313 
C 3187 4313 3712 3681 3834 2785 
C 3846 2707 3846 2695 3904 2695 
C 3974 2695 3974 2707 3974 2824 
L 3974 4351 
z
" transform="scale(0.015625)"/>
       <path id="CMR17-6f" d="M 2758 1356 
C 2758 2176 2163 2816 1466 2816 
C 768 2816 173 2176 173 1356 
C 173 550 768 -64 1466 -64 
C 2163 -64 2758 550 2758 1356 
z
M 1466 51 
C 1165 51 909 230 762 480 
C 602 768 582 1126 582 1408 
C 582 1676 595 2009 762 2297 
C 890 2508 1139 2713 1466 2713 
C 1754 2713 1997 2553 2150 2329 
C 2349 2028 2349 1606 2349 1408 
C 2349 1158 2336 774 2163 467 
C 1984 172 1709 51 1466 51 
z
" transform="scale(0.015625)"/>
       <path id="CMR17-73" d="M 1978 2688 
C 1978 2803 1971 2809 1933 2809 
C 1907 2809 1901 2803 1824 2707 
C 1805 2681 1747 2617 1728 2592 
C 1523 2809 1235 2816 1126 2816 
C 416 2816 160 2444 160 2073 
C 160 1497 813 1363 998 1324 
C 1402 1241 1542 1216 1677 1100 
C 1760 1024 1901 883 1901 652 
C 1901 384 1747 38 1158 38 
C 602 38 403 460 288 1024 
C 269 1113 269 1120 218 1120 
C 166 1120 160 1113 160 985 
L 160 64 
C 160 -52 166 -58 205 -58 
C 237 -58 243 -52 275 0 
C 314 57 410 211 448 275 
C 576 102 800 -64 1158 -64 
C 1792 -64 2131 281 2131 780 
C 2131 1107 1958 1280 1875 1356 
C 1683 1555 1459 1600 1190 1651 
C 838 1728 390 1817 390 2208 
C 390 2374 480 2726 1126 2726 
C 1811 2726 1850 2086 1862 1881 
C 1869 1849 1901 1843 1920 1843 
C 1978 1843 1978 1862 1978 1971 
L 1978 2688 
z
" transform="scale(0.015625)"/>
       <path id="CMR17-50" d="M 1267 2048 
L 2291 2048 
C 3117 2048 3718 2583 3718 3187 
C 3718 3791 3130 4352 2291 4352 
L 333 4352 
L 333 4185 
C 774 4185 845 4185 845 3899 
L 845 453 
C 845 166 774 166 333 166 
L 333 0 
C 518 12 858 12 1056 12 
C 1254 12 1594 12 1779 0 
L 1779 166 
C 1338 166 1267 166 1267 453 
L 1267 2048 
z
M 1254 2182 
L 1254 3937 
C 1254 4153 1267 4185 1523 4185 
L 2170 4185 
C 2995 4185 3232 3715 3232 3187 
C 3232 2608 2950 2182 2170 2182 
L 1254 2182 
z
" transform="scale(0.015625)"/>
       <path id="CMR17-77" d="M 3725 2186 
C 3853 2566 4109 2579 4205 2585 
L 4205 2752 
C 4077 2745 3949 2739 3821 2739 
C 3699 2739 3424 2739 3315 2752 
L 3315 2585 
C 3514 2572 3622 2456 3622 2296 
C 3622 2251 3610 2193 3597 2148 
L 2995 398 
L 2342 2296 
C 2330 2341 2310 2392 2310 2418 
C 2310 2585 2528 2585 2630 2585 
L 2630 2752 
C 2483 2739 2214 2739 2061 2739 
C 1901 2739 1734 2739 1587 2752 
L 1587 2585 
C 1939 2585 1939 2572 2074 2167 
L 1485 443 
L 851 2302 
C 819 2386 819 2399 819 2418 
C 819 2585 1037 2585 1139 2585 
L 1139 2752 
C 986 2739 717 2739 557 2739 
C 416 2739 198 2739 64 2752 
L 64 2585 
C 346 2585 416 2566 486 2353 
L 1274 38 
C 1299 -45 1318 -64 1370 -64 
C 1414 -64 1440 -52 1472 44 
L 2131 1987 
L 2797 44 
C 2829 -52 2854 -64 2899 -64 
C 2950 -64 2970 -45 2995 38 
L 3725 2186 
z
" transform="scale(0.015625)"/>
       <path id="CMR17-53" d="M 2803 4351 
C 2803 4467 2797 4473 2758 4473 
C 2720 4473 2707 4447 2682 4390 
L 2490 3965 
C 2246 4320 1875 4480 1472 4480 
C 819 4480 294 3958 294 3301 
C 294 3101 339 2817 557 2546 
C 794 2250 1018 2198 1530 2063 
C 1722 2011 2042 1927 2106 1901 
C 2470 1747 2662 1360 2662 999 
C 2662 534 2336 38 1779 38 
C 1094 38 454 425 410 1328 
C 403 1431 397 1437 352 1437 
C 301 1437 294 1431 294 1302 
L 294 0 
C 294 -116 301 -122 339 -122 
C 384 -122 397 -90 486 109 
C 493 128 493 141 614 386 
C 934 -39 1472 -128 1779 -128 
C 2477 -128 2970 457 2970 1141 
C 2970 1476 2848 1734 2778 1850 
C 2509 2263 2221 2340 1914 2417 
C 1869 2437 1856 2437 1498 2527 
C 1152 2617 1005 2662 845 2836 
C 666 3036 602 3243 602 3449 
C 602 3868 934 4326 1478 4326 
C 2157 4326 2579 3842 2675 3036 
C 2694 2920 2701 2914 2746 2914 
C 2803 2914 2803 2933 2803 3043 
L 2803 4351 
z
" transform="scale(0.015625)"/>
       <path id="CMR17-70" d="M 1408 -1114 
C 998 -1114 973 -1088 973 -834 
L 973 380 
C 1158 109 1427 -64 1766 -64 
C 2406 -64 3053 503 3053 1382 
C 3053 2196 2496 2816 1837 2816 
C 1453 2816 1139 2603 960 2345 
L 960 2816 
L 198 2745 
L 198 2577 
C 576 2577 634 2539 634 2228 
L 634 -834 
C 634 -1081 608 -1114 198 -1114 
L 198 -1280 
C 352 -1268 634 -1268 800 -1268 
C 966 -1268 1254 -1268 1408 -1280 
L 1408 -1114 
z
M 973 2015 
C 973 2106 973 2241 1222 2481 
C 1254 2506 1472 2700 1792 2700 
C 2259 2700 2643 2112 2643 1376 
C 2643 639 2234 38 1728 38 
C 1498 38 1248 148 1056 451 
C 973 594 973 632 973 736 
L 973 2015 
z
" transform="scale(0.015625)"/>
       <path id="CMR17-74" d="M 966 2585 
L 1862 2585 
L 1862 2752 
L 966 2752 
L 966 3968 
L 851 3968 
C 838 3292 614 2700 70 2687 
L 70 2585 
L 627 2585 
L 627 778 
C 627 655 627 -64 1370 -64 
C 1747 -64 1965 308 1965 784 
L 1965 1151 
L 1850 1151 
L 1850 790 
C 1850 347 1677 51 1408 51 
C 1222 51 966 179 966 765 
L 966 2585 
z
" transform="scale(0.015625)"/>
       <path id="CMR17-61" d="M 2304 1656 
C 2304 2048 2304 2275 2035 2534 
C 1798 2751 1523 2816 1306 2816 
C 800 2816 435 2408 435 1977 
C 435 1740 627 1728 666 1728 
C 749 1728 896 1779 896 1958 
C 896 2118 774 2188 666 2188 
C 640 2188 608 2182 589 2176 
C 723 2594 1069 2713 1293 2713 
C 1613 2713 1965 2421 1965 1875 
L 1965 1632 
C 1587 1619 1133 1568 774 1373 
C 371 1147 256 822 256 576 
C 256 77 832 -64 1171 -64 
C 1523 -64 1850 135 1990 505 
C 2003 219 2182 -39 2464 -39 
C 2598 -39 2938 51 2938 563 
L 2938 926 
L 2822 926 
L 2822 557 
C 2822 161 2650 109 2566 109 
C 2304 109 2304 446 2304 732 
L 2304 1656 
z
M 1965 887 
C 1965 323 1568 38 1216 38 
C 896 38 646 278 646 576 
C 646 771 730 1114 1101 1322 
C 1408 1497 1760 1523 1965 1536 
L 1965 887 
z
" transform="scale(0.015625)"/>
       <path id="CMR17-6c" d="M 979 4416 
L 218 4345 
L 218 4179 
C 595 4179 653 4141 653 3835 
L 653 439 
C 653 198 627 166 218 166 
L 218 0 
C 371 12 653 12 813 12 
C 979 12 1261 12 1414 0 
L 1414 166 
C 1005 166 979 191 979 439 
L 979 4416 
z
" transform="scale(0.015625)"/>
       <path id="CMR17-44" d="M 333 4352 
L 333 4185 
C 774 4185 845 4185 845 3898 
L 845 453 
C 845 166 774 166 333 166 
L 333 0 
L 2368 0 
C 3398 0 4224 943 4224 2140 
C 4224 3344 3411 4352 2368 4352 
L 333 4352 
z
M 1523 166 
C 1267 166 1254 198 1254 414 
L 1254 3936 
C 1254 4153 1267 4185 1523 4185 
L 2240 4185 
C 2771 4185 3750 3873 3750 2140 
C 3750 1242 3488 879 3366 707 
C 3213 510 2848 166 2240 166 
L 1523 166 
z
" transform="scale(0.015625)"/>
       <path id="CMR17-69" d="M 992 3961 
C 992 4102 877 4224 730 4224 
C 589 4224 467 4108 467 3961 
C 467 3820 582 3699 730 3699 
C 870 3699 992 3814 992 3961 
z
M 243 2745 
L 243 2579 
C 602 2579 653 2540 653 2231 
L 653 443 
C 653 198 627 166 218 166 
L 218 0 
C 371 12 646 12 806 12 
C 960 12 1222 12 1370 0 
L 1370 166 
C 992 166 979 205 979 436 
L 979 2816 
L 243 2745 
z
" transform="scale(0.015625)"/>
      </defs>
      <use xlink:href="#CMR17-43" transform="scale(0.996264)"/>
      <use xlink:href="#CMR17-72" transform="translate(66.509881 0) scale(0.996264)"/>
      <use xlink:href="#CMR17-6f" transform="translate(101.790648 0) scale(0.996264)"/>
      <use xlink:href="#CMR17-73" transform="translate(147.481125 0) scale(0.996264)"/>
      <use xlink:href="#CMR17-73" transform="translate(183.282463 0) scale(0.996264)"/>
      <use xlink:href="#CMR17-50" transform="translate(249.159767 0) scale(0.996264)"/>
      <use xlink:href="#CMR17-6f" transform="translate(309.143614 0) scale(0.996264)"/>
      <use xlink:href="#CMR17-77" transform="translate(352.231637 0) scale(0.996264)"/>
      <use xlink:href="#CMR17-65" transform="translate(416.139063 0) scale(0.996264)"/>
      <use xlink:href="#CMR17-72" transform="translate(456.624724 0) scale(0.996264)"/>
      <use xlink:href="#CMR17-53" transform="translate(521.981458 0) scale(0.996264)"/>
      <use xlink:href="#CMR17-70" transform="translate(572.876828 0) scale(0.996264)"/>
      <use xlink:href="#CMR17-65" transform="translate(626.374636 0) scale(0.996264)"/>
      <use xlink:href="#CMR17-63" transform="translate(666.860297 0) scale(0.996264)"/>
      <use xlink:href="#CMR17-74" transform="translate(707.345957 0) scale(0.996264)"/>
      <use xlink:href="#CMR17-72" transform="translate(742.626725 0) scale(0.996264)"/>
      <use xlink:href="#CMR17-61" transform="translate(777.907493 0) scale(0.996264)"/>
      <use xlink:href="#CMR17-6c" transform="translate(823.59797 0) scale(0.996264)"/>
      <use xlink:href="#CMR17-44" transform="translate(878.544995 0) scale(0.996264)"/>
      <use xlink:href="#CMR17-65" transform="translate(948.938551 0) scale(0.996264)"/>
      <use xlink:href="#CMR17-6e" transform="translate(989.424211 0) scale(0.996264)"/>
      <use xlink:href="#CMR17-73" transform="translate(1040.319581 0) scale(0.996264)"/>
      <use xlink:href="#CMR17-69" transform="translate(1076.120919 0) scale(0.996264)"/>
      <use xlink:href="#CMR17-74" transform="translate(1100.991977 0) scale(0.996264)"/>
      <use xlink:href="#CMR17-79" transform="translate(1133.670291 0) scale(0.996264)"/>
     </g>
    </g>
    <g id="text_9">
     <!-- $\times\mathdefault{10^{−7}}\mathdefault{}$ -->
     <g transform="translate(48.650726 17.802655) scale(0.1 -0.1)">
      <defs>
       <path id="CMSY10-2" d="M 2490 1775 
L 1210 3046 
C 1133 3123 1120 3136 1069 3136 
C 1005 3136 941 3078 941 3008 
C 941 2963 954 2950 1024 2880 
L 2304 1596 
L 1024 313 
C 954 243 941 230 941 185 
C 941 115 1005 57 1069 57 
C 1120 57 1133 70 1210 147 
L 2483 1418 
L 3808 95 
C 3821 89 3866 57 3904 57 
C 3981 57 4032 115 4032 185 
C 4032 198 4032 223 4013 255 
C 4006 268 2989 1271 2669 1596 
L 3840 2765 
C 3872 2803 3968 2886 4000 2925 
C 4006 2937 4032 2963 4032 3008 
C 4032 3078 3981 3136 3904 3136 
C 3853 3136 3827 3110 3757 3040 
L 2490 1775 
z
" transform="scale(0.015625)"/>
       <path id="CMSY10-0" d="M 4218 1472 
C 4326 1472 4442 1472 4442 1600 
C 4442 1728 4326 1728 4218 1728 
L 755 1728 
C 646 1728 531 1728 531 1600 
C 531 1472 646 1472 755 1472 
L 4218 1472 
z
" transform="scale(0.015625)"/>
       <path id="CMR17-37" d="M 2886 3955 
L 2886 4096 
L 1382 4096 
C 634 4096 621 4166 595 4288 
L 480 4288 
L 294 3104 
L 410 3104 
C 429 3226 474 3552 550 3673 
C 589 3724 1062 3724 1171 3724 
L 2579 3724 
L 1869 2670 
C 1395 1961 1069 1003 1069 166 
C 1069 89 1069 -128 1299 -128 
C 1530 -128 1530 89 1530 172 
L 1530 466 
C 1530 1514 1709 2204 2003 2644 
L 2886 3955 
z
" transform="scale(0.015625)"/>
      </defs>
      <use xlink:href="#CMSY10-2" transform="scale(0.996264)"/>
      <use xlink:href="#CMR17-31" transform="translate(77.487468 0) scale(0.996264)"/>
      <use xlink:href="#CMR17-30" transform="translate(123.177945 0) scale(0.996264)"/>
      <use xlink:href="#CMSY10-0" transform="translate(168.868422 36.153639) scale(0.697382)"/>
      <use xlink:href="#CMR17-37" transform="translate(223.109415 36.153639) scale(0.697382)"/>
     </g>
    </g>
   </g>
   <g id="line2d_23">
    <path d="M -1 193.894834 
L 24.713355 193.208578 
L 71.524211 191.900243 
L 95.461584 191.560601 
L 109.824005 191.258819 
L 118.335072 190.876448 
L 125.250311 190.356462 
L 131.101668 189.70292 
L 136.421084 188.879982 
L 141.208559 187.898077 
L 145.464088 186.782336 
L 149.187679 185.57313 
L 152.379332 184.325887 
L 155.570982 182.844116 
L 158.23069 181.396047 
L 160.890396 179.718105 
L 163.550107 177.768708 
L 166.209815 175.496928 
L 168.337581 173.405862 
L 170.465347 171.030476 
L 172.593111 168.32577 
L 174.720877 165.239411 
L 176.848641 161.711339 
L 178.976412 157.674055 
L 181.104175 153.054995 
L 183.23194 147.782058 
L 185.359708 141.795011 
L 187.487473 135.067299 
L 189.615241 127.643635 
L 193.338828 113.621727 
L 195.4666 105.875869 
L 197.062426 100.85051 
L 198.126309 98.149497 
L 199.190186 96.157336 
L 199.722131 95.477126 
L 200.254071 95.032247 
L 200.786013 94.838994 
L 201.317957 94.911278 
L 201.849894 95.260013 
L 202.381837 95.892705 
L 202.913779 96.81296 
L 203.445724 98.020357 
L 204.509602 101.273652 
L 205.573488 105.565686 
L 206.63737 110.751048 
L 208.233196 119.785817 
L 215.148434 161.497933 
L 216.744261 169.374168 
L 218.340083 176.291711 
L 219.935911 182.288538 
L 221.531737 187.442519 
L 223.127558 191.848556 
L 224.723386 195.604256 
L 226.319209 198.802059 
L 227.915034 201.525274 
L 229.510856 203.846833 
L 231.106683 205.82933 
L 232.702509 207.525887 
L 234.830273 209.419408 
L 236.958041 210.969814 
L 239.085809 212.245293 
L 241.745513 213.533744 
L 244.405223 214.556477 
L 247.596873 215.51692 
L 251.32046 216.363814 
L 255.575993 217.072962 
L 260.363471 217.641567 
L 266.214826 218.116488 
L 274.193947 218.521333 
L 284.83278 218.817707 
L 300.791031 219.017645 
L 330.047814 219.124695 
L 402.923809 219.15152 
L 402.923809 219.15152 
" clip-path="url(#p4a197ed0e8)" style="fill: none; stroke: #ffa353; stroke-width: 12; stroke-linecap: square"/>
   </g>
   <g id="line2d_24">
    <path d="M -1 193.894834 
L 24.713355 193.208578 
L 71.524211 191.900243 
L 95.461584 191.560601 
L 109.824005 191.258819 
L 118.335072 190.876448 
L 125.250311 190.356462 
L 131.101668 189.70292 
L 136.421084 188.879982 
L 141.208559 187.898077 
L 145.464088 186.782336 
L 149.187679 185.57313 
L 152.379332 184.325887 
L 155.570982 182.844116 
L 158.23069 181.396047 
L 160.890396 179.718105 
L 163.550107 177.768708 
L 166.209815 175.496928 
L 168.337581 173.405862 
L 170.465347 171.030476 
L 172.593111 168.32577 
L 174.720877 165.239411 
L 176.848641 161.711339 
L 178.976412 157.674055 
L 181.104175 153.054995 
L 183.23194 147.782058 
L 185.359708 141.795011 
L 187.487473 135.067299 
L 189.615241 127.643635 
L 193.338828 113.621727 
L 195.4666 105.875869 
L 197.062426 100.85051 
L 198.126309 98.149497 
L 199.190186 96.157336 
L 199.722131 95.477126 
L 200.254071 95.032247 
L 200.786013 94.838994 
L 201.317957 94.911278 
L 201.849894 95.260013 
L 202.381837 95.892705 
L 202.913779 96.81296 
L 203.445724 98.020357 
L 204.509602 101.273652 
L 205.573488 105.565686 
L 206.63737 110.751048 
L 208.233196 119.785817 
L 215.148434 161.497933 
L 216.744261 169.374168 
L 218.340083 176.291711 
L 219.935911 182.288538 
L 221.531737 187.442519 
L 223.127558 191.848556 
L 224.723386 195.604256 
L 226.319209 198.802059 
L 227.915034 201.525274 
L 229.510856 203.846833 
L 231.106683 205.82933 
L 232.702509 207.525887 
L 234.830273 209.419408 
L 236.958041 210.969814 
L 239.085809 212.245293 
L 241.745513 213.533744 
L 244.405223 214.556477 
L 247.596873 215.51692 
L 251.32046 216.363814 
L 255.575993 217.072962 
L 260.363471 217.641567 
L 266.214826 218.116488 
L 274.193947 218.521333 
L 284.83278 218.817707 
L 300.791031 219.017645 
L 330.047814 219.124695 
L 402.923809 219.15152 
L 402.923809 219.15152 
" clip-path="url(#p4a197ed0e8)" style="fill: none; stroke: #095400; stroke-width: 3.5; stroke-linecap: square"/>
   </g>
   <g id="line2d_25">
    <path d="M -1 193.892992 
L 6.618325 193.71304 
L 15.625266 193.473358 
L 24.63221 193.211014 
L 33.639156 192.933209 
L 42.646098 192.65207 
L 51.653042 192.381885 
L 60.659982 192.138816 
L 69.666926 191.936313 
L 78.673866 191.779387 
L 87.68081 191.658635 
L 96.687751 191.543406 
L 105.694697 191.37603 
L 114.701642 191.067656 
L 123.70858 190.493165 
L 132.715525 189.479127 
L 141.722464 187.776586 
L 150.729409 184.997373 
L 159.73635 180.476845 
L 168.743299 172.976132 
L 177.750237 160.066924 
L 186.757184 137.459044 
L 195.764125 104.870394 
L 204.771064 102.236626 
L 213.778008 153.992802 
L 222.784952 190.960777 
L 231.791894 206.590037 
L 240.798838 213.109283 
L 249.805782 216.049302 
L 258.812723 217.478773 
L 267.819669 218.216295 
L 276.826612 218.614361 
L 285.83355 218.836683 
L 294.840494 218.964136 
L 303.847435 219.038693 
L 312.854379 219.082998 
L 321.861327 219.109659 
L 330.868266 219.125864 
L 339.875212 219.135795 
L 348.882152 219.141925 
L 357.889096 219.145731 
L 366.896035 219.148108 
L 375.902979 219.1496 
L 384.909923 219.150541 
L 393.916866 219.151139 
L 402.923809 219.15152 
" clip-path="url(#p4a197ed0e8)" style="fill: none"/>
    <defs>
     <path id="me7088da6fd" d="M -4 4 
L 4 4 
L 4 -4 
L -4 -4 
z
" style="stroke: #1b3b9d; stroke-linejoin: miter"/>
    </defs>
    <g clip-path="url(#p4a197ed0e8)">
     <use xlink:href="#me7088da6fd" x="-1" y="193.892992" style="fill-opacity: 0; stroke: #1b3b9d; stroke-linejoin: miter"/>
     <use xlink:href="#me7088da6fd" x="6.618325" y="193.71304" style="fill-opacity: 0; stroke: #1b3b9d; stroke-linejoin: miter"/>
     <use xlink:href="#me7088da6fd" x="15.625266" y="193.473358" style="fill-opacity: 0; stroke: #1b3b9d; stroke-linejoin: miter"/>
     <use xlink:href="#me7088da6fd" x="24.63221" y="193.211014" style="fill-opacity: 0; stroke: #1b3b9d; stroke-linejoin: miter"/>
     <use xlink:href="#me7088da6fd" x="33.639156" y="192.933209" style="fill-opacity: 0; stroke: #1b3b9d; stroke-linejoin: miter"/>
     <use xlink:href="#me7088da6fd" x="42.646098" y="192.65207" style="fill-opacity: 0; stroke: #1b3b9d; stroke-linejoin: miter"/>
     <use xlink:href="#me7088da6fd" x="51.653042" y="192.381885" style="fill-opacity: 0; stroke: #1b3b9d; stroke-linejoin: miter"/>
     <use xlink:href="#me7088da6fd" x="60.659982" y="192.138816" style="fill-opacity: 0; stroke: #1b3b9d; stroke-linejoin: miter"/>
     <use xlink:href="#me7088da6fd" x="69.666926" y="191.936313" style="fill-opacity: 0; stroke: #1b3b9d; stroke-linejoin: miter"/>
     <use xlink:href="#me7088da6fd" x="78.673866" y="191.779387" style="fill-opacity: 0; stroke: #1b3b9d; stroke-linejoin: miter"/>
     <use xlink:href="#me7088da6fd" x="87.68081" y="191.658635" style="fill-opacity: 0; stroke: #1b3b9d; stroke-linejoin: miter"/>
     <use xlink:href="#me7088da6fd" x="96.687751" y="191.543406" style="fill-opacity: 0; stroke: #1b3b9d; stroke-linejoin: miter"/>
     <use xlink:href="#me7088da6fd" x="105.694697" y="191.37603" style="fill-opacity: 0; stroke: #1b3b9d; stroke-linejoin: miter"/>
     <use xlink:href="#me7088da6fd" x="114.701642" y="191.067656" style="fill-opacity: 0; stroke: #1b3b9d; stroke-linejoin: miter"/>
     <use xlink:href="#me7088da6fd" x="123.70858" y="190.493165" style="fill-opacity: 0; stroke: #1b3b9d; stroke-linejoin: miter"/>
     <use xlink:href="#me7088da6fd" x="132.715525" y="189.479127" style="fill-opacity: 0; stroke: #1b3b9d; stroke-linejoin: miter"/>
     <use xlink:href="#me7088da6fd" x="141.722464" y="187.776586" style="fill-opacity: 0; stroke: #1b3b9d; stroke-linejoin: miter"/>
     <use xlink:href="#me7088da6fd" x="150.729409" y="184.997373" style="fill-opacity: 0; stroke: #1b3b9d; stroke-linejoin: miter"/>
     <use xlink:href="#me7088da6fd" x="159.73635" y="180.476845" style="fill-opacity: 0; stroke: #1b3b9d; stroke-linejoin: miter"/>
     <use xlink:href="#me7088da6fd" x="168.743299" y="172.976132" style="fill-opacity: 0; stroke: #1b3b9d; stroke-linejoin: miter"/>
     <use xlink:href="#me7088da6fd" x="177.750237" y="160.066924" style="fill-opacity: 0; stroke: #1b3b9d; stroke-linejoin: miter"/>
     <use xlink:href="#me7088da6fd" x="186.757184" y="137.459044" style="fill-opacity: 0; stroke: #1b3b9d; stroke-linejoin: miter"/>
     <use xlink:href="#me7088da6fd" x="195.764125" y="104.870394" style="fill-opacity: 0; stroke: #1b3b9d; stroke-linejoin: miter"/>
     <use xlink:href="#me7088da6fd" x="204.771064" y="102.236626" style="fill-opacity: 0; stroke: #1b3b9d; stroke-linejoin: miter"/>
     <use xlink:href="#me7088da6fd" x="213.778008" y="153.992802" style="fill-opacity: 0; stroke: #1b3b9d; stroke-linejoin: miter"/>
     <use xlink:href="#me7088da6fd" x="222.784952" y="190.960777" style="fill-opacity: 0; stroke: #1b3b9d; stroke-linejoin: miter"/>
     <use xlink:href="#me7088da6fd" x="231.791894" y="206.590037" style="fill-opacity: 0; stroke: #1b3b9d; stroke-linejoin: miter"/>
     <use xlink:href="#me7088da6fd" x="240.798838" y="213.109283" style="fill-opacity: 0; stroke: #1b3b9d; stroke-linejoin: miter"/>
     <use xlink:href="#me7088da6fd" x="249.805782" y="216.049302" style="fill-opacity: 0; stroke: #1b3b9d; stroke-linejoin: miter"/>
     <use xlink:href="#me7088da6fd" x="258.812723" y="217.478773" style="fill-opacity: 0; stroke: #1b3b9d; stroke-linejoin: miter"/>
     <use xlink:href="#me7088da6fd" x="267.819669" y="218.216295" style="fill-opacity: 0; stroke: #1b3b9d; stroke-linejoin: miter"/>
     <use xlink:href="#me7088da6fd" x="276.826612" y="218.614361" style="fill-opacity: 0; stroke: #1b3b9d; stroke-linejoin: miter"/>
     <use xlink:href="#me7088da6fd" x="285.83355" y="218.836683" style="fill-opacity: 0; stroke: #1b3b9d; stroke-linejoin: miter"/>
     <use xlink:href="#me7088da6fd" x="294.840494" y="218.964136" style="fill-opacity: 0; stroke: #1b3b9d; stroke-linejoin: miter"/>
     <use xlink:href="#me7088da6fd" x="303.847435" y="219.038693" style="fill-opacity: 0; stroke: #1b3b9d; stroke-linejoin: miter"/>
     <use xlink:href="#me7088da6fd" x="312.854379" y="219.082998" style="fill-opacity: 0; stroke: #1b3b9d; stroke-linejoin: miter"/>
     <use xlink:href="#me7088da6fd" x="321.861327" y="219.109659" style="fill-opacity: 0; stroke: #1b3b9d; stroke-linejoin: miter"/>
     <use xlink:href="#me7088da6fd" x="330.868266" y="219.125864" style="fill-opacity: 0; stroke: #1b3b9d; stroke-linejoin: miter"/>
     <use xlink:href="#me7088da6fd" x="339.875212" y="219.135795" style="fill-opacity: 0; stroke: #1b3b9d; stroke-linejoin: miter"/>
     <use xlink:href="#me7088da6fd" x="348.882152" y="219.141925" style="fill-opacity: 0; stroke: #1b3b9d; stroke-linejoin: miter"/>
     <use xlink:href="#me7088da6fd" x="357.889096" y="219.145731" style="fill-opacity: 0; stroke: #1b3b9d; stroke-linejoin: miter"/>
     <use xlink:href="#me7088da6fd" x="366.896035" y="219.148108" style="fill-opacity: 0; stroke: #1b3b9d; stroke-linejoin: miter"/>
     <use xlink:href="#me7088da6fd" x="375.902979" y="219.1496" style="fill-opacity: 0; stroke: #1b3b9d; stroke-linejoin: miter"/>
     <use xlink:href="#me7088da6fd" x="384.909923" y="219.150541" style="fill-opacity: 0; stroke: #1b3b9d; stroke-linejoin: miter"/>
     <use xlink:href="#me7088da6fd" x="393.916866" y="219.151139" style="fill-opacity: 0; stroke: #1b3b9d; stroke-linejoin: miter"/>
     <use xlink:href="#me7088da6fd" x="402.923809" y="219.15152" style="fill-opacity: 0; stroke: #1b3b9d; stroke-linejoin: miter"/>
    </g>
   </g>
   <g id="line2d_26">
    <path d="M -1 165.117179 
L 9.35244 147.257577 
L 21.211163 141.952146 
L 31.483656 126.291692 
L 40.544637 160.23101 
L 48.64996 181.772984 
L 62.675853 179.528273 
L 68.833492 198.746853 
L 79.842157 192.958108 
L 89.470885 204.304605 
L 98.027409 195.415957 
L 105.726772 194.005941 
L 115.999265 201.887483 
L 125.060246 192.186371 
L 133.165569 183.795343 
L 142.794298 192.930382 
L 151.350822 178.511288 
L 159.050184 187.911286 
L 169.322677 172.268368 
L 178.383658 146.750504 
L 186.488982 136.572141 
L 196.11771 95.833948 
L 204.674234 30.247839 
L 214.183784 142.801849 
L 222.64609 187.036157 
L 231.707071 207.181414 
L 241.083984 213.061019 
L 250.004711 215.25985 
L 259.003274 217.083952 
L 267.953166 218.564817 
L 276.766705 218.527692 
L 285.739515 218.519169 
L 294.722036 219.051138 
L 303.887612 219.018643 
L 312.824613 219.140366 
L 321.940721 219.057677 
L 330.879144 219.128817 
L 339.940125 219.102852 
L 348.826465 219.082849 
L 357.904712 219.137213 
L 366.888925 219.132602 
L 375.922592 219.132596 
L 384.886378 219.14135 
L 393.958165 219.134944 
L 402.846076 219.140808 
" clip-path="url(#p4a197ed0e8)" style="fill: none"/>
    <defs>
     <path id="mf351b6eb5d" d="M 0 6 
C 1.591219 6 3.117479 5.367802 4.242641 4.242641 
C 5.367802 3.117479 6 1.591219 6 0 
C 6 -1.591219 5.367802 -3.117479 4.242641 -4.242641 
C 3.117479 -5.367802 1.591219 -6 0 -6 
C -1.591219 -6 -3.117479 -5.367802 -4.242641 -4.242641 
C -5.367802 -3.117479 -6 -1.591219 -6 0 
C -6 1.591219 -5.367802 3.117479 -4.242641 4.242641 
C -3.117479 5.367802 -1.591219 6 0 6 
z
" style="stroke: #000000"/>
    </defs>
    <g clip-path="url(#p4a197ed0e8)">
     <use xlink:href="#mf351b6eb5d" x="-1" y="165.117179" style="fill-opacity: 0; stroke: #000000"/>
     <use xlink:href="#mf351b6eb5d" x="9.35244" y="147.257577" style="fill-opacity: 0; stroke: #000000"/>
     <use xlink:href="#mf351b6eb5d" x="21.211163" y="141.952146" style="fill-opacity: 0; stroke: #000000"/>
     <use xlink:href="#mf351b6eb5d" x="31.483656" y="126.291692" style="fill-opacity: 0; stroke: #000000"/>
     <use xlink:href="#mf351b6eb5d" x="40.544637" y="160.23101" style="fill-opacity: 0; stroke: #000000"/>
     <use xlink:href="#mf351b6eb5d" x="48.64996" y="181.772984" style="fill-opacity: 0; stroke: #000000"/>
     <use xlink:href="#mf351b6eb5d" x="62.675853" y="179.528273" style="fill-opacity: 0; stroke: #000000"/>
     <use xlink:href="#mf351b6eb5d" x="68.833492" y="198.746853" style="fill-opacity: 0; stroke: #000000"/>
     <use xlink:href="#mf351b6eb5d" x="79.842157" y="192.958108" style="fill-opacity: 0; stroke: #000000"/>
     <use xlink:href="#mf351b6eb5d" x="89.470885" y="204.304605" style="fill-opacity: 0; stroke: #000000"/>
     <use xlink:href="#mf351b6eb5d" x="98.027409" y="195.415957" style="fill-opacity: 0; stroke: #000000"/>
     <use xlink:href="#mf351b6eb5d" x="105.726772" y="194.005941" style="fill-opacity: 0; stroke: #000000"/>
     <use xlink:href="#mf351b6eb5d" x="115.999265" y="201.887483" style="fill-opacity: 0; stroke: #000000"/>
     <use xlink:href="#mf351b6eb5d" x="125.060246" y="192.186371" style="fill-opacity: 0; stroke: #000000"/>
     <use xlink:href="#mf351b6eb5d" x="133.165569" y="183.795343" style="fill-opacity: 0; stroke: #000000"/>
     <use xlink:href="#mf351b6eb5d" x="142.794298" y="192.930382" style="fill-opacity: 0; stroke: #000000"/>
     <use xlink:href="#mf351b6eb5d" x="151.350822" y="178.511288" style="fill-opacity: 0; stroke: #000000"/>
     <use xlink:href="#mf351b6eb5d" x="159.050184" y="187.911286" style="fill-opacity: 0; stroke: #000000"/>
     <use xlink:href="#mf351b6eb5d" x="169.322677" y="172.268368" style="fill-opacity: 0; stroke: #000000"/>
     <use xlink:href="#mf351b6eb5d" x="178.383658" y="146.750504" style="fill-opacity: 0; stroke: #000000"/>
     <use xlink:href="#mf351b6eb5d" x="186.488982" y="136.572141" style="fill-opacity: 0; stroke: #000000"/>
     <use xlink:href="#mf351b6eb5d" x="196.11771" y="95.833948" style="fill-opacity: 0; stroke: #000000"/>
     <use xlink:href="#mf351b6eb5d" x="204.674234" y="30.247839" style="fill-opacity: 0; stroke: #000000"/>
     <use xlink:href="#mf351b6eb5d" x="214.183784" y="142.801849" style="fill-opacity: 0; stroke: #000000"/>
     <use xlink:href="#mf351b6eb5d" x="222.64609" y="187.036157" style="fill-opacity: 0; stroke: #000000"/>
     <use xlink:href="#mf351b6eb5d" x="231.707071" y="207.181414" style="fill-opacity: 0; stroke: #000000"/>
     <use xlink:href="#mf351b6eb5d" x="241.083984" y="213.061019" style="fill-opacity: 0; stroke: #000000"/>
     <use xlink:href="#mf351b6eb5d" x="250.004711" y="215.25985" style="fill-opacity: 0; stroke: #000000"/>
     <use xlink:href="#mf351b6eb5d" x="259.003274" y="217.083952" style="fill-opacity: 0; stroke: #000000"/>
     <use xlink:href="#mf351b6eb5d" x="267.953166" y="218.564817" style="fill-opacity: 0; stroke: #000000"/>
     <use xlink:href="#mf351b6eb5d" x="276.766705" y="218.527692" style="fill-opacity: 0; stroke: #000000"/>
     <use xlink:href="#mf351b6eb5d" x="285.739515" y="218.519169" style="fill-opacity: 0; stroke: #000000"/>
     <use xlink:href="#mf351b6eb5d" x="294.722036" y="219.051138" style="fill-opacity: 0; stroke: #000000"/>
     <use xlink:href="#mf351b6eb5d" x="303.887612" y="219.018643" style="fill-opacity: 0; stroke: #000000"/>
     <use xlink:href="#mf351b6eb5d" x="312.824613" y="219.140366" style="fill-opacity: 0; stroke: #000000"/>
     <use xlink:href="#mf351b6eb5d" x="321.940721" y="219.057677" style="fill-opacity: 0; stroke: #000000"/>
     <use xlink:href="#mf351b6eb5d" x="330.879144" y="219.128817" style="fill-opacity: 0; stroke: #000000"/>
     <use xlink:href="#mf351b6eb5d" x="339.940125" y="219.102852" style="fill-opacity: 0; stroke: #000000"/>
     <use xlink:href="#mf351b6eb5d" x="348.826465" y="219.082849" style="fill-opacity: 0; stroke: #000000"/>
     <use xlink:href="#mf351b6eb5d" x="357.904712" y="219.137213" style="fill-opacity: 0; stroke: #000000"/>
     <use xlink:href="#mf351b6eb5d" x="366.888925" y="219.132602" style="fill-opacity: 0; stroke: #000000"/>
     <use xlink:href="#mf351b6eb5d" x="375.922592" y="219.132596" style="fill-opacity: 0; stroke: #000000"/>
     <use xlink:href="#mf351b6eb5d" x="384.886378" y="219.14135" style="fill-opacity: 0; stroke: #000000"/>
     <use xlink:href="#mf351b6eb5d" x="393.958165" y="219.134944" style="fill-opacity: 0; stroke: #000000"/>
     <use xlink:href="#mf351b6eb5d" x="402.846076" y="219.140808" style="fill-opacity: 0; stroke: #000000"/>
    </g>
   </g>
   <g id="patch_3">
    <path d="M 48.650726 228.596704 
L 48.650726 20.802655 
" style="fill: none; stroke: #000000; stroke-width: 0.8; stroke-linejoin: miter; stroke-linecap: square"/>
   </g>
   <g id="patch_4">
    <path d="M 402.923809 228.596704 
L 402.923809 20.802655 
" style="fill: none; stroke: #000000; stroke-width: 0.8; stroke-linejoin: miter; stroke-linecap: square"/>
   </g>
   <g id="patch_5">
    <path d="M 48.650726 228.596704 
L 402.923809 228.596704 
" style="fill: none; stroke: #000000; stroke-width: 0.8; stroke-linejoin: miter; stroke-linecap: square"/>
   </g>
   <g id="patch_6">
    <path d="M 48.650726 20.802655 
L 402.923809 20.802655 
" style="fill: none; stroke: #000000; stroke-width: 0.8; stroke-linejoin: miter; stroke-linecap: square"/>
   </g>
   <g id="legend_1">
    <g id="patch_7">
     <path d="M 241.902128 135.554912 
L 390.323809 135.554912 
Q 393.923809 135.554912 393.923809 131.954912 
L 393.923809 33.402655 
Q 393.923809 29.802655 390.323809 29.802655 
L 241.902128 29.802655 
Q 238.302128 29.802655 238.302128 33.402655 
L 238.302128 131.954912 
Q 238.302128 135.554912 241.902128 135.554912 
z
" style="fill: #ffffff; opacity: 0.8; stroke: #cccccc; stroke-linejoin: miter"/>
    </g>
    <g id="line2d_27">
     <path d="M 245.502128 43.302655 
L 263.502128 43.302655 
L 281.502128 43.302655 
" style="fill: none; stroke: #ffa353; stroke-width: 12; stroke-linecap: square"/>
    </g>
    <g id="text_10">
     <!-- recursive -->
     <g transform="translate(295.902128 49.602655) scale(0.18 -0.18)">
      <defs>
       <path id="CMR17-76" d="M 2502 2173 
C 2560 2315 2662 2572 3034 2585 
L 3034 2752 
C 2912 2745 2752 2739 2630 2739 
C 2496 2739 2285 2739 2157 2752 
L 2157 2585 
C 2317 2572 2406 2495 2406 2328 
C 2406 2270 2406 2257 2368 2167 
L 1664 379 
L 902 2308 
C 864 2392 864 2405 864 2431 
C 864 2585 1075 2585 1171 2585 
L 1171 2752 
C 1018 2739 736 2739 576 2739 
C 403 2739 205 2739 64 2752 
L 64 2585 
C 307 2585 442 2585 518 2386 
L 1446 44 
C 1485 -52 1491 -64 1549 -64 
C 1606 -64 1613 -52 1651 44 
L 2502 2173 
z
" transform="scale(0.015625)"/>
      </defs>
      <use xlink:href="#CMR17-72" transform="scale(0.996264)"/>
      <use xlink:href="#CMR17-65" transform="translate(35.280768 0) scale(0.996264)"/>
      <use xlink:href="#CMR17-63" transform="translate(75.766428 0) scale(0.996264)"/>
      <use xlink:href="#CMR17-75" transform="translate(116.252089 0) scale(0.996264)"/>
      <use xlink:href="#CMR17-72" transform="translate(167.147459 0) scale(0.996264)"/>
      <use xlink:href="#CMR17-73" transform="translate(202.428226 0) scale(0.996264)"/>
      <use xlink:href="#CMR17-69" transform="translate(238.229564 0) scale(0.996264)"/>
      <use xlink:href="#CMR17-76" transform="translate(263.100622 0) scale(0.996264)"/>
      <use xlink:href="#CMR17-65" transform="translate(308.791084 0) scale(0.996264)"/>
     </g>
    </g>
    <g id="line2d_28">
     <path d="M 245.502128 68.39072 
L 263.502128 68.39072 
L 281.502128 68.39072 
" style="fill: none; stroke: #095400; stroke-width: 3.5; stroke-linecap: square"/>
    </g>
    <g id="text_11">
     <!-- element-wise -->
     <g transform="translate(295.902128 74.69072) scale(0.18 -0.18)">
      <defs>
       <path id="CMR17-6d" d="M 4326 1954 
C 4326 2276 4269 2816 3507 2816 
C 3072 2816 2771 2520 2656 2173 
L 2650 2173 
C 2573 2700 2195 2816 1837 2816 
C 1331 2816 1069 2424 973 2166 
L 966 2166 
L 966 2816 
L 211 2745 
L 211 2578 
C 589 2578 646 2540 646 2231 
L 646 443 
C 646 198 621 166 211 166 
L 211 0 
C 365 12 646 12 813 12 
C 979 12 1267 12 1421 0 
L 1421 166 
C 1011 166 986 192 986 443 
L 986 1678 
C 986 2269 1344 2713 1792 2713 
C 2266 2713 2317 2289 2317 1980 
L 2317 443 
C 2317 198 2291 166 1882 166 
L 1882 0 
C 2035 12 2317 12 2483 12 
C 2650 12 2938 12 3091 0 
L 3091 166 
C 2682 166 2656 192 2656 443 
L 2656 1678 
C 2656 2269 3014 2713 3462 2713 
C 3936 2713 3987 2289 3987 1980 
L 3987 443 
C 3987 198 3962 166 3552 166 
L 3552 0 
C 3706 12 3987 12 4154 12 
C 4320 12 4608 12 4762 0 
L 4762 166 
C 4352 166 4326 192 4326 443 
L 4326 1954 
z
" transform="scale(0.015625)"/>
       <path id="CMR17-2d" d="M 1632 1254 
L 1632 1536 
L 26 1536 
L 26 1254 
L 1632 1254 
z
" transform="scale(0.015625)"/>
      </defs>
      <use xlink:href="#CMR17-65" transform="scale(0.996264)"/>
      <use xlink:href="#CMR17-6c" transform="translate(40.48566 0) scale(0.996264)"/>
      <use xlink:href="#CMR17-65" transform="translate(65.356719 0) scale(0.996264)"/>
      <use xlink:href="#CMR17-6d" transform="translate(105.842379 0) scale(0.996264)"/>
      <use xlink:href="#CMR17-65" transform="translate(182.761969 0) scale(0.996264)"/>
      <use xlink:href="#CMR17-6e" transform="translate(223.24763 0) scale(0.996264)"/>
      <use xlink:href="#CMR17-74" transform="translate(271.540546 0) scale(0.996264)"/>
      <use xlink:href="#CMR17-2d" transform="translate(306.821313 0) scale(0.996264)"/>
      <use xlink:href="#CMR17-77" transform="translate(336.89728 0) scale(0.996264)"/>
      <use xlink:href="#CMR17-69" transform="translate(403.40716 0) scale(0.996264)"/>
      <use xlink:href="#CMR17-73" transform="translate(428.278219 0) scale(0.996264)"/>
      <use xlink:href="#CMR17-65" transform="translate(464.079556 0) scale(0.996264)"/>
     </g>
    </g>
    <g id="line2d_29">
     <path d="M 245.502128 93.478784 
L 263.502128 93.478784 
L 281.502128 93.478784 
" style="fill: none"/>
     <g>
      <use xlink:href="#me7088da6fd" x="263.502128" y="93.478784" style="fill-opacity: 0; stroke: #1b3b9d; stroke-linejoin: miter"/>
     </g>
    </g>
    <g id="text_12">
     <!-- matrix -->
     <g transform="translate(295.902128 99.778784) scale(0.18 -0.18)">
      <defs>
       <path id="CMR17-78" d="M 1664 1491 
C 1856 1740 2074 2022 2253 2233 
C 2464 2476 2707 2579 2989 2585 
L 2989 2752 
C 2880 2745 2656 2739 2541 2739 
C 2368 2739 2170 2739 2022 2752 
L 2022 2585 
C 2112 2572 2163 2508 2163 2419 
C 2163 2304 2099 2233 2067 2188 
L 1594 1587 
L 1030 2323 
C 973 2393 973 2406 973 2438 
C 973 2515 1037 2579 1146 2585 
L 1146 2752 
C 992 2739 717 2739 557 2739 
C 384 2739 179 2739 38 2752 
L 38 2585 
C 384 2585 461 2560 614 2368 
L 1350 1414 
C 1363 1401 1395 1363 1395 1344 
C 1395 1318 838 633 768 544 
C 480 198 179 172 6 166 
L 6 0 
C 115 6 339 12 454 12 
C 582 12 864 12 979 0 
L 979 166 
C 941 172 838 185 838 332 
C 838 448 890 518 947 595 
L 1478 1248 
L 2035 524 
C 2086 454 2163 358 2163 313 
C 2163 224 2086 172 1984 166 
L 1984 0 
C 2138 12 2413 12 2573 12 
C 2746 12 2950 12 3091 0 
L 3091 166 
C 2771 166 2675 179 2522 377 
L 1664 1491 
z
" transform="scale(0.015625)"/>
      </defs>
      <use xlink:href="#CMR17-6d" transform="scale(0.996264)"/>
      <use xlink:href="#CMR17-61" transform="translate(76.91959 0) scale(0.996264)"/>
      <use xlink:href="#CMR17-74" transform="translate(122.610067 0) scale(0.996264)"/>
      <use xlink:href="#CMR17-72" transform="translate(157.890835 0) scale(0.996264)"/>
      <use xlink:href="#CMR17-69" transform="translate(193.171603 0) scale(0.996264)"/>
      <use xlink:href="#CMR17-78" transform="translate(218.042661 0) scale(0.996264)"/>
     </g>
    </g>
    <g id="line2d_30">
     <path d="M 245.502128 118.566848 
L 263.502128 118.566848 
L 281.502128 118.566848 
" style="fill: none"/>
     <g>
      <use xlink:href="#mf351b6eb5d" x="263.502128" y="118.566848" style="fill-opacity: 0; stroke: #000000"/>
     </g>
    </g>
    <g id="text_13">
     <!-- simulation -->
     <g transform="translate(295.902128 124.866848) scale(0.18 -0.18)">
      <use xlink:href="#CMR17-73" transform="scale(0.996264)"/>
      <use xlink:href="#CMR17-69" transform="translate(35.801338 0) scale(0.996264)"/>
      <use xlink:href="#CMR17-6d" transform="translate(60.672396 0) scale(0.996264)"/>
      <use xlink:href="#CMR17-75" transform="translate(134.989532 0) scale(0.996264)"/>
      <use xlink:href="#CMR17-6c" transform="translate(185.884902 0) scale(0.996264)"/>
      <use xlink:href="#CMR17-61" transform="translate(210.75596 0) scale(0.996264)"/>
      <use xlink:href="#CMR17-74" transform="translate(256.446437 0) scale(0.996264)"/>
      <use xlink:href="#CMR17-69" transform="translate(291.727205 0) scale(0.996264)"/>
      <use xlink:href="#CMR17-6f" transform="translate(316.598264 0) scale(0.996264)"/>
      <use xlink:href="#CMR17-6e" transform="translate(362.288741 0) scale(0.996264)"/>
     </g>
    </g>
   </g>
  </g>
 </g>
 <defs>
  <clipPath id="p4a197ed0e8">
   <rect x="48.650726" y="20.802655" width="354.273083" height="207.794048"/>
  </clipPath>
 </defs>
</svg>
